<svg width="24" height="24" viewBox="0 0 24 24" fill="none" xmlns="http://www.w3.org/2000/svg">
<path opacity="0.5" d="M21.048 21L17.1463 20.9983L13.4695 11.2705L11.9984 7.37869L10.529 11.2705L6.85064 21H2.94727L6.70568 11.2705L8.21003 7.37869L9.90099 3H14.0959L15.7885 7.37869L17.2912 11.2705L21.048 21Z" fill="#374DFB"/>
<path fill-rule="evenodd" clip-rule="evenodd" d="M2 7.37866H8.21068L6.70633 11.2705H3.47105L2 7.37866ZM10.5297 11.2705H10.5297L11.9991 7.37866L11.9991 7.37872L10.5297 11.2705ZM11.9991 7.37872L13.4701 11.2705H13.4701L11.9991 7.37872ZM19.546 17.1082L18.0433 13.2164H22L20.5307 17.1082H19.546ZM14.2049 13.2164L15.6759 17.1082H3.47105L2 13.2164H14.2049ZM20.5305 11.2705H17.2919L15.7892 7.37866H21.9998L20.5305 11.2705Z" fill="#374DFB"/>
</svg>
