<svg width="24" height="24" viewBox="0 0 24 24" fill="none" xmlns="http://www.w3.org/2000/svg">
<g id="Medium/Purchase">
<g id="Shape">
<path fill-rule="evenodd" clip-rule="evenodd" d="M1.82884 5H0V2H4.17116L5.08423 5.65227L5.09357 5.50292L22.8077 6.61005L20.7297 17H4.82884L1.82884 5ZM5.80955 8.55352L7.17116 14H18.2703L19.1923 9.38995L5.80955 8.55352Z" fill="#F50537"/>
<path d="M8 19C6.89543 19 6 19.8954 6 21C6 22.1046 6.89543 23 8 23C9.10457 23 10 22.1046 10 21C10 19.8954 9.10457 19 8 19Z" fill="#F50537"/>
<path d="M15 21C15 19.8954 15.8954 19 17 19C18.1046 19 19 19.8954 19 21C19 22.1046 18.1046 23 17 23C15.8954 23 15 22.1046 15 21Z" fill="#F50537"/>
</g>
</g>
</svg>
