<svg width="40" height="40" viewBox="0 0 40 40" fill="none" xmlns="http://www.w3.org/2000/svg">
<circle cx="20" cy="20" r="20" fill="#374DFB"/>
<path d="M8.00049 22H11.0005L11.0005 18L15.0005 14H25.0005L29.0005 18V22L25.0005 26H21.0005V29H32.0005V11H8.00049V22Z" fill="white"/>
<path d="M21.0005 22.8293C22.1657 22.4175 23.0005 21.3062 23.0005 20C23.0005 18.3432 21.6573 17 20.0005 17C18.3436 17 17.0005 18.3432 17.0005 20C17.0005 20.7684 17.2893 21.4693 17.7644 22C18.3137 22.6138 19.112 23 20.0005 23C20.3511 23 20.6877 22.9399 21.0005 22.8293Z" fill="white"/>
<path d="M14.4291 26L12.6433 23.5H16.1433L19.0005 27.5L16.1433 31.5H12.6433L14.4291 29H8.00049V26L14.4291 26Z" fill="white"/>
</svg>
