<svg width="40" height="40" viewBox="0 0 40 40" fill="none" xmlns="http://www.w3.org/2000/svg">
<circle cx="20" cy="20" r="20" fill="#374DFB"/>
<path fill-rule="evenodd" clip-rule="evenodd" d="M18.5005 16L18.5005 21H10.0005V16H16.0005C14.0675 16 12.5005 14.433 12.5005 12.5C12.5005 10.567 14.0675 9 16.0005 9H16.5005C18.0065 9 19.3181 9.83229 20.0005 11.062C20.6829 9.83229 21.9945 9 23.5005 9H24.0005C25.9335 9 27.5005 10.567 27.5005 12.5C27.5005 14.433 25.9335 16 24.0005 16H30.0005V21H21.5005V16H18.5005ZM24.0005 12H23.5005C22.9482 12 22.5005 12.4477 22.5005 13H24.0005C24.2766 13 24.5005 12.7761 24.5005 12.5C24.5005 12.2239 24.2766 12 24.0005 12ZM16.5005 12H16.0005C15.7243 12 15.5005 12.2239 15.5005 12.5C15.5005 12.7761 15.7243 13 16.0005 13H17.5005C17.5005 12.4477 17.0528 12 16.5005 12Z" fill="white"/>
<path d="M21.5005 29H28.0005V24H21.5005V29Z" fill="white"/>
<path d="M18.5005 24V29H12.0005V24H18.5005Z" fill="white"/>
</svg>
