<svg width="40" height="40" viewBox="0 0 40 40" fill="none" xmlns="http://www.w3.org/2000/svg">
<circle cx="20" cy="20" r="20" fill="#374DFB"/>
<path d="M22.6433 9L24.4291 11.5L13.0004 11.5L11.9397 14.0607L16.3147 18.4357L18.436 16.3143L16.6217 14.5H24.4291L22.6433 17H26.1433L29.0005 13L26.1433 9H22.6433Z" fill="white"/>
<path d="M17.3576 23L15.5719 25.5H23.3791L21.5647 23.6857L23.686 21.5643L28.061 25.9393L27.0004 28.5H15.5719L17.3576 31H13.8576L11.0005 27L13.8576 23H17.3576Z" fill="white"/>
<path d="M20.0005 18C18.8959 18 18.0005 18.8954 18.0005 20C18.0005 21.1046 18.8959 22 20.0005 22C21.1051 22 22.0005 21.1046 22.0005 20C22.0005 18.8954 21.1051 18 20.0005 18Z" fill="white"/>
</svg>
