<svg width="21" height="20" viewBox="0 0 21 20" fill="none" xmlns="http://www.w3.org/2000/svg">
<g id="Medium/Settings">
<path id="Shape" fill-rule="evenodd" clip-rule="evenodd" d="M8.81564 0.833008H11.4347L12.5022 2.968C12.8166 3.07427 13.1217 3.20103 13.4156 3.34671L15.6805 2.59175L17.5325 4.4437L16.7776 6.70813C16.9235 7.00245 17.0505 7.30783 17.1569 7.62268L19.2918 8.69015V11.3092L17.157 12.3766C17.0508 12.6909 16.9241 12.9958 16.7785 13.2896L17.5338 15.5554L15.6818 17.4073L13.4167 16.6523C13.1224 16.7982 12.817 16.9251 12.5021 17.0315L11.4347 19.1664H8.81564L7.74823 17.0315C7.43336 16.9251 7.12797 16.7982 6.83364 16.6523L4.56851 17.4073L2.71656 15.5554L3.47181 13.2896C3.32624 12.9958 3.19956 12.6909 3.09336 12.3766L0.958496 11.3092V8.69015L3.09343 7.62268C3.19983 7.30783 3.32678 7.00245 3.47268 6.70813L2.71787 4.4437L4.56982 2.59175L6.83468 3.34671C7.12866 3.20103 7.43368 3.07427 7.74814 2.968L8.81564 0.833008ZM14.9267 9.99975C14.9267 12.6516 12.777 14.8013 10.1252 14.8013C7.47332 14.8013 5.32358 12.6516 5.32358 9.99975C5.32358 7.34791 7.47332 5.19817 10.1252 5.19817C12.777 5.19817 14.9267 7.34791 14.9267 9.99975Z" fill="white"/>
</g>
</svg>
