<svg width="21" height="20" viewBox="0 0 21 20" fill="none" xmlns="http://www.w3.org/2000/svg">
<g id="Icon">
<g id="Shape">
<path fill-rule="evenodd" clip-rule="evenodd" d="M18.3081 4.08417L16.5404 2.31641L14.0018 4.85499C13.0215 4.43417 11.8959 4.16699 10.6248 4.16699C5.06928 4.16699 2.2915 9.27116 2.2915 10.0003C2.2915 10.4202 3.21257 12.2908 5.0547 13.8021L3.13674 15.72L4.90451 17.4878L18.3081 4.08417ZM6.83364 12.0231L12.0292 6.82761C11.5909 6.72453 11.123 6.66699 10.6248 6.66699C8.67502 6.66699 7.18845 7.54859 6.12863 8.59185C5.62349 9.0891 5.24472 9.59719 4.99677 10.0003C5.24472 10.4035 5.62349 10.9116 6.12863 11.4088C6.34564 11.6224 6.58054 11.8293 6.83364 12.0231ZM4.70661 9.43605C4.70661 9.43605 4.71448 9.45374 4.72382 9.48501C4.7102 9.45101 4.70661 9.43605 4.70661 9.43605ZM4.70661 10.5646C4.70661 10.5646 4.7102 10.5496 4.72382 10.5156C4.71448 10.5469 4.70661 10.5646 4.70661 10.5646Z" fill="white"/>
<path fill-rule="evenodd" clip-rule="evenodd" d="M15.121 11.4088C14.1123 12.4018 12.7169 13.2483 10.9035 13.3276L8.62836 15.6027C9.24836 15.7501 9.91385 15.8337 10.6248 15.8337C16.1804 15.8337 18.9582 10.7295 18.9582 10.0003C18.9582 9.66019 18.3538 8.3681 17.1449 7.08618L15.3761 8.85494C15.7555 9.26481 16.0486 9.66819 16.2529 10.0003C16.005 10.4035 15.6262 10.9116 15.121 11.4088ZM16.5431 9.43605C16.5431 9.43605 16.5395 9.45098 16.5259 9.48496C16.5352 9.45373 16.5431 9.43605 16.5431 9.43605ZM16.5259 10.5157C16.5395 10.5497 16.5431 10.5646 16.5431 10.5646C16.5431 10.5646 16.5352 10.5469 16.5259 10.5157Z" fill="white"/>
</g>
</g>
</svg>
