<svg width="21" height="20" viewBox="0 0 21 20" fill="none" xmlns="http://www.w3.org/2000/svg">
<g id="Icon">
<g id="Shape">
<path d="M10.6248 7.50033C12.0055 7.50033 13.1248 8.61961 13.1248 10.0003C13.1248 11.381 12.0055 12.5003 10.6248 12.5003C9.24413 12.5003 8.12484 11.381 8.12484 10.0003C8.12484 8.61961 9.24413 7.50033 10.6248 7.50033Z" fill="white"/>
<path fill-rule="evenodd" clip-rule="evenodd" d="M18.9582 10.0003C18.9582 10.7295 16.1804 15.8337 10.6248 15.8337C5.06928 15.8337 2.2915 10.7295 2.2915 10.0003C2.2915 9.27116 5.06928 4.16699 10.6248 4.16699C16.1804 4.16699 18.9582 9.27116 18.9582 10.0003ZM16.5431 9.43605C16.5431 9.43605 16.5395 9.45098 16.5259 9.48496C16.5352 9.45373 16.5431 9.43605 16.5431 9.43605ZM15.121 8.59185C15.6262 9.0891 16.005 9.5972 16.2529 10.0003C16.005 10.4035 15.6262 10.9116 15.121 11.4088C14.0612 12.4521 12.5747 13.3337 10.6248 13.3337C8.67502 13.3337 7.18845 12.4521 6.12863 11.4088C5.62349 10.9116 5.24472 10.4035 4.99677 10.0003C5.24472 9.59719 5.62349 9.0891 6.12863 8.59185C7.18845 7.54859 8.67502 6.66699 10.6248 6.66699C12.5747 6.66699 14.0612 7.54859 15.121 8.59185ZM4.70661 9.43605C4.70661 9.43605 4.71448 9.45373 4.72382 9.48501C4.7102 9.45101 4.70661 9.43605 4.70661 9.43605ZM4.70661 10.5646C4.70661 10.5646 4.7102 10.5496 4.72382 10.5156C4.71448 10.5469 4.70661 10.5646 4.70661 10.5646ZM16.5259 10.5157C16.5395 10.5497 16.5431 10.5646 16.5431 10.5646C16.5431 10.5646 16.5352 10.5469 16.5259 10.5157Z" fill="white"/>
</g>
</g>
</svg>
