<svg width="56" height="56" viewBox="0 0 56 56" fill="none" xmlns="http://www.w3.org/2000/svg">
<path fill-rule="evenodd" clip-rule="evenodd" d="M28 24C29.1046 24 30 23.1046 30 22C30 20.8954 29.1046 20 28 20C26.8954 20 26 20.8954 26 22C26 23.1046 26.8954 24 28 24ZM28 27C30.7614 27 33 24.7614 33 22C33 19.2386 30.7614 17 28 17C25.2386 17 23 19.2386 23 22C23 24.7614 25.2386 27 28 27Z" fill="black"/>
<path fill-rule="evenodd" clip-rule="evenodd" d="M18 34.5C18 31.4624 20.4624 29 23.5 29H32.5C35.5376 29 38 31.4624 38 34.5V39H35V34.5C35 33.1193 33.8807 32 32.5 32H23.5C22.1193 32 21 33.1193 21 34.5V39H18V34.5Z" fill="black"/>
</svg>
