<svg width="16" height="16" viewBox="0 0 16 16" fill="none" xmlns="http://www.w3.org/2000/svg">
<circle cx="8" cy="8" r="8" transform="rotate(-90 8 8)" fill="#A8B0BA"/>
<path fill-rule="evenodd" clip-rule="evenodd" d="M7.37516 6.33333L7.37516 8.41667H3.8335V6.33333H6.3335C5.52808 6.33333 4.87516 5.68042 4.87516 4.875C4.87516 4.06958 5.52808 3.41667 6.3335 3.41667H6.54183C7.16933 3.41667 7.71584 3.76345 8.00016 4.27583C8.28448 3.76345 8.83099 3.41667 9.4585 3.41667H9.66683C10.4722 3.41667 11.1252 4.06958 11.1252 4.875C11.1252 5.68042 10.4722 6.33333 9.66683 6.33333H12.1668V8.41667H8.62516V6.33333H7.37516ZM9.66683 4.66667H9.4585C9.22838 4.66667 9.04183 4.85321 9.04183 5.08333H9.66683C9.78189 5.08333 9.87516 4.99006 9.87516 4.875C9.87516 4.75994 9.78189 4.66667 9.66683 4.66667ZM6.54183 4.66667H6.3335C6.21844 4.66667 6.12516 4.75994 6.12516 4.875C6.12516 4.99006 6.21844 5.08333 6.3335 5.08333H6.9585C6.9585 4.85321 6.77195 4.66667 6.54183 4.66667Z" fill="white"/>
<path d="M8.62516 11.75H11.3335V9.66667H8.62516V11.75Z" fill="white"/>
<path d="M7.37516 9.66667V11.75H4.66683V9.66667H7.37516Z" fill="white"/>
</svg>
