<svg width="20" height="20" viewBox="0 0 20 20" fill="none" xmlns="http://www.w3.org/2000/svg">
<path d="M20 7.83329H0V4.49996C0 2.69043 1.46787 1.16663 3.211 1.16663H16.789C18.5321 1.16663 20 2.69043 20 4.49996V7.83329Z" fill="#34A853"/>
<path d="M20 10.5358H0V7.20247C0 5.39294 1.46787 3.86914 3.211 3.86914H16.789C18.5321 3.86914 20 5.39294 20 7.20247V10.5358Z" fill="#FBBC04"/>
<path d="M20 13.3312H0V9.99788C0 8.18835 1.46787 6.66455 3.211 6.66455H16.789C18.5321 6.66455 20 8.18835 20 9.99788V13.3312Z" fill="#EA4335"/>
<path d="M0 8.68334L12.6941 11.6191C14.1553 11.9861 15.7991 11.6191 16.9863 10.7017L20 8.49988V15.3806C20 17.1237 18.5388 18.4999 16.8037 18.4999H3.19633C1.4612 18.4999 0 17.1237 0 15.3806V8.68334Z" fill="url(#paint0_linear_33535_166757)"/>
<defs>
<linearGradient id="paint0_linear_33535_166757" x1="9.04687" y1="13.6908" x2="-1.51273" y2="25.7754" gradientUnits="userSpaceOnUse">
<stop stop-color="#4285F4"/>
<stop offset="1" stop-color="#1B74E8"/>
</linearGradient>
</defs>
</svg>
