<svg width="67" height="22" viewBox="0 0 67 22" fill="none" xmlns="http://www.w3.org/2000/svg">
<path fill-rule="evenodd" clip-rule="evenodd" d="M0.530273 9.96032C0.530273 6.08553 0.530273 4.14813 1.51704 2.78997C1.83572 2.35134 2.22146 1.9656 2.66009 1.64692C4.01825 0.660156 5.95564 0.660156 9.83043 0.660156H11.8972C15.7719 0.660156 17.7093 0.660156 19.0675 1.64692C19.5061 1.9656 19.8919 2.35134 20.2106 2.78997C21.1973 4.14813 21.1973 6.08553 21.1973 9.96032V12.027C21.1973 15.9018 21.1973 17.8392 20.2106 19.1973C19.8919 19.636 19.5061 20.0217 19.0675 20.3404C17.7093 21.3272 15.7719 21.3272 11.8972 21.3272H9.83043C5.95564 21.3272 4.01825 21.3272 2.66009 20.3404C2.22146 20.0217 1.83572 19.636 1.51704 19.1973C0.530273 17.8392 0.530273 15.9018 0.530273 12.027V9.96032ZM13.7664 9.20214C14.1634 9.20214 14.4853 8.8803 14.4853 8.48329C14.4853 8.08628 14.1634 7.76444 13.7664 7.76444C13.3694 7.76444 13.0476 8.08628 13.0476 8.48329C13.0476 8.8803 13.3694 9.20214 13.7664 9.20214ZM8.68887 8.48329C8.68887 8.8803 8.36703 9.20214 7.97002 9.20214C7.57301 9.20214 7.25116 8.8803 7.25116 8.48329C7.25116 8.08628 7.57301 7.76444 7.97002 7.76444C8.36703 7.76444 8.68887 8.08628 8.68887 8.48329ZM5.33779 11.2117C6.81107 12.685 8.80927 13.5127 10.8928 13.5127C12.9763 13.5127 14.9745 12.685 16.4478 11.2117L17.2608 12.0247C15.5719 13.7135 13.2813 14.6624 10.8928 14.6624C8.50437 14.6624 6.21375 13.7135 4.52486 12.0247L5.33779 11.2117ZM57.1067 5.90863H58.8011V16.0672H57.1067V5.90863ZM44.3156 9.10251C44.6811 8.94947 45.0735 8.87114 45.4697 8.87214C46.2552 8.87354 47.0081 9.1862 47.5635 9.74161C48.1189 10.297 48.4316 11.0499 48.433 11.8354V16.0675H46.7386V11.8354C46.7386 11.4989 46.6049 11.1761 46.3669 10.9382C46.129 10.7002 45.8063 10.5666 45.4697 10.5666C45.1332 10.5666 44.8105 10.7002 44.5725 10.9382C44.3346 11.1761 44.2009 11.4989 44.2009 11.8354V16.0675H42.5065V11.8354C42.4915 11.5086 42.3512 11.2001 42.1146 10.9741C41.8781 10.7481 41.5635 10.622 41.2363 10.622C40.9092 10.622 40.5946 10.7481 40.3581 10.9741C40.1215 11.2001 39.9811 11.5086 39.9662 11.8354V16.0675H38.2744V8.87214H39.5326L39.647 9.32966C40.2193 8.96768 40.8986 8.81322 41.5711 8.89215C42.2437 8.97108 42.8688 9.27859 43.3417 9.76324C43.619 9.48021 43.9502 9.25555 44.3156 9.10251ZM37.0043 8.87195H35.3099V16.0673H37.0043V8.87195ZM50.7287 9.5875C51.3484 9.1218 52.1029 8.87061 52.878 8.87196V8.88526C53.3697 8.85246 53.8629 8.921 54.3271 9.08661C54.7912 9.25223 55.2164 9.51141 55.5763 9.84808C55.9361 10.1847 56.223 10.5917 56.4192 11.0438C56.6153 11.4959 56.7165 11.9835 56.7165 12.4763C56.7165 12.9691 56.6153 13.4566 56.4192 13.9087C56.223 14.3608 55.9361 14.7678 55.5763 15.1045C55.2164 15.4411 54.7912 15.7003 54.3271 15.8659C53.8629 16.0316 53.3697 16.1001 52.878 16.0673C52.204 16.0688 51.5435 15.8788 50.9734 15.5193V19.0305H49.279V8.87196H50.5505L50.7287 9.5875ZM51.8199 14.0545C52.1331 14.2638 52.5013 14.3755 52.878 14.3755C53.3829 14.3748 53.8669 14.1739 54.224 13.8169C54.581 13.4599 54.7819 12.9759 54.7826 12.471C54.7826 12.0943 54.6709 11.726 54.4616 11.4128C54.2523 11.0996 53.9549 10.8555 53.6068 10.7114C53.2588 10.5672 52.8759 10.5295 52.5064 10.603C52.137 10.6765 51.7976 10.8579 51.5313 11.1242C51.2649 11.3906 51.0835 11.7299 51.01 12.0994C50.9365 12.4688 50.9743 12.8518 51.1184 13.1998C51.2626 13.5478 51.5067 13.8453 51.8199 14.0545ZM30.6528 7.60307C31.5731 7.60307 32.3498 8.18296 32.3498 8.8719H34.039C34.039 7.23865 32.5201 5.90865 30.6528 5.90865C28.7854 5.90865 27.2666 7.23865 27.2666 8.8719C27.2666 10.7818 28.7535 11.2659 29.8361 11.609C30.0117 11.6649 30.1952 11.7234 30.3681 11.7873C30.5218 11.844 30.7195 11.907 30.896 11.9633L30.8961 11.9633L30.8961 11.9633L30.9613 11.9841C32.1769 12.3751 32.3472 12.5161 32.3472 13.104C32.3472 13.7929 31.5705 14.3755 30.6501 14.3755C29.7297 14.3755 28.9557 13.7929 28.9557 13.104H27.2666C27.2666 14.7399 28.7854 16.0672 30.6528 16.0672C32.5201 16.0672 34.039 14.7372 34.039 13.104C34.039 11.1967 32.56 10.71 31.4827 10.3721L31.4071 10.3477L31.4071 10.3477L31.4069 10.3477C31.2506 10.2972 31.0927 10.2462 30.9347 10.1913C30.7512 10.1274 30.541 10.0583 30.3548 9.99708C29.1392 9.60606 28.9583 9.46508 28.9583 8.8719C28.9583 8.18296 29.7351 7.60307 30.6528 7.60307ZM66.2192 13.1041H66.2086H61.2503C61.3509 13.3914 61.5192 13.6503 61.7408 13.859C61.9624 14.0677 62.231 14.22 62.5238 14.3032C62.8166 14.3864 63.1252 14.3979 63.4234 14.3369C63.7217 14.2759 64.0009 14.1441 64.2375 13.9526H66.3123C65.9466 14.7617 65.2946 15.4068 64.4818 15.764C63.669 16.1211 62.7527 16.1649 61.9095 15.887C61.0663 15.6091 60.3557 15.0292 59.9144 14.2587C59.4732 13.4883 59.3325 12.5819 59.5195 11.714C59.7065 10.8461 60.2079 10.078 60.9272 9.5576C61.6466 9.03721 62.533 8.8013 63.4158 8.89527C64.2987 8.98924 65.1156 9.40646 65.7092 10.0666C66.3029 10.7267 66.6314 11.5832 66.6315 12.471C66.631 12.6834 66.6114 12.8952 66.573 13.1041H66.2192ZM61.9345 10.9143C61.6131 11.1419 61.3703 11.4637 61.2397 11.8353H64.828C64.6974 11.4637 64.4546 11.1419 64.1332 10.9143C63.8118 10.6866 63.4277 10.5644 63.0339 10.5644C62.64 10.5644 62.2559 10.6866 61.9345 10.9143ZM36.1548 8.02601C36.7395 8.02601 37.2134 7.55203 37.2134 6.96733C37.2134 6.38264 36.7395 5.90865 36.1548 5.90865C35.5701 5.90865 35.0961 6.38264 35.0961 6.96733C35.0961 7.55203 35.5701 8.02601 36.1548 8.02601Z" fill="white"/>
</svg>
