<svg width="249" height="153" viewBox="0 0 249 153" fill="none" xmlns="http://www.w3.org/2000/svg">
<g clip-path="url(#clip0_34037_571854)">
<path d="M0.779297 38.1263L10.0504 32.752C11.7298 36.6488 14.6189 39.2679 19.9252 39.2679C25.2314 39.2679 26.3071 37.2525 26.3071 35.4391C26.3071 32.55 23.62 31.4084 16.5663 29.4611C9.58054 27.5116 2.72662 24.1527 2.72662 15.1516C2.72662 6.15054 10.3863 0.842163 18.5136 0.842163C26.6409 0.842163 32.2852 4.53698 35.71 11.4568L26.6409 16.7631C25.0295 13.4041 22.8122 11.3207 18.5115 11.3207C15.1525 11.3207 13.4731 13.0002 13.4731 14.8816C13.4731 17.0309 14.6147 18.5084 21.9384 20.7257C29.0602 22.875 37.0536 25.3602 37.0536 35.3031C37.0536 44.3722 29.7979 49.7464 19.5872 49.7464C9.37645 49.7464 3.39841 45.0439 0.779297 38.1263Z" fill="white"/>
<path d="M52.6197 1.78186V48.8068H41.8711V1.78186H52.6197Z" fill="white"/>
<path d="M107.053 48.8068H96.3049V21.4656L84.1447 41.4172H82.9351L70.7749 21.4656V48.8068H60.0264V1.78186H70.7749L83.5389 22.6731L96.307 1.78186H107.056V48.8068H107.053Z" fill="white"/>
<path d="M148.893 17.9047C148.893 26.8399 141.705 34.0276 132.434 34.0276H125.38V48.8068H114.632V1.78186H132.434C141.705 1.78186 148.893 8.96954 148.893 17.9047ZM138.144 17.9047C138.144 14.4778 135.725 11.8586 132.434 11.8586H125.38V23.9508H132.434C135.725 23.9508 138.144 21.3317 138.144 17.9047Z" fill="white"/>
<path d="M180.078 38.4622V48.8068H152.535V1.78186H163.283V38.4601H180.078V38.4622Z" fill="white"/>
<path d="M213.867 38.4622V48.8068H184.309V1.78186H213.531V12.1265H195.057V19.9179H211.852V30.1287H195.057V38.4579H213.867V38.4622Z" fill="white"/>
<path d="M1.11523 76.7412C1.11523 62.9037 11.394 52.2891 25.5674 52.2891C34.0986 52.2891 41.6222 56.5217 45.7209 63.1716L36.4499 68.5458C34.3665 64.9191 30.3358 62.7676 25.5674 62.7676C17.2381 62.7676 11.8638 68.3439 11.8638 76.7412C11.8638 85.1385 17.2381 90.7148 25.5674 90.7148C30.3379 90.7148 34.4345 88.5655 36.4499 84.9366L45.7209 90.3108C41.6902 96.9607 34.1666 101.193 25.5674 101.193C11.394 101.193 1.11523 90.5787 1.11523 76.7412Z" fill="white"/>
<path d="M65.7466 84.8026H60.6402V100.254H49.8916V53.2286H68.7016C77.6368 53.2286 84.8244 60.4163 84.8244 69.3515C84.8244 75.1297 81.3316 80.3679 76.1593 82.9892L86.168 100.254H74.6137L65.7466 84.8026ZM60.6402 75.3976H68.7016C71.6566 75.3976 74.0759 72.7784 74.0759 69.3515C74.0759 65.9245 71.6566 63.3054 68.7016 63.3054H60.6402V75.3976Z" fill="white"/>
<path d="M110.01 82.1835V100.254H99.2616V82.1835L83.4746 53.2308H95.7007L104.636 71.369L113.571 53.2308H125.797L110.01 82.1835Z" fill="white"/>
<path d="M162.678 69.3515C162.678 78.2867 155.49 85.4743 146.219 85.4743H139.165V100.254H128.417V53.2286H146.219C155.49 53.2286 162.678 60.4163 162.678 69.3515ZM151.929 69.3515C151.929 65.9245 149.51 63.3054 146.219 63.3054H139.165V75.3976H146.219C149.51 75.3976 151.929 72.7784 151.929 69.3515Z" fill="white"/>
<path d="M198.954 63.5755H186.862V100.254H176.113V63.5755H164.021V53.2308H198.954V63.5755Z" fill="white"/>
<path d="M199.303 76.7412C199.303 62.9037 210.253 52.2891 223.755 52.2891C237.256 52.2891 248.207 62.9037 248.207 76.7412C248.207 90.5787 237.256 101.193 223.755 101.193C210.253 101.193 199.303 90.5787 199.303 76.7412ZM237.461 76.7412C237.461 68.3439 231.414 62.7676 223.757 62.7676C216.099 62.7676 210.053 68.3439 210.053 76.7412C210.053 85.1385 216.099 90.7148 223.757 90.7148C231.414 90.7148 237.461 85.1385 237.461 76.7412Z" fill="white"/>
<path d="M1.11523 128.188C1.11523 114.35 11.394 103.736 25.5674 103.736C34.0986 103.736 41.6222 107.969 45.7209 114.618L36.4499 119.993C34.3665 116.366 30.3358 114.214 25.5674 114.214C17.2381 114.214 11.8638 119.791 11.8638 128.188C11.8638 136.585 17.2381 142.162 25.5674 142.162C30.3379 142.162 34.4345 140.012 36.4499 136.383L45.7209 141.758C41.6902 148.407 34.1666 152.64 25.5674 152.64C11.394 152.64 1.11523 142.025 1.11523 128.188Z" fill="white"/>
<path d="M77.2267 144.311H59.7603L57.4091 151.701H45.6528L61.6417 104.676H75.3453L91.3342 151.701H79.578L77.2267 144.311ZM74.0039 134.234L68.4957 116.97L62.9874 134.234H74.0039Z" fill="white"/>
<path d="M109.809 136.249H104.702V151.701H93.9536V104.676H112.764C121.699 104.676 128.886 111.863 128.886 120.798C128.886 126.577 125.394 131.815 120.221 134.436L130.23 151.701H118.676L109.809 136.249ZM104.704 126.844H112.766C115.721 126.844 118.14 124.225 118.14 120.798C118.14 117.371 115.721 114.752 112.766 114.752H104.704V126.844Z" fill="white"/>
<path d="M176.107 128.188C176.107 141.49 166.232 151.701 153.266 151.701H134.456V104.676H153.266C166.232 104.676 176.107 114.886 176.107 128.188ZM165.76 128.188C165.76 120.127 160.654 115.02 153.266 115.02H145.205V141.354H153.266C160.656 141.354 165.76 136.247 165.76 128.188Z" fill="white"/>
</g>
<defs>
<clipPath id="clip0_34037_571854">
<rect width="247.43" height="151.798" fill="white" transform="translate(0.779297 0.842163)"/>
</clipPath>
</defs>
</svg>
