<svg width="30" height="30" viewBox="0 0 30 30" fill="none" xmlns="http://www.w3.org/2000/svg">
<path d="M16.3229 1.03291C16.1712 0.42586 15.6257 0 15 0C14.3743 0 13.8288 0.42586 13.6771 1.03291L11.9023 8.13198C11.5328 9.61019 11.4083 10.0382 11.1965 10.3692C10.9838 10.7016 10.7016 10.9838 10.3692 11.1965C10.0382 11.4083 9.61019 11.5328 8.13198 11.9023L1.03291 13.6771C0.42586 13.8288 0 14.3743 0 15C0 15.6257 0.42586 16.1712 1.03291 16.3229L8.13198 18.0977C9.61019 18.4672 10.0382 18.5917 10.3692 18.8035C10.7016 19.0162 10.9838 19.2984 11.1965 19.6308C11.4083 19.9618 11.5328 20.3898 11.9023 21.868L13.6771 28.9671C13.8288 29.5741 14.3743 30 15 30C15.6257 30 16.1712 29.5741 16.3229 28.9671L18.0977 21.868C18.4672 20.3898 18.5917 19.9618 18.8035 19.6308C19.0162 19.2984 19.2984 19.0162 19.6308 18.8035C19.9618 18.5917 20.3898 18.4672 21.868 18.0977L28.9671 16.3229C29.5741 16.1712 30 15.6257 30 15C30 14.3743 29.5741 13.8288 28.9671 13.6771L21.868 11.9023C20.3898 11.5328 19.9618 11.4083 19.6308 11.1965C19.2984 10.9838 19.0162 10.7016 18.8035 10.3692C18.5917 10.0382 18.4672 9.61019 18.0977 8.13199L16.3229 1.03291Z" fill="white"/>
</svg>
