<svg width="24" height="24" viewBox="0 0 24 24" fill="none" xmlns="http://www.w3.org/2000/svg">
<path fill-rule="evenodd" clip-rule="evenodd" d="M8.57668 5.32508C6.58349 6.34937 5.10874 8.24021 4.65003 10.5H7.00227C7.21568 8.68846 7.75126 6.93655 8.57668 5.32508ZM12.0004 1.5C12.0003 1.5 12.0001 1.5 12 1.5C6.20101 1.5 1.5 6.20101 1.5 12C1.5 17.799 6.20101 22.5 12 22.5C17.799 22.5 22.5 17.799 22.5 12C22.5 6.20279 17.8019 1.50288 12.0053 1.5M15.4244 5.32562C16.2496 6.93695 16.7851 8.68866 16.9985 10.5H19.35C18.8913 8.24061 17.417 6.35004 15.4244 5.32562ZM13.9726 10.5C13.7045 8.6786 13.0299 6.94137 12.0004 5.41763C10.9709 6.94137 10.2962 8.6786 10.0282 10.5H13.9726ZM10.0282 13.5H13.9726C13.7045 15.3214 13.0299 17.0586 12.0004 18.5824C10.9709 17.0586 10.2962 15.3214 10.0282 13.5ZM7.00227 13.5H4.65003C5.10874 15.7598 6.58349 17.6506 8.57668 18.6749C7.75126 17.0634 7.21568 15.3115 7.00227 13.5ZM15.4244 18.6744C16.2496 17.0631 16.7851 15.3113 16.9985 13.5H19.35C18.8913 15.7594 17.417 17.65 15.4244 18.6744Z" fill="#374DFB"/>
</svg>
