<svg width="40" height="40" viewBox="0 0 40 40" fill="none" xmlns="http://www.w3.org/2000/svg">
<path fill-rule="evenodd" clip-rule="evenodd" d="M20.0001 4.16669C14.9375 4.16669 10.8335 8.27074 10.8335 13.3334C10.8335 18.396 14.9375 22.5 20.0001 22.5C25.0627 22.5 29.1668 18.396 29.1668 13.3334C29.1668 8.27074 25.0627 4.16669 20.0001 4.16669ZM15.8335 13.3334C15.8335 11.0322 17.6989 9.16669 20.0001 9.16669C22.3013 9.16669 24.1668 11.0322 24.1668 13.3334C24.1668 15.6345 22.3013 17.5 20.0001 17.5C17.6989 17.5 15.8335 15.6345 15.8335 13.3334Z" fill="white"/>
<path d="M8.334 33.5296C11.3377 30.8416 15.4428 29.1667 20.0002 29.1667C24.5575 29.1667 28.6626 30.8416 31.6663 33.5296L33.5293 35.1968L36.8636 31.4709L35.0007 29.8037C31.0835 26.2982 25.7924 24.1667 20.0002 24.1667C14.2079 24.1667 8.91682 26.2982 4.99966 29.8037L3.13672 31.4709L6.47105 35.1968L8.334 33.5296Z" fill="white"/>
</svg>
