<svg width="102" height="56" viewBox="0 0 102 56" fill="none" xmlns="http://www.w3.org/2000/svg">
<path d="M35.489 34C35.1142 33.0404 34.8267 32.0372 34.6362 31M66.2393 34C66.9656 32.1404 67.3642 30.1168 67.3642 28C67.3642 18.8873 59.9769 11.5 50.8642 11.5C42.776 11.5 36.047 17.3196 34.6362 25" stroke="black" stroke-width="3" stroke-linecap="round"/>
<path d="M39.8643 40.5V28C39.8643 26.1996 40.2968 24.5001 41.0637 23M61.8643 40.5V28C61.8643 21.9249 56.9394 17 50.8643 17C48.4326 17 46.1853 17.789 44.3643 19.125" stroke="black" stroke-width="3" stroke-linecap="round"/>
<path d="M56.3643 28C56.3643 24.9624 53.9018 22.5 50.8643 22.5C47.8267 22.5 45.3643 24.9624 45.3643 28V43" stroke="black" stroke-width="3" stroke-linecap="round"/>
<path d="M50.8643 28V38.5" stroke="black" stroke-width="3" stroke-linecap="round"/>
<path d="M56.3643 32.5V43" stroke="black" stroke-width="3" stroke-linecap="round"/>
<path d="M50.8643 43.5V44.5" stroke="black" stroke-width="3" stroke-linecap="round"/>
</svg>
