<svg width="13" height="12" viewBox="0 0 13 12" fill="none" xmlns="http://www.w3.org/2000/svg">
<g id="Group 809">
<g id="Vector">
<path fill-rule="evenodd" clip-rule="evenodd" d="M5.99984 8.66667C7.84079 8.66667 9.33317 7.17428 9.33317 5.33333C9.33317 3.49238 7.84079 2 5.99984 2C4.15889 2 2.6665 3.49238 2.6665 5.33333C2.6665 7.17428 4.15889 8.66667 5.99984 8.66667ZM5.99984 10.6667C8.94536 10.6667 11.3332 8.27885 11.3332 5.33333C11.3332 2.38781 8.94536 0 5.99984 0C3.05432 0 0.666504 2.38781 0.666504 5.33333C0.666504 8.27885 3.05432 10.6667 5.99984 10.6667Z" fill="black"/>
<path d="M12.3332 10.6667L8.99984 7.33333L7.6665 8.66667L10.9998 12L12.3332 10.6667Z" fill="black"/>
</g>
</g>
</svg>
