<svg width="20" height="20" viewBox="0 0 20 20" fill="none" xmlns="http://www.w3.org/2000/svg">
<g id="Icon / Invest / Setting">
<path id="icon" fill-rule="evenodd" clip-rule="evenodd" d="M4.16667 11.6663C3.24619 11.6663 2.5 10.9201 2.5 9.99967C2.5 9.0792 3.24619 8.33301 4.16667 8.33301C5.08714 8.33301 5.83333 9.0792 5.83333 9.99967C5.83333 10.9201 5.08714 11.6663 4.16667 11.6663ZM10 11.6663C9.07952 11.6663 8.33333 10.9201 8.33333 9.99967C8.33333 9.0792 9.07952 8.33301 10 8.33301C10.9205 8.33301 11.6667 9.0792 11.6667 9.99967C11.6667 10.9201 10.9205 11.6663 10 11.6663ZM14.1667 9.99967C14.1667 10.9201 14.9129 11.6663 15.8333 11.6663C16.7538 11.6663 17.5 10.9201 17.5 9.99967C17.5 9.0792 16.7538 8.33301 15.8333 8.33301C14.9129 8.33301 14.1667 9.0792 14.1667 9.99967Z" fill="black"/>
</g>
</svg>
