<svg width="20" height="20" viewBox="0 0 20 20" fill="none" xmlns="http://www.w3.org/2000/svg">
<g id="Icon / Invest / Share/Default">
<path id="icon" fill-rule="evenodd" clip-rule="evenodd" d="M10.6665 5.5C10.6665 5.71556 10.6892 5.92581 10.7324 6.12848L6.9292 8.0301C6.37921 7.39891 5.56944 7 4.6665 7C3.00965 7 1.6665 8.34315 1.6665 10C1.6665 11.6569 3.00965 13 4.6665 13C5.56947 13 6.37926 12.6011 6.92925 11.9698L10.7325 13.8714C10.6892 14.0741 10.6665 14.2844 10.6665 14.5C10.6665 16.1569 12.0096 17.5 13.6665 17.5C15.3234 17.5 16.6665 16.1569 16.6665 14.5C16.6665 12.8431 15.3234 11.5 13.6665 11.5C12.7636 11.5 11.9538 11.8989 11.4038 12.5301L7.60057 10.6285C7.64377 10.4258 7.6665 10.2155 7.6665 10C7.6665 9.78442 7.64377 9.57416 7.60056 9.37147L11.4038 7.46986C11.9538 8.10108 12.7635 8.5 13.6665 8.5C15.3234 8.5 16.6665 7.15685 16.6665 5.5C16.6665 3.84315 15.3234 2.5 13.6665 2.5C12.0096 2.5 10.6665 3.84315 10.6665 5.5ZM6.1665 10C6.1665 10.8284 5.49493 11.5 4.6665 11.5C3.83808 11.5 3.1665 10.8284 3.1665 10C3.1665 9.17157 3.83808 8.5 4.6665 8.5C5.49493 8.5 6.1665 9.17157 6.1665 10ZM13.6665 7C14.4949 7 15.1665 6.32843 15.1665 5.5C15.1665 4.67157 14.4949 4 13.6665 4C12.8381 4 12.1665 4.67157 12.1665 5.5C12.1665 6.32843 12.8381 7 13.6665 7ZM15.1665 14.5C15.1665 15.3284 14.4949 16 13.6665 16C12.8381 16 12.1665 15.3284 12.1665 14.5C12.1665 13.6716 12.8381 13 13.6665 13C14.4949 13 15.1665 13.6716 15.1665 14.5Z" fill="black"/>
</g>
</svg>
