<svg width="24" height="24" viewBox="0 0 24 24" fill="none" xmlns="http://www.w3.org/2000/svg">
<path d="M0 14H3L3 10L7 6H17L21 10V14L17 18H13V21H24V3H0V14Z" fill="black"/>
<path d="M13 14.8293C14.1652 14.4175 15 13.3062 15 12C15 10.3431 13.6569 9 12 9C10.3431 9 9 10.3431 9 12C9 12.7684 9.28885 13.4692 9.76389 14C10.3132 14.6137 11.1115 15 12 15C12.3506 15 12.6872 14.9398 13 14.8293Z" fill="black"/>
<path d="M6.42857 18L4.64286 15.5H8.14286L11 19.5L8.14286 23.5H4.64286L6.42857 21H0V18L6.42857 18Z" fill="black"/>
</svg>
