<svg width="24" height="24" viewBox="0 0 24 24" fill="none" xmlns="http://www.w3.org/2000/svg">
<path d="M1.00488 1L3.00488 4V10H21.0049V1H10L8 6V1H1.00488Z" fill="black"/>
<path fill-rule="evenodd" clip-rule="evenodd" d="M21 12H3V15H9.77778L8.86772 19.0953C8.42242 21.0991 9.94725 23 12 23C14.0528 23 15.5776 21.0991 15.1323 19.0953L14.2222 15H21.0049L21 12ZM12.0049 21C12.8333 21 13.5049 20.3284 13.5049 19.5C13.5049 18.6716 12.8333 18 12.0049 18C11.1765 18 10.5049 18.6716 10.5049 19.5C10.5049 20.3284 11.1765 21 12.0049 21Z" fill="black"/>
</svg>
