<svg width="24" height="24" viewBox="0 0 24 24" fill="none" xmlns="http://www.w3.org/2000/svg">
<path d="M9.62205 3.70261L8.27386 4.36016C6.6605 5.14705 5.33767 6.42449 4.49496 8.00941C3.65225 9.59432 3.33292 11.4053 3.58273 13.1829L3.79149 14.6683L0.82069 15.0858L0.61193 13.6004C0.273939 11.1955 0.705975 8.74528 1.84612 6.60099C2.98626 4.4567 4.77597 2.72839 6.95875 1.66378L8.30694 1.00623L9.62205 3.70261Z" fill="black"/>
<path d="M17.0411 1.66384L15.6929 1.00629L14.3778 3.70267L15.726 4.36023C17.3394 5.14711 18.6622 6.42455 19.5049 8.00947C20.3476 9.59438 20.6669 11.4054 20.4171 13.1829L20.2084 14.6683L23.1792 15.0859L23.3879 13.6005C23.7259 11.1955 23.2939 8.74534 22.1537 6.60105C21.0136 4.45676 19.2239 2.72845 17.0411 1.66384Z" fill="black"/>
<path d="M7.00374 18.8767L5.79021 17.995L4.02686 20.422L5.24038 21.3037C7.20513 22.7312 9.57135 23.5 11.9999 23.5C14.4285 23.5 16.7947 22.7312 18.7594 21.3037L19.973 20.422L18.2096 17.995L16.9961 18.8767C15.5439 19.9318 13.7949 20.5 11.9999 20.5C10.2049 20.5 8.45594 19.9318 7.00374 18.8767Z" fill="black"/>
<path fill-rule="evenodd" clip-rule="evenodd" d="M19.3712 12L11.9999 4.62866L4.62854 12L11.9999 19.3713L19.3712 12ZM11.9999 15.1287L8.87118 12L11.9999 8.8713L15.1285 12L11.9999 15.1287Z" fill="black"/>
</svg>
