<svg width="24" height="24" viewBox="0 0 24 24" fill="none" xmlns="http://www.w3.org/2000/svg">
<path d="M12 1.75C12.4697 1.75 12.8998 2.01338 13.1134 2.4318L15.5222 7.15201L20.7558 7.98436C21.2197 8.05815 21.6031 8.38581 21.7483 8.83258C21.8935 9.27934 21.7759 9.76978 21.4439 10.1022L17.6991 13.8518L18.5248 19.0864C18.598 19.5504 18.4048 20.0163 18.0248 20.2924C17.6447 20.5685 17.142 20.6083 16.7233 20.3953L12 17.9925L7.27668 20.3953C6.85798 20.6083 6.35522 20.5685 5.97517 20.2924C5.59513 20.0163 5.40198 19.5504 5.47517 19.0864L6.30081 13.8518L2.55601 10.1022C2.22406 9.76978 2.10648 9.27934 2.25164 8.83258C2.39681 8.38581 2.7802 8.05815 3.24413 7.98436L8.4777 7.15201L10.8866 2.4318C11.1001 2.01338 11.5302 1.75 12 1.75Z" fill="black"/>
</svg>
