<svg width="24" height="24" viewBox="0 0 24 24" fill="none" xmlns="http://www.w3.org/2000/svg">
<path fill-rule="evenodd" clip-rule="evenodd" d="M18.6489 1.96418L3.22202 20.3492L5.52015 22.2776L7.0179 20.4927C7.10641 20.4702 7.19322 20.4377 7.27668 20.3953L12 17.9925L16.7233 20.3953C17.142 20.6083 17.6447 20.5685 18.0248 20.2924C18.4048 20.0163 18.598 19.5504 18.5248 19.0864L17.6991 13.8518L21.4439 10.1022C21.7759 9.76978 21.8935 9.27935 21.7483 8.83258C21.6031 8.38581 21.2197 8.05815 20.7558 7.98436L17.8953 7.52943L20.9471 3.89254L18.6489 1.96418ZM16.0213 9.7628L11.0743 15.6585L11.4332 15.4759C11.7893 15.2947 12.2106 15.2947 12.5667 15.4759L15.6737 17.0564L15.1306 13.6131C15.0683 13.2185 15.1985 12.8178 15.4809 12.5351L17.9442 10.0686L16.0213 9.7628Z" fill="black"/>
<path d="M6.05578 10.0686L8.22141 9.72419L13.5774 3.34113L13.1134 2.4318C12.8998 2.01338 12.4697 1.75 12 1.75C11.5302 1.75 11.1001 2.01338 10.8866 2.4318L8.4777 7.15201L3.24413 7.98436C2.7802 8.05815 2.39681 8.38581 2.25164 8.83258C2.10648 9.27935 2.22406 9.76978 2.55601 10.1022L5.46238 13.0123L7.07558 11.0897L6.05578 10.0686Z" fill="black"/>
</svg>
