<svg width="24" height="24" viewBox="0 0 24 24" fill="none" xmlns="http://www.w3.org/2000/svg">
<path fill-rule="evenodd" clip-rule="evenodd" d="M12 1.75C12.4697 1.75 12.8998 2.01338 13.1134 2.4318L15.5222 7.15201L20.7558 7.98436C21.2197 8.05815 21.6031 8.38581 21.7483 8.83258C21.8935 9.27934 21.7759 9.76978 21.4439 10.1022L17.6991 13.8518L18.5248 19.0864C18.598 19.5504 18.4048 20.0163 18.0248 20.2924C17.6447 20.5685 17.142 20.6083 16.7233 20.3953L12 17.9925L7.27668 20.3953C6.85798 20.6083 6.35522 20.5685 5.97517 20.2924C5.59513 20.0163 5.40198 19.5504 5.47517 19.0864L6.30081 13.8518L2.55601 10.1022C2.22406 9.76978 2.10648 9.27934 2.25164 8.83258C2.39681 8.38581 2.7802 8.05815 3.24413 7.98436L8.4777 7.15201L10.8866 2.4318C11.1001 2.01338 11.5302 1.75 12 1.75ZM12 5.7499L10.4154 8.85481C10.2338 9.21071 9.89298 9.45834 9.49837 9.5211L6.05577 10.0686L8.51907 12.5351C8.80143 12.8178 8.93161 13.2185 8.86936 13.6131L8.32626 17.0564L11.4332 15.4759C11.7893 15.2947 12.2106 15.2947 12.5667 15.4759L15.6737 17.0564L15.1306 13.6131C15.0683 13.2185 15.1985 12.8178 15.4809 12.5351L17.9442 10.0686L14.5016 9.5211C14.107 9.45834 13.7661 9.21071 13.5845 8.85481L12 5.7499Z" fill="black"/>
</svg>
