<svg width="24" height="24" viewBox="0 0 24 24" fill="none" xmlns="http://www.w3.org/2000/svg">
<path fill-rule="evenodd" clip-rule="evenodd" d="M10.5 8L10.5 13H2V8H8C6.067 8 4.5 6.433 4.5 4.5C4.5 2.567 6.067 1 8 1H8.5C10.006 1 11.3176 1.83229 12 3.062C12.6824 1.83229 13.994 1 15.5 1H16C17.933 1 19.5 2.567 19.5 4.5C19.5 6.433 17.933 8 16 8H22V13H13.5V8H10.5ZM16 4H15.5C14.9477 4 14.5 4.44772 14.5 5H16C16.2761 5 16.5 4.77614 16.5 4.5C16.5 4.22386 16.2761 4 16 4ZM8.5 4H8C7.72386 4 7.5 4.22386 7.5 4.5C7.5 4.77614 7.72386 5 8 5H9.5C9.5 4.44772 9.05228 4 8.5 4Z" fill="black"/>
<path d="M13.5 21H20V16H13.5V21Z" fill="black"/>
<path d="M10.5 16V21H4V16H10.5Z" fill="black"/>
</svg>
