<svg width="24" height="24" viewBox="0 0 24 24" fill="none" xmlns="http://www.w3.org/2000/svg">
<path fill-rule="evenodd" clip-rule="evenodd" d="M1.5 12C1.5 6.20101 6.20101 1.5 12 1.5C17.799 1.5 22.5 6.20101 22.5 12C22.5 17.799 17.799 22.5 12 22.5C6.20101 22.5 1.5 17.799 1.5 12ZM4.65003 10.5C5.08429 8.36065 6.42918 6.55197 8.26249 5.49616C8.22422 5.57736 8.18703 5.65932 8.15089 5.74192C7.57435 7.05972 7.19366 8.70756 7.0567 10.5H4.65003ZM4.65003 13.5C5.08429 15.6394 6.42918 17.448 8.26249 18.5038C8.22422 18.4226 8.18703 18.3407 8.15089 18.2581C7.57435 16.9403 7.19366 15.2924 7.0567 13.5H4.65003ZM10.067 13.5C10.196 14.9187 10.5015 16.1461 10.8994 17.0556C11.1666 17.6664 11.446 18.0665 11.6802 18.2929C11.7932 18.4021 11.8789 18.4548 11.9301 18.4787C11.9757 18.5001 11.9959 18.5 11.9998 18.5C12.0037 18.5 12.0243 18.5001 12.0699 18.4787C12.1211 18.4548 12.2068 18.4021 12.3198 18.2929C12.554 18.0665 12.8334 17.6664 13.1006 17.0556C13.4985 16.1461 13.804 14.9187 13.933 13.5H10.067ZM16.9433 13.5C16.8063 15.2924 16.4256 16.9403 15.8491 18.2581C15.813 18.3407 15.7758 18.4226 15.7375 18.5038C17.5708 17.448 18.9157 15.6394 19.35 13.5H16.9433ZM19.35 10.5H16.9433C16.8063 8.70756 16.4256 7.05972 15.8491 5.74192C15.813 5.65932 15.7758 5.57736 15.7375 5.49616C17.5708 6.55196 18.9157 8.36064 19.35 10.5ZM13.933 10.5H10.067C10.196 9.08127 10.5015 7.85388 10.8994 6.94437C11.1666 6.33362 11.446 5.93354 11.6802 5.7071C11.7932 5.59787 11.8789 5.54522 11.9301 5.52125C11.9757 5.49992 11.9963 5.49999 12.0002 5.5C12.0041 5.49999 12.0243 5.49992 12.0699 5.52125C12.1211 5.54522 12.2068 5.59787 12.3198 5.7071C12.554 5.93354 12.8334 6.33362 13.1006 6.94437C13.4985 7.85388 13.804 9.08127 13.933 10.5Z" fill="black"/>
</svg>
