<svg width="24" height="24" viewBox="0 0 24 24" fill="none" xmlns="http://www.w3.org/2000/svg">
<path fill-rule="evenodd" clip-rule="evenodd" d="M21.22 4.90062L19.0986 2.7793L16.0523 5.8256C14.876 5.32061 13.5253 5 12 5C5.33333 5 2 11.125 2 12C2 12.5039 3.10528 14.7485 5.31583 16.5621L3.01428 18.8636L5.1356 20.985L21.22 4.90062ZM7.45056 14.4274L13.6852 8.19275C13.1593 8.06905 12.5978 8 12 8C9.66022 8 7.87634 9.05792 6.60455 10.3098C5.99839 10.9065 5.54386 11.5162 5.24632 12C5.54386 12.4838 5.99839 13.0935 6.60455 13.6902C6.86496 13.9465 7.14684 14.1947 7.45056 14.4274ZM4.89812 11.3229C4.89812 11.3229 4.90757 11.3441 4.91877 11.3816C4.90244 11.3408 4.89812 11.3229 4.89812 11.3229ZM4.89813 12.6771C4.89813 12.6771 4.90244 12.6592 4.91877 12.6184C4.90758 12.6559 4.89813 12.6771 4.89813 12.6771Z" fill="black"/>
<path fill-rule="evenodd" clip-rule="evenodd" d="M17.3954 13.6902C16.1849 14.8818 14.5105 15.8976 12.3344 15.9927L9.60422 18.7229C10.3482 18.8997 11.1468 19 12 19C18.6667 19 22 12.875 22 12C22 11.5918 21.2747 10.0413 19.8241 8.50302L17.7016 10.6255C18.1568 11.1174 18.5085 11.6014 18.7537 12C18.4561 12.4838 18.0016 13.0935 17.3954 13.6902ZM19.1019 11.3229C19.1019 11.3229 19.0976 11.3408 19.0812 11.3816C19.0924 11.3441 19.1019 11.3229 19.1019 11.3229ZM19.0812 12.6184C19.0976 12.6592 19.1019 12.6771 19.1019 12.6771C19.1019 12.6771 19.0924 12.6559 19.0812 12.6184Z" fill="black"/>
</svg>
