<svg width="20" height="20" viewBox="0 0 20 20" fill="none" xmlns="http://www.w3.org/2000/svg">
<path d="M8.36588 3.19342C9.98655 2.80433 11.6929 3.00629 13.1779 3.76296C14.663 4.51964 15.8293 5.78137 16.4672 7.32122C17.105 8.86107 17.1724 10.578 16.6574 12.1631C16.1423 13.7483 15.0786 15.0976 13.6575 15.9685C12.2364 16.8393 10.5512 17.1745 8.90495 16.9138C7.25875 16.6531 5.7596 15.8135 4.67715 14.5461C3.59471 13.2787 3 11.6667 3 9.99999L0 9.99999C-2.3275e-06 12.381 0.84958 14.6839 2.39593 16.4945C3.94229 18.305 6.08393 19.5044 8.43565 19.8769C10.7874 20.2493 13.1948 19.7705 15.225 18.5264C17.2551 17.2823 18.7748 15.3547 19.5106 13.0902C20.2463 10.8257 20.15 8.37295 19.2388 6.17317C18.3276 3.97339 16.6614 2.17091 14.5399 1.08995C12.4184 0.00898325 9.98079 -0.279526 7.66555 0.276313C5.86252 0.709181 4.22585 1.632 2.92892 2.92892L1 1L1 7L7 7L5.05024 5.05024C5.95809 4.1424 7.10376 3.49643 8.36588 3.19342Z" fill="black"/>
<path d="M8.5 5H11.5V9.37868L14.0607 11.9393L11.9393 14.0607L8.5 10.6213V5Z" fill="black"/>
</svg>
