<svg width="24" height="24" viewBox="0 0 24 24" fill="none" xmlns="http://www.w3.org/2000/svg">
<path d="M6.6967 7.69661C9.26243 5.13088 13.2246 4.81272 16.1367 6.74211L12.7771 10.1016C12.5293 10.0353 12.2688 10 12 10C10.3431 10 9 11.3431 9 13C9 14.6569 10.3431 16 12 16C13.6569 16 15 14.6569 15 13C15 12.7313 14.9647 12.4708 14.8984 12.223L18.258 8.86347C20.1872 11.7755 19.869 15.7376 17.3033 18.3032L19.4246 20.4245C23.5251 16.324 23.5251 9.67579 19.4246 5.57529C15.3241 1.47478 8.67588 1.47478 4.57538 5.57529C0.474874 9.67579 0.474874 16.324 4.57538 20.4245L6.6967 18.3032C3.76777 15.3743 3.76777 10.6255 6.6967 7.69661Z" fill="black"/>
</svg>
