<svg width="24" height="24" viewBox="0 0 24 24" fill="none" xmlns="http://www.w3.org/2000/svg">
<path fill-rule="evenodd" clip-rule="evenodd" d="M12 2C6.47715 2 2 6.47715 2 12C2 17.5228 6.47715 22 12 22C17.5228 22 22 17.5228 22 12C22 6.47715 17.5228 2 12 2ZM9.58468 7.49439C9.58468 8.16193 9.00608 8.70307 8.29234 8.70307C7.5786 8.70307 7 8.16193 7 7.49439C7 6.82686 7.5786 6.28571 8.29234 6.28571C9.00608 6.28571 9.58468 6.82686 9.58468 7.49439ZM7.17673 9.5915H9.38586V16.2857H7.17673V9.5915ZM10.7334 9.5915H12.9426V10.4504C13.3134 9.97861 14.0253 9.4572 15.1738 9.4572C17.1077 9.4572 17.6956 10.4967 17.7143 12.7527V16.2857H15.5052C15.5052 15.8491 15.5021 15.4101 15.4991 14.9713C15.4948 14.349 15.4905 13.7269 15.4949 13.1122C15.5005 12.3104 15.5079 11.2754 14.2901 11.2754C13.2126 11.2754 12.9426 12.0697 12.9426 12.8606V16.2857H10.7334V9.5915Z" fill="black"/>
</svg>
