<svg width="24" height="24" viewBox="0 0 24 24" fill="none" xmlns="http://www.w3.org/2000/svg">
<path fill-rule="evenodd" clip-rule="evenodd" d="M2 2V11H11V2H2ZM8 5H5V8H8V5Z" fill="black"/>
<path fill-rule="evenodd" clip-rule="evenodd" d="M13 2V11H22V2H13ZM19 5H16V8H19V5Z" fill="black"/>
<path d="M13 13H16V16H13V13Z" fill="black"/>
<path d="M19 16H16V19H19V22H22V19H19V16Z" fill="black"/>
<path d="M19 16V13H22V16H19Z" fill="black"/>
<path fill-rule="evenodd" clip-rule="evenodd" d="M2 22V13H11V22H2ZM5 16H8V19H5V16Z" fill="black"/>
</svg>
