<svg width="24" height="24" viewBox="0 0 24 24" fill="none" xmlns="http://www.w3.org/2000/svg">
<path d="M4 4C2.89543 4 2 4.89543 2 6C2 7.10457 2.89543 8 4 8C5.10457 8 6 7.10457 6 6C6 4.89543 5.10457 4 4 4Z" fill="black"/>
<path d="M4 10C2.89543 10 2 10.8954 2 12C2 13.1046 2.89543 14 4 14C5.10457 14 6 13.1046 6 12C6 10.8954 5.10457 10 4 10Z" fill="black"/>
<path d="M2 18C2 16.8954 2.89543 16 4 16C5.10457 16 6 16.8954 6 18C6 19.1046 5.10457 20 4 20C2.89543 20 2 19.1046 2 18Z" fill="black"/>
<path d="M21 4.5H8V7.5L21 7.5V4.5Z" fill="black"/>
<path d="M21 10.5L8 10.5V13.5L21 13.5V10.5Z" fill="black"/>
<path d="M8 16.5L21 16.5V19.5L8 19.5V16.5Z" fill="black"/>
</svg>
