<svg width="24" height="24" viewBox="0 0 24 24" fill="none" xmlns="http://www.w3.org/2000/svg">
<path fill-rule="evenodd" clip-rule="evenodd" d="M10.4286 1H13.5714L14.8524 3.56199C15.2298 3.68951 15.5958 3.84163 15.9486 4.01644L18.6664 3.11049L20.8888 5.33283L19.983 8.05015C20.1581 8.40333 20.3104 8.76979 20.4381 9.14761L23 10.4286V13.5714L20.4382 14.8523C20.3107 15.2295 20.1587 15.5953 19.984 15.9479L20.8903 18.6668L18.668 20.8892L15.9498 19.9831C15.5966 20.1582 15.2302 20.3106 14.8523 20.4382L13.5714 23H10.4286L9.14768 20.4382C8.76984 20.3106 8.40337 20.1582 8.05017 19.9831L5.33202 20.8892L3.10968 18.6668L4.01598 15.9479C3.84129 15.5953 3.68928 15.2295 3.56184 14.8523L1 13.5714V10.4286L3.56192 9.14761C3.6896 8.76979 3.84194 8.40333 4.01702 8.05015L3.11125 5.33283L5.33359 3.11049L8.05142 4.01644C8.4042 3.84163 8.77022 3.68951 9.14758 3.56199L10.4286 1ZM17.7619 12.0001C17.7619 15.1823 15.1822 17.762 12 17.762C8.81779 17.762 6.2381 15.1823 6.2381 12.0001C6.2381 8.81788 8.81779 6.23819 12 6.23819C15.1822 6.23819 17.7619 8.81788 17.7619 12.0001Z" fill="black"/>
</svg>
