<svg width="24" height="24" viewBox="0 0 24 24" fill="none" xmlns="http://www.w3.org/2000/svg">
<path d="M12 9C13.6569 9 15 10.3431 15 12C15 13.6569 13.6569 15 12 15C10.3431 15 9 13.6569 9 12C9 10.3431 10.3431 9 12 9Z" fill="black"/>
<path fill-rule="evenodd" clip-rule="evenodd" d="M22 12C22 12.875 18.6667 19 12 19C5.33333 19 2 12.875 2 12C2 11.125 5.33333 5 12 5C18.6667 5 22 11.125 22 12ZM19.1019 11.3229C19.1019 11.3229 19.0976 11.3408 19.0812 11.3816C19.0924 11.3441 19.1019 11.3229 19.1019 11.3229ZM17.3954 10.3098C18.0016 10.9065 18.4561 11.5162 18.7537 12C18.4561 12.4838 18.0016 13.0935 17.3954 13.6902C16.1237 14.9421 14.3398 16 12 16C9.66022 16 7.87634 14.9421 6.60455 13.6902C5.99839 13.0935 5.54386 12.4838 5.24632 12C5.54386 11.5162 5.99839 10.9065 6.60455 10.3098C7.87634 9.05792 9.66022 8 12 8C14.3398 8 16.1237 9.05792 17.3954 10.3098ZM4.89812 11.3229C4.89812 11.3229 4.90757 11.3441 4.91877 11.3816C4.90244 11.3408 4.89812 11.3229 4.89812 11.3229ZM4.89813 12.6771C4.89813 12.6771 4.90244 12.6592 4.91877 12.6184C4.90758 12.6559 4.89813 12.6771 4.89813 12.6771ZM19.0812 12.6184C19.0976 12.6592 19.1019 12.6771 19.1019 12.6771C19.1019 12.6771 19.0924 12.6559 19.0812 12.6184Z" fill="black"/>
</svg>
