<svg width="24" height="24" viewBox="0 0 24 24" fill="none" xmlns="http://www.w3.org/2000/svg">
<path fill-rule="evenodd" clip-rule="evenodd" d="M12 22C17.5228 22 22 17.5228 22 12C22 6.47715 17.5228 2 12 2C6.47715 2 2 6.47715 2 12C2 17.5228 6.47715 22 12 22ZM16.0209 7.05857C16.5324 6.83397 17.0795 7.28808 16.9904 7.86342L15.6727 16.3758C15.5926 16.8933 15.0418 17.163 14.6135 16.8945L10.7957 14.5003C10.3978 14.2508 10.3321 13.6729 10.6629 13.3319L14.0729 9.81616C14.195 9.69033 14.0393 9.48721 13.8964 9.58591L9.15913 12.8588C8.80895 13.1007 8.3747 13.1668 7.97368 13.0391L5.87248 12.3699C5.492 12.2488 5.46516 11.6931 5.83201 11.532L16.0209 7.05857Z" fill="black"/>
</svg>
