<svg width="24" height="24" viewBox="0 0 24 24" fill="none" xmlns="http://www.w3.org/2000/svg">
<path d="M6.67249 3.07307C8.19412 2.06645 10.0264 1.5 12.0001 1.5C17.2468 1.5 21.5001 5.75329 21.5001 11C21.5001 13.6134 21.1351 16.1441 20.4524 18.5426L17.567 17.7213C18.1744 15.5873 18.5001 13.3329 18.5001 11C18.5001 7.41015 15.5899 4.5 12.0001 4.5C10.6073 4.5 9.35201 4.8975 8.3277 5.57512L6.67249 3.07307Z" fill="black"/>
<path d="M2.50009 11C2.50009 8.52696 3.3824 6.30062 4.88125 4.62211L7.11894 6.62029C6.1165 7.74289 5.50009 9.25581 5.50009 11C5.50009 12.7966 5.08703 14.501 4.34931 16.0196L1.65088 14.7087C2.19447 13.5897 2.50009 12.3327 2.50009 11Z" fill="black"/>
<path d="M6.50006 11C6.50006 7.96243 8.96249 5.5 12.0001 5.5C15.0376 5.5 17.5001 7.96243 17.5001 11C17.5001 11.6393 17.4744 12.2732 17.4241 12.9006L14.4337 12.6605C14.4776 12.1129 14.5001 11.5591 14.5001 11C14.5001 9.61929 13.3808 8.5 12.0001 8.5C10.6193 8.5 9.50006 9.61929 9.50006 11C9.50006 14.0325 8.63173 16.8546 7.13113 19.24C7.11938 19.2587 7.10791 19.2775 7.09673 19.2963L4.51733 17.7644C4.54157 17.7236 4.56638 17.683 4.59177 17.6427C5.80017 15.7217 6.50006 13.451 6.50006 11Z" fill="black"/>
<path d="M17.1381 15.2508C16.7645 17.4539 15.9831 19.594 15.0205 21.5155L12.3383 20.1717C13.1983 18.4551 13.8665 16.5994 14.1803 14.7492L17.1381 15.2508Z" fill="black"/>
<path d="M13.5 11C13.5 10.1716 12.8284 9.5 12 9.5C11.1716 9.5 10.5 10.1716 10.5 11C10.5 14.2264 9.57549 17.2323 7.97754 19.7725L10.5169 21.3699C12.407 18.3653 13.5 14.808 13.5 11Z" fill="black"/>
</svg>
