<svg width="24" height="24" viewBox="0 0 24 24" fill="none" xmlns="http://www.w3.org/2000/svg">
<path fill-rule="evenodd" clip-rule="evenodd" d="M11.9999 2.5C8.96231 2.5 6.49988 4.96243 6.49988 8C6.49988 11.0376 8.96231 13.5 11.9999 13.5C15.0374 13.5 17.4999 11.0376 17.4999 8C17.4999 4.96243 15.0374 2.5 11.9999 2.5ZM9.49988 8C9.49988 6.61929 10.6192 5.5 11.9999 5.5C13.3806 5.5 14.4999 6.61929 14.4999 8C14.4999 9.38071 13.3806 10.5 11.9999 10.5C10.6192 10.5 9.49988 9.38071 9.49988 8Z" fill="black"/>
<path d="M5.0002 20.1178C6.80242 18.5049 9.26548 17.5 11.9999 17.5C14.7343 17.5 17.1974 18.5049 18.9996 20.1178L20.1174 21.1181L22.118 18.8825L21.0002 17.8822C18.6499 15.7789 15.4752 14.5 11.9999 14.5C8.52457 14.5 5.3499 15.7789 2.9996 17.8822L1.88184 18.8825L3.88244 21.1181L5.0002 20.1178Z" fill="black"/>
</svg>
