<svg width="24" height="24" viewBox="0 0 24 24" fill="none" xmlns="http://www.w3.org/2000/svg">
<path fill-rule="evenodd" clip-rule="evenodd" d="M17 12C19.7614 12 22 9.76142 22 7C22 4.23858 19.7614 2 17 2C14.2386 2 12 4.23858 12 7C12 9.76142 14.2386 12 17 12ZM17 9C18.1046 9 19 8.10457 19 7C19 5.89543 18.1046 5 17 5C15.8954 5 15 5.89543 15 7C15 8.10457 15.8954 9 17 9Z" fill="black"/>
<path d="M7 19.5C7 16.4624 9.46243 14 12.5 14H22V17H12.5C11.1193 17 10 18.1193 10 19.5V22H7V19.5Z" fill="black"/>
<path d="M4.14286 11L5.92857 8.5H2V5.5L5.92857 5.5L4.14286 3H7.64286L10.5 7L7.64286 11H4.14286Z" fill="black"/>
</svg>
