<svg width="24" height="24" viewBox="0 0 24 24" fill="none" xmlns="http://www.w3.org/2000/svg">
<path fill-rule="evenodd" clip-rule="evenodd" d="M17 6C17 8.76142 14.7614 11 12 11C9.23858 11 7 8.76142 7 6C7 3.23858 9.23858 1 12 1C14.7614 1 17 3.23858 17 6ZM14 6C14 7.10457 13.1046 8 12 8C10.8954 8 10 7.10457 10 6C10 4.89543 10.8954 4 12 4C13.1046 4 14 4.89543 14 6Z" fill="black"/>
<path d="M7.5 13C4.46243 13 2 15.4624 2 18.5V23H5V18.5C5 17.1193 6.11929 16 7.5 16H16.5C17.8807 16 19 17.1193 19 18.5V23H22V18.5C22 15.4624 19.5376 13 16.5 13H7.5Z" fill="black"/>
</svg>
