<svg width="24" height="24" viewBox="0 0 24 24" fill="none" xmlns="http://www.w3.org/2000/svg">
<path fill-rule="evenodd" clip-rule="evenodd" d="M6.97232 20.6269C8.50427 21.5419 10.2572 22.0206 12.0415 22.0113H12.0745C13.9178 22.0157 15.7234 21.4894 17.2755 20.4951C20.2103 18.6724 22 15.4542 22 12C22 6.51421 17.4858 2 12 2C6.51419 2 2 6.51421 2 12C2.00003 13.8602 2.51892 15.6836 3.49836 17.265L3.76203 17.6606L2.77324 21.418L6.5768 20.4292L6.97232 20.6269ZM17.1437 14.3646L17.8688 14.6942H17.8622C17.9341 14.7284 18.0008 14.7728 18.06 14.826V15.2875C18.0119 15.6052 17.9229 15.915 17.7963 16.2103C17.7066 16.3578 17.5956 16.4911 17.4667 16.6059C17.4008 16.6718 17.3349 16.7212 17.2689 16.7707C17.203 16.8201 17.1371 16.8695 17.0712 16.9354L16.9394 17.0673C16.7937 17.1695 16.6394 17.2578 16.4779 17.331C16.1707 17.4878 15.8337 17.5776 15.4891 17.5946H14.8299C14.7311 17.5617 14.6157 17.5452 14.5003 17.5287C14.385 17.5122 14.2696 17.4958 14.1707 17.4628C12.4192 17.0033 10.797 16.1464 9.43111 14.9579C9.2722 14.766 9.09564 14.5894 8.90376 14.4305L8.64009 14.1668C7.62076 13.2114 6.79296 12.0704 6.20106 10.8049L6.13512 10.6072C5.92492 10.1289 5.81284 9.61334 5.80554 9.09099C5.81485 8.34842 6.06983 7.62984 6.53066 7.04749C6.5857 6.99246 6.62924 6.92594 6.67089 6.86231C6.72901 6.77352 6.78345 6.69037 6.86025 6.65197C6.92618 6.61901 6.99211 6.56956 7.05804 6.52011C7.12395 6.47067 7.18986 6.42124 7.25577 6.38828L7.32168 6.32237C7.38761 6.32237 7.45354 6.30589 7.51946 6.28941C7.58538 6.27293 7.65129 6.25645 7.7172 6.25645H8.44232C8.63263 6.30326 8.79777 6.42121 8.90376 6.58606C9.2992 7.40188 9.65126 8.23802 9.95847 9.09099C9.98482 9.20391 9.98669 9.32117 9.96396 9.43487C9.94122 9.54858 9.89439 9.6561 9.82663 9.7502C9.76738 9.80946 9.73476 9.86871 9.69885 9.93395C9.65485 10.0139 9.60592 10.1028 9.49703 10.2116C9.29928 10.4094 9.09558 10.6401 9.03559 10.739C8.97576 10.8378 8.95244 10.9544 8.96968 11.0686C8.99978 11.1628 9.04425 11.2517 9.10151 11.3323L9.16745 11.4641C9.51048 12.0464 9.93191 12.5787 10.4199 13.0462C10.4858 13.1121 10.5682 13.178 10.6505 13.2439C10.733 13.3098 10.8154 13.3758 10.8813 13.4417C11.4383 13.9705 12.0858 14.3948 12.793 14.6942L13.1226 14.826C13.1954 14.8953 13.2872 14.9413 13.3863 14.9579H13.4522C13.5906 14.9605 13.7192 14.8834 13.7818 14.7601C14.2036 14.278 14.4171 14.0198 14.5379 13.8735C14.6815 13.6998 14.6944 13.6842 14.7706 13.6395C14.9107 13.557 15.0695 13.5116 15.232 13.5076C15.265 13.5076 15.298 13.5241 15.3309 13.5406C15.3639 13.5571 15.3968 13.5735 15.4298 13.5735C16.089 13.9031 17.1437 14.3646 17.1437 14.3646Z" fill="black"/>
</svg>
