<svg width="36" height="24" viewBox="0 0 36 24" fill="none" xmlns="http://www.w3.org/2000/svg">
<g clip-path="url(#clip0_521_1434)">
<rect y="24" width="24" height="36" rx="4" transform="rotate(-90 0 24)" fill="#9575F3"/>
<circle cx="-6" cy="12" r="14" fill="#E0E4EA"/>
<path d="M25 10.8698C23.0369 10.8698 21.1541 10.0562 19.766 8.60785L19 9.407C20.5913 11.0673 22.7496 12 25 12C27.2504 12 29.4087 11.0673 31 9.407L30.234 8.60785C28.8459 10.0562 26.9631 10.8698 25 10.8698Z" fill="white"/>
<path d="M22.2398 6.6322C22.6139 6.6322 22.9171 6.31582 22.9171 5.92554C22.9171 5.53526 22.6139 5.21887 22.2398 5.21887C21.8657 5.21887 21.5625 5.53526 21.5625 5.92554C21.5625 6.31582 21.8657 6.6322 22.2398 6.6322Z" fill="white"/>
<path d="M27.7086 6.6322C28.0826 6.6322 28.3859 6.31582 28.3859 5.92554C28.3859 5.53526 28.0826 5.21887 27.7086 5.21887C27.3345 5.21887 27.0312 5.53526 27.0312 5.92554C27.0312 6.31582 27.3345 6.6322 27.7086 6.6322Z" fill="white"/>
</g>
<defs>
<clipPath id="clip0_521_1434">
<rect y="24" width="24" height="36" rx="4" transform="rotate(-90 0 24)" fill="white"/>
</clipPath>
</defs>
</svg>
