<svg width="24" height="16" viewBox="0 0 24 16" fill="none" xmlns="http://www.w3.org/2000/svg">
<g clip-path="url(#clip0_19154_24956)">
<rect y="16" width="16" height="24" rx="2.66667" transform="rotate(-90 0 16)" fill="#C0C4C9"/>
<path d="M16.667 7.24679C15.3582 7.24679 14.1031 6.70435 13.1776 5.73881L12.667 6.27158C13.7279 7.37842 15.1667 8.00023 16.667 8.00023C18.1673 8.00023 19.6061 7.37842 20.667 6.27158L20.1564 5.73881C19.2309 6.70435 17.9758 7.24679 16.667 7.24679Z" fill="white"/>
<path d="M14.8269 4.42171C15.0762 4.42171 15.2784 4.21079 15.2784 3.9506C15.2784 3.69042 15.0762 3.47949 14.8269 3.47949C14.5775 3.47949 14.3753 3.69042 14.3753 3.9506C14.3753 4.21079 14.5775 4.42171 14.8269 4.42171Z" fill="white"/>
<path d="M18.4727 4.42171C18.7221 4.42171 18.9242 4.21079 18.9242 3.9506C18.9242 3.69042 18.7221 3.47949 18.4727 3.47949C18.2233 3.47949 18.0212 3.69042 18.0212 3.9506C18.0212 4.21079 18.2233 4.42171 18.4727 4.42171Z" fill="white"/>
</g>
<defs>
<clipPath id="clip0_19154_24956">
<rect y="16" width="16" height="24" rx="2.66667" transform="rotate(-90 0 16)" fill="white"/>
</clipPath>
</defs>
</svg>
