<svg width="16" height="16" viewBox="0 0 16 16" fill="none" xmlns="http://www.w3.org/2000/svg">
<circle cx="8" cy="8" r="8" transform="rotate(-90 8 8)" fill="#A8B0BA"/>
<path fill-rule="evenodd" clip-rule="evenodd" d="M8 3.20833C5.92893 3.20833 4.25 4.88726 4.25 6.95833C4.25 8.06896 4.73281 9.06681 5.5 9.75347V12.5833L7.89459 11.7851C7.9337 11.7721 7.95326 11.7656 7.97326 11.763C7.99101 11.7607 8.00899 11.7607 8.02674 11.763C8.04674 11.7656 8.0663 11.7721 8.10541 11.7851L10.5 12.5833V9.75347C11.2672 9.06681 11.75 8.06896 11.75 6.95833C11.75 4.88726 10.0711 3.20833 8 3.20833ZM5.5 6.95833C5.5 5.57762 6.61929 4.45833 8 4.45833C9.38071 4.45833 10.5 5.57762 10.5 6.95833C10.5 8.33904 9.38071 9.45833 8 9.45833C6.61929 9.45833 5.5 8.33904 5.5 6.95833Z" fill="white"/>
</svg>
