<svg width="40" height="41" viewBox="0 0 40 41" fill="none" xmlns="http://www.w3.org/2000/svg">
<path d="M39.4016 24.8405C36.7301 35.556 25.877 42.0772 15.1601 39.4051C4.44772 36.7337 -2.07358 25.88 0.599038 15.1654C3.26931 4.44882 14.1225 -2.07288 24.836 0.598527C35.5521 3.26993 42.073 14.1248 39.4013 24.8407L39.4015 24.8405H39.4016Z" fill="#F7931A"/>
<path fill-rule="evenodd" clip-rule="evenodd" d="M28.8219 17.1523C29.22 14.4905 27.1934 13.0596 24.4222 12.1051L25.3212 8.49945L23.1263 7.95254L22.2512 11.4633C21.6741 11.3194 21.0816 11.1838 20.4926 11.0493L21.3741 7.51542L19.1805 6.96851L18.2811 10.573C17.8036 10.4643 17.3346 10.3568 16.8795 10.2436L16.8821 10.2323L13.8552 9.47644L13.2714 11.8207C13.2714 11.8207 14.8998 12.194 14.8655 12.217C15.7543 12.4388 15.9151 13.0272 15.8884 13.4935L14.8643 17.6012C14.9255 17.6168 15.0049 17.6393 15.0925 17.6745L15.0289 17.6586C14.9747 17.645 14.9183 17.6309 14.8605 17.6171L13.4252 23.3714C13.3165 23.6414 13.0408 24.0467 12.4194 23.8928C12.4414 23.9247 10.8241 23.4947 10.8241 23.4947L9.73438 26.0071L12.5907 26.7192C12.9033 26.7975 13.2123 26.8781 13.5181 26.9578C13.7318 27.0135 13.9447 27.069 14.1556 27.1229L13.2473 30.77L15.4397 31.3169L16.3392 27.7086C16.9381 27.8711 17.5193 28.0211 18.0884 28.1625L17.1919 31.7538L19.3869 32.3007L20.2951 28.6605C24.0379 29.3689 26.8522 29.0833 28.0368 25.698C28.9913 22.9724 27.9893 21.4003 26.0202 20.3751C27.4544 20.0444 28.5338 19.1008 28.8219 17.1523ZM23.806 24.1843C23.1837 26.6849 19.2695 25.6511 17.4786 25.1781C17.3175 25.1355 17.1735 25.0975 17.0508 25.067L18.2561 20.2354C18.4057 20.2727 18.5886 20.3138 18.7958 20.3602C20.6483 20.776 24.4436 21.6277 23.806 24.1843ZM19.1685 18.1179C20.6615 18.5163 23.9187 19.3856 24.486 17.1128C25.0652 14.7884 21.9 14.0876 20.354 13.7453C20.1801 13.7068 20.0267 13.6728 19.9014 13.6416L18.8086 18.0236C18.9118 18.0494 19.0328 18.0817 19.1685 18.1179Z" fill="white"/>
</svg>
