<svg width="24" height="24" viewBox="0 0 24 24" fill="none" xmlns="http://www.w3.org/2000/svg">
<path d="M23.641 14.905C22.0381 21.3343 15.5262 25.247 9.09606 23.6438C2.66863 22.0409 -1.24415 15.5287 0.359423 9.09999C1.96159 2.67002 8.47349 -1.24299 14.9016 0.359849C21.3313 1.96269 25.2438 8.47561 23.6408 14.9052L23.6409 14.905H23.641Z" fill="#A8B0BA"/>
<path fill-rule="evenodd" clip-rule="evenodd" d="M17.2932 10.2922C17.5321 8.69506 16.3161 7.83656 14.6534 7.26386L15.1928 5.10045L13.8759 4.7723L13.3508 6.87875C13.0046 6.7924 12.649 6.71104 12.2956 6.63038L12.8245 4.51003L11.5084 4.18188L10.9687 6.34459C10.6822 6.27935 10.4008 6.21489 10.1278 6.14696L10.1293 6.14015L8.31322 5.68665L7.9629 7.09321C7.9629 7.09321 8.93996 7.31718 8.91937 7.33096C9.45266 7.46406 9.5491 7.81708 9.53309 8.0969L8.91867 10.5615C8.95539 10.5708 9.00302 10.5843 9.05558 10.6055L9.0174 10.5959C8.98488 10.5878 8.95108 10.5793 8.91638 10.571L8.05517 14.0236C7.99 14.1856 7.82457 14.4288 7.45172 14.3365C7.46492 14.3556 6.49454 14.0976 6.49454 14.0976L5.8407 15.605L7.55449 16.0323C7.74207 16.0793 7.92743 16.1276 8.11091 16.1755C8.23915 16.2089 8.36691 16.2422 8.49343 16.2745L7.94847 18.4628L9.26389 18.7909L9.80358 16.6259C10.1629 16.7235 10.5117 16.8135 10.8531 16.8983L10.3152 19.0531L11.6322 19.3812L12.1771 17.1971C14.4228 17.6221 16.1114 17.4507 16.8221 15.4196C17.3948 13.7842 16.7936 12.841 15.6122 12.2258C16.4727 12.0274 17.1204 11.4613 17.2932 10.2922ZM14.2837 14.5114C13.9103 16.0117 11.5618 15.3914 10.4872 15.1076C10.3906 15.0821 10.3042 15.0593 10.2305 15.041L10.9537 12.142C11.0435 12.1644 11.1532 12.189 11.2775 12.2169C12.389 12.4664 14.6662 12.9774 14.2837 14.5114ZM11.5011 10.8715C12.397 11.1106 14.3513 11.6321 14.6916 10.2685C15.0392 8.87381 13.1401 8.45333 12.2125 8.24796C12.1081 8.22486 12.0161 8.20448 11.9409 8.18574L11.2852 10.815C11.3471 10.8304 11.4198 10.8498 11.5011 10.8715Z" fill="white"/>
</svg>
