<svg width="49" height="48" viewBox="0 0 49 48" fill="none" xmlns="http://www.w3.org/2000/svg">
<path fill-rule="evenodd" clip-rule="evenodd" d="M32.5 18C33.6046 18 34.5 17.1046 34.5 16C34.5 14.8954 33.6046 14 32.5 14C31.3954 14 30.5 14.8954 30.5 16C30.5 17.1046 31.3954 18 32.5 18ZM40.6383 23.9952C36.3582 28.2669 30.553 30.6667 24.5 30.6667C18.447 30.6667 12.6418 28.2669 8.3617 23.9952L6 26.3523C10.9065 31.249 17.5612 34 24.5 34C31.4388 34 38.0935 31.249 43 26.3523L40.6383 23.9952ZM18.5 16C18.5 17.1046 17.6046 18 16.5 18C15.3954 18 14.5 17.1046 14.5 16C14.5 14.8954 15.3954 14 16.5 14C17.6046 14 18.5 14.8954 18.5 16Z" fill="#A8B0BA"/>
</svg>
