<svg width="97" height="96" viewBox="0 0 97 96" fill="none" xmlns="http://www.w3.org/2000/svg">
<path fill-rule="evenodd" clip-rule="evenodd" d="M64.5 36C66.7091 36 68.5 34.2091 68.5 32C68.5 29.7909 66.7091 28 64.5 28C62.2909 28 60.5 29.7909 60.5 32C60.5 34.2091 62.2909 36 64.5 36ZM80.7766 47.9902C72.2163 56.5336 60.6061 61.3331 48.5 61.3331C36.3939 61.3331 24.7837 56.5336 16.2234 47.9902L11.5 52.7043C21.313 62.4978 34.6223 67.9998 48.5 67.9998C62.3777 67.9998 75.687 62.4978 85.5 52.7043L80.7766 47.9902ZM36.5 32C36.5 34.2091 34.7091 36 32.5 36C30.2909 36 28.5 34.2091 28.5 32C28.5 29.7909 30.2909 28 32.5 28C34.7091 28 36.5 29.7909 36.5 32Z" fill="#A8B0BA"/>
</svg>
