<svg width="49" height="48" viewBox="0 0 49 48" fill="none" xmlns="http://www.w3.org/2000/svg">
<path fill-rule="evenodd" clip-rule="evenodd" d="M32.5 18C33.6046 18 34.5 17.1046 34.5 16C34.5 14.8954 33.6046 14 32.5 14C31.3954 14 30.5 14.8954 30.5 16C30.5 17.1046 31.3954 18 32.5 18ZM40.6383 34C36.3582 29.7283 30.553 27.3285 24.5 27.3285C18.447 27.3285 12.6418 29.7283 8.3617 34L6 31.643C10.9065 26.7462 17.5612 23.9952 24.5 23.9952C31.4388 23.9952 38.0935 26.7462 43 31.643L40.6383 34ZM18.5 16C18.5 17.1046 17.6046 18 16.5 18C15.3954 18 14.5 17.1046 14.5 16C14.5 14.8954 15.3954 14 16.5 14C17.6046 14 18.5 14.8954 18.5 16Z" fill="#A8B0BA"/>
</svg>
