<svg width="97" height="96" viewBox="0 0 97 96" fill="none" xmlns="http://www.w3.org/2000/svg">
<path fill-rule="evenodd" clip-rule="evenodd" d="M64.5 36C66.7091 36 68.5 34.2091 68.5 32C68.5 29.7909 66.7091 28 64.5 28C62.2909 28 60.5 29.7909 60.5 32C60.5 34.2091 62.2909 36 64.5 36ZM80.7766 68C72.2163 59.4567 60.6061 54.6571 48.5 54.6571C36.3939 54.6571 24.7837 59.4567 16.2234 68L11.5 63.286C21.313 53.4924 34.6223 47.9904 48.5 47.9904C62.3777 47.9904 75.687 53.4924 85.5 63.286L80.7766 68ZM36.5 32C36.5 34.2091 34.7091 36 32.5 36C30.2909 36 28.5 34.2091 28.5 32C28.5 29.7909 30.2909 28 32.5 28C34.7091 28 36.5 29.7909 36.5 32Z" fill="#A8B0BA"/>
</svg>
