<svg width="24" height="24" viewBox="0 0 24 24" fill="none" xmlns="http://www.w3.org/2000/svg">
<path fill-rule="evenodd" clip-rule="evenodd" d="M22 12C22 17.5228 17.5228 22 12 22C6.47715 22 2 17.5228 2 12C2 6.47715 6.47715 2 12 2C17.5228 2 22 6.47715 22 12ZM13.5 18.8389C15.9929 18.2946 17.9893 16.422 18.7101 14H15.4649C15.021 14.7672 14.3297 15.3734 13.5 15.7092V18.8389ZM18.9291 11H15.874C15.4299 9.27477 13.8638 8 12 8C10.1362 8 8.57006 9.27477 8.12602 11H5.07089C5.55612 7.60771 8.47353 5 12 5C15.5265 5 18.4439 7.60771 18.9291 11ZM5.28988 14H8.53513C8.97896 14.7672 9.67031 15.3734 10.5 15.7092V18.8389C8.00708 18.2946 6.0107 16.422 5.28988 14ZM12 13.5C12.8284 13.5 13.5 12.8284 13.5 12C13.5 11.1716 12.8284 10.5 12 10.5C11.1716 10.5 10.5 11.1716 10.5 12C10.5 12.8284 11.1716 13.5 12 13.5Z" fill="#374DFB"/>
</svg>
