<svg width="20" height="20" viewBox="0 0 20 20" fill="none" xmlns="http://www.w3.org/2000/svg">
<path fill-rule="evenodd" clip-rule="evenodd" d="M15.8334 0.833313H4.16671V2.08331H0.416697L0.416599 5.13978C0.415928 5.77444 0.415348 6.32197 0.544475 6.80388C0.891227 8.09798 1.90203 9.10878 3.19613 9.45553C3.59761 9.56311 4.04465 9.58066 4.54966 9.58314C5.24366 11.3978 6.81788 12.7772 8.75004 13.1991V14.1872C6.64449 14.3963 5.00004 16.1727 5.00004 18.3333V19.1666H15V18.3333C15 16.1727 13.3556 14.3963 11.25 14.1872V13.1991C13.1822 12.7772 14.7564 11.3978 15.4504 9.58314C15.9554 9.58066 16.4025 9.56311 16.8039 9.45553C18.098 9.10878 19.1088 8.09798 19.4556 6.80388C19.5847 6.32198 19.5841 5.77445 19.5835 5.1398L19.5834 2.08331H15.8334V0.833313ZM15.8334 4.58331V7.07477C16.0158 7.06817 16.095 7.05731 16.1569 7.04072C16.5883 6.92514 16.9252 6.5882 17.0408 6.15684C17.0726 6.03795 17.0834 5.85543 17.0834 4.99998V4.58331H15.8334ZM4.16671 7.07477V4.58331H2.9167V4.99998C2.9167 5.85543 2.92743 6.03795 2.95929 6.15684C3.07487 6.5882 3.41181 6.92514 3.84317 7.04072C3.90508 7.05731 3.98425 7.06817 4.16671 7.07477Z" fill="white"/>
</svg>
