<svg width="327" height="160" viewBox="0 0 327 160" fill="none" xmlns="http://www.w3.org/2000/svg">
<g clip-path="url(#clip0_17_646)">
<rect width="327" height="160" rx="16" fill="#E0E3FA"/>
<path d="M45.7314 67H20.2314V72.5H30.1314V102H35.8814V72.5H45.7314V67ZM56.9412 102.65C64.2912 102.65 70.1412 96.9 70.1412 89.5C70.1412 82.05 64.2912 76.35 56.9412 76.35C49.6412 76.35 43.7412 82.05 43.7412 89.5C43.7412 96.9 49.6412 102.65 56.9412 102.65ZM56.9412 97.4C52.5412 97.4 49.1412 94.05 49.1412 89.5C49.1412 84.95 52.5412 81.6 56.9412 81.6C61.3412 81.6 64.7412 84.95 64.7412 89.5C64.7412 94.05 61.3412 97.4 56.9412 97.4ZM97.124 102L85.724 89.25L96.724 77H90.124L80.424 88.05V67H75.024V102H80.424V90.45L90.674 102H97.124ZM103.004 91.8H122.904C123.004 91.1 123.104 90.3 123.104 89.55C123.104 82.35 118.004 76.35 110.554 76.35C102.704 76.35 97.3545 82.1 97.3545 89.5C97.3545 97 102.704 102.65 110.954 102.65C115.854 102.65 119.604 100.6 121.904 97.2L117.454 94.6C116.254 96.35 114.004 97.7 111.004 97.7C107.004 97.7 103.854 95.7 103.004 91.8ZM102.954 87.4C103.704 83.65 106.454 81.25 110.504 81.25C113.754 81.25 116.904 83.1 117.654 87.4H102.954ZM141.006 76.35C137.606 76.35 134.906 77.6 133.256 80.2V77H127.856V102H133.256V88.6C133.256 83.5 136.056 81.4 139.606 81.4C143.006 81.4 145.206 83.4 145.206 87.2V102H150.606V86.65C150.606 80.15 146.606 76.35 141.006 76.35ZM159.121 73.25C161.021 73.25 162.571 71.65 162.571 69.8C162.571 67.9 161.021 66.35 159.121 66.35C157.221 66.35 155.671 67.9 155.671 69.8C155.671 71.65 157.221 73.25 159.121 73.25ZM156.421 102H161.821V77H156.421V102ZM174.54 96.9L186.19 80.6V77H167.69V82.1H178.89L167.19 98.4V102H186.69V96.9H174.54ZM210.01 77V80.55C208.11 77.95 205.16 76.35 201.26 76.35C194.46 76.35 188.81 82.05 188.81 89.5C188.81 96.9 194.46 102.65 201.26 102.65C205.16 102.65 208.11 101.05 210.01 98.4V102H215.41V77H210.01ZM202.11 97.5C197.61 97.5 194.21 94.15 194.21 89.5C194.21 84.85 197.61 81.5 202.11 81.5C206.61 81.5 210.01 84.85 210.01 89.5C210.01 94.15 206.61 97.5 202.11 97.5ZM235.654 82.2V77H229.454V70L224.054 71.6V77H219.454V82.2H224.054V94.2C224.054 100.7 227.354 103 235.654 102V97.15C231.554 97.35 229.454 97.4 229.454 94.2V82.2H235.654ZM243.251 73.25C245.151 73.25 246.701 71.65 246.701 69.8C246.701 67.9 245.151 66.35 243.251 66.35C241.351 66.35 239.801 67.9 239.801 69.8C239.801 71.65 241.351 73.25 243.251 73.25ZM240.551 102H245.951V77H240.551V102ZM264.021 102.65C271.371 102.65 277.221 96.9 277.221 89.5C277.221 82.05 271.371 76.35 264.021 76.35C256.721 76.35 250.821 82.05 250.821 89.5C250.821 96.9 256.721 102.65 264.021 102.65ZM264.021 97.4C259.621 97.4 256.221 94.05 256.221 89.5C256.221 84.95 259.621 81.6 264.021 81.6C268.421 81.6 271.821 84.95 271.821 89.5C271.821 94.05 268.421 97.4 264.021 97.4ZM295.254 76.35C291.854 76.35 289.154 77.6 287.504 80.2V77H282.104V102H287.504V88.6C287.504 83.5 290.304 81.4 293.854 81.4C297.254 81.4 299.454 83.4 299.454 87.2V102H304.854V86.65C304.854 80.15 300.854 76.35 295.254 76.35Z" fill="white"/>
<path d="M32.6815 20.4722C33.3293 17.2208 37.4242 16.1236 39.6109 18.6155L47.9626 28.1329C48.831 29.1224 50.1307 29.6213 51.4381 29.467L64.013 27.9826C67.3055 27.5939 69.6144 31.1493 67.9202 33.9991L61.4494 44.8831C60.7767 46.0147 60.7038 47.4049 61.2546 48.6007L66.5522 60.1014C67.9393 63.1126 65.2713 66.4072 62.0375 65.6766L49.6867 62.8859C48.4025 62.5957 47.0578 62.956 46.0908 63.8494L36.79 72.4416C34.3548 74.6913 30.397 73.172 30.0926 69.8707L28.9301 57.262C28.8093 55.951 28.051 54.7835 26.9026 54.1399L15.8568 47.9494C12.9647 46.3286 13.1865 42.095 16.2322 40.7854L27.8646 35.7835C29.074 35.2634 29.9501 34.1815 30.2074 32.8904L32.6815 20.4722Z" fill="#FFBE53"/>
<path d="M41.9328 78.3168C42.0947 77.5039 43.1185 77.2296 43.6651 77.8526L44.9486 79.3152C45.1657 79.5626 45.4906 79.6873 45.8174 79.6487L47.7498 79.4206C48.573 79.3234 49.1502 80.2123 48.7266 80.9247L47.7323 82.5973C47.5641 82.8802 47.5459 83.2278 47.6836 83.5267L48.4977 85.294C48.8444 86.0469 48.1774 86.8705 47.369 86.6878L45.471 86.259C45.15 86.1864 44.8138 86.2765 44.572 86.4999L43.1428 87.8202C42.534 88.3827 41.5445 88.0029 41.4684 87.1775L41.2898 85.2399C41.2595 84.9122 41.07 84.6203 40.7829 84.4594L39.0854 83.5081C38.3624 83.1029 38.4179 82.0445 39.1793 81.7171L40.9669 80.9484C41.2692 80.8184 41.4883 80.5479 41.5526 80.2251L41.9328 78.3168Z" fill="#F0B70D"/>
<path d="M241.731 115.632C242.824 114.386 244.872 114.934 245.196 116.56L246.546 123.335C246.674 123.981 247.112 124.522 247.717 124.782L254.064 127.511C255.587 128.166 255.698 130.283 254.251 131.093L248.225 134.471C247.651 134.793 247.271 135.376 247.211 136.032L246.577 142.911C246.425 144.562 244.446 145.322 243.228 144.197L238.153 139.509C237.67 139.062 236.998 138.882 236.355 139.027L229.617 140.55C228 140.915 226.666 139.268 227.359 137.762L230.25 131.487C230.525 130.889 230.489 130.194 230.152 129.628L226.622 123.69C225.775 122.265 226.929 120.487 228.576 120.682L235.436 121.491C236.09 121.569 236.74 121.319 237.174 120.824L241.731 115.632Z" fill="#E63E5E"/>
<path d="M221.084 133.268C221.451 132.524 222.511 132.524 222.877 133.268L223.077 133.672C223.223 133.967 223.504 134.172 223.83 134.219L224.276 134.284C225.097 134.403 225.424 135.411 224.831 135.99L224.508 136.305C224.272 136.535 224.164 136.866 224.22 137.19L224.296 137.635C224.436 138.452 223.579 139.074 222.845 138.689L222.446 138.479C222.155 138.326 221.807 138.326 221.515 138.479L221.116 138.689C220.382 139.074 219.525 138.452 219.665 137.635L219.741 137.19C219.797 136.866 219.689 136.535 219.454 136.305L219.131 135.99C218.537 135.411 218.865 134.403 219.685 134.284L220.131 134.219C220.457 134.172 220.739 133.967 220.884 133.672L221.084 133.268Z" fill="#E63E5E"/>
<path d="M265.151 22.6335C265.885 21.147 268.005 21.147 268.738 22.6335L273.125 31.5217C273.416 32.112 273.979 32.5211 274.631 32.6158L284.44 34.0411C286.08 34.2795 286.735 36.2954 285.548 37.4525L278.45 44.371C277.979 44.8305 277.764 45.4925 277.875 46.1413L279.551 55.9104C279.831 57.5442 278.116 58.7901 276.649 58.0187L267.876 53.4064C267.293 53.1001 266.597 53.1001 266.014 53.4064L257.241 58.0187C255.774 58.7901 254.059 57.5442 254.339 55.9104L256.015 46.1413C256.126 45.4925 255.911 44.8305 255.44 44.371L248.342 37.4525C247.155 36.2954 247.81 34.2795 249.45 34.0411L259.259 32.6158C259.91 32.5211 260.474 32.112 260.765 31.5217L265.151 22.6335Z" fill="#A735B8"/>
<path d="M206.014 62.7274C206.747 61.2409 208.867 61.2409 209.601 62.7274L210.716 64.9866C211.007 65.5769 211.57 65.9861 212.222 66.0807L214.715 66.443C216.355 66.6814 217.01 68.6973 215.823 69.8544L214.019 71.613C213.548 72.0725 213.333 72.7345 213.444 73.3833L213.87 75.8664C214.15 77.5002 212.435 78.7462 210.968 77.9748L208.738 76.8024C208.155 76.4961 207.459 76.4961 206.876 76.8024L204.646 77.9748C203.179 78.7462 201.464 77.5002 201.745 75.8664L202.17 73.3833C202.282 72.7345 202.067 72.0725 201.595 71.613L199.791 69.8544C198.604 68.6973 199.259 66.6814 200.9 66.443L203.393 66.0807C204.044 65.9861 204.607 65.5769 204.899 64.9866L206.014 62.7274Z" fill="white"/>
<path d="M243.437 48.6466C243.804 47.9033 244.864 47.9033 245.231 48.6466L245.328 48.844C245.474 49.1392 245.755 49.3437 246.081 49.3911L246.299 49.4227C247.119 49.5419 247.447 50.5499 246.853 51.1284L246.695 51.2821C246.46 51.5118 246.352 51.8428 246.408 52.1672L246.445 52.3842C246.585 53.2011 245.728 53.8241 244.994 53.4384L244.799 53.336C244.508 53.1828 244.16 53.1828 243.869 53.336L243.674 53.4384C242.94 53.8241 242.083 53.2011 242.223 52.3842L242.26 52.1672C242.316 51.8428 242.208 51.5118 241.972 51.2821L241.815 51.1284C241.221 50.5499 241.549 49.5419 242.369 49.4227L242.587 49.3911C242.912 49.3437 243.194 49.1392 243.34 48.844L243.437 48.6466Z" fill="#A735B8"/>
<path d="M157.921 34.9191C154.961 32.886 154.547 32.2554 153.936 29.9469C153.324 27.6385 154.331 27.5194 153.324 27.6385C153.047 27.6719 152.335 27.7296 151.427 27.8561C150.854 24.6176 150.821 21.353 151.046 18.0884C151.474 18.094 151.872 18.1423 152.221 18.2465C154.688 18.9776 159.069 21.5223 159.344 23.8698C159.619 26.2173 160.903 28.4476 161.316 29.0782C161.73 29.7088 166.978 33.8533 167.253 36.2008C167.529 38.5483 164.234 42.3375 164.234 42.3375C164.234 42.3375 167.558 46.5991 161.846 52.1759C161.846 52.1759 164.495 55.3586 165.588 58.6437C166.45 61.2274 164.084 67.7343 158.362 71.1272C152.64 74.5201 148.726 66.0899 148.726 66.0899L150.047 57.6075L160.328 38.0349C160.328 38.0349 160.88 36.9504 157.921 34.9173V34.9191Z" fill="#0C1541"/>
<path d="M124.218 64.4806C124.218 64.4806 141.105 86.7709 151.237 87.7847C161.37 88.7985 180.284 72.2487 180.284 72.2487C180.284 72.2487 168.801 66.8449 166.098 65.8311C163.395 64.8173 153.601 62.7916 152.251 61.4411C151.845 61.0356 151.592 60.1781 151.436 59.1717C151.423 59.0843 151.408 58.9931 151.395 58.902C151.118 56.8391 151.881 53.8926 152.05 53.2824C152.071 53.208 152.08 53.1671 152.08 53.1671L149.727 50.442L140.766 39.4893L124.216 64.4825L124.218 64.4806Z" fill="#FF734E"/>
<path d="M151.438 59.1699C151.425 59.0824 151.41 58.9913 151.397 58.9001C151.12 56.8372 151.882 53.8907 152.052 53.2806L149.728 50.4401L143.301 47.7615C143.301 47.7615 140.532 56.0727 151.438 59.1699V59.1699Z" fill="#B04500"/>
<path d="M160.397 37.179C160.12 39.1861 163.041 53.8721 152.886 55.8941C148.555 56.7572 143.241 53.368 140.665 48.6804C139.805 47.1178 139.58 42.3465 139.58 42.3465C139.58 42.3465 134.703 42.6386 135.962 37.5957C136.578 35.1254 139.041 34.1785 140.335 35.5327C141.405 36.6526 142.013 38.2616 142.013 38.2616C142.013 38.2616 140.627 32.9192 141.85 29.8351C142.041 29.3514 143.427 27.2643 143.922 27.1006C148.165 25.6925 155.721 23.4435 160.152 31.1242C160.152 31.1242 160.76 34.5338 160.395 37.1753L160.397 37.179Z" fill="#FF734E"/>
<path d="M154.313 36.2634L153.512 39.8195L156.432 43.5381L154.131 45.7874" stroke="#B04500" stroke-linecap="round"/>
<path d="M148.519 39.486C148.348 39.2981 148.138 39.2033 147.892 39.2461C147.864 39.2461 147.836 39.2479 147.81 39.2516C147.801 39.2516 147.792 39.2479 147.781 39.2516C147.769 39.2516 147.762 39.2572 147.753 39.2591C146.91 39.3949 146.588 40.63 146.94 41.2885C146.979 41.4503 147.048 41.5936 147.178 41.6791C147.306 41.7647 147.468 41.7945 147.63 41.7777C147.643 41.7833 147.656 41.7908 147.673 41.7945C148.058 41.8521 148.346 41.5973 148.523 41.2327C148.917 40.7156 148.923 39.9269 148.519 39.486Z" fill="black"/>
<path d="M159.033 39.7279C158.724 39.2573 158.066 39.2145 157.6 39.6479C157.56 39.687 157.522 39.7298 157.487 39.7744C157.368 39.9176 157.294 40.0962 157.286 40.2878C157.286 40.3101 157.284 40.3325 157.286 40.3548C157.286 40.3622 157.286 40.3678 157.286 40.3752C157.308 40.7045 157.34 41.0393 157.506 41.3072C157.827 41.8262 158.555 41.6941 158.951 41.1863C159.295 40.7454 159.297 40.1316 159.033 39.7298V39.7279Z" fill="black"/>
<path d="M149.776 34.5525C149.013 34.7962 149.069 34.7181 148.312 35.0027C147.543 35.291 146.801 35.6686 146.04 35.9849C145.354 36.2695 145.588 37.3019 146.28 37.0154C147.039 36.6992 147.783 36.3178 148.552 36.0332C149.309 35.7523 149.251 35.8268 150.016 35.5831C150.719 35.358 150.481 34.3275 149.776 34.5525Z" fill="black"/>
<path d="M159.811 36.9654C159.524 36.3665 159.067 36.0781 158.522 35.7787C157.949 35.4643 157.298 36.4539 157.876 36.772C158.237 36.971 158.628 37.1291 158.819 37.5309C159.113 38.1448 160.107 37.583 159.811 36.9654V36.9654Z" fill="black"/>
<path d="M155.673 48.4181C155.673 48.4181 151.584 48.8478 148.857 48.0591C149.116 49.1473 150.437 51.7906 152.732 51.718C154.713 51.6566 155.673 48.4181 155.673 48.4181Z" fill="white"/>
<path d="M160.328 38.0371C160.328 38.0371 160.88 36.9527 157.921 34.9195C154.961 32.8863 154.546 32.2557 153.936 29.9473C153.324 27.6388 144.451 31.1861 144.306 34.8209C144.05 41.3129 141.092 42.0625 141.092 42.0625C141.092 42.0625 142.321 45.2453 141.469 48.1769C140.921 50.0687 139.356 51.5214 139.356 51.5214C139.356 51.5214 144.658 64.5184 130.405 65.9433C129.929 65.9916 136.449 72.1302 130.53 73.8471C124.611 75.564 123.329 67.5523 122.953 67.2566C122.578 66.9608 117.503 66.572 116.865 65.3331C111.469 54.8474 121.547 53.8299 121.547 53.8299L123.249 43.7571C123.249 43.7571 128.063 38.4296 128.675 34.9567C128.675 34.9567 128.221 28.208 131.004 25.8419C132.459 24.603 136.095 22.8638 138.147 22.9624C138.147 22.9624 141.384 21.5617 143.317 20.6539C145.099 19.8168 149.749 17.5177 152.216 18.2469C154.682 18.9779 158.233 20.2596 159.338 23.8701C160.03 26.1302 160.897 28.448 161.31 29.0786C161.725 29.7092 163.639 31.5247 163.914 33.8741C164.189 36.2216 160.322 38.0371 160.322 38.0371H160.328Z" fill="#0C1541"/>
<path d="M162.429 44.2012C162.442 44.2012 162.457 44.2012 162.47 44.2012C162.749 44.1788 162.957 43.9352 162.935 43.6561C162.241 34.9989 160.591 33.5387 157.49 31.5093L157.224 31.3344C154.594 29.6063 154.277 25.434 154.276 25.3931C154.257 25.114 154.015 24.9057 153.736 24.9224C153.457 24.941 153.247 25.1829 153.265 25.4619C153.278 25.6535 153.615 30.1755 156.67 32.1827L156.937 32.3575C159.622 34.1135 161.242 35.1719 161.928 43.738C161.949 44.004 162.172 44.2049 162.432 44.2049L162.429 44.2012Z" fill="#303E7F" stroke="#303E7F"/>
<path d="M126.746 36.3701C126.94 36.3701 127.124 36.2584 127.208 36.0706C127.535 35.3432 127.464 34.4281 127.381 33.3715C127.232 31.4797 127.046 29.1247 129.083 26.7846C132.171 23.2355 139.606 23.7861 139.68 23.7916C139.963 23.814 140.203 23.6056 140.225 23.3266C140.247 23.0476 140.039 22.8039 139.76 22.7816C139.434 22.7555 131.741 22.1845 128.316 26.1206C126 28.7825 126.214 31.4816 126.369 33.4533C126.441 34.3722 126.504 35.1665 126.283 35.6576C126.168 35.9125 126.283 36.2119 126.536 36.3273C126.603 36.357 126.674 36.3719 126.744 36.3719L126.746 36.3701Z" fill="#303E7F" stroke="#303E7F"/>
<path d="M166.261 43.0487C166.41 43.0487 166.559 42.9836 166.659 42.8553C166.738 42.7567 168.562 40.4092 168.226 37.5501C167.896 34.7524 160.954 28.6399 160.164 27.9535C159.954 27.7694 159.634 27.7917 159.449 28.0038C159.265 28.214 159.288 28.5339 159.5 28.7181C161.566 30.515 166.981 35.6286 167.221 37.6692C167.51 40.1153 165.882 42.208 165.867 42.2284C165.694 42.4479 165.731 42.766 165.951 42.9409C166.044 43.0134 166.153 43.0506 166.265 43.0506L166.261 43.0487Z" fill="#303E7F" stroke="#303E7F"/>
<path d="M144.992 167.325C145.775 171.391 147.262 176.546 149.105 182.232C149.527 183.536 149.966 184.866 150.422 186.221C156.559 204.452 165.303 226.56 166.269 236.224C167.619 249.734 182.819 298.031 185.183 299.382C187.547 300.732 203.083 281.82 203.083 281.82C183.153 207.3 172.454 138.766 172.454 138.766L146.006 121.731C146.006 121.731 141.616 149.763 144.992 167.325V167.325Z" fill="#A735B8"/>
<path d="M121.521 212.75C123.547 227.272 122.535 288.915 123.547 291.444C124.897 294.822 147.357 298.031 148.032 296.679C148.707 295.328 147.018 269.66 147.357 256.488C147.695 243.316 150.06 169.351 150.06 169.351L146.726 130.179L146.179 123.736L146.006 121.731L134.088 113.098L132.494 112.394C132.494 112.394 126.878 119.368 123.662 127.542C121.017 134.266 117.778 143.288 116.958 152.585C115.944 164.068 119.495 198.228 121.521 212.75V212.75Z" fill="#A735B8"/>
<path d="M149.586 182.163C150.008 183.467 150.447 184.797 150.903 186.151C150.949 178.9 151.102 167.161 151.548 162.25C152.214 154.938 153.386 148.358 153.396 148.291C153.463 147.923 153.221 147.572 152.852 147.508C152.484 147.445 152.132 147.687 152.069 148.052C152.056 148.119 150.873 154.752 150.202 162.129C149.826 166.253 149.66 175.115 149.588 182.163H149.586Z" fill="#631C81" stroke="#631C81"/>
<path d="M132.877 135.577L132.877 135.577C131.273 139.438 127.784 142.124 123.668 142.802C123.369 142.851 123.124 143.018 122.99 143.274C122.865 143.513 122.865 143.776 122.926 143.993C123.044 144.416 123.47 144.862 124.099 144.758C128.93 143.963 132.901 140.725 134.77 136.229L132.877 135.577ZM132.877 135.577C133.12 134.995 133.718 134.861 134.14 134.975M132.877 135.577L134.14 134.975M134.14 134.975C134.356 135.033 134.583 135.168 134.724 135.401M134.14 134.975L134.724 135.401M134.724 135.401C134.875 135.651 134.886 135.949 134.77 136.229L134.724 135.401Z" fill="#631C81" stroke="#631C81"/>
<path d="M123.66 127.541C131.329 127.201 141.543 129.474 149.042 130.97C159.985 133.144 166.33 135.268 166.598 135.358L146.179 123.735L134.088 113.097L132.494 112.394C132.494 112.394 126.878 119.368 123.662 127.541H123.66Z" fill="#FF734E"/>
<path d="M120.288 38.6983C120.288 38.6983 125.281 36.6019 126.445 35.8374C127.61 35.0728 128.456 34.4218 130.162 34.1855C131.868 33.9493 133.38 35.2105 134.048 37.1246C134.048 37.1246 136.397 37.7068 137.072 39.647C137.517 40.923 137.85 41.8792 138.28 42.0875C138.709 42.2958 140.261 42.6976 139.924 44.7252C139.924 44.7252 139.15 45.127 137.221 44.7252C135.292 44.3234 134.198 43.1366 132.493 43.3747C130.787 43.611 122.556 48.2837 122.556 48.2837L120.29 38.702L120.288 38.6983Z" fill="#FF734E"/>
<path d="M139.008 39.2484C140.08 40.5688 140.423 42.156 140.106 43.8241C139.72 45.8509 138.247 47.3346 137.707 49.2817C137.145 51.3076 137.796 53.4247 137.946 55.4639C138.089 57.378 137.747 59.082 136.758 60.7339C136.427 61.2884 135.588 60.7322 135.921 60.1781C137.908 56.8596 136.137 53.5977 136.536 50.0826C136.931 46.6085 141.085 43.4043 138.254 39.9158C137.848 39.4146 138.598 38.7441 139.006 39.2498L139.008 39.2484Z" fill="#303E7F" stroke="#303E7F"/>
<path d="M82.813 66.7512C85.008 69.3424 90.2779 78.8348 94.6679 83.5634C99.0578 88.2919 111.214 94.8304 116.618 98.8837C121.694 102.69 122.697 105.165 123.443 106.57C123.526 106.728 123.525 106.931 123.543 107.113C123.61 107.708 123.664 108.261 123.699 108.785C123.737 109.34 123.753 109.859 123.744 110.35C123.724 111.204 124.974 112.785 124.758 113.501C124.626 113.944 124.451 114.366 124.22 114.781C123.206 116.618 123.035 119.299 125.736 122.619C125.736 122.619 127.007 121.291 140.259 125.356C167.447 133.698 172.279 142.077 173.02 141.831C173.76 141.587 179.774 136.109 179.099 133.509C178.424 130.904 177.748 128.976 177.41 125.988C177.17 123.86 176.595 123.871 176.336 122.219C176.32 122.121 176.307 122.024 176.29 121.918C176.189 121.323 176.063 120.648 175.896 119.84C175.888 119.803 175.871 119.732 175.871 119.732C175.113 116.292 176.297 118.521 176.297 118.521C176.297 118.521 176.545 118.352 176.69 118.257C178.379 117.152 181.898 115.14 184.339 112.439C185.081 111.618 185.792 110.848 186.484 110.158C187.151 109.488 187.804 108.899 188.45 108.411C189.439 107.671 190.42 107.178 191.432 107.033C193.796 106.694 201.564 107.708 206.292 104.669C210.902 101.707 224.652 83.5522 226.442 78.6767C226.488 78.5521 226.525 78.4331 226.557 78.3252C227.519 74.856 227.273 69.2978 225.945 65.038C224.942 61.833 223.328 59.3645 221.153 59.0743C221.153 59.0743 205.617 76.6361 200.55 76.9747C200.269 76.9951 199.962 76.9951 199.635 76.9821C198.5 76.9375 197.101 76.7124 195.576 76.3701C194.57 76.1432 193.506 75.8697 192.425 75.5591C191.078 75.1778 189.704 74.7425 188.368 74.296C188.227 74.2495 188.087 74.2012 187.946 74.1547C187.814 74.11 187.685 74.0673 187.557 74.0189C183.943 72.7726 180.786 71.4816 179.61 70.8957C176.907 69.5452 173.193 66.8424 171.504 67.1809C169.815 67.5195 156.643 80.016 151.914 80.3527C147.186 80.6894 132.664 65.8305 130.299 65.4919C128.093 65.1775 113.26 61.0443 110.172 59.9393C109.949 59.8575 109.787 59.7942 109.696 59.7496C108.346 59.0743 128.947 52.9953 129.285 52.3201C129.624 51.6449 124.895 37.7978 122.193 37.7978C122.193 37.7978 110.71 42.1878 102.942 43.8768C95.1738 45.5658 88.587 46.747 83.1832 51.4756C77.7794 56.2041 80.4041 63.9015 82.8112 66.7475L82.813 66.7512Z" fill="#E63E5E"/>
<path d="M97.3687 64.9464C99.3702 63.1662 106.952 60.3332 112.218 58.501C112.417 58.7911 112.618 59.0795 112.823 59.3678C107.62 61.1722 99.9413 64.0163 98.0421 65.7035C97.9454 65.7891 97.8263 65.8319 97.7054 65.8319C97.5659 65.8319 97.4264 65.7742 97.3259 65.6626C97.1399 65.4542 97.1585 65.1324 97.3687 64.9464V64.9464Z" fill="#B91150" stroke="#B91150"/>
<path d="M194.543 81.6642C194.696 81.6642 194.848 81.6121 194.975 81.5079C196.817 79.9733 199.942 77.7932 201.406 77.0194C205.427 74.8969 207.864 72.3113 207.966 72.2034C208.221 71.93 208.206 71.504 207.933 71.2492C207.661 70.9943 207.233 71.0092 206.979 71.2808C206.954 71.305 204.585 73.8143 200.775 75.8252C199.073 76.7236 195.853 79.019 194.11 80.47C193.824 80.7081 193.784 81.1341 194.023 81.4205C194.157 81.5805 194.348 81.6642 194.542 81.6642H194.543Z" fill="#B91150" stroke="#B91150"/>
<path d="M168.297 77.222C168.325 77.4545 168.985 82.9811 173.675 90.6245C177.663 97.1257 176.329 101.912 175.154 106.133L175.126 106.231C174.4 108.843 174.748 113.166 175.167 116.897C175.167 116.901 175.167 116.905 175.171 116.907C175.437 118.099 175.676 119.122 175.725 119.027C175.783 118.908 175.985 118.741 176.296 118.523C176.411 118.441 176.543 118.354 176.688 118.259C176.242 114.531 175.675 109.312 176.428 106.594L176.456 106.494C177.645 102.228 179.123 96.9193 174.828 89.9176C170.312 82.5551 169.648 77.1234 169.64 77.0695C169.599 76.7012 169.263 76.4352 168.894 76.4742C168.522 76.5189 168.26 76.85 168.299 77.2202L168.297 77.222Z" fill="#B91150" stroke="#B91150"/>
<path d="M118.984 55.8689C119.358 55.8689 119.659 55.5657 119.659 55.1937C119.659 54.7119 116.826 43.9565 111.856 41.2704C111.527 41.0937 111.118 41.2164 110.941 41.5438C110.764 41.8712 110.885 42.2823 111.214 42.459C115.48 44.7638 118.164 54.3492 118.311 55.2476C118.339 55.5955 118.629 55.8671 118.984 55.8671V55.8689Z" fill="#B91150" stroke="#B91150"/>
<path d="M220.644 86.6507C220.936 86.6507 221.235 86.6303 221.539 86.5875C221.909 86.5373 222.165 86.195 222.115 85.8267C222.065 85.4565 221.723 85.1979 221.354 85.25C219.983 85.4398 218.804 85.0975 217.746 84.2065C213.467 80.6033 213.049 69.634 213.045 69.5242C213.032 69.1503 212.716 68.8657 212.347 68.8713C211.975 68.8843 211.683 69.1968 211.695 69.5689C211.711 70.0432 212.141 81.2544 216.875 85.2389C217.989 86.1783 219.254 86.6507 220.644 86.6507V86.6507Z" fill="#B91150"/>
<path d="M141.127 118.064C141.374 118.064 141.613 117.928 141.732 117.692C141.899 117.359 141.765 116.951 141.43 116.786C139.161 115.647 131.33 112.059 125.883 113.696C125.526 113.804 125.323 114.18 125.431 114.537C125.539 114.894 125.917 115.097 126.272 114.989C131.242 113.495 138.668 116.91 140.824 117.993C140.921 118.041 141.025 118.066 141.127 118.066V118.064Z" fill="#B91150" stroke="#B91150"/>
<path d="M176.399 133.107C176.617 133.107 176.833 133.001 176.963 132.805C177.169 132.495 177.086 132.076 176.775 131.87C176.329 131.572 165.781 124.583 159.637 123.438C155.437 122.653 150.545 120.813 147.182 119.408C146.838 119.263 146.441 119.427 146.298 119.771C146.155 120.115 146.317 120.512 146.661 120.655C150.083 122.085 155.071 123.96 159.388 124.766C165.264 125.863 175.917 132.924 176.025 132.995C176.141 133.071 176.271 133.109 176.399 133.109V133.107Z" fill="#B91150" stroke="#B91150"/>
<path d="M226.406 66.7601C227.314 70.7092 227.394 75.3094 226.557 78.3265C226.527 78.4344 226.49 78.5535 226.441 78.6781C226.24 78.8511 224.023 79.8463 221.123 69.5336C222.946 68.7207 224.706 67.8017 226.406 66.7601V66.7601Z" fill="#0C1541"/>
<path d="M215.867 55.2182C215.97 54.7476 216.541 54.5932 217.03 54.5486C217.145 53.2762 218.085 42.8389 217.649 42.4241L217.571 42.3236C217.186 41.6949 218.632 40.8429 219.632 41.0103C221.658 41.3489 223.347 43.3746 223.347 43.3746C222.806 41.8102 224.5 40.8857 225.775 41.8493C226.305 42.2511 226.664 42.8296 227.056 43.3672C227.672 44.2079 228.476 45.019 229.508 45.1734C229.921 45.2366 230.352 45.1883 230.754 45.3017C231.848 45.6105 232.12 46.7712 232.246 47.7478C232.386 48.8304 232.707 49.355 233.481 50.1288C234.493 51.1426 233.312 57.0524 233.143 59.2474C232.847 63.0867 223.01 75.122 223.01 75.122C221.44 71.2938 219.976 67.0638 220.081 62.8654C220.105 61.8944 220.222 60.9085 220.54 59.9877C220.592 59.8352 220.65 59.6845 220.717 59.5375C220.92 59.0911 220.961 58.9572 220.668 58.5126C220.458 58.1926 220.205 57.9006 219.926 57.6365C219.504 57.3649 219.005 57.0505 218.451 56.7175C218.377 56.6729 218.312 56.6301 218.247 56.5855C218.122 56.539 217.995 56.4962 217.867 56.4608C217.729 56.4218 217.592 56.3901 217.452 56.366C217.091 56.3009 216.714 56.273 216.386 56.1055C216.059 55.94 215.789 55.5828 215.869 55.2238L215.867 55.2182Z" fill="#FF734E"/>
<path d="M199.705 54.5164C199.742 54.5946 200.118 54.6541 200.745 54.695C205.443 55.0261 224.408 54.5164 224.698 54.5164L225.373 42.0199C225.373 41.7297 205.763 40.6378 201.05 40.6192C200.441 40.6155 200.081 40.6322 200.043 40.6694C199.716 40.9968 199.377 53.8617 199.705 54.5164V54.5164Z" fill="#0C1541"/>
<path d="M222.026 42.4258C221.498 42.6732 220.949 42.8797 220.391 43.0508C220.088 43.1438 219.774 43.2294 219.513 43.4098C219.251 43.5903 219.048 43.8916 219.078 44.206C219.108 44.5055 219.342 44.7529 219.616 44.8812C219.889 45.0077 220.196 45.0356 220.495 45.0523C221.517 45.1119 222.543 45.0877 223.563 44.9817C223.725 44.9649 223.89 44.9463 224.052 44.9724C224.229 45.0021 224.391 45.0858 224.549 45.1695C224.727 45.2625 227.053 46.4419 227.062 46.4103C227.229 45.8931 227.397 45.3779 227.564 44.8607C227.668 44.5427 227.665 44.4589 227.443 44.1595C227.025 43.5903 226.576 43.0378 226.145 42.4779C225.953 42.2305 225.756 41.9775 225.492 41.8082C225.008 41.5013 224.392 41.5273 223.821 41.5869C223.202 41.6501 222.789 42.0519 222.261 42.3123C222.183 42.3514 222.104 42.3886 222.026 42.4258Z" fill="#FF734E"/>
<path d="M232.017 56.2111C232.259 56.2111 232.473 56.0381 232.516 55.7907C232.564 55.5154 232.378 55.2532 232.103 55.2048C231.805 55.1527 231.296 55.0262 231.218 54.7509C231.136 54.457 231.417 53.9492 231.794 53.473C232.04 53.2274 232.298 52.9559 232.572 52.6526C232.75 52.4536 232.745 52.1485 232.555 51.9569C232.367 51.7654 232.062 51.756 231.859 51.9328C231.727 52.05 231.385 52.3625 231.046 52.7773C230.007 53.7948 228.876 54.6598 228.392 54.63C228.358 54.6281 228.357 54.6244 228.344 54.604C227.793 53.7669 229.382 51.0771 230.764 49.3062C230.901 49.1369 230.998 49.0142 231.045 48.9546C231.216 48.7351 231.178 48.4208 230.961 48.2478C230.743 48.0748 230.429 48.1083 230.252 48.3222C230.178 48.4133 230.072 48.5435 229.943 48.7091C228.719 50.2047 226.722 52.2564 225.708 52.342C225.559 52.355 225.496 52.316 225.451 52.275C224.688 51.5812 225.933 48.3613 227.014 46.4044C227.149 46.1588 227.06 45.8519 226.815 45.7161C226.571 45.5803 226.262 45.6696 226.126 45.9151C225.615 46.8434 223.143 51.544 224.77 53.0247C225.044 53.2721 225.397 53.3856 225.795 53.3521C226.346 53.3056 226.991 52.9521 227.637 52.4648C227.216 53.4916 227.053 54.4868 227.497 55.1639C227.683 55.4466 227.975 55.6177 228.316 55.6438C228.474 55.6549 229.086 55.6363 230.204 54.8458C230.213 54.9072 230.224 54.9685 230.241 55.0281C230.416 55.6456 230.983 56.04 231.928 56.2056C231.958 56.2111 231.986 56.213 232.016 56.213L232.017 56.2111Z" fill="#B04500"/>
<path d="M223.418 54.3996C226.454 53.9606 229.335 55.1641 231.147 57.6419C231.53 58.1646 230.658 58.6668 230.278 58.1497C228.759 56.07 226.236 55.0004 223.684 55.3706C223.052 55.4618 222.778 54.4926 223.416 54.4015L223.418 54.3996Z" fill="#B04500"/>
<path d="M202.407 43.0341C202.407 42.4742 202.861 42.0203 203.42 42.0203C203.98 42.0203 204.434 42.4742 204.434 43.0341C204.434 43.594 203.98 44.0479 203.42 44.0479C202.861 44.0479 202.407 43.594 202.407 43.0341Z" fill="#303E7F"/>
<path d="M205.108 43.0341C205.108 42.4742 205.562 42.0203 206.122 42.0203C206.682 42.0203 207.136 42.4742 207.136 43.0341C207.136 43.594 206.682 44.0479 206.122 44.0479C205.562 44.0479 205.108 43.594 205.108 43.0341Z" fill="#303E7F"/>
<path d="M199.705 54.5169C199.742 54.5951 200.118 54.6546 200.745 54.6955L201.048 40.6178C200.44 40.6141 200.079 40.6308 200.042 40.668C199.714 40.9954 199.376 53.8603 199.703 54.5151L199.705 54.5169Z" fill="#0C1541"/>
</g>
<defs>
<clipPath id="clip0_17_646">
<rect width="327" height="160" rx="16" fill="white"/>
</clipPath>
</defs>
</svg>
