<svg width="100" height="100" viewBox="0 0 100 100" fill="none" xmlns="http://www.w3.org/2000/svg">
<path d="M50 0C77.6142 0 100 22.3858 100 50C100 77.6142 77.6142 100 50 100C22.3858 100 0 77.6142 0 50C0 22.3858 22.3858 0 50 0Z" fill="url(#paint0_linear_21282_391858)"/>
<path fill-rule="evenodd" clip-rule="evenodd" d="M58.7999 17.1585C52.6701 15.5161 46.2031 15.6219 40.1303 17.464C34.0576 19.3062 28.6217 22.8111 24.4375 27.5822C20.2533 32.3534 17.4879 38.2003 16.4541 44.4616C15.4204 50.7228 16.1596 57.1483 18.5881 63.0112C21.0166 68.8741 25.0375 73.9404 30.1958 77.6368C35.3541 81.3332 41.4439 83.5122 47.7763 83.9272C54.1087 84.3422 60.4309 82.9768 66.0275 79.9853C71.6242 76.9939 76.2719 72.4958 79.4449 67L84.641 70C80.9081 76.4656 75.4402 81.7575 68.8559 85.2768C62.2716 88.7962 54.8338 90.4026 47.3839 89.9144C39.934 89.4261 32.7695 86.8626 26.7009 82.5139C20.6323 78.1652 15.9019 72.2049 13.0448 65.3073C10.1878 58.4098 9.31813 50.8503 10.5343 43.4842C11.7504 36.1181 15.0038 29.2393 19.9264 23.6262C24.849 18.013 31.2443 13.8896 38.3886 11.7224C45.533 9.55517 53.1413 9.43066 60.3528 11.363L58.7999 17.1585Z" fill="white"/>
<path fill-rule="evenodd" clip-rule="evenodd" d="M27.1595 94.4904L41.7454 54.2774L24.918 54.2774L46.1478 0.146133C47.4189 0.0493021 48.7033 0 49.9993 0C59.9771 0 69.2724 2.92268 77.0756 7.95864L55.5571 36.7386H72.4921L31.5176 96.4732C30.0284 95.8805 28.5743 95.2182 27.1595 94.4904Z" fill="url(#paint1_linear_21282_391858)"/>
<path fill-rule="evenodd" clip-rule="evenodd" d="M31.5117 96.4706L48.6955 53.9771L61.1693 49.7774H50.2462L33.4188 49.7774L53.5496 0.124023C63.7681 0.840765 73.1396 4.62798 80.7475 10.5689L64.0579 32.2386H80.9929L31.5199 96.4739C31.5172 96.4728 31.5145 96.4717 31.5117 96.4706Z" fill="white"/>
<defs>
<linearGradient id="paint0_linear_21282_391858" x1="13.5" y1="86.5" x2="106.25" y2="-6.25" gradientUnits="userSpaceOnUse">
<stop stop-color="#F2E485"/>
<stop offset="1" stop-color="#FE4200"/>
</linearGradient>
<linearGradient id="paint1_linear_21282_391858" x1="52.2649" y1="-0.25065" x2="52.2649" y2="95.4192" gradientUnits="userSpaceOnUse">
<stop stop-color="#FE4200"/>
<stop offset="1" stop-color="#F0B70D"/>
</linearGradient>
</defs>
</svg>
