<svg width="327" height="160" viewBox="0 0 327 160" fill="none" xmlns="http://www.w3.org/2000/svg">
<g clip-path="url(#clip0_17_573)">
<rect width="327" height="160" rx="16" fill="#E0EBFA"/>
<path d="M45.7314 67H20.2314V72.5H30.1314V102H35.8814V72.5H45.7314V67ZM56.9412 102.65C64.2912 102.65 70.1412 96.9 70.1412 89.5C70.1412 82.05 64.2912 76.35 56.9412 76.35C49.6412 76.35 43.7412 82.05 43.7412 89.5C43.7412 96.9 49.6412 102.65 56.9412 102.65ZM56.9412 97.4C52.5412 97.4 49.1412 94.05 49.1412 89.5C49.1412 84.95 52.5412 81.6 56.9412 81.6C61.3412 81.6 64.7412 84.95 64.7412 89.5C64.7412 94.05 61.3412 97.4 56.9412 97.4ZM97.124 102L85.724 89.25L96.724 77H90.124L80.424 88.05V67H75.024V102H80.424V90.45L90.674 102H97.124ZM103.004 91.8H122.904C123.004 91.1 123.104 90.3 123.104 89.55C123.104 82.35 118.004 76.35 110.554 76.35C102.704 76.35 97.3545 82.1 97.3545 89.5C97.3545 97 102.704 102.65 110.954 102.65C115.854 102.65 119.604 100.6 121.904 97.2L117.454 94.6C116.254 96.35 114.004 97.7 111.004 97.7C107.004 97.7 103.854 95.7 103.004 91.8ZM102.954 87.4C103.704 83.65 106.454 81.25 110.504 81.25C113.754 81.25 116.904 83.1 117.654 87.4H102.954ZM141.006 76.35C137.606 76.35 134.906 77.6 133.256 80.2V77H127.856V102H133.256V88.6C133.256 83.5 136.056 81.4 139.606 81.4C143.006 81.4 145.206 83.4 145.206 87.2V102H150.606V86.65C150.606 80.15 146.606 76.35 141.006 76.35ZM159.121 73.25C161.021 73.25 162.571 71.65 162.571 69.8C162.571 67.9 161.021 66.35 159.121 66.35C157.221 66.35 155.671 67.9 155.671 69.8C155.671 71.65 157.221 73.25 159.121 73.25ZM156.421 102H161.821V77H156.421V102ZM174.54 96.9L186.19 80.6V77H167.69V82.1H178.89L167.19 98.4V102H186.69V96.9H174.54ZM210.01 77V80.55C208.11 77.95 205.16 76.35 201.26 76.35C194.46 76.35 188.81 82.05 188.81 89.5C188.81 96.9 194.46 102.65 201.26 102.65C205.16 102.65 208.11 101.05 210.01 98.4V102H215.41V77H210.01ZM202.11 97.5C197.61 97.5 194.21 94.15 194.21 89.5C194.21 84.85 197.61 81.5 202.11 81.5C206.61 81.5 210.01 84.85 210.01 89.5C210.01 94.15 206.61 97.5 202.11 97.5ZM235.654 82.2V77H229.454V70L224.054 71.6V77H219.454V82.2H224.054V94.2C224.054 100.7 227.354 103 235.654 102V97.15C231.554 97.35 229.454 97.4 229.454 94.2V82.2H235.654ZM243.251 73.25C245.151 73.25 246.701 71.65 246.701 69.8C246.701 67.9 245.151 66.35 243.251 66.35C241.351 66.35 239.801 67.9 239.801 69.8C239.801 71.65 241.351 73.25 243.251 73.25ZM240.551 102H245.951V77H240.551V102ZM264.021 102.65C271.371 102.65 277.221 96.9 277.221 89.5C277.221 82.05 271.371 76.35 264.021 76.35C256.721 76.35 250.821 82.05 250.821 89.5C250.821 96.9 256.721 102.65 264.021 102.65ZM264.021 97.4C259.621 97.4 256.221 94.05 256.221 89.5C256.221 84.95 259.621 81.6 264.021 81.6C268.421 81.6 271.821 84.95 271.821 89.5C271.821 94.05 268.421 97.4 264.021 97.4ZM295.254 76.35C291.854 76.35 289.154 77.6 287.504 80.2V77H282.104V102H287.504V88.6C287.504 83.5 290.304 81.4 293.854 81.4C297.254 81.4 299.454 83.4 299.454 87.2V102H304.854V86.65C304.854 80.15 300.854 76.35 295.254 76.35Z" fill="white"/>
<path d="M198.85 42.97H193.78V37.9H190.72V42.97H185.65V46.03H190.72V51.1H193.78V46.03H198.85V42.97Z" fill="white"/>
<path d="M249.85 19.97H244.78V14.9H241.72V19.97H236.65V23.03H241.72V28.1H244.78V23.03H249.85V19.97Z" fill="#F0B70D"/>
<path d="M92.85 38.97H87.78V33.9H84.72V38.97H79.65V42.03H84.72V47.1H87.78V42.03H92.85V38.97Z" fill="#7B5CC1"/>
<circle cx="65" cy="97" r="24" fill="#F0B70D"/>
<path d="M75.26 93.752H67.148V85.64H62.252V93.752H54.14V98.648H62.252V106.76H67.148V98.648H75.26V93.752Z" fill="white"/>
<circle cx="265" cy="145" r="24" fill="#7B5CC1"/>
<path d="M275.26 141.752H267.148V133.64H262.252V141.752H254.14V146.648H262.252V154.76H267.148V146.648H275.26V141.752Z" fill="white"/>
<path d="M-44 98.2386L-35.3068 105.123C-33.5096 106.546 -30.8863 106.17 -29.5605 104.3L-21.8561 93.4328C-20.7716 91.9031 -18.7702 91.3321 -17.0419 92.0592L-10.193 94.9404C-8.84148 95.5089 -7.90937 96.7713 -7.7638 98.2303L-3.10132 144.962C-2.72939 148.689 2.10395 149.906 4.19666 146.799L14.1212 132.062C14.372 131.69 14.6835 131.363 15.0429 131.094L24.8845 123.732C26.6189 122.434 29.071 122.753 30.416 124.451L34.0723 129.066C35.2066 130.498 37.1671 130.98 38.8358 130.236L51.2228 124.717C51.7352 124.489 52.2899 124.371 52.8509 124.371H62.2427C63.3626 124.371 64.4312 123.901 65.1887 123.076L72.1542 115.492C74.027 113.453 77.3554 113.887 78.6421 116.339L85.2938 129.014C86.5982 131.499 89.99 131.903 91.8418 129.794L96.3426 124.666C98.1426 122.616 101.422 122.93 102.801 125.285L106.807 132.129C108.65 135.277 113.399 134.517 114.169 130.952L123.374 88.3098C123.937 85.7024 126.846 84.366 129.191 85.6375L134.003 88.2473C135.242 88.9187 136.742 88.8894 137.953 88.1702L144.845 84.0767C146.63 83.0168 148.929 83.498 150.138 85.1847L155.961 93.3035C157.635 95.6385 161.152 95.4988 162.637 93.0383L169.637 81.4314C170.696 79.6763 172.909 79.0053 174.764 79.8774L180.302 82.4813C182.129 83.3401 184.309 82.7036 185.387 80.997L193.422 68.2709C194.579 66.4389 196.984 65.8609 198.847 66.9673L205.457 70.8935C206.716 71.6413 208.284 71.6413 209.543 70.8935L217.857 65.9555C218.896 65.3384 220.158 65.2241 221.292 65.6447L228.889 68.4648C230.458 69.0473 232.224 68.591 233.315 67.3213L242.52 56.6056C243.438 55.5374 244.85 55.0304 246.237 55.2708L255.03 56.7939C255.667 56.9043 256.322 56.8584 256.937 56.6604L267.158 53.3724C267.713 53.194 268.222 52.8965 268.649 52.5008L277.866 43.9743C279.138 42.7972 281.024 42.5736 282.537 43.4205L288.721 46.884C290.758 48.0245 293.334 47.1861 294.31 45.0656L304 24" stroke="#5E40A6" stroke-width="4"/>
<circle cx="304" cy="24" r="6" fill="#5E40A6"/>
<path d="M169.593 101.957C169.999 102.386 170.382 102.833 170.701 103.343C171.466 104.562 171.814 106.082 172.893 107.033C174.013 108.019 175.672 108.164 176.867 109.063C177.453 109.504 177.894 110.102 178.358 110.659C178.95 111.361 179.594 112.016 180.29 112.619C181.09 113.31 181.746 113.542 182.703 113.159C183.051 113.02 183.382 112.84 183.707 112.66C185.911 111.43 187.953 109.875 189.966 108.361C192.843 106.209 195.657 103.982 198.453 101.725C201.354 99.3929 204.231 97.0261 207.091 94.6418C209.336 92.7739 211.569 90.8943 213.797 89.0032C214.696 88.2374 215.601 87.4717 216.494 86.7001C216.494 86.7001 217.428 92.6637 217.626 98.9404C217.794 104.132 217.069 111.192 215.282 113.623C215.247 113.669 215.212 113.71 215.183 113.756C213.17 116.593 209.98 118.885 207.334 121.072C202.873 124.761 198.244 128.259 193.447 131.502C188.62 134.768 183.509 138.283 177.656 139.328C171.826 140.366 166.39 137.703 162.121 133.915C159.951 131.995 157.631 130.255 155.595 128.166C153.529 126.037 151.667 123.705 150.055 121.217C149.179 119.865 148.332 118.467 147.641 117.011C147.386 116.477 147.334 115.92 147.044 115.398C146.661 114.702 146.278 114.029 146.121 113.234C145.773 111.482 146.649 108.913 146.893 107.12C148.076 98.4067 148.871 89.5833 148.314 80.783C148.268 80.0985 148.378 76.177 147.85 75.8463C150.559 77.5402 153.222 79.3618 155.682 81.3922C157.938 83.2543 159.435 85.8474 160.856 88.3593C162.277 90.8653 163.507 93.644 165.143 96.0167C165.654 96.7592 166.24 97.4902 166.669 98.2849C167.005 98.9172 167.272 99.4857 167.759 100.048C168.328 100.71 168.984 101.296 169.587 101.928L169.593 101.957Z" fill="#7B5CC1"/>
<path d="M171.493 119.243L171.348 119.068L171.371 119.045C171.368 119.039 171.366 119.032 171.363 119.026C171.152 118.558 171.36 118.014 171.825 117.801L171.826 117.801C175.194 116.268 179.552 112.703 179.689 112.591L179.689 112.59L179.689 112.59L179.693 112.587C180.1 112.268 180.683 112.35 180.999 112.736L180.999 112.736L181.002 112.74C181.317 113.142 181.256 113.729 180.849 114.048L180.695 113.851L180.85 114.047C180.819 114.072 180.776 114.106 180.721 114.15C179.841 114.857 175.97 117.964 172.595 119.497L172.594 119.498C172.207 119.672 171.756 119.562 171.493 119.243Z" fill="#513299" stroke="#513299" stroke-width="0.5"/>
<path d="M217.642 98.9578L213.326 103.245L213.344 107.828C213.581 110.734 213.784 115.386 215.299 113.64C217.08 111.21 217.805 104.156 217.636 98.9636L217.642 98.9578Z" fill="#232734"/>
<path d="M215.983 87.1468C215.983 87.1468 218.205 84.9018 219.302 83.759C220.398 82.6161 222.266 80.5335 223.444 80.2435C224.621 79.9534 230.608 79.3675 235.121 77.8825C239.634 76.4032 245.209 75.1617 246.149 75.9333C247.089 76.7048 246.607 78.8222 245.958 79.2341C245.308 79.646 234.889 82.5697 235.098 82.8946C235.301 83.2195 237.83 84.3507 237.592 85.4123C237.349 86.4739 235.075 87.9067 235.365 89.0844C235.655 90.262 236.595 91.0335 234.965 92.0603C233.882 92.741 233.327 93.5435 233.3 94.4678C233.265 95.8542 231.757 96.3473 229.807 97.5713C227.858 98.8012 222.933 99.6307 221.959 100.246C221.361 100.623 213.338 107.833 213.338 107.833C212.41 88.6029 215.978 87.1526 215.978 87.1526L215.983 87.1468Z" fill="#DA7F73"/>
<path d="M220.421 94.5838C220.618 94.8216 220.972 94.8622 221.216 94.6708C224.18 92.3619 224.453 89.1191 224.337 87.3382C225.155 87.7907 226.35 88.3186 227.655 88.4172C229.123 88.5274 230.167 88.0517 230.451 87.141C230.788 86.0504 229.929 84.7973 228.154 83.7763C226.361 82.7437 224.911 80.5161 224.9 80.4929C224.726 80.2261 224.372 80.1507 224.105 80.3189C223.838 80.4929 223.757 80.8468 223.931 81.1136C223.995 81.2123 225.544 83.6023 227.585 84.7741C229.076 85.6327 229.459 86.4564 229.355 86.7987C229.268 87.083 228.734 87.344 227.748 87.2686C225.77 87.1178 223.977 85.7429 223.96 85.7255C223.768 85.5747 223.496 85.5631 223.293 85.6965C223.09 85.8299 222.985 86.0794 223.043 86.3172C223.09 86.5028 224.111 90.9581 220.514 93.7658C220.265 93.963 220.218 94.3227 220.415 94.5722C220.415 94.5722 220.421 94.5838 220.427 94.5838H220.421Z" fill="#A34438"/>
<path d="M234.268 82.5407C235.081 82.5813 235.191 83.7705 234.344 83.8285C233.648 83.8749 230.811 83.8923 230.776 84.8089C230.736 85.9459 232.644 86.7755 233.497 86.9553C234.414 87.1468 234.123 88.568 233.207 88.3766C231.559 88.0343 229.314 86.6943 229.28 84.7741C229.239 82.5465 232.737 82.4595 234.268 82.5407V82.5407Z" fill="#A34438"/>
<path d="M228.63 88.2954C227.714 90.2736 231.043 90.6449 232.343 90.8131C233.039 90.9059 232.946 92.0023 232.256 92.0313C231.032 92.0777 229.425 91.7761 228.305 91.0684C228.247 91.2424 228.12 91.399 227.905 91.5034C226.304 92.2576 227.801 93.5164 228.769 93.8645C229.576 94.1603 229.321 94.0733 230.173 94.1371C230.893 94.1893 230.753 95.2973 230.086 95.3554C228.537 95.4946 227.371 94.9667 226.733 94.0037C225.846 92.6636 225.811 90.6913 227.383 90.2214C226.913 89.5601 226.803 88.7073 227.331 87.6457C227.748 86.8045 229.031 87.4369 228.636 88.2838L228.63 88.2954Z" fill="#A34438"/>
<path d="M153.47 153.181C153.47 153.181 161.296 319.695 159.057 321.186C156.824 322.677 134.164 326.993 132.674 324.759C131.183 322.526 128.572 265.872 128.572 262.519C128.572 259.166 124.471 219.655 124.471 219.655C124.471 219.655 120.056 244.658 119.256 252.826C117.394 271.836 115.531 325.502 113.663 326.25C111.801 326.993 87.5759 326.993 85.708 321.406C83.8458 315.814 93.4467 179.1 96.4284 163.448C99.4102 147.797 153.465 153.186 153.465 153.186L153.47 153.181Z" fill="#21243F"/>
<path d="M148.407 151.974C148.407 151.974 145.019 156.383 135.569 154.718C126.119 153.047 105.618 148.586 105.618 148.586L106.657 131.322L149.562 138.626L148.401 151.974H148.407Z" fill="white"/>
<path d="M141.359 137.025C141.359 137.025 143.565 171.655 145.126 171.609C146.692 171.563 158.617 173.488 159.354 171.899C160.09 170.309 152.125 142.124 152.369 137.025C152.613 131.925 158.35 102.288 159.354 96.388C160.357 90.4824 158.605 84.2695 156.998 82.7496C155.386 81.2297 146.574 74.4366 146.574 74.4366C146.574 74.4366 145.274 70.167 138.922 67.2201C135.65 65.7002 138.348 107.764 138.348 107.764L141.353 137.019L141.359 137.025Z" fill="#7B5CC1"/>
<path d="M144.949 125.07C147.375 115.635 148.794 106.992 150.087 97.3456C150.15 96.8717 150.24 96.246 150.343 95.5257C150.504 94.4009 150.699 93.0453 150.877 91.6759C151.168 89.4331 151.407 87.2132 151.373 86.0273L151.373 86.0273C151.366 85.7871 151.361 85.5689 151.357 85.369C151.348 84.9735 151.341 84.6502 151.322 84.3726C151.295 83.9574 151.245 83.6796 151.144 83.4545C150.945 83.0084 150.521 82.7028 149.39 82.0354L149.39 82.0353C148.984 81.7951 148.57 81.6019 148.146 81.404C147.919 81.2977 147.688 81.1899 147.454 81.0727C146.799 80.7449 146.152 80.3572 145.608 79.7552C145.394 79.5229 145.178 79.2267 145.107 78.87L145.107 78.869C145.006 78.3539 145.159 77.9916 145.399 77.6978C145.512 77.5589 145.645 77.4345 145.767 77.3206L145.779 77.3096C145.901 77.1962 146.013 77.0911 146.114 76.9747L146.303 77.1386L146.114 76.975C146.193 76.8835 146.264 76.7784 146.346 76.6578C146.388 76.5949 146.433 76.5277 146.484 76.456C146.619 76.2666 146.789 76.0518 147.015 75.9237C147.447 75.6761 147.944 75.9377 148.023 76.413L148.024 76.4144C148.08 76.765 147.917 77.077 147.767 77.3146C147.717 77.3932 147.66 77.4752 147.608 77.5509C147.581 77.5896 147.556 77.6266 147.533 77.6606C147.46 77.7694 147.404 77.8613 147.369 77.944C147.25 78.2243 147.192 78.4934 147.219 78.7242C147.244 78.9432 147.346 79.1425 147.585 79.3037C147.977 79.5656 148.406 79.7656 148.856 79.9544C148.995 80.0128 149.138 80.0707 149.282 80.1292C149.597 80.2567 149.918 80.3872 150.227 80.5323L150.227 80.5324C150.932 80.865 151.602 81.1828 152.103 81.6282C152.619 82.0871 152.955 82.678 153.015 83.5371L144.949 125.07ZM144.949 125.07L144.947 125.07C144.823 125.561 144.973 126.104 145.191 126.42C145.247 126.502 145.314 126.578 145.392 126.636C145.469 126.693 145.573 126.743 145.695 126.74C145.972 126.733 146.107 126.485 146.167 126.264L146.167 126.264C148.654 117.08 150.57 106.876 151.876 97.471C151.946 96.967 152.019 96.4547 152.094 95.936C152.667 91.9211 153.294 87.5222 153.015 83.5373L144.949 125.07Z" fill="#513299" stroke="#513299" stroke-width="0.5"/>
<path d="M160.166 98.604C160.432 97.815 161.662 98.1341 161.424 98.9404C158.814 107.746 156.041 120.497 154.84 130.017C154.742 130.806 153.373 130.638 153.442 129.837C154.167 120.787 157.288 107.184 160.166 98.604V98.604Z" fill="white"/>
<path d="M151.622 143.104L151.727 143.331C150.547 143.88 149.322 144.259 148.031 144.442L148.03 144.442C147.717 144.486 147.445 144.41 147.242 144.25C147.043 144.093 146.925 143.867 146.892 143.634C146.86 143.4 146.911 143.15 147.064 142.946C147.219 142.739 147.464 142.598 147.781 142.56L147.781 142.56C148.835 142.435 149.871 142.146 150.84 141.71L150.84 141.71L150.842 141.71C151.376 141.472 151.87 141.755 152.089 142.126C152.2 142.314 152.257 142.546 152.205 142.774C152.151 143.011 151.988 143.211 151.726 143.331L151.622 143.104ZM151.622 143.104C152.417 142.739 151.726 141.59 150.943 141.938C149.951 142.385 148.89 142.681 147.81 142.808C146.784 142.93 146.987 144.334 147.996 144.195C149.261 144.015 150.462 143.644 151.622 143.104Z" fill="#513299" stroke="#513299" stroke-width="0.5"/>
<path d="M141.358 140.325C141.358 140.325 144.561 84.2404 142.768 78.0391C140.807 71.246 137.965 67.8001 137.965 67.8001L126.154 58.9419L117.719 65.062L124.466 131.142L141.358 140.32V140.325Z" fill="white"/>
<path d="M151.081 37.8201C151.081 37.8201 153.5 38.5 153 30C158 17.5 142.5 19.5 128.5 23.5C122.026 25.3497 121.787 31.21 121.5 32.5C120.74 35.9168 122.209 50.4027 126.316 51.6905C130.76 53.0828 143.006 46.2143 143.006 46.2143L151.069 37.8143L151.081 37.8201Z" fill="#232734"/>
<path d="M138.968 63.1825L138.823 69.1634L138.33 80.3189C138.33 80.3189 132.013 72.8355 129.814 70.3874C128.231 68.6239 124.541 63.4609 122.511 61.593C126.641 55.6005 126.16 47.2469 126.16 47.2469L129.118 47.4905L131.804 48.4303L137.013 59.1565L138.8 62.8286L138.968 63.1767V63.1825Z" fill="#DA7F73"/>
<path d="M138.98 62.3472C138.992 63.3624 138.864 66.3964 138.8 68.2643C128.242 65.5146 128.503 51.1917 128.503 51.1917L137.808 56.5345C137.826 57.0624 138.777 61.8483 138.98 62.3414V62.3472Z" fill="#A34438"/>
<path d="M152.415 36.3873C152.247 40.6801 151.441 55.3685 148.07 58.7853C145.982 60.9027 140.651 60.8447 138.139 60.3922C130.418 59.0115 125.91 55.937 126.171 47.6994C126.171 47.6994 119.819 44.6712 122.424 38.9862C124.489 34.4787 128.625 39.05 128.625 39.05C128.625 39.05 130.76 40.2972 132.291 35.0588C135.844 28.3221 137.584 28.8912 149.186 29.7723C152.557 30.0283 152.444 35.668 152.415 36.3931V36.3873Z" fill="#DA7F73"/>
<path d="M145.326 40.2144L144.404 43.1358C144.31 43.4321 144.36 43.7551 144.538 44.0098L146.542 46.877C146.874 47.3521 146.733 48.0091 146.236 48.3074L144.255 49.4961" stroke="#A34438" stroke-width="2" stroke-linecap="round"/>
<path d="M138.95 41.005C138.753 40.7846 138.51 40.6569 138.237 40.6685C138.208 40.6685 138.173 40.6685 138.144 40.6685C138.132 40.6685 138.121 40.6627 138.109 40.6685C138.098 40.6685 138.092 40.6685 138.08 40.6685C137.129 40.7091 136.792 41.9854 137.21 42.7337C137.257 42.9136 137.338 43.0702 137.489 43.1804C137.634 43.2906 137.819 43.3428 138.005 43.3428C138.022 43.3486 138.034 43.3602 138.051 43.366C138.486 43.4763 138.811 43.2442 138.997 42.8729C139.432 42.3741 139.42 41.5271 138.95 41.005V41.005Z" fill="#232734"/>
<path d="M151.202 41.4227C150.843 40.8774 150.094 40.7498 149.578 41.1558C149.532 41.1907 149.491 41.2313 149.456 41.2777C149.323 41.4169 149.247 41.5967 149.242 41.7998C149.242 41.823 149.242 41.8462 149.242 41.8694C149.242 41.8752 149.242 41.881 149.242 41.8926C149.276 42.2465 149.317 42.6061 149.514 42.9194C149.891 43.5169 150.709 43.4647 151.144 42.9716C151.521 42.5423 151.51 41.8868 151.202 41.4285V41.4227Z" fill="#232734"/>
<path d="M140.483 36.66C139.717 37.0196 138.905 37.2517 138.162 37.652C137.408 38.058 136.7 38.5569 135.964 38.992C135.296 39.3807 135.848 40.4597 136.52 40.0652C137.257 39.6301 137.959 39.1312 138.719 38.7252C139.467 38.3307 140.28 38.0928 141.039 37.7332C141.741 37.4025 141.185 36.3351 140.483 36.66Z" fill="#232734"/>
<path d="M149.074 37.9652C148.917 37.8144 148.848 37.5881 148.923 37.3677C149.022 37.0602 149.347 36.8978 149.654 36.9964C149.724 37.0196 151.435 37.5765 152.746 38.9166C152.972 39.1428 152.966 39.5141 152.74 39.7345C152.514 39.9608 152.143 39.9666 151.922 39.7287C150.803 38.5975 149.312 38.1044 149.294 38.0986C149.207 38.0696 149.132 38.0232 149.074 37.9652Z" fill="#232734"/>
<path d="M146.155 53.6223C147.844 53.982 143.145 56.1632 142.373 56.14C141.602 56.1168 140.465 54.0516 140.291 53.2974L146.155 53.6223V53.6223Z" fill="white"/>
<path d="M131.671 86.9786C133.046 84.4203 134.351 82.1753 136.526 80.2435C137.176 79.6692 138.162 80.5626 137.524 81.1833C135.517 83.1441 133.84 85.3079 132.489 87.7675C132.025 88.6087 131.218 87.8256 131.676 86.9786H131.671Z" fill="#E5EAEC"/>
<path d="M137.71 90.1865C137.692 89.6412 137.681 89.1017 137.687 88.5564C137.698 87.0424 137.797 85.5283 137.971 84.0258C138.058 83.2774 138.162 82.5233 138.29 81.7808C138.36 81.3631 138.319 80.8932 138.789 80.783C139.305 80.667 139.903 81.0846 140.28 81.3805C141.144 82.065 141.887 82.9062 142.449 83.8518C142.763 84.3797 143.14 85.1512 143.111 85.7777C143.111 85.8067 143.111 85.8415 143.082 85.8647C143.041 85.8995 142.977 85.8647 142.931 85.8357C141.765 84.9134 141.086 83.5385 139.897 82.6451C139.758 82.5407 139.601 82.4363 139.427 82.4247C138.667 82.3725 138.551 84.5653 138.493 85.0294C138.319 86.5435 138.383 88.1794 138.429 89.7108C138.441 90.0473 138.452 90.3838 138.476 90.7202C138.661 93.7484 139.462 96.6025 140.152 99.5379C141.521 105.385 139.723 147.24 139.949 153.157C139.966 153.621 139.265 153.639 139.23 153.181C139.009 150.141 140.036 111.117 140.129 108.071C140.228 104.857 139.932 101.8 139.149 98.6793C138.441 95.86 137.808 93.0987 137.698 90.1807L137.71 90.1865Z" fill="#E5EAEC"/>
<path d="M95.1465 115.891C95.4423 119.685 96.2429 114.766 96.4343 115.299C97.0376 116.953 98.1398 128.468 98.7838 133.306C99.0506 135.273 99.126 137.982 99.1782 139.565C99.3349 145.042 96.0805 155.368 96.91 156.911C91.1749 179.44 134.75 176.018 136.955 171.609C136.955 171.609 136.317 142.495 136.955 137.39C137.587 132.285 134.542 111.558 131.078 100.304C129.622 95.5758 120.039 63.8206 118.861 63.8612C117.684 63.8961 115.015 66.3209 114.65 67.1157C114.644 67.1389 114.621 67.1621 114.586 67.1853C114.58 67.1911 114.569 67.2027 114.563 67.2027C114.4 67.3361 114.012 67.5449 113.461 67.7944C113.402 67.8234 113.339 67.8466 113.275 67.8814C112.59 68.1947 111.68 68.5891 110.63 69.0242C106.76 71.4665 102.537 73.2706 98.5169 75.4518C96.9506 76.2988 95.4713 77.2269 94.0849 78.2421C93.3888 84.6581 94.3169 104.985 95.1465 115.897V115.891Z" fill="#7B5CC1"/>
<path d="M112.655 83.1283L112.851 83.4958C115.544 88.5522 128.877 116.939 133.752 127.455C133.958 127.909 134.353 128.33 134.664 128.535C134.743 128.587 134.827 128.632 134.912 128.659C134.985 128.681 135.116 128.708 135.24 128.635C135.383 128.551 135.41 128.4 135.406 128.3C135.403 128.2 135.371 128.089 135.324 127.975C131.007 117.403 118.631 90.0791 116.078 85.2176C115.873 84.8214 115.645 84.4222 115.418 84.0258C115.326 83.8633 115.233 83.7012 115.142 83.5401C114.828 82.9809 114.533 82.4254 114.307 81.8638L114.307 81.8637C113.991 81.0775 114.042 80.7772 114.203 80.5622C114.298 80.4347 114.45 80.3126 114.68 80.1575C114.761 80.1028 114.856 80.0415 114.96 79.9745C115.129 79.8652 115.322 79.7406 115.518 79.6039L115.518 79.6038C117.237 78.4051 118.785 77.0613 119.963 75.2786L119.964 75.2766L119.964 75.2766C120.142 75.002 120.152 74.653 120.05 74.3671C119.949 74.0789 119.716 73.808 119.361 73.7408C119.36 73.7407 119.36 73.7407 119.36 73.7406L119.314 73.9863C118.897 73.9054 118.461 73.8404 118.018 73.7747C117.13 73.6426 116.219 73.5072 115.41 73.2322C114.447 72.9073 114.261 72.5593 114.255 71.5383L112.655 83.1283ZM112.655 83.1283H112.66M112.655 83.1283H112.66M112.66 83.1283C112.642 83.0968 112.624 83.065 112.606 83.033C112.336 82.5551 112.035 82.0232 111.871 81.4982C111.76 81.1383 111.704 80.7609 111.766 80.3807C111.829 79.9968 112.009 79.6275 112.341 79.2834L112.341 79.2832C112.763 78.846 113.306 78.491 113.842 78.1656C113.958 78.0946 114.075 78.0252 114.189 77.9566C114.61 77.7049 115.013 77.4641 115.362 77.1989C116.038 76.6759 116.648 76.1226 117.195 75.5086C117.17 75.506 117.143 75.5035 117.117 75.501C116.445 75.436 115.615 75.3559 114.86 75.157C113.885 74.9002 112.931 74.4212 112.586 73.4249C112.439 73.0051 112.428 72.5365 112.466 72.0916C112.497 71.7202 112.564 71.3459 112.623 71.0142C112.635 70.9492 112.646 70.8858 112.657 70.8244C112.657 70.8237 112.657 70.8231 112.657 70.8224L112.904 70.8653C112.95 70.5695 113.199 69.6935 113.466 68.7944L112.66 83.1283Z" fill="#513299" stroke="#513299" stroke-width="0.5"/>
<path d="M124.927 144.902C119.803 144.502 114.679 144.072 109.561 143.573L109.56 143.573C108.97 143.515 108.664 143.02 108.647 142.58C108.638 142.357 108.7 142.121 108.859 141.942C109.022 141.759 109.263 141.663 109.553 141.682L125.085 143.168L125.109 142.919C125.109 142.919 125.109 142.919 125.109 142.919C125.403 142.947 125.624 143.099 125.76 143.308C125.891 143.511 125.937 143.758 125.917 143.988C125.898 144.219 125.809 144.455 125.643 144.633C125.471 144.816 125.225 144.926 124.927 144.902ZM124.927 144.902L124.946 144.653L124.926 144.902C124.927 144.902 124.927 144.902 124.927 144.902Z" fill="#513299" stroke="#513299" stroke-width="0.5"/>
<path d="M71.2349 130.469C71.3161 129.46 71.4263 128.456 71.3915 127.435C71.2697 124.187 74.4081 121.808 75.1332 118.734C75.4929 117.196 75.3073 115.572 75.6263 114.017C76.3689 110.403 79.2752 107.758 79.9597 104.109C80.3658 101.928 81.4796 99.7351 82.2569 97.6468C82.9879 95.6918 83.6318 93.673 84.444 91.7529C85.784 88.5797 87.3329 85.5051 89.2937 82.6103C91.8868 79.6518 94.9787 77.3604 98.5232 75.4402C100.287 74.483 102.085 73.6013 103.878 72.7079L105.374 104.776C105.374 104.776 97.7285 125.382 96.3014 130.127C94.8743 134.867 94.5263 136.444 94.5611 137.616C94.5959 138.788 98.3956 149.741 107.753 172.173C108.205 173.258 95.5762 184.274 92.4321 183.979C91.9854 183.938 91.6025 183.369 91.3473 183.068C89.6939 181.124 88.5163 178.653 87.3329 176.414C85.4301 172.794 84.4672 171.437 82.7965 167.706C79.0838 159.405 75.6205 150.901 73.1028 142.153C72.2037 139.038 71.3103 135.789 71.1711 132.534C71.1421 131.838 71.1827 131.154 71.2349 130.469V130.469Z" fill="#7B5CC1"/>
<path d="M97.8928 76.75H97.8397C97.6071 76.75 97.445 76.7636 97.2876 76.8334C97.2125 76.8667 97.1465 76.9091 97.082 76.9539C97.0519 76.9748 97.0198 76.9978 96.9864 77.0218L96.9787 77.0273C96.942 77.0537 96.9022 77.0822 96.8572 77.1136L96.4649 77.3873L96.9136 77.5532C97.6787 77.8359 98.3763 78.2865 99.0175 78.8771C100.835 80.5633 102.217 82.8744 103.368 85.0969L103.368 85.097C105.849 89.8798 107.093 95.2508 107.024 100.64C107.02 100.799 107.073 100.941 107.175 101.046C107.274 101.148 107.402 101.198 107.524 101.212L107.529 101.213L107.529 101.213C107.675 101.227 107.838 101.191 107.969 101.096C108.108 100.995 108.202 100.833 108.203 100.63C108.203 100.629 108.203 100.628 108.203 100.627H107.953C107.999 97.9879 107.732 95.3542 107.17 92.7844L97.8928 76.75ZM97.8928 76.75L97.9413 76.7715C98.0478 76.8189 98.1379 76.8427 98.2446 76.8709C98.2724 76.8783 98.3013 76.8859 98.3319 76.8944C98.4783 76.9347 98.6397 76.9885 98.8222 77.1113L98.8222 77.1113L98.8232 77.112C101.094 78.6578 102.68 81.2789 103.954 83.5785L97.8928 76.75Z" fill="#513299" stroke="#513299" stroke-width="0.5"/>
<path d="M95.2185 135.728L95.2184 135.728C97.8211 127.155 100.766 118.697 104.001 110.343C104.001 110.343 104.001 110.343 104.001 110.343L103.768 110.253C104.081 109.446 102.793 109.116 102.474 109.899L95.2185 135.728ZM95.2185 135.728L95.2163 135.735C95.2155 135.737 95.2145 135.74 95.2135 135.743C95.206 135.766 95.1953 135.798 95.1802 135.834C95.4689 137.05 95.7632 138.265 96.0685 139.475L95.2185 135.728ZM94.2864 131.834C96.6424 124.385 99.2842 117.033 102.243 109.804L95.8261 139.536C96.0408 140.378 94.6601 140.227 94.4165 139.386C93.3781 135.801 92.6645 132.709 91.9916 129.036L91.7458 129.082C91.7458 129.082 91.7457 129.082 91.7457 129.082C91.6332 128.472 92.0484 128.034 92.4851 127.898C92.7059 127.829 92.9579 127.827 93.1786 127.935C93.4082 128.046 93.5727 128.262 93.6295 128.561L93.6339 128.584V128.59C93.8358 129.674 94.0551 130.756 94.2864 131.834Z" fill="#513299" stroke="#513299" stroke-width="0.5"/>
</g>
<defs>
<clipPath id="clip0_17_573">
<rect width="327" height="160" rx="16" fill="white"/>
</clipPath>
</defs>
</svg>
