<svg width="20" height="20" viewBox="0 0 20 20" fill="none" xmlns="http://www.w3.org/2000/svg">
<g clip-path="url(#clip0_26298_59811)">
<path fill-rule="evenodd" clip-rule="evenodd" d="M8.22851 19.8436C8.80348 19.9464 9.39547 20 10 20C12.6785 20 15.111 18.9469 16.9062 17.2322C15.4135 16.9872 13.403 16.6298 13.4005 16.4824C13.3969 16.2836 17.5367 15.6302 18.3505 15.5037C18.4718 15.3201 18.5871 15.1323 18.6963 14.9405C17.2337 14.6976 15.4122 14.3671 15.4098 14.2268C15.4071 14.0722 17.9116 13.6424 19.4073 13.3996C19.7909 12.3383 20 11.1936 20 10C20 4.47715 15.5228 0 10 0C7.32008 0 4.88637 1.05419 3.09095 2.77052C4.58955 3.01864 6.6429 3.38424 6.6404 3.5243C6.63677 3.74056 2.31166 4.40861 1.63971 4.5111C1.52135 4.69102 1.40863 4.87499 1.30182 5.06275C2.77333 5.30894 4.63346 5.64658 4.63108 5.77988C4.62829 5.94604 2.07471 6.37886 0.586722 6.617C0.20694 7.6736 0 8.81263 0 10C0 11.2123 0.215714 12.3742 0.610852 13.4494C0.907936 13.3117 1.23874 13.1101 1.59133 12.9123C0.936463 12.834 0.588882 12.6984 0.588882 12.6984C1.5955 12.4673 3.26751 11.8335 3.26751 11.8335C3.35227 11.7741 3.43703 11.7148 3.51544 11.6915C4.18718 11.2527 4.74449 10.8309 5.18735 10.4261C5.74048 10.4494 6.45679 10.3899 7.09885 9.90882C6.66443 10.0551 5.63657 9.9853 5.63657 9.9853C4.62777 9.80742 4.17628 9.20777 4.29707 9.15477C5.65544 8.61422 6.84637 7.96986 6.84637 7.96986C7.10909 7.53329 8.15154 6.04553 9.45701 6.0157C9.86603 6.01353 10.2284 5.85455 10.5378 5.57479L12.4003 3.86018C12.4003 3.86018 13.4325 4.11646 13.4687 5.38581C13.5113 6.61914 12.5725 7.30797 12.7019 7.62794C12.8375 7.91189 14.2043 7.1128 14.2043 7.1128C14.2043 7.1128 14.5118 8.31855 13.9185 8.73397C13.3252 9.14939 11.9819 11.2899 11.6239 12.8983C11.535 13.4027 11.4228 13.8287 11.3105 14.2546C11.3254 14.5915 11.226 16.2085 10.6476 16.9608L10.55 16.4607C10.0098 17.6284 9.3699 18.5185 8.67066 19.3239C8.5062 19.5167 8.35996 19.6889 8.22851 19.8436ZM9.22518 7.34378L9.46667 6.60625L9.90744 6.42394C9.71686 7.50477 9.22518 7.34378 9.22518 7.34378Z" fill="#FD9941"/>
</g>
<defs>
<clipPath id="clip0_26298_59811">
<rect width="20" height="20" fill="white"/>
</clipPath>
</defs>
</svg>
