<svg width="39" height="32" viewBox="0 0 39 32" fill="none" xmlns="http://www.w3.org/2000/svg">
<path d="M32.611 1.8494C32.5492 1.60209 32.327 1.42859 32.072 1.42859C31.8171 1.42859 31.5949 1.60209 31.5331 1.8494L30.81 4.74162C30.6595 5.34385 30.6088 5.51824 30.5225 5.65309C30.4358 5.78849 30.3208 5.90349 30.1854 5.99013C30.0506 6.07642 29.8762 6.12712 29.274 6.27768L26.3818 7.00073C26.1344 7.06256 25.9609 7.28477 25.9609 7.5397C25.9609 7.79463 26.1344 8.01684 26.3818 8.07867L29.274 8.80172C29.8762 8.95228 30.0506 9.00298 30.1854 9.08927C30.3208 9.17592 30.4358 9.29091 30.5225 9.42631C30.6088 9.56116 30.6595 9.73555 30.81 10.3378L31.5331 13.23C31.5949 13.4773 31.8171 13.6508 32.0721 13.6508C32.327 13.6508 32.5492 13.4773 32.611 13.23L33.3341 10.3378C33.4846 9.73555 33.5353 9.56116 33.6216 9.42631C33.7083 9.29091 33.8233 9.17592 33.9587 9.08927C34.0935 9.00298 34.2679 8.95228 34.8701 8.80172L37.7623 8.07867C38.0097 8.01684 38.1832 7.79463 38.1832 7.5397C38.1832 7.28477 38.0097 7.06256 37.7623 7.00073L34.8701 6.27768C34.2679 6.12712 34.0935 6.07642 33.9587 5.99013C33.8233 5.90349 33.7083 5.78849 33.6216 5.65309C33.5353 5.51824 33.4846 5.34385 33.3341 4.74162L32.611 1.8494Z" fill="#9575F3"/>
<path opacity="0.5" d="M25.4167 21.6398C25.3647 21.4317 25.1777 21.2856 24.9632 21.2856C24.7486 21.2856 24.5616 21.4317 24.5096 21.6398L23.9011 24.0738C23.7744 24.5806 23.7317 24.7273 23.6591 24.8408C23.5862 24.9548 23.4894 25.0515 23.3755 25.1244C23.262 25.1971 23.1152 25.2397 22.6084 25.3664L20.1745 25.9749C19.9663 26.027 19.8203 26.214 19.8203 26.4285C19.8203 26.643 19.9663 26.83 20.1745 26.8821L22.6084 27.4906C23.1152 27.6173 23.262 27.6599 23.3755 27.7326C23.4894 27.8055 23.5862 27.9022 23.6591 28.0162C23.7317 28.1297 23.7744 28.2764 23.9011 28.7832L24.5096 31.2172C24.5616 31.4253 24.7486 31.5714 24.9632 31.5714C25.1777 31.5714 25.3647 31.4253 25.4167 31.2172L26.0252 28.7833C26.1519 28.2764 26.1946 28.1297 26.2672 28.0162C26.3401 27.9022 26.4369 27.8055 26.5509 27.7326C26.6643 27.6599 26.8111 27.6173 27.3179 27.4906L29.7519 26.8821C29.96 26.83 30.106 26.643 30.106 26.4285C30.106 26.214 29.96 26.027 29.7519 25.9749L27.3179 25.3664C26.8111 25.2397 26.6643 25.1971 26.5509 25.1244C26.4369 25.0515 26.3401 24.9548 26.2672 24.8408C26.1946 24.7273 26.1519 24.5806 26.0252 24.0738L25.4167 21.6398Z" fill="#9575F3"/>
<path d="M11.5468 0.678767C11.4471 0.279851 11.0886 0 10.6775 0C10.2663 0 9.90784 0.279851 9.80811 0.678767L8.64183 5.34387C8.39898 6.31527 8.3172 6.59655 8.17801 6.81407C8.03826 7.03247 7.85278 7.21795 7.63438 7.3577C7.41687 7.49688 7.13558 7.57867 6.16419 7.82152L1.49908 8.98779C1.10016 9.08752 0.820312 9.44595 0.820312 9.85714C0.820312 10.2683 1.10016 10.6268 1.49908 10.7265L6.16419 11.8928C7.13558 12.1356 7.41687 12.2174 7.63438 12.3566C7.85278 12.4963 8.03826 12.6818 8.17801 12.9002C8.3172 13.1177 8.39898 13.399 8.64183 14.3704L9.80811 19.0355C9.90784 19.4344 10.2663 19.7143 10.6775 19.7143C11.0886 19.7143 11.4471 19.4344 11.5468 19.0355L12.7131 14.3704C12.9559 13.399 13.0377 13.1177 13.1769 12.9002C13.3166 12.6818 13.5021 12.4963 13.7205 12.3566C13.938 12.2174 14.2193 12.1356 15.1907 11.8928L19.8558 10.7265C20.2547 10.6268 20.5346 10.2683 20.5346 9.85714C20.5346 9.44595 20.2547 9.08752 19.8558 8.98779L15.1907 7.82152C14.2193 7.57867 13.938 7.49688 13.7205 7.3577C13.5021 7.21795 13.3166 7.03247 13.1769 6.81407C13.0377 6.59655 12.9559 6.31527 12.7131 5.34388L11.5468 0.678767Z" fill="#9575F3"/>
</svg>
