<svg width="120" height="120" viewBox="0 0 120 120" fill="none" xmlns="http://www.w3.org/2000/svg">
<path d="M88.8 0H31.2C13.9687 0 0 13.9687 0 31.2V88.8C0 106.031 13.9687 120 31.2 120H88.8C106.031 120 120 106.031 120 88.8V31.2C120 13.9687 106.031 0 88.8 0Z" fill="black"/>
<path d="M56.658 52.284C55.7643 52.2817 54.8791 52.4584 54.0547 52.8036C53.2304 53.1488 52.4834 53.6556 51.858 54.294C50.7912 53.2008 49.3813 52.5072 47.8642 52.3291C46.3471 52.1511 44.8149 52.4995 43.524 53.316L43.266 52.284H40.428V68.514H44.244V58.968C44.2777 58.2308 44.5943 57.535 45.1279 57.0253C45.6615 56.5156 46.3711 56.2311 47.109 56.2311C47.8469 56.2311 48.5565 56.5156 49.0901 57.0253C49.6237 57.535 49.9403 58.2308 49.974 58.968V68.514H53.796V58.968C53.796 58.2089 54.0975 57.481 54.6343 56.9443C55.171 56.4075 55.8989 56.106 56.658 56.106C57.417 56.106 58.145 56.4075 58.6817 56.9443C59.2185 57.481 59.52 58.2089 59.52 58.968V68.514H63.342V58.968C63.3388 57.1963 62.6336 55.498 61.3808 54.2452C60.128 52.9924 58.4297 52.2872 56.658 52.284Z" fill="white"/>
<path d="M86.736 45.6H82.914V68.514H86.736V45.6Z" fill="white"/>
<path d="M37.566 52.284H33.744V68.514H37.566V52.284Z" fill="white"/>
<path d="M73.368 52.284C71.6196 52.281 69.9177 52.8476 68.52 53.898L68.118 52.284H65.25V75.198H69.072V67.278C70.358 68.0887 71.8478 68.5174 73.368 68.514C74.4771 68.588 75.5896 68.4334 76.6365 68.0598C77.6835 67.6863 78.6425 67.1017 79.4543 66.3423C80.266 65.5828 80.9132 64.6648 81.3556 63.6451C81.798 62.6253 82.0263 61.5256 82.0263 60.414C82.0263 59.3024 81.798 58.2027 81.3556 57.1829C80.9132 56.1632 80.266 55.2452 79.4543 54.4858C78.6425 53.7264 77.6835 53.1418 76.6365 52.7682C75.5896 52.3946 74.4771 52.24 73.368 52.314V52.284ZM73.368 64.698C72.5183 64.698 71.6877 64.4461 70.9813 63.974C70.2748 63.502 69.7242 62.831 69.399 62.046C69.0739 61.261 68.9888 60.3972 69.1545 59.5639C69.3203 58.7306 69.7295 57.9651 70.3303 57.3643C70.9311 56.7635 71.6966 56.3543 72.5299 56.1886C73.3632 56.0228 74.227 56.1079 75.012 56.433C75.797 56.7582 76.4679 57.3088 76.94 58.0153C77.412 58.7218 77.664 59.5523 77.664 60.402C77.6624 61.5409 77.2093 62.6327 76.404 63.438C75.5987 64.2433 74.5069 64.6964 73.368 64.698Z" fill="white"/>
<path d="M23.238 49.422C25.314 49.422 27.066 50.73 27.066 52.284H30.876C30.876 48.6 27.45 45.6 23.238 45.6C19.026 45.6 15.6 48.6 15.6 52.284C15.6 56.592 18.954 57.684 21.396 58.458C21.792 58.584 22.206 58.716 22.596 58.86C22.986 59.004 23.502 59.166 23.934 59.304C26.676 60.186 27.06 60.504 27.06 61.83C27.06 63.384 25.308 64.698 23.232 64.698C21.156 64.698 19.41 63.384 19.41 61.83H15.6C15.6 65.52 19.026 68.514 23.238 68.514C27.45 68.514 30.876 65.514 30.876 61.83C30.876 57.528 27.54 56.43 25.11 55.668C24.702 55.536 24.288 55.404 23.874 55.26C23.46 55.116 22.986 54.96 22.566 54.822C19.824 53.94 19.416 53.622 19.416 52.284C19.416 50.73 21.168 49.422 23.238 49.422Z" fill="white"/>
<path d="M103.446 61.83H104.268C104.355 61.3589 104.399 60.881 104.4 60.402C104.4 58.3994 103.659 56.4676 102.32 54.9786C100.981 53.4895 99.138 52.5484 97.1466 52.3365C95.1552 52.1245 93.1558 52.6567 91.5333 53.8305C89.9107 55.0043 88.7797 56.7368 88.3579 58.6945C87.9362 60.6522 88.2535 62.6967 89.2487 64.4345C90.244 66.1723 91.8469 67.4805 93.7489 68.1073C95.6509 68.7341 97.7175 68.6353 99.551 67.8297C101.384 67.0242 102.855 65.5689 103.68 63.744H99C98.4662 64.1759 97.8364 64.4732 97.1637 64.6109C96.491 64.7485 95.795 64.7224 95.1345 64.5347C94.474 64.3471 93.8683 64.0035 93.3683 63.5328C92.8684 63.062 92.489 62.478 92.262 61.83H103.47H103.446ZM92.238 58.968C92.5327 58.13 93.0804 57.4041 93.8053 56.8906C94.5302 56.3771 95.3966 56.1013 96.285 56.1013C97.1733 56.1013 98.0398 56.3771 98.7647 56.8906C99.4896 57.4041 100.037 58.13 100.332 58.968H92.238Z" fill="white"/>
<path d="M35.652 50.376C36.9708 50.376 38.04 49.3068 38.04 47.988C38.04 46.6691 36.9708 45.6 35.652 45.6C34.3331 45.6 33.264 46.6691 33.264 47.988C33.264 49.3068 34.3331 50.376 35.652 50.376Z" fill="white"/>
</svg>
