<svg width="104" height="32" viewBox="0 0 104 32" fill="none" xmlns="http://www.w3.org/2000/svg">
<path d="M10.7352 11.2272C11.6264 11.2272 12.3488 10.5048 12.3488 9.61361C12.3488 8.72244 11.6264 8 10.7352 8C9.84403 8 9.12158 8.72244 9.12158 9.61361C9.12158 10.5048 9.84403 11.2272 10.7352 11.2272Z" fill="white"/>
<path d="M23.7479 11.2272C24.6391 11.2272 25.3615 10.5048 25.3615 9.61361C25.3615 8.72244 24.6391 8 23.7479 8C22.8567 8 22.1343 8.72244 22.1343 9.61361C22.1343 10.5048 22.8567 11.2272 23.7479 11.2272Z" fill="white"/>
<path d="M4.82481 15.7383C8.13192 19.0454 12.6173 20.9033 17.2943 20.9033C21.9713 20.9033 26.4567 19.0454 29.7638 15.7383L31.5886 17.5631C27.7975 21.3541 22.6557 23.4839 17.2943 23.4839C11.9329 23.4839 6.79109 21.3541 3 17.5631L4.82481 15.7383Z" fill="white"/>
<path d="M46.9717 10.5826C48.3745 10.5826 49.5584 11.4664 49.5584 12.5165H52.1329C52.1329 10.0272 49.8179 8 46.9717 8C44.1256 8 41.8105 10.0272 41.8105 12.5165C41.8105 15.4275 44.0769 16.1654 45.727 16.6884C45.9946 16.7735 46.2744 16.8627 46.5379 16.96C46.7721 17.0465 47.0736 17.1426 47.3427 17.2283L47.442 17.26C49.2948 17.856 49.5543 18.0709 49.5543 18.9669C49.5543 20.017 48.3705 20.9049 46.9677 20.9049C45.5649 20.9049 44.385 20.017 44.385 18.9669H41.8105C41.8105 21.4603 44.1256 23.4834 46.9717 23.4834C49.8179 23.4834 52.1329 21.4562 52.1329 18.9669C52.1329 16.06 49.8787 15.318 48.2367 14.8031L48.1216 14.7659C47.8833 14.689 47.6423 14.6112 47.4015 14.5274C47.1217 14.4301 46.8014 14.3247 46.5176 14.2315C44.6648 13.6355 44.3891 13.4206 44.3891 12.5165C44.3891 11.4664 45.573 10.5826 46.9717 10.5826Z" fill="white"/>
<path d="M87.2944 8H89.877V23.4834H87.2944V8Z" fill="white"/>
<path d="M67.7958 12.8679C68.3529 12.6347 68.951 12.5153 69.5549 12.5168C70.7521 12.5189 71.8996 12.9955 72.7462 13.842C73.5927 14.6886 74.0693 15.8361 74.0714 17.0333V23.4837H71.4888V17.0333C71.4888 16.5204 71.285 16.0285 70.9224 15.6658C70.5597 15.3031 70.0678 15.0994 69.5549 15.0994C69.042 15.0994 68.5501 15.3031 68.1874 15.6658C67.8247 16.0285 67.621 16.5204 67.621 17.0333V23.4837H65.0383V17.0333C65.0155 16.5352 64.8016 16.065 64.4411 15.7206C64.0805 15.3762 63.601 15.184 63.1024 15.184C62.6038 15.184 62.1243 15.3762 61.7637 15.7206C61.4032 16.065 61.1893 16.5352 61.1665 17.0333V23.4837H58.5879V12.5168H60.5056L60.6799 13.2141C61.5522 12.6624 62.5876 12.427 63.6127 12.5473C64.6378 12.6676 65.5905 13.1363 66.3114 13.875C66.734 13.4436 67.2388 13.1012 67.7958 12.8679Z" fill="white"/>
<path d="M56.6539 12.5166H54.0713V23.4835H56.6539V12.5166Z" fill="white"/>
<path fill-rule="evenodd" clip-rule="evenodd" d="M77.5704 13.6072C78.5149 12.8974 79.6649 12.5146 80.8464 12.5166V12.5369C81.5958 12.4869 82.3475 12.5913 83.055 12.8438C83.7624 13.0962 84.4105 13.4912 84.959 14.0044C85.5075 14.5175 85.9448 15.1378 86.2438 15.8269C86.5427 16.516 86.697 17.2591 86.697 18.0102C86.697 18.7613 86.5427 19.5044 86.2438 20.1935C85.9448 20.8825 85.5075 21.5029 84.959 22.016C84.4105 22.5292 83.7624 22.9242 83.055 23.1766C82.3475 23.429 81.5958 23.5335 80.8464 23.4835C79.8191 23.4858 78.8124 23.1961 77.9435 22.6483V28H75.3608V12.5166H77.2988L77.5704 13.6072ZM79.2336 20.4157C79.711 20.7347 80.2722 20.905 80.8464 20.905C81.6159 20.9039 82.3537 20.5977 82.8978 20.0535C83.442 19.5094 83.7482 18.7716 83.7493 18.0021C83.7493 17.4279 83.579 16.8667 83.26 16.3893C82.9411 15.912 82.4877 15.5399 81.9572 15.3202C81.4268 15.1005 80.8431 15.043 80.28 15.155C79.7169 15.267 79.1997 15.5435 78.7937 15.9494C78.3877 16.3554 78.1112 16.8727 77.9992 17.4358C77.8872 17.9989 77.9447 18.5825 78.1644 19.113C78.3841 19.6434 78.7562 20.0968 79.2336 20.4157Z" fill="white"/>
<path fill-rule="evenodd" clip-rule="evenodd" d="M93.6101 18.9672C93.7635 19.4051 94.0199 19.7997 94.3577 20.1178C94.6955 20.4359 95.1048 20.6681 95.5512 20.7949C95.9975 20.9216 96.4678 20.9393 96.9223 20.8463C97.3769 20.7533 97.8025 20.5524 98.1632 20.2605H101.326C100.768 21.4936 99.7744 22.477 98.5355 23.0213C97.2966 23.5656 95.9001 23.6325 94.6149 23.2089C93.3297 22.7854 92.2466 21.9014 91.574 20.7271C90.9015 19.5529 90.6871 18.1713 90.9721 16.8485C91.2571 15.5256 92.0213 14.355 93.1177 13.5618C94.2141 12.7686 95.5652 12.4091 96.9108 12.5523C98.2564 12.6955 99.5015 13.3314 100.406 14.3376C101.311 15.3438 101.812 16.6491 101.812 18.0023C101.811 18.326 101.781 18.6489 101.723 18.9672H93.6101ZM94.653 15.6296C94.1631 15.9766 93.7931 16.467 93.5939 17.0333H99.0632C98.8641 16.467 98.494 15.9766 98.0042 15.6296C97.5143 15.2826 96.9288 15.0963 96.3286 15.0963C95.7283 15.0963 95.1428 15.2826 94.653 15.6296Z" fill="white"/>
<path d="M55.3578 11.2272C56.2489 11.2272 56.9714 10.5048 56.9714 9.61361C56.9714 8.72244 56.2489 8 55.3578 8C54.4666 8 53.7441 8.72244 53.7441 9.61361C53.7441 10.5048 54.4666 11.2272 55.3578 11.2272Z" fill="white"/>
</svg>
