<svg width="320" height="320" viewBox="0 0 320 320" fill="none" xmlns="http://www.w3.org/2000/svg">
    <defs>
        <radialGradient id="paint0_radial_3627_57583" cx="0" cy="0" r="1" gradientUnits="userSpaceOnUse"
            gradientTransform="translate(40 50) rotate(43.9584) scale(388.973 290.997)">
            <stop stop-color="#D990B4" />
            <stop offset="0.338542" stop-color="#D5C3D9" />
            <stop offset="0.661458" stop-color="#BAD5F9" />
            <stop offset="1" stop-color="#FFEBFB" />
        </radialGradient>
        <radialGradient id="paint1_radial_3627_57583" cx="0" cy="0" r="1" gradientUnits="userSpaceOnUse"
            gradientTransform="translate(40 65.75) rotate(43.9584) scale(340.351 254.622)">
            <stop stop-color="#D990B4" />
            <stop offset="0.338542" stop-color="#D5C3D9" />
            <stop offset="0.661458" stop-color="#BAD5F9" />
            <stop offset="1" stop-color="#FFEBFB" />
        </radialGradient>
        <radialGradient id="paint2_radial_3627_57583" cx="0" cy="0" r="1" gradientUnits="userSpaceOnUse"
            gradientTransform="translate(69 78.5) rotate(43.9584) scale(291.73 218.247)">
            <stop stop-color="#D990B4" />
            <stop offset="0.338542" stop-color="#D5C3D9" />
            <stop offset="0.661458" stop-color="#BAD5F9" />
            <stop offset="1" stop-color="#FFEBFB" />
        </radialGradient>
        <radialGradient id="paint3_radial_3627_57583" cx="0" cy="0" r="1" gradientUnits="userSpaceOnUse"
            gradientTransform="translate(70 91.25) rotate(43.9584) scale(243.108 181.873)">
            <stop stop-color="#D990B4" />
            <stop offset="0.338542" stop-color="#D5C3D9" />
            <stop offset="0.661458" stop-color="#BAD5F9" />
            <stop offset="1" stop-color="#FFEBFB" />
        </radialGradient>
        <radialGradient id="paint4_radial_3627_57583" cx="0" cy="0" r="1" gradientUnits="userSpaceOnUse"
            gradientTransform="translate(99 107) rotate(43.9584) scale(194.487 145.498)">
            <stop stop-color="#D990B4" />
            <stop offset="0.338542" stop-color="#D5C3D9" />
            <stop offset="0.661458" stop-color="#BAD5F9" />
            <stop offset="1" stop-color="#FFEBFB" />
        </radialGradient>
    </defs>
    <circle opacity="0.5" cx="160" cy="160" r="160" fill="url(#paint0_radial_3627_57583)" fill-opacity="0.5" />
    <circle opacity="0.5" cx="145" cy="162" r="140" fill="url(#paint1_radial_3627_57583)" fill-opacity="0.5" />
    <circle opacity="0.75" cx="159" cy="161" r="120" fill="url(#paint2_radial_3627_57583)" fill-opacity="0.5" />
    <circle cx="145" cy="160" r="100" fill="url(#paint3_radial_3627_57583)" fill-opacity="0.5" />
    <circle cx="159" cy="162" r="80" transform="rotate(-90 159 162)" fill="url(#paint4_radial_3627_57583)" />
    <path
        d="M157.098 125.854C157.697 124.011 160.303 124.011 160.902 125.854L167.532 146.257C167.799 147.081 168.567 147.639 169.434 147.639H190.887C192.824 147.639 193.63 150.119 192.062 151.257L174.706 163.867C174.005 164.377 173.712 165.279 173.98 166.103L180.609 186.507C181.208 188.349 179.099 189.881 177.532 188.743L160.176 176.133C159.475 175.623 158.525 175.623 157.824 176.133L140.468 188.743C138.901 189.881 136.792 188.349 137.391 186.507L144.02 166.103C144.288 165.279 143.995 164.377 143.294 163.867L125.938 151.257C124.37 150.119 125.176 147.639 127.113 147.639H148.566C149.433 147.639 150.201 147.081 150.468 146.257L157.098 125.854Z"
        fill="white" />
</svg>
