<svg width="36" height="36" viewBox="0 0 36 36" fill="none" xmlns="http://www.w3.org/2000/svg">
<g opacity="0.8">
<path d="M2.48899 24C2.11425 23.0404 1.82675 22.0372 1.63623 21M33.2393 24C33.9656 22.1404 34.3642 20.1168 34.3642 18C34.3642 8.8873 26.9769 1.5 17.8642 1.5C9.77596 1.5 3.047 7.31965 1.63623 15" stroke="black" stroke-width="3" stroke-linecap="round"/>
<path d="M6.86426 30.5V18C6.86426 16.1996 7.29682 14.5001 8.06368 13M28.8643 30.5V18C28.8643 11.9249 23.9394 7 17.8643 7C15.4326 7 13.1853 7.789 11.3643 9.12496" stroke="black" stroke-width="3" stroke-linecap="round"/>
<path d="M23.3643 18C23.3643 14.9624 20.9018 12.5 17.8643 12.5C14.8267 12.5 12.3643 14.9624 12.3643 18V33" stroke="black" stroke-width="3" stroke-linecap="round"/>
<path d="M17.8643 18V28.5" stroke="black" stroke-width="3" stroke-linecap="round"/>
<path d="M23.3643 22.5V33" stroke="black" stroke-width="3" stroke-linecap="round"/>
<path d="M17.8643 33.5V34.5" stroke="black" stroke-width="3" stroke-linecap="round"/>
</g>
</svg>
