<svg width="24" height="24" viewBox="0 0 24 24" fill="none" xmlns="http://www.w3.org/2000/svg">
<path fill-rule="evenodd" clip-rule="evenodd" d="M12 24C18.6274 24 24 18.6274 24 12C24 5.37258 18.6274 0 12 0C5.37258 0 0 5.37258 0 12C0 18.6274 5.37258 24 12 24ZM11.9998 4.69568L12.3883 5.89141H13.6455L12.6284 6.6304L13.0169 7.82613L11.9998 7.0871L10.9826 7.82613L11.3711 6.6304L10.354 5.89141H11.6112L11.9998 4.69568ZM7.9553 7.40584L6.83499 6.83509L7.40583 7.95541L6.51685 8.84439L7.75856 8.64766L8.32936 9.76792L8.52605 8.52611L9.76781 8.32942L8.64755 7.75863L8.84428 6.51691L7.9553 7.40584ZM4.6958 12L5.89153 11.6115V10.3542L6.63047 11.3714L7.82625 10.9829L7.08718 12L7.82625 13.0172L6.63047 12.6287L5.89153 13.6458V12.3886L4.6958 12ZM7.40578 16.0447L6.83499 17.165L7.9553 16.5942L8.84428 17.4832L8.64764 16.2415L9.76777 15.6707L8.52605 15.474L8.32931 14.2322L7.75861 15.3525L6.51685 15.1557L7.40578 16.0447ZM11.9998 19.3044L11.6112 18.1086H10.354L11.3712 17.3697L10.9826 16.174L11.9998 16.9129L13.0169 16.174L12.6284 17.3697L13.6455 18.1086H12.3883L11.9998 19.3044ZM16.0444 16.5943L17.1647 17.165L16.5938 16.0448L17.4828 15.1557L16.2411 15.3525L15.6703 14.2322L15.4737 15.474L14.2319 15.6707L15.3521 16.2414L15.1554 17.4833L16.0444 16.5943ZM19.3047 12L18.1089 12.3886V13.6458L17.37 12.6286L16.1743 13.0172L16.9133 12L16.1743 10.9829L17.37 11.3714L18.1089 10.3542V11.6115L19.3047 12ZM16.5939 7.95536L17.1647 6.83505L16.0444 7.40584L15.1554 6.51691L15.3521 7.75858L14.2319 8.32933L15.4737 8.52606L15.6703 9.76783L16.241 8.64756L17.4829 8.84435L16.5939 7.95536Z" fill="black"/>
</svg>
