<svg width="24" height="24" viewBox="0 0 24 24" fill="none" xmlns="http://www.w3.org/2000/svg">
<path fill-rule="evenodd" clip-rule="evenodd" d="M12 0.5C7.02944 0.5 3 4.52944 3 9.5C3 12.1655 4.15875 14.5604 6 16.2083V23L11.747 21.0843C11.8409 21.053 11.8878 21.0374 11.9358 21.0312C11.9784 21.0257 12.0216 21.0257 12.0642 21.0312C12.1122 21.0374 12.1591 21.053 12.253 21.0843L18 23V16.2083C19.8412 14.5604 21 12.1655 21 9.5C21 4.52944 16.9706 0.5 12 0.5ZM6 9.5C6 6.18629 8.68629 3.5 12 3.5C15.3137 3.5 18 6.18629 18 9.5C18 12.8137 15.3137 15.5 12 15.5C8.68629 15.5 6 12.8137 6 9.5Z" fill="black"/>
</svg>
