<svg width="24" height="24" viewBox="0 0 24 24" fill="none" xmlns="http://www.w3.org/2000/svg">
<circle cx="12" cy="12" r="12" fill="#777C85"/>
<circle cx="12" cy="12" r="11.5" stroke="black" stroke-opacity="0.1"/>
<path d="M10.4149 6.4684L9.51607 6.90677C8.4405 7.43136 7.55861 8.28299 6.9968 9.33959C6.43499 10.3962 6.22211 11.6035 6.38865 12.7886L6.52783 13.7788L4.54729 14.0572L4.40812 13.0669C4.18279 11.4636 4.47081 9.83018 5.23091 8.40065C5.991 6.97112 7.18414 5.81892 8.63933 5.10918L9.53812 4.67081L10.4149 6.4684Z" fill="white"/>
<path d="M15.3609 5.10922L14.4621 4.67085L13.5854 6.46844L14.4842 6.90681C15.5597 7.4314 16.4416 8.28303 17.0034 9.33963C17.5652 10.3962 17.7781 11.6036 17.6116 12.7886L17.4724 13.7789L19.4529 14.0572L19.5921 13.067C19.8174 11.4637 19.5294 9.83022 18.7693 8.40069C18.0092 6.97116 16.8161 5.81896 15.3609 5.10922Z" fill="white"/>
<path d="M8.66932 16.5844L7.8603 15.9967L6.68473 17.6147L7.49375 18.2025C8.80358 19.1541 10.3811 19.6667 12.0001 19.6667C13.6191 19.6667 15.1966 19.1541 16.5065 18.2025L17.3155 17.6147L16.1399 15.9967L15.3309 16.5844C14.3628 17.2878 13.1968 17.6667 12.0001 17.6667C10.8034 17.6667 9.63746 17.2878 8.66932 16.5844Z" fill="white"/>
<path fill-rule="evenodd" clip-rule="evenodd" d="M16.9143 12L12.0001 7.08576L7.08586 12L12.0001 16.9142L16.9143 12ZM12.0001 14.0858L9.91428 12L12.0001 9.91419L14.0859 12L12.0001 14.0858Z" fill="white"/>
</svg>
