<svg width="24" height="24" viewBox="0 0 24 24" fill="none" xmlns="http://www.w3.org/2000/svg">
<g clip-path="url(#clip0_18_6328)">
<path d="M12 24C18.6274 24 24 18.6274 24 12C24 5.37258 18.6274 0 12 0C5.37258 0 0 5.37258 0 12C0 18.6274 5.37258 24 12 24Z" fill="#D80027"/>
<path d="M18.7826 8.90669H14.4361C14.7044 8.62572 14.8695 8.24533 14.8695 7.82613C14.8695 6.96171 14.1688 6.26093 13.3043 6.26093C12.7598 6.26093 12.2804 6.53918 12 6.9611C11.7196 6.53918 11.2402 6.26093 10.6957 6.26093C9.83123 6.26093 9.13045 6.96171 9.13045 7.82613C9.13045 8.24533 9.29559 8.62577 9.56391 8.90669H5.21742C5.21742 10.0593 6.22134 10.9936 7.37386 10.9936H7.3043C7.3043 12.1463 8.23866 13.0806 9.39131 13.0806C9.39131 13.4539 9.4897 13.8039 9.66145 14.1069L7.93036 15.838L9.25852 17.1661L11.1425 15.2822C11.2163 15.3092 11.2927 15.3309 11.3715 15.3457L10.233 17.9161L12 19.8261L13.767 17.916L12.6285 15.3456C12.7074 15.3308 12.7837 15.3092 12.8575 15.2821L14.7415 17.166L16.0696 15.8379L14.3385 14.1068C14.5103 13.8038 14.6087 13.4538 14.6087 13.0805C15.7613 13.0805 16.6957 12.1462 16.6957 10.9935H16.6261C17.7787 10.9936 18.7826 10.0593 18.7826 8.90669Z" fill="black"/>
</g>
<defs>
<clipPath id="clip0_18_6328">
<rect width="24" height="24" fill="white"/>
</clipPath>
</defs>
</svg>
