<svg width="24" height="24" viewBox="0 0 24 24" fill="none" xmlns="http://www.w3.org/2000/svg">
<g clip-path="url(#clip0_18_6295)">
<path d="M0 12C0 5.37262 5.37262 0 12 0C18.6274 0 24 5.37262 24 12C23.4783 12 12 13.5652 12 13.5652L0 12Z" fill="#D80027"/>
<path d="M24 12C24 18.6274 18.6274 24 12 24C5.37262 24 0 18.6274 0 12" fill="black"/>
<path d="M10.3546 9.54432L11.3719 10.2826L10.9842 11.4783L12.0007 10.7388L13.0181 11.4771L12.629 10.2818L13.6454 9.54236L12.3884 9.5431L11.9992 8.34784L11.6115 9.54353L10.3546 9.54432Z" fill="#FFDA44"/>
<path d="M15 6.80387C14.0544 6.25791 13.0205 6.00024 12 6.00202V7.5669C12.7543 7.56554 13.5184 7.75585 14.2174 8.15945C16.3351 9.38213 17.0633 12.0998 15.8406 14.2175C14.6179 16.3352 11.9003 17.0634 9.78257 15.8407C9.1656 15.4845 8.66756 15.0009 8.30043 14.4427L6.99374 15.3054C7.49048 16.0605 8.16529 16.7143 8.99999 17.1961C11.8652 18.8504 15.5419 17.8652 17.1961 15C18.8503 12.1348 17.8652 8.45809 15 6.80387Z" fill="#FFDA44"/>
<path d="M8.54016 10.9565C8.12531 11.7149 8.40385 12.6661 9.16219 13.0809L14.2457 15.8587C13.9 16.4907 14.0836 17.2598 14.7156 17.6055L16.0888 18.3567C16.7207 18.7024 17.5134 18.4703 17.8591 17.8384L18.6103 16.4652L8.54016 10.9565Z" fill="#FFDA44"/>
</g>
<defs>
<clipPath id="clip0_18_6295">
<rect width="24" height="24" fill="white"/>
</clipPath>
</defs>
</svg>
