<svg width="32" height="32" viewBox="0 0 32 32" fill="none" xmlns="http://www.w3.org/2000/svg">
<path d="M0 0H32V32H0V0Z" fill="#74ACDF"/>
<path d="M0 10.668H32V21.3305H0V10.668Z" fill="white"/>
<path d="M20.3684 15.9434L17.5871 15.8371C18.1121 15.8121 18.4371 15.4934 18.9309 15.5371C19.4746 15.5871 19.7746 15.2934 19.9871 15.2184C20.1996 15.1559 20.3184 15.2996 20.3496 15.2371C20.3809 15.1746 20.2121 15.0434 19.9121 15.0809C19.6184 15.1246 19.5309 15.3496 18.8684 15.2996C18.2621 15.2496 18.0809 15.5184 17.5996 15.4996L20.0434 14.3746C20.0434 14.3746 20.1184 14.3434 20.0996 14.2934C20.0746 14.2434 20.0059 14.2746 20.0059 14.2746L17.3934 15.2434C17.8684 15.0184 18.0434 14.6059 18.5246 14.4496C19.0496 14.2871 19.2121 13.8996 19.3809 13.7496C19.5496 13.6121 19.7184 13.6996 19.7246 13.6309C19.7309 13.5621 19.5246 13.5059 19.2621 13.6559C19.0059 13.8121 19.0121 14.0496 18.3809 14.2559C17.8059 14.4434 17.7371 14.7559 17.2871 14.9309L19.1184 12.9559C19.1184 12.9559 19.1746 12.8996 19.1371 12.8559C19.0934 12.8184 19.0434 12.8746 19.0434 12.8746L16.9996 14.7684C17.3559 14.3809 17.3559 13.9246 17.7371 13.6059C18.1559 13.2559 18.1621 12.8371 18.2559 12.6309C18.3621 12.4371 18.5496 12.4559 18.5246 12.3871C18.4996 12.3184 18.2934 12.3434 18.1059 12.5871C17.9309 12.8246 18.0246 13.0496 17.5246 13.4809C17.0621 13.8746 17.1246 14.1871 16.7684 14.5246L17.7059 11.9996C17.7059 11.9996 17.7371 11.9246 17.6871 11.8996C17.6309 11.8809 17.6059 11.9559 17.6059 11.9559L16.4434 14.4871C16.6184 13.9934 16.4496 13.5746 16.6809 13.1309C16.9371 12.6496 16.7809 12.2559 16.7871 12.0309C16.8059 11.8121 16.9934 11.7559 16.9434 11.6996C16.8934 11.6434 16.7121 11.7496 16.6371 12.0434C16.5684 12.3309 16.7371 12.4996 16.4371 13.0934C16.1621 13.6309 16.3371 13.8996 16.1371 14.3434L16.0371 11.6559C16.0371 11.6559 16.0371 11.5746 15.9809 11.5684C15.9246 11.5746 15.9246 11.6496 15.9246 11.6496L15.8184 14.4309C15.7934 13.9059 15.4746 13.5809 15.5184 13.0871C15.5684 12.5434 15.2746 12.2434 15.1996 12.0309C15.1371 11.8184 15.2809 11.6996 15.2184 11.6684C15.1559 11.6371 15.0246 11.8059 15.0621 12.1059C15.1059 12.3996 15.3309 12.4871 15.2809 13.1496C15.2309 13.7559 15.4996 13.9371 15.4809 14.4184L14.3559 11.9746C14.3559 11.9746 14.3246 11.8996 14.2746 11.9184C14.2246 11.9434 14.2559 12.0121 14.2559 12.0121L15.2246 14.6246C14.9996 14.1496 14.5871 13.9746 14.4309 13.4934C14.2684 12.9684 13.8809 12.8059 13.7309 12.6371C13.5934 12.4684 13.6809 12.2996 13.6121 12.2934C13.5434 12.2871 13.4871 12.4934 13.6371 12.7559C13.7934 13.0121 14.0309 13.0059 14.2371 13.6371C14.4246 14.2121 14.7371 14.2809 14.9121 14.7309L12.9559 12.8746C12.9559 12.8746 12.8996 12.8184 12.8559 12.8559C12.8184 12.8996 12.8746 12.9496 12.8746 12.9496L14.7684 14.9934C14.3809 14.6371 13.9246 14.6371 13.6059 14.2559C13.2559 13.8371 12.8371 13.8309 12.6309 13.7371C12.4371 13.6309 12.4559 13.4434 12.3871 13.4684C12.3184 13.4934 12.3434 13.6996 12.5871 13.8871C12.8246 14.0621 13.0496 13.9684 13.4809 14.4684C13.8746 14.9309 14.1871 14.8684 14.5246 15.2246L11.9996 14.2871C11.9996 14.2871 11.9246 14.2559 11.8996 14.3059C11.8809 14.3621 11.9559 14.3871 11.9559 14.3871L14.4871 15.5496C13.9934 15.3746 13.5746 15.5434 13.1309 15.3121C12.6496 15.0559 12.2559 15.2121 12.0309 15.2059C11.8121 15.1871 11.7559 14.9996 11.6996 15.0496C11.6434 15.0996 11.7496 15.2809 12.0434 15.3559C12.3309 15.4246 12.4996 15.2559 13.0934 15.5559C13.6309 15.8309 13.8996 15.6559 14.3434 15.8559L11.6559 15.9559C11.6559 15.9559 11.5746 15.9559 11.5684 16.0121C11.5746 16.0684 11.6496 16.0684 11.6496 16.0684L14.4309 16.1746C13.9059 16.1996 13.5809 16.5184 13.0871 16.4746C12.5434 16.4246 12.2434 16.7184 12.0309 16.7934C11.8184 16.8559 11.6996 16.7121 11.6684 16.7746C11.6371 16.8371 11.8059 16.9684 12.1059 16.9309C12.3996 16.8871 12.4871 16.6621 13.1496 16.7121C13.7559 16.7621 13.9371 16.4934 14.4184 16.5121L11.9746 17.6371C11.9746 17.6371 11.8996 17.6684 11.9184 17.7184C11.9434 17.7684 12.0121 17.7371 12.0121 17.7371L14.6246 16.7684C14.1496 16.9934 13.9746 17.4059 13.4934 17.5621C12.9684 17.7246 12.8059 18.1121 12.6371 18.2621C12.4684 18.3996 12.2996 18.3121 12.2934 18.3809C12.2871 18.4496 12.4934 18.5059 12.7559 18.3559C13.0121 18.1996 13.0059 17.9621 13.6371 17.7559C14.2121 17.5684 14.2809 17.2559 14.7309 17.0809L12.8746 19.0434C12.8746 19.0434 12.8184 19.0996 12.8559 19.1434C12.8996 19.1809 12.9496 19.1246 12.9496 19.1246L14.9934 17.2309C14.6371 17.6184 14.6371 18.0746 14.2559 18.3934C13.8371 18.7434 13.8309 19.1621 13.7371 19.3684C13.6309 19.5621 13.4434 19.5434 13.4684 19.6121C13.4934 19.6809 13.6996 19.6559 13.8871 19.4121C14.0621 19.1746 13.9684 18.9496 14.4684 18.5184C14.9309 18.1246 14.8684 17.8121 15.2246 17.4746L14.2871 19.9996C14.2871 19.9996 14.2559 20.0746 14.3059 20.0996C14.3621 20.1184 14.3871 20.0434 14.3871 20.0434L15.5496 17.5121C15.3746 18.0059 15.5434 18.4246 15.3121 18.8684C15.0559 19.3496 15.2121 19.7434 15.2059 19.9684C15.1871 20.1871 14.9996 20.2434 15.0496 20.2996C15.0996 20.3559 15.2809 20.2496 15.3559 19.9559C15.4246 19.6684 15.2559 19.4996 15.5559 18.9059C15.8309 18.3684 15.6559 18.0996 15.8559 17.6559L15.9559 20.3434C15.9559 20.3434 15.9559 20.4246 16.0121 20.4309C16.0684 20.4246 16.0684 20.3496 16.0684 20.3496L16.1746 17.5684C16.1996 18.0934 16.5184 18.4184 16.4746 18.9121C16.4246 19.4559 16.7184 19.7559 16.7934 19.9684C16.8559 20.1809 16.7121 20.2996 16.7746 20.3309C16.8371 20.3621 16.9684 20.1934 16.9309 19.8934C16.8871 19.5996 16.6621 19.5121 16.7121 18.8496C16.7621 18.2434 16.4934 18.0621 16.5121 17.5809L17.6371 20.0246C17.6371 20.0246 17.6684 20.0996 17.7184 20.0809C17.7684 20.0559 17.7371 19.9871 17.7371 19.9871L16.7684 17.3746C16.9934 17.8496 17.4059 18.0246 17.5621 18.5059C17.7246 19.0309 18.1121 19.1934 18.2621 19.3621C18.3996 19.5309 18.3121 19.6996 18.3809 19.7059C18.4496 19.7121 18.5059 19.5059 18.3559 19.2434C18.1996 18.9871 17.9621 18.9934 17.7559 18.3621C17.5684 17.7871 17.2559 17.7184 17.0809 17.2684L19.0559 19.0996C19.0559 19.0996 19.1121 19.1559 19.1559 19.1184C19.1934 19.0746 19.1371 19.0246 19.1371 19.0246L17.2434 16.9809C17.6309 17.3371 18.0871 17.3371 18.4059 17.7184C18.7559 18.1371 19.1746 18.1434 19.3809 18.2371C19.5746 18.3434 19.5559 18.5309 19.6246 18.5059C19.6934 18.4809 19.6684 18.2746 19.4246 18.0871C19.1871 17.9121 18.9621 18.0059 18.5309 17.5059C18.1371 17.0434 17.8246 17.1059 17.4871 16.7496L20.0121 17.6871C20.0121 17.6871 20.0871 17.7184 20.1121 17.6684C20.1309 17.6121 20.0559 17.5871 20.0559 17.5871L17.5246 16.4246C18.0184 16.5996 18.4371 16.4309 18.8809 16.6621C19.3621 16.9184 19.7559 16.7621 19.9809 16.7684C20.1996 16.7871 20.2559 16.9746 20.3121 16.9246C20.3684 16.8746 20.2621 16.6934 19.9684 16.6184C19.6809 16.5496 19.5121 16.7184 18.9184 16.4184C18.3809 16.1434 18.1121 16.3184 17.6684 16.1184L20.3559 16.0184C20.3559 16.0184 20.4371 16.0184 20.4434 15.9621C20.4434 15.9434 20.3684 15.9434 20.3684 15.9434ZM17.4559 15.8371L16.9309 15.8184L17.4621 15.5746L17.4559 15.8371ZM17.2871 15.2871L16.7934 15.4684L17.1934 15.0371L17.2871 15.2871ZM16.9121 14.8496L16.5246 15.2059L16.7309 14.6559L16.9121 14.8496ZM16.4059 14.5871L16.1871 15.0684L16.1621 14.4809L16.4059 14.5871ZM15.8371 14.5434L15.8184 15.0684L15.5746 14.5371L15.8371 14.5434ZM15.2871 14.7121L15.4684 15.2059L15.0371 14.8059L15.2871 14.7121ZM14.8496 15.0871L15.2059 15.4746L14.6559 15.2684L14.8496 15.0871ZM14.5871 15.5934L15.0684 15.8121L14.4809 15.8371L14.5871 15.5934ZM14.5434 16.1621L15.0684 16.1809L14.5371 16.4246L14.5434 16.1621ZM14.7121 16.7121L15.2059 16.5309L14.8059 16.9621L14.7121 16.7121ZM15.0871 17.1496L15.4746 16.7934L15.2684 17.3434L15.0871 17.1496ZM15.5934 17.4121L15.8121 16.9309L15.8371 17.5184L15.5934 17.4121ZM16.1621 17.4559L16.1809 16.9309L16.4246 17.4621L16.1621 17.4559ZM16.7121 17.2871L16.5309 16.7934L16.9621 17.1934L16.7121 17.2871ZM17.1496 16.9121L16.7934 16.5246L17.3434 16.7309L17.1496 16.9121ZM17.4121 16.4059L16.9309 16.1871L17.5184 16.1621L17.4121 16.4059Z" fill="#85340A"/>
<path d="M15.9996 17.7746C16.9799 17.7746 17.7746 16.9799 17.7746 15.9996C17.7746 15.0193 16.9799 14.2246 15.9996 14.2246C15.0193 14.2246 14.2246 15.0193 14.2246 15.9996C14.2246 16.9799 15.0193 17.7746 15.9996 17.7746Z" fill="#F6B40E"/>
<path fill-rule="evenodd" clip-rule="evenodd" d="M15.9996 14.2715C15.0452 14.2715 14.2715 15.0452 14.2715 15.9996C14.2715 16.954 15.0452 17.7277 15.9996 17.7277C16.954 17.7277 17.7277 16.954 17.7277 15.9996C17.7277 15.0452 16.954 14.2715 15.9996 14.2715ZM14.1777 15.9996C14.1777 14.9934 14.9934 14.1777 15.9996 14.1777C17.0058 14.1777 17.8215 14.9934 17.8215 15.9996C17.8215 17.0058 17.0058 17.8215 15.9996 17.8215C14.9934 17.8215 14.1777 17.0058 14.1777 15.9996Z" fill="#85340A"/>
<path d="M16.6317 15.5371C16.4567 15.5371 16.413 15.5746 16.3317 15.6434C16.2505 15.7121 16.2067 15.6996 16.1942 15.7121C16.1817 15.7246 16.1942 15.7684 16.2255 15.7559C16.2505 15.7371 16.3005 15.7121 16.388 15.6434C16.4692 15.5809 16.5505 15.5809 16.638 15.5809C16.8755 15.5809 17.013 15.7809 17.0442 15.7684C17.0692 15.7559 16.9067 15.5371 16.6317 15.5371Z" fill="#85340A"/>
<path d="M16.1137 15.4803C16.0949 15.5303 16.0824 15.5803 16.0699 15.6366C16.0324 15.8366 16.0762 16.0491 16.1762 16.2616C16.1949 16.2428 16.2199 16.2366 16.2387 16.2366C16.1137 16.0616 16.0637 15.8928 16.0949 15.7366C16.1074 15.6553 16.1449 15.5741 16.1949 15.5053C16.4137 15.3053 16.8137 15.3428 17.1262 15.6178C16.8262 15.2053 16.4137 15.2303 16.1137 15.4803Z" fill="#85340A"/>
<path d="M16.6008 15.8797C16.6133 15.8797 16.6195 15.8797 16.632 15.8734C16.7383 15.8672 16.8508 15.8359 16.9445 15.7672C16.857 15.6734 16.7383 15.6172 16.607 15.6172V15.6234C16.482 15.6234 16.3695 15.6734 16.3008 15.7797C16.3633 15.8359 16.4633 15.8734 16.5695 15.8734C16.582 15.8797 16.5883 15.8797 16.6008 15.8797ZM16.8508 15.7547C16.8008 15.8109 16.7383 15.8422 16.6695 15.8609C16.7008 15.8359 16.7258 15.7984 16.7258 15.7547C16.7258 15.7109 16.707 15.6797 16.6758 15.6547C16.7633 15.6672 16.8383 15.7109 16.8508 15.7547ZM16.357 15.7797C16.3945 15.7172 16.457 15.6797 16.5195 15.6609C16.4945 15.6859 16.4758 15.7172 16.4758 15.7547C16.4758 15.7984 16.5008 15.8359 16.532 15.8609C16.4695 15.8484 16.407 15.8234 16.357 15.7797Z" fill="#85340A"/>
<path d="M16.9574 15.8359L16.9512 15.8422C16.9574 15.8422 16.9574 15.8359 16.9637 15.8359H16.9574Z" fill="#85340A"/>
<path d="M16.4138 15.8859C16.3075 15.8359 16.2763 15.8047 16.2513 15.8047C16.22 15.8047 16.22 15.8359 16.3575 15.9172C16.495 15.9984 16.72 16.0109 16.9513 15.8422C16.6825 15.9484 16.5263 15.9484 16.4138 15.8859Z" fill="#85340A"/>
<path d="M16.0012 16.6926C16.0574 16.6926 16.1387 16.6238 16.2324 16.6801C16.3262 16.7363 16.3824 16.7863 16.4512 16.8176C16.3262 16.7301 16.2762 16.6113 16.1387 16.6113C16.0887 16.6176 16.0449 16.6301 16.0012 16.6488C15.9574 16.6301 15.9137 16.6176 15.8637 16.6113H15.8574C15.7324 16.6113 15.6699 16.7301 15.5512 16.8113L15.5449 16.8176C15.5512 16.8176 15.5512 16.8113 15.5574 16.8113C15.5699 16.8113 15.5824 16.8176 15.5887 16.8176C15.8199 16.8613 15.7074 17.0051 16.0012 17.0051C16.3012 17.0051 16.1637 16.8426 16.4512 16.8176C16.1512 16.7863 16.2449 16.9676 16.0012 16.9676C15.7762 16.9676 15.8324 16.8176 15.6137 16.8113C15.8387 16.7613 15.8949 16.8426 16.0012 16.8426C16.1137 16.8426 16.1637 16.7613 16.4137 16.8113C16.1387 16.7363 16.0824 16.7863 16.0012 16.7863C15.9449 16.7863 15.9074 16.7676 15.8137 16.7676V16.7738C15.7449 16.7801 15.6762 16.7926 15.6137 16.8113C15.6074 16.8113 15.6074 16.8113 15.6012 16.8113H15.5574C15.6262 16.7801 15.6762 16.7301 15.7699 16.6801C15.8637 16.6238 15.9449 16.6926 16.0012 16.6926Z" fill="#85340A"/>
<path d="M16.263 16.4063C16.2192 16.4063 16.1817 16.3688 16.1817 16.325C16.1505 16.3938 16.0817 16.4313 16.0067 16.4375C15.9317 16.4313 15.8692 16.3875 15.838 16.325C15.838 16.3688 15.8005 16.4063 15.7567 16.4063C15.713 16.4063 15.6755 16.3688 15.6755 16.325C15.6755 16.2938 15.688 16.275 15.7067 16.2563C15.6505 16.275 15.613 16.3313 15.6255 16.3938C15.638 16.4625 15.7005 16.5125 15.7692 16.5C15.8067 16.4938 15.838 16.475 15.8567 16.4375C15.9005 16.475 15.963 16.475 16.0005 16.475H16.0192C16.0692 16.475 16.1192 16.4625 16.163 16.4375C16.2005 16.5 16.2755 16.5188 16.3317 16.4813C16.3942 16.4438 16.413 16.3688 16.3755 16.3125C16.3567 16.2813 16.3255 16.2563 16.288 16.25C16.3192 16.2563 16.3442 16.2875 16.3442 16.325C16.3442 16.3688 16.3067 16.4063 16.263 16.4063Z" fill="#85340A"/>
<path d="M15.7258 16.2422C15.7195 16.2484 15.7133 16.2484 15.707 16.2547C15.7195 16.2484 15.7258 16.2484 15.7258 16.2422Z" fill="#85340A"/>
<path d="M16.2504 17.2555C16.2504 17.2492 16.2441 17.2367 16.2441 17.2305C16.2441 17.2367 16.2441 17.2492 16.2504 17.2555Z" fill="#85340A"/>
<path d="M15.75 17.2559C15.7812 17.1434 15.8813 17.0621 16 17.0684C16.1063 17.0621 16.2062 17.1309 16.2437 17.2309C16.2312 17.1059 16.1312 17.0059 16 17.0059C15.8625 17.0059 15.75 17.1184 15.75 17.2559Z" fill="#85340A"/>
<path d="M15.8258 15.5053C15.8758 15.5741 15.9133 15.6553 15.9258 15.7366C15.957 15.8928 15.907 16.0616 15.782 16.2366C15.8008 16.2366 15.8258 16.2428 15.8445 16.2616C15.9445 16.0491 15.9883 15.8366 15.9508 15.6366C15.9383 15.5803 15.9258 15.5303 15.907 15.4803C15.607 15.2303 15.1945 15.2053 14.8945 15.6178C15.207 15.3428 15.607 15.3053 15.8258 15.5053Z" fill="#85340A"/>
<path d="M15.6314 15.6434C15.7189 15.7121 15.7689 15.7371 15.7939 15.7559C15.8252 15.7684 15.8377 15.7246 15.8252 15.7121C15.8127 15.6996 15.7689 15.7121 15.6877 15.6434C15.6064 15.5746 15.5627 15.5371 15.3877 15.5371C15.1127 15.5371 14.9502 15.7559 14.9752 15.7684C15.0064 15.7809 15.1439 15.5809 15.3814 15.5809C15.4689 15.5809 15.5502 15.5809 15.6314 15.6434Z" fill="#85340A"/>
<path d="M15.3824 15.6235C15.2574 15.6235 15.1449 15.6735 15.0762 15.7798C15.1449 15.8423 15.2512 15.8735 15.3699 15.8735C15.3762 15.8735 15.3887 15.8798 15.3949 15.8798C15.4074 15.8798 15.4199 15.8798 15.4324 15.8735C15.5324 15.861 15.6324 15.8298 15.7199 15.7673C15.6324 15.6735 15.5137 15.6173 15.3824 15.6235ZM15.1324 15.7798C15.1762 15.711 15.2449 15.6673 15.3199 15.6548C15.2887 15.6798 15.2699 15.7173 15.2699 15.7548C15.2699 15.7985 15.2949 15.8423 15.3324 15.861C15.2637 15.8548 15.1887 15.8235 15.1324 15.7798ZM15.6262 15.7548C15.5824 15.8048 15.5324 15.836 15.4762 15.8485C15.5012 15.8235 15.5199 15.7923 15.5199 15.7548C15.5199 15.7173 15.5012 15.6798 15.4762 15.661C15.5512 15.6735 15.6137 15.711 15.6262 15.7548Z" fill="#85340A"/>
<path d="M15.6641 15.9172C15.8016 15.8359 15.8016 15.8047 15.7703 15.8047C15.7453 15.8047 15.7141 15.8359 15.6078 15.8859C15.4953 15.9484 15.3391 15.9484 15.0703 15.8422C15.3016 16.0109 15.5266 15.9984 15.6641 15.9172Z" fill="#85340A"/>
<path d="M15.0566 15.8359C15.0629 15.8359 15.0629 15.8422 15.0691 15.8422C15.0691 15.8422 15.0629 15.8359 15.0566 15.8359Z" fill="#85340A"/>
</svg>
