<svg width="24" height="24" viewBox="0 0 24 24" fill="none" xmlns="http://www.w3.org/2000/svg">
<g clip-path="url(#clip0_18_6232)">
<path d="M24 12C24 18.6274 18.6274 24 12 24C5.37262 24 0 18.6274 0 12C0 12.0028 12 0.00135937 12 0C18.6274 0 24 5.37262 24 12Z" fill="#0052B4"/>
<path d="M12 0C11.9993 0 11.9986 4.6875e-05 11.998 4.6875e-05L12 0Z" fill="#F0F0F0"/>
<path d="M11.9679 12H12C12 11.9891 12 11.9787 12 11.9679C11.9893 11.9786 11.9786 11.9893 11.9679 12Z" fill="#F0F0F0"/>
<path d="M12 6.26092C12 4.14944 12 2.76583 12 6.10352e-05H11.998C5.3715 0.00113916 0 5.37325 0 12H6.26086V8.47445L9.78642 12H11.9679C11.9787 11.9893 11.9894 11.9786 12 11.9679C12 11.1595 12 10.4381 12 9.78653L8.47444 6.26092H12Z" fill="#F0F0F0"/>
<path d="M6.07103 1.56519C4.1942 2.63389 2.63392 4.19417 1.56522 6.071V12H4.69567V4.69569V4.69564H12C12 3.70831 12 2.76772 12 1.56519H6.07103Z" fill="#D80027"/>
<path d="M12 10.5243L7.7366 6.26095H6.26093C6.26093 6.2609 6.26093 6.26095 6.26093 6.26095L12 12H12C12 12 12 10.9826 12 10.5243Z" fill="#D80027"/>
<path d="M7.23726 14.0869L7.89585 15.464L9.38306 15.1203L8.71706 16.4938L9.91302 17.4422L8.42395 17.7779L8.42812 19.3043L7.23726 18.3493L6.04645 19.3043L6.05062 17.7779L4.56149 17.4422L5.75751 16.4938L5.09141 15.1203L6.57871 15.464L7.23726 14.0869Z" fill="#F0F0F0"/>
<path d="M17.9664 16.6956L18.2957 17.3842L19.0394 17.2123L18.7063 17.899L19.3043 18.3733L18.5598 18.5411L18.5618 19.3043L17.9664 18.8268L17.371 19.3043L17.3731 18.5411L16.6286 18.3733L17.2266 17.899L16.8936 17.2123L17.6371 17.3842L17.9664 16.6956Z" fill="#F0F0F0"/>
<path d="M14.9031 9.3913L15.2323 10.0799L15.976 9.90795L15.643 10.5947L16.241 11.069L15.4964 11.2368L15.4985 12L14.9031 11.5225L14.3077 12L14.3097 11.2368L13.5652 11.069L14.1632 10.5947L13.8302 9.90795L14.5738 10.0799L14.9031 9.3913Z" fill="#F0F0F0"/>
<path d="M17.9664 5.21735L18.2957 5.90594L19.0394 5.73405L18.7064 6.42081L19.3043 6.895L18.5598 7.06286L18.5618 7.82608L17.9664 7.34857L17.371 7.82608L17.3731 7.06286L16.6286 6.895L17.2265 6.42081L16.8936 5.73405L17.6371 5.90594L17.9664 5.21735Z" fill="#F0F0F0"/>
<path d="M20.6422 8.34778L20.9715 9.03637L21.7151 8.86443L21.3821 9.5512L21.9801 10.0254L21.2355 10.1933L21.2376 10.9565L20.6422 10.479L20.0468 10.9565L20.0488 10.1933L19.3043 10.0254L19.9023 9.5512L19.5693 8.86443L20.3129 9.03637L20.6422 8.34778Z" fill="#F0F0F0"/>
<path d="M18.7289 12L18.9879 12.7972H19.8261L19.1479 13.2899L19.407 14.087L18.7289 13.5943L18.0508 14.087L18.3098 13.2899L17.6317 12.7972H18.4699L18.7289 12Z" fill="#F0F0F0"/>
</g>
<defs>
<clipPath id="clip0_18_6232">
<rect width="24" height="24" fill="white"/>
</clipPath>
</defs>
</svg>
