<svg width="512" height="512" viewBox="0 0 512 512" fill="none" xmlns="http://www.w3.org/2000/svg">
<g clip-path="url(#clip0_7463_134200)">
<path d="M0 0V512H768V0H0Z" fill="#3399CC"/>
<path d="M0 341.301V369.801H768V341.301H0ZM0 398.301V426.701H768V398.201H0V398.301Z" fill="#FFFF00"/>
<path d="M121.999 28L124.399 30.5L122.099 28.1L121.999 28ZM119.699 32.8L122.099 35.2L119.699 32.8ZM124.399 32.8L126.799 35.2L124.499 32.8H124.399Z" fill="#99CCCC"/>
<path d="M119.699 35.1992L122.099 37.5992L119.699 35.1992ZM124.399 35.1992L126.799 37.5992L124.499 35.1992H124.399Z" fill="#CCCCFF"/>
<path d="M117.301 40L119.701 42.3L117.301 40Z" fill="#66CCCC"/>
<path d="M122 40L124.4 42.3L122.1 40H122Z" fill="#CC6666"/>
<path d="M126.801 40L129.201 42.3L126.801 40V40Z" fill="#66CCCC"/>
<path d="M117.301 42.4004L119.701 44.7004L117.301 42.4004ZM126.801 42.4004L129.201 44.7004L126.801 42.4004V42.4004Z" fill="#CCCCFF"/>
<path d="M119.699 44.6992L122.099 47.0992L119.699 44.6992ZM124.399 44.6992L126.799 47.0992L124.499 44.6992H124.399Z" fill="#FFCCCC"/>
<path d="M115 47.0996L117.3 49.4996L114.9 47.0996H115Z" fill="#66CCCC"/>
<path d="M121.7 32.9004L105 96.2004L41.5 113.4L104.8 129.9L121.7 193.2L138.6 129.9L201.8 113L138.5 96.2004L121.7 32.9004V32.9004Z" fill="#CC0000" stroke="white" stroke-width="3"/>
<path d="M129.199 47.0996L131.599 49.4996L129.199 47.0996Z" fill="#66CCCC"/>
<path d="M115 49.5L117.3 51.9L114.9 49.5H115ZM129.2 49.5L131.6 51.9L129.2 49.5Z" fill="#99CCFF"/>
<path d="M117.301 51.9004L119.701 54.2004L117.301 51.9004ZM126.801 51.9004L129.201 54.2004L126.801 51.9004V51.9004Z" fill="#FFCCCC"/>
<path d="M112.5 54.3008L114.9 56.6008L112.5 54.3008Z" fill="#6699CC"/>
<path d="M118.1 55.8008L118.9 57.4008L118.1 55.8008ZM127.6 55.8008L128.4 57.4008L127.6 55.8008V55.8008Z" fill="#CC3333"/>
<path d="M131.6 54.3008L134 56.6008L131.6 54.3008Z" fill="#6699CC"/>
<path d="M112.5 56.5996L115 58.9996L112.6 56.5996H112.5ZM131.6 56.5996L134 58.9996L131.6 56.5996Z" fill="#99CCFF"/>
<path d="M115 59L117.3 61.4L114.9 59H115ZM129.2 59L131.6 61.4L129.2 59Z" fill="#FFCCCC"/>
<path d="M110.199 61.4004L112.499 63.8004L110.199 61.4004ZM133.999 61.4004L136.399 63.8004L133.999 61.4004Z" fill="#6699CC"/>
<path d="M110.199 63.8008L112.499 66.2008L110.199 63.8008V63.8008ZM133.999 63.8008L136.399 66.2008L133.999 63.8008Z" fill="#99CCCC"/>
<path d="M110.199 66.1992L112.499 68.4992L110.199 66.1992ZM133.999 66.1992L136.399 68.4992L133.999 66.1992Z" fill="#CCFFFF"/>
<path d="M107.801 68.5L110.201 70.9L107.801 68.5Z" fill="#6699CC"/>
<path d="M112.5 68.5L115 71L112.6 68.6L112.5 68.5ZM131.6 68.6L134 71L131.6 68.6Z" fill="#FFCCCC"/>
<path d="M136.301 68.5L138.701 70.9L136.401 68.5H136.301Z" fill="#6699CC"/>
<path d="M107.801 71.0004L110.201 73.3004L107.801 70.9004V71.0004Z" fill="#99CCCC"/>
<path d="M113.301 72.5L114.101 74.1L113.301 72.5ZM132.301 72.5L133.201 74.1L132.401 72.5H132.301Z" fill="#CC3333"/>
<path d="M136.301 71.0004L138.701 73.3004L136.401 70.9004L136.301 71.0004Z" fill="#99CCCC"/>
<path d="M107.801 73.3008L110.201 75.7008L107.801 73.3008ZM136.401 73.3008L138.701 75.7008L136.401 73.3008Z" fill="#CCFFFF"/>
<path d="M110.199 75.6992L112.499 77.9992L110.199 75.6992ZM133.999 75.6992L136.399 77.9992L133.999 75.6992Z" fill="#FFCCCC"/>
<path d="M105.4 78L107.8 80.4L105.4 78.1V78Z" fill="#99CCCC"/>
<path d="M111 79.5996L111.7 81.1996L110.9 79.5996H111ZM134.8 79.5996L135.6 81.1996L134.8 79.5996Z" fill="#CC3333"/>
<path d="M138.699 78L141.099 80.4L138.699 78.1V78Z" fill="#99CCCC"/>
<path d="M105.4 80.4004L107.8 82.8004L105.4 80.4004ZM138.7 80.4004L141.1 82.8004L138.7 80.4004Z" fill="#CCCCFF"/>
<path d="M107.801 82.8008L110.201 85.2008L107.801 82.8008ZM136.401 82.8008L138.701 85.2008L136.401 82.8008Z" fill="#FFCCCC"/>
<path d="M103 85.1992L105.4 87.5992L103 85.1992Z" fill="#99CCCC"/>
<path d="M108.6 86.8008L109.4 88.4008L108.6 86.8008ZM137.1 86.8008L137.9 88.4008L137.1 86.8008Z" fill="#CC3333"/>
<path d="M141.1 85.1992L143.5 87.5992L141.1 85.1992Z" fill="#99CCCC"/>
<path d="M103 87.5996L105.4 89.9996L103 87.5996ZM141.1 87.5996L143.5 89.9996L141.1 87.5996Z" fill="#CCCCFF"/>
<path d="M105.4 90L107.8 92.3L105.4 90ZM138.7 90L141.1 92.3L138.7 90Z" fill="#FFCCCC"/>
<path d="M100.6 92.3008L103 94.7008L100.6 92.3008Z" fill="#99CCCC"/>
<path d="M105.4 92.3008L107.8 94.7008L105.4 92.3008ZM138.7 92.3008L141.1 94.7008L138.7 92.3008Z" fill="#CC3333"/>
<path d="M143.5 92.3008L145.9 94.7008L143.5 92.3008ZM93.5 94.7008L95.9 97.1008L93.5 94.7008Z" fill="#99CCCC"/>
<path d="M95.9004 94.6992L98.3004 97.0992L95.9004 94.6992ZM148.2 94.6992L150.6 97.0992L148.3 94.6992H148.2Z" fill="#CCCCFF"/>
<path d="M150.6 94.6992L153 97.0992L150.6 94.6992ZM86.4004 97.0992L88.7004 99.4992L86.4004 97.0992Z" fill="#99CCCC"/>
<path d="M88.6992 97.0996L91.0992 99.4996L88.6992 97.0996Z" fill="#CCCCFF"/>
<path d="M98.3008 97.0996L100.601 99.4996L98.3008 97.0996Z" fill="#FFCCCC"/>
<path d="M100.6 97.0996L103 99.4996L100.6 97.0996ZM143.5 97.0996L145.9 99.4996L143.5 97.0996Z" fill="#CC3333"/>
<path d="M145.9 97.1L148.2 99.5L146 97L145.9 97.1Z" fill="#FFCCCC"/>
<path d="M155.4 97.0996L157.8 99.4996L155.4 97.0996Z" fill="#CCCCFF"/>
<path d="M157.801 97.0996L160.101 99.4996L157.801 97.0996Z" fill="#99CCCC"/>
<path d="M76.8008 99.5L79.2008 101.9L76.8008 99.5Z" fill="#6699CC"/>
<path d="M79.1992 99.5L81.5992 101.9L79.1992 99.5Z" fill="#99CCCC"/>
<path d="M81.5996 99.5L83.9996 101.9L81.5996 99.5Z" fill="#CCFFFF"/>
<path d="M91.0996 99.5L93.4996 101.9L91.0996 99.5Z" fill="#FFCCCC"/>
<path d="M95 100.301L96.7 101.101L95.1 100.301H95ZM149.8 100.301L151.4 101.101L149.8 100.301Z" fill="#CC3333"/>
<path d="M153 99.5L155.4 101.9L153 99.5Z" fill="#FFCCCC"/>
<path d="M162.5 99.5L164.9 101.9L162.5 99.5Z" fill="#CCFFFF"/>
<path d="M165 99.5L167.3 101.9L164.9 99.5H165Z" fill="#99CCCC"/>
<path d="M167.299 99.5L169.699 101.9L167.299 99.5ZM69.6992 101.9L72.0992 104.2L69.6992 101.9Z" fill="#6699CC"/>
<path d="M72 101.9L74.5 104.2L72 102V101.9Z" fill="#99CCCC"/>
<path d="M74.5 101.9L76.8 104.2L74.5 101.9Z" fill="#CCFFFF"/>
<path d="M84 101.9L86.4 104.2L84 102V101.9Z" fill="#FFCCCC"/>
<path d="M88 102.699L89.5 103.499L88 102.699ZM157 102.699L158.6 103.499L157 102.699Z" fill="#CC3333"/>
<path d="M160.199 101.9L162.499 104.2L160.199 101.9Z" fill="#FFCCCC"/>
<path d="M169.699 101.9L171.999 104.2L169.699 101.9Z" fill="#CCFFFF"/>
<path d="M172 101.9L174.4 104.2L172.1 101.9H172Z" fill="#99CCCC"/>
<path d="M174.4 101.9L176.8 104.2L174.4 101.9ZM62.5996 104.2L64.8996 106.6L62.5996 104.2Z" fill="#6699CC"/>
<path d="M65.0004 104.199L67.3004 106.599L64.9004 104.199H65.0004Z" fill="#99CCFF"/>
<path d="M76.8008 104.199L79.2008 106.599L76.8008 104.199Z" fill="#FFCCCC"/>
<path d="M80.8008 105L82.4008 105.8L80.8008 105ZM164.101 105L165.701 105.8L164.101 105Z" fill="#CC3333"/>
<path d="M167.301 104.199L169.701 106.599L167.301 104.199Z" fill="#FFCCCC"/>
<path d="M179.199 104.199L181.599 106.599L179.199 104.199Z" fill="#99CCFF"/>
<path d="M181.6 104.199L183.9 106.599L181.6 104.199Z" fill="#6699CC"/>
<path d="M55.4004 106.6L57.8004 109L55.4004 106.6Z" fill="#66CCCC"/>
<path d="M57.8008 106.6L60.2008 109L57.8008 106.6Z" fill="#99CCFF"/>
<path d="M67.3008 106.6L69.7008 109L67.3008 106.6ZM176.801 106.6L179.201 109L176.801 106.6Z" fill="#FFCCCC"/>
<path d="M186.301 106.6L188.701 109L186.301 106.6Z" fill="#99CCFF"/>
<path d="M188.701 106.6L191.101 109L188.701 106.6ZM48.3008 109L50.7008 111.4L48.3008 109Z" fill="#66CCCC"/>
<path d="M50.5996 109L52.9996 111.4L50.6996 109H50.5996Z" fill="#CCCCFF"/>
<path d="M60.1992 109L62.4992 111.4L60.1992 109Z" fill="#FFCCCC"/>
<path d="M64.0996 109.801L65.6996 110.601L64.0996 109.801ZM180.8 109.801L182.4 110.601L180.8 109.801Z" fill="#CC3333"/>
<path d="M184 109L186.3 111.4L184 109Z" fill="#FFCCCC"/>
<path d="M193.5 109L195.9 111.4L193.5 109Z" fill="#CCCCFF"/>
<path d="M195.9 109L198.2 111.4L195.9 109Z" fill="#66CCCC"/>
<path d="M41.0996 111.4L43.4996 113.8L41.0996 111.4Z" fill="#99CCCC"/>
<path d="M43.5 111.4L45.9 113.8L43.5 111.4Z" fill="#CCCCFF"/>
<path d="M53 111.4L55.4 113.8L53 111.4ZM191.1 111.4L193.5 113.8L191.1 111.4Z" fill="#FFCCCC"/>
<path d="M200.6 111.4L203 113.8L200.6 111.4Z" fill="#CCCCFF"/>
<path d="M203 111.4L205.4 113.8L203 111.4ZM36.4004 113.8L38.8004 116.1L36.4004 113.8Z" fill="#99CCCC"/>
<path d="M48.3008 113.801L50.7008 116.101L48.3008 113.801ZM195.901 113.801L198.201 116.101L195.901 113.801Z" fill="#CC6666"/>
<path d="M207.8 113.801L210.1 116.101L207.8 113.801ZM41 116.001L43.4 118.401L41 116.001Z" fill="#99CCCC"/>
<path d="M43.5 116.1L45.9 118.5L43.5 116.1Z" fill="#CCCCFF"/>
<path d="M53 116.1L55.4 118.5L53 116.1ZM191.1 116.1L193.5 118.5L191.1 116.1Z" fill="#FFCCCC"/>
<path d="M200.6 116.1L203 118.5L200.6 116.1Z" fill="#CCCCFF"/>
<path d="M203 116.1L205.4 118.5L203 116.1Z" fill="#99CCCC"/>
<path d="M48.3008 118.5L50.7008 120.9L48.3008 118.5Z" fill="#66CCCC"/>
<path d="M50.5996 118.5L52.9996 121L50.6996 118.6L50.5996 118.5Z" fill="#CCCCFF"/>
<path d="M60.1992 118.5L62.4992 120.9L60.1992 118.5Z" fill="#FFCCCC"/>
<path d="M64.0996 119.301L65.6996 120.101L64.0996 119.301ZM180.8 119.301L182.4 120.101L180.8 119.301Z" fill="#CC3333"/>
<path d="M184 118.5L186.3 120.9L184 118.5Z" fill="#FFCCCC"/>
<path d="M193.5 118.5L195.9 120.9L193.5 118.5Z" fill="#CCCCFF"/>
<path d="M195.9 118.5L198.2 120.9L195.9 118.5ZM55.4004 121L57.8004 123.4L55.4004 121Z" fill="#66CCCC"/>
<path d="M57.8008 120.9L60.2008 123.3L57.8008 120.9Z" fill="#99CCFF"/>
<path d="M67.3008 120.9L69.7008 123.3L67.3008 120.9ZM176.801 120.9L179.201 123.3L176.801 120.9Z" fill="#FFCCCC"/>
<path d="M186.301 120.9L188.701 123.3L186.301 120.9Z" fill="#99CCFF"/>
<path d="M188.699 120.9L191.099 123.3L188.699 120.9Z" fill="#66CCCC"/>
<path d="M62.5 123.301L64.9 125.701L62.6 123.301H62.5Z" fill="#6699CC"/>
<path d="M65.0004 123.301L67.3004 125.701L64.9004 123.301H65.0004Z" fill="#99CCFF"/>
<path d="M76.8008 123.301L79.2008 125.701L76.8008 123.301Z" fill="#FFCCCC"/>
<path d="M80.8008 124L82.4008 124.9L80.8008 124.1V124ZM164.101 124.1L165.701 124.9L164.101 124.1Z" fill="#CC3333"/>
<path d="M167.301 123.301L169.701 125.701L167.301 123.301Z" fill="#FFCCCC"/>
<path d="M179.199 123.301L181.599 125.701L179.199 123.301Z" fill="#99CCFF"/>
<path d="M181.599 123.301L183.899 125.701L181.599 123.301ZM69.6992 125.701L72.0992 128.001L69.6992 125.701Z" fill="#6699CC"/>
<path d="M72 125.699L74.5 127.999L72.1 125.699H72Z" fill="#99CCCC"/>
<path d="M74.5 125.699L76.8 127.999L74.5 125.699Z" fill="#CCFFFF"/>
<path d="M84 125.699L86.4 127.999L84 125.699Z" fill="#FFCCCC"/>
<path d="M88 126.5L89.5 127.2L88 126.4V126.5ZM157 126.4L158.6 127.2L157 126.4Z" fill="#CC3333"/>
<path d="M160.199 125.699L162.499 127.999L160.199 125.699Z" fill="#FFCCCC"/>
<path d="M169.699 125.699L171.999 127.999L169.699 125.699Z" fill="#CCFFFF"/>
<path d="M172 125.699L174.4 127.999L172.1 125.699H172Z" fill="#99CCCC"/>
<path d="M174.401 125.699L176.801 127.999L174.401 125.699ZM76.8008 127.999L79.2008 130.399L76.8008 127.999Z" fill="#6699CC"/>
<path d="M79.1992 128L81.5992 130.4L79.1992 128Z" fill="#99CCCC"/>
<path d="M81.5996 128L83.9996 130.4L81.5996 128Z" fill="#CCFFFF"/>
<path d="M91.0996 128L93.4996 130.4L91.0996 128Z" fill="#FFCCCC"/>
<path d="M95 128.801L96.7 129.601L95.1 128.801H95ZM149.8 128.801L151.4 129.601L149.8 128.801Z" fill="#CC3333"/>
<path d="M153 128L155.4 130.4L153 128Z" fill="#FFCCCC"/>
<path d="M162.5 128L164.9 130.4L162.5 128Z" fill="#CCFFFF"/>
<path d="M165 128L167.3 130.4L164.9 128H165Z" fill="#99CCCC"/>
<path d="M167.301 128L169.701 130.4L167.301 128Z" fill="#6699CC"/>
<path d="M86.4004 130.4L88.7004 132.8L86.4004 130.4Z" fill="#99CCCC"/>
<path d="M88.6992 130.4L91.0992 132.8L88.6992 130.4Z" fill="#CCCCFF"/>
<path d="M98.3008 130.4L100.601 132.8L98.3008 130.4Z" fill="#FFCCCC"/>
<path d="M100.6 130.4L103 132.8L100.6 130.4ZM143.5 130.4L145.9 132.8L143.5 130.4Z" fill="#CC3333"/>
<path d="M145.9 130.4L148.2 132.8L145.9 130.4Z" fill="#FFCCCC"/>
<path d="M155.4 130.4L157.8 132.8L155.4 130.4Z" fill="#CCCCFF"/>
<path d="M157.8 130.4L160.1 132.8L157.8 130.4ZM93.5 132.8L95.9 135.2L93.5 132.8Z" fill="#99CCCC"/>
<path d="M95.9004 132.801L98.3004 135.201L95.9004 132.801ZM148.2 132.801L150.6 135.201L148.3 132.801H148.2Z" fill="#CCCCFF"/>
<path d="M150.6 132.801L153 135.201L150.6 132.801ZM100.6 135.201L103 137.601L100.6 135.201Z" fill="#99CCCC"/>
<path d="M105.4 135.199L107.8 137.599L105.4 135.199ZM138.7 135.199L141.1 137.599L138.7 135.199Z" fill="#CC3333"/>
<path d="M143.5 135.199L145.9 137.599L143.5 135.199Z" fill="#99CCCC"/>
<path d="M105.4 137.6L107.8 139.9L105.4 137.6ZM138.7 137.6L141.1 139.9L138.7 137.6Z" fill="#FFCCCC"/>
<path d="M103 140L105.4 142.3L103 139.9V140Z" fill="#CCCCFF"/>
<path d="M108.6 141.5L109.4 143.1L108.6 141.5ZM137.1 141.5L137.9 143.1L137.1 141.5Z" fill="#CC3333"/>
<path d="M141.1 140L143.5 142.3L141.1 139.9V140Z" fill="#CCCCFF"/>
<path d="M103 142.301L105.4 144.701L103 142.301ZM141.1 142.301L143.5 144.701L141.1 142.301Z" fill="#99CCCC"/>
<path d="M107.801 144.699L110.201 147.099L107.801 144.699ZM136.401 144.699L138.701 147.099L136.401 144.699Z" fill="#FFCCCC"/>
<path d="M105.4 147L107.8 149.5L105.4 147.1V147Z" fill="#CCCCFF"/>
<path d="M111 148.699L111.7 150.299L110.9 148.699H111ZM134.8 148.699L135.6 150.299L134.8 148.699Z" fill="#CC3333"/>
<path d="M138.699 147L141.099 149.5L138.699 147.1V147Z" fill="#CCCCFF"/>
<path d="M105.4 149.5L107.8 151.8L105.4 149.5ZM138.7 149.5L141.1 151.8L138.7 149.5Z" fill="#99CCCC"/>
<path d="M110.199 151.801L112.499 154.201L110.199 151.901V151.801ZM133.999 151.901L136.399 154.201L133.999 151.901Z" fill="#FFCCCC"/>
<path d="M107.801 154.199L110.201 156.599L107.801 154.199Z" fill="#CCFFFF"/>
<path d="M113.301 155.801L114.101 157.401L113.301 155.801ZM132.301 155.801L133.201 157.401L132.401 155.801H132.301Z" fill="#CC3333"/>
<path d="M136.301 154.199L138.701 156.599L136.401 154.199H136.301Z" fill="#CCFFFF"/>
<path d="M107.801 156.6L110.201 159L107.801 156.6ZM136.401 156.6L138.701 159L136.401 156.6Z" fill="#99CCCC"/>
<path d="M107.801 159L110.201 161.4L107.801 159Z" fill="#6699CC"/>
<path d="M112.5 159L114.9 161.4L112.5 159ZM131.5 159L134 161.4L131.6 159H131.5Z" fill="#FFCCCC"/>
<path d="M136.301 159L138.701 161.4L136.401 159H136.301Z" fill="#6699CC"/>
<path d="M110.199 161.4L112.499 163.7L110.199 161.4ZM133.999 161.4L136.399 163.7L133.999 161.4Z" fill="#CCFFFF"/>
<path d="M110.199 163.801L112.499 166.101L110.199 163.801ZM133.999 163.801L136.399 166.101L133.999 163.801Z" fill="#99CCCC"/>
<path d="M110.199 166.1L112.499 168.5L110.199 166.1ZM133.999 166.1L136.399 168.5L133.999 166.1Z" fill="#6699CC"/>
<path d="M115 168.5L117.3 170.9L114.9 168.5H115ZM129.2 168.5L131.6 170.9L129.2 168.5Z" fill="#FFCCCC"/>
<path d="M112.5 170.9L114.9 173.3L112.5 170.9Z" fill="#99CCFF"/>
<path d="M118.1 172.5L118.9 174.1L118.1 172.5ZM127.6 172.5L128.4 174.1L127.6 172.5V172.5Z" fill="#CC3333"/>
<path d="M131.6 170.9L134 173.3L131.6 170.9Z" fill="#99CCFF"/>
<path d="M112.5 173.301L114.9 175.601L112.5 173.301ZM131.5 173.301L134 175.601L131.6 173.301H131.5Z" fill="#6699CC"/>
<path d="M117.301 175.699L119.701 177.999L117.301 175.699ZM126.801 175.699L129.201 177.999L126.801 175.699V175.699Z" fill="#FFCCCC"/>
<path d="M115 178L117.3 180.4L114.9 178H115ZM129.2 178L131.6 180.4L129.2 178Z" fill="#99CCFF"/>
<path d="M115 180.4L117.3 182.8L114.9 180.4H115ZM129.2 180.4L131.6 182.8L129.2 180.4Z" fill="#66CCCC"/>
<path d="M119.699 182.801L122.099 185.201L119.699 182.801ZM124.399 182.801L126.799 185.201L124.499 182.801H124.399Z" fill="#FFCCCC"/>
<path d="M117.301 185.199L119.701 187.499L117.301 185.199ZM126.801 185.199L129.201 187.499L126.801 185.199V185.199Z" fill="#CCCCFF"/>
<path d="M117.301 187.6L119.701 189.9L117.301 187.6Z" fill="#66CCCC"/>
<path d="M122 187.6L124.4 189.9L122.1 187.6H122Z" fill="#CC6666"/>
<path d="M126.801 187.6L129.201 189.9L126.801 187.6V187.6Z" fill="#66CCCC"/>
<path d="M119.699 192.301L122.099 194.701L119.699 192.301ZM124.399 192.301L126.799 194.701L124.499 192.301H124.399Z" fill="#CCCCFF"/>
<path d="M119.699 194.699L122.099 197.099L119.699 194.699ZM124.399 194.699L126.799 197.099L124.499 194.699H124.399ZM122.099 199.499L124.499 201.799L122.099 199.399V199.499Z" fill="#99CCCC"/>
</g>
<defs>
<clipPath id="clip0_7463_134200">
<rect width="512" height="512" fill="white"/>
</clipPath>
</defs>
</svg>
