<svg width="24" height="24" viewBox="0 0 24 24" fill="none" xmlns="http://www.w3.org/2000/svg">
<g clip-path="url(#clip0_18_6218)">
<path d="M24 12C24 10.5321 23.736 9.12602 23.2536 7.82609L12 7.30432L0.746391 7.82604C0.264047 9.12602 0 10.5321 0 12C0 13.4678 0.264047 14.8739 0.746391 16.1739L12 16.6956L23.2536 16.1739C23.736 14.8739 24 13.4678 24 12Z" fill="#D80027"/>
<path d="M12 24C17.1596 24 21.5581 20.7435 23.2536 16.1739H0.746384C2.4419 20.7435 6.84041 24 12 24Z" fill="#6DA544"/>
<path d="M0.746384 7.82611H23.2536C21.5581 3.2565 17.1596 0 12 0C6.84042 0 2.4419 3.2565 0.746384 7.82611Z" fill="#338AF3"/>
<path d="M12.2609 15.3913C10.3879 15.3913 8.86954 13.8729 8.86954 12C8.86954 10.127 10.3879 8.60867 12.2609 8.60867C12.8448 8.60867 13.3943 8.75633 13.8741 9.0163C13.1214 8.28032 12.0922 7.82605 10.9565 7.82605C8.6513 7.82605 6.78262 9.69477 6.78262 11.9999C6.78262 14.3051 8.65134 16.1738 10.9565 16.1738C12.0923 16.1738 13.1215 15.7196 13.8741 14.9836C13.3943 15.2436 12.8448 15.3913 12.2609 15.3913Z" fill="#F0F0F0"/>
<path d="M14.8695 9.65216L15.3187 10.9155L16.5297 10.3398L15.954 11.5507L17.2174 12L15.954 12.4492L16.5297 13.6602L15.3187 13.0845L14.8695 14.3478L14.4204 13.0845L13.2094 13.6602L13.7851 12.4492L12.5217 12L13.7851 11.5507L13.2094 10.3398L14.4204 10.9155L14.8695 9.65216Z" fill="#F0F0F0"/>
</g>
<defs>
<clipPath id="clip0_18_6218">
<rect width="24" height="24" fill="white"/>
</clipPath>
</defs>
</svg>
