<svg width="24" height="24" viewBox="0 0 24 24" fill="none" xmlns="http://www.w3.org/2000/svg">
<g clip-path="url(#clip0_18_4381)">
<path d="M12 24C18.6274 24 24 18.6274 24 12C24 5.37258 18.6274 0 12 0C5.37258 0 0 5.37258 0 12C0 18.6274 5.37258 24 12 24Z" fill="#F0F0F0"/>
<path d="M21.4261 9.65218H17.4782C17.4782 8.93182 16.8943 8.34784 16.1739 8.34784L15.1304 10.4348C15.1304 10.4348 16.2435 13.5652 16.2087 13.5652H17.513C18.2334 13.5652 18.8173 12.9813 18.8173 12.2609C19.5377 12.2609 20.1217 11.677 20.1217 10.9566H20.0782C20.7986 10.9565 21.4261 10.3726 21.4261 9.65218Z" fill="#ACABB1"/>
<path d="M2.57391 9.65218H6.52173C6.52173 8.93182 7.10571 8.34784 7.82607 8.34784L8.86956 10.4348C8.86956 10.4348 7.75649 13.5652 7.7913 13.5652H6.48697C5.76656 13.5652 5.18263 12.9813 5.18263 12.2609C4.46223 12.2609 3.8783 11.677 3.8783 10.9566H3.92174C3.20133 10.9565 2.57391 10.3726 2.57391 9.65218Z" fill="#ACABB1"/>
<path d="M16.1739 16.6956V17.2173H7.82607V16.6956H5.73912V18.7826H7.82607V19.3043H16.1739V18.7826H18.2608V16.6956H16.1739Z" fill="#FFDA44"/>
<path d="M7.82607 8.34777V13.5651C7.82607 16.7601 12 17.7391 12 17.7391C12 17.7391 16.1739 16.7601 16.1739 13.5651V8.34777L12 7.82605L7.82607 8.34777Z" fill="#0052B4"/>
<path d="M7.82611 10.4349H16.1739V13.5654H7.82611V10.4349Z" fill="#D80027"/>
<path d="M14.0869 5.73911V6.52173L13.5652 6.78261L13.0435 6.26084V4.69562H10.9565V6.26084L10.4348 6.78261L9.91301 6.52173V5.73911H7.82607V8.34779H16.1739V5.73911H14.0869Z" fill="#FFDA44"/>
</g>
<defs>
<clipPath id="clip0_18_4381">
<rect width="24" height="24" fill="white"/>
</clipPath>
</defs>
</svg>
