<svg width="24" height="24" viewBox="0 0 24 24" fill="none" xmlns="http://www.w3.org/2000/svg">
<g clip-path="url(#clip0_18_6096)">
<path d="M24 12C24 10.5321 23.736 9.12602 23.2536 7.82609L12 7.30432L0.746391 7.82604C0.264 9.12602 0 10.5321 0 12C0 13.4678 0.264 14.8739 0.746391 16.1739L12 16.6956L23.2536 16.1739C23.736 14.8739 24 13.4678 24 12Z" fill="#FFDA44"/>
<path d="M12 24C17.1596 24 21.5581 20.7435 23.2536 16.1739H0.746391C2.44191 20.7435 6.84042 24 12 24Z" fill="#6DA544"/>
<path d="M0.746391 7.82611H23.2537C21.5581 3.2565 17.1596 0 12 0C6.84042 0 2.44191 3.2565 0.746391 7.82611Z" fill="#D80027"/>
</g>
<defs>
<clipPath id="clip0_18_6096">
<rect width="24" height="24" fill="white"/>
</clipPath>
</defs>
</svg>
