<svg width="24" height="24" viewBox="0 0 24 24" fill="none" xmlns="http://www.w3.org/2000/svg">
<g clip-path="url(#clip0_18_6075)">
<path d="M0.566671 8.34777C0.199077 9.49944 -1.09036e-06 10.7263 4.57846e-05 11.9999C-1.09036e-06 13.2735 0.199077 14.5004 0.566718 15.6521L12 16.1739L23.4333 15.6521C23.8009 14.5004 24 13.2734 24 12C24 10.7264 23.8009 9.49944 23.4333 8.34777L12 7.82605L0.566671 8.34777Z" fill="#F0F0F0"/>
<path d="M24 12C24 11.2881 23.9377 10.5908 23.8187 9.91296H0.181313C0.0623437 10.5908 0 11.288 0 11.9999C0 12.7119 0.0623906 13.4091 0.181313 14.0869H23.8187C23.9376 13.409 24 12.7118 24 12Z" fill="black"/>
<path d="M12 24C17.3539 24 21.8881 20.4936 23.4333 15.6521H0.566711C2.11195 20.4935 6.64621 23.9999 12 24Z" fill="#338AF3"/>
<path d="M12 6.1037e-05C6.64621 6.1037e-05 2.11199 3.50645 0.566666 8.3478L23.4332 8.34784C21.8881 3.50645 17.3538 -3.2713e-05 12 6.1037e-05Z" fill="#338AF3"/>
</g>
<defs>
<clipPath id="clip0_18_6075">
<rect width="24" height="24" fill="white"/>
</clipPath>
</defs>
</svg>
