<svg width="24" height="24" viewBox="0 0 24 24" fill="none" xmlns="http://www.w3.org/2000/svg">
<g clip-path="url(#clip0_18_5698)">
<path d="M22.6675 6.49763C22.113 5.4233 21.3863 4.41493 20.4857 3.51436C19.5851 2.61375 18.5767 1.88696 17.5024 1.33252L9.04852 9.04843L1.33257 17.5023C1.88705 18.5766 2.61385 19.585 3.51441 20.4856C4.41497 21.3862 5.42339 22.113 6.49767 22.6674L14.9515 14.9515L22.6675 6.49763Z" fill="#FFDA44"/>
<path d="M3.5144 20.4856C4.01779 20.989 4.55493 21.438 5.11832 21.8333L21.8332 5.11832C21.438 4.55493 20.989 4.01779 20.4856 3.5144C19.9822 3.01101 19.4451 2.56209 18.8817 2.16684L2.16684 18.8817C2.56204 19.445 3.01096 19.9822 3.5144 20.4856Z" fill="#D80027"/>
<path d="M3.51429 3.5144C-0.271664 7.30035 -0.99846 12.9862 1.33245 17.5024L17.5023 1.3326C12.986 -0.998256 7.3002 -0.271365 3.51429 3.5144Z" fill="#338AF3"/>
<path d="M20.4856 20.4857C24.2715 16.6998 24.9983 11.0139 22.6675 6.49774L6.49771 22.6675C11.0139 24.9984 16.6998 24.2716 20.4856 20.4857Z" fill="#338AF3"/>
<path d="M6.39497 3.65179L7.0425 5.64478H9.138L7.44272 6.87647L8.09025 8.8694L6.39497 7.63767L4.69959 8.8694L5.34722 6.87647L3.65184 5.64478H5.74734L6.39497 3.65179Z" fill="#FFDA44"/>
</g>
<defs>
<clipPath id="clip0_18_5698">
<rect width="24" height="24" fill="white"/>
</clipPath>
</defs>
</svg>
