<svg width="512" height="512" viewBox="0 0 512 512" fill="none" xmlns="http://www.w3.org/2000/svg">
<g clip-path="url(#clip0_7463_133870)">
<path d="M0 0H512V512H0V0Z" fill="#000066"/>
<path fill-rule="evenodd" clip-rule="evenodd" d="M344.801 250.1L350.501 231.8L335.101 220.1L354.501 219.9L361.001 201.8L367.301 219.9L386.701 220.5L371.101 231.9L376.701 250.3L360.801 239.3L344.801 250.1ZM390.501 253.7L401.901 238.4L391.301 222.1L409.701 228.5L421.701 213.7V233L439.701 240.1L421.301 245.6L420.401 264.8L409.101 249L390.501 253.7ZM301.101 265.5L300.301 246.3L281.901 240.6L300.101 233.6V214.5L312.101 229.4L330.501 223.2L319.701 239.3L331.101 254.7L312.501 249.7L301.101 265.5ZM268.901 294.7L260.901 277.3L241.701 279.3L255.701 265.8L248.501 248.1L265.201 257.1L279.801 244.1L276.101 263.2L292.401 272.9L273.401 275.7L268.901 294.7ZM254.201 336.7L239.601 324.6L223.101 334.6L230.101 316.3L216.101 303.5L235.001 304.4L242.701 286.4L247.401 305.2L266.301 306.9L250.301 317.7L254.201 336.7ZM253.801 384L235.601 378.7L224.601 394.7L223.801 375L205.801 369L223.501 362.1V342.4L235.201 357.9L253.201 351.8L242.701 368.1L253.801 384ZM275.101 424L256.401 426.6L252.601 445.7L244.001 428L225.201 429.8L238.701 416.3L230.801 398.3L247.701 407.6L261.701 394.6L258.701 413.9L275.101 424ZM308.101 455.6L291.401 464.6L294.401 483.9L280.301 470.3L263.301 478.6L271.301 461.2L257.801 447.1L276.801 449.9L285.501 432.9L289.201 451.9L308.101 455.6ZM348.301 461.9L339.301 478.7L352.101 493.2L333.001 489.6L323.201 506L320.501 487L301.601 482.6L319.001 474.4L317.101 455.4L330.601 469.3L348.301 461.9ZM393.601 454.9L392.901 474.1L410.901 481.1L392.301 486.7L391.001 505.8L380.001 490.1L361.201 495L373.101 479.6L362.801 463.5L381.101 469.7L393.601 454.9ZM440.901 246.5L454.001 260.4L471.501 252.3L462.501 269.7L475.001 284L456.301 281L446.501 298L444.001 278.7L425.401 274.7L442.601 266L440.901 246.5ZM480.201 289.1L486.201 307.4L505.301 307.7L489.801 319.4L495.001 338L479.401 327L463.401 338.1L469.401 319.6L454.201 308L473.501 307.5L480.201 289.1ZM494.901 344L492.701 363L510.001 371.6L491.001 375.6L488.001 394.6L478.501 377.9L459.401 381.1L472.401 366.8L463.601 349.8L481.301 357.7L494.901 344ZM484.501 401.4L476.001 418.5L489.301 432.5L470.201 429.7L460.901 446.4L457.601 427.5L438.601 423.8L455.601 415L453.101 396L467.101 409.5L484.501 401.4ZM456.201 452.5L440.101 462.5L444.201 481.5L429.401 468.9L412.901 478.3L419.901 460.3L405.501 447.1L424.601 448.7L432.301 431.1L437.201 450.1" fill="white"/>
<path d="M0 -0.5H256V255.5H0V-0.5Z" fill="#000066"/>
<path d="M256 -0.5V31.5L161 127.5L256 221V255.5H222.5L127 161.5L34 255.5H0V221.5L93 128L0 36.5V-0.5H31L127 93.5L220 -0.5H256Z" fill="white"/>
<path d="M92 161.5L97.5 178.5L21 255.5H0V254L92 161.5ZM154 155.5L181 159.5L256 233V255.5L154 155.5ZM256 -0.5L160 97.5L158 75.5L233 -0.5H256ZM0 0L96.5 94.5L67 90.5L0 24V0Z" fill="#C8102E"/>
<path d="M88 -0.5V255.5H168V-0.5H88ZM0 87.5V167.5H256V87.5H0Z" fill="white"/>
<path d="M0 103.5V151.5H256V103.5H0ZM104 -0.5V255.5H152V-0.5H104Z" fill="#C8102E"/>
</g>
<defs>
<clipPath id="clip0_7463_133870">
<rect width="512" height="512" fill="white"/>
</clipPath>
</defs>
</svg>
