<svg width="512" height="512" viewBox="0 0 512 512" fill="none" xmlns="http://www.w3.org/2000/svg">
<g clip-path="url(#clip0_7463_133422)">
<rect width="512" height="512" fill="white"/>
<path fill-rule="evenodd" clip-rule="evenodd" d="M512 444C506.3 451 501.4 467.4 486.1 467.4C455.6 467.4 448 432.8 425.1 432.8C409.9 432.8 402.3 467.5 387.1 467.5C356.5 467.5 348.9 432.8 326.1 432.8C310.8 432.8 303.2 467.5 288.1 467.5C257.5 467.5 249.9 432.8 227.1 432.8C211.8 432.8 204.2 467.5 189 467.5C158.5 467.5 150.9 432.8 128 432.8C112.7 432.8 105.1 467.5 89.9 467.5C59.4 467.5 51.8 432.8 28.9 432.8C13.7 432.8 9.2 457.5 0 457.5V502C9.2 502 13.7 477.3 29 477.3C51.8 477.3 59.5 512 89.9 512C105.2 512 112.8 477.3 128 477.3C150.9 477.3 158.5 512 189 512C204.2 512 211.8 477.3 227 477.3C249.9 477.3 257.6 512 288 512C303.3 512 310.9 477.3 326.1 477.3C349 477.3 356.6 512 387.1 512C402.3 512 409.9 477.3 425.1 477.3C448 477.3 455.7 512 486.1 512C501.4 512 506.3 502.2 512 495.2V444ZM512 357.4C506.3 364.5 501.4 380.8 486.1 380.8C455.6 380.8 448 346.2 425.1 346.2C409.9 346.2 402.3 380.8 387.1 380.8C356.5 380.8 348.9 346.2 326.1 346.2C310.8 346.2 303.2 380.8 288.1 380.8C257.5 380.8 249.9 346.2 227.1 346.2C211.8 346.2 204.2 380.8 189 380.8C158.5 380.8 150.9 346.2 128 346.2C112.7 346.2 105.1 380.8 89.9 380.8C59.4 380.8 51.8 346.2 28.9 346.2C13.7 346.2 9.2 370.9 0 370.9V415.5C9.2 415.5 13.7 390.8 29 390.8C51.8 390.8 59.5 425.5 89.9 425.5C105.2 425.5 112.8 390.8 128 390.8C150.9 390.8 158.5 425.5 189 425.5C204.2 425.5 211.8 390.8 227 390.8C249.9 390.8 257.6 425.5 288 425.5C303.3 425.5 310.9 390.8 326.1 390.8C349 390.8 356.6 425.5 387.1 425.5C402.3 425.5 409.9 390.8 425.1 390.8C448 390.8 455.7 425.5 486.1 425.5C501.4 425.5 506.3 415.7 512 408.6V357.4ZM512 270.8C506.3 278 501.4 294.3 486.1 294.3C455.6 294.3 448 259.6 425.1 259.6C409.9 259.6 402.3 294.3 387.1 294.3C356.5 294.3 348.9 259.6 326.1 259.6C310.8 259.6 303.2 294.3 288.1 294.3C257.5 294.3 249.9 259.6 227.1 259.6C211.8 259.6 204.2 294.3 189 294.3C158.5 294.3 150.9 259.6 128 259.6C112.7 259.6 105.1 294.3 89.9 294.3C59.4 294.3 51.8 259.6 28.9 259.6C13.7 259.6 9.2 284.4 0 284.4V328.9C9.2 328.9 13.7 304.3 29 304.3C51.8 304.3 59.5 338.9 89.9 338.9C105.2 338.9 112.8 304.3 128 304.3C150.9 304.3 158.5 338.9 189 338.9C204.2 338.9 211.8 304.3 227 304.3C249.9 304.3 257.6 338.9 288 338.9C303.3 338.9 310.9 304.3 326.1 304.3C349 304.3 356.6 338.9 387.1 338.9C402.3 338.9 409.9 304.3 425.1 304.3C448 304.3 455.7 338.9 486.1 338.9C501.4 338.9 506.3 329 512 322V270.8ZM512 184.3C506.3 191.3 501.4 207.7 486.1 207.7C455.6 207.7 448 173.1 425.1 173.1C409.9 173.1 402.3 207.7 387.1 207.7C356.5 207.7 348.9 173.1 326.1 173.1C310.8 173.1 303.2 207.7 288.1 207.7C257.5 207.7 249.9 173.1 227.1 173.1C211.8 173.1 204.2 207.7 189 207.7C158.5 207.7 150.9 173.1 128 173.1C112.7 173.1 105.1 207.7 89.9 207.7C59.4 207.7 51.8 173.1 28.9 173.1C13.7 173.1 9.2 197.8 0 197.8V242.4C9.2 242.4 13.7 217.7 29 217.7C51.8 217.7 59.5 252.4 89.9 252.4C105.2 252.4 112.8 217.7 128 217.7C150.9 217.7 158.5 252.4 189 252.4C204.2 252.4 211.8 217.7 227 217.7C249.9 217.7 257.6 252.4 288 252.4C303.3 252.4 310.9 217.7 326.1 217.7C349 217.7 356.6 252.4 387.1 252.4C402.3 252.4 409.9 217.7 425.1 217.7C448 217.7 455.7 252.4 486.1 252.4C501.4 252.4 506.3 242.4 512 235.4V184.3ZM512 97.7C506.3 104.7 501.4 121.2 486.1 121.2C455.6 121.2 448 86.5 425.1 86.5C409.9 86.5 402.3 121.2 387.1 121.2C356.5 121.2 348.9 86.5 326.1 86.5C310.8 86.5 303.2 121.2 288.1 121.2C257.5 121.2 249.9 86.5 227.1 86.5C211.8 86.5 204.2 121.2 189 121.2C158.5 121.2 150.9 86.5 128 86.5C112.7 86.5 105.1 121.2 89.9 121.2C59.4 121.2 51.8 86.5 28.9 86.5C13.7 86.6 9.1 111.5 0 111.5V156C9.2 156 13.7 131.3 29 131.3C51.8 131.3 59.4 165.9 90 165.9C105.2 165.9 112.8 131.3 128 131.3C150.9 131.3 158.5 165.9 189 165.9C204.2 165.9 211.8 131.3 227 131.3C249.9 131.3 257.5 165.9 288 165.9C303.3 165.9 310.9 131.3 326.1 131.3C349 131.3 356.6 165.9 387.1 165.9C402.3 165.9 409.9 131.3 425.1 131.3C448 131.3 455.7 165.9 486.1 165.9C501.3 165.9 506.3 156.1 512 149V98V97.7ZM512 11.2C506.3 18.2 501.4 34.7 486.1 34.7C455.6 34.7 448 0 425.1 0C409.9 0 402.3 34.7 387.1 34.7C356.5 34.7 348.9 0 326.1 0C310.8 0 303.2 34.7 288.1 34.7C257.5 34.7 249.9 0 227.1 0C211.8 0 204.2 34.7 188.9 34.7C158.4 34.7 151 0 128 0C112.7 0 105.2 34.7 89.9 34.7C59.4 34.7 51.8 0 28.9 0C13.8 0 9.2 24.8 0 24.8V69.4C9.2 69.4 13.7 44.7 29 44.7C51.8 44.7 59.4 79.4 90 79.4C105.2 79.4 112.8 44.7 128 44.7C150.9 44.7 158.5 79.4 189 79.4C204.2 79.4 211.8 44.7 227 44.7C249.9 44.7 257.5 79.4 288 79.4C303.3 79.4 310.9 44.7 326.1 44.7C349 44.7 356.6 79.4 387.1 79.4C402.3 79.4 409.9 44.7 425.1 44.7C448 44.7 455.7 79.4 486.1 79.4C501.3 79.4 506.3 69.5 512 62.4V11.2Z" fill="#000063"/>
<path fill-rule="evenodd" clip-rule="evenodd" d="M377.3 169L374 470.2C374 486.1 388.3 486.1 389.8 470.2L386.7 169.2L377.3 169Z" fill="#A24300" stroke="white" stroke-width="1.9"/>
<path fill-rule="evenodd" clip-rule="evenodd" d="M410.1 280.999L400.1 269.999L397.7 281.099L393.3 265.099L389.3 273.099L388.6 256.099L384.6 264.199L383.8 247.199L379.8 255.199L377.4 235.199L373.4 243.199L371.1 223.199L367.1 231.199L364.7 211.199L363.6 201.199L365.6 197.199L370.8 199.199L379.2 207.099L395.9 222.999L385.5 218.999L402.3 234.999L391.9 230.999L408.7 246.999L398.3 242.999L413.4 255.999L403 251.999L418.2 264.899L407.8 260.899L419.3 274.899L407.3 267.899L410.1 280.999V280.999Z" fill="#006D00" stroke="white" stroke-width="1.7"/>
<path d="M396 222.999L372 209.199L367.1 231.199M410.1 280.999L365.6 197.199L410.1 280.999Z" stroke="black" stroke-width="0.3"/>
<path d="M402.3 235L378.3 221.1L373.4 243.3" stroke="black" stroke-width="0.3"/>
<path d="M408.699 247L384.699 233.1L379.699 255.2" stroke="black" stroke-width="0.3"/>
<path d="M413.4 256L391 245L384.5 264.1" stroke="black" stroke-width="0.3"/>
<path d="M418.201 265L395.801 254L389.301 273.2" stroke="black" stroke-width="0.3"/>
<path d="M419.3 275L399 260L397.6 281.1" stroke="black" stroke-width="0.3"/>
<path fill-rule="evenodd" clip-rule="evenodd" d="M293.2 138L309.5 144.3L304.8 131.9L319 145.9L317.7 135.9L329.2 152.7L327.8 142.7L339.4 159.5L338 149.4L353 168.4L351.6 158.4L366.5 177.4L365.1 167.4L380.1 186.4L387.5 196L388.2 201L382.1 201.5L369.1 197.5L343.4 189.6L355.6 188.6L329.8 180.6L342.1 179.6L316.3 171.6L328.5 170.6L306.1 164.9L318.3 163.9L295.9 158.2L308.1 157.1L288.5 148.6L304.1 149.8L293.3 138H293.2Z" fill="#006D00" stroke="white" stroke-width="1.8"/>
<path d="M343.399 189.6L374.599 192L365.099 167.4M293.199 138L388.199 201L293.199 138Z" stroke="black" stroke-width="0.3"/>
<path d="M329.801 180.6L361.001 183L351.601 158.4" stroke="black" stroke-width="0.3"/>
<path d="M316.301 171.7L347.501 174L338.001 149.4" stroke="black" stroke-width="0.3"/>
<path d="M306.1 165H333.9L327.9 142.6" stroke="black" stroke-width="0.3"/>
<path d="M296 158.2H323.8L317.7 135.9" stroke="black" stroke-width="0.3"/>
<path d="M288.5 148.6L317 153.8L304.8 131.9" stroke="black" stroke-width="0.3"/>
<path fill-rule="evenodd" clip-rule="evenodd" d="M482.5 159.001L469 169.001L484 170.701L463 175.701L474.2 178.901L451.6 180.601L462.7 183.901L440.1 185.501L451.2 188.801L424.8 192.101L435.9 195.401L409.5 198.701L420.6 202.101L394.2 205.401L381 207.001L375.4 205.401L377.4 200.401L387.2 192.101L406.7 175.601L402.5 185.501L422 169.001L417.8 178.901L437.3 162.401L433.1 172.301L448.8 157.401L444.6 167.401L460.2 152.401L456.1 162.401L473.5 150.801L465.5 162.401L482.5 159.101V159.001Z" fill="#006D00" stroke="white" stroke-width="1.8"/>
<path d="M406.7 175.6L390.7 198.7L420.7 202.1M482.5 159L375.5 205.3L482.5 159Z" stroke="black" stroke-width="0.3"/>
<path d="M422 169L406 192L436 195.3" stroke="black" stroke-width="0.3"/>
<path d="M437.301 162.4L421.301 185.5L451.301 188.8" stroke="black" stroke-width="0.3"/>
<path d="M448.8 157.4L436.6 178.9L462.7 183.9" stroke="black" stroke-width="0.3"/>
<path d="M460.3 152.4L448 174L474 179" stroke="black" stroke-width="0.3"/>
<path d="M473.499 150.801L455.699 170.601H483.999" stroke="black" stroke-width="0.3"/>
<path fill-rule="evenodd" clip-rule="evenodd" d="M480.4 259.3L463.4 254.3L469.5 266.3L453.8 253.4L456.2 263.4L443 247.5L445.4 257.5L432.1 241.6L434.5 251.6L417.7 233.7L420.1 243.7L403.2 225.9L405.6 235.8L388.7 218L380.3 209L379.1 204.1L385.1 203.1L398.4 206.1L424.9 211.9L412.9 213.9L439.3 219.8L427.3 221.8L453.8 227.6L441.8 229.6L464.7 233.6L452.7 235.6L475.5 239.4L463.5 241.4L483.9 248.4H468.3L480.3 259.3H480.4Z" fill="#006D00" stroke="white" stroke-width="1.8"/>
<path d="M424.8 211.8L393.4 211.9L405.5 235.7M480.4 259.3L379 204L480.4 259.3Z" stroke="black" stroke-width="0.3"/>
<path d="M439.3 219.801H408L420 243.601" stroke="black" stroke-width="0.3"/>
<path d="M453.8 227.6L422.5 227.8L434.5 251.5" stroke="black" stroke-width="0.3"/>
<path d="M464.7 233.5L436.9 235.6L445.4 257.4" stroke="black" stroke-width="0.3"/>
<path d="M475.501 239.4L447.801 241.5L456.201 263.3" stroke="black" stroke-width="0.3"/>
<path d="M484 248.3L455 245.5L469.5 266.3" stroke="black" stroke-width="0.3"/>
<path fill-rule="evenodd" clip-rule="evenodd" d="M304.4 265.001L312.9 253.201L299.9 255.101L315.9 246.101L305.7 245.601L324.1 239.001L313.9 238.601L332.2 232.101L322 231.601L343 222.801L332.9 222.301L353.9 213.501L343.7 213.101L364.8 204.201L375.3 199.801L380.4 200.001L380.1 205.001L374.4 214.401L362.8 233.401L363.5 223.701L352 242.701L352.6 233.001L341.1 252.001L341.8 242.301L333 259.001L333.6 249.301L324.8 266.001L325.5 256.201L314.3 270.401L317.7 258.301L304.4 265.001V265.001Z" fill="#006D00" stroke="white" stroke-width="1.7"/>
<path d="M363 233.5L369.7 209.5L343.8 213.2M304.4 265L380.4 200L304.4 265Z" stroke="black" stroke-width="0.3"/>
<path d="M352 242.8L358.7 218.6L332.9 222.3" stroke="black" stroke-width="0.3"/>
<path d="M341.1 252L348 228L322.1 231.7" stroke="black" stroke-width="0.3"/>
<path d="M333 258.999L337 237.199L313.9 238.599" stroke="black" stroke-width="0.3"/>
<path d="M324.801 266L328.801 244.1L305.801 245.6" stroke="black" stroke-width="0.3"/>
<path d="M314.3 270.401L323.4 248.801L300 255.101" stroke="black" stroke-width="0.3"/>
<path fill-rule="evenodd" clip-rule="evenodd" d="M458 109.001L441.6 120.001L439 108.301L429.3 124.501L427.5 116.701L419.7 133.401L418.6 125.701L412.4 142.801L408.9 134.601L402.8 155.401L399.3 147.101L393.2 167.901L389.7 159.701L383.5 180.401L380.5 190.801L382.2 195.001L388.8 192.801L400.2 184.401L422.9 167.501L409.9 171.801L432.6 155.001L419.4 159.301L442.2 142.401L429.1 146.701L451.9 133.601L436.3 137.301L460.9 124.601L445.9 128.501L463.9 114.201L448.4 121.601L458 109.001Z" fill="#006D00" stroke="white" stroke-width="1.8"/>
<path d="M451.699 115L427.999 135.3L382.199 195" stroke="black" stroke-width="0.3"/>
<path d="M418 170L391.8 182.4L389.6 163.4" stroke="black" stroke-width="0.3"/>
<path d="M428.001 157.6L401.501 169.9L399.301 150.9" stroke="black" stroke-width="0.3"/>
<path d="M437.4 145.001L411.1 157.301L409.1 138.301" stroke="black" stroke-width="0.3"/>
<path d="M445.3 135.701L420.8 144.701L417.9 129.301" stroke="black" stroke-width="0.3"/>
<path d="M454.3 126.701L428 135.401L427 120.301" stroke="black" stroke-width="0.3"/>
<path d="M457.8 118.201L433.5 130.701L438.2 111.801" stroke="black" stroke-width="0.3"/>
<path fill-rule="evenodd" clip-rule="evenodd" d="M369.3 88.5L376.7 105.2L386.1 96.4L384.4 114.6L390.7 108.7L387.3 126.5L392.9 120.4L387.7 137.7L395.7 132.3L388.4 152.8L396.4 147.3L389 167.8L397 162.3L389.6 182.8L385.9 193.1L381.9 195.8L377.6 191L373 178.7L363.8 154.1L372.4 163.7L363.2 139.1L371.8 148.6L362.6 124L371.1 133.6L359.7 112.2L370.7 122.3L357.5 100.5L367.9 110.5L361.2 90.2L369.9 103.6L369.3 88.5Z" fill="#006D00" stroke="white" stroke-width="1.8"/>
<path d="M371.199 96.4004L378.999 124.4L381.899 195.8" stroke="black" stroke-width="0.3"/>
<path d="M366.5 158.5L381.3 180.8L394.7 165.5" stroke="black" stroke-width="0.3"/>
<path d="M365.5 143.4L380.7 165.7L394.1 150.5" stroke="black" stroke-width="0.3"/>
<path d="M365.1 128.4L380.1 150.7L393.3 135.4" stroke="black" stroke-width="0.3"/>
<path d="M364 117L379.5 135.7L391.3 123.7" stroke="black" stroke-width="0.3"/>
<path d="M361.801 105.301L379.001 124.401L389.001 112.001" stroke="black" stroke-width="0.3"/>
<path d="M364 96.4004L377.2 118L384.6 99.7004" stroke="black" stroke-width="0.3"/>
<path fill-rule="evenodd" clip-rule="evenodd" d="M271.199 211.301L292.599 196.501L281.899 191.001L300.599 194.201L294.199 185.701L312.399 192.501L305.899 184.001L324.199 190.801L317.699 182.401L339.699 189.801L333.299 181.301L354.699 192.301L348.199 183.901L370.199 191.301L380.899 196.801L384.099 201.101L379.799 204.101L368.099 205.701L349.099 213.501L352.599 206.801L328.999 210.001L337.599 204.101L313.499 211.101L321.999 205.101L301.699 212.801L310.799 203.201L289.899 214.401L298.999 204.901L281.999 216.801L291.499 203.601L271.199 211.301Z" fill="#006D00" stroke="white" stroke-width="1.7"/>
<path d="M278 207.3L300 197.8L312 196L321.8 195.9L338.8 196.9L354 197.6L384 201" stroke="black" stroke-width="0.3"/>
<path d="M351.999 210.4L368.999 200L351.699 186.5" stroke="black" stroke-width="0.3"/>
<path d="M333 208.799L353.9 197.699L336.7 184.199" stroke="black" stroke-width="0.3"/>
<path d="M294.301 211.5L311.901 196.1L297.601 188.3M319.501 208.5L338.601 197L321.301 184.5L319.501 208.5Z" stroke="black" stroke-width="0.3"/>
<path d="M306 209.8L323.4 196L309.4 186.5M286.4 212.6L300.1 197.8L289.1 193.8L286.4 212.6Z" stroke="black" stroke-width="0.3"/>
<path fill-rule="evenodd" clip-rule="evenodd" d="M343.083 373.592L342.882 348.627L335.649 336.968C333.838 331.236 334.725 328.469 337.661 328.272C340.585 328.098 343.485 329.754 347.7 329.94C351.914 330.125 351.121 323.467 357.347 323.652C363.574 323.837 374.429 327.172 383.663 327.728C392.908 328.272 397.726 324.764 408.38 324.393C419.034 324.023 421.84 329.013 422.444 329.013C423.048 329.013 426.066 326.987 429.073 326.616C432.092 326.246 433.098 327.728 433.098 327.728C433.098 327.728 432.897 334.015 431.488 337.709C430.079 341.414 425.06 347.516 424.859 347.516C424.657 347.516 423.048 374.703 423.048 374.888C423.048 375.073 343.083 374.147 343.083 373.592V373.592Z" fill="#CC0000" stroke="black" stroke-width="0.113575"/>
<path fill-rule="evenodd" clip-rule="evenodd" d="M425.797 348.009C425.797 348.009 433.847 342.343 434.06 328.711C434.178 320.865 429.988 315.199 419.5 315.199C404.821 315.199 383.856 320.985 383.856 320.985V322.914C383.856 322.914 400.63 317.128 419.511 317.128C427.893 317.128 432.095 322.794 432.095 328.591C432.095 338.246 423.69 348.02 423.69 348.02V363.46H425.797V348.009Z" fill="#FFF100" stroke="black" stroke-width="0.113575"/>
<path fill-rule="evenodd" clip-rule="evenodd" d="M430.176 343.978C430.155 344.244 430.193 344.512 430.289 344.764C430.384 345.016 430.536 345.247 430.733 345.442C430.93 345.638 431.169 345.794 431.435 345.901C431.701 346.008 431.988 346.063 432.278 346.063C432.568 346.063 432.855 346.008 433.12 345.901C433.386 345.794 433.625 345.638 433.822 345.442C434.02 345.247 434.171 345.016 434.267 344.764C434.362 344.512 434.401 344.244 434.379 343.978C434.339 343.49 434.1 343.034 433.711 342.701C433.321 342.369 432.809 342.184 432.278 342.184C431.746 342.184 431.234 342.369 430.845 342.701C430.455 343.034 430.216 343.49 430.176 343.978Z" fill="white" stroke="black" stroke-width="0.113575"/>
<path fill-rule="evenodd" clip-rule="evenodd" d="M432.256 339.558C432.235 339.824 432.273 340.092 432.369 340.344C432.464 340.596 432.616 340.827 432.813 341.022C433.01 341.218 433.249 341.374 433.515 341.481C433.781 341.588 434.068 341.643 434.358 341.643C434.648 341.643 434.935 341.588 435.2 341.481C435.466 341.374 435.705 341.218 435.902 341.022C436.1 340.827 436.251 340.596 436.347 340.344C436.442 340.092 436.481 339.824 436.459 339.558C436.419 339.07 436.18 338.614 435.791 338.281C435.401 337.949 434.889 337.764 434.358 337.764C433.826 337.764 433.314 337.949 432.925 338.281C432.535 338.614 432.296 339.07 432.256 339.558Z" fill="white" stroke="black" stroke-width="0.113575"/>
<path fill-rule="evenodd" clip-rule="evenodd" d="M433.383 335.052C433.362 335.318 433.4 335.586 433.496 335.838C433.591 336.09 433.743 336.321 433.94 336.517C434.137 336.712 434.376 336.868 434.642 336.975C434.908 337.082 435.195 337.137 435.485 337.137C435.775 337.137 436.062 337.082 436.327 336.975C436.593 336.868 436.832 336.712 437.029 336.517C437.227 336.321 437.378 336.09 437.474 335.838C437.569 335.586 437.608 335.318 437.586 335.052C437.546 334.564 437.307 334.108 436.918 333.775C436.528 333.443 436.016 333.258 435.485 333.258C434.953 333.258 434.441 333.443 434.052 333.775C433.662 334.108 433.423 334.564 433.383 335.052Z" fill="white" stroke="black" stroke-width="0.113575"/>
<path fill-rule="evenodd" clip-rule="evenodd" d="M434.163 330.285C434.141 330.551 434.179 330.818 434.275 331.07C434.371 331.322 434.522 331.553 434.719 331.749C434.916 331.945 435.155 332.101 435.421 332.208C435.687 332.314 435.974 332.369 436.264 332.369C436.554 332.369 436.841 332.314 437.107 332.208C437.372 332.101 437.611 331.945 437.809 331.749C438.006 331.553 438.157 331.322 438.253 331.07C438.349 330.818 438.387 330.551 438.365 330.285C438.325 329.797 438.087 329.341 437.697 329.008C437.307 328.675 436.795 328.49 436.264 328.49C435.732 328.49 435.221 328.675 434.831 329.008C434.441 329.341 434.203 329.797 434.163 330.285Z" fill="white" stroke="black" stroke-width="0.113575"/>
<path fill-rule="evenodd" clip-rule="evenodd" d="M433.989 325.085C433.967 325.352 434.005 325.619 434.101 325.871C434.197 326.123 434.348 326.354 434.545 326.55C434.743 326.745 434.982 326.902 435.247 327.008C435.513 327.115 435.8 327.17 436.09 327.17C436.38 327.17 436.667 327.115 436.933 327.008C437.199 326.902 437.438 326.745 437.635 326.55C437.832 326.354 437.983 326.123 438.079 325.871C438.175 325.619 438.213 325.352 438.191 325.085C438.152 324.597 437.913 324.141 437.523 323.809C437.134 323.476 436.622 323.291 436.09 323.291C435.559 323.291 435.047 323.476 434.657 323.809C434.267 324.141 434.029 324.597 433.989 325.085Z" fill="white" stroke="black" stroke-width="0.113575"/>
<path fill-rule="evenodd" clip-rule="evenodd" d="M427.143 347.878C427.121 348.145 427.16 348.412 427.255 348.664C427.351 348.916 427.502 349.147 427.7 349.343C427.897 349.538 428.136 349.695 428.402 349.801C428.668 349.908 428.954 349.963 429.244 349.963C429.534 349.963 429.821 349.908 430.087 349.801C430.353 349.695 430.592 349.538 430.789 349.343C430.986 349.147 431.138 348.916 431.233 348.664C431.329 348.412 431.367 348.145 431.346 347.878C431.306 347.39 431.067 346.934 430.678 346.602C430.288 346.269 429.776 346.084 429.244 346.084C428.713 346.084 428.201 346.269 427.811 346.602C427.422 346.934 427.183 347.39 427.143 347.878Z" fill="white" stroke="black" stroke-width="0.113575"/>
<path fill-rule="evenodd" clip-rule="evenodd" d="M432.169 320.146C432.147 320.412 432.185 320.68 432.281 320.932C432.377 321.184 432.528 321.415 432.725 321.61C432.922 321.806 433.161 321.962 433.427 322.069C433.693 322.176 433.98 322.231 434.27 322.231C434.56 322.231 434.847 322.176 435.113 322.069C435.378 321.962 435.617 321.806 435.815 321.61C436.012 321.415 436.163 321.184 436.259 320.932C436.355 320.68 436.393 320.412 436.371 320.146C436.331 319.658 436.093 319.202 435.703 318.869C435.313 318.536 434.801 318.352 434.27 318.352C433.738 318.352 433.226 318.536 432.837 318.869C432.447 319.202 432.208 319.658 432.169 320.146Z" fill="white" stroke="black" stroke-width="0.113575"/>
<path fill-rule="evenodd" clip-rule="evenodd" d="M428.27 316.245C428.248 316.512 428.287 316.779 428.382 317.031C428.478 317.283 428.629 317.514 428.827 317.71C429.024 317.906 429.263 318.062 429.529 318.169C429.794 318.275 430.081 318.33 430.371 318.33C430.661 318.33 430.948 318.275 431.214 318.169C431.48 318.062 431.719 317.906 431.916 317.71C432.113 317.514 432.265 317.283 432.36 317.031C432.456 316.779 432.494 316.512 432.473 316.245C432.433 315.758 432.194 315.302 431.804 314.969C431.415 314.636 430.903 314.451 430.371 314.451C429.84 314.451 429.328 314.636 428.938 314.969C428.549 315.302 428.31 315.758 428.27 316.245Z" fill="white" stroke="black" stroke-width="0.113575"/>
<path fill-rule="evenodd" clip-rule="evenodd" d="M423.069 313.646C423.047 313.912 423.085 314.18 423.181 314.432C423.277 314.684 423.428 314.915 423.625 315.11C423.823 315.306 424.062 315.462 424.327 315.569C424.593 315.676 424.88 315.731 425.17 315.731C425.46 315.731 425.747 315.676 426.013 315.569C426.279 315.462 426.518 315.306 426.715 315.11C426.912 314.915 427.063 314.684 427.159 314.432C427.255 314.18 427.293 313.912 427.271 313.646C427.232 313.158 426.993 312.702 426.603 312.369C426.214 312.036 425.702 311.852 425.17 311.852C424.639 311.852 424.127 312.036 423.737 312.369C423.347 312.702 423.109 313.158 423.069 313.646Z" fill="white" stroke="black" stroke-width="0.113575"/>
<path fill-rule="evenodd" clip-rule="evenodd" d="M417.87 313.298C417.848 313.564 417.886 313.832 417.982 314.084C418.078 314.336 418.229 314.567 418.426 314.763C418.623 314.958 418.862 315.114 419.128 315.221C419.394 315.328 419.681 315.383 419.971 315.383C420.261 315.383 420.548 315.328 420.814 315.221C421.08 315.114 421.319 314.958 421.516 314.763C421.713 314.567 421.864 314.336 421.96 314.084C422.056 313.832 422.094 313.564 422.072 313.298C422.032 312.81 421.794 312.354 421.404 312.022C421.014 311.689 420.503 311.504 419.971 311.504C419.439 311.504 418.928 311.689 418.538 312.022C418.148 312.354 417.91 312.81 417.87 313.298Z" fill="white" stroke="black" stroke-width="0.113575"/>
<path fill-rule="evenodd" clip-rule="evenodd" d="M412.237 313.472C412.215 313.738 412.253 314.006 412.349 314.258C412.445 314.51 412.596 314.741 412.793 314.936C412.991 315.132 413.23 315.288 413.495 315.395C413.761 315.502 414.048 315.557 414.338 315.557C414.628 315.557 414.915 315.502 415.181 315.395C415.447 315.288 415.686 315.132 415.883 314.936C416.08 314.741 416.231 314.51 416.327 314.258C416.423 314.006 416.461 313.738 416.439 313.472C416.4 312.984 416.161 312.528 415.771 312.195C415.382 311.863 414.87 311.678 414.338 311.678C413.807 311.678 413.295 311.863 412.905 312.195C412.515 312.528 412.277 312.984 412.237 313.472Z" fill="white" stroke="black" stroke-width="0.113575"/>
<path fill-rule="evenodd" clip-rule="evenodd" d="M406.602 314.251C406.58 314.518 406.619 314.785 406.714 315.037C406.81 315.289 406.961 315.52 407.159 315.716C407.356 315.911 407.595 316.068 407.861 316.174C408.127 316.281 408.413 316.336 408.703 316.336C408.993 316.336 409.28 316.281 409.546 316.174C409.812 316.068 410.051 315.911 410.248 315.716C410.445 315.52 410.597 315.289 410.692 315.037C410.788 314.785 410.826 314.518 410.805 314.251C410.765 313.763 410.526 313.307 410.136 312.975C409.747 312.642 409.235 312.457 408.703 312.457C408.172 312.457 407.66 312.642 407.27 312.975C406.881 313.307 406.642 313.763 406.602 314.251Z" fill="white" stroke="black" stroke-width="0.113575"/>
<path fill-rule="evenodd" clip-rule="evenodd" d="M401.055 314.945C401.034 315.211 401.072 315.478 401.168 315.73C401.263 315.982 401.415 316.213 401.612 316.409C401.809 316.605 402.048 316.761 402.314 316.868C402.58 316.974 402.867 317.03 403.157 317.03C403.447 317.03 403.733 316.974 403.999 316.868C404.265 316.761 404.504 316.605 404.701 316.409C404.899 316.213 405.05 315.982 405.146 315.73C405.241 315.478 405.279 315.211 405.258 314.945C405.218 314.457 404.979 314.001 404.59 313.668C404.2 313.335 403.688 313.15 403.157 313.15C402.625 313.15 402.113 313.335 401.723 313.668C401.334 314.001 401.095 314.457 401.055 314.945Z" fill="white" stroke="black" stroke-width="0.113575"/>
<path fill-rule="evenodd" clip-rule="evenodd" d="M394.989 315.812C394.967 316.078 395.005 316.346 395.101 316.598C395.197 316.85 395.348 317.081 395.545 317.276C395.743 317.472 395.982 317.628 396.247 317.735C396.513 317.842 396.8 317.897 397.09 317.897C397.38 317.897 397.667 317.842 397.933 317.735C398.199 317.628 398.438 317.472 398.635 317.276C398.832 317.081 398.983 316.85 399.079 316.598C399.175 316.346 399.213 316.078 399.191 315.812C399.152 315.324 398.913 314.868 398.523 314.535C398.134 314.202 397.622 314.018 397.09 314.018C396.559 314.018 396.047 314.202 395.657 314.535C395.267 314.868 395.029 315.324 394.989 315.812Z" fill="white" stroke="black" stroke-width="0.113575"/>
<path fill-rule="evenodd" clip-rule="evenodd" d="M389.79 317.199C389.768 317.465 389.806 317.732 389.902 317.984C389.998 318.236 390.149 318.467 390.346 318.663C390.543 318.859 390.782 319.015 391.048 319.122C391.314 319.228 391.601 319.284 391.891 319.284C392.181 319.284 392.468 319.228 392.734 319.122C392.999 319.015 393.238 318.859 393.436 318.663C393.633 318.467 393.784 318.236 393.88 317.984C393.976 317.732 394.014 317.465 393.992 317.199C393.952 316.711 393.714 316.255 393.324 315.922C392.934 315.589 392.422 315.404 391.891 315.404C391.359 315.404 390.847 315.589 390.458 315.922C390.068 316.255 389.83 316.711 389.79 317.199Z" fill="white" stroke="black" stroke-width="0.113575"/>
<path fill-rule="evenodd" clip-rule="evenodd" d="M337.519 343.98C337.541 344.246 337.502 344.514 337.407 344.766C337.311 345.018 337.16 345.249 336.962 345.444C336.765 345.64 336.526 345.796 336.26 345.903C335.995 346.01 335.708 346.065 335.418 346.065C335.128 346.065 334.841 346.01 334.575 345.903C334.309 345.796 334.07 345.64 333.873 345.444C333.676 345.249 333.524 345.018 333.429 344.766C333.333 344.514 333.295 344.246 333.316 343.98C333.356 343.492 333.595 343.036 333.985 342.703C334.374 342.37 334.886 342.186 335.418 342.186C335.949 342.186 336.461 342.37 336.851 342.703C337.24 343.036 337.479 343.492 337.519 343.98Z" fill="white" stroke="black" stroke-width="0.113575"/>
<path fill-rule="evenodd" clip-rule="evenodd" d="M335.353 339.558C335.375 339.824 335.336 340.092 335.241 340.344C335.145 340.596 334.994 340.827 334.796 341.022C334.599 341.218 334.36 341.374 334.094 341.481C333.829 341.588 333.542 341.643 333.252 341.643C332.962 341.643 332.675 341.588 332.409 341.481C332.143 341.374 331.904 341.218 331.707 341.022C331.51 340.827 331.358 340.596 331.263 340.344C331.167 340.092 331.129 339.824 331.15 339.558C331.19 339.07 331.429 338.614 331.819 338.281C332.208 337.949 332.72 337.764 333.252 337.764C333.783 337.764 334.295 337.949 334.685 338.281C335.074 338.614 335.313 339.07 335.353 339.558Z" fill="white" stroke="black" stroke-width="0.113575"/>
<path fill-rule="evenodd" clip-rule="evenodd" d="M334.312 335.052C334.334 335.318 334.295 335.586 334.2 335.838C334.104 336.09 333.953 336.321 333.755 336.517C333.558 336.712 333.319 336.868 333.053 336.975C332.788 337.082 332.501 337.137 332.211 337.137C331.921 337.137 331.634 337.082 331.368 336.975C331.102 336.868 330.863 336.712 330.666 336.517C330.469 336.321 330.317 336.09 330.222 335.838C330.126 335.586 330.088 335.318 330.109 335.052C330.149 334.564 330.388 334.108 330.778 333.775C331.167 333.443 331.679 333.258 332.211 333.258C332.742 333.258 333.254 333.443 333.644 333.775C334.033 334.108 334.272 334.564 334.312 335.052Z" fill="white" stroke="black" stroke-width="0.113575"/>
<path fill-rule="evenodd" clip-rule="evenodd" d="M333.533 330.287C333.554 330.553 333.516 330.82 333.42 331.072C333.325 331.324 333.173 331.555 332.976 331.751C332.779 331.947 332.54 332.103 332.274 332.21C332.008 332.316 331.721 332.371 331.431 332.371C331.141 332.371 330.854 332.316 330.589 332.21C330.323 332.103 330.084 331.947 329.887 331.751C329.689 331.555 329.538 331.324 329.442 331.072C329.347 330.82 329.308 330.553 329.33 330.287C329.37 329.799 329.609 329.343 329.998 329.01C330.388 328.677 330.9 328.492 331.431 328.492C331.963 328.492 332.475 328.677 332.864 329.01C333.254 329.343 333.493 329.799 333.533 330.287Z" fill="white" stroke="black" stroke-width="0.113575"/>
<path fill-rule="evenodd" clip-rule="evenodd" d="M333.706 325.085C333.728 325.352 333.69 325.619 333.594 325.871C333.498 326.123 333.347 326.354 333.15 326.55C332.953 326.745 332.714 326.902 332.448 327.008C332.182 327.115 331.895 327.17 331.605 327.17C331.315 327.17 331.028 327.115 330.762 327.008C330.497 326.902 330.258 326.745 330.06 326.55C329.863 326.354 329.712 326.123 329.616 325.871C329.52 325.619 329.482 325.352 329.504 325.085C329.544 324.597 329.782 324.141 330.172 323.809C330.562 323.476 331.074 323.291 331.605 323.291C332.137 323.291 332.649 323.476 333.038 323.809C333.428 324.141 333.667 324.597 333.706 325.085Z" fill="white" stroke="black" stroke-width="0.113575"/>
<path fill-rule="evenodd" clip-rule="evenodd" d="M335.439 320.146C335.461 320.412 335.422 320.68 335.327 320.932C335.231 321.184 335.08 321.415 334.882 321.61C334.685 321.806 334.446 321.962 334.18 322.069C333.915 322.176 333.628 322.231 333.338 322.231C333.048 322.231 332.761 322.176 332.495 322.069C332.229 321.962 331.99 321.806 331.793 321.61C331.596 321.415 331.444 321.184 331.349 320.932C331.253 320.68 331.215 320.412 331.236 320.146C331.276 319.658 331.515 319.202 331.905 318.869C332.294 318.536 332.806 318.352 333.338 318.352C333.869 318.352 334.381 318.536 334.771 318.869C335.16 319.202 335.399 319.658 335.439 320.146Z" fill="white" stroke="black" stroke-width="0.113575"/>
<path fill-rule="evenodd" clip-rule="evenodd" d="M339.253 316.245C339.275 316.512 339.237 316.779 339.141 317.031C339.045 317.283 338.894 317.514 338.697 317.71C338.5 317.906 338.261 318.062 337.995 318.169C337.729 318.275 337.442 318.33 337.152 318.33C336.862 318.33 336.575 318.275 336.309 318.169C336.044 318.062 335.805 317.906 335.607 317.71C335.41 317.514 335.259 317.283 335.163 317.031C335.067 316.779 335.029 316.512 335.051 316.245C335.091 315.758 335.329 315.302 335.719 314.969C336.109 314.636 336.621 314.451 337.152 314.451C337.684 314.451 338.195 314.636 338.585 314.969C338.975 315.302 339.213 315.758 339.253 316.245Z" fill="white" stroke="black" stroke-width="0.113575"/>
<path fill-rule="evenodd" clip-rule="evenodd" d="M344.538 313.646C344.56 313.912 344.522 314.18 344.426 314.432C344.33 314.684 344.179 314.915 343.982 315.11C343.785 315.306 343.546 315.462 343.28 315.569C343.014 315.676 342.727 315.731 342.437 315.731C342.147 315.731 341.86 315.676 341.595 315.569C341.329 315.462 341.09 315.306 340.892 315.11C340.695 314.915 340.544 314.684 340.448 314.432C340.352 314.18 340.314 313.912 340.336 313.646C340.376 313.158 340.614 312.702 341.004 312.369C341.394 312.036 341.906 311.852 342.437 311.852C342.969 311.852 343.481 312.036 343.87 312.369C344.26 312.702 344.499 313.158 344.538 313.646Z" fill="white" stroke="black" stroke-width="0.113575"/>
<path fill-rule="evenodd" clip-rule="evenodd" d="M349.74 313.298C349.761 313.564 349.723 313.832 349.627 314.084C349.532 314.336 349.38 314.567 349.183 314.763C348.986 314.958 348.747 315.114 348.481 315.221C348.215 315.328 347.928 315.383 347.638 315.383C347.348 315.383 347.061 315.328 346.796 315.221C346.53 315.114 346.291 314.958 346.094 314.763C345.896 314.567 345.745 314.336 345.649 314.084C345.554 313.832 345.515 313.564 345.537 313.298C345.577 312.81 345.816 312.354 346.205 312.022C346.595 311.689 347.107 311.504 347.638 311.504C348.17 311.504 348.682 311.689 349.071 312.022C349.461 312.354 349.7 312.81 349.74 313.298Z" fill="white" stroke="black" stroke-width="0.113575"/>
<path fill-rule="evenodd" clip-rule="evenodd" d="M355.372 313.472C355.394 313.738 355.356 314.006 355.26 314.258C355.164 314.51 355.013 314.741 354.816 314.936C354.619 315.132 354.38 315.288 354.114 315.395C353.848 315.502 353.561 315.557 353.271 315.557C352.981 315.557 352.694 315.502 352.428 315.395C352.163 315.288 351.924 315.132 351.726 314.936C351.529 314.741 351.378 314.51 351.282 314.258C351.186 314.006 351.148 313.738 351.17 313.472C351.21 312.984 351.448 312.528 351.838 312.195C352.228 311.863 352.74 311.678 353.271 311.678C353.803 311.678 354.315 311.863 354.704 312.195C355.094 312.528 355.333 312.984 355.372 313.472Z" fill="white" stroke="black" stroke-width="0.113575"/>
<path fill-rule="evenodd" clip-rule="evenodd" d="M361.005 314.251C361.027 314.518 360.989 314.785 360.893 315.037C360.797 315.289 360.646 315.52 360.449 315.716C360.252 315.911 360.013 316.068 359.747 316.174C359.481 316.281 359.194 316.336 358.904 316.336C358.614 316.336 358.327 316.281 358.061 316.174C357.795 316.068 357.556 315.911 357.359 315.716C357.162 315.52 357.011 315.289 356.915 315.037C356.819 314.785 356.781 314.518 356.803 314.251C356.843 313.763 357.081 313.307 357.471 312.975C357.861 312.642 358.372 312.457 358.904 312.457C359.436 312.457 359.947 312.642 360.337 312.975C360.727 313.307 360.965 313.763 361.005 314.251Z" fill="white" stroke="black" stroke-width="0.113575"/>
<path fill-rule="evenodd" clip-rule="evenodd" d="M366.64 314.945C366.662 315.211 366.624 315.478 366.528 315.73C366.432 315.982 366.281 316.213 366.084 316.409C365.886 316.605 365.647 316.761 365.381 316.868C365.116 316.974 364.829 317.03 364.539 317.03C364.249 317.03 363.962 316.974 363.696 316.868C363.43 316.761 363.191 316.605 362.994 316.409C362.797 316.213 362.646 315.982 362.55 315.73C362.454 315.478 362.416 315.211 362.438 314.945C362.477 314.457 362.716 314.001 363.106 313.668C363.495 313.335 364.007 313.15 364.539 313.15C365.07 313.15 365.582 313.335 365.972 313.668C366.362 314.001 366.6 314.457 366.64 314.945Z" fill="white" stroke="black" stroke-width="0.113575"/>
<path fill-rule="evenodd" clip-rule="evenodd" d="M372.619 315.812C372.64 316.078 372.602 316.346 372.506 316.598C372.411 316.85 372.259 317.081 372.062 317.276C371.865 317.472 371.626 317.628 371.36 317.735C371.094 317.842 370.807 317.897 370.517 317.897C370.227 317.897 369.94 317.842 369.675 317.735C369.409 317.628 369.17 317.472 368.973 317.276C368.775 317.081 368.624 316.85 368.528 316.598C368.433 316.346 368.394 316.078 368.416 315.812C368.456 315.324 368.695 314.868 369.084 314.535C369.474 314.202 369.986 314.018 370.517 314.018C371.049 314.018 371.561 314.202 371.95 314.535C372.34 314.868 372.579 315.324 372.619 315.812Z" fill="white" stroke="black" stroke-width="0.113575"/>
<path fill-rule="evenodd" clip-rule="evenodd" d="M377.82 317.199C377.841 317.465 377.803 317.732 377.707 317.984C377.612 318.236 377.46 318.467 377.263 318.663C377.066 318.859 376.827 319.015 376.561 319.122C376.295 319.228 376.008 319.284 375.718 319.284C375.428 319.284 375.142 319.228 374.876 319.122C374.61 319.015 374.371 318.859 374.174 318.663C373.976 318.467 373.825 318.236 373.729 317.984C373.634 317.732 373.596 317.465 373.617 317.199C373.657 316.711 373.896 316.255 374.285 315.922C374.675 315.589 375.187 315.404 375.718 315.404C376.25 315.404 376.762 315.589 377.152 315.922C377.541 316.255 377.78 316.711 377.82 317.199Z" fill="white" stroke="black" stroke-width="0.113575"/>
<path fill-rule="evenodd" clip-rule="evenodd" d="M340.466 347.878C340.488 348.145 340.45 348.412 340.354 348.664C340.258 348.916 340.107 349.147 339.91 349.343C339.712 349.538 339.473 349.695 339.208 349.801C338.942 349.908 338.655 349.963 338.365 349.963C338.075 349.963 337.788 349.908 337.522 349.801C337.256 349.695 337.017 349.538 336.82 349.343C336.623 349.147 336.472 348.916 336.376 348.664C336.28 348.412 336.242 348.145 336.264 347.878C336.304 347.39 336.542 346.934 336.932 346.602C337.322 346.269 337.833 346.084 338.365 346.084C338.896 346.084 339.408 346.269 339.798 346.602C340.188 346.934 340.426 347.39 340.466 347.878Z" fill="white" stroke="black" stroke-width="0.113575"/>
<path fill-rule="evenodd" clip-rule="evenodd" d="M341.898 348.009C341.898 348.009 333.848 342.343 333.635 328.711C333.517 320.865 337.707 315.199 348.196 315.199C362.875 315.199 383.84 320.985 383.84 320.985V322.914C383.84 322.914 367.065 317.128 348.184 317.128C339.803 317.128 335.6 322.794 335.6 328.591C335.6 338.246 344.005 348.02 344.005 348.02V363.46H341.898V348.009Z" fill="#FFF100" stroke="black" stroke-width="0.113575"/>
<path fill-rule="evenodd" clip-rule="evenodd" d="M356.518 355.165C356.518 355.165 357.121 353.696 359.315 353.696C360.807 353.696 362.109 355.165 362.109 356.635V359.578H363.51V356.635C363.51 355.165 364.907 353.696 366.304 353.696C368.403 353.696 369.101 355.165 369.101 355.165C369.101 355.165 369.101 350.752 366.304 350.752C364.208 350.752 363.51 352.222 363.51 352.222C363.51 352.222 364.208 350.017 364.208 347.809C364.208 345.6 362.811 344.131 362.811 344.131C362.811 344.413 361.411 345.605 361.411 347.809C361.411 350.013 362.109 352.222 362.109 352.222C362.109 352.222 361.411 350.752 359.315 350.752C356.518 350.752 356.518 355.165 356.518 355.165Z" fill="#FFF100" stroke="black" stroke-width="0.12142"/>
<path fill-rule="evenodd" clip-rule="evenodd" d="M398.465 355.165C398.465 355.165 399.069 353.696 401.263 353.696C402.754 353.696 404.056 355.165 404.056 356.635V359.578H405.457V356.635C405.457 355.165 406.854 353.696 408.251 353.696C410.35 353.696 411.048 355.165 411.048 355.165C411.048 355.165 411.048 350.752 408.251 350.752C406.155 350.752 405.457 352.222 405.457 352.222C405.457 352.222 406.155 350.017 406.155 347.809C406.155 345.6 404.759 344.131 404.759 344.131C404.759 344.413 403.358 345.605 403.358 347.809C403.358 350.013 404.056 352.222 404.056 352.222C404.056 352.222 403.358 350.752 401.263 350.752C398.465 350.752 398.465 355.165 398.465 355.165Z" fill="#FFF100" stroke="black" stroke-width="0.12142"/>
<path fill-rule="evenodd" clip-rule="evenodd" d="M341.898 375.044V357.663C341.898 357.663 346.089 363.46 352.387 363.46C357.536 363.46 362.875 355.735 362.875 355.735C362.875 355.735 367.788 361.532 373.363 361.532C378.335 361.532 383.84 354.057 383.84 354.057C383.84 354.057 388.954 361.532 394.328 361.532C399.714 361.532 404.817 355.735 404.817 355.735C404.817 355.735 410.298 363.46 417.4 363.46C423.686 363.46 425.793 357.663 425.793 357.663V375.044H341.898Z" fill="#FFF100" stroke="black" stroke-width="0.113575"/>
<path fill-rule="evenodd" clip-rule="evenodd" d="M341.902 375.045V361.533C341.902 361.533 354.486 365.38 354.486 375.045H341.902Z" fill="#FFF100" stroke="black" stroke-width="0.113575"/>
<path fill-rule="evenodd" clip-rule="evenodd" d="M425.707 375.045V361.533C425.707 361.533 413.123 365.38 413.123 375.045H425.707Z" fill="#FFF100" stroke="black" stroke-width="0.113575"/>
<path fill-rule="evenodd" clip-rule="evenodd" d="M350.291 375.045C350.291 365.379 362.875 359.277 362.875 359.277C362.875 359.277 375.458 365.379 375.458 375.045H350.291Z" fill="#FFF100" stroke="black" stroke-width="0.113575"/>
<path fill-rule="evenodd" clip-rule="evenodd" d="M392.238 375.045C392.238 365.379 404.822 359.277 404.822 359.277C404.822 359.277 417.406 365.379 417.406 375.045H392.238Z" fill="#FFF100" stroke="black" stroke-width="0.113575"/>
<path fill-rule="evenodd" clip-rule="evenodd" d="M369.158 375.098C369.158 365.443 383.849 357.729 383.849 357.729C383.849 357.729 398.528 365.443 398.528 375.098H369.17H369.158Z" fill="#FFF100" stroke="black" stroke-width="0.113575"/>
<path fill-rule="evenodd" clip-rule="evenodd" d="M427.848 375.062C423.704 373.134 408.418 371.205 383.804 371.205C359.19 371.205 342.839 373.134 338.684 375.062C334.54 376.991 334.54 380.86 338.684 382.788C342.827 384.717 359.201 386.646 383.804 386.646C408.407 386.646 423.704 384.717 427.848 382.788C431.991 380.86 431.991 376.991 427.848 375.062Z" fill="white" stroke="black" stroke-width="0.112933"/>
<path fill-rule="evenodd" clip-rule="evenodd" d="M425.794 382.763C425.794 386.663 390.867 386.663 383.847 386.663C376.221 386.663 341.9 387.703 341.9 382.763C341.9 378.949 376.481 378.949 383.847 378.949C391.127 378.949 425.794 379.729 425.794 382.763Z" fill="#808080"/>
<path fill-rule="evenodd" clip-rule="evenodd" d="M346.06 368.894C346.06 370.194 345.194 371.234 343.98 371.234C342.767 371.234 341.9 370.194 341.9 368.894C341.9 367.594 342.767 366.641 343.98 366.641C345.107 366.641 346.06 367.681 346.06 368.894ZM425.794 368.894C425.794 370.194 424.841 371.234 423.627 371.234C422.501 371.234 421.547 370.194 421.547 368.894C421.547 367.594 422.501 366.641 423.627 366.641C424.841 366.641 425.707 367.681 425.707 368.894H425.794Z" fill="#CC0000"/>
<path fill-rule="evenodd" clip-rule="evenodd" d="M388.008 367.768C388.008 368.981 386.102 370.021 383.848 370.021C381.595 370.021 379.602 368.981 379.602 367.681C379.602 366.381 381.508 365.428 383.848 365.428C386.188 365.428 388.008 366.468 388.008 367.681V367.768Z" fill="black"/>
<path fill-rule="evenodd" clip-rule="evenodd" d="M408.114 367.768C408.114 368.981 406.727 370.021 404.994 370.021C403.26 370.021 401.874 368.981 401.874 367.681C401.874 366.381 403.26 365.428 404.994 365.428C406.727 365.428 408.114 366.468 408.114 367.681V367.768ZM364.954 367.768C364.954 368.981 363.567 370.021 361.834 370.021C360.1 370.021 358.627 368.981 358.627 367.681C358.627 366.381 360.014 365.428 361.834 365.428C363.567 365.428 364.954 366.468 364.954 367.681V367.768Z" fill="#006300"/>
<path fill-rule="evenodd" clip-rule="evenodd" d="M375.423 354.454C375.423 354.454 377.817 351.154 380.219 351.154H382.613V353.352C382.613 356.665 379.021 357.773 379.021 357.773H388.607C388.607 357.773 385.008 356.665 385.008 353.352V351.154H387.409C389.804 351.154 392.198 354.467 392.198 354.467V345.631C392.198 345.631 389.804 348.944 387.409 348.944H385.008V346.733C385.008 343.426 388.607 342.324 388.607 342.324H379.015C379.015 342.324 382.607 343.426 382.607 346.733V348.944H380.212C377.811 348.944 375.416 345.631 375.416 345.631V354.461L375.423 354.454Z" fill="#FFF100" stroke="black" stroke-width="0.142783"/>
<path fill-rule="evenodd" clip-rule="evenodd" d="M341.844 361.552H344.242C344.242 361.552 342.442 360.588 342.442 357.689V355.765H343.64C344.841 355.765 346.042 358.664 346.042 358.664V350.932C346.042 350.932 344.841 353.831 343.64 353.831H342.442V351.897C342.442 349.003 344.242 348.039 344.242 348.039H341.844V361.552Z" fill="#FFF100" stroke="black" stroke-width="0.141674"/>
<path fill-rule="evenodd" clip-rule="evenodd" d="M425.764 361.552H423.365C423.365 361.552 425.165 360.588 425.165 357.689V355.765H423.968C422.767 355.765 421.566 358.664 421.566 358.664V350.932C421.566 350.932 422.767 353.831 423.968 353.831H425.165V351.897C425.165 349.003 423.365 348.039 423.365 348.039H425.764V361.552Z" fill="#FFF100" stroke="black" stroke-width="0.141674"/>
<path fill-rule="evenodd" clip-rule="evenodd" d="M385.935 349.95C385.935 350.462 385.714 350.952 385.321 351.314C384.928 351.676 384.395 351.879 383.839 351.879C383.284 351.879 382.751 351.676 382.358 351.314C381.965 350.952 381.744 350.462 381.744 349.95C381.744 349.439 381.965 348.948 382.358 348.586C382.751 348.225 383.284 348.021 383.839 348.021C384.395 348.021 384.928 348.225 385.321 348.586C385.714 348.948 385.935 349.439 385.935 349.95V349.95Z" fill="white" stroke="black" stroke-width="0.113575"/>
<path fill-rule="evenodd" clip-rule="evenodd" d="M375.423 313.894C375.423 313.894 377.817 310.594 380.219 310.594H382.613V312.792C382.613 316.105 379.021 317.213 379.021 317.213H388.607C388.607 317.213 385.008 316.105 385.008 312.792V310.594H387.409C389.804 310.594 392.198 313.906 392.198 313.906V305.07C392.198 305.07 389.804 308.383 387.409 308.383H385.008V306.172C385.008 302.866 388.607 301.764 388.607 301.764H379.015C379.015 301.764 382.607 302.866 382.607 306.172V308.383H380.212C377.811 308.383 375.416 305.07 375.416 305.07V313.9L375.423 313.894Z" fill="#FFF100" stroke="black" stroke-width="0.142783"/>
<path fill-rule="evenodd" clip-rule="evenodd" d="M386.109 309.735C386.109 310.247 385.888 310.737 385.495 311.099C385.102 311.461 384.569 311.664 384.013 311.664C383.458 311.664 382.925 311.461 382.532 311.099C382.139 310.737 381.918 310.247 381.918 309.735C381.918 309.224 382.139 308.733 382.532 308.372C382.925 308.01 383.458 307.807 384.013 307.807C384.569 307.807 385.102 308.01 385.495 308.372C385.888 308.733 386.109 309.224 386.109 309.735V309.735Z" fill="white" stroke="black" stroke-width="0.113575"/>
<path fill-rule="evenodd" clip-rule="evenodd" d="M379.649 317.168H388.042V322.965H379.637L379.649 317.168Z" fill="#FFF100" stroke="black" stroke-width="0.113575"/>
<path fill-rule="evenodd" clip-rule="evenodd" d="M379.649 320.197H388.042V342.263H379.637L379.649 320.197Z" fill="#FFF100" stroke="black" stroke-width="0.113575"/>
<path fill-rule="evenodd" clip-rule="evenodd" d="M385.88 338.345C385.902 338.611 385.864 338.879 385.768 339.131C385.672 339.383 385.521 339.614 385.324 339.81C385.127 340.005 384.888 340.161 384.622 340.268C384.356 340.375 384.069 340.43 383.779 340.43C383.489 340.43 383.202 340.375 382.936 340.268C382.67 340.161 382.431 340.005 382.234 339.81C382.037 339.614 381.886 339.383 381.79 339.131C381.694 338.879 381.656 338.611 381.678 338.345C381.718 337.857 381.956 337.401 382.346 337.068C382.736 336.736 383.247 336.551 383.779 336.551C384.311 336.551 384.822 336.736 385.212 337.068C385.602 337.401 385.84 337.857 385.88 338.345Z" fill="white" stroke="black" stroke-width="0.113575"/>
<path fill-rule="evenodd" clip-rule="evenodd" d="M385.88 333.406C385.902 333.672 385.864 333.939 385.768 334.191C385.672 334.443 385.521 334.674 385.324 334.87C385.127 335.066 384.888 335.222 384.622 335.329C384.356 335.435 384.069 335.491 383.779 335.491C383.489 335.491 383.202 335.435 382.936 335.329C382.67 335.222 382.431 335.066 382.234 334.87C382.037 334.674 381.886 334.443 381.79 334.191C381.694 333.939 381.656 333.672 381.678 333.406C381.718 332.918 381.956 332.462 382.346 332.129C382.736 331.796 383.247 331.611 383.779 331.611C384.311 331.611 384.822 331.796 385.212 332.129C385.602 332.462 385.84 332.918 385.88 333.406Z" fill="white" stroke="black" stroke-width="0.113575"/>
<path fill-rule="evenodd" clip-rule="evenodd" d="M385.88 328.812C385.902 329.078 385.864 329.346 385.768 329.598C385.672 329.85 385.521 330.081 385.324 330.276C385.127 330.472 384.888 330.628 384.622 330.735C384.356 330.842 384.069 330.897 383.779 330.897C383.489 330.897 383.202 330.842 382.936 330.735C382.67 330.628 382.431 330.472 382.234 330.276C382.037 330.081 381.886 329.85 381.79 329.598C381.694 329.346 381.656 329.078 381.678 328.812C381.718 328.324 381.956 327.868 382.346 327.535C382.736 327.202 383.247 327.018 383.779 327.018C384.311 327.018 384.822 327.202 385.212 327.535C385.602 327.868 385.84 328.324 385.88 328.812Z" fill="white" stroke="black" stroke-width="0.113575"/>
<path fill-rule="evenodd" clip-rule="evenodd" d="M385.88 323.958C385.902 324.225 385.864 324.492 385.768 324.744C385.672 324.996 385.521 325.227 385.324 325.423C385.127 325.619 384.888 325.775 384.622 325.881C384.356 325.988 384.069 326.043 383.779 326.043C383.489 326.043 383.202 325.988 382.936 325.881C382.67 325.775 382.431 325.619 382.234 325.423C382.037 325.227 381.886 324.996 381.79 324.744C381.694 324.492 381.656 324.225 381.678 323.958C381.718 323.47 381.956 323.014 382.346 322.682C382.736 322.349 383.247 322.164 383.779 322.164C384.311 322.164 384.822 322.349 385.212 322.682C385.602 323.014 385.84 323.47 385.88 323.958Z" fill="white" stroke="black" stroke-width="0.113575"/>
<path fill-rule="evenodd" clip-rule="evenodd" d="M388.268 375.134C388.268 376.001 386.361 376.694 383.934 376.694C381.508 376.694 379.774 376.001 379.774 375.134C379.774 374.268 381.681 373.574 384.021 373.574C386.361 373.574 388.268 374.268 388.268 375.134V375.134ZM426.921 378.948C426.661 379.554 424.581 379.641 422.241 379.034C419.901 378.514 418.254 377.648 418.428 377.041C418.688 376.434 420.768 376.348 423.108 376.954C425.448 377.474 427.094 378.341 426.921 378.948ZM410.714 376.348C410.714 377.128 408.634 377.561 406.208 377.474C403.868 377.301 401.961 376.521 402.048 375.741C402.134 374.961 404.214 374.528 406.554 374.701C408.981 374.874 410.888 375.568 410.714 376.348ZM339.821 378.948C339.994 379.554 342.074 379.641 344.414 379.034C346.754 378.514 348.487 377.648 348.227 377.041C347.967 376.434 345.887 376.348 343.547 376.954C341.294 377.474 339.561 378.341 339.821 378.948ZM356.721 376.001C356.808 376.781 358.888 377.214 361.228 377.041C363.654 376.868 365.561 376.174 365.388 375.308C365.388 374.614 363.308 374.094 360.881 374.268C358.541 374.441 356.634 375.134 356.721 376.001Z" fill="black"/>
<path d="M0 0H256V256H0V0Z" fill="#012169"/>
<path d="M256 0V32L161 128L256 221.5V256H222.5L127 162L34 256H0V222L93 128.5L0 37V0H31L127 94L220 0H256Z" fill="white"/>
<path d="M92 162L97.5 179L21 256H0V254.5L92 162ZM154 156L181 160L256 233.5V256L154 156ZM256 0L160 98L158 76L233 0H256ZM0 0.5L96.5 95L67 91L0 24.5V0.5Z" fill="#C8102E"/>
<path d="M88 0V256H168V0H88ZM0 88V168H256V88H0Z" fill="white"/>
<path d="M0 104V152H256V104H0ZM104 0V256H152V0H104Z" fill="#C8102E"/>
</g>
<defs>
<clipPath id="clip0_7463_133422">
<rect width="512" height="512" fill="white"/>
</clipPath>
</defs>
</svg>
