<svg width="512" height="512" viewBox="0 0 512 512" fill="none" xmlns="http://www.w3.org/2000/svg">
<g clip-path="url(#clip0_7463_133879)">
<path fill-rule="evenodd" clip-rule="evenodd" d="M-258.301 0H769.199V512H-258.301V0Z" fill="#108C00"/>
<path fill-rule="evenodd" clip-rule="evenodd" d="M-260 178.199H772.6V228.299H-260V178.199Z" fill="#FFD600"/>
<path fill-rule="evenodd" clip-rule="evenodd" d="M181 0H229.5V512H181.1L181 0Z" fill="#FFD600"/>
<path fill-rule="evenodd" clip-rule="evenodd" d="M227.801 0H276.201V512H227.801V0Z" fill="black"/>
<path fill-rule="evenodd" clip-rule="evenodd" d="M-260 226.6H772.6V276.8H-260V226.6Z" fill="black"/>
<path fill-rule="evenodd" clip-rule="evenodd" d="M-260 276.801H772.6V326.901H-260V276.801Z" fill="white"/>
<path fill-rule="evenodd" clip-rule="evenodd" d="M276.199 0H324.699V512H276.199V0Z" fill="white"/>
<path d="M120.8 256.4C120.8 332.34 182.092 393.9 257.7 393.9C333.307 393.9 394.6 332.34 394.6 256.4C394.6 180.461 333.307 118.9 257.7 118.9C182.092 118.9 120.8 180.461 120.8 256.4Z" fill="#E72910"/>
<path fill-rule="evenodd" clip-rule="evenodd" d="M250.5 137L256.1 121L261.2 136.7C261.2 136.7 278.3 137.2 278.3 136.9C278.3 136.6 264.8 147.2 264.8 147.2L270.9 164.8C270.7 164.3 256.1 153.9 256.1 153.9C256.1 153.9 241.3 164.3 241.6 164.3C241.9 164.3 247.2 147.3 247.2 147.3L233.9 137.2L250.5 136.9V137Z" fill="black"/>
<path fill-rule="evenodd" clip-rule="evenodd" d="M251.301 137.7L256.001 124L260.401 137.6C260.401 137.6 275.301 138 275.301 137.8C275.301 137.6 263.601 146.8 263.601 146.8L268.801 162C268.601 161.5 256.001 152.6 256.001 152.6C256.001 152.6 243.201 161.6 243.401 161.6C243.601 161.6 248.401 146.8 248.401 146.8L236.801 138L251.201 137.8L251.301 137.7Z" fill="#FFE700"/>
<path fill-rule="evenodd" clip-rule="evenodd" d="M253.3 140L256.1 132L258.7 139.9C258.7 139.9 267.2 140.1 267.2 139.9C267.2 139.7 260.5 145.1 260.5 145.1L263.5 153.9C263.4 153.6 256.1 148.5 256.1 148.5L248.9 153.7C249.1 153.7 251.7 145.2 251.7 145.2L245.1 140.2L253.3 140V140Z" fill="#108C00"/>
<path fill-rule="evenodd" clip-rule="evenodd" d="M356.901 211.801L362.501 195.801L367.501 211.501C367.501 211.501 384.701 212.101 384.701 211.801C384.701 211.501 371.201 222.101 371.201 222.101L377.201 239.701C377.001 239.201 362.501 228.801 362.501 228.801C362.501 228.801 347.701 239.201 348.001 239.201C348.301 239.201 353.601 222.201 353.601 222.201L340.301 212.001L356.901 211.701V211.801Z" fill="black"/>
<path fill-rule="evenodd" clip-rule="evenodd" d="M357.601 212.601L362.501 198.701L366.901 212.401C366.901 212.401 381.701 212.801 381.701 212.601C381.701 212.401 370.001 221.601 370.001 221.601L375.301 236.701C375.101 236.301 362.501 227.301 362.501 227.301C362.501 227.301 349.701 236.301 349.901 236.301C350.101 236.301 354.801 221.501 354.801 221.501L343.301 212.801L357.601 212.601V212.601Z" fill="#FFE700"/>
<path fill-rule="evenodd" clip-rule="evenodd" d="M359.7 214.9L362.5 206.9L365 214.7L373.6 214.9L366.8 220C366.8 220 370 229 369.8 228.8C369.8 228.5 362.5 223.4 362.5 223.4L355.2 228.5L358 220L351.4 215L359.7 214.9Z" fill="#108C00"/>
<path fill-rule="evenodd" clip-rule="evenodd" d="M325.901 330.6L331.501 314.6L336.501 330.4C336.501 330.4 353.701 330.9 353.701 330.7C353.701 330.5 340.201 341 340.201 341L346.201 358.5C346.001 358 331.501 347.7 331.501 347.7C331.501 347.7 316.701 358 316.901 358C317.101 358 322.601 341 322.601 341L309.301 331L325.901 330.7V330.6Z" fill="black"/>
<path fill-rule="evenodd" clip-rule="evenodd" d="M326.601 331.4L331.501 317.6L335.901 331.2C335.901 331.2 350.701 331.7 350.701 331.4C350.701 331.1 339.001 340.4 339.001 340.4L344.301 355.6C344.101 355.1 331.501 346.2 331.501 346.2C331.501 346.2 318.701 355.2 318.901 355.2C319.101 355.2 323.801 340.4 323.801 340.4L312.301 331.7L326.601 331.4V331.4Z" fill="#FFE700"/>
<path fill-rule="evenodd" clip-rule="evenodd" d="M328.7 333.699L331.5 325.699L334 333.599C334 333.599 342.6 333.899 342.6 333.699C342.6 333.499 335.8 338.899 335.8 338.899L338.8 347.599C338.8 347.399 331.5 342.199 331.5 342.199L324.2 347.399L327 338.899L320.4 333.899L328.7 333.699Z" fill="#108C00"/>
<path fill-rule="evenodd" clip-rule="evenodd" d="M177.2 330.6L182.8 314.6L187.8 330.4C187.8 330.4 204.9 330.9 204.9 330.7C204.9 330.5 191.4 341 191.4 341L197.6 358.5C197.3 358 182.8 347.7 182.8 347.7C182.8 347.7 168 358 168.2 358C168.4 358 173.9 341 173.9 341L160.6 331L177.2 330.7V330.6Z" fill="black"/>
<path fill-rule="evenodd" clip-rule="evenodd" d="M178 331.4L182.8 317.6L187.2 331.2C187.2 331.2 202 331.7 202 331.4C202 331.1 190.3 340.4 190.3 340.4L195.6 355.6C195.4 355.1 182.8 346.2 182.8 346.2C182.8 346.2 170 355.2 170.2 355.2C170.4 355.2 175.1 340.4 175.1 340.4L163.6 331.7L177.9 331.4H178Z" fill="#FFE700"/>
<path fill-rule="evenodd" clip-rule="evenodd" d="M179.999 333.699L182.799 325.699L185.299 333.599C185.299 333.599 193.899 333.899 193.899 333.699C193.899 333.499 187.099 338.899 187.099 338.899L190.099 347.599C190.099 347.399 182.799 342.199 182.799 342.199L175.499 347.399L178.299 338.899L171.699 333.899L179.999 333.699Z" fill="#108C00"/>
<path fill-rule="evenodd" clip-rule="evenodd" d="M150 208.699L155.6 192.699L160.7 208.499C160.7 208.499 177.8 208.999 177.8 208.699C177.8 208.399 164.3 219.099 164.3 219.099L170.4 236.599C170.1 236.099 155.6 225.799 155.6 225.799C155.6 225.799 140.8 235.999 141.1 235.999C141.4 235.999 146.7 218.999 146.7 218.999L133.4 208.999L150 208.699V208.699Z" fill="black"/>
<path fill-rule="evenodd" clip-rule="evenodd" d="M150.8 209.499L155.6 195.699L160.1 209.299C160.1 209.299 174.8 209.799 174.8 209.499C174.8 209.199 163.1 218.499 163.1 218.499L168.4 233.699C168.2 233.199 155.6 224.299 155.6 224.299C155.6 224.299 142.8 233.299 143.1 233.299C143.4 233.299 147.9 218.499 147.9 218.499L136.4 209.799L150.8 209.499V209.499Z" fill="#FFE700"/>
<path fill-rule="evenodd" clip-rule="evenodd" d="M152.8 211.799L155.6 203.799L158.2 211.699L166.7 211.799L160 216.999L163 225.699C162.9 225.499 155.6 220.299 155.6 220.299L148.4 225.499C148.6 225.499 151.2 216.999 151.2 216.999L144.6 211.999L152.8 211.799V211.799Z" fill="#108C00"/>
<path fill-rule="evenodd" clip-rule="evenodd" d="M324.601 174.101L319.001 190.101L314.001 174.401C314.001 174.401 296.801 173.901 296.801 174.101C296.801 174.301 310.301 163.801 310.301 163.801L304.301 146.301C304.501 146.801 319.001 157.101 319.001 157.101C319.001 157.101 333.801 146.801 333.501 146.801C333.201 146.801 327.901 163.801 327.901 163.801L341.201 173.801L324.601 174.101V174.101Z" fill="black"/>
<path fill-rule="evenodd" clip-rule="evenodd" d="M323.901 173.301C323.901 173.601 318.901 187.201 318.901 187.201L314.601 173.601C314.601 173.601 299.801 173.101 299.801 173.301C299.801 173.501 311.501 164.401 311.501 164.401L306.201 149.201C306.401 149.701 319.001 158.601 319.001 158.601C319.001 158.601 331.801 149.601 331.601 149.601C331.401 149.601 326.701 164.401 326.701 164.401L338.201 173.101L323.801 173.301H323.901Z" fill="#FFE700"/>
<path fill-rule="evenodd" clip-rule="evenodd" d="M321.8 171.001L319 179.001L316.5 171.201C316.5 171.201 307.9 170.901 307.9 171.101C307.9 171.301 314.7 165.901 314.7 165.901L311.7 157.201C311.7 157.401 319 162.601 319 162.601L326.3 157.401C326.1 157.401 323.4 165.901 323.4 165.901L330.1 170.901L321.8 171.101V171.001Z" fill="#108C00"/>
<path fill-rule="evenodd" clip-rule="evenodd" d="M367.3 290.3L361.7 306.3L356.7 290.5C356.7 290.5 339.5 290 339.5 290.3C339.5 290.6 353 280 353 280L347 262.4C347.2 262.9 361.7 273.2 361.7 273.2C361.7 273.2 376.5 262.9 376.2 262.9C375.9 262.9 370.6 279.9 370.6 279.9L384 290L367.4 290.3H367.3Z" fill="black"/>
<path fill-rule="evenodd" clip-rule="evenodd" d="M366.6 289.501L361.7 303.301L357.3 289.701C357.3 289.701 342.5 289.301 342.5 289.501C342.5 289.701 354.2 280.501 354.2 280.501L348.9 265.301C349.1 265.801 361.7 274.701 361.7 274.701C361.7 274.701 374.5 265.701 374.3 265.701C374.1 265.701 369.4 280.501 369.4 280.501L380.9 289.301L366.5 289.501H366.6Z" fill="#FFE700"/>
<path fill-rule="evenodd" clip-rule="evenodd" d="M364.5 287.201L361.7 295.201L359.2 287.301C359.2 287.301 350.6 287.101 350.6 287.301C350.6 287.501 357.4 282.101 357.4 282.101L354.4 273.301C354.4 273.601 361.7 278.701 361.7 278.701L369 273.501C368.8 273.501 366.1 282.101 366.1 282.101L372.8 287.101L364.5 287.201V287.201Z" fill="#108C00"/>
<path fill-rule="evenodd" clip-rule="evenodd" d="M261.4 375.3L255.8 391.3L250.8 375.5C250.8 375.5 233.6 375 233.6 375.2C233.6 375.4 247.1 364.9 247.1 364.9L241.1 347.4C241.3 347.9 255.8 358.2 255.8 358.2C255.8 358.2 270.6 347.9 270.3 347.9C270 347.9 264.7 364.9 264.7 364.9L278 375L261.4 375.3Z" fill="black"/>
<path fill-rule="evenodd" clip-rule="evenodd" d="M260.7 374.401L255.8 388.401L251.4 374.701C251.4 374.701 236.6 374.201 236.6 374.501C236.6 374.801 248.3 365.501 248.3 365.501L243 350.301C243.2 350.801 255.8 359.701 255.8 359.701C255.8 359.701 268.6 350.701 268.4 350.701C268.2 350.701 263.5 365.501 263.5 365.501L275 374.201L260.7 374.501V374.401Z" fill="#FFE700"/>
<path fill-rule="evenodd" clip-rule="evenodd" d="M258.599 372.201L255.799 380.201L253.299 372.301C253.299 372.301 244.699 372.001 244.699 372.201C244.699 372.401 251.499 367.001 251.499 367.001L248.499 358.301C248.499 358.501 255.799 363.701 255.799 363.701L263.099 358.501L260.299 367.001L266.899 372.001L258.599 372.201Z" fill="#108C00"/>
<path fill-rule="evenodd" clip-rule="evenodd" d="M162 290.3L156.3 306.3L151.3 290.5C151.3 290.5 134.1 290 134.1 290.3C134.1 290.6 147.6 280 147.6 280L141.6 262.4C141.8 262.9 156.3 273.2 156.3 273.2L171 263L165.3 280L178.6 290.1L162 290.4V290.3Z" fill="black"/>
<path fill-rule="evenodd" clip-rule="evenodd" d="M161.2 289.501L156.3 303.301L151.9 289.701C151.9 289.701 137.1 289.301 137.1 289.501C137.1 289.701 148.8 280.501 148.8 280.501L143.5 265.301C143.7 265.801 156.3 274.701 156.3 274.701C156.3 274.701 169.1 265.701 168.9 265.701C168.7 265.701 164 280.501 164 280.501L175.5 289.301L161.2 289.501V289.501Z" fill="#FFE700"/>
<path fill-rule="evenodd" clip-rule="evenodd" d="M159.099 287.201L156.299 295.201L153.799 287.301C153.799 287.301 145.199 287.101 145.199 287.301C145.199 287.501 151.999 282.101 151.999 282.101L148.999 273.301C148.999 273.601 156.299 278.701 156.299 278.701L163.599 273.501L160.799 282.101L167.399 287.101L159.099 287.201V287.201Z" fill="#108C00"/>
<path fill-rule="evenodd" clip-rule="evenodd" d="M198.7 175.8L193.1 191.8L187.9 176.1C187.9 176.1 170.9 175.6 170.9 175.8C170.9 176 184.4 165.5 184.4 165.5L178.3 148C178.5 148.5 193 158.8 193 158.8C193 158.8 207.8 148.5 207.6 148.5C207.4 148.5 202 165.5 202 165.5L215.2 175.5L198.7 175.9V175.8Z" fill="black"/>
<path fill-rule="evenodd" clip-rule="evenodd" d="M197.901 175L193.001 189L188.601 175.3C188.601 175.3 173.801 174.8 173.801 175.1C173.801 175.4 185.501 166.1 185.501 166.1L180.201 150.9C180.401 151.4 193.001 160.3 193.001 160.3C193.001 160.3 205.801 151.3 205.601 151.3C205.401 151.3 200.801 166.1 200.801 166.1L212.201 174.8L197.901 175.1V175Z" fill="#FFE700"/>
<path fill-rule="evenodd" clip-rule="evenodd" d="M195.8 172.8L193 180.8L190.5 172.9C190.5 172.9 182 172.6 182 172.8C182 173 188.7 167.6 188.7 167.6L185.7 158.9C185.7 159.1 193 164.3 193 164.3L200.3 159.1L197.5 167.6L204.1 172.6L195.8 172.8V172.8Z" fill="#108C00"/>
<path d="M280.195 326.347C284.254 325.931 286.373 309.407 284.927 289.439C283.482 269.471 279.019 253.621 274.959 254.037C270.9 254.452 268.781 270.976 270.227 290.944C271.673 310.912 276.135 326.763 280.195 326.347Z" fill="#009200" stroke="black" stroke-width="0.535138"/>
<path d="M287.669 326.25C291.963 325.812 294.243 309.272 292.761 289.307C291.28 269.343 286.599 253.514 282.305 253.952C278.012 254.391 275.732 270.931 277.213 290.895C278.695 310.86 283.376 326.689 287.669 326.25Z" fill="#009200" stroke="black" stroke-width="0.550352"/>
<path d="M284.378 332.053C287.816 331.698 289.334 313.521 287.769 291.453C286.205 269.385 282.149 251.783 278.711 252.138C275.273 252.493 273.755 270.671 275.319 292.739C276.884 314.806 280.94 332.408 284.378 332.053Z" fill="#009200" stroke="black" stroke-width="0.517704"/>
<path fill-rule="evenodd" clip-rule="evenodd" d="M223.94 309.238C230.225 308.954 227.504 305.587 230.677 303.794C233.851 302 238.35 303.176 239.711 305.414C241.051 307.651 239.963 309.853 241.721 309.879C243.458 309.904 290.848 307.792 292.55 309.658C294.274 311.524 294.539 315.231 292.775 316.669C291.011 318.106 231.085 318.946 229.02 317.43C226.954 315.935 223.933 309.592 223.94 309.238V309.238Z" fill="#A95600" stroke="black" stroke-width="0.538573"/>
<path fill-rule="evenodd" clip-rule="evenodd" d="M257.521 314.015C257.397 318.78 264.426 317.421 264.507 321.403C264.289 325.619 252.736 321.661 252.645 313.949C253.138 306.232 264.449 302.428 264.595 306.84C264.684 310.488 257.63 309.249 257.506 314.014L257.521 314.015Z" fill="#FFFF00" stroke="black" stroke-width="0.527227"/>
<path fill-rule="evenodd" clip-rule="evenodd" d="M261.666 314.118C261.541 318.884 268.571 317.525 268.651 321.507C268.434 325.723 256.88 321.765 256.79 314.052C257.283 306.336 268.594 302.532 268.74 306.944C268.829 310.592 261.775 309.352 261.65 314.118L261.666 314.118Z" fill="#FFFF00" stroke="black" stroke-width="0.527227"/>
<path fill-rule="evenodd" clip-rule="evenodd" d="M266.121 313.911C265.996 318.677 273.026 317.318 273.106 321.299C272.889 325.516 261.335 321.558 261.245 313.845C261.738 306.129 273.049 302.325 273.195 306.737C273.284 310.385 266.23 309.145 266.105 313.911L266.121 313.911Z" fill="#FFFF00" stroke="black" stroke-width="0.527227"/>
<path fill-rule="evenodd" clip-rule="evenodd" d="M270.263 313.911C270.139 318.677 277.169 317.318 277.249 321.299C277.032 325.516 265.478 321.558 265.387 313.845C265.88 306.129 277.192 302.325 277.337 306.737C277.426 310.385 270.372 309.145 270.248 313.911L270.263 313.911Z" fill="#FFFF00" stroke="black" stroke-width="0.527227"/>
<path d="M290.247 316.975C292.44 317.007 294.255 315.213 294.302 312.968C294.348 310.723 292.609 308.877 290.416 308.845C288.223 308.813 286.407 310.607 286.361 312.852C286.314 315.097 288.054 316.943 290.247 316.975Z" fill="#A95600" stroke="black" stroke-width="0.465908"/>
<path d="M267.074 307.252C269.03 306.958 270.237 303.219 269.771 298.9C269.305 294.581 267.341 291.319 265.385 291.613C263.429 291.908 262.222 295.647 262.688 299.966C263.155 304.285 265.118 307.547 267.074 307.252Z" fill="#009200" stroke="black" stroke-width="0.592605"/>
<path d="M260.98 306.727C262.936 306.433 264.144 302.693 263.677 298.375C263.211 294.056 261.247 290.794 259.291 291.088C257.336 291.382 256.128 295.122 256.594 299.441C257.061 303.759 259.024 307.021 260.98 306.727Z" fill="#009200" stroke="black" stroke-width="0.592605"/>
<path d="M256.648 298.94C258.604 298.646 259.812 294.906 259.345 290.587C258.879 286.269 256.915 283.007 254.959 283.301C253.003 283.595 251.796 287.335 252.262 291.653C252.729 295.972 254.692 299.234 256.648 298.94Z" fill="#009200" stroke="black" stroke-width="0.592605"/>
<path d="M263.08 299.335C264.963 299.024 266.073 294.904 265.561 290.133C265.049 285.361 263.107 281.746 261.225 282.056C259.342 282.367 258.232 286.487 258.744 291.258C259.257 296.03 261.198 299.646 263.08 299.335Z" fill="#009200" stroke="black" stroke-width="0.611753"/>
<path d="M271.515 299.326C273.399 299.039 274.537 295.182 274.055 290.713C273.573 286.244 271.655 282.853 269.77 283.14C267.885 283.427 266.748 287.283 267.23 291.753C267.711 296.222 269.63 299.613 271.515 299.326Z" fill="#009200" stroke="black" stroke-width="0.591894"/>
<path d="M266.851 296.466C268.735 296.179 269.873 292.323 269.391 287.854C268.909 283.384 266.991 279.994 265.106 280.281C263.221 280.568 262.084 284.424 262.566 288.893C263.047 293.363 264.966 296.753 266.851 296.466Z" fill="#009200" stroke="black" stroke-width="0.591894"/>
<path d="M261.02 292.373C262.905 292.085 264.043 288.229 263.561 283.76C263.079 279.29 261.161 275.9 259.276 276.187C257.391 276.474 256.254 280.33 256.736 284.8C257.217 289.269 259.136 292.66 261.02 292.373Z" fill="#009200" stroke="black" stroke-width="0.591894"/>
<path d="M255.573 290.011C257.458 289.724 258.595 285.868 258.114 281.399C257.632 276.929 255.714 273.539 253.829 273.826C251.944 274.113 250.807 277.969 251.288 282.438C251.77 286.908 253.688 290.298 255.573 290.011Z" fill="#009200" stroke="black" stroke-width="0.591894"/>
<path fill-rule="evenodd" clip-rule="evenodd" d="M248.82 214.347C248.82 214.347 236.864 224.787 238.425 253.01C240.184 281.405 265.368 294.735 265.368 294.735C265.368 294.735 271.703 286.657 270.777 263.869C268.725 230.489 256.778 215.785 256.778 215.785L248.838 214.35L248.82 214.347Z" fill="#804BFF" stroke="black" stroke-width="0.471764"/>
<path d="M275.515 308.395C277.492 308.455 279.349 304.992 279.662 300.66C279.976 296.327 278.627 292.767 276.65 292.706C274.673 292.646 272.816 296.11 272.503 300.442C272.19 304.774 273.538 308.335 275.515 308.395Z" fill="#009200" stroke="black" stroke-width="0.592605"/>
<path d="M269.615 306.788C271.592 306.848 273.449 303.385 273.762 299.052C274.075 294.72 272.726 291.159 270.75 291.099C268.773 291.039 266.916 294.502 266.603 298.835C266.289 303.167 267.638 306.728 269.615 306.788Z" fill="#009200" stroke="black" stroke-width="0.592605"/>
<path d="M266.746 298.352C268.723 298.412 270.579 294.949 270.893 290.617C271.206 286.284 269.857 282.724 267.88 282.663C265.903 282.603 264.047 286.067 263.733 290.399C263.42 294.732 264.769 298.292 266.746 298.352Z" fill="#009200" stroke="black" stroke-width="0.592605"/>
<path d="M273.003 299.889C274.91 299.92 276.74 296.065 277.089 291.279C277.438 286.493 276.174 282.588 274.267 282.558C272.359 282.527 270.53 286.382 270.181 291.168C269.832 295.954 271.095 299.859 273.003 299.889Z" fill="#009200" stroke="black" stroke-width="0.611753"/>
<path d="M281.302 301.39C283.208 301.444 285.017 297.854 285.342 293.37C285.667 288.887 284.386 285.208 282.48 285.153C280.574 285.099 278.766 288.689 278.44 293.173C278.115 297.657 279.397 301.335 281.302 301.39Z" fill="#009200" stroke="black" stroke-width="0.591894"/>
<path d="M277.224 297.743C279.13 297.798 280.939 294.207 281.264 289.724C281.589 285.24 280.308 281.561 278.402 281.507C276.496 281.452 274.688 285.043 274.362 289.526C274.037 294.01 275.318 297.689 277.224 297.743Z" fill="#009200" stroke="black" stroke-width="0.591894"/>
<path d="M272.22 292.673C274.126 292.728 275.935 289.137 276.26 284.653C276.585 280.17 275.304 276.491 273.398 276.437C271.492 276.382 269.684 279.973 269.358 284.456C269.033 288.94 270.315 292.619 272.22 292.673Z" fill="#009200" stroke="black" stroke-width="0.591894"/>
<path d="M267.283 289.374C269.189 289.429 270.997 285.838 271.322 281.355C271.648 276.871 270.366 273.192 268.46 273.138C266.555 273.083 264.746 276.674 264.421 281.157C264.096 285.641 265.377 289.32 267.283 289.374Z" fill="#009200" stroke="black" stroke-width="0.591894"/>
<path d="M286.419 291.896C291.656 289.894 290.365 275.469 283.536 259.676C276.707 243.883 266.925 232.703 261.688 234.704C256.451 236.706 257.741 251.131 264.571 266.924C271.4 282.717 281.182 293.897 286.419 291.896Z" fill="#C90000" stroke="black" stroke-width="0.170551"/>
<path d="M266.437 237.757C268.877 237.8 270.886 236.081 270.924 233.919C270.962 231.757 269.014 229.969 266.573 229.927C264.133 229.884 262.124 231.602 262.086 233.765C262.048 235.927 263.996 237.714 266.437 237.757Z" fill="#009200" stroke="black" stroke-width="0.528668"/>
<path d="M269.911 232.118C272.099 232.156 273.902 230.434 273.94 228.272C273.978 226.11 272.235 224.326 270.048 224.288C267.861 224.25 266.057 225.972 266.02 228.134C265.982 230.296 267.724 232.08 269.911 232.118Z" fill="#009200" stroke="black" stroke-width="0.533845"/>
<path d="M264.525 232.024C266.712 232.063 268.516 230.341 268.553 228.178C268.591 226.016 266.849 224.232 264.661 224.194C262.474 224.156 260.671 225.878 260.633 228.04C260.595 230.202 262.338 231.986 264.525 232.024Z" fill="#009200" stroke="black" stroke-width="0.533845"/>
<path d="M265.624 227.738C267.91 227.778 269.792 226.165 269.828 224.136C269.863 222.106 268.039 220.429 265.753 220.389C263.466 220.349 261.585 221.962 261.549 223.991C261.514 226.021 263.338 227.698 265.624 227.738Z" fill="#009200" stroke="black" stroke-width="0.528746"/>
<path d="M265.189 223.068C267.475 223.108 269.357 221.495 269.392 219.466C269.427 217.436 267.603 215.759 265.317 215.719C263.031 215.679 261.149 217.292 261.114 219.321C261.078 221.351 262.903 223.028 265.189 223.068Z" fill="#009200" stroke="black" stroke-width="0.528746"/>
<path d="M259.396 229.034C261.583 229.072 263.387 227.35 263.424 225.188C263.462 223.026 261.72 221.242 259.532 221.204C257.345 221.166 255.542 222.888 255.504 225.05C255.466 227.212 257.209 228.996 259.396 229.034Z" fill="#009200" stroke="black" stroke-width="0.533845"/>
<path d="M260.522 223.852C262.709 223.891 264.512 222.205 264.549 220.087C264.586 217.969 262.843 216.221 260.656 216.182C258.468 216.144 256.665 217.83 256.628 219.948C256.591 222.066 258.334 223.814 260.522 223.852Z" fill="#009200" stroke="black" stroke-width="0.528351"/>
<path d="M254.034 224.07C256.475 224.112 258.484 222.394 258.521 220.232C258.559 218.069 256.611 216.282 254.171 216.239C251.73 216.197 249.721 217.915 249.684 220.077C249.646 222.24 251.594 224.027 254.034 224.07Z" fill="#009200" stroke="black" stroke-width="0.528668"/>
<path d="M262.181 217.316C264.467 217.356 266.349 215.743 266.384 213.714C266.42 211.684 264.595 210.007 262.309 209.967C260.023 209.927 258.141 211.54 258.106 213.569C258.07 215.599 259.895 217.276 262.181 217.316Z" fill="#009200" stroke="black" stroke-width="0.528746"/>
<path d="M256.684 218.19C258.871 218.228 260.674 216.542 260.711 214.424C260.748 212.306 259.005 210.558 256.818 210.52C254.63 210.482 252.827 212.168 252.79 214.286C252.754 216.404 254.497 218.152 256.684 218.19Z" fill="#009200" stroke="black" stroke-width="0.528351"/>
<path d="M248.185 224.278C250.372 224.317 252.176 222.595 252.213 220.432C252.251 218.27 250.509 216.486 248.322 216.448C246.134 216.41 244.331 218.132 244.293 220.294C244.255 222.456 245.998 224.24 248.185 224.278Z" fill="#009200" stroke="black" stroke-width="0.533845"/>
<path d="M249.584 221.28C251.771 221.318 253.574 219.632 253.611 217.514C253.648 215.396 251.905 213.648 249.718 213.61C247.531 213.572 245.728 215.258 245.691 217.376C245.654 219.494 247.397 221.242 249.584 221.28Z" fill="#009200" stroke="black" stroke-width="0.528351"/>
<path d="M251.297 218.097C253.484 218.135 255.287 216.449 255.324 214.331C255.361 212.213 253.618 210.465 251.431 210.427C249.244 210.388 247.441 212.074 247.404 214.192C247.367 216.31 249.11 218.058 251.297 218.097Z" fill="#009200" stroke="black" stroke-width="0.528351"/>
<path d="M291.533 291.913C298.26 289.527 297.149 272.347 289.052 253.54C280.954 234.732 268.936 221.42 262.208 223.806C255.481 226.191 256.592 243.371 264.69 262.179C272.787 280.986 284.805 294.298 291.533 291.913Z" fill="#009200" stroke="black" stroke-width="0.464966"/>
<path d="M290.639 270.952C291.884 270.357 291.471 266.7 289.717 262.783C287.962 258.866 285.531 256.172 284.286 256.766C283.041 257.36 283.454 261.017 285.208 264.934C286.963 268.852 289.394 271.546 290.639 270.952Z" fill="#009200" stroke="black" stroke-width="0.472824"/>
<path fill-rule="evenodd" clip-rule="evenodd" d="M286.281 263.826C296.818 276.613 295.456 284.755 294.339 291.631C291.024 283.7 289.274 278.711 278.737 265.925C268.2 253.138 273.463 244.156 274.185 239.406C275.768 243.515 275.744 251.04 286.281 263.826V263.826Z" fill="#009200" stroke="black" stroke-width="0.484337"/>
<path fill-rule="evenodd" clip-rule="evenodd" d="M287.232 274.156C297.769 286.943 296.408 295.085 295.29 301.961C291.975 294.03 290.225 289.042 279.688 276.255C269.152 263.468 274.414 254.486 275.137 249.736C276.719 253.845 276.695 261.37 287.232 274.156V274.156Z" fill="#009200" stroke="black" stroke-width="0.484337"/>
<path fill-rule="evenodd" clip-rule="evenodd" d="M287.617 282.482C298.418 295.04 297.226 303.209 296.251 310.106C292.771 302.248 290.918 297.298 280.117 284.741C269.316 272.183 274.393 263.091 275.017 258.327C276.685 262.4 276.816 269.924 287.617 282.482V282.482Z" fill="#009200" stroke="black" stroke-width="0.484326"/>
<path d="M285.793 264.453C288.26 263.821 287.752 257.65 284.658 250.671C281.563 243.692 277.055 238.546 274.588 239.178C272.121 239.81 272.629 245.98 275.723 252.96C278.817 259.939 283.326 265.085 285.793 264.453Z" fill="#009200" stroke="black" stroke-width="0.480043"/>
<path d="M280.358 269.469C282.578 269.083 282.429 264.085 280.026 258.305C277.622 252.525 273.873 248.152 271.653 248.538C269.433 248.924 269.581 253.922 271.985 259.702C274.389 265.482 278.138 269.855 280.358 269.469Z" fill="#009200" stroke="black" stroke-width="0.467386"/>
<path d="M275.068 274.278C277.295 273.939 277.25 268.94 274.967 263.114C272.684 257.287 269.028 252.839 266.801 253.179C264.575 253.518 264.62 258.516 266.903 264.343C269.186 270.169 272.842 274.618 275.068 274.278Z" fill="#009200" stroke="black" stroke-width="0.467205"/>
<path d="M278.923 254.1C280.717 253.769 280.493 250.008 278.424 245.701C276.355 241.394 273.223 238.172 271.43 238.503C269.636 238.835 269.859 242.595 271.928 246.902C273.998 251.209 277.129 254.432 278.923 254.1Z" fill="#009200" stroke="black" stroke-width="0.482248"/>
<path d="M274.039 257.574C275.851 257.341 275.869 253.573 274.079 249.159C272.289 244.745 269.369 241.356 267.557 241.589C265.745 241.822 265.726 245.59 267.516 250.004C269.306 254.419 272.226 257.808 274.039 257.574Z" fill="#009200" stroke="black" stroke-width="0.481917"/>
<path fill-rule="evenodd" clip-rule="evenodd" d="M267.489 244.512C270.597 252.1 271.853 258.928 270.283 259.757C268.714 260.585 264.924 255.094 261.816 247.506" fill="#009200"/>
<path d="M267.489 244.512C270.597 252.1 271.853 258.928 270.283 259.757C268.714 260.585 264.924 255.094 261.816 247.506" stroke="black" stroke-width="0.476786"/>
<path d="M273.546 248.652C275.359 248.419 275.377 244.651 273.587 240.237C271.797 235.823 268.877 232.434 267.065 232.667C265.252 232.901 265.234 236.668 267.024 241.082C268.814 245.497 271.734 248.886 273.546 248.652Z" fill="#009200" stroke="black" stroke-width="0.481917"/>
<path d="M268.343 251.159C270.162 250.961 270.263 247.195 268.569 242.748C266.875 238.301 264.027 234.856 262.209 235.055C260.39 235.253 260.289 239.019 261.983 243.466C263.677 247.913 266.524 251.358 268.343 251.159Z" fill="#009200" stroke="black" stroke-width="0.481966"/>
<path fill-rule="evenodd" clip-rule="evenodd" d="M262.228 234.332C265.257 239.464 266.89 244.26 265.866 245.039C264.842 245.819 261.557 242.283 258.527 237.15" fill="#009200"/>
<path d="M262.228 234.332C265.257 239.464 266.89 244.26 265.866 245.039C264.842 245.819 261.557 242.283 258.527 237.15" stroke="black" stroke-width="0.478022"/>
<path fill-rule="evenodd" clip-rule="evenodd" d="M264.32 230.918C267.349 236.05 268.982 240.846 267.958 241.625C266.934 242.405 263.648 238.868 260.619 233.736" fill="#009200"/>
<path d="M264.32 230.918C267.349 236.05 268.982 240.846 267.958 241.625C266.934 242.405 263.648 238.868 260.619 233.736" stroke="black" stroke-width="0.478022"/>
<path fill-rule="evenodd" clip-rule="evenodd" d="M273.629 231.538C277.84 238.542 280.106 245.087 278.678 246.154C277.25 247.22 272.678 242.396 268.467 235.393" fill="#009200"/>
<path d="M273.629 231.538C277.84 238.542 280.106 245.087 278.678 246.154C277.25 247.22 272.678 242.396 268.467 235.393" stroke="black" stroke-width="0.477028"/>
<path fill-rule="evenodd" clip-rule="evenodd" d="M267.517 227.753C270.558 233.407 272.201 238.687 271.178 239.543C270.156 240.399 266.863 236.501 263.822 230.848" fill="#009200"/>
<path d="M267.517 227.753C270.558 233.407 272.201 238.687 271.178 239.543C270.156 240.399 266.863 236.501 263.822 230.848" stroke="black" stroke-width="0.470102"/>
<path fill-rule="evenodd" clip-rule="evenodd" d="M267.111 219.903C265.085 221.958 267.071 225.78 268.923 227.146C270.992 229.035 282.678 241.34 290.901 230.932C284.304 230.822 271.979 215.339 267.111 219.903Z" fill="#804BFF" stroke="black" stroke-width="0.485519"/>
<path fill-rule="evenodd" clip-rule="evenodd" d="M265.659 213.79C263.633 215.845 265.62 219.667 267.472 221.033C269.541 222.922 281.226 235.227 289.45 224.818C282.853 224.709 270.528 209.226 265.659 213.79Z" fill="#804BFF" stroke="black" stroke-width="0.485519"/>
<path fill-rule="evenodd" clip-rule="evenodd" d="M263.796 207.989C261.77 210.044 263.756 213.866 265.608 215.232C267.677 217.121 279.363 229.426 287.587 219.018C280.99 218.908 268.665 203.425 263.796 207.989Z" fill="#804BFF" stroke="black" stroke-width="0.485519"/>
<path fill-rule="evenodd" clip-rule="evenodd" d="M259.755 201.358C257.729 203.413 259.715 207.235 261.567 208.601C263.636 210.49 275.322 222.796 283.546 212.387C276.949 212.277 264.624 196.794 259.755 201.358Z" fill="#804BFF" stroke="black" stroke-width="0.485519"/>
<path fill-rule="evenodd" clip-rule="evenodd" d="M245.239 194.658C249.43 191.593 257.147 190.692 263.143 193.756C268.149 196.21 276.446 206.136 282.701 208.491C281.041 208.858 279.31 208.936 277.609 208.719C275.909 208.503 274.274 207.998 272.801 207.233C267.219 211.22 265.244 211.795 259.546 212.582C251.669 213.667 245.123 211.615 242.86 207.537C240.495 203.691 241.523 197.523 245.239 194.658V194.658Z" fill="#804BFF" stroke="black" stroke-width="0.516507"/>
<path d="M253.791 202.707C255.781 202.742 257.411 201.838 257.431 200.688C257.451 199.538 255.854 198.578 253.863 198.543C251.873 198.509 250.243 199.413 250.223 200.563C250.203 201.712 251.801 202.673 253.791 202.707Z" fill="#FF0000" stroke="black" stroke-width="0.469283"/>
<path d="M244.292 212.245C246.896 211.277 248.527 209.208 247.936 207.624C247.345 206.039 244.755 205.539 242.152 206.507C239.548 207.475 237.917 209.544 238.508 211.129C239.099 212.713 241.689 213.213 244.292 212.245Z" fill="#FFFF00" stroke="black" stroke-width="0.509711"/>
<path d="M253.694 201.724C254.404 201.736 254.989 201.249 254.999 200.635C255.01 200.021 254.443 199.513 253.733 199.501C253.023 199.489 252.439 199.976 252.428 200.59C252.417 201.204 252.984 201.711 253.694 201.724Z" fill="black"/>
<path fill-rule="evenodd" clip-rule="evenodd" d="M246.013 203.125C246.348 204.716 245.175 206.897 242.614 207.698C239.999 208.815 238.027 211.3 236.897 215.349C232.879 206.19 235.394 202.261 239.605 201.278C243.236 200.073 245.423 200.199 246.013 203.125Z" fill="#FFFF00" stroke="black" stroke-width="0.604842"/>
<path d="M242.244 204.651C242.747 204.625 243.132 204.189 243.104 203.677C243.075 203.166 242.643 202.772 242.14 202.798C241.637 202.824 241.252 203.26 241.281 203.772C241.309 204.283 241.741 204.677 242.244 204.651Z" fill="black"/>
</g>
<defs>
<clipPath id="clip0_7463_133879">
<rect width="512" height="512" fill="white"/>
</clipPath>
</defs>
</svg>
