<svg width="24" height="24" viewBox="0 0 24 24" fill="none" xmlns="http://www.w3.org/2000/svg">
<g clip-path="url(#clip0_18_5629)">
<path d="M0 12C0 5.37262 5.37262 0 12 0C18.6274 0 24 5.37262 24 12L12 13.0435L0 12Z" fill="#FFDA44"/>
<path d="M1.60574 18C3.68067 21.5867 7.55835 24 12 24C16.4416 24 20.3193 21.5867 22.3942 18L12 17.2174L1.60574 18Z" fill="#D80027"/>
<path d="M22.3942 18C23.4153 16.235 24 14.1858 24 12H0C0 14.1858 0.584719 16.235 1.60575 18H22.3942Z" fill="#0052B4"/>
<path d="M12 16.1739C14.3052 16.1739 16.1739 14.3052 16.1739 12C16.1739 9.69483 14.3052 7.82611 12 7.82611C9.69483 7.82611 7.82611 9.69483 7.82611 12C7.82611 14.3052 9.69483 16.1739 12 16.1739Z" fill="#FFDA44"/>
<path d="M12 14.6087C10.5615 14.6087 9.3913 13.4384 9.3913 12V10.4348C9.3913 8.99634 10.5616 7.82611 12 7.82611C13.4384 7.82611 14.6087 8.99639 14.6087 10.4348V12C14.6087 13.4385 13.4384 14.6087 12 14.6087Z" fill="#338AF3"/>
<path d="M16.1739 5.73913H13.0434C13.0434 5.16285 12.5762 4.69565 12 4.69565C11.4237 4.69565 10.9565 5.16285 10.9565 5.73913H7.82602C7.82602 6.31546 8.328 6.78262 8.90424 6.78262H8.8695C8.8695 7.35894 9.33666 7.8261 9.91299 7.8261C9.91299 8.40243 10.3801 8.86959 10.9565 8.86959H13.0434C13.6198 8.86959 14.0869 8.40243 14.0869 7.8261C14.6633 7.8261 15.1304 7.35894 15.1304 6.78262H15.0957C15.672 6.78262 16.1739 6.31541 16.1739 5.73913Z" fill="black"/>
</g>
<defs>
<clipPath id="clip0_18_5629">
<rect width="24" height="24" fill="white"/>
</clipPath>
</defs>
</svg>
