<svg width="512" height="512" viewBox="0 0 512 512" fill="none" xmlns="http://www.w3.org/2000/svg">
<path fill-rule="evenodd" clip-rule="evenodd" d="M0 0H512V512H0V0Z" fill="#FFE800"/>
<path fill-rule="evenodd" clip-rule="evenodd" d="M0 256H512V512H0V256Z" fill="#00148E"/>
<path fill-rule="evenodd" clip-rule="evenodd" d="M0 384H512V512H0V384Z" fill="#DA0010"/>
<path fill-rule="evenodd" clip-rule="evenodd" d="M213.501 244.2L158.801 301.9L157.801 300.7L212.501 242.9L213.501 244.2ZM251.501 253.6L180.001 329L178.801 327.8L250.301 252.4L251.601 253.6H251.501Z" fill="black"/>
<path fill-rule="evenodd" clip-rule="evenodd" d="M181.09 329.074L175.154 335.099L168.297 340.239L173.313 333.329L179.249 327.304L181.09 329.074Z" fill="#808080" stroke="black" stroke-width="0.340239"/>
<path fill-rule="evenodd" clip-rule="evenodd" d="M162.689 299.574L156.753 305.599L149.897 310.739L154.912 303.829L160.849 297.804L162.689 299.574Z" fill="#808080" stroke="black" stroke-width="0.340239"/>
<path fill-rule="evenodd" clip-rule="evenodd" d="M167.108 112.08C167.108 112.08 161.09 275.668 185.162 275.668C209.234 275.668 221.304 258.463 221.304 258.463L221.032 168.553L167.108 112.08V112.08Z" fill="#FFDF00" stroke="black" stroke-width="0.406497"/>
<path fill-rule="evenodd" clip-rule="evenodd" d="M181.83 127.342C181.83 135.944 179.144 258.465 191.18 258.465C203.216 258.465 221.304 249.862 221.304 249.862L221.032 168.555L181.83 127.342V127.342Z" fill="#0000C4" stroke="black" stroke-width="0.406497"/>
<path fill-rule="evenodd" clip-rule="evenodd" d="M189.65 135.604C189.65 144.206 191.18 241.26 203.25 241.26H221.304L221.032 168.554L189.65 135.604Z" fill="#E10000" stroke="black" stroke-width="0.406497"/>
<path fill-rule="evenodd" clip-rule="evenodd" d="M165.7 112.2L220.3 169.9L221.3 168.7L166.6 111L165.6 112.2H165.7Z" fill="black"/>
<path fill-rule="evenodd" clip-rule="evenodd" d="M149.828 143.852C149.828 143.852 134.252 300.371 180.98 300.371C219.92 300.371 219.92 275.679 227.708 275.679L219.92 218.019L149.784 143.852H149.828Z" fill="#FFDF00" stroke="black" stroke-width="0.452327"/>
<path d="M184.285 171.637C184.604 171.615 196.064 146.161 224.389 130.249" stroke="black" stroke-width="0.641616"/>
<path fill-rule="evenodd" clip-rule="evenodd" d="M182.581 146.817C186.563 148.717 189.072 150.909 191.35 153.466C186.78 152.495 184.421 152.104 180.439 150.203C176.457 148.303 173.431 145.389 171.027 143.031C173.996 143.952 178.577 144.906 182.581 146.817V146.817Z" fill="#005B00" stroke="black" stroke-width="0.218819"/>
<path fill-rule="evenodd" clip-rule="evenodd" d="M194.881 161.533C195.149 162.061 194.856 162.799 194.212 163.156C193.568 163.513 192.826 163.366 192.552 162.825C192.277 162.284 192.583 161.573 193.227 161.215C193.871 160.858 194.613 161.005 194.881 161.533Z" fill="#FF0000" stroke="black" stroke-width="0.152288"/>
<path fill-rule="evenodd" clip-rule="evenodd" d="M204.595 130.251C202.857 134.776 200.94 137.762 198.73 140.55C199.722 135.521 200.144 132.94 201.881 128.415C203.619 123.89 206.155 120.252 208.206 117.356C207.321 120.663 206.342 125.701 204.595 130.251V130.251Z" fill="#005B00" stroke="black" stroke-width="0.207378"/>
<path fill-rule="evenodd" clip-rule="evenodd" d="M201.491 130.234C201.074 134.668 200.154 138.106 198.944 141.594C198.621 137.289 198.382 135.137 198.798 130.703C199.214 126.268 200.503 121.947 201.555 118.486C201.573 121.471 201.909 125.775 201.491 130.234V130.234Z" fill="#005B00" stroke="black" stroke-width="0.181581"/>
<path fill-rule="evenodd" clip-rule="evenodd" d="M204.965 136.103C202.612 138.746 200.623 139.858 198.528 140.551C200.613 136.845 201.632 134.87 203.985 132.227C206.338 129.585 208.875 128.395 210.912 127.473C209.41 129.721 207.331 133.446 204.965 136.103V136.103Z" fill="#005B00" stroke="black" stroke-width="0.195729"/>
<path fill-rule="evenodd" clip-rule="evenodd" d="M186.295 143.99C188.829 147.212 190.016 150.277 190.859 153.65C187.451 151.212 185.647 150.068 183.113 146.846C180.579 143.625 179.26 139.647 178.229 136.442C180.324 138.327 183.747 140.751 186.295 143.99V143.99Z" fill="#005B00" stroke="black" stroke-width="0.217872"/>
<path fill-rule="evenodd" clip-rule="evenodd" d="M177.552 162.856C180.991 165.625 182.82 168.488 184.289 171.725C179.932 169.908 177.645 169.093 174.206 166.324C170.767 163.555 168.652 159.798 166.987 156.765C169.72 158.271 174.094 160.072 177.552 162.856V162.856Z" fill="#005B00" stroke="black" stroke-width="0.240047"/>
<path fill-rule="evenodd" clip-rule="evenodd" d="M193.394 161.569C190.77 165.913 187.905 168.846 184.614 171.62C186.152 166.873 186.812 164.444 189.437 160.1C192.061 155.756 195.845 152.166 198.904 149.305C197.552 152.447 196.033 157.201 193.394 161.569V161.569Z" fill="#005B00" stroke="black" stroke-width="0.240881"/>
<path fill-rule="evenodd" clip-rule="evenodd" d="M197.751 165.891C193.371 168.914 189.555 170.458 185.489 171.655C189.231 167.748 191.045 165.691 195.426 162.668C199.806 159.645 204.695 157.881 208.625 156.494C205.886 158.929 202.156 162.852 197.751 165.891V165.891Z" fill="#005B00" stroke="black" stroke-width="0.239346"/>
<path fill-rule="evenodd" clip-rule="evenodd" d="M226.553 127.417C224.707 129.643 223.044 131.012 221.249 132.236C222.759 129.64 223.483 128.296 225.329 126.07C227.176 123.844 229.318 122.202 231.041 120.898C229.914 122.575 228.41 125.178 226.553 127.417V127.417Z" fill="#005B00" stroke="black" stroke-width="0.119385"/>
<path fill-rule="evenodd" clip-rule="evenodd" d="M224.63 126.647C223.544 129 222.36 130.75 221 132.49C221.638 130.115 221.912 128.918 222.998 126.565C224.084 124.212 225.648 122.03 226.912 120.284C226.352 121.905 225.722 124.281 224.63 126.647V126.647Z" fill="#005B00" stroke="black" stroke-width="0.107091"/>
<path fill-rule="evenodd" clip-rule="evenodd" d="M226.14 130.996C224.276 132.118 222.907 132.455 221.554 132.55C223.457 130.812 224.418 129.874 226.283 128.752C228.147 127.63 229.85 127.324 231.212 127.096C229.919 128.118 228.015 129.867 226.14 130.996V130.996Z" fill="#005B00" stroke="black" stroke-width="0.115113"/>
<path fill-rule="evenodd" clip-rule="evenodd" d="M201.527 146.227C198.088 148.308 195.274 149.472 192.35 150.445C195.509 147.876 197.068 146.534 200.507 144.452C203.946 142.371 207.516 141.007 210.38 139.93C208.139 141.556 204.985 144.134 201.527 146.227V146.227Z" fill="#005B00" stroke="black" stroke-width="0.149284"/>
<path fill-rule="evenodd" clip-rule="evenodd" d="M212.711 145.351C208.15 148.066 204.272 149.334 200.178 150.231C204.191 146.575 206.151 144.639 210.712 141.924C215.273 139.209 220.224 137.802 224.2 136.702C221.3 138.949 217.298 142.621 212.711 145.351V145.351Z" fill="#005B00" stroke="black" stroke-width="0.238827"/>
<path d="M182.719 189.291C183.012 189.128 180.189 165.363 198.623 140.767" stroke="black" stroke-width="0.642841"/>
<path fill-rule="evenodd" clip-rule="evenodd" d="M212.082 137.334C212.35 137.862 212.057 138.599 211.413 138.957C210.769 139.314 210.027 139.167 209.753 138.626C209.478 138.085 209.784 137.373 210.428 137.016C211.072 136.659 211.814 136.806 212.082 137.334Z" fill="#FF0000" stroke="black" stroke-width="0.152288"/>
<path fill-rule="evenodd" clip-rule="evenodd" d="M220.281 132.533C220.549 133.061 220.256 133.799 219.612 134.156C218.968 134.513 218.227 134.366 217.952 133.825C217.677 133.284 217.983 132.573 218.627 132.215C219.271 131.858 220.013 132.005 220.281 132.533Z" fill="#FF0000" stroke="black" stroke-width="0.152288"/>
<path fill-rule="evenodd" clip-rule="evenodd" d="M191.122 147.034C191.322 147.434 190.96 148.078 190.302 148.454C189.644 148.83 188.947 148.804 188.742 148.394C188.537 147.984 188.909 147.36 189.567 146.984C190.225 146.608 190.922 146.634 191.122 147.034Z" fill="#FF0000" stroke="black" stroke-width="0.134267"/>
<path fill-rule="evenodd" clip-rule="evenodd" d="M193.423 146.034C193.623 146.434 193.261 147.078 192.603 147.454C191.945 147.83 191.248 147.804 191.043 147.394C190.838 146.984 191.21 146.36 191.868 145.984C192.526 145.608 193.223 145.634 193.423 146.034Z" fill="#FF0000" stroke="black" stroke-width="0.134267"/>
<path fill-rule="evenodd" clip-rule="evenodd" d="M192.122 148.134C192.322 148.534 191.96 149.178 191.302 149.554C190.644 149.93 189.947 149.904 189.742 149.494C189.537 149.084 189.909 148.46 190.567 148.084C191.225 147.708 191.922 147.734 192.122 148.134Z" fill="#FF0000" stroke="black" stroke-width="0.134267"/>
<path fill-rule="evenodd" clip-rule="evenodd" d="M201.509 147.661C201.805 148.249 201.479 149.068 200.765 149.463C200.05 149.857 199.228 149.691 198.925 149.089C198.622 148.486 198.962 147.696 199.677 147.302C200.391 146.907 201.213 147.073 201.509 147.661Z" fill="#FF0000" stroke="black" stroke-width="0.16906"/>
<path fill-rule="evenodd" clip-rule="evenodd" d="M203.21 145.96C203.506 146.548 203.18 147.367 202.466 147.761C201.751 148.156 200.93 147.99 200.626 147.388C200.323 146.785 200.664 145.995 201.378 145.6C202.092 145.206 202.914 145.372 203.21 145.96Z" fill="#FF0000" stroke="black" stroke-width="0.16906"/>
<path fill-rule="evenodd" clip-rule="evenodd" d="M203.609 146.76C203.905 147.348 203.579 148.167 202.864 148.562C202.15 148.957 201.328 148.791 201.025 148.188C200.721 147.586 201.062 146.796 201.776 146.401C202.491 146.006 203.313 146.172 203.609 146.76Z" fill="#FF0000" stroke="black" stroke-width="0.16906"/>
<path fill-rule="evenodd" clip-rule="evenodd" d="M165.405 160.359C165.405 168.59 149.829 259.218 188.813 283.91C204.389 292.14 227.753 275.679 227.753 283.91L219.965 218.019L165.405 160.359Z" fill="#0000C4" stroke="black" stroke-width="0.452327"/>
<path fill-rule="evenodd" clip-rule="evenodd" d="M180.98 176.82C180.98 185.051 173.192 250.941 196.6 267.449C212.176 283.91 251.16 279.446 251.16 279.446L219.964 218.019L180.98 176.82V176.82Z" fill="#E10000" stroke="black" stroke-width="0.452327"/>
<path fill-rule="evenodd" clip-rule="evenodd" d="M148.801 144.001L220.301 219.401L221.601 218.201L150.001 142.801L148.801 144.001V144.001Z" fill="black"/>
<path fill-rule="evenodd" clip-rule="evenodd" d="M136.925 135.529L141.562 136.538L142.978 137.989C142.793 137.968 144.394 139.44 142.589 141.334C140.784 143.228 137.962 140.315 137.962 140.315C137.962 140.315 138.988 145.111 141.828 148.022C144.668 150.933 147.882 150.483 147.882 150.483C147.882 150.483 144.681 147.751 146.855 145.686C149.032 143.602 150.077 145.243 150.077 145.243L152.909 148.146L154.724 146.242L143.388 134.622L142.362 129.826L135.331 128.374L136.927 135.51L136.925 135.529Z" fill="#CECECC" stroke="black" stroke-width="0.130135"/>
<path fill-rule="evenodd" clip-rule="evenodd" d="M150.673 103.163L156.003 111.275L163.005 112.875L158.315 115.884L166.722 115.353L170.45 117.838L171.874 115.702L168.136 113.21L165.4 105.233L164.419 110.732L160.257 104.872L150.671 103.144L150.673 103.163Z" fill="#CECECC" stroke="black" stroke-width="0.134907"/>
<path fill-rule="evenodd" clip-rule="evenodd" d="M171.018 109.358C171.018 109.826 170.412 110.224 169.715 110.224C169.018 110.224 168.382 109.826 168.382 109.358C168.382 108.89 168.988 108.469 169.715 108.469C170.442 108.469 171.018 108.867 171.018 109.358ZM169.139 111.207C169.139 119.584 175.472 155.152 175.987 156.018C176.017 157.071 174.533 157.515 173.836 156.228C171.836 152.157 167.533 118.788 167.382 110.996C167.291 107.79 168.503 107.533 169.897 107.603C171.018 107.65 172.412 108.469 172.412 109.452C172.412 110.622 170.654 111.487 169.139 111.207V111.207Z" fill="#E10000" stroke="black" stroke-width="0.266274"/>
<path fill-rule="evenodd" clip-rule="evenodd" d="M172.194 113.215C171.966 113.655 171.202 113.889 170.547 113.728C169.891 113.567 169.486 113.046 169.714 112.606C169.942 112.166 170.718 111.91 171.402 112.078C172.086 112.246 172.433 112.753 172.194 113.215ZM169.526 114.519C171.504 130.232 164.402 154.602 164.453 155.557C163.98 156.532 162.356 156.629 162.339 155.236C162.002 154.335 170.142 132.303 167.976 113.915C169.452 110.88 170.718 110.918 171.994 111.306C173.026 111.609 173.938 112.701 173.459 113.625C172.889 114.725 170.815 115.133 169.526 114.519V114.519Z" fill="#0000C4" stroke="black" stroke-width="0.269661"/>
<path fill-rule="evenodd" clip-rule="evenodd" d="M154.908 139.359C154.908 140.119 154.134 140.765 153.244 140.765C152.354 140.765 151.541 140.119 151.541 139.359C151.541 138.599 152.315 137.915 153.244 137.915C154.173 137.915 154.908 138.561 154.908 139.359ZM152.509 142.361C152.509 155.965 160.597 213.725 161.255 215.131C161.293 216.841 159.397 217.563 158.507 215.473C155.953 208.861 150.457 154.673 150.264 142.019C150.148 136.813 151.696 136.395 153.476 136.509C154.908 136.585 156.688 137.915 156.688 139.511C156.688 141.411 154.444 142.817 152.509 142.361V142.361Z" fill="#E10000" stroke="black" stroke-width="0.383484"/>
<path fill-rule="evenodd" clip-rule="evenodd" d="M156.947 145.14C156.657 145.86 155.68 146.248 154.841 145.99C154.001 145.733 153.481 144.886 153.771 144.166C154.061 143.446 155.052 143.022 155.928 143.29C156.804 143.559 157.251 144.384 156.947 145.14ZM153.538 147.29C156.133 172.922 147.142 212.756 147.212 214.314C146.61 215.91 144.532 216.081 144.504 213.807C144.07 212.339 154.398 176.313 151.552 146.316C153.429 141.35 155.048 141.402 156.684 142.026C158.005 142.512 159.177 144.287 158.568 145.799C157.843 147.599 155.189 148.282 153.538 147.29V147.29Z" fill="#0000C4" stroke="black" stroke-width="0.384938"/>
<path fill-rule="evenodd" clip-rule="evenodd" d="M289.6 244.2L344.3 301.9L345.3 300.7L290.6 242.9L289.6 244.2ZM251.6 253.6L323 329L324.2 327.8L252.7 252.4L251.4 253.6H251.6Z" fill="black"/>
<path fill-rule="evenodd" clip-rule="evenodd" d="M321.91 329.074L327.846 335.099L334.703 340.239L329.687 333.329L323.751 327.304L321.91 329.074Z" fill="#808080" stroke="black" stroke-width="0.340239"/>
<path fill-rule="evenodd" clip-rule="evenodd" d="M340.41 299.574L346.346 305.599L353.203 310.739L348.187 303.829L342.251 297.804L340.41 299.574Z" fill="#808080" stroke="black" stroke-width="0.340239"/>
<path fill-rule="evenodd" clip-rule="evenodd" d="M336.091 112.082C336.091 112.082 342.109 275.67 318.037 275.67C293.965 275.67 281.895 258.465 281.895 258.465L282.167 168.555L336.091 112.082V112.082Z" fill="#FFDF00" stroke="black" stroke-width="0.406497"/>
<path fill-rule="evenodd" clip-rule="evenodd" d="M321.369 127.342C321.369 135.944 324.055 258.465 312.019 258.465C299.983 258.465 281.895 249.862 281.895 249.862L282.167 168.555L321.369 127.342V127.342Z" fill="#0000C4" stroke="black" stroke-width="0.406497"/>
<path fill-rule="evenodd" clip-rule="evenodd" d="M313.549 135.604C313.549 144.206 312.019 241.26 299.949 241.26H281.895L282.167 168.554L313.549 135.604Z" fill="#E10000" stroke="black" stroke-width="0.406497"/>
<path fill-rule="evenodd" clip-rule="evenodd" d="M337.399 112.202L282.799 170.002L281.799 168.802L336.499 111.102L337.499 112.302L337.399 112.202Z" fill="black"/>
<path fill-rule="evenodd" clip-rule="evenodd" d="M295.678 155.4C295.678 155.4 311.226 174.962 318.688 190.174C326.144 205.419 334.812 228.704 334.812 228.704C334.812 228.704 329.924 205.704 320.53 187.378C308.214 164.334 295.663 156.725 295.678 155.4Z" fill="#005B00" stroke="black" stroke-width="0.192616"/>
<path fill-rule="evenodd" clip-rule="evenodd" d="M292.49 140.273C292.49 140.273 309.268 163.679 316.931 181.139C324.584 198.632 333.11 224.915 333.11 224.915C333.11 224.915 328.963 199.543 319.261 178.445C306.475 151.835 292.383 141.688 292.49 140.273Z" fill="#005B00" stroke="black" stroke-width="0.213946"/>
<path fill-rule="evenodd" clip-rule="evenodd" d="M309.11 117.718C309.11 117.718 321.377 153.649 325.145 175.825C328.893 198.021 331.226 228.536 331.226 228.536C331.226 228.536 333.503 202.971 328.46 175.752C321.49 140.897 308.609 118.822 309.11 117.718Z" fill="#005B00" stroke="black" stroke-width="0.248397"/>
<path fill-rule="evenodd" clip-rule="evenodd" d="M296.542 115.587C296.542 115.587 312.79 147.665 319.038 169.455C325.268 191.277 331.031 222.754 331.031 222.754C331.031 222.754 330.409 194.167 322.324 167.641C311.462 133.941 296.169 117.033 296.542 115.587Z" fill="#005B00" stroke="black" stroke-width="0.2499"/>
<path fill-rule="evenodd" clip-rule="evenodd" d="M317.712 124.598C317.712 124.598 326.256 159.175 328.493 179.883C330.713 200.605 331.515 228.626 331.515 228.626C331.515 228.626 334.222 205.855 331.142 180.368C326.789 147.646 317.273 125.514 317.712 124.598Z" fill="#005B00" stroke="black" stroke-width="0.22351"/>
<path fill-rule="evenodd" clip-rule="evenodd" d="M294.153 126.531C294.153 126.531 310.366 154.104 317.029 173.378C323.678 192.682 330.341 220.893 330.341 220.893C330.341 220.893 328.479 194.749 319.932 171.341C308.538 141.67 293.879 127.899 294.153 126.531Z" fill="#005B00" stroke="black" stroke-width="0.227747"/>
<path fill-rule="evenodd" clip-rule="evenodd" d="M292.38 145.148C292.38 145.148 309.14 167.05 316.735 183.843C324.32 200.67 332.71 226.232 332.71 226.232C332.71 226.232 328.74 201.173 319.115 180.922C306.42 155.432 292.26 146.577 292.38 145.148Z" fill="#005B00" stroke="black" stroke-width="0.216599"/>
<path fill-rule="evenodd" clip-rule="evenodd" d="M294.584 134.729C294.584 134.729 310.255 159.72 317.089 177.876C323.912 196.064 331.189 223.093 331.189 223.093C331.189 223.093 328.251 197.41 319.55 175.427C308.026 147.645 294.41 136.128 294.584 134.729Z" fill="#005B00" stroke="black" stroke-width="0.213737"/>
<path fill-rule="evenodd" clip-rule="evenodd" d="M312.883 118.498C312.883 118.498 323.129 153.72 325.675 175.181C328.202 196.66 328.875 225.983 328.875 225.983C328.875 225.983 332.513 201.726 328.971 175.353C323.927 141.546 312.326 119.516 312.883 118.498Z" fill="#005B00" stroke="black" stroke-width="0.241944"/>
<path fill-rule="evenodd" clip-rule="evenodd" d="M299.357 109.867C299.357 109.867 313.99 143.33 319.164 165.622C324.32 187.944 328.549 219.846 328.549 219.846C328.549 219.846 329.297 191.296 322.521 164.115C313.325 129.531 298.915 111.274 299.357 109.867Z" fill="#005B00" stroke="black" stroke-width="0.250415"/>
<path fill-rule="evenodd" clip-rule="evenodd" d="M321.442 128.059C321.442 128.059 327.974 161.166 329.024 180.792C330.056 200.43 329.266 226.83 329.266 226.83C329.266 226.83 333.245 205.612 331.628 181.434C329.156 150.365 320.954 128.89 321.442 128.059Z" fill="#005B00" stroke="black" stroke-width="0.214288"/>
<path fill-rule="evenodd" clip-rule="evenodd" d="M295.675 120.313C295.675 120.313 310.889 149.245 316.579 169.194C322.252 189.173 327.309 218.191 327.309 218.191C327.309 218.191 327.189 191.553 319.797 167.298C309.834 136.521 295.288 121.685 295.675 120.313Z" fill="#005B00" stroke="black" stroke-width="0.236424"/>
<path fill-rule="evenodd" clip-rule="evenodd" d="M353.272 143.854C353.272 143.854 368.848 300.373 322.12 300.373C283.18 300.373 283.18 275.681 275.392 275.681L283.18 218.021L353.316 143.854H353.272Z" fill="#FFDF00" stroke="black" stroke-width="0.452327"/>
<path fill-rule="evenodd" clip-rule="evenodd" d="M337.695 160.361C337.695 168.592 353.271 259.22 314.287 283.912C298.711 292.142 275.347 275.681 275.347 283.912L283.135 218.021L337.695 160.361Z" fill="#0000C4" stroke="black" stroke-width="0.452327"/>
<path fill-rule="evenodd" clip-rule="evenodd" d="M322.12 176.822C322.12 185.053 329.908 250.943 306.5 267.451C290.924 283.912 251.94 279.448 251.94 279.448L283.136 218.021L322.12 176.822V176.822Z" fill="#E10000" stroke="black" stroke-width="0.452327"/>
<path fill-rule="evenodd" clip-rule="evenodd" d="M354.3 144.001L282.8 219.401L281.5 218.201L353.1 142.801L354.3 144.001Z" fill="black"/>
<path fill-rule="evenodd" clip-rule="evenodd" d="M366.274 135.529L361.637 136.538L360.221 137.989C360.406 137.968 358.805 139.44 360.61 141.334C362.416 143.228 365.237 140.315 365.237 140.315C365.237 140.315 364.211 145.111 361.371 148.022C358.531 150.933 355.317 150.483 355.317 150.483C355.317 150.483 358.519 147.751 356.344 145.686C354.167 143.602 353.123 145.243 353.123 145.243L350.291 148.146L348.475 146.242L359.811 134.622L360.838 129.826L367.868 128.374L366.272 135.51L366.274 135.529Z" fill="#CECECC" stroke="black" stroke-width="0.130135"/>
<path fill-rule="evenodd" clip-rule="evenodd" d="M352.327 103.164L346.997 111.276L339.995 112.876L344.685 115.886L336.278 115.354L332.55 117.839L331.126 115.703L334.864 113.211L337.6 105.234L338.581 110.733L342.743 104.873L352.329 103.145L352.327 103.164Z" fill="#CECECC" stroke="black" stroke-width="0.134907"/>
<path fill-rule="evenodd" clip-rule="evenodd" d="M331.982 109.36C331.982 109.828 332.588 110.226 333.285 110.226C333.982 110.226 334.618 109.828 334.618 109.36C334.618 108.892 334.012 108.471 333.285 108.471C332.558 108.471 331.982 108.869 331.982 109.36ZM333.861 111.209C333.861 119.586 327.528 155.154 327.013 156.02C326.983 157.073 328.467 157.517 329.164 156.23C331.164 152.159 335.467 118.79 335.618 110.998C335.709 107.792 334.497 107.535 333.103 107.605C331.982 107.652 330.588 108.471 330.588 109.454C330.588 110.624 332.346 111.489 333.861 111.209V111.209Z" fill="#E10000" stroke="black" stroke-width="0.266274"/>
<path fill-rule="evenodd" clip-rule="evenodd" d="M330.906 113.217C331.134 113.657 331.897 113.891 332.553 113.73C333.208 113.569 333.613 113.048 333.385 112.608C333.157 112.168 332.382 111.912 331.698 112.08C331.014 112.248 330.666 112.755 330.906 113.217ZM333.573 114.521C331.595 130.234 338.698 154.604 338.646 155.559C339.119 156.534 340.744 156.631 340.761 155.238C341.097 154.337 332.958 132.305 335.124 113.917C333.647 110.882 332.382 110.92 331.105 111.308C330.073 111.611 329.161 112.703 329.64 113.627C330.21 114.727 332.285 115.135 333.573 114.521V114.521Z" fill="#0000C4" stroke="black" stroke-width="0.269661"/>
<path fill-rule="evenodd" clip-rule="evenodd" d="M348.092 139.361C348.092 140.121 348.866 140.767 349.756 140.767C350.646 140.767 351.459 140.121 351.459 139.361C351.459 138.601 350.685 137.917 349.756 137.917C348.827 137.917 348.092 138.563 348.092 139.361ZM350.491 142.363C350.491 155.967 342.403 213.727 341.745 215.133C341.707 216.843 343.603 217.565 344.493 215.475C347.047 208.863 352.543 154.675 352.736 142.021C352.852 136.815 351.304 136.397 349.524 136.511C348.092 136.587 346.312 137.917 346.312 139.513C346.312 141.413 348.556 142.819 350.491 142.363V142.363Z" fill="#E10000" stroke="black" stroke-width="0.383484"/>
<path fill-rule="evenodd" clip-rule="evenodd" d="M346.153 145.14C346.443 145.86 347.419 146.248 348.259 145.99C349.098 145.733 349.618 144.886 349.328 144.166C349.038 143.446 348.047 143.022 347.171 143.29C346.295 143.559 345.848 144.384 346.153 145.14ZM349.561 147.29C346.967 172.922 355.957 212.756 355.888 214.314C356.489 215.91 358.568 216.081 358.595 213.807C359.029 212.339 348.702 176.313 351.548 146.316C349.671 141.35 348.051 141.402 346.416 142.026C345.094 142.512 343.923 144.287 344.532 145.799C345.257 147.599 347.91 148.282 349.561 147.29V147.29Z" fill="#0000C4" stroke="black" stroke-width="0.384938"/>
<path fill-rule="evenodd" clip-rule="evenodd" d="M227.796 341.57C231.351 343.728 235.378 344.864 239.478 344.864C243.577 344.864 247.605 343.728 251.16 341.57V275.68H235.584C243.372 300.371 243.372 325.109 227.752 341.57H227.796Z" fill="#E10000" stroke="black" stroke-width="0.452327"/>
<path fill-rule="evenodd" clip-rule="evenodd" d="M239.356 276.178C239.356 322.552 228.094 332.875 228.094 342.202C232.784 342.202 235.911 337.853 239.356 331.88C244.047 322.552 244.497 275.445 244.047 276.178H239.356Z" fill="#0000C4" stroke="black" stroke-width="0.372639"/>
<path fill-rule="evenodd" clip-rule="evenodd" d="M229.976 276.179C229.738 303.27 218.104 328.369 220.304 333.924C222.795 338.902 229.976 322.553 239.357 331.828C244.048 322.553 244.498 275.445 244.048 276.126H229.976V276.179Z" fill="#0000C4" stroke="black" stroke-width="0.372639"/>
<path fill-rule="evenodd" clip-rule="evenodd" d="M231.157 276.426C231.157 307.401 220.371 309.466 220.371 317.726C225.062 317.726 231.13 313.211 231.157 313.631C235.847 307.401 236.298 275.936 235.847 276.426H231.157Z" fill="#FFDF00" stroke="black" stroke-width="0.304549"/>
<path fill-rule="evenodd" clip-rule="evenodd" d="M221.776 276.426C221.537 294.521 210.169 309.921 212.368 313.631C214.886 316.921 221.776 307.401 231.157 313.631C235.847 307.401 236.298 275.936 235.847 276.426H221.776Z" fill="#FFDF00" stroke="black" stroke-width="0.304549"/>
<path fill-rule="evenodd" clip-rule="evenodd" d="M275.304 341.57C271.749 343.728 267.721 344.864 263.622 344.864C259.522 344.864 255.494 343.728 251.94 341.57V275.68H267.516C259.728 300.371 259.728 325.109 275.348 341.57H275.304Z" fill="#E10000" stroke="black" stroke-width="0.452327"/>
<path fill-rule="evenodd" clip-rule="evenodd" d="M263.743 276.178C263.743 322.552 275.006 332.875 275.006 342.202C270.315 342.202 267.188 337.853 263.743 331.88C259.053 322.552 258.602 275.445 259.053 276.178H263.743Z" fill="#0000C4" stroke="black" stroke-width="0.372639"/>
<path fill-rule="evenodd" clip-rule="evenodd" d="M273.123 276.179C273.362 303.27 284.995 328.369 282.796 333.924C280.305 338.902 273.123 322.553 263.742 331.828C259.052 322.553 258.601 275.445 259.052 276.126H273.123V276.179Z" fill="#0000C4" stroke="black" stroke-width="0.372639"/>
<path fill-rule="evenodd" clip-rule="evenodd" d="M272.043 276.426C272.043 307.401 282.828 309.466 282.828 317.726C278.138 317.726 272.069 313.211 272.043 313.631C267.352 307.401 266.902 275.936 267.352 276.426H272.043Z" fill="#FFDF00" stroke="black" stroke-width="0.304549"/>
<path fill-rule="evenodd" clip-rule="evenodd" d="M281.423 276.426C281.662 294.521 293.03 309.921 290.831 313.631C288.313 316.921 281.423 307.401 272.042 313.631C267.352 307.401 266.901 275.936 267.352 276.426H281.423Z" fill="#FFDF00" stroke="black" stroke-width="0.304549"/>
<path fill-rule="evenodd" clip-rule="evenodd" d="M192.274 282.759L184.201 288.777L192.274 294.795L196.306 291.786L198.322 294.795L200.338 300.813L202.363 294.795L204.379 291.786H312.55V285.768H204.37L202.354 282.742C202.354 279.733 202.777 276.724 204.379 276.724H212.443C212.443 273.715 208.411 267.697 200.338 267.697C192.274 267.697 188.233 273.715 188.233 276.724H196.306C197.899 276.724 198.322 279.733 198.322 282.759L196.306 285.768L192.265 282.742L192.274 282.759Z" fill="#908F8A" stroke="black" stroke-width="0.556619"/>
<path fill-rule="evenodd" clip-rule="evenodd" d="M216.004 297.01H286.711V300.674H216.025L216.004 297.01ZM216.004 293.325H286.711V297.01H216.025L216.004 293.325ZM216.004 289.661H286.711V293.346H216.025L216.004 289.661ZM216.004 285.998H286.711V289.661H216.025L216.004 285.998ZM216.004 282.334H286.711V285.998H216.025L216.004 282.334ZM216.004 278.649H286.711V282.334H216.025L216.004 278.649ZM216.004 275.006H286.711V278.649H216.025L216.004 275.006Z" fill="#B74D00" stroke="black" stroke-width="0.37529"/>
<path fill-rule="evenodd" clip-rule="evenodd" d="M220.209 274.961L246.391 300.629H250.134L223.971 274.982H220.228L220.209 274.961Z" fill="#908F8A" stroke="black" stroke-width="0.654449"/>
<path fill-rule="evenodd" clip-rule="evenodd" d="M220.209 300.639L246.391 274.971H250.134L223.971 300.618H220.228L220.209 300.639Z" fill="#908F8A" stroke="black" stroke-width="0.654449"/>
<path fill-rule="evenodd" clip-rule="evenodd" d="M219.793 274.961V300.629H223.51V274.961H219.793V274.961Z" fill="#908F8A" stroke="black" stroke-width="0.646333"/>
<path fill-rule="evenodd" clip-rule="evenodd" d="M253.607 274.961L279.789 300.629H283.532L257.369 274.982H253.626L253.607 274.961Z" fill="#908F8A" stroke="black" stroke-width="0.654449"/>
<path fill-rule="evenodd" clip-rule="evenodd" d="M253.607 300.639L279.789 274.971H283.532L257.369 300.618H253.626L253.607 300.639Z" fill="#908F8A" stroke="black" stroke-width="0.654449"/>
<path fill-rule="evenodd" clip-rule="evenodd" d="M279.293 274.961V300.629H283.01V274.961H279.293V274.961Z" fill="#908F8A" stroke="black" stroke-width="0.646333"/>
<path fill-rule="evenodd" clip-rule="evenodd" d="M253.293 274.961V300.629H257.01V274.961H253.293V274.961Z" fill="#908F8A" stroke="black" stroke-width="0.646333"/>
<path fill-rule="evenodd" clip-rule="evenodd" d="M245.793 274.961V300.629H249.51V274.961H245.793V274.961Z" fill="#908F8A" stroke="black" stroke-width="0.646333"/>
<path fill-rule="evenodd" clip-rule="evenodd" d="M305.72 201.558C305.72 242.478 281.256 275.679 251.16 275.679C221.064 275.679 196.6 242.478 196.6 201.558C196.6 160.638 221.02 127.391 251.16 127.391C281.3 127.391 305.72 160.592 305.72 201.512V201.558ZM297.932 201.558C297.932 237.921 276.988 267.449 251.16 267.449C225.332 267.449 204.388 237.921 204.388 201.558C204.388 165.149 225.332 135.621 251.16 135.621C276.988 135.621 297.932 165.149 297.932 201.558V201.558Z" fill="#FFDF00" stroke="black" stroke-width="0.452327"/>
<path fill-rule="evenodd" clip-rule="evenodd" d="M272.412 133.25C265.856 129.483 258.684 127.391 251.16 127.391C243.636 127.391 236.464 129.483 229.908 133.203L232.988 140.829C238.521 137.458 244.796 135.684 251.182 135.684C257.569 135.684 263.843 137.458 269.376 140.829L272.412 133.203V133.25Z" fill="#FFDF00" stroke="black" stroke-width="0.452327"/>
<path fill-rule="evenodd" clip-rule="evenodd" d="M272.512 270.149C265.956 273.915 258.784 276.008 251.26 276.008C243.736 276.008 236.564 273.915 230.008 270.195L233.088 262.569C238.621 265.94 244.895 267.714 251.282 267.714C257.668 267.714 263.943 265.94 269.476 262.569L272.512 270.195V270.149Z" fill="#FFDF00" stroke="black" stroke-width="0.452327"/>
<path fill-rule="evenodd" clip-rule="evenodd" d="M298 201.5C298 237.9 277 267.4 251.2 267.4C225.3 267.4 204.4 237.9 204.4 201.5C204.4 165.1 225.4 135.6 251.2 135.6C277 135.6 297.9 165.1 297.9 201.5H298Z" fill="#A7CFFF"/>
<path fill-rule="evenodd" clip-rule="evenodd" d="M297.931 201.558C298.415 213.927 295.907 219.972 292.695 232.852C291.859 234.247 287.855 229.83 285.479 227.644C283.103 225.459 282.047 229.597 279.055 226.249C276.107 222.808 274.215 227.179 272.015 224.296C269.815 221.413 249.443 221.041 249.443 220.762C251.467 219.739 261.851 220.855 260.179 215.601C258.287 210.114 246.539 215.415 244.955 208.44C243.855 201.465 221.371 201.186 219.743 199.512C220.403 202.116 237.255 203.232 236.859 209.974C236.463 212.764 220.271 213.555 218.687 215.88C217.367 218.809 231.447 215.089 231.931 218.67C231.931 220.158 229.863 218.67 222.559 220.995C218.863 222.157 229.335 225.784 225.375 227.784C221.415 229.783 212.923 230.667 213.275 231.504C214.595 235.689 232.943 240.618 231.139 241.315C224.627 244.384 221.195 246.384 218.071 248.151C208.918 234.563 204.122 218.235 204.387 201.558C218.335 196.257 215.387 195.141 241.171 195.141C266.955 195.141 275.491 196.21 297.931 201.558V201.558Z" fill="#AFFF7B" stroke="black" stroke-width="0.452327"/>
<path fill-rule="evenodd" clip-rule="evenodd" d="M297.933 201.558C294.413 201.558 290.717 203.139 286.933 203.139C283.105 203.139 279.233 201.511 275.273 201.511C271.313 201.511 266.781 203.65 262.733 203.65C258.641 203.65 255.077 201.558 250.985 201.558C246.893 201.558 242.801 203.139 238.753 203.139C234.705 203.139 230.701 201.511 226.785 201.511C222.869 201.511 218.997 203.139 215.257 203.139C211.517 203.139 207.865 201.511 204.389 201.511C204.389 192.444 205.709 183.795 208.085 175.89C219.965 176.82 212.925 168.589 219.965 168.589C222.02 168.472 224.075 168.817 225.994 169.603C227.914 170.388 229.653 171.596 231.097 173.146C232.153 173.146 237.433 167.845 243.373 168.589C249.269 169.333 247.113 181.284 254.989 181.888C258.949 185.05 261.281 187.05 266.737 188.352C274.525 189.096 296.833 187.189 296.965 188.259C297.607 192.659 297.931 197.105 297.933 201.558V201.558Z" fill="white" stroke="black" stroke-width="0.452327"/>
<path fill-rule="evenodd" clip-rule="evenodd" d="M259.234 241.663C259.234 239.593 261.327 238.214 261.327 234.911C261.327 231.607 259.467 231.535 259.405 228.449C259.374 227.179 261.001 225.908 261.714 225.763C262.427 225.618 263.032 228.449 263.032 229.066C263.032 229.684 262.303 227.542 261.699 227.506C261.094 227.469 259.792 227.723 259.792 228.34C259.792 229.575 262.086 231.099 261.916 235.237C261.745 239.303 259.947 240.537 259.947 241.771C259.947 243.006 260.722 246.418 260.722 246.418C260.722 246.418 259.219 243.695 259.219 241.626L259.234 241.663Z" fill="black" stroke="black" stroke-width="0.237202"/>
<path fill-rule="evenodd" clip-rule="evenodd" d="M261.266 241.361C261.266 239.292 259.173 237.913 259.173 234.61C259.173 231.306 261.033 231.234 261.095 228.148C261.25 226.696 259.266 225.752 258.553 225.644C257.84 225.535 257.003 228.547 257.003 229.128C257.003 229.709 257.84 227.241 258.445 227.204C259.049 227.168 260.708 227.422 260.708 228.039C260.708 229.273 258.414 230.798 258.584 234.936C258.755 239.002 260.553 240.236 260.553 241.47C260.553 242.704 259.778 246.117 259.778 246.117C259.778 246.117 261.281 243.394 261.281 241.325L261.266 241.361Z" fill="black" stroke="black" stroke-width="0.237202"/>
<path fill-rule="evenodd" clip-rule="evenodd" d="M261.3 224.499C261.3 225.499 260.8 226.399 260.3 226.399C259.6 226.399 259.1 225.599 259.1 224.499C259.1 223.399 259.6 222.699 260.2 222.699C260.8 222.699 261.3 223.499 261.3 224.499V224.499ZM275.4 229.999H275.8V244.699H275.4V229.999ZM278.6 228.799H279V243.599H278.6V228.799Z" fill="black"/>
<path fill-rule="evenodd" clip-rule="evenodd" d="M276.1 237V236.5L279.1 237.1V237.4L276.1 237Z" fill="black"/>
<path fill-rule="evenodd" clip-rule="evenodd" d="M234.112 239.77C234.112 239.77 245.552 245.071 248.06 248.233C250.524 251.395 249.556 251.395 249.556 251.395L274.944 252.465C274.944 250.884 279.432 250.884 280.444 247.164C281.456 243.49 281.456 242.421 281.456 242.421L273.492 245.071L273.932 240.328H266.98L265.968 245.071L251.008 244.56L252.02 231.865L249.028 232.377L248.588 244.467C248.06 244.467 234.596 240.793 234.068 239.77H234.112Z" fill="#B74D00" stroke="black" stroke-width="0.452327"/>
<path fill-rule="evenodd" clip-rule="evenodd" d="M211.119 164.08C211.119 164.08 227.707 158.872 251.643 159.244C275.579 159.616 292.167 165.196 291.815 165.196C291.463 165.196 287.239 156.64 287.239 156.64C287.239 156.64 270.343 151.757 251.291 151.385C232.283 151.013 215.695 155.105 216.091 155.477L211.119 164.08V164.08Z" fill="#FEDE00" stroke="#FEDE00" stroke-width="0.452327"/>
<path fill-rule="evenodd" clip-rule="evenodd" d="M241.001 152.8L251.301 152.6V158.6L241.101 158.8L241.001 152.8ZM217.401 156.1L213.801 162L226.001 160.5L225.001 154.5L217.401 156.1ZM227.801 153.8L238.001 152.9L238.501 158.9L228.301 159.8L227.801 153.8ZM264.701 153.2L254.501 152.5L254.101 158.5L264.301 159.2L264.701 153.2ZM286.701 157L290.401 164.3L279.401 161.5L280.601 155.7L286.701 157ZM277.801 154.8L267.701 153.5L267.001 159.4L277.101 160.7L277.801 154.8Z" fill="#38A9F9"/>
<path fill-rule="evenodd" clip-rule="evenodd" d="M251.643 167.427L250.543 161.149L247.199 166.497L248.431 160.219L243.459 163.8L246.803 158.545L240.907 159.847L245.967 156.313L240.027 155.151L245.967 153.942L240.907 150.408L246.803 151.71L243.415 146.455L248.431 150.036L247.199 143.758L250.543 149.106L251.643 142.828L252.787 149.106L256.087 143.758L254.899 150.036L259.871 146.455L256.483 151.71L262.423 150.408L257.363 153.942L263.303 155.151L257.363 156.313L262.423 159.847L256.483 158.545L259.871 163.8L254.899 160.219L256.131 166.497L252.787 161.149L251.643 167.427Z" fill="#FFDF00" stroke="black" stroke-width="0.452327"/>
<path fill-rule="evenodd" clip-rule="evenodd" d="M259.009 155.034C259.009 158.642 256.171 161.552 252.645 161.552C249.119 161.552 246.281 158.642 246.281 155.034C246.281 151.425 249.119 148.477 252.645 148.477C256.171 148.477 259.009 151.425 259.009 155.073V155.034Z" fill="#FFDF00" stroke="black" stroke-width="0.408461"/>
<path fill-rule="evenodd" clip-rule="evenodd" d="M252.001 153.4C252.001 153.8 251.101 154.1 250.001 154.1C248.901 154.1 247.801 153.8 247.801 153.4C247.801 153 248.801 152.6 249.901 152.6C251.001 152.6 252.101 153 252.101 153.4H252.001ZM256.701 153.4C256.701 153.8 255.901 154.1 255.101 154.1C254.301 154.1 253.501 153.8 253.501 153.4C253.501 153 254.201 152.6 255.101 152.6C256.001 152.6 256.601 153 256.601 153.4H256.701Z" fill="black"/>
<path d="M251.074 155.982L251.512 156.233C250.458 155.592 250.939 155.83 252.589 157.449C253.542 156.909 253.725 156.415 254.319 155.745" stroke="black" stroke-width="0.45304"/>
<path d="M248.833 158.5L249.185 158.872C248.349 157.942 248.745 158.407 250.593 159.616C252.353 159.848 254.157 159.058 255.213 157.756" stroke="black" stroke-width="0.452327"/>
<path fill-rule="evenodd" clip-rule="evenodd" d="M223.5 170.699C223.5 170.699 224.2 176.699 219.5 184.199C215 191.599 215.7 188.999 215.7 188.999C215.7 188.999 217.8 192.999 217.5 192.999C217.2 192.999 213.9 189.399 213.9 189.399L210.1 193.399C210.1 193.399 213.6 187.099 213.2 187.099C212.8 187.099 212.2 184.899 212.2 184.899L215 183.799C215 183.799 219.2 175.999 219.2 176.299C219.2 176.599 206.5 184.899 206.5 184.899L223.5 170.699V170.699ZM226.3 172.999C225.9 172.999 228 178.999 229.8 181.999C230.9 184.031 231.516 186.29 231.6 188.599L237.6 191.599L229.8 180.099L234.8 181.899L226.3 172.899V172.999ZM226.3 188.599C226.3 188.599 230.5 193.099 230.9 194.599C231.3 196.099 231.2 199.399 231.2 199.399L229.5 195.699L227 199.099C227 199.099 228.8 193.799 228.4 193.499C228 193.199 225.6 195.299 225.6 195.299L226.6 191.999C226.6 191.699 226.6 189.699 226.3 188.599V188.599ZM205 199.099C206.4 197.899 209.3 197.099 209.3 197.099C209.3 197.099 207.5 200.099 207.1 200.099C206.7 200.099 205.7 200.099 205.1 199.099H205ZM253.7 182.699C253.7 182.699 262.8 188.299 262.8 188.699C262.8 189.099 256.8 185.999 256.8 185.999L253.7 182.699V182.699ZM237.2 170.999C237.9 171.399 250.6 181.799 250.2 181.799C249.8 181.799 244.6 178.799 244.6 179.199V181.799L241.8 175.799L241.1 178.099L237.2 171.099V170.999ZM240.4 187.799L243.9 194.799L247.4 194.099C247.4 194.099 240.7 187.799 240.4 187.799ZM251.4 183.299L251.7 189.999C251.7 189.999 253.7 191.899 253.7 191.499C253.7 191.099 251.7 183.699 251.3 183.299H251.4Z" fill="#B7E1FF"/>
<path fill-rule="evenodd" clip-rule="evenodd" d="M147.801 92.1996C147.801 92.1996 163.701 83.4996 181.801 76.8996C195.039 72.0514 208.697 68.436 222.601 66.0996C228.001 66.0996 237.101 79.4996 238.601 79.4996C240.201 79.4996 246.301 75.7996 253.901 75.7996C261.501 75.7996 266.101 81.7996 267.701 81.7996H281.401C282.901 81.7996 276.801 66.7996 281.401 67.5996C283.701 67.9996 303.201 70.9996 321.301 76.7996C339.401 82.7996 365.101 93.0996 365.101 93.0996C365.101 93.0996 323.101 98.6996 311.901 97.0996C310.401 97.7996 311.901 106.9 309.701 102.9C306.201 102.1 293.301 100.1 291.001 100.1C288.701 100.1 284.501 102.7 278.401 104.1C273.777 105.278 269.176 106.545 264.601 107.9L274.601 123.5L262.301 129.5C262.301 129.5 254.701 111.6 251.601 111.6C248.501 111.6 247.101 124.3 243.201 123.6C239.401 122.8 237.901 111.6 234.901 108.6C231.801 105.6 215.701 104.6 209.601 103.1C203.501 101.6 193.601 100.4 188.301 98.8996C183.001 97.3996 177.601 102.7 175.301 102.7C173.001 102.7 178.301 98.1996 176.101 97.3996C173.901 96.5996 172.301 99.6996 170.701 99.6996C169.201 99.6996 153.201 96.6996 151.701 95.8996C150.101 95.1996 155.501 92.1996 154.001 92.1996H147.901H147.801Z" fill="#984000"/>
<path fill-rule="evenodd" clip-rule="evenodd" d="M261.195 84.4998C261.195 88.7398 257.796 92.1798 253.621 92.1798C249.447 92.1798 246.064 88.7398 246.064 84.4998C246.064 80.2598 249.447 76.8398 253.621 76.8398C257.796 76.8398 261.195 80.2798 261.195 84.4998Z" fill="#808080" stroke="#772600" stroke-width="0.672138"/>
<path fill-rule="evenodd" clip-rule="evenodd" d="M223.648 86.2002C225.029 84.6162 226.738 82.2162 231.209 82.2162C232.239 81.8082 232.239 79.4082 234.628 79.4082C237.038 79.4082 236.338 81.8082 238.068 82.6242C239.778 83.4162 253.848 81.8082 253.848 81.8082C253.848 81.8082 255.208 83.0082 255.208 84.6162C255.208 86.2242 254.178 87.4002 253.848 87.4002C253.518 87.4002 239.778 86.2002 238.748 86.6082C237.718 87.0162 237.038 87.4002 234.628 87.4002C232.239 87.4002 231.538 84.6162 229.828 84.6162C228.119 84.6162 226.409 84.2082 223.648 86.2242V86.2002Z" fill="#984000" stroke="#772600" stroke-width="1.17846"/>
<path d="M241.488 121.391C241.282 121.391 240.829 120.095 240.128 118.991C239.634 117.551 239.016 118.367 238.398 116.183C238.48 113.927 238.542 113.543 238.398 111.383C236.997 110.231 236.4 109.895 235.308 107.783C233.577 106.103 235.576 103.223 235.905 101.111C234.381 100.727 233.639 103.871 231.311 104.999C229.622 106.319 231.105 102.263 230.281 99.9111C229.725 96.5751 228.057 101.591 227.439 103.007C226.306 103.895 225.955 105.047 224.349 103.391C224.349 102.167 225.358 98.7111 224.925 98.0391C223.319 98.9751 221.217 101.759 219.549 102.191C217.86 101.783 219.899 98.6391 219.899 96.3111C219.281 96.0711 216.871 102.503 215.882 102.551C214.893 102.599 215.326 96.3111 214.852 96.4551C214.131 97.6551 212.668 100.151 211.659 101.015C209.702 100.703 211.947 96.8151 212.236 95.3751C212.565 93.6471 210.402 98.6871 209.249 98.9991C208.404 99.8631 206.736 100.439 206.159 100.607C206.818 99.1191 210.073 96.1191 209.867 95.2551C207.951 95.3271 205.046 98.2551 203.419 98.6151C202.348 98.6151 200.865 99.0231 200.679 98.9991C200.762 97.0791 204.676 95.4951 205.294 94.3191C203.378 94.6791 199.69 96.6471 198.619 98.2071C197.342 98.5191 195.735 98.9271 194.499 98.2071C194.685 96.4071 197.569 92.9271 198.207 91.7751C196.456 92.6631 195.591 93.3591 193.737 93.7671C193.387 94.1751 192.398 95.0391 192.707 94.1751C193.263 92.4951 194.087 91.7751 194.767 90.5751C193.222 90.9111 192.645 91.9431 190.997 92.9751C189.947 93.0231 186.939 96.5511 185.93 96.5991C184.221 98.1682 182.227 99.2601 180.1 99.7911C178.534 100.127 177.772 100.511 177.01 101.399C177.793 99.7911 178.987 98.2791 180.1 97.4151C180.779 95.9583 181.871 94.8215 183.19 94.1991C183.581 93.6471 184.652 93.5031 183.519 93.4071C182.551 94.4151 180.903 95.5671 180.1 96.2151C179.049 96.9831 177.834 97.7511 177.339 97.4151C177.896 95.6871 178.884 95.2551 179.75 93.8151C181.562 92.4711 179.75 93.3351 178.369 93.8151C177.484 94.7271 175.897 95.4231 174.6 96.2151C173.158 96.6471 172.189 97.6551 170.48 98.2071C170.48 98.7831 170.974 97.1751 171.18 96.5991C172.581 94.8231 172.952 94.3191 174.6 93.8151C175.012 93.1191 175.506 93.4071 174.27 93.4071C173.322 94.3671 172.045 94.8951 170.83 95.8071C169.614 96.1191 168.028 96.2151 166.38 96.2151C164.238 96.5031 164.423 96.6951 166.38 95.3991C167.472 94.1991 168.378 94.5111 168.44 92.9991C167.142 94.1031 165.556 94.9191 163.97 95.8071C162.652 95.8551 162.301 96.2151 160.88 96.2151C161.56 95.3991 161.972 94.3671 162.94 93.8151C164.382 91.9671 162.034 93.4551 161.56 93.8151H156.41C155.503 95.1591 156.369 93.8151 157.11 92.9991C157.996 92.4711 158.923 91.7751 158.82 91.4151C157.79 92.4471 156.616 92.9271 155.73 93.8151C154.782 94.1511 153.67 94.2951 153.67 94.6071C154.432 93.3351 155.648 92.5431 156.43 91.4151C157.584 91.1271 158.573 90.6951 158.82 90.2151H154.02H157.44C159.191 90.2151 160.674 90.0231 162.26 89.8071C164.979 89.2791 162.013 89.0151 160.53 89.0151C160.262 88.3911 161.395 88.0551 162.59 87.8151C163.62 87.2391 164.918 86.7351 166.03 86.2071C167.012 85.8587 167.938 85.3235 168.77 84.6231C167.74 84.6711 167.74 84.9591 166.71 85.0071C168.255 84.8871 169.347 84.6231 171.18 84.6231C172.69 84.0432 174.175 83.3785 175.63 82.6311C176.248 81.7671 176.495 81.8151 174.95 81.8151C176.33 81.3111 178.287 81.0471 179.399 80.6151C180.819 80.2686 182.201 79.7373 183.519 79.0311C184.529 78.2391 185.106 77.3031 186.259 76.6311C187.598 77.6871 187.619 77.8311 190.029 77.8311C191.965 77.8071 193.16 77.2551 194.149 76.2231C195.632 75.7431 195.9 74.9271 197.589 74.6391C199.176 74.9297 200.782 75.0581 202.389 75.0231C204.037 74.5191 205.623 73.5831 206.839 72.6231C207.889 72.0231 209.146 71.1591 210.279 70.6311C211.515 71.3751 212.504 71.9751 214.049 72.2391C215.635 71.9511 216.479 71.0391 217.818 70.6311C218.644 69.6071 219.725 68.9104 220.908 68.6391C222.907 67.4871 222.762 68.9991 223.648 70.2231C224.678 71.4711 225.997 70.8711 227.418 71.4231C228.221 72.8631 228.798 73.8231 229.828 74.6151C230.632 75.7671 231.579 76.0551 233.268 76.2231C233.886 77.1831 233.392 77.8551 234.628 78.2151C235.122 78.8391 235.967 79.0791 236.688 79.4151M265.507 85.4151H270.987C272.965 85.4391 273.644 86.1351 275.457 86.2071H280.257C282.008 86.1351 282.935 85.6551 284.707 85.4151C287.694 85.3671 286.684 85.1031 286.087 83.0151C285.551 81.4551 285.469 80.7111 284.707 79.8231C284.418 77.9031 283.759 77.2311 283.677 75.0231C283.368 73.3431 282.791 72.2151 283.347 70.2231C284.13 71.5911 284.439 72.1431 286.437 72.2391C288.497 72.2391 289.3 72.1671 290.557 73.0311C291.505 74.2071 292.782 73.8231 294.677 73.8231C296.243 74.1591 296.51 75.0951 297.746 75.8151C299.209 76.7751 300.157 77.0151 302.196 77.0151C303.844 77.3751 305.286 77.6391 306.316 78.2151C307.202 79.4391 308.582 79.7511 310.436 79.8231C311.466 79.8231 312.29 79.7031 313.176 79.4151C314.762 79.5111 316.369 79.4151 318.326 79.4151C319.603 81.1431 319.891 81.7911 322.096 81.8151C323.62 83.0631 324.897 83.2551 326.216 83.8071H331.366C333.22 83.9751 333.796 84.8631 335.486 85.4151C336.935 86.1782 338.42 86.8433 339.935 87.4071C341.41 87.7182 342.907 87.8549 344.405 87.8151C345.662 88.5831 347.207 88.6311 348.175 89.3991C349.597 89.7591 351.533 90.1911 352.625 90.5991C354.438 90.8871 355.138 91.5591 356.745 91.7991C358.125 92.2791 356.292 92.6631 355.365 92.9991C353.346 92.9271 353.202 92.0391 351.245 91.7991C350.215 91.1031 348.649 91.1991 347.125 90.5991H346.795C348.155 91.5591 349.473 92.1591 348.855 93.8151C347.104 93.8151 345.683 93.5511 344.055 93.4071C342.325 93.0231 341.542 92.6151 339.606 92.6151C341.542 92.0631 342.036 92.6631 343.375 93.4071C343.87 95.3271 342.799 94.6071 340.965 94.6071C339.4 93.9591 338.452 93.1671 336.516 92.9991H332.396C334.435 93.0951 334.868 93.9831 336.165 95.0151C336.268 95.6391 336.145 95.5911 335.135 95.8071C334.064 94.7271 332.684 94.3671 331.015 93.8151C329.388 93.7431 327.678 93.5751 326.216 92.9991C325.206 92.9271 325.371 91.5351 327.596 93.8151C328.935 94.7271 329.409 95.4951 329.306 96.2151C327.534 95.6871 326.669 94.8711 325.536 94.1991C323.995 93.5765 322.365 93.3075 320.736 93.4071C318.964 92.8551 320.921 92.5431 322.096 94.6071C324.65 96.7191 321.766 95.8071 320.736 95.3991C319.191 94.8951 317.584 94.1511 316.266 93.8151C315.236 93.4551 314.329 93.1191 313.176 92.9991C314.968 93.1911 315.565 93.9351 316.266 95.3991C318.079 96.8391 316.183 96.1431 314.556 95.8071C313.526 94.7511 312.187 94.1991 311.466 92.9991C309.756 92.0151 309.694 90.8391 310.786 93.4071C311.054 94.2231 310.992 95.9991 311.116 96.2151C309.859 94.6071 310.127 94.1991 308.726 94.1991C307.758 93.4311 306.357 92.8311 305.636 91.7991C304.318 91.6551 304.235 91.1031 302.896 90.5991C303.988 92.1111 305.451 93.5991 306.316 95.0151C307.882 96.0231 308.314 96.9351 309.406 97.7991C309.839 98.6871 311.054 99.4071 309.756 98.2071C308.273 96.5271 307.181 96.1191 304.956 95.0151C303.679 93.8151 303.226 93.3351 301.866 92.2071C300.012 91.5111 300.733 91.1271 301.866 93.4071C303.164 94.7991 304.153 96.3351 305.286 97.4151C306.174 98.6517 307.216 99.7274 308.376 100.607C308.685 101.135 309.612 101.231 308.376 101.399C307.346 100.295 305.822 99.5991 304.606 98.5911C302.896 98.0391 302.093 97.0071 300.836 95.8071C300.012 94.3911 298.694 93.3111 297.746 92.2071C295.769 91.2951 298.138 93.0711 298.776 94.1991C299.209 95.6631 299.765 96.8391 300.136 98.2071C300.713 99.5271 298.406 97.8951 297.746 97.4151C296.391 96.3922 294.869 95.7059 293.276 95.3991C291.911 95.0808 290.537 94.8166 289.156 94.6071C287.611 94.1271 290.001 95.7591 290.887 97.4151C292.617 99.3111 289.177 97.7511 288.147 97.4151C286.446 97.0785 284.721 96.9418 282.997 97.0071C280.793 97.1511 282.379 97.4871 282.997 98.5911C283.677 99.2151 284.15 100.511 284.027 100.991C282.585 100.751 281.349 100.271 279.557 100.199C278.115 100.751 276.405 100.607 274.757 100.607C274.695 101.615 275.066 100.751 275.787 101.807C276.982 102.359 277.764 103.031 277.517 103.799H267.567C266.476 104.135 267.794 103.967 268.597 105.407C268.144 106.703 267.567 106.199 266.187 106.199C265.26 105.767 263.386 105.575 262.417 104.999C261.449 104.999 261.532 104.711 260.708 104.591C263.592 106.991 262.15 106.391 263.798 108.191C264.065 108.311 264.725 108.599 264.127 108.599L265.507 85.4151Z" stroke="#772600" stroke-width="0.778229"/>
<path d="M261.552 111.192V111.384C261.552 110.832 261.552 111.144 261.902 112.2C262.026 113.064 261.737 112.968 261.387 113.592C261.325 114.48 261.222 115.128 261.222 116.184C261.099 117.048 260.687 117.864 260.357 118.584C260.028 119.328 258.606 119.76 258.647 120.792C257.823 121.056 257.803 120.432 257.782 119.376C257.288 118.728 257.123 117.84 256.752 116.976C256.546 116.16 256.052 115.536 255.722 114.576C255.228 113.688 254.795 113.424 254.363 112.392C254.177 111.912 254.218 111.288 253.848 111C253.291 110.16 252.921 110.04 251.952 109.992C251.211 110.184 250.922 110.568 250.243 110.784C249.707 111 248.677 110.928 248.018 111.192C247.853 111.504 248.347 111.672 248.533 112.392C248.08 112.824 247.915 113.568 247.668 114.192C247.256 114.792 246.988 115.08 246.802 115.992C247.091 116.544 246.844 117.288 246.473 117.792C246.349 118.704 245.958 119.208 245.772 119.976C245.237 120.432 245.031 120.84 244.578 121.584C244.186 122.232 243.836 122.184 242.868 122.184C242.106 121.944 242.003 121.464 241.323 121.176C241.261 120.936 241.199 120.864 240.973 120.792" stroke="#782600" stroke-width="0.689288"/>
<path fill-rule="evenodd" clip-rule="evenodd" d="M242.2 119.401C242.2 119.401 241.9 123.101 239.5 125.601C237.1 128.101 232.1 131.001 232.1 131.001C232.1 131.001 238.8 127.901 239.5 128.501C240.2 129.201 235.2 134.801 235.2 134.801C235.2 134.801 241.7 128.901 242.6 128.901C243.5 128.901 245.3 134.601 246 134.501C246.7 134.401 244.5 127.301 244.8 126.201C245.1 125.101 244.8 119.201 244.8 119.201L242.2 119.401V119.401ZM257.7 118.901C257.7 118.901 257.4 122.901 254.9 125.501C252.4 128.101 247.5 131.301 247.5 131.301C247.5 131.301 254.3 127.901 254.9 128.701C255.6 129.401 250.6 135.301 250.6 135.301C250.6 135.301 257.2 129.101 258 129.101C258.8 129.101 260.8 135.101 261.5 135.101C262.2 134.901 259.9 127.301 260.3 126.101C260.6 125.001 260.3 118.601 260.3 118.601L257.7 118.901V118.901ZM236 82.6008C236 83.4008 235.3 84.0008 234.4 84.0008C233.5 84.0008 232.8 83.4008 232.8 82.6008C232.8 81.8008 233.5 81.3008 234.4 81.3008C235.3 81.3008 236 81.9008 236 82.6008Z" fill="#812E00"/>
</svg>
