<svg width="24" height="24" viewBox="0 0 24 24" fill="none" xmlns="http://www.w3.org/2000/svg">
<g clip-path="url(#clip0_18_5623)">
<path d="M12 24C18.6274 24 24 18.6274 24 12C24 5.37258 18.6274 0 12 0C5.37258 0 0 5.37258 0 12C0 18.6274 5.37258 24 12 24Z" fill="#F0F0F0"/>
<path d="M12 0C6.84043 0 2.44191 3.2565 0.746399 7.82611H23.2537C21.5581 3.2565 17.1596 0 12 0Z" fill="#D80027"/>
<path d="M12 24C17.1596 24 21.5581 20.7435 23.2536 16.1739H0.746399C2.44191 20.7435 6.84043 24 12 24Z" fill="black"/>
<path d="M16.1739 10.6956H13.0434C13.0434 10.1194 12.5762 9.65216 12 9.65216C11.4237 9.65216 10.9565 10.1194 10.9565 10.6956H7.82602C7.82602 11.272 8.328 11.7391 8.90428 11.7391H8.8695C8.8695 12.3155 9.33666 12.7826 9.91299 12.7826C9.91299 13.3589 10.3801 13.8261 10.9565 13.8261H13.0434C13.6198 13.8261 14.0869 13.3589 14.0869 12.7826C14.6633 12.7826 15.1304 12.3155 15.1304 11.7391H15.0957C15.672 11.7391 16.1739 11.272 16.1739 10.6956Z" fill="#FF9811"/>
</g>
<defs>
<clipPath id="clip0_18_5623">
<rect width="24" height="24" fill="white"/>
</clipPath>
</defs>
</svg>
