<svg width="24" height="24" viewBox="0 0 24 24" fill="none" xmlns="http://www.w3.org/2000/svg">
<g clip-path="url(#clip0_18_4616)">
<path d="M1.19072 6.78262C0.427875 8.36025 0 10.1301 0 12C0 13.8699 0.427875 15.6397 1.19072 17.2174L12 18.2609L22.8093 17.2174C23.5721 15.6397 24 13.8699 24 12C24 10.1301 23.5721 8.36025 22.8093 6.78262L12 5.73914L1.19072 6.78262Z" fill="#F0F0F0"/>
<path d="M1.19115 17.2174C3.13205 21.2313 7.24252 24 12 24C16.7575 24 20.868 21.2313 22.8089 17.2174H1.19115Z" fill="#496E2D"/>
<path d="M1.19115 6.78263H22.8089C20.868 2.76867 16.7575 0 12 0C7.24248 0 3.13205 2.76867 1.19115 6.78263Z" fill="black"/>
<path d="M3.51468 3.51468C-1.1716 8.20096 -1.1716 15.799 3.51468 20.4853C5.45123 18.5488 7.31371 16.6863 12 12L3.51468 3.51468Z" fill="#D80027"/>
<path d="M15.1305 12C15.1305 10.2516 16.3592 8.79106 18 8.43275C17.7478 8.37767 17.4862 8.34781 17.2174 8.34781C15.2003 8.34781 13.5652 9.9829 13.5652 12C13.5652 14.0171 15.2003 15.6522 17.2174 15.6522C17.4861 15.6522 17.7478 15.6223 18 15.5672C16.3592 15.2089 15.1305 13.7483 15.1305 12Z" fill="#D80027"/>
<path d="M18.1534 9.65216L18.6715 11.2466H20.3478L18.9916 12.2318L19.5097 13.8261L18.1534 12.8408L16.7973 13.8261L17.3154 12.2318L15.9591 11.2466H17.6354L18.1534 9.65216Z" fill="#D80027"/>
</g>
<defs>
<clipPath id="clip0_18_4616">
<rect width="24" height="24" fill="white"/>
</clipPath>
</defs>
</svg>
