<svg width="24" height="24" viewBox="0 0 24 24" fill="none" xmlns="http://www.w3.org/2000/svg">
<g clip-path="url(#clip0_18_5569)">
<path d="M12 24C18.6274 24 24 18.6274 24 12C24 5.37258 18.6274 0 12 0C5.37258 0 0 5.37258 0 12C0 18.6274 5.37258 24 12 24Z" fill="#0052B4"/>
<path d="M12 4.69565L12.3886 5.89138H13.6458L12.6286 6.63037L13.0172 7.8261L12 7.08707L10.9829 7.8261L11.3714 6.63037L10.3543 5.89138H11.6115L12 4.69565Z" fill="#FFDA44"/>
<path d="M6.83503 6.83503L7.95534 7.40578L8.84433 6.51685L8.64759 7.75856L9.76786 8.32936L8.52609 8.52605L8.3294 9.76786L7.75861 8.6476L6.51689 8.84433L7.40587 7.95535L6.83503 6.83503Z" fill="#FFDA44"/>
<path d="M4.6957 12L5.89144 11.6115V10.3542L6.63037 11.3714L7.82615 10.9829L7.08708 12L7.82615 13.0171L6.63037 12.6286L5.89144 13.6458V12.3885L4.6957 12Z" fill="#FFDA44"/>
<path d="M6.83503 17.165L7.40583 16.0446L6.51689 15.1557L7.75865 15.3524L8.32936 14.2322L8.52609 15.4739L9.76781 15.6706L8.64768 16.2414L8.84433 17.4831L7.95534 16.5942L6.83503 17.165Z" fill="#FFDA44"/>
<path d="M12 19.3043L11.6115 18.1086H10.3543L11.3715 17.3696L10.9829 16.174L12 16.9129L13.0172 16.174L12.6286 17.3696L13.6458 18.1086H12.3885L12 19.3043Z" fill="#FFDA44"/>
<path d="M17.165 17.165L16.0447 16.5942L15.1557 17.4832L15.3525 16.2414L14.2323 15.6706L15.474 15.4739L15.6707 14.2322L16.2414 15.3524L17.4832 15.1557L16.5942 16.0447L17.165 17.165Z" fill="#FFDA44"/>
<path d="M19.3043 12L18.1086 12.3885V13.6458L17.3696 12.6286L16.174 13.0171L16.913 12L16.174 10.9829L17.3697 11.3714L18.1086 10.3542V11.6115L19.3043 12Z" fill="#FFDA44"/>
<path d="M17.165 6.83502L16.5942 7.95533L17.4832 8.84431L16.2414 8.64753L15.6707 9.7678L15.474 8.52603L14.2323 8.3293L15.3525 7.75855L15.1557 6.51688L16.0448 7.40581L17.165 6.83502Z" fill="#FFDA44"/>
</g>
<defs>
<clipPath id="clip0_18_5569">
<rect width="24" height="24" fill="white"/>
</clipPath>
</defs>
</svg>
