<svg width="512" height="512" viewBox="0 0 512 512" fill="none" xmlns="http://www.w3.org/2000/svg">
<path d="M0 0H512V512H0V0Z" fill="#012169"/>
<path fill-rule="evenodd" clip-rule="evenodd" d="M315.141 323.206C314.505 323.19 313.868 323.222 313.237 323.301C310 323.873 304.86 334.439 302.099 340.626C297.625 345.957 295.341 350.146 293.532 353.192C292.771 354.429 291.628 355.762 292.009 357.38C285.346 358.998 284.965 364.71 284.965 366.899C284.965 369.374 285.726 370.517 285.726 370.517L289.724 377.942V378.037C294.008 386.89 300.196 398.694 303.813 399.645C308.763 401.073 321.709 396.314 331.419 388.032C350.127 395.823 370.173 399.897 390.438 400.026C413.093 400.026 433.464 394.6 449.361 388.032C459.071 396.314 471.922 401.073 476.967 399.645C480.489 398.694 486.772 386.795 491.056 378.037L494.958 370.517C494.958 370.517 495.72 369.374 495.72 366.995C495.72 364.805 495.339 358.998 488.676 357.475C489.056 355.857 488.009 354.429 487.248 353.192C485.344 350.05 483.059 345.862 478.681 340.436C475.825 334.249 470.684 323.873 467.543 323.301C462.974 322.54 453.264 324.825 453.264 325.681V326.157L433.56 344.529C433.56 345.005 434.511 358.332 438.319 370.231C422.892 375.72 406.621 378.459 390.247 378.322C371.399 378.322 355.312 374.991 342.27 370.136C344.72 361.751 346.315 353.14 347.03 344.434L327.516 326.157V325.681C327.516 325.015 319.996 323.206 315.141 323.206V323.206ZM320.091 346.052C322.566 346.052 325.136 348.147 327.325 350.336L327.135 351.669C326.358 355.099 325.34 358.471 324.089 361.759C319.227 358.967 314.665 355.681 310.476 351.954C312.571 349.67 315.997 346.623 319.615 346.148H320.091V346.052ZM460.594 346.052H461.07C464.687 346.623 468.114 349.67 470.304 351.954C466.086 355.687 461.492 358.973 456.596 361.759C455.344 358.472 454.326 355.1 453.55 351.669C453.468 351.227 453.404 350.783 453.359 350.336C455.454 348.051 458.119 346.052 460.594 346.052ZM302.575 372.135C305.146 374.134 308.572 376.419 312.666 378.798C311.561 379.539 310.337 380.087 309.048 380.417C307.335 380.797 305.621 380.702 303.813 380.321C303.132 378.589 302.746 376.755 302.671 374.895C302.62 373.976 302.588 373.056 302.575 372.135V372.135ZM478.205 372.135L478.014 374.895C477.937 376.755 477.551 378.589 476.872 380.321C475.37 380.679 473.811 380.728 472.289 380.467C470.768 380.205 469.315 379.637 468.019 378.798C472.207 376.419 475.634 374.134 478.205 372.135V372.135Z" fill="url(#paint0_linear_7463_134133)" stroke="white" stroke-width="9.5192"/>
<path fill-rule="evenodd" clip-rule="evenodd" d="M332.191 356.636C332.191 356.636 325.33 345.556 319.793 346.437C314.135 347.193 308.839 354.244 308.477 354.622C305.344 351.847 302.554 348.675 300.172 345.178C300.533 344.8 308.839 324.402 313.413 323.52C318.254 323.05 323.131 323.828 327.617 325.787L332.191 356.636Z" fill="url(#paint1_linear_7463_134133)" stroke="black" stroke-width="1.47738"/>
<path fill-rule="evenodd" clip-rule="evenodd" d="M347.239 344.801C347.239 345.556 344.831 374.769 335.201 384.969C325.571 395.168 309.561 401.464 303.904 399.953C298.367 398.316 285.486 368.851 285.486 368.851C285.486 368.851 299.089 382.954 309.2 380.561C319.312 378.295 325.331 360.541 327.257 351.852C329.183 343.29 327.618 326.291 327.618 326.291L347.359 344.801H347.239Z" fill="url(#paint2_linear_7463_134133)" stroke="black" stroke-width="1.47738"/>
<path fill-rule="evenodd" clip-rule="evenodd" d="M448.656 356.636C448.656 356.636 455.518 345.556 461.055 346.437C466.713 347.193 472.009 354.244 472.37 354.622C475.504 351.847 478.294 348.675 480.676 345.178C480.315 344.8 472.009 324.402 467.435 323.52C462.594 323.05 457.717 323.828 453.231 325.787L448.656 356.636Z" fill="url(#paint3_linear_7463_134133)" stroke="black" stroke-width="1.47738"/>
<path fill-rule="evenodd" clip-rule="evenodd" d="M433.611 344.801C433.611 345.556 436.018 374.769 445.648 384.969C455.278 395.168 471.288 401.464 476.946 399.953C482.483 398.316 495.363 368.851 495.363 368.851C495.363 368.851 481.761 382.954 471.649 380.561C461.538 378.295 455.519 360.541 453.593 351.852C451.667 343.29 453.232 326.291 453.232 326.291L433.49 344.801H433.611Z" fill="url(#paint4_linear_7463_134133)" stroke="black" stroke-width="1.47738"/>
<path fill-rule="evenodd" clip-rule="evenodd" d="M302.221 340.367C297.747 345.793 295.368 350.077 293.464 353.218C291.56 356.359 292.702 360.833 296.986 367.021C301.745 373.684 340.203 400.053 390.369 400.053C440.535 400.053 478.993 373.78 483.657 367.021C488.036 360.738 489.178 356.359 487.275 353.218C485.371 350.077 482.991 345.793 478.517 340.367C478.517 348.554 446.628 378.444 390.369 378.444C334.111 378.444 302.221 348.554 302.221 340.367V340.367Z" fill="url(#paint5_linear_7463_134133)" stroke="black" stroke-width="1.42788"/>
<path fill-rule="evenodd" clip-rule="evenodd" d="M476.196 395.554L484.863 380.57L480.529 377.422C479.326 381.199 474.39 382.459 473.548 387.244C472.705 392.028 476.918 396.687 476.196 395.554V395.554Z" fill="url(#paint6_linear_7463_134133)" stroke="black" stroke-width="1.47738"/>
<path fill-rule="evenodd" clip-rule="evenodd" d="M484.047 391.264C484.047 391.264 485.612 384.591 480.677 383.709C475.862 382.954 473.214 387.487 473.936 385.724C474.658 383.709 477.547 381.82 478.029 375.147C478.39 368.473 477.668 364.822 477.668 364.822C477.668 364.822 479.594 356.259 487.418 357.392C495.363 358.652 495.724 364.948 495.724 367.214C495.724 369.481 495.002 370.74 495.002 370.74L484.047 391.264Z" fill="url(#paint7_linear_7463_134133)" stroke="black" stroke-width="1.47738"/>
<path d="M456.765 366.133L458.395 368.986L459.455 368.334L458.722 366.459L458.884 366.052L460.759 364.911L465.649 373.55V373.957L464.589 374.691L465.078 375.506L469.724 372.49L469.317 371.675L468.257 372.327L467.849 372.246L462.959 363.607L464.752 362.384H465.16L466.382 364.014L467.442 363.281L465.812 360.51L456.765 366.215V366.133ZM445.111 372.816L445.518 373.631L446.497 373.224L446.904 373.305L451.142 382.107L451.06 382.515L450.082 383.085L450.49 383.9L455.135 381.455L454.728 380.64L453.75 381.048L453.342 380.966L451.305 376.81L456.032 374.365L458.069 378.44L457.988 378.847L457.01 379.499L457.417 380.314L462.063 377.869L461.655 377.054L460.677 377.462L460.27 377.299L456.032 368.578L456.113 368.171L457.092 367.6L456.684 366.785L452.038 369.23L452.446 370.045L453.424 369.556L453.832 369.719L455.624 373.305L450.897 375.75L449.104 372.164L449.267 371.757L450.164 371.186L449.757 370.371L445.111 372.816ZM442.422 380.314L442.666 381.129L443.97 380.803L444.377 380.966L445.437 384.634L444.459 384.96C441.77 385.775 439.569 384.471 438.672 381.292C437.776 378.195 438.835 375.832 441.443 375.017C441.944 374.859 442.47 374.804 442.992 374.854L443.318 375.098L444.214 376.81L445.518 376.402L444.703 373.468C443.236 373.468 441.933 373.631 440.792 373.957C436.88 375.261 435.086 378.44 436.064 382.107C437.124 385.775 440.384 387.486 444.052 386.345C445.403 385.91 446.67 385.249 447.8 384.389L446.578 380.314L446.822 379.988L447.8 379.581L447.556 378.684L442.422 380.314ZM431.582 390.502L436.798 388.872L436.553 387.975L435.331 388.22L435.005 388.057L432.152 378.603L432.315 378.277L433.457 377.788L433.212 376.973L427.996 378.603L428.24 379.418L429.463 379.173L429.789 379.336L432.642 388.79L432.397 389.116L431.337 389.605L431.582 390.42V390.502ZM403.22 395.147L412.429 394.332L412.103 390.991L410.962 391.072L410.799 393.028L410.637 393.354L406.643 393.762L406.235 388.872L408.517 388.709L408.762 388.953L409.007 390.257H410.066L409.658 385.938H408.68V387.323L408.436 387.649L406.154 387.812L405.828 383.411L409.251 383.167L409.495 383.33L409.822 384.96L411.044 384.878L410.799 381.944L402.16 382.759V383.574H403.302L403.546 383.9L404.361 393.68L404.198 394.006L403.138 394.169V395.147H403.22ZM389.447 382.922V383.819L390.506 383.9L390.75 384.226L390.913 394.006L390.669 394.332L389.691 394.495V395.31H394.581V394.414L393.522 394.332L393.195 394.006V389.361L398.085 389.279L398.248 393.925L398.004 394.251L396.944 394.332V395.229H401.834V394.251H400.775L400.53 393.925L400.367 384.063L400.612 383.737L401.59 383.656V382.759H396.7V383.737L397.759 383.819L398.085 384.063V388.138L393.195 388.22L393.032 384.145L393.358 383.9L394.337 383.819V382.922H389.447ZM379.014 382.596V385.856H380.155L380.482 383.9L380.726 383.656H382.763V393.762L382.437 394.088H381.297V395.066H386.431V394.251L385.29 394.088L385.045 393.762L385.127 383.737H387.164L387.49 383.982L387.735 386.019H388.876V382.759L379.014 382.596ZM363.122 393.11L372.087 393.517L372.25 390.257L371.109 390.176L370.783 392.132L370.538 392.376L366.627 392.213L366.871 387.323L369.072 387.486L369.234 387.731L369.397 389.116H370.375L370.538 384.878H369.56L369.316 386.101L369.072 386.345H366.871L367.115 381.863L370.375 382.026L370.62 382.27L370.864 383.9L372.005 383.982L372.087 381.048L363.692 380.64V381.537L364.67 381.7L364.915 382.026L364.507 391.806L364.182 392.132H363.122V393.028V393.11ZM342.502 387.731L347.229 389.361L347.474 388.546L346.496 388.057L346.333 387.649L349.185 378.277L349.512 378.114L350.652 378.358L350.897 377.543L346.088 375.913L345.844 376.728L346.822 377.217L347.067 377.543L344.132 386.916L343.807 387.16L342.747 386.834L342.502 387.731ZM333.945 384.471C334.816 385.188 335.81 385.74 336.879 386.101C339.487 386.916 341.606 385.938 342.258 383.9C342.421 383.358 342.446 382.784 342.333 382.229C342.219 381.674 341.969 381.156 341.606 380.722C340.791 379.744 340.058 379.173 339.732 378.684C338.998 377.869 338.754 377.136 338.917 376.321C339.243 375.424 340.221 374.935 341.362 375.343C341.932 375.506 342.176 375.669 342.502 375.995L342.584 376.321L342.339 378.195L343.48 378.603L344.295 375.75C343.478 375.044 342.539 374.492 341.524 374.12C339.242 373.305 337.286 374.365 336.634 376.321C336.508 376.786 336.479 377.272 336.549 377.749C336.619 378.226 336.787 378.683 337.042 379.092C337.612 379.988 338.264 380.559 338.753 381.129C339.731 382.107 340.057 383.004 339.813 383.9C339.487 384.878 338.509 385.367 337.205 384.878C336.732 384.709 336.292 384.461 335.901 384.145L335.738 383.819L336.145 381.618L334.923 381.211L333.945 384.471ZM323.105 379.907L331.255 383.982L332.641 380.966L331.663 380.477L330.603 382.107L330.277 382.27L326.692 380.477L328.729 376.158L330.685 377.136L330.767 377.462L330.359 378.766L331.255 379.255L333.048 375.343L332.152 374.935L331.418 375.995L331.092 376.158L329.137 375.18L330.929 371.186L333.945 372.735L334.108 373.061L333.619 374.609L334.678 375.098L335.901 372.49L328.24 368.66L327.914 369.475L328.729 370.045L328.892 370.453L324.817 379.336L324.491 379.418L323.513 379.092L323.187 379.907H323.105ZM321.802 365.074L317.727 362.221L317.237 363.036L318.052 363.688V364.096L312.918 372.246L312.51 372.327L311.695 371.838L311.125 372.653L315.2 375.424C316.667 376.402 317.889 376.891 319.193 376.728C320.905 376.565 322.453 375.587 323.594 373.713C325.632 370.453 325.062 367.274 321.802 365.074V365.074ZM320.09 365.074L320.905 365.726C323.106 367.193 323.35 369.393 321.475 372.246C319.601 375.098 317.645 375.832 315.444 374.283L314.629 373.794L320.09 365.155V365.074ZM352.69 377.951L352.527 378.766L353.505 379.092L353.668 379.418L351.712 389.035L351.386 389.279L350.408 389.198L350.245 390.013L354.89 391.072L355.053 390.257L354.075 389.85L353.831 389.524L354.646 385.449L354.972 385.53C356.602 385.938 356.928 386.753 357.091 388.627C357.091 389.524 357.091 390.339 357.824 391.317C358.15 391.724 358.639 392.132 359.454 392.213C359.991 392.335 360.536 392.416 361.084 392.458L361.247 391.643L361.084 391.561C359.943 391.317 359.454 390.909 359.373 389.85C359.291 388.872 359.373 387.894 358.965 386.916C358.678 386.26 358.154 385.736 357.498 385.449C359.454 385.449 360.596 384.634 360.922 383.004C361.329 380.966 360.27 379.581 357.662 379.01L352.772 377.951H352.69ZM355.95 379.662L356.602 379.825C358.232 380.233 358.884 381.211 358.558 382.678C358.232 384.389 357.254 384.96 355.461 384.552C355.298 384.552 355.135 384.552 354.89 384.389L355.868 379.662H355.95ZM416.26 380.722L416.423 381.618H417.482L417.808 381.781L419.357 391.561L419.112 391.806L418.053 392.132L418.216 392.947L423.269 392.132L423.187 391.235L422.047 391.317L421.72 391.072L421.068 386.997H421.394C423.187 386.59 423.839 387.323 424.654 388.953C425.062 389.768 425.306 390.583 426.366 391.154C426.855 391.398 427.588 391.561 428.403 391.398C429.012 391.277 429.611 391.113 430.197 390.909L430.033 390.094H429.789C428.567 390.339 427.996 390.094 427.425 389.198C426.936 388.383 426.61 387.405 425.958 386.671C425.469 386.182 424.817 385.856 423.921 385.856C425.877 385.123 426.774 383.9 426.529 382.189C426.203 380.151 424.573 379.336 421.802 379.744L416.26 380.722ZM420.172 381.129L420.987 381.048C422.698 380.722 423.758 381.374 424.002 382.922C424.247 384.552 423.513 385.53 421.557 385.856H420.905L420.09 381.129H420.172Z" fill="black"/>
<path fill-rule="evenodd" clip-rule="evenodd" d="M304.734 395.554L296.067 380.57L300.4 377.422C301.604 381.199 306.54 382.459 307.382 387.244C308.225 392.028 304.012 396.687 304.734 395.554V395.554Z" fill="url(#paint8_linear_7463_134133)" stroke="black" stroke-width="1.47738"/>
<path fill-rule="evenodd" clip-rule="evenodd" d="M296.8 391.264C296.8 391.264 295.235 384.591 300.171 383.709C304.986 382.954 307.634 387.487 306.912 385.724C306.189 383.709 303.3 381.82 302.819 375.147C302.458 368.473 303.18 364.822 303.18 364.822C303.18 364.822 301.254 356.259 293.43 357.392C285.485 358.652 285.124 364.948 285.124 367.214C285.124 369.481 285.846 370.74 285.846 370.74L296.8 391.264Z" fill="url(#paint9_linear_7463_134133)" stroke="black" stroke-width="1.47738"/>
<path fill-rule="evenodd" clip-rule="evenodd" d="M390.441 373.037C390.441 373.037 299.557 346.09 300.159 244.349L300.761 109.617H480L480.602 243.593C481.204 345.335 390.32 372.911 390.32 372.911L390.441 373.037Z" fill="#0072C4" stroke="white" stroke-width="4.8015"/>
<path fill-rule="evenodd" clip-rule="evenodd" d="M313.326 140.134C313.489 140.134 314.548 139.075 315.608 138.178C316.993 137.363 318.297 136.467 319.683 135.733C320.824 135.163 322.943 134.674 323.839 134.185C325.161 133.545 326.328 132.628 327.262 131.495C327.425 129.702 327.67 128.398 327.67 126.361L331.745 124.323C333.619 123.834 334.027 123.101 335.901 122.775C337.124 122.367 339.08 122.367 340.791 122.367C342.666 122.367 343.807 123.753 345.518 123.997C347.556 124.812 348.452 125.383 350.082 126.768C350.897 127.909 351.468 128.887 353.016 129.702C354.239 130.354 355.38 131.332 356.765 131.658C358.395 132.555 359.699 133.125 360.922 134.429C362.063 135.244 362.552 136.385 363.53 137.2C364.73 138.225 366.011 139.152 367.36 139.971C368.99 141.031 370.62 141.846 373.147 141.601C374.532 141.601 375.999 141.357 377.629 141.601C379.504 141.601 381.297 141.601 382.927 142.09C384.883 142.09 386.431 142.335 388.224 142.498C389.854 142.824 391.566 142.824 393.44 142.824C395.07 143.313 396.863 143.231 398.738 143.231H409.333C411.207 143.231 413.163 143.313 414.549 143.639C416.294 143.613 418.036 143.476 419.765 143.231C421.884 143.231 423.432 142.905 425.47 142.824H431.827C433.457 143.313 435.576 143.639 436.717 144.454C438.265 144.861 438.999 145.595 440.466 146.084C441.927 146.683 443.236 147.602 444.296 148.773C445.486 150.075 446.5 151.527 447.312 153.093C448.29 154.641 448.697 156.353 449.512 158.227C449.92 160.02 450.327 161.732 450.327 163.688C450.653 165.399 450.653 167.274 450.653 169.23C450.246 171.023 450.164 172.979 449.512 174.69C449.512 176.646 449.105 178.358 448.779 179.825C448.453 181.455 448.045 182.514 447.964 184.552V190.094C447.964 191.887 447.475 193.191 447.312 195.147C446.304 197.078 445.406 199.064 444.622 201.096C443.438 201.937 442.416 202.987 441.607 204.193C440.792 204.764 440.384 205.497 440.466 205.823C442.014 206.312 441.607 207.372 441.607 209.328C441.851 210.876 441.933 212.751 442.422 214.462C442.503 216.337 442.911 217.478 443.481 218.782C444.133 219.597 444.296 219.189 442.748 219.189C441.688 220.004 440.547 219.597 440.14 217.967C439.288 216.67 438.758 215.189 438.591 213.647C438.428 211.854 438.102 210.061 437.532 208.92C437.287 206.72 436.717 206.72 434.516 206.557C433.457 205.66 432.071 205.416 429.952 205.416C427.915 205.416 427.752 205.171 427.67 207.372V212.914C427.344 214.544 426.611 215.766 426.203 217.233C425.062 218.048 424.573 219.434 423.188 220.33C422.536 222.123 421.639 222.449 419.846 222.775L417.564 220.004C418.624 218.211 419.52 217.967 420.172 216.011C420.987 214.462 421.476 213.484 422.047 212.099C421.232 210.876 420.58 210.306 419.846 208.594C419.037 207.231 418.381 205.782 417.89 204.275C416.668 203.786 414.712 203.704 413.815 203.052C411.941 202.645 411.452 204.682 409.251 204.682H404.035C401.672 204.682 401.101 205.905 399.145 205.823C398.493 205.986 397.108 205.742 394.989 205.823C393.359 206.394 391.484 206.231 389.691 206.231C387.817 206.231 386.268 205.742 384.801 205.416C383.09 204.927 381.378 204.438 379.585 204.275C377.303 204.275 376.488 204.438 375.021 205.416C373.88 206.149 372.169 207.698 370.946 208.594C370.376 209.898 370.131 212.099 369.316 213.647C368.99 215.277 368.338 216.174 367.849 217.641C367.242 219.149 366.884 220.745 366.79 222.368C366.627 224.976 366.056 224.65 364.508 223.916C363.856 222.775 362.878 221.634 362.226 220.33C362.552 218.374 363.041 217.396 363.041 215.277C362.633 213.647 361.818 213.81 360.759 214.87C360.759 216.907 360.759 218.537 359.944 219.597C359.802 220.234 359.535 220.836 359.157 221.368C358.779 221.9 358.298 222.35 357.743 222.694C357.173 224.161 355.95 224.894 354.728 225.465C354.565 225.465 354.728 224.976 354.728 223.835C353.831 222.123 354.728 220.575 354.728 218.374C354.728 216.418 354.565 215.114 355.135 213.321C355.135 211.365 354.32 209.572 353.994 208.187C353.261 206.72 352.853 205.986 350.979 205.416C349.593 204.845 347.719 204.193 346.822 202.971C345.959 201.768 344.772 200.836 343.399 200.281C341.769 199.711 340.873 199.059 339.65 198.325C338.509 197.021 337.531 196.532 337.042 194.821C336.227 193.598 336.146 191.316 335.575 189.686C335.414 188.066 335.031 186.475 334.434 184.959C334.25 183.343 333.866 181.755 333.293 180.232C333.049 178.602 332.641 176.972 332.152 175.098C332.152 173.223 332.152 171.349 331.745 169.637V164.095C331.5 162.465 331.419 160.183 331.011 158.961C331.011 156.842 330.767 155.701 330.196 154.234C329.381 152.848 329.381 152.278 327.996 151.87C327.018 153.093 325.469 153.663 323.513 153.908C322.128 153.582 320.172 153.337 318.623 152.685C317.075 152.359 316.097 151.707 314.874 151.055C314.171 149.982 313.409 148.948 312.592 147.958C312.348 145.921 311.94 144.861 311.777 142.824C311.777 141.357 311.859 142.172 313.407 140.134H313.326Z" fill="#BCBCBC"/>
<path fill-rule="evenodd" clip-rule="evenodd" d="M335.575 154.315L335.901 153.989C335.249 154.641 335.494 154.315 336.961 153.745C337.776 153.256 339.324 152.359 339.895 151.789C340.547 151.463 341.688 150.974 342.34 150.403C342.992 149.588 343.725 148.936 344.703 148.203C345.681 147.306 346.659 146.98 347.882 146.247C349.349 146.084 349.919 145.432 351.305 145.921C352.609 146.247 353.179 146.247 354.239 145.106C355.298 144.454 356.521 143.72 356.928 142.661V140.949C356.928 142.742 356.521 143.394 355.298 143.965C354.483 145.024 353.342 146.084 352.853 147.062C352.038 148.284 351.875 148.936 351.06 149.507C350.327 150.403 349.186 150.892 348.941 152.359C349.267 153.011 348.941 153.337 349.756 153.419C350.49 154.071 351.305 153.826 352.364 153.419C353.249 152.459 353.966 151.357 354.483 150.159C355.38 148.855 355.869 148.284 356.358 147.306C357.336 146.654 357.906 146.165 358.232 145.106C359.292 144.454 360.188 143.802 360.922 143.15C361.737 142.661 362.144 142.253 363.285 142.009C363.369 143.103 363.082 144.194 362.47 145.106C362.226 146.654 362.307 147.388 362.796 148.366C363.53 148.936 363.367 149.344 363.856 150.403C364.263 149.425 364.508 147.632 364.671 146.491V146.247C364.671 147.388 364.671 149.018 364.345 149.833C364.345 151.463 364.752 152.196 365.16 153.419C365.567 154.071 365.975 154.478 366.464 154.804C366.464 153.174 366.953 152.196 367.034 150.729C367.36 151.789 367.279 153.337 367.523 154.56C367.605 155.864 368.094 156.842 368.583 157.901C369.235 158.227 369.398 159.368 369.642 158.472C370.294 156.516 370.294 154.397 370.702 152.359C370.783 151.3 370.865 149.751 371.272 149.018L370.702 152.278C370.783 151.3 370.865 149.833 371.272 149.018V148.692C371.569 150.17 371.759 151.668 371.843 153.174C371.843 154.397 371.761 155.619 372.087 156.76C372.902 156.353 373.473 155.375 373.962 154.315C374.534 153.197 375.246 152.157 376.081 151.218L373.962 154.234C374.54 153.144 375.252 152.131 376.081 151.218V150.974C375.925 152.245 375.843 153.524 375.836 154.804C375.836 156.108 375.836 157.575 376.081 158.472C376.407 159.939 376.814 160.183 376.896 161.732C376.896 162.547 376.733 163.362 377.14 163.769C378.281 164.014 378.281 163.362 378.444 161.813C378.444 160.02 378.933 158.798 379.015 157.086C379.015 154.967 379.259 157.331 379.504 158.146C379.992 159.31 380.268 160.552 380.319 161.813C380.319 162.628 380.237 163.362 380.563 163.769C381.623 163.28 382.03 162.139 382.682 161.487C383.253 160.183 383.823 159.613 384.312 158.716C385.698 158.472 385.616 157.901 385.616 156.271C385.616 154.886 385.535 153.5 385.942 152.359C386.365 151.158 386.719 149.933 387.002 148.692C387.491 148.447 387.98 149.181 388.306 149.833C388.876 150.729 388.795 152.033 388.795 153.419C389.121 154.641 389.61 155.619 390.18 156.76C390.675 157.765 391.306 158.698 392.055 159.531C392.299 160.428 392.299 161.976 392.299 163.199C393.359 161.976 393.522 160.265 393.603 158.472C393.44 157.249 393.44 155.701 393.114 154.56C393.114 153.337 392.788 152.115 392.544 151.218C391.729 150.811 391.484 150.403 392.299 149.262C393.114 148.529 394.092 148.855 395.478 149.018C396.211 149.751 396.456 150.159 396.537 151.789C396.537 153.256 396.537 154.397 397.108 155.375C397.597 156.19 398.086 156.76 398.412 158.146C398.819 158.553 399.145 159.124 399.716 158.472C400.042 157.657 400.286 156.027 400.531 155.13C400.775 154.071 401.264 153.5 401.835 153.174C401.835 154.723 401.835 155.619 402.405 156.76C402.894 157.983 403.22 158.472 403.709 159.857C404.28 160.265 404.361 161.08 405.095 161.487C405.258 160.183 405.339 158.716 405.339 157.086V153.174C405.421 151.87 405.747 151.137 406.154 150.077C406.969 151.218 406.969 151.626 406.969 153.174C407.784 152.848 407.947 152.196 408.273 151.218C408.844 150.648 409.088 150.403 409.333 151.789C409.496 153.256 409.822 154.56 410.148 155.945C410.637 156.597 411.289 158.146 411.941 158.716C412.403 159.532 412.949 160.297 413.571 160.998C413.978 161.813 414.06 162.384 415.201 162.628C415.201 160.754 415.201 158.879 414.875 157.086C414.875 155.456 414.549 154.886 414.386 153.419C413.897 152.522 413.652 151.055 413.815 150.648C414.88 151.555 415.717 152.7 416.26 153.989C416.831 155.375 417.401 156.271 417.89 157.657C418.665 158.506 419.348 159.435 419.928 160.428C420.906 161.243 421.395 162.139 422.373 162.873C422.862 163.362 424.003 163.688 424.247 163.443C424.166 161.813 423.921 160.428 423.432 159.042C423.429 157.88 423.15 156.734 422.617 155.701C421.558 154.804 420.743 154.152 420.172 152.93C419.846 152.522 419.765 152.278 419.683 151.544C421.088 152.659 422.348 153.946 423.432 155.375C423.96 156.197 424.689 156.871 425.551 157.331C426.04 157.983 427.589 158.716 428.73 158.961C429.391 159.836 430.346 160.444 431.419 160.672L428.73 159.042C429.405 159.887 430.358 160.465 431.419 160.672V160.998C431.224 159.4 430.666 157.867 429.789 156.516C429.28 155.275 428.433 154.202 427.344 153.419C426.682 152.407 425.788 151.569 424.736 150.974C424.003 150.159 422.943 148.692 422.291 148.203C423.514 147.388 424.818 148.692 426.04 149.262C427.1 150.403 428.078 151.87 428.73 152.604C429.355 153.942 430.18 155.179 431.175 156.271C432.316 156.923 433.049 157.575 434.027 158.472C435.657 158.879 435.005 158.309 434.598 157.086C434.027 155.456 434.598 155.456 435.657 156.516C436.391 157.086 437.287 157.901 438.347 158.472C438.754 159.042 439.488 159.45 440.14 159.042C440.466 158.635 440.466 158.635 440.466 158.227C439.895 156.434 439.325 155.13 438.021 154.56C437.45 153.745 436.391 152.93 435.576 152.115C435.087 151.3 434.516 150.811 434.027 149.833L435.657 152.033C435.087 151.218 434.516 150.811 434.027 149.833H433.783C435.413 149.833 435.983 150.322 437.206 150.974C438.192 151.377 439.041 152.056 439.651 152.93C440.14 153.582 441.036 154.315 441.525 155.13L444.133 157.086C445.03 158.227 445.193 158.961 445.193 160.672C445.763 161.487 445.845 163.117 446.008 164.014C445.845 165.562 445.274 164.34 445.193 163.443C445.03 162.221 444.541 162.302 443.563 162.628C443.563 164.258 443.807 164.747 444.378 165.97C444.267 166.956 443.932 167.903 443.4 168.741C442.748 169.148 442.585 167.926 442.014 167.355C442.014 165.725 441.525 165.481 440.384 164.584V165.725C441.036 166.866 441.688 167.926 441.77 169.556C442.192 170.731 442.386 171.975 442.34 173.223C442.34 174.609 442.34 175.913 442.014 177.135C442.014 178.602 441.77 179.254 441.77 180.721V188.545C441.575 189.73 441.493 190.931 441.525 192.131L441.77 188.545C441.607 189.523 441.525 190.746 441.525 192.131V192.376C441.036 190.99 440.466 189.768 440.14 188.301C439.356 187.481 438.746 186.51 438.347 185.448C438.102 184.226 438.021 182.84 437.776 181.862C437.369 180.884 436.961 179.825 436.146 180.477C435.82 182.514 436.309 183.737 436.961 185.693C437.369 186.997 437.369 188.138 437.776 189.36C438.428 190.827 438.917 190.99 437.776 192.62C437.206 193.598 436.961 193.843 436.717 194.902C435.739 195.391 435.494 195.717 435.413 196.858C435.087 195.799 434.272 194.495 433.783 193.272C433.294 191.887 432.723 190.501 432.479 189.36C431.827 188.382 431.093 186.915 430.36 186.263C429.626 185.448 428.73 183.818 428.241 183.003C427.181 181.781 426.937 181.047 426.04 180.477C425.877 179.906 425.551 179.173 424.981 179.662C424.981 180.966 424.981 182.351 425.307 183.492C425.551 185.122 426.04 186.019 426.122 187.649V190.746C425.47 189.116 424.736 187.812 424.247 186.263C423.595 185.448 423.106 183.818 422.373 183.248C421.884 182.107 421.558 181.21 420.987 180.477C420.906 179.662 420.498 179.662 420.172 179.091C420.172 180.64 420.743 181.21 420.987 182.351C421.483 183.42 421.68 184.603 421.558 185.774C420.906 183.818 420.254 181.699 419.439 179.906C418.624 178.765 417.809 177.298 417.32 176.239C416.505 175.342 415.69 175.261 414.875 174.609C414.175 174.296 413.561 173.821 413.082 173.223C413.245 174.69 413.815 175.668 414.141 176.809C414.304 178.195 414.956 179.336 415.201 180.477C414.875 182.351 414.386 179.906 414.141 179.091C413.815 177.461 413.326 176.646 412.756 175.75C412.022 175.179 411.452 174.283 410.637 173.794C409.822 173.468 410.148 173.794 410.148 174.853C410.148 176.565 410.148 177.706 410.637 178.765C411.207 179.58 411.207 180.64 411.207 182.107C411.126 183.492 410.881 184.552 410.881 186.019V188.219C410.311 187.078 409.74 186.345 409.251 184.878C408.436 183.574 408.11 182.677 407.458 181.292C406.888 181.047 405.828 180.803 405.339 181.292C405.421 182.677 406.073 183.248 406.154 184.878C405.095 185.937 405.258 186.263 404.524 184.633C403.954 183.329 403.22 183.411 402.405 182.677C401.101 182.514 401.509 181.618 401.101 180.395C401.101 179.336 401.101 178.276 400.775 177.38C399.308 177.38 398.493 177.38 397.597 178.195C397.189 179.01 397.352 180.64 397.597 181.862V185.693C397.271 186.671 396.782 186.752 396.537 187.975C396.048 189.116 395.885 190.42 395.478 191.235C394.5 192.131 394.907 192.213 394.418 190.746V181.781C394.418 180.314 394.663 179.58 394.663 178.195C394.174 177.054 394.011 176.809 392.218 176.809C391.892 177.543 392.055 178.847 392.218 179.58C392.218 180.966 392.381 182.27 392.544 183.248C392.544 184.715 392.707 185.611 392.788 186.834C392.788 188.301 392.462 189.442 391.729 190.094C390.832 190.42 391.647 191.072 390.669 191.316C389.602 190.809 388.614 190.151 387.735 189.36C386.757 189.034 385.779 188.79 384.312 188.79C382.519 188.79 382.519 188.545 381.867 187.16C381.408 185.698 381.08 184.198 380.889 182.677C380.237 181.373 380.074 180.477 379.83 179.01C379.462 178.229 378.901 177.556 378.2 177.054C377.792 178.521 377.385 179.662 377.385 181.292C377.059 181.944 376.977 183.574 376.896 184.307C376.325 183.492 376.081 181.862 375.755 180.721C375.266 179.091 374.858 177.95 373.147 178.521C371.354 178.521 371.272 178.521 371.272 180.477L373.391 183.737V187.649C373.391 189.279 373.473 189.768 372.332 190.094C371.924 188.464 370.946 186.834 369.887 185.448C369.805 184.307 369.479 184.633 368.338 184.633C367.605 184.633 366.871 184.47 366.464 184.878V187.323C365.812 187.486 365.649 187.323 365.16 186.834C364.671 187.649 365.078 188.79 365.16 189.849C364.834 191.153 364.345 192.294 363.856 192.946C363.693 192.539 363.448 192.702 363.856 192.702C361.981 191.968 360.596 191.561 358.966 191.072C358.151 191.072 357.417 191.968 356.928 192.702C355.543 193.109 354.972 193.517 353.424 193.517C352.038 193.517 351.305 193.761 350.001 193.761C349.023 194.006 347.8 194.087 346.496 194.087C345.844 193.843 344.54 193.843 344.133 193.517C344.703 192.702 345.274 192.294 345.763 191.072C346.529 190.458 347.238 189.776 347.882 189.034C348.534 188.545 349.349 187.486 350.001 186.834C350.408 185.448 350.979 185.204 351.875 184.633C353.505 184.633 353.75 185.204 355.298 185.448C356.847 186.019 357.743 186.263 358.558 185.122C359.781 184.633 360.84 183.737 362.226 183.492L364.915 181.862C366.056 181.129 366.545 180.395 367.523 179.58C367.849 178.439 368.664 177.543 368.338 176.32C366.871 175.913 365.975 175.994 365.078 176.809C364.019 177.787 363.774 178.195 362.47 179.01C361.411 179.336 360.84 179.825 359.536 180.151C358.477 180.558 357.091 180.395 355.869 180.395C354.646 180.395 353.098 180.314 352.364 180.721C353.587 179.906 354.972 179.091 356.113 178.765C357.173 178.032 357.58 177.706 359.047 177.624C359.699 176.809 360.433 176.809 360.677 175.424C361.085 173.794 359.618 174.283 358.477 174.853C357.417 175.098 356.195 175.831 355.298 176.239C354.192 176.599 353.038 176.791 351.875 176.809C351.549 176.32 352.12 175.913 352.364 175.179C353.587 174.69 353.831 174.527 353.994 173.223C352.609 173.386 352.038 173.875 350.734 174.038C349.43 174.364 348.045 174.527 346.496 174.609H342.829C341.525 174.609 340.791 174.283 339.324 174.283C338.265 173.712 338.265 173.468 338.265 171.838C339.08 170.86 339.895 171.023 341.525 171.023L344.377 169.556C345.355 169.393 346.007 168.985 345.763 168.496H342.014C340.547 167.844 342.014 167.6 342.829 167.111C344.133 167.111 345.437 167.111 346.252 167.6C347.882 167.6 348.452 167.029 349.756 165.97C350.734 165.155 351.223 164.584 352.364 164.014C353.179 163.117 353.994 162.628 354.483 161.813C355.624 160.754 356.358 160.183 356.928 159.287C357.58 158.879 358.069 158.472 357.743 157.901C356.032 158.064 355.298 158.716 354.239 159.531C353.627 160.187 352.911 160.738 352.12 161.161C351.114 161.877 349.929 162.3 348.697 162.384C347.311 162.384 346.252 162.139 344.948 162.058C343.481 161.895 344.785 161.569 345.192 160.917C345.763 160.591 346.17 159.694 345.763 159.042C344.622 158.635 343.318 158.716 342.014 158.716H338.265C336.879 158.716 336.309 158.39 335.331 157.901C335.086 157.086 335.331 157.331 336.39 157.331C337.577 157.283 338.754 157.092 339.895 156.76C341.117 156.434 341.28 155.945 341.525 154.56C340.221 154.56 338.835 154.56 338.02 154.315H335.575ZM312.592 147.958C312.348 145.921 311.859 144.861 311.777 142.824C311.777 141.357 311.859 142.172 313.326 140.134C313.489 140.134 314.548 139.075 315.608 138.178C316.993 137.363 318.297 136.467 319.683 135.733C320.742 135.163 322.943 134.674 323.839 134.185C325.161 133.545 326.328 132.628 327.262 131.495C327.344 129.702 327.588 128.398 327.588 126.361L331.745 124.323C333.619 123.834 334.027 123.101 335.901 122.775C337.124 122.367 339.08 122.367 340.791 122.367C342.666 122.367 343.807 123.753 345.518 123.997C347.556 124.812 348.452 125.383 350.001 126.768C350.897 127.909 351.468 128.887 353.016 129.702C354.239 130.354 355.38 131.332 356.765 131.658C356.765 133.125 357.091 132.881 356.113 132.881C355.95 134.348 355.624 134.266 354.239 134.266C353.249 133.754 352.407 132.996 351.794 132.066C352.364 130.599 352.038 133.207 351.794 133.696C351.142 134.266 350.734 134.837 350.001 134.266C349.512 132.881 349.186 131.984 349.186 130.354C348.941 128.643 348.452 129.865 348.126 130.599C347.719 132.066 347.882 132.555 348.371 133.696C346.985 133.696 345.926 133.533 344.948 133.451C343.97 133.207 342.829 133.451 341.688 133.94C340.302 134.837 340.791 134.837 341.443 135.896C342.666 136.304 343.562 136.956 344.703 137.526C345.844 137.363 347.148 137.037 348.371 136.711C349.675 136.304 350.816 136.63 352.12 136.711C352.772 137.119 353.587 137.2 353.994 137.526C353.994 138.423 353.994 139.319 353.668 139.808C353.179 140.216 352.609 141.194 351.794 141.438C350.652 142.109 349.416 142.604 348.126 142.905C346.496 142.905 345.844 143.313 344.622 143.965C344.459 145.432 344.051 145.758 342.747 146.247C341.602 146.792 340.348 147.071 339.08 147.062C338.265 147.062 337.531 147.143 337.205 146.736C338.11 145.791 338.829 144.686 339.324 143.476C339.569 142.905 340.058 142.498 339.569 142.009C338.02 142.09 337.613 142.09 337.45 143.639C337.287 145.187 336.716 145.432 335.575 145.921C335.901 144.617 335.983 143.476 336.39 142.335C335.258 142.512 334.113 142.594 332.967 142.579C332.152 143.15 331.826 143.313 332.152 144.209C331.093 144.617 329.707 144.372 328.403 144.209C327.262 144.209 327.914 143.72 327.099 143.15C326.529 142.09 325.958 141.846 324.654 141.764C324.084 142.579 323.024 142.824 322.291 143.394C321.15 143.802 320.416 143.476 319.357 142.905C318.053 142.905 318.216 143.313 318.542 144.291C319.112 144.617 318.542 145.024 319.357 145.106C320.172 145.758 320.824 145.921 322.291 145.921C323.432 145.676 324.736 145.676 326.04 145.676C327.344 145.676 327.099 146.002 327.099 147.306C326.284 147.958 324.98 147.877 323.595 147.877C322.506 147.735 321.439 147.461 320.416 147.062C319.194 146.98 318.216 146.736 317.238 147.062C316.83 147.551 315.608 147.714 316.993 147.877C317.564 148.447 320.661 148.121 320.824 149.099C321.639 149.914 321.394 150.974 320.172 150.974C319.89 150.801 319.565 150.709 319.235 150.709C318.904 150.709 318.579 150.801 318.297 150.974C317.482 151.137 316.341 150.974 314.793 151.137C316.83 151.3 313.326 148.936 312.592 147.958V147.958Z" fill="#FEFEFE"/>
<path fill-rule="evenodd" clip-rule="evenodd" d="M320.987 138.749L319.357 139.808C318.217 140.46 316.912 141.438 316.179 142.009C315.608 142.498 315.608 142.824 314.875 142.824C316.097 142.661 316.668 142.335 317.809 141.764C319.194 141.601 320.498 141.275 321.232 140.623C321.965 140.379 321.232 139.319 320.987 138.667V138.749ZM333.212 125.627C333.375 125.627 333.701 126.442 334.272 127.013C334.679 128.072 335.087 128.806 335.087 130.11C335.413 128.724 335.902 127.665 336.146 126.198C335.739 125.383 335.739 125.138 334.516 125.057C334.516 125.872 334.679 125.301 333.212 125.627V125.627Z" fill="#BCBCBC"/>
<path fill-rule="evenodd" clip-rule="evenodd" d="M324.952 137.157C324.35 137.157 325.915 136.527 326.517 136.401C326.998 135.394 327.239 134.764 328.082 134.135C329.406 134.135 330.128 134.638 330.73 135.52C331.934 135.898 332.295 136.401 333.619 136.653C334.221 137.157 334.823 137.157 333.619 137.535C332.897 137.912 331.813 138.038 330.489 138.038C329.402 138.124 328.34 138.423 327.359 138.92C325.554 138.92 325.794 138.92 324.952 137.157V137.157Z" fill="#C4C4C2" stroke="black" stroke-width="1.10804"/>
<path fill-rule="evenodd" clip-rule="evenodd" d="M338.02 125.871V126.197C338.02 125.382 338.02 125.789 338.264 127.256C338.672 128.234 338.835 129.212 338.835 130.679C339.604 130.006 340.168 129.131 340.465 128.153C340.465 125.952 340.057 126.034 338.02 125.871ZM347.8 157.9H348.126C347.311 157.9 347.8 157.9 349.185 157.085C350.082 156.433 350.815 155.455 352.119 155.129C353.128 154.269 354.289 153.606 355.542 153.173C356.194 152.847 356.765 152.358 357.417 152.847C357.254 154.233 357.009 154.803 355.787 155.374C355.216 156.189 354.32 156.678 353.423 157.004C352.608 157.411 351.63 157.493 351.304 158.471C349.837 159.123 349.674 158.96 347.881 157.9H347.8ZM352.934 165.969C353.342 165.561 355.053 163.85 355.868 163.198C356.587 162.144 357.467 161.209 358.476 160.427C359.291 159.204 360.269 158.389 360.921 157.33L363.04 154.559C363.04 155.781 362.877 157.411 363.285 158.145C363.363 159.316 363.078 160.483 362.47 161.486C361.899 162.464 361.41 163.116 360.025 163.768C358.884 164.42 358.15 164.583 357.172 165.398C356.389 165.914 355.572 166.377 354.727 166.784C353.994 167.11 354.32 167.028 352.934 165.969V165.969ZM344.621 172.326H344.947C344.132 172.326 344.54 172.407 346.007 171.511C347.148 170.37 348.044 169.881 349.43 169.31C350.56 169.261 351.669 168.984 352.69 168.495C353.26 168.332 353.749 167.925 354.238 168.495C355.053 169.636 355.298 169.962 353.994 170.696C353.198 171.332 352.284 171.803 351.304 172.081C350.652 172.652 349.348 172.652 348.044 172.896C347.066 172.896 346.414 173.059 346.007 172.326L348.126 172.896C347.066 172.896 346.496 173.059 344.621 172.326V172.326ZM356.031 172.326V172.081C356.031 172.896 356.031 172.489 356.602 170.94C357.661 169.392 357.987 168.495 359.291 168.169C359.862 167.354 360.921 167.191 362.225 166.784C362.714 167.599 362.307 168.577 362.225 169.555C361.899 170.614 360.921 171.348 360.351 172.081C359.536 172.652 359.21 173.222 357.906 173.467C356.928 173.467 357.498 173.467 356.113 172.326H356.031Z" fill="#BCBCBC"/>
<path fill-rule="evenodd" clip-rule="evenodd" d="M330.033 136.221C330.033 136.955 329.463 137.607 328.729 137.607C327.914 137.607 327.344 136.955 327.344 136.221C327.344 135.406 327.996 134.836 328.729 134.836C329.463 134.836 330.033 135.406 330.033 136.221Z" fill="black"/>
<path fill-rule="evenodd" clip-rule="evenodd" d="M333.137 213.957H334.22C330.85 213.957 332.896 213.706 338.433 218.365C340.841 216.35 340.841 216.098 342.647 219.624C343.85 221.513 344.091 219.372 345.897 217.357C346.739 221.387 347.221 225.542 350.11 221.764C353.48 221.764 356.851 221.513 358.657 222.898C360.823 227.053 360.101 222.142 361.786 224.031C366.601 224.535 366.481 219.75 371.537 218.491C374.666 222.646 376.111 219.498 379.963 217.483C382.972 218.239 385.741 222.898 386.343 218.365C388.75 214.335 388.871 214.587 390.556 218.365C392.964 220.631 393.927 217.357 395.853 216.224C399.464 218.365 403.436 218.742 408.612 217.357C409.575 221.009 411.742 219.372 414.029 218.365C418.724 220.505 420.289 221.135 425.706 218.365C428.354 215.091 426.909 218.49 428.835 220.631C432.808 219.372 431.724 219.12 436.299 219.498C440.993 219.498 441.354 219.498 442.679 216.224C445.086 218.616 445.808 220.379 449.059 217.357C454.114 217.357 452.549 217.987 455.438 216.098C457.726 221.135 458.207 217.609 460.855 219.498C459.366 223.217 456.742 226.317 453.392 228.312C451.346 232.09 450.022 235.867 445.929 237.378C442.919 240.526 439.669 242.415 436.299 245.185C431.724 246.444 426.669 246.192 421.493 246.192H376.713C373.583 247.955 368.287 248.711 363.953 249.592C359.138 249.592 353.48 249.592 350.11 248.459C347.823 246.066 343.85 243.422 341.684 240.652C339.276 238.763 339.276 235.112 337.35 232.845C335.665 229.697 334.943 224.66 333.137 221.764V213.957Z" fill="#005120" stroke="#002B0D" stroke-width="1.23115"/>
<path fill-rule="evenodd" clip-rule="evenodd" d="M436.299 224.03V225.038C436.299 222.016 436.42 223.652 434.133 229.571C433.772 230.956 432.688 231.333 431.003 231.837L436.299 224.03ZM426.79 228.437H427.873C423.901 232.215 421.253 234.104 420.41 238.511L427.873 228.437C423.901 232.215 421.253 234.104 420.41 238.511L426.79 228.437ZM411.863 222.897C411.863 222.897 411.743 226.8 410.78 228.437L411.863 222.897ZM407.65 230.704V231.711V230.704ZM399.103 224.03H400.187H398.983C399.465 224.03 399.826 224.03 398.983 224.03H399.103ZM339.518 224.03C339.999 224.03 342.166 227.556 344.814 229.571C344.212 232.844 343.129 236.622 344.814 239.644L339.518 224.03ZM348.064 230.704C348.546 230.704 350.592 234.23 353.361 236.244L348.064 230.704C348.546 230.704 350.592 234.23 353.361 236.244V237.377C353.361 233.852 353.12 230.326 354.444 228.437C355.648 230.578 357.092 233.852 357.574 230.704C363.593 230.452 366.482 228.689 370.334 227.304C370.334 228.941 370.093 228.185 371.537 229.571L348.064 230.704ZM443.763 225.038H444.846C442.8 226.8 441.235 230.452 439.55 232.844L443.763 225.038ZM400.187 221.764H408.613Z" fill="#005120"/>
<path d="M348.064 230.704C348.546 230.704 350.592 234.23 353.361 236.244L348.064 230.704ZM348.064 230.704C348.546 230.704 350.592 234.23 353.361 236.244V237.377C353.361 233.852 353.12 230.326 354.444 228.437C355.648 230.578 357.092 233.852 357.574 230.704C363.593 230.452 366.482 228.689 370.334 227.304C370.334 228.941 370.093 228.185 371.537 229.571L348.064 230.704ZM400.187 221.764H408.613M436.299 224.03V225.038C436.299 222.016 436.42 223.652 434.133 229.571C433.772 230.956 432.688 231.333 431.003 231.837L436.299 224.03ZM426.79 228.437H427.873C423.901 232.215 421.253 234.104 420.41 238.511L427.873 228.437C423.901 232.215 421.253 234.104 420.41 238.511L426.79 228.437ZM411.863 222.897C411.863 222.897 411.743 226.8 410.78 228.437L411.863 222.897ZM407.65 230.704V231.711V230.704ZM399.103 224.03H400.187H398.983C399.465 224.03 399.826 224.03 398.983 224.03H399.103ZM339.518 224.03C339.999 224.03 342.166 227.556 344.814 229.571C344.212 232.844 343.129 236.622 344.814 239.644L339.518 224.03ZM443.763 225.038H444.846C442.8 226.8 441.235 230.452 439.55 232.844L443.763 225.038Z" stroke="#002B0D" stroke-width="1.23115"/>
<path fill-rule="evenodd" clip-rule="evenodd" d="M330.684 230.029C317.888 230.029 313.65 243.395 300.855 243.395H300.121V244.21C300.121 253.501 300.773 262.14 302.159 270.209C313.976 269.394 318.296 256.843 330.684 256.843C343.479 256.843 347.799 270.209 360.594 270.209C373.39 270.209 377.628 256.843 390.423 256.843C403.219 256.843 407.538 270.209 420.334 270.209C433.129 270.209 437.367 256.843 450.163 256.843C462.469 256.843 466.87 269.231 478.688 270.127C480.134 261.319 480.816 252.402 480.725 243.477H479.992C467.196 243.477 462.958 230.111 450.163 230.111C437.367 230.111 433.048 243.477 420.334 243.477C407.62 243.477 403.219 230.111 390.423 230.111C377.628 230.111 373.308 243.477 360.594 243.477C347.88 243.477 343.479 230.111 330.684 230.111V230.029ZM330.684 282.271C320.741 282.271 316.014 290.421 308.271 293.925C310.832 300.937 314.023 307.702 317.807 314.137C321.474 311.448 325.305 309.084 330.684 309.084C343.479 309.084 347.799 322.45 360.513 322.45C373.39 322.45 377.628 309.084 390.423 309.084C403.219 309.084 407.538 322.45 420.252 322.45C432.966 322.45 437.367 309.084 450.163 309.084C454.808 309.226 459.265 310.951 462.795 313.974C466.569 307.562 469.76 300.825 472.331 293.844C464.833 290.176 460.024 282.271 450.163 282.271C437.367 282.271 433.048 295.637 420.252 295.637C407.457 295.637 403.219 282.271 390.423 282.271C377.628 282.271 373.308 295.637 360.513 295.637C347.717 295.637 343.479 282.271 330.684 282.271V282.271ZM390.423 334.431C377.628 334.431 373.308 347.878 360.594 347.878C348.451 347.878 343.968 335.898 332.721 334.594C347.799 351.383 364.832 361.489 376.487 367.194C380.48 364.097 384.555 370.861 390.342 370.861C396.291 370.861 400.285 364.015 404.197 367.031C420.598 359.099 435.34 348.118 447.636 334.675C436.715 336.305 432.151 347.878 420.252 347.878C407.457 347.878 403.219 334.512 390.423 334.512V334.431Z" fill="white"/>
<path d="M311.012 289.061C315.163 287.584 319.382 286.324 323.652 285.285L343.275 305.044L327.144 308.442L311.012 289.061Z" stroke="#512007" stroke-width="0.61545"/>
<path d="M355.992 291.563L359.255 292.057M349.16 314.781C349.466 310.236 358.133 284.152 358.133 284.152L349.16 314.781ZM352.117 315.078L358.949 284.35L352.117 315.078ZM354.463 315.177L360.173 284.35L354.463 315.177ZM349.466 311.027C350.996 310.236 355.38 309.051 355.38 309.051L349.466 311.027ZM351.607 306.482C353.035 306.482 355.992 305.296 355.992 305.296L351.607 306.482ZM352.423 303.024C353.876 302.491 355.379 302.094 356.91 301.838L352.423 303.024ZM353.035 298.676L357.828 297.886L353.035 298.676ZM355.176 294.922C355.176 295.218 358.439 295.218 358.439 295.218L355.176 294.922Z" stroke="#512007" stroke-width="0.602241"/>
<path d="M393.735 294.987L389.883 295.832M401.801 334.707C401.44 326.932 391.207 282.311 391.207 282.311L401.801 334.707ZM398.31 333.186L390.244 282.48L398.31 333.186ZM394.698 329.298C394.457 326.425 388.799 282.649 388.799 282.649L394.698 329.298ZM401.44 328.284C399.634 326.932 394.457 324.904 394.457 324.904L401.44 328.284ZM398.912 320.509C397.226 320.509 393.735 318.481 393.735 318.481L398.912 320.509ZM397.948 314.594C396.233 313.683 394.459 313.004 392.651 312.565L397.948 314.594ZM397.226 307.157L391.568 305.804L397.226 307.157ZM394.698 300.734C394.698 301.241 390.846 301.241 390.846 301.241L394.698 300.734Z" stroke="#512007" stroke-width="0.570583"/>
<path d="M423.376 293.67L419.523 294.299M431.441 323.245C431.08 317.456 420.847 284.23 420.847 284.23L431.441 323.245ZM427.95 322.113L419.884 284.356L427.95 322.113ZM424.339 319.218C424.098 317.078 418.44 284.482 418.44 284.482L424.339 319.218ZM431.08 318.463C429.274 317.456 424.098 315.946 424.098 315.946L431.08 318.463ZM428.552 312.674C426.867 312.674 423.376 311.163 423.376 311.163L428.552 312.674ZM427.589 308.269C425.873 307.591 424.1 307.085 422.292 306.758L427.589 308.269ZM426.867 302.731L421.209 301.724L426.867 302.731ZM424.339 297.949C424.339 298.326 420.486 298.326 420.486 298.326L424.339 297.949Z" stroke="#512007" stroke-width="0.61545"/>
<path fill-rule="evenodd" clip-rule="evenodd" d="M386.614 327.825L387.698 235.951C387.698 235.951 390.828 235.573 390.828 235.951C390.828 236.329 390.466 327.447 390.105 327.825C389.744 328.202 386.253 328.454 386.614 327.825ZM420.924 239.978L420.202 317.127L417.794 320.147L418.516 239.978H420.924Z" fill="#DD8B59" stroke="#512007" stroke-width="0.61545"/>
<path fill-rule="evenodd" clip-rule="evenodd" d="M347.73 312.721C347.73 312.721 351.341 350.477 391.55 349.345C431.76 348.212 442.956 311.337 442.956 311.337L425.499 310.582C425.138 310.582 411.535 328.201 393.958 327.824C376.382 327.446 370.844 323.041 366.992 319.391C363.139 315.616 359.768 310.204 359.768 310.204L339.303 301.772L340.507 309.827L347.73 312.721ZM456.439 308.946L455.235 303.911V299.632L457.161 295.102C457.161 295.102 426.703 299.758 426.703 300.136L426.583 308.694L456.439 308.82V308.946Z" fill="#DD8B59" stroke="#512007" stroke-width="0.61545"/>
<path d="M346.406 312.344C347.49 312.344 355.556 314.232 355.556 314.232L363.983 325.936M450.661 299.633L449.939 307.184H454.874L454.513 299.633H450.661ZM445.484 300.01L445.123 308.065L448.253 307.688L448.614 300.01H445.484ZM440.187 308.065V301.772L443.317 300.64L443.679 306.932L440.187 308.065ZM434.168 307.688L434.89 302.15L438.502 302.527L438.743 308.443L434.168 307.688ZM427.547 307.688L427.908 302.905L431.52 302.527V308.065L427.547 307.688Z" stroke="#512007" stroke-width="0.61545"/>
<path d="M352.305 313.856C352.666 314.233 359.648 338.775 393.236 338.775C426.824 338.775 434.89 310.961 434.89 310.961" stroke="#512007" stroke-width="0.61545"/>
<path d="M440.187 311.715C440.187 311.715 424.055 348.213 393.236 345.695C362.538 343.178 357.602 331.096 355.194 324.804C352.786 318.511 351.342 313.477 351.342 313.477" stroke="#512007" stroke-width="0.61545"/>
<path fill-rule="evenodd" clip-rule="evenodd" d="M360.009 310.205C360.37 308.065 360.37 241.74 360.37 241.74L358.324 241.488L357.963 309.072L360.009 310.331V310.205ZM310.049 288.684L336.534 302.15L335.932 304.038C335.932 304.038 310.41 291.452 310.41 291.075C310.41 290.697 310.651 289.187 310.049 288.558V288.684Z" fill="#DD8B59" stroke="#512007" stroke-width="0.61545"/>
<path fill-rule="evenodd" clip-rule="evenodd" d="M322.207 284.656C322.207 285.663 326.059 308.065 326.059 308.065C326.059 308.065 328.467 308.442 328.467 308.065L324.374 285.033L322.207 284.656ZM346.766 285.285C348.09 285.285 372.047 281.258 372.047 281.258L371.565 285.285L348.09 287.802L346.766 285.285Z" fill="#DD8B59" stroke="#512007" stroke-width="0.61545"/>
<path fill-rule="evenodd" clip-rule="evenodd" d="M350.137 254.955C350.979 254.955 358.564 258.982 361.814 257.975C365.065 256.968 362.898 254.2 363.5 254.2C364.222 254.2 366.63 256.087 368.074 254.577C369.519 253.193 370.482 248.788 369.88 249.165C369.158 249.543 350.618 256.465 350.257 254.955H350.137Z" fill="#FECF3E" stroke="#512007" stroke-width="0.61545"/>
<path fill-rule="evenodd" clip-rule="evenodd" d="M347.127 264.142C348.451 264.519 375.779 256.465 375.779 256.465C375.779 256.465 375.779 258.982 375.418 258.982L347.127 266.659V264.142Z" fill="#DD8B59" stroke="#512007" stroke-width="0.61545"/>
<path fill-rule="evenodd" clip-rule="evenodd" d="M410.331 252.816C410.331 252.816 412.136 257.221 413.942 256.466C415.748 255.711 417.433 254.201 417.433 254.201C417.433 254.201 418.878 257.976 421.286 257.221C423.693 256.466 425.138 252.439 425.138 252.439C425.138 252.439 427.546 253.194 428.629 252.816C429.713 252.439 431.037 246.523 431.037 246.523L410.451 252.816H410.331ZM408.284 288.307C407.923 289.062 410.09 290.824 411.896 290.824C413.701 290.824 414.303 288.307 414.664 289.062C415.026 289.691 415.026 293.09 419.48 291.957C423.934 290.824 424.055 287.552 424.055 287.552C424.055 287.552 422.73 288.685 425.86 289.062C428.99 289.44 432.12 284.28 431.88 284.28C431.398 284.28 409.006 288.685 408.284 288.307V288.307Z" fill="#FECF3E" stroke="#512007" stroke-width="0.61545"/>
<path fill-rule="evenodd" clip-rule="evenodd" d="M348.212 253.446C347.992 254.58 348.075 255.756 348.453 256.844L371.326 248.789C371.326 248.789 372.289 246.901 371.326 246.901C370.363 246.901 347.851 254.201 348.092 253.572L348.212 253.446ZM378.309 248.411C378.911 248.411 401.664 240.734 401.664 240.734C401.664 240.734 402.025 244.007 401.664 244.007L380.355 250.551L378.188 248.411H378.309Z" fill="#DD8B59" stroke="#512007" stroke-width="0.61545"/>
<path fill-rule="evenodd" clip-rule="evenodd" d="M408.284 264.521C408.284 264.521 404.793 268.548 405.877 273.96C406.96 279.498 408.284 284.28 408.645 284.28C409.007 284.28 412.859 276.98 417.072 276.603C421.286 276.225 428.991 280.63 428.991 280.63C428.991 280.63 427.907 271.82 428.268 267.793C428.63 263.766 434.529 256.844 434.529 256.844L408.284 264.395V264.521Z" fill="#FECF3E" stroke="#512007" stroke-width="0.61545"/>
<path fill-rule="evenodd" clip-rule="evenodd" d="M376.501 257.851C376.501 257.851 375.779 261.249 376.14 261.249L405.876 253.194V250.803L376.501 257.725V257.851Z" fill="#DD8B59" stroke="#512007" stroke-width="0.61545"/>
<path fill-rule="evenodd" clip-rule="evenodd" d="M338.701 302.15C338.701 302.15 331.719 301.143 332.08 302.905C332.441 304.793 335.571 306.555 335.932 307.687C336.293 308.82 334.849 312.721 337.016 312.47C339.062 312.092 341.109 310.582 341.109 309.449L340.748 303.156L338.701 302.15Z" fill="#B6B6B4" stroke="#512007" stroke-width="0.61545"/>
<path fill-rule="evenodd" clip-rule="evenodd" d="M377.586 283.901V286.418L402.747 282.769L402.024 280.881L377.586 283.901Z" fill="#DD8B59" stroke="#512007" stroke-width="0.61545"/>
<path fill-rule="evenodd" clip-rule="evenodd" d="M347.73 288.307C348.211 288.307 347.73 291.579 350.619 290.824C353.388 290.069 354.11 288.307 354.11 288.307C354.11 288.307 354.832 292.335 358.685 291.957C362.537 291.579 364.704 287.175 364.704 287.175C364.704 287.175 364.945 290.447 367.353 289.314C369.76 288.181 370.483 285.664 370.483 285.664L348.452 288.936L347.85 288.307H347.73ZM347.73 266.66C347.73 266.66 344.6 267.793 345.683 274.337C346.767 280.882 349.295 284.657 349.535 284.657C349.897 284.657 352.666 278.365 356.879 277.358C361.093 276.099 368.436 280.63 368.436 280.63C368.436 280.63 367.714 274.715 368.797 269.303C369.57 265.779 371.139 262.499 373.372 259.738C373.372 259.738 348.813 266.66 347.85 266.66H347.73Z" fill="#FECF3E" stroke="#512007" stroke-width="0.61545"/>
<path fill-rule="evenodd" clip-rule="evenodd" d="M406.599 285.663L406.961 287.928C406.961 287.928 432.242 284.656 432.242 284.153C432.242 283.901 432.242 281.635 431.76 281.635C431.399 281.635 406.961 286.04 406.479 285.663H406.599ZM406.238 262.254L406.599 264.771L436.335 256.465C436.335 256.465 437.057 254.199 436.696 254.199C436.335 254.199 406.961 263.387 406.238 262.254Z" fill="#DD8B59" stroke="#512007" stroke-width="0.61545"/>
<path d="M431.398 282.014C431.759 281.007 432.843 258.983 432.843 258.983M409.368 250.551C409.368 250.551 409.006 252.816 409.368 252.816C409.729 252.816 431.398 247.278 431.398 246.901C431.398 246.523 433.565 244.384 431.759 244.761C430.074 245.139 410.09 251.683 409.368 250.551V250.551ZM455.957 292.963L434.288 257.221L455.957 292.963Z" stroke="#512007" stroke-width="0.61545"/>
<path fill-rule="evenodd" clip-rule="evenodd" d="M379.03 249.543C380.234 249.794 382.762 253.57 384.207 252.815C385.651 252.06 387.698 249.794 387.698 249.794C387.698 249.794 387.337 254.199 390.106 253.57C392.995 252.815 393.356 249.794 393.356 249.794C393.356 249.794 395.403 251.053 397.208 249.794C398.894 248.788 400.579 243.25 399.977 243.25C399.375 243.25 379.632 249.794 378.91 249.543H379.03ZM378.308 260.115C378.308 260.87 374.696 266.659 375.9 272.196C377.104 277.734 378.91 282.768 379.271 282.768C379.632 282.768 384.929 276.979 389.504 275.846C393.958 274.714 400.7 279.496 400.338 279.496C399.977 279.496 398.533 273.958 398.533 269.931C398.533 265.904 403.83 253.57 403.83 253.57L378.308 260.115ZM378.308 286.544C378.308 286.796 379.271 289.313 381.799 289.313C384.207 289.313 384.568 286.796 384.568 286.796C384.568 286.796 384.207 291.2 388.059 290.823C391.911 290.445 393.236 286.418 393.236 286.418C393.236 286.418 393.597 288.683 396.847 287.551C399.977 286.418 404.07 282.768 403.83 282.768C403.469 282.768 378.548 287.551 378.187 286.544H378.308Z" fill="#FECF3E" stroke="#512007" stroke-width="0.61545"/>
<path fill-rule="evenodd" clip-rule="evenodd" d="M387.485 260.04C387.98 260.061 388.447 260.286 388.783 260.668C389.119 261.049 389.298 261.554 389.278 262.072C389.259 262.59 389.044 263.079 388.68 263.431C388.316 263.782 387.834 263.968 387.339 263.948C386.844 263.927 386.377 263.701 386.041 263.32C385.704 262.939 385.526 262.434 385.546 261.915C385.565 261.397 385.78 260.908 386.144 260.557C386.507 260.205 386.99 260.019 387.485 260.04V260.04Z" fill="#BE0F17" stroke="#512007" stroke-width="0.603497"/>
<path d="M407.924 286.293C407.924 286.293 412.137 301.018 416.351 303.284C419.494 305.047 422.548 306.98 425.5 309.073M390.106 236.958C390.106 236.707 400.941 241.741 400.941 242.118C400.941 242.496 439.465 295.984 439.826 295.984L390.106 236.958ZM420.564 242.118L430.436 246.523L433.566 254.578L420.564 242.118ZM359.649 241.489C359.287 241.489 370.483 250.299 370.483 250.299L371.928 257.473L359.649 241.489ZM321.606 294.851C326.422 292.712 360.371 261.626 360.371 261.626L321.606 294.851ZM312.457 288.936L350.62 255.333L312.457 288.936ZM376.141 260.367L412.257 323.043L376.141 260.367Z" stroke="#512007" stroke-width="0.61545"/>
<path d="M407.441 286.67C407.441 286.67 410.451 304.038 414.665 307.31C418.878 310.582 423.092 314.232 423.092 314.232" stroke="#512007" stroke-width="0.61545"/>
<path d="M378.465 285.369C378.465 285.369 382.558 309.533 390.985 315.071C396.147 318.426 401.284 321.824 406.395 325.265" stroke="#512007" stroke-width="0.61545"/>
<path d="M349.33 286.88C350.775 289.02 354.627 299.969 357.035 303.241C358.841 306.262 376.658 324.888 376.658 324.888M378.103 284.992C378.103 284.992 387.132 304.122 394.957 309.911C402.541 315.826 413.015 321.238 413.015 321.238L378.103 284.992ZM348.729 286.628C351.136 291.033 350.775 299.465 353.544 302.36C356.09 305.368 358.423 308.564 360.526 311.925L348.729 286.628Z" stroke="#512007" stroke-width="0.61545"/>
<path fill-rule="evenodd" clip-rule="evenodd" d="M370.76 325.769C370.76 326.133 370.691 326.493 370.558 326.829C370.425 327.165 370.23 327.47 369.984 327.727C369.738 327.984 369.446 328.188 369.125 328.327C368.804 328.466 368.459 328.538 368.111 328.538C367.764 328.538 367.419 328.466 367.098 328.327C366.777 328.188 366.485 327.984 366.239 327.727C365.993 327.47 365.798 327.165 365.664 326.829C365.531 326.493 365.463 326.133 365.463 325.769C365.463 325.035 365.742 324.331 366.239 323.811C366.735 323.292 367.409 323 368.111 323C368.814 323 369.487 323.292 369.984 323.811C370.481 324.331 370.76 325.035 370.76 325.769ZM383.641 331.684C383.641 332.318 383.4 332.927 382.971 333.375C382.542 333.824 381.961 334.076 381.354 334.076C380.747 334.076 380.165 333.824 379.736 333.375C379.308 332.927 379.067 332.318 379.067 331.684C379.067 331.05 379.308 330.442 379.736 329.993C380.165 329.545 380.747 329.293 381.354 329.293C381.961 329.293 382.542 329.545 382.971 329.993C383.4 330.442 383.641 331.05 383.641 331.684V331.684ZM400.134 333.195C400.134 333.829 399.893 334.437 399.464 334.885C399.035 335.334 398.453 335.586 397.847 335.586C397.24 335.586 396.658 335.334 396.229 334.885C395.8 334.437 395.56 333.829 395.56 333.195C395.56 332.56 395.8 331.952 396.229 331.504C396.658 331.055 397.24 330.803 397.847 330.803C398.453 330.803 399.035 331.055 399.464 331.504C399.893 331.952 400.134 332.56 400.134 333.195V333.195ZM414.46 327.531C414.46 328.79 413.617 329.671 412.534 329.671C411.451 329.671 410.608 328.664 410.608 327.531C410.608 326.398 411.451 325.266 412.534 325.266C413.617 325.266 414.46 326.273 414.46 327.531ZM426.017 320.357C426.017 321.49 424.934 322.371 423.73 322.371C422.526 322.371 421.443 321.49 421.443 320.357C421.443 319.225 422.526 318.344 423.73 318.344C424.934 318.344 426.017 319.225 426.017 320.357Z" fill="black" stroke="#512007" stroke-width="0.61545"/>
<path fill-rule="evenodd" clip-rule="evenodd" d="M358.119 241.824C357.036 242.579 339.58 246.984 341.987 246.606C344.395 246.229 358.48 250.382 358.119 249.123C357.758 247.865 358.119 242.579 358.119 241.824ZM387.855 236.412C387.132 236.412 377.02 240.439 377.381 240.439C377.742 240.439 388.938 243.712 388.577 242.957C388.216 242.201 388.216 237.419 387.855 236.412ZM418.313 240.062C417.59 240.439 405.672 243.334 407.839 243.712C410.006 244.089 417.951 246.984 417.951 246.229C417.951 245.599 417.951 240.439 418.313 239.936V240.062Z" fill="#FF0000" stroke="#512007" stroke-width="0.61545"/>
<path d="M413.738 296.068L417.59 296.697M405.672 325.644C406.033 319.854 416.266 286.629 416.266 286.629L405.672 325.644ZM409.163 324.511L417.229 286.755L409.163 324.511ZM412.775 321.616C413.015 319.477 418.674 286.881 418.674 286.881L412.775 321.616ZM406.033 320.861C407.839 319.854 413.015 318.344 413.015 318.344L406.033 320.861ZM408.561 315.072C410.247 315.072 413.738 313.562 413.738 313.562L408.561 315.072ZM409.524 310.667C411.24 309.989 413.014 309.483 414.821 309.157L409.524 310.667ZM410.247 305.129L415.905 304.123L410.247 305.129ZM412.775 300.347C412.775 300.725 416.627 300.725 416.627 300.725L412.775 300.347Z" stroke="#512007" stroke-width="0.61545"/>
<path d="M384.001 295.034L387.854 295.688M375.936 325.76C376.297 319.746 386.53 285.229 386.53 285.229L375.936 325.76ZM379.427 326.152L387.493 285.49L379.427 326.152ZM382.196 326.283L388.937 285.49L382.196 326.283ZM376.297 320.792C378.102 319.746 383.279 318.177 383.279 318.177L376.297 320.792ZM378.825 314.777C380.51 314.777 384.001 313.208 384.001 313.208L378.825 314.777ZM379.788 310.201C381.504 309.497 383.277 308.971 385.085 308.632L379.788 310.201ZM380.51 304.448L386.168 303.402L380.51 304.448ZM383.038 299.48C383.038 299.872 386.891 299.872 386.891 299.872L383.038 299.48Z" stroke="#512007" stroke-width="0.627298"/>
<path d="M363.805 292.018L359.953 292.651M371.871 321.774C371.51 315.95 361.277 282.521 361.277 282.521L371.871 321.774ZM368.38 320.635L360.314 282.648L368.38 320.635ZM364.768 317.722C364.528 315.57 358.869 282.775 358.869 282.775L364.768 317.722ZM371.51 316.963C369.704 315.95 364.528 314.43 364.528 314.43L371.51 316.963ZM368.982 311.138C367.296 311.138 363.805 309.619 363.805 309.619L368.982 311.138ZM368.019 306.706C366.303 306.024 364.529 305.515 362.722 305.187L368.019 306.706ZM367.296 301.135L361.638 300.122L367.296 301.135ZM364.768 296.323C364.768 296.703 360.916 296.703 360.916 296.703L364.768 296.323Z" stroke="#512007" stroke-width="0.617324"/>
<path fill-rule="evenodd" clip-rule="evenodd" d="M424.054 310.582L457.281 311.337L457.642 308.82L423.332 308.443L424.054 310.582ZM425.499 301.395C429.351 301.395 458.365 295.606 458.365 295.606C458.365 295.606 459.448 291.83 458.365 291.83C457.281 291.83 425.499 298.878 425.499 298.878V301.395Z" fill="#DD8B59" stroke="#512007" stroke-width="0.61545"/>
<path d="M0 0H256V256H0V0Z" fill="#012169"/>
<path d="M256 0V32L161 128L256 221.5V256H222.5L127 162L34 256H0V222L93 128.5L0 37V0H31L127 94L220 0H256Z" fill="white"/>
<path d="M92 162L97.5 179L21 256H0V254.5L92 162ZM154 156L181 160L256 233.5V256L154 156ZM256 0L160 98L158 76L233 0H256ZM0 0.5L96.5 95L67 91L0 24.5V0.5Z" fill="#C8102E"/>
<path d="M88 0V256H168V0H88ZM0 88V168H256V88H0Z" fill="white"/>
<path d="M0 104V152H256V104H0ZM104 0V256H152V0H104Z" fill="#C8102E"/>
<defs>
<linearGradient id="paint0_linear_7463_134133" x1="100.705" y1="579.105" x2="125.932" y2="564.643" gradientUnits="userSpaceOnUse">
<stop stop-color="#A43907"/>
<stop offset="1" stop-color="white"/>
</linearGradient>
<linearGradient id="paint1_linear_7463_134133" x1="332.031" y1="350.244" x2="299.436" y2="332.382" gradientUnits="userSpaceOnUse">
<stop stop-color="#A43907"/>
<stop offset="1" stop-color="white"/>
</linearGradient>
<linearGradient id="paint2_linear_7463_134133" x1="352.325" y1="363.248" x2="281.632" y2="354.026" gradientUnits="userSpaceOnUse">
<stop stop-color="#A43907"/>
<stop offset="1" stop-color="white"/>
</linearGradient>
<linearGradient id="paint3_linear_7463_134133" x1="482.623" y1="333.296" x2="449.896" y2="335.038" gradientUnits="userSpaceOnUse">
<stop stop-color="#A43907"/>
<stop offset="1" stop-color="white"/>
</linearGradient>
<linearGradient id="paint4_linear_7463_134133" x1="495.903" y1="351.414" x2="426.392" y2="355.573" gradientUnits="userSpaceOnUse">
<stop stop-color="#A43907"/>
<stop offset="1" stop-color="white"/>
</linearGradient>
<linearGradient id="paint5_linear_7463_134133" x1="488.227" y1="370.162" x2="292.512" y2="370.162" gradientUnits="userSpaceOnUse">
<stop stop-color="#A43907"/>
<stop offset="1" stop-color="white"/>
</linearGradient>
<linearGradient id="paint6_linear_7463_134133" x1="297.962" y1="383.904" x2="584.178" y2="384.931" gradientUnits="userSpaceOnUse">
<stop stop-color="#A43907"/>
<stop offset="1" stop-color="white"/>
</linearGradient>
<linearGradient id="paint7_linear_7463_134133" x1="495.041" y1="368.436" x2="471.899" y2="369.106" gradientUnits="userSpaceOnUse">
<stop stop-color="#A43907"/>
<stop offset="1" stop-color="white"/>
</linearGradient>
<linearGradient id="paint8_linear_7463_134133" x1="291.863" y1="391.248" x2="314.288" y2="392.732" gradientUnits="userSpaceOnUse">
<stop stop-color="#A43907"/>
<stop offset="1" stop-color="white"/>
</linearGradient>
<linearGradient id="paint9_linear_7463_134133" x1="313.749" y1="388.046" x2="273.023" y2="377.996" gradientUnits="userSpaceOnUse">
<stop stop-color="#A43907"/>
<stop offset="1" stop-color="white"/>
</linearGradient>
</defs>
</svg>
