<svg width="24" height="24" viewBox="0 0 24 24" fill="none" xmlns="http://www.w3.org/2000/svg">
<g clip-path="url(#clip0_18_5003)">
<path d="M12 24C18.6274 24 24 18.6274 24 12C24 5.37258 18.6274 0 12 0C5.37258 0 0 5.37258 0 12C0 18.6274 5.37258 24 12 24Z" fill="#338AF3"/>
<path d="M12 5.21738L12.5179 6.81169H14.1944L12.8382 7.79705L13.3561 9.39131L12 8.406L10.6437 9.39131L11.1618 7.79705L9.8056 6.81169H11.482L12 5.21738Z" fill="#F0F0F0"/>
<path d="M5.21738 12.0001L6.81169 11.482V9.8056L7.79705 11.1619L9.39131 10.6439L8.406 12.0001L9.39131 13.3562L7.79705 12.8381L6.81169 14.1944V12.518L5.21738 12.0001Z" fill="#F0F0F0"/>
<path d="M12.0001 18.7826L11.482 17.1883H9.8056L11.1619 16.203L10.6439 14.6087L12.0001 15.594L13.3562 14.6087L12.8381 16.203L14.1944 17.1883H12.518L12.0001 18.7826Z" fill="#F0F0F0"/>
<path d="M18.7826 12L17.1883 12.518V14.1944L16.203 12.8381L14.6087 13.3561L15.594 12L14.6087 10.6438L16.203 11.1619L17.1883 9.8056V11.482L18.7826 12Z" fill="#F0F0F0"/>
</g>
<defs>
<clipPath id="clip0_18_5003">
<rect width="24" height="24" fill="white"/>
</clipPath>
</defs>
</svg>
