<svg width="512" height="512" viewBox="0 0 512 512" fill="none" xmlns="http://www.w3.org/2000/svg">
<path d="M0 0H512V512H0V0Z" fill="#CE1126"/>
<path d="M71.6992 71.6992H440.299V440.299H71.6992V71.6992Z" fill="#007A5E"/>
<path d="M71.6992 71.6992H440.299L71.6992 440.399H440.299L71.6992 71.6992Z" fill="#FCD116"/>
<path d="M255.9 317.499C289.81 317.499 317.3 290.01 317.3 256.099C317.3 222.189 289.81 194.699 255.9 194.699C221.99 194.699 194.5 222.189 194.5 256.099C194.5 290.01 221.99 317.499 255.9 317.499Z" fill="#CE1126"/>
<path d="M99.8008 256.8C107.501 271.1 122.401 286.6 135.501 292.1C135.701 277.6 130.501 258.9 123.501 244.1L99.8008 256.8Z" fill="#CE1126"/>
<path d="M86.8009 207.6C97.9009 230.9 57.8009 286.3 124.601 299.3C115.634 286.214 111.563 270.388 113.101 254.6C127.874 261.509 140.013 273.016 147.701 287.4C165.201 224 102.901 227.9 86.7009 207.6H86.8009Z" fill="#FCD116"/>
</svg>
