<svg width="24" height="24" viewBox="0 0 24 24" fill="none" xmlns="http://www.w3.org/2000/svg">
<g clip-path="url(#clip0_18_5385)">
<path d="M12 24C18.6274 24 24 18.6274 24 12C24 5.37258 18.6274 0 12 0C5.37258 0 0 5.37258 0 12C0 18.6274 5.37258 24 12 24Z" fill="#F0F0F0"/>
<path d="M12 0C9.87838 0 7.88582 0.551344 6.15651 1.51744V22.4826C7.88587 23.4487 9.87838 24 12 24C18.6274 24 24 18.6274 24 12C24 5.37262 18.6274 0 12 0Z" fill="#6DA544"/>
<path d="M6.19181 1.4977C5.43689 1.91606 4.73198 2.41331 4.08797 2.97862C4.15308 2.92152 4.21884 2.86509 4.28512 2.8094L13.4757 12L4.28508 21.1906C4.21875 21.1349 4.15303 21.0785 4.08792 21.0214C4.73194 21.5867 5.43689 22.0839 6.19177 22.5023L24 12L6.19181 1.4977Z" fill="#F0F0F0"/>
<path d="M5.17828 2.12729C4.81232 2.3807 4.46085 2.65337 4.12593 2.94479L12 12L4.12589 21.0552C4.46081 21.3466 4.81228 21.6194 5.17823 21.8727L21.9458 12L5.17828 2.12729Z" fill="#FFDA44"/>
<path d="M4.28508 2.8094C4.01832 3.03356 3.76088 3.26854 3.51469 3.51468L10.9565 12L3.51469 20.4853C3.76088 20.7315 4.01827 20.9665 4.28508 21.1906L13.4757 12L4.28508 2.8094Z" fill="black"/>
<path d="M3.51468 3.51469C-1.1716 8.20097 -1.1716 15.799 3.51468 20.4853C5.45123 18.5488 7.31371 16.6863 12 12L3.51468 3.51469Z" fill="#D80027"/>
</g>
<defs>
<clipPath id="clip0_18_5385">
<rect width="24" height="24" fill="white"/>
</clipPath>
</defs>
</svg>
