<svg width="512" height="512" viewBox="0 0 512 512" fill="none" xmlns="http://www.w3.org/2000/svg">
<path d="M0 0H512V512H0V0Z" fill="#D21034"/>
<path d="M0 0H512V256H0V0Z" fill="#00209F"/>
<path d="M175.199 191.6H336.799V320.2H175.199V191.6Z" fill="white"/>
<path d="M288.499 284.6L255.499 285.6L222.699 285.9C222.699 285.9 205.899 292.2 198.999 293.6C192.099 295 192.999 297.2 187.699 298.4C183.399 299.4 182.899 299.7 180.399 299.8C178.899 299.9 177.099 301.1 175.199 302.4V320.2H336.799V303.2C335.131 302.348 333.391 301.645 331.599 301.1C329.299 300.3 327.599 299.4 323.399 298.4C318.099 297.2 318.999 295 312.099 293.6C305.199 292.2 288.499 284.6 288.499 284.6V284.6Z" fill="#016A16" stroke="#016A16" stroke-width="0.3"/>
<path d="M246.58 244.908H248.969L253.407 263.17L252.383 268.972L246.58 245.079V244.908Z" fill="#F1B517" stroke="black" stroke-width="0.341334"/>
<path d="M244.02 232.619L245.726 246.785H247.433L244.02 232.79V232.619Z" fill="white" stroke="black" stroke-width="0.341334"/>
<path d="M248.628 263.852L241.289 244.225L244.02 244.055L252.553 267.948L248.628 263.852V263.852Z" fill="#F1B517" stroke="black" stroke-width="0.341334"/>
<path d="M237.875 232.961L240.947 246.614H243.336L237.875 232.961V232.961Z" fill="white" stroke="black" stroke-width="0.341334"/>
<path d="M242.142 257.025L237.875 247.638L239.582 247.297L247.603 262.657L242.142 257.025Z" fill="#F1B517" stroke="black" stroke-width="0.341334"/>
<path d="M232.072 236.887L237.022 249.857H239.411L232.243 236.887H232.072Z" fill="white" stroke="black" stroke-width="0.341334"/>
<path d="M242.824 258.39L223.197 237.057C217.053 241.835 218.248 250.71 218.248 250.71L240.435 268.118L242.653 258.39H242.824Z" fill="#0A328C" stroke="black" stroke-width="0.341334"/>
<path d="M254.089 269.996L239.583 255.318C233.439 255.66 238.217 264.705 238.559 265.9L253.919 279.041V269.996H254.089Z" fill="#D20014" stroke="black" stroke-width="0.341334"/>
<path d="M252.722 267.606L222.856 235.521L221.661 236.374L253.405 271.532L252.722 267.606V267.606ZM221.149 233.473L220.466 232.62V231.084L214.322 227.158L217.053 233.473L219.272 233.814L219.784 234.497L221.149 233.473V233.473Z" fill="#F1B517" stroke="black" stroke-width="0.341334"/>
<path d="M217.906 235.692C219.163 234.132 220.733 232.853 222.514 231.938L224.221 234.498L220.466 237.57L217.906 235.863V235.692Z" fill="#F1B517" stroke="black" stroke-width="0.341334"/>
<path d="M214.664 241.153L215.688 242.859C216.371 242.689 222.515 236.886 222.515 236.886H227.123L228.317 235.35C224.904 231.937 222.003 235.862 222.003 235.862L214.664 240.982V241.153Z" fill="#0A328C" stroke="#0A328C" stroke-width="0.341334"/>
<path d="M218.418 244.054C218.418 242.347 221.49 238.592 221.832 238.422C224.05 239.104 226.098 240.47 228.488 235.35C226.44 237.739 222.514 235.35 222.514 235.35L220.808 236.715V237.398L215.688 242.176L218.248 244.054H218.418Z" fill="#D20014" stroke="#D20014" stroke-width="0.341334"/>
<path d="M234.29 264.022L209.714 244.566C205.447 248.833 209.031 261.974 209.031 261.974L232.925 274.945L234.119 264.022H234.29Z" fill="#0A328C" stroke="black" stroke-width="0.341334"/>
<path d="M254.601 279.894L234.291 263.51C227.465 264.534 232.926 274.603 233.267 275.798L254.601 287.403V279.723V279.894Z" fill="#D20014" stroke="black" stroke-width="0.341334"/>
<path d="M253.748 276.481L210.057 243.713L209.204 244.737L254.942 280.577L253.748 276.481V276.481ZM208.009 242.006L207.326 241.323L206.985 239.958L200.158 237.057L204.084 242.689H206.302L206.985 243.371L208.009 242.006V242.006Z" fill="#F1B517" stroke="black" stroke-width="0.341334"/>
<path d="M205.277 244.736C206.254 242.994 207.593 241.481 209.203 240.299L211.251 242.518L208.179 246.101L205.277 244.736Z" fill="#F1B517" stroke="black" stroke-width="0.341334"/>
<path d="M203.059 250.198V252.075C203.742 251.734 209.374 245.761 209.374 245.761L213.641 244.907L214.665 243.542C211.593 239.958 208.35 244.737 208.35 244.737L202.889 250.198H203.059Z" fill="#0A328C" stroke="#0A328C" stroke-width="0.341334"/>
<path d="M206.473 253.441C206.132 251.735 208.521 246.956 208.862 246.615C211.593 247.468 213.982 248.663 214.836 243.201C213.129 245.932 208.862 243.884 208.862 243.884L207.497 245.59V246.444L203.23 252.076L206.473 253.441V253.441Z" fill="#D20014" stroke="#D20014" stroke-width="0.341334"/>
<path d="M232.414 275.969C221.867 270.036 211.342 264.062 200.84 258.049C198.622 261.974 200.67 267.436 201.694 268.289C201.694 270.849 200.67 272.214 202.888 277.676C203.571 281.089 205.107 284.332 207.497 286.209C210.227 297.132 221.491 297.985 225.758 288.94L232.585 275.969H232.414Z" fill="#0A328C" stroke="black" stroke-width="0.341334"/>
<path d="M253.064 287.574L231.73 275.115C224.904 275.969 231.73 288.769 232.242 289.963L253.064 297.302V287.574Z" fill="#D20014" stroke="black" stroke-width="0.341334"/>
<path d="M249.48 282.965L201.182 257.365L200.328 258.389L251.528 286.891L249.48 282.965V282.965ZM198.792 256L197.939 255.488L197.427 254.123L190.43 252.416L195.038 257.365L197.086 257.024L198.11 257.536L198.792 256V256Z" fill="#F1B517" stroke="black" stroke-width="0.341334"/>
<path d="M196.574 259.073C197.257 257.366 197.94 255.83 199.646 253.953L202.036 255.83L199.646 259.926L196.574 259.073Z" fill="#F1B517" stroke="black" stroke-width="0.341334"/>
<path d="M194.697 264.875L195.721 266.923L200.841 259.073L205.108 257.537L205.961 255.83C202.548 252.758 199.988 258.219 199.988 258.219L194.697 264.875Z" fill="#0A328C" stroke="#0A328C" stroke-width="0.341334"/>
<path d="M199.304 267.606C198.963 265.899 200.157 260.438 200.499 260.267C203.059 261.121 205.277 261.291 205.96 255.83C204.253 258.39 200.328 257.537 200.328 257.537L199.133 259.243L199.304 259.926L195.891 266.753L199.304 267.606V267.606Z" fill="#D20014" stroke="#D20014" stroke-width="0.341334"/>
<path d="M253.919 214.357L253.066 229.717H258.015L257.333 214.357L262.453 213.845L261.941 207.701L249.141 208.213V213.675L253.919 214.357V214.357Z" fill="#016A16" stroke="#016A16" stroke-width="0.341334"/>
<path d="M255.626 208.044C242.314 194.732 231.903 201.218 229.514 203.095C231.22 203.436 232.586 202.412 233.439 202.242L231.732 204.29C231.732 204.29 235.999 202.583 236.511 202.583C235.828 203.095 235.146 204.29 235.146 204.29C235.487 204.29 237.876 202.412 238.218 202.412C237.535 203.095 237.364 204.972 237.364 204.972L239.412 204.119C239.924 204.46 239.242 205.143 239.583 205.143C242.996 204.802 247.604 208.044 248.116 209.068" fill="#016A16"/>
<path d="M255.626 208.044C242.314 194.732 231.903 201.218 229.514 203.095C231.22 203.436 232.586 202.412 233.439 202.242L231.732 204.29C231.732 204.29 235.999 202.583 236.511 202.583C235.828 203.095 235.146 204.29 235.146 204.29C235.487 204.29 237.876 202.412 238.218 202.412C237.535 203.095 237.364 204.972 237.364 204.972L239.412 204.119C239.924 204.46 239.242 205.143 239.583 205.143C242.996 204.802 247.604 208.044 248.116 209.068" stroke="black" stroke-width="0.341334"/>
<path d="M252.383 210.433C251.017 207.361 225.759 201.9 220.639 210.945C222.687 211.457 224.564 209.239 224.564 209.239V211.287L227.807 208.556L226.612 211.287L229.172 209.068V211.287L232.585 207.873L232.073 209.751L234.975 208.556L234.633 210.263" fill="#016A16"/>
<path d="M252.383 210.433C251.017 207.361 225.759 201.9 220.639 210.945C222.687 211.457 224.564 209.239 224.564 209.239V211.287L227.807 208.556L226.612 211.287L229.172 209.068V211.287L232.585 207.873L232.073 209.751L234.975 208.556L234.633 210.263" stroke="black" stroke-width="0.341334"/>
<path d="M251.188 210.946C244.703 206.679 234.804 209.581 234.804 209.581C228.319 212.994 224.905 212.482 224.223 219.138C224.735 218.967 226.441 216.749 226.441 216.749L227.807 219.309L228.148 215.725L229.172 218.626L230.879 213.847L231.22 217.09L233.609 213.847L234.633 214.871L235.657 212.311L236.681 214.018C236.681 214.018 238.388 212.994 239.241 213.506L240.948 211.458L241.46 212.994L243.167 211.287L243.679 212.482L245.215 211.117V212.141H250.335" fill="#016A16"/>
<path d="M251.188 210.946C244.703 206.679 234.804 209.581 234.804 209.581C228.319 212.994 224.905 212.482 224.223 219.138C224.735 218.967 226.441 216.749 226.441 216.749L227.807 219.309L228.148 215.725L229.172 218.626L230.879 213.847L231.22 217.09L233.609 213.847L234.633 214.871L235.657 212.311L236.681 214.018C236.681 214.018 238.388 212.994 239.241 213.506L240.948 211.458L241.46 212.994L243.167 211.287L243.679 212.482L245.215 211.117V212.141H250.335" stroke="black" stroke-width="0.341334"/>
<path d="M249.823 211.629C245.215 211.629 232.245 216.578 229.002 221.528C229.723 221.147 230.463 220.805 231.221 220.504L231.733 222.552L232.586 220.504L232.757 222.21C233.269 220.845 233.781 220.845 234.805 222.04L235.146 220.162L235.658 221.869L236.511 219.992C236.511 219.992 237.023 222.04 237.365 222.04C237.365 222.04 238.73 218.285 239.413 218.114L239.583 220.504L240.437 218.114L241.29 219.821V217.432L242.314 219.138C242.314 219.138 242.655 217.432 243.338 217.09L244.703 218.285L250.506 214.018" fill="#016A16"/>
<path d="M249.823 211.629C245.215 211.629 232.245 216.578 229.002 221.528C229.723 221.147 230.463 220.805 231.221 220.504L231.733 222.552L232.586 220.504L232.757 222.21C233.269 220.845 233.781 220.845 234.805 222.04L235.146 220.162L235.658 221.869L236.511 219.992C236.511 219.992 237.023 222.04 237.365 222.04C237.365 222.04 238.73 218.285 239.413 218.114L239.583 220.504L240.437 218.114L241.29 219.821V217.432L242.314 219.138C242.314 219.138 242.655 217.432 243.338 217.09L244.703 218.285L250.506 214.018" stroke="black" stroke-width="0.341334"/>
<path d="M250.677 212.822C244.703 215.041 239.242 223.404 239.754 226.817C242.314 223.404 241.802 223.916 242.997 227.841C242.997 227.841 243.338 224.428 243.85 224.086L244.703 226.476L244.874 223.233H245.727L245.557 221.356L246.751 222.209C246.41 221.014 246.239 220.673 247.434 219.649C247.434 219.649 245.727 219.82 247.093 217.089L248.287 218.113C248.287 218.113 247.946 216.918 248.287 216.406L252.725 215.041" fill="#016A16"/>
<path d="M250.677 212.822C244.703 215.041 239.242 223.404 239.754 226.817C242.314 223.404 241.802 223.916 242.997 227.841C242.997 227.841 243.338 224.428 243.85 224.086L244.703 226.476L244.874 223.233H245.727L245.557 221.356L246.751 222.209C246.41 221.014 246.239 220.673 247.434 219.649C247.434 219.649 245.727 219.82 247.093 217.089L248.287 218.113C248.287 218.113 247.946 216.918 248.287 216.406L252.725 215.041" stroke="black" stroke-width="0.341334"/>
<path d="M251.187 213.334L248.968 217.771L250.163 218.113L247.432 219.99L249.651 219.819C249.651 219.819 246.238 221.014 245.896 224.427L249.31 222.721C249.31 222.721 246.408 225.793 245.896 227.67L248.115 225.963C248.115 225.963 246.067 228.011 246.408 231.083L247.944 229.377C247.603 233.302 247.603 233.643 249.31 236.545C249.31 236.545 248.968 232.107 249.31 231.425L253.235 235.521L251.187 229.889C251.187 229.889 253.576 233.302 254.942 233.131L251.87 228.523L254.942 230.913L251.528 225.793L254.6 226.817C254.6 226.817 252.382 223.915 252.552 222.038L254.771 224.427C254.771 224.427 253.918 221.867 254.088 221.014L255.283 221.185L253.064 218.795L254.6 218.454L254.43 216.747L255.454 216.577V214.699L251.187 213.334ZM253.576 214.699C249.822 219.819 251.699 227.499 249.48 231.595Z" fill="#016A16"/>
<path d="M253.576 214.699C249.822 219.819 251.699 227.499 249.48 231.595M251.187 213.334L248.968 217.771L250.163 218.113L247.432 219.99L249.651 219.819C249.651 219.819 246.238 221.014 245.896 224.427L249.31 222.721C249.31 222.721 246.408 225.793 245.896 227.67L248.115 225.963C248.115 225.963 246.067 228.011 246.408 231.083L247.944 229.377C247.603 233.302 247.603 233.643 249.31 236.545C249.31 236.545 248.968 232.107 249.31 231.425L253.235 235.521L251.187 229.889C251.187 229.889 253.576 233.302 254.942 233.131L251.87 228.523L254.942 230.913L251.528 225.793L254.6 226.817C254.6 226.817 252.382 223.915 252.552 222.038L254.771 224.427C254.771 224.427 253.918 221.867 254.088 221.014L255.283 221.185L253.064 218.795L254.6 218.454L254.43 216.747L255.454 216.577V214.699L251.187 213.334Z" stroke="black" stroke-width="0.341334"/>
<path d="M257.673 284.161C257.673 284.161 259.55 267.094 259.55 259.926C259.55 254.124 258.185 241.494 258.185 241.494H252.553C252.553 241.494 251.7 254.124 251.87 259.926C251.87 267.094 253.748 284.161 253.748 284.161H257.673Z" fill="#F1B517" stroke="black" stroke-width="0.341334"/>
<path d="M252.041 242.348H258.868L258.014 237.74H253.065L252.041 242.178V242.348Z" fill="#F1B517" stroke="black" stroke-width="0.341334"/>
<path d="M252.553 238.592H258.527L257.332 233.984H253.578L252.383 238.592H252.553Z" fill="#F1B517" stroke="black" stroke-width="0.341334"/>
<path d="M252.895 235.008H258.015L256.991 230.4H253.748L252.895 235.008Z" fill="#F1B517" stroke="black" stroke-width="0.341334"/>
<path d="M257.161 229.889H253.748L253.236 231.595H257.503L257.161 229.889ZM257.844 280.577H253.407H257.844ZM258.185 277.163H253.065H258.185ZM258.868 273.75H252.383H258.868ZM259.209 270.166H252.383H259.209ZM259.209 266.411H252.212H259.209ZM259.38 262.998H251.871H259.38ZM259.38 260.097H251.529H259.38ZM259.38 256.342H251.529H259.38ZM259.209 252.758H251.529H259.209ZM258.868 249.003H251.871H258.868ZM258.527 245.59H252.212Z" fill="#F1B517"/>
<path d="M258.527 245.59H252.212M257.161 229.889H253.748L253.236 231.595H257.503L257.161 229.889ZM257.844 280.577H253.407H257.844ZM258.185 277.163H253.065H258.185ZM258.868 273.75H252.383H258.868ZM259.209 270.166H252.383H259.209ZM259.209 266.411H252.212H259.209ZM259.38 262.998H251.871H259.38ZM259.38 260.097H251.529H259.38ZM259.38 256.342H251.529H259.38ZM259.209 252.758H251.529H259.209ZM258.868 249.003H251.871H258.868Z" stroke="black" stroke-width="0.341334"/>
<path d="M255.968 203.094C254.602 202.582 252.042 200.875 252.725 199.851L253.92 197.803C255.626 194.049 253.92 195.414 253.92 194.39C253.578 193.025 260.405 194.049 260.405 196.609C260.405 197.462 259.893 196.95 260.064 201.046L258.698 203.606C257.718 203.734 256.721 203.617 255.797 203.265L255.968 203.094Z" fill="#0A328C" stroke="#0A328C" stroke-width="0.341334"/>
<path d="M256.65 213.333L254.943 211.797L255.455 199.68L257.162 200.192L256.65 213.162V213.333Z" fill="#F1B517" stroke="black" stroke-width="0.341334"/>
<path d="M258.868 203.606C259.892 202.923 260.575 201.046 259.892 200.022C258.186 197.803 256.991 198.657 254.09 197.633C253.578 198.315 252.383 199.339 252.554 200.363C256.479 202.07 254.943 200.705 256.308 200.875C256.991 200.875 257.332 201.729 258.868 203.435V203.606Z" fill="#D20014" stroke="#D20014" stroke-width="0.341334"/>
<path d="M236.17 276.139C236.17 278.187 234.634 280.064 232.927 280.064C231.221 280.064 229.855 278.357 229.855 275.968V273.92H236.17V275.968V276.139Z" fill="#016A16" stroke="white" stroke-width="0.341334" stroke-linecap="round"/>
<path d="M232.927 274.775C234.624 274.775 235.999 274.087 235.999 273.239C235.999 272.391 234.624 271.703 232.927 271.703C231.231 271.703 229.855 272.391 229.855 273.239C229.855 274.087 231.231 274.775 232.927 274.775Z" fill="white"/>
<path d="M232.244 274.774L231.732 269.312H234.122L233.78 274.945H232.244V274.774Z" fill="#016A16" stroke="#F1B517" stroke-width="0.341334"/>
<path d="M236.341 273.238C235.999 274.092 234.634 274.774 232.927 274.774C231.221 274.774 230.026 274.092 229.514 273.238C229.456 273.462 229.456 273.697 229.514 273.921C229.514 275.116 231.05 275.969 232.927 275.969C234.975 275.969 236.511 275.116 236.511 273.921C236.569 273.697 236.569 273.462 236.511 273.238H236.341Z" fill="#016A16" stroke="white" stroke-width="0.341334" stroke-linecap="round"/>
<path d="M249.141 294.913L237.194 291.158L231.903 282.113L213.301 281.26L213.983 288.086L229.855 290.988L231.221 293.718L249.482 298.838L249.141 294.913V294.913Z" fill="#F1B517" stroke="black" stroke-width="0.341334"/>
<path d="M236.681 297.473L217.566 269.312L216.713 270.166L235.486 298.155L236.681 297.473Z" fill="#503200" stroke="black" stroke-width="0.341334"/>
<path d="M219.445 270.507L217.397 267.094C216.885 266.411 216.373 266.241 215.519 266.753C214.666 267.094 214.837 267.947 215.178 268.63L216.885 271.873L219.445 270.507V270.507Z" fill="white" stroke="black" stroke-width="0.341334"/>
<path d="M238.901 280.064L200.501 276.139L199.477 281.771L237.706 285.696L238.901 280.064Z" fill="#F1B517" stroke="black" stroke-width="0.341334"/>
<path d="M199.646 274.773L198.793 282.453H200.5L201.524 275.456L199.817 274.773H199.646ZM206.132 275.968L205.79 282.965H206.814L207.668 276.992L206.302 275.968H206.132ZM232.244 279.04L231.22 285.525H233.097L233.95 279.04H232.244ZM237.876 279.211L236.681 286.72L238.729 287.061L239.412 283.136C239.412 283.989 240.265 284.501 241.118 284.501C242.142 284.501 242.825 283.648 242.825 282.795C242.825 281.771 242.142 281.088 241.118 281.088C240.763 281.059 240.406 281.142 240.1 281.326C239.794 281.509 239.553 281.784 239.412 282.112L239.924 279.381L237.876 279.211V279.211ZM224.222 280.405L218.761 286.379L219.444 287.061L226.27 282.453L224.052 280.405H224.222ZM211.593 295.253L216.884 289.28L216.372 288.597L209.545 293.205L211.593 295.253V295.253ZM225.417 293.717L219.102 288.768L218.42 289.28L223.54 295.765L225.417 293.717V293.717ZM209.545 282.283L216.201 287.061L216.884 286.549L211.764 280.064L209.545 282.283ZM216.713 278.357L217.396 286.208H218.249L220.297 278.528L216.713 278.357ZM218.761 297.131L218.249 289.451H217.225L216.03 297.301H218.761V297.131ZM227.465 286.891L219.273 287.573V288.427L227.465 289.451V286.72V286.891ZM208.009 289.451L216.03 288.256V287.573L207.838 286.72V289.451H208.009Z" fill="#F1B517" stroke="black" stroke-width="0.341334"/>
<path d="M217.908 289.793C219.133 289.793 220.127 288.876 220.127 287.745C220.127 286.614 219.133 285.697 217.908 285.697C216.683 285.697 215.689 286.614 215.689 287.745C215.689 288.876 216.683 289.793 217.908 289.793Z" fill="#F1B517" stroke="black" stroke-width="0.341334"/>
<path fill-rule="evenodd" clip-rule="evenodd" d="M229.342 287.745C229.342 293.718 224.222 298.838 217.907 298.838C216.428 298.861 214.959 298.592 213.584 298.047C212.208 297.501 210.954 296.69 209.892 295.66C208.83 294.63 207.982 293.401 207.395 292.043C206.808 290.685 206.495 289.224 206.473 287.745C206.473 281.601 211.593 276.652 217.907 276.652C219.387 276.629 220.856 276.898 222.231 277.443C223.606 277.989 224.861 278.8 225.923 279.83C226.984 280.86 227.833 282.089 228.42 283.447C229.006 284.805 229.32 286.266 229.342 287.745ZM227.123 287.745C227.101 288.933 226.845 290.105 226.37 291.194C225.895 292.283 225.21 293.267 224.354 294.092C223.498 294.916 222.488 295.563 221.382 295.997C220.276 296.431 219.095 296.642 217.907 296.62C216.705 296.642 215.511 296.425 214.393 295.981C213.276 295.536 212.259 294.874 211.401 294.032C210.543 293.189 209.861 292.184 209.396 291.076C208.931 289.967 208.691 288.777 208.691 287.574C208.78 285.205 209.796 282.966 211.52 281.338C213.243 279.71 215.537 278.824 217.907 278.87C219.095 278.848 220.276 279.059 221.382 279.493C222.488 279.927 223.498 280.574 224.354 281.399C225.21 282.223 225.895 283.207 226.37 284.296C226.845 285.385 227.101 286.557 227.123 287.745V287.745Z" fill="#F1B517" stroke="black" stroke-width="0.341334" stroke-linecap="round"/>
<path d="M210.74 282.114L209.033 280.748L210.74 282.114ZM223.54 280.748L225.247 279.042L223.54 280.748ZM226.953 294.743L225.076 293.207L226.953 294.743ZM210.74 296.45L212.447 294.743L210.74 296.45ZM249.481 276.652L251.359 286.892L249.823 287.575L248.116 276.823H249.481V276.652Z" fill="#F1B517" stroke="black" stroke-width="0.341334"/>
<path d="M248.457 275.457C247.603 274.945 246.409 275.628 244.361 273.238C241.118 276.14 244.361 276.652 244.702 279.553C245.555 279.894 246.238 277.164 248.627 276.993L252.553 276.652L251.699 275.457H248.286H248.457Z" fill="white" stroke="black" stroke-width="0.341334"/>
<path d="M249.823 277.335L249.482 274.433C248.97 273.239 247.775 274.263 247.775 274.775L248.117 277.676L249.823 277.335Z" fill="white" stroke="black" stroke-width="0.341334"/>
<path fill-rule="evenodd" clip-rule="evenodd" d="M240.265 285.697V288.428C239.241 288.769 239.412 289.452 239.412 290.476V298.497C239.241 299.18 238.217 299.18 237.705 299.521C237.193 300.033 237.364 300.887 239.412 301.228L241.119 301.399C243.679 300.887 244.191 300.033 242.825 299.692C242.313 299.351 241.289 299.009 241.119 298.668V296.62H242.825C243.167 296.62 244.02 295.596 244.02 294.743V290.476C244.02 288.087 242.313 287.745 241.631 287.916V285.697H240.265V285.697ZM242.996 290.305C242.996 289.623 241.972 288.94 241.631 288.94C241.289 288.94 240.436 289.793 240.436 290.476V292.183C240.436 292.865 240.948 294.913 241.972 295.084C242.313 295.084 242.996 294.401 242.996 293.719V290.305V290.305Z" fill="#F1B517" stroke="black" stroke-width="0.341334"/>
<path d="M229.173 294.059C227.978 293.717 227.978 296.107 227.978 296.107H229.685C230.538 296.448 231.05 297.472 230.709 298.155C230.197 298.496 226.954 297.301 226.783 298.155C227.295 301.397 231.733 302.592 233.269 301.227C234.805 299.691 235.146 296.107 230.197 294.912L229.173 294.059ZM230.197 295.083L229.685 296.107Z" fill="white"/>
<path d="M230.197 295.083L229.685 296.107M229.173 294.059C227.978 293.717 227.978 296.107 227.978 296.107H229.685C230.538 296.448 231.05 297.472 230.709 298.155C230.197 298.496 226.954 297.301 226.783 298.155C227.295 301.397 231.733 302.592 233.269 301.227C234.805 299.691 235.146 296.107 230.197 294.912L229.173 294.059Z" stroke="black" stroke-width="0.341334"/>
<path d="M196.233 295.255L194.526 288.428L196.233 295.255ZM198.11 294.914L195.55 289.623L198.11 294.914ZM202.377 293.549L196.745 290.476L202.377 293.549ZM204.937 292.866L194.355 288.258Z" fill="#F1B517"/>
<path d="M204.937 292.866L194.355 288.258M196.233 295.255L194.526 288.428L196.233 295.255ZM198.11 294.914L195.55 289.623L198.11 294.914ZM202.377 293.549L196.745 290.476L202.377 293.549Z" stroke="black" stroke-width="0.341334"/>
<path d="M188.041 283.308L183.604 283.478C183.263 283.649 184.457 285.014 184.287 285.356C183.263 287.233 176.777 287.062 176.265 286.721C175.412 285.868 182.239 285.356 182.409 285.014C182.409 284.332 181.385 282.966 181.556 282.113C181.556 280.918 184.457 280.406 184.457 280.406L188.041 283.308Z" fill="#D20014" stroke="#D20014" stroke-width="0.341334"/>
<path d="M193.161 286.72L184.628 279.552C184.628 279.552 184.116 279.211 183.775 279.552C183.433 279.893 183.775 280.235 183.775 280.235L192.991 287.744L193.161 286.891V286.72Z" fill="#503200" stroke="black" stroke-width="0.341334"/>
<path d="M201.694 293.89L194.526 287.746L194.014 286.039L192.649 287.063C192.137 287.404 191.625 288.428 191.625 288.428H193.502L199.646 294.231L201.524 293.89H201.694Z" fill="#F1B517" stroke="black" stroke-width="0.341334"/>
<path d="M226.101 303.446C226.761 303.446 227.296 302.911 227.296 302.251C227.296 301.592 226.761 301.057 226.101 301.057C225.441 301.057 224.906 301.592 224.906 302.251C224.906 302.911 225.441 303.446 226.101 303.446Z" fill="#F1B517" stroke="black" stroke-width="0.341334"/>
<path d="M222.857 301.057C223.517 301.057 224.051 300.522 224.051 299.863C224.051 299.203 223.517 298.668 222.857 298.668C222.197 298.668 221.662 299.203 221.662 299.863C221.662 300.522 222.197 301.057 222.857 301.057Z" fill="#F1B517" stroke="black" stroke-width="0.341334"/>
<path d="M218.591 302.592C219.251 302.592 219.786 302.058 219.786 301.398C219.786 300.738 219.251 300.203 218.591 300.203C217.931 300.203 217.396 300.738 217.396 301.398C217.396 302.058 217.931 302.592 218.591 302.592Z" fill="#F1B517" stroke="black" stroke-width="0.341334"/>
<path d="M211.935 303.958C212.595 303.958 213.13 303.423 213.13 302.763C213.13 302.103 212.595 301.568 211.935 301.568C211.275 301.568 210.74 302.103 210.74 302.763C210.74 303.423 211.275 303.958 211.935 303.958Z" fill="#F1B517" stroke="black" stroke-width="0.341334"/>
<path d="M209.033 304.3C209.692 304.3 210.227 303.765 210.227 303.105C210.227 302.445 209.692 301.91 209.033 301.91C208.373 301.91 207.838 302.445 207.838 303.105C207.838 303.765 208.373 304.3 209.033 304.3Z" fill="#F1B517" stroke="black" stroke-width="0.341334"/>
<path d="M206.132 304.3C206.792 304.3 207.327 303.765 207.327 303.105C207.327 302.445 206.792 301.91 206.132 301.91C205.472 301.91 204.938 302.445 204.938 303.105C204.938 303.765 205.472 304.3 206.132 304.3Z" fill="#F1B517" stroke="black" stroke-width="0.341334"/>
<path d="M203.402 304.3C204.061 304.3 204.596 303.765 204.596 303.105C204.596 302.445 204.061 301.91 203.402 301.91C202.742 301.91 202.207 302.445 202.207 303.105C202.207 303.765 202.742 304.3 203.402 304.3Z" fill="#F1B517" stroke="black" stroke-width="0.341334"/>
<path d="M204.767 302.081C205.427 302.081 205.962 301.546 205.962 300.886C205.962 300.226 205.427 299.691 204.767 299.691C204.107 299.691 203.572 300.226 203.572 300.886C203.572 301.546 204.107 302.081 204.767 302.081Z" fill="#F1B517" stroke="black" stroke-width="0.341334"/>
<path d="M207.497 302.251C208.157 302.251 208.692 301.716 208.692 301.056C208.692 300.396 208.157 299.861 207.497 299.861C206.838 299.861 206.303 300.396 206.303 301.056C206.303 301.716 206.838 302.251 207.497 302.251Z" fill="#F1B517" stroke="black" stroke-width="0.341334"/>
<path d="M210.058 301.911C210.718 301.911 211.253 301.376 211.253 300.716C211.253 300.056 210.718 299.521 210.058 299.521C209.398 299.521 208.863 300.056 208.863 300.716C208.863 301.376 209.398 301.911 210.058 301.911Z" fill="#F1B517" stroke="black" stroke-width="0.341334"/>
<path d="M208.863 299.862C209.522 299.862 210.057 299.327 210.057 298.667C210.057 298.008 209.522 297.473 208.863 297.473C208.203 297.473 207.668 298.008 207.668 298.667C207.668 299.327 208.203 299.862 208.863 299.862Z" fill="#F1B517" stroke="black" stroke-width="0.341334"/>
<path d="M206.132 299.692C206.792 299.692 207.327 299.157 207.327 298.497C207.327 297.838 206.792 297.303 206.132 297.303C205.472 297.303 204.938 297.838 204.938 298.497C204.938 299.157 205.472 299.692 206.132 299.692Z" fill="#F1B517" stroke="black" stroke-width="0.341334"/>
<path fill-rule="evenodd" clip-rule="evenodd" d="M232.926 303.788C232.926 303.276 231.561 303.447 231.561 302.764C231.561 302.082 233.609 302.764 233.779 303.276C234.974 302.252 235.486 302.935 236.169 303.276C237.193 301.911 238.387 301.911 239.582 302.935C240.265 302.252 241.971 302.423 242.483 303.276C243.678 302.252 244.702 302.423 245.385 303.276C245.726 302.764 246.238 302.764 246.579 303.276C247.091 302.082 248.627 302.423 249.31 303.276C249.822 302.594 250.505 303.106 251.187 303.447C251.699 303.106 252.553 303.106 252.553 303.447C252.553 304.13 251.529 303.959 251.529 304.471C251.529 304.812 252.211 304.471 252.211 305.154C252.211 305.666 251.187 305.836 251.017 305.154C250.505 305.836 249.139 305.495 248.969 304.812C248.84 304.958 248.683 305.074 248.506 305.154C248.33 305.233 248.138 305.275 247.945 305.275C247.751 305.275 247.559 305.233 247.383 305.154C247.206 305.074 247.049 304.958 246.921 304.812C246.409 305.154 245.726 305.154 245.555 304.812C244.702 305.666 243.166 305.495 242.654 304.471H242.142C241.982 304.653 241.785 304.798 241.564 304.898C241.343 304.997 241.104 305.049 240.862 305.049C240.62 305.049 240.38 304.997 240.16 304.898C239.939 304.798 239.742 304.653 239.582 304.471C238.046 305.495 237.193 305.154 236.339 304.471C235.486 305.666 233.95 305.666 233.779 304.471C233.097 304.983 231.731 305.154 231.731 304.471C231.731 304.13 232.926 304.3 232.926 303.788V303.788ZM235.657 303.959C235.657 304.3 235.315 304.471 234.974 304.471C234.633 304.471 234.291 304.3 234.291 303.959C234.291 303.618 234.462 303.618 234.974 303.618C235.486 303.618 235.657 303.788 235.657 303.959ZM238.899 303.618C238.899 303.959 238.387 304.13 237.875 304.13C237.363 304.13 237.022 303.959 237.022 303.618C237.022 303.447 237.363 303.106 237.875 303.106C238.387 303.106 238.729 303.447 238.729 303.618H238.899ZM244.873 303.959C244.873 304.3 244.531 304.471 244.019 304.471C243.507 304.471 243.337 304.3 243.337 303.959C243.337 303.788 243.678 303.447 244.019 303.447C244.361 303.447 244.873 303.618 244.873 303.959ZM241.63 303.959C241.63 304.3 241.289 304.471 240.777 304.471C240.265 304.471 240.094 304.3 240.094 303.788C240.094 303.447 240.435 303.106 240.777 303.106C241.118 303.106 241.63 303.447 241.63 303.788V303.959ZM248.457 303.959C248.457 304.13 248.286 304.471 247.945 304.471C247.433 304.471 247.091 304.13 247.091 303.788C247.091 303.447 247.433 303.276 247.945 303.276C248.286 303.276 248.627 303.447 248.627 303.788L248.457 303.959ZM246.409 303.959C246.409 304.3 246.409 304.471 246.067 304.471C245.726 304.471 245.555 304.3 245.555 303.959C245.555 303.618 245.726 303.618 246.067 303.618L246.409 303.959ZM250.505 304.13C250.505 304.471 250.505 304.812 249.993 304.812C249.822 304.812 249.481 304.471 249.481 304.13C249.481 303.788 249.822 303.618 249.993 303.618C250.334 303.618 250.505 303.788 250.505 304.13Z" fill="#F1B517" stroke="black" stroke-width="0.341334"/>
<path d="M255.625 282.795C251.359 282.795 247.945 284.502 247.945 286.379C247.945 286.72 247.945 287.062 248.287 287.403C249.14 288.427 252.212 289.11 255.796 289.11C259.209 289.11 261.94 288.598 262.964 287.574C263.305 287.232 263.476 286.891 263.476 286.379C263.476 284.502 260.063 282.966 255.625 282.966V282.795Z" fill="#0A328C" stroke="#0A328C" stroke-width="0.341334"/>
<path d="M263.476 286.721V298.667C263.476 300.203 260.063 301.227 255.796 301.227C251.529 301.227 247.945 300.203 247.945 298.667V286.721C247.945 288.086 251.359 289.281 255.625 289.281C260.063 289.281 263.476 288.086 263.476 286.721Z" fill="#F1B517" stroke="black" stroke-width="0.341334"/>
<path d="M247.945 286.721V288.427L251.7 300.374L254.772 291.158L258.185 300.545L260.404 291.67L263.476 297.643V294.401L260.745 288.598C260.408 288.725 260.067 288.839 259.721 288.939L258.015 295.425L255.455 289.281C255.056 289.29 254.658 289.29 254.26 289.281L251.7 295.425L248.969 287.915C248.287 287.574 247.945 287.062 247.945 286.721V286.721Z" fill="#D20014" stroke="#D20014" stroke-width="0.341334"/>
<path d="M263.476 296.449V298.668C263.476 300.204 260.063 301.228 255.796 301.228C251.529 301.228 247.945 300.204 247.945 298.668V296.449C247.945 297.985 251.359 299.009 255.625 299.009C260.063 299.009 263.476 297.985 263.476 296.449Z" fill="#0A328C" stroke="#0A328C" stroke-width="0.341334"/>
<path d="M258.868 298.668L256.991 299.009V301.228L259.039 301.057V298.839L258.868 298.668ZM250.676 298.497V300.716L252.553 301.057V298.839C251.921 298.764 251.294 298.65 250.676 298.497ZM247.945 296.449V298.668C247.945 299.18 248.287 299.521 248.799 299.863V297.644C248.287 297.303 247.945 296.961 247.945 296.449ZM263.476 296.791C263.476 297.132 262.793 297.644 262.111 297.985V300.204C262.964 299.863 263.476 299.351 263.476 298.668V296.961V296.791Z" fill="#F1B517" stroke="black" stroke-width="0.341334"/>
<path d="M263.476 286.721V298.667C263.476 300.203 260.063 301.227 255.796 301.227C251.529 301.227 247.945 300.203 247.945 298.667V286.721" stroke="black" stroke-width="0.341334"/>
<path d="M261.77 285.868C261.77 286.721 259.039 287.575 255.796 287.575C252.383 287.575 249.652 286.721 249.652 285.868C249.652 285.015 252.383 284.332 255.626 284.332C259.039 284.332 261.77 285.015 261.77 286.039V285.868Z" fill="white" stroke="white" stroke-width="0.341334"/>
<path d="M253.749 287.063L254.09 289.111H255.797L255.967 287.063H253.749V287.063ZM260.746 286.551L259.039 286.892L259.21 288.94L260.917 288.599V286.722L260.746 286.551ZM251.53 283.138L250.335 283.65L250.506 285.356L251.53 285.015V283.308V283.138ZM255.626 282.626H255.114L255.455 284.674H256.479L256.821 282.626C256.423 282.611 256.024 282.611 255.626 282.626V282.626ZM260.234 283.308L260.063 285.015L261.258 285.527V283.82C260.928 283.628 260.586 283.457 260.234 283.308V283.308ZM249.141 288.087L249.482 285.868L247.775 285.015V287.575L249.141 288.087ZM263.477 287.575V285.356L262.111 285.868L263.477 287.575ZM279.349 273.068C280.714 273.068 282.762 274.775 282.933 277.335C282.933 279.042 280.031 279.042 280.031 279.042C280.031 279.895 278.325 280.578 276.959 280.748C275.594 280.748 277.301 278.188 277.301 278.188C276.447 275.97 277.642 273.58 277.642 273.58L279.349 273.068Z" fill="#F1B517" stroke="black" stroke-width="0.341334"/>
<path d="M277.301 278.188H278.666C278.666 278.188 278.666 278.7 279.007 278.7C279.349 278.7 279.519 278.018 279.519 278.018H281.567" fill="#F1B517"/>
<path d="M277.301 278.188H278.666C278.666 278.188 278.666 278.7 279.007 278.7C279.349 278.7 279.519 278.018 279.519 278.018H281.567" stroke="black" stroke-width="0.341334"/>
<path d="M280.031 274.603C281.225 273.75 280.201 272.043 279.348 272.043H277.641C276.617 272.043 275.252 273.067 275.423 273.75C275.423 274.603 276.105 274.944 276.788 274.774C277.129 274.774 277.812 273.75 278.153 273.75C278.665 273.75 279.86 274.774 280.031 274.603V274.603Z" fill="#D20014" stroke="#F1B517" stroke-width="0.341334"/>
<path fill-rule="evenodd" clip-rule="evenodd" d="M194.868 298.326C193.844 298.497 193.674 299.692 194.015 300.886C189.578 302.081 185.482 303.788 181.386 304.982C181.215 304.129 183.434 301.91 183.434 301.91C183.946 302.081 184.458 303.446 184.458 303.446C184.458 300.716 187.188 299.009 187.188 299.009C185.482 298.667 180.874 300.716 180.362 301.398C180.362 301.398 182.068 301.057 182.41 301.398C182.41 301.398 178.655 305.324 178.484 306.518C179.167 307.713 185.311 308.737 185.311 308.737C185.311 309.078 183.604 310.444 183.604 310.444C186.164 310.785 189.919 309.078 190.943 308.054C190.943 308.054 188.042 307.713 185.823 305.836C185.823 305.836 186.164 307.03 185.823 307.542C185.823 307.542 182.41 306.518 181.898 305.836C181.898 305.836 190.431 303.788 194.527 302.422C194.698 303.276 195.551 304.641 196.575 304.3C197.087 304.129 196.916 302.934 196.575 301.91C196.714 302.034 196.876 302.128 197.052 302.186C197.228 302.245 197.414 302.267 197.599 302.252C198.282 302.252 198.794 301.739 198.794 301.057C198.794 300.374 198.282 299.862 197.599 299.862C197.339 299.876 197.089 299.963 196.877 300.115C196.666 300.266 196.502 300.474 196.404 300.715C196.234 299.862 195.722 298.326 195.039 298.497L194.868 298.326ZM198.282 301.057C198.282 301.398 197.94 301.569 197.599 301.569C197.519 301.597 197.434 301.605 197.351 301.593C197.267 301.58 197.188 301.547 197.12 301.496C197.053 301.445 196.999 301.379 196.963 301.302C196.928 301.225 196.912 301.141 196.916 301.057C196.916 300.715 197.258 300.374 197.599 300.374C197.94 300.374 198.111 300.715 198.111 301.057H198.282Z" fill="#F1B517" stroke="black" stroke-width="0.341334"/>
<path d="M329.354 303.617C329.696 302.934 329.354 299.862 329.354 299.862C328.501 299.862 327.648 301.057 327.648 301.057C328.501 298.326 326.282 294.23 326.282 294.23C327.818 294.401 332.938 299.35 333.109 300.374C333.109 300.374 330.89 299.521 330.549 299.692C331.061 302.252 332.768 303.447 333.45 304.812C333.45 304.812 330.549 305.324 330.72 307.884H328.842C328.16 307.03 329.013 305.665 329.013 305.665L315.872 300.204C315.018 299.862 313.141 298.838 313.482 297.814C313.653 296.961 316.896 298.326 317.578 298.668L329.525 303.617H329.354Z" fill="#F1B517" stroke="black" stroke-width="0.341334"/>
<path d="M316.724 301.227L318.43 298.496C318.942 297.643 317.748 296.79 316.894 297.814L315.188 300.374C314.505 301.91 316.041 302.251 316.894 301.227H316.724Z" fill="#F1B517" stroke="black" stroke-width="0.341334"/>
<path d="M224.2 307.801L224.1 304.801L220.3 304.901L220.1 308.301L224.2 307.801Z" fill="white" stroke="black" stroke-width="0.3"/>
<path d="M196.7 312.2L191.7 309.4C212.4 311.3 216.7 304 221.7 303.6C224.7 303.4 225.2 307 219.3 305.3L220.8 309.1C220.8 309.1 206 317.4 191.6 314.1L196.6 312.1L196.7 312.2ZM287.2 307.8V304.8H291.9L292.1 308.2L287.1 307.8H287.2Z" fill="white" stroke="black" stroke-width="0.3"/>
<path d="M315.6 311.4L320.4 308.8C296.6 309.6 302 304.9 290.1 303.6C287.1 303.3 284.7 307.3 292.5 305.3L291 309.1H294.7C302.585 313.877 312.035 315.35 321 313.2L315.6 311.4Z" fill="white" stroke="black" stroke-width="0.3"/>
<path d="M219.199 305.301V310.701C219.199 310.701 232.399 315.701 255.899 315.701C279.499 315.701 292.599 310.701 292.599 310.701V305.301C292.599 305.301 282.599 309.901 255.899 309.901C229.299 309.901 219.199 305.301 219.199 305.301Z" fill="white" stroke="black" stroke-width="0.3"/>
<path d="M221.1 310.799L222.3 306.799L222.8 306.999L221.8 310.399L223.8 310.999L223.7 311.499L221.1 310.699V310.799ZM225 308.999V308.199L225.2 307.599L225.8 307.699L225.6 308.399L225.3 309.099H225V308.999ZM230.6 308.699L231.2 308.899L230.7 311.199C230.7 311.599 230.5 311.899 230.3 312.199L229.7 312.599C229.372 312.684 229.028 312.684 228.7 312.599C228.336 312.559 227.99 312.421 227.7 312.199C227.54 312.035 227.435 311.825 227.4 311.599V310.599L227.9 308.199L228.5 308.299L228 310.599C227.9 310.999 227.9 311.299 228 311.399C228 311.599 228 311.799 228.2 311.899L228.7 312.099H229.7C229.9 311.899 230 311.599 230.1 311.099L230.6 308.699V308.699ZM231.2 312.999L231.9 308.999H232.5L234.2 312.599L234.7 309.399L235.2 309.499L234.5 313.499H234L232.3 309.899L231.8 313.099H231.2V312.999ZM235.6 313.699L236.2 309.699H236.7L236.1 313.699H235.6ZM237.2 311.899C237.229 311.327 237.48 310.789 237.9 310.399C238.123 310.222 238.381 310.095 238.656 310.026C238.932 309.957 239.22 309.948 239.5 309.999C239.9 309.999 240.2 310.099 240.5 310.299C240.8 310.599 241 310.799 241.1 311.199C241.2 311.499 241.3 311.899 241.2 312.299C241.144 312.658 241.007 313 240.8 313.299C240.6 313.699 240.3 313.899 240 313.999C239.687 314.143 239.344 314.211 239 314.199C238.636 314.159 238.29 314.021 238 313.799C237.6 313.599 237.4 313.299 237.3 312.899C237.19 312.578 237.155 312.235 237.2 311.899V311.899ZM237.8 311.899C237.7 312.499 237.8 312.899 238 313.199C238.3 313.499 238.6 313.699 239 313.699C239.4 313.699 239.8 313.699 240.1 313.399C240.4 313.099 240.6 312.799 240.6 312.199C240.668 311.903 240.668 311.595 240.6 311.299C240.498 311.052 240.324 310.843 240.1 310.699C239.898 310.536 239.656 310.432 239.4 310.399C239 310.399 238.7 310.399 238.4 310.699C238 310.899 237.8 311.399 237.8 311.999V311.899ZM241.7 314.399L242 310.299H242.6L244.6 313.699L244.8 310.499H245.4L245 314.699H244.5L242.5 311.199L242.2 314.399H241.7V314.399ZM247.7 314.799L247.8 310.699L250.8 310.799L250.7 311.299H248.4V312.499H250.4L250.3 312.999H248.3V314.799H247.7ZM250.7 314.899L252.5 310.899H253.1L254.8 314.999H254.1L253.6 313.699H252L251.5 314.999H250.9L250.7 314.899ZM252 313.299H253.5L253.1 312.199C252.987 311.903 252.886 311.603 252.8 311.299C252.8 311.599 252.6 311.799 252.5 312.099L252 313.299V313.299ZM255.3 314.999V310.899H255.9V314.999H255.3ZM257.9 314.999V311.399H256.5V310.899H259.8V311.299H258.4L258.5 314.999H257.9V314.999ZM262.1 314.899L261.9 310.799H262.5L262.6 314.399L264.7 314.299V314.799H262.1V314.899ZM265 314.799L266.3 310.599H266.9L268.9 314.499H268.3L267.7 313.299L265.9 313.499L265.6 314.699H265V314.799ZM266 312.999H267.5L267 311.799C266.855 311.538 266.722 311.271 266.6 310.999C266.554 311.27 266.487 311.538 266.4 311.799L266.1 312.999H266ZM271 314.299L270.6 310.299L273.4 309.899V310.399L271.2 310.699L271.3 311.899L273.3 311.699V312.199L271.4 312.399L271.6 314.199L271.1 314.299H271ZM274.2 311.999C274.1 311.299 274.2 310.699 274.5 310.299C274.665 310.076 274.874 309.889 275.115 309.751C275.356 309.614 275.623 309.528 275.9 309.499C276.245 309.478 276.589 309.547 276.9 309.699C277.3 309.699 277.6 309.999 277.8 310.299C278.016 310.618 278.155 310.982 278.207 311.364C278.259 311.745 278.222 312.134 278.1 312.499C277.984 312.82 277.775 313.098 277.5 313.299C277.2 313.499 276.8 313.699 276.5 313.699C276.131 313.769 275.75 313.735 275.4 313.599C275.072 313.446 274.794 313.204 274.6 312.899C274.389 312.602 274.252 312.259 274.2 311.899V311.999ZM274.7 311.899C274.8 312.399 275 312.799 275.3 312.899C275.6 313.199 276 313.299 276.4 313.299C276.8 313.299 277.2 312.999 277.4 312.699C277.6 312.399 277.7 311.999 277.6 311.399C277.558 311.114 277.456 310.841 277.3 310.599C277.156 310.375 276.946 310.2 276.7 310.099C276.449 309.988 276.17 309.953 275.9 309.999C275.708 310.009 275.52 310.059 275.348 310.145C275.175 310.231 275.023 310.351 274.9 310.499C274.7 310.799 274.7 311.299 274.8 311.899H274.7ZM279.2 313.299L278.4 309.299L280.3 308.899H281.2C281.4 308.899 281.6 308.999 281.7 309.199C281.9 309.299 282 309.499 282 309.799C282.023 310.049 281.952 310.299 281.8 310.499C281.7 310.699 281.4 310.899 281 310.999L281.4 311.199L282 311.599L282.9 312.599L282.2 312.699L281.5 311.999C281.34 311.825 281.174 311.658 281 311.499C280.909 311.419 280.808 311.351 280.7 311.299C280.6 311.282 280.499 311.282 280.4 311.299H279.4L279.8 313.199H279.2V313.299ZM279.3 310.899L280.5 310.699C280.8 310.699 281 310.699 281.1 310.499C281.204 310.44 281.288 310.352 281.341 310.245C281.395 310.138 281.415 310.017 281.4 309.899C281.396 309.797 281.367 309.697 281.314 309.61C281.262 309.522 281.188 309.45 281.1 309.399H280.4L279.1 309.599L279.3 310.899ZM286 310.499H286.6C286.6 310.899 286.5 311.299 286.2 311.599C286 311.899 285.6 312.099 285.2 312.199C284.84 312.302 284.459 312.302 284.1 312.199C283.728 312.076 283.41 311.829 283.2 311.499C283 311.196 282.864 310.856 282.8 310.499V309.399C282.8 308.999 283 308.699 283.3 308.499C283.59 308.277 283.936 308.138 284.3 308.099C284.626 308.004 284.973 308.004 285.3 308.099C285.7 308.299 286 308.499 286.2 308.899L285.7 309.099C285.556 308.875 285.346 308.7 285.1 308.599C284.871 308.529 284.628 308.529 284.4 308.599C284 308.599 283.8 308.699 283.6 308.899C283.411 309.083 283.303 309.335 283.3 309.599C283.248 310.162 283.389 310.726 283.7 311.199C283.9 311.499 284.1 311.599 284.3 311.699C284.6 311.699 284.8 311.799 285.1 311.699C285.4 311.699 285.6 311.599 285.8 311.299C286 311.099 286.1 310.799 286 310.499V310.499ZM287.6 311.499L286.5 307.599L289.5 306.799V307.299L287.1 307.999L287.5 309.199L289.7 308.599L289.9 308.999L287.6 309.599L288 310.999L290.5 310.299L290.7 310.799L287.7 311.599L287.6 311.499Z" fill="black"/>
</svg>
