<svg width="512" height="512" viewBox="0 0 512 512" fill="none" xmlns="http://www.w3.org/2000/svg">
<g clip-path="url(#clip0_7463_134501)">
<path d="M-176.4 0H676.933V512H-176.4V0Z" fill="white"/>
<path fill-rule="evenodd" clip-rule="evenodd" d="M-176.4 0V34.1333L193.377 256L-176.4 477.867V512H-119.511L250.266 290.133L620.044 512H676.933V477.867L307.155 256L676.933 34.1333V0H620.044L250.266 221.867L-119.511 0H-176.4Z" fill="#DF112D"/>
<path d="M296.118 77.1467C306.891 121.627 300.983 176.533 251.29 207.114C201.944 176.533 195.689 121.627 206.809 77.1467C218.624 66.7215 271.445 60.1189 296.118 77.1467V77.1467Z" fill="#E8112D" stroke="black" stroke-width="0.347506"/>
<path d="M251.637 68.1112C267.275 67.7637 282.913 71.5863 296.465 79.2314C298.749 64.0695 304.583 49.6619 313.493 37.1832C304.805 37.1832 300.983 41.7008 300.983 46.2184C298.898 40.3108 290.558 40.6583 287.778 43.7858C297.16 50.0409 289.863 61.1611 281.522 59.0761C277.7 58.0336 275.615 55.2535 274.572 51.0834C275.674 50.8676 276.656 50.2493 277.326 49.349C277.997 48.4488 278.309 47.3311 278.2 46.2138C278.092 45.0964 277.571 44.0595 276.74 43.305C275.909 42.5506 274.826 42.1326 273.704 42.1326C272.581 42.1326 271.499 42.5506 270.667 43.305C269.836 44.0595 269.316 45.0964 269.207 46.2138C269.099 47.3311 269.41 48.4488 270.081 49.349C270.751 50.2493 271.733 50.8676 272.835 51.0834C270.402 54.5585 266.232 56.6435 262.062 55.601C257.545 54.5585 255.46 50.3884 255.46 46.9134C255.46 37.5307 264.495 36.1407 267.275 37.8782C267.275 31.6231 257.197 26.4105 254.07 31.6231C257.545 25.0205 256.85 16.6804 251.289 11.4678C248.747 14.0253 247.102 17.3377 246.601 20.9088C246.1 24.4798 246.769 28.1171 248.509 31.2756C245.382 26.063 235.652 31.2756 235.652 37.5307C238.084 35.7932 247.119 37.1832 247.119 46.5659C247.119 50.0409 245.034 54.211 240.864 55.2535C238.771 55.7382 236.579 55.5643 234.589 54.7556C232.598 53.947 230.906 52.543 229.744 50.7359C230.439 50.7359 231.134 50.0409 231.829 49.3459C232.526 48.6057 232.952 47.6523 233.04 46.6397C233.128 45.6271 232.871 44.6145 232.312 43.7656C231.754 42.9167 230.925 42.2811 229.96 41.9615C228.995 41.6419 227.951 41.6569 226.995 42.0043C226.04 42.3516 225.23 43.0109 224.696 43.8756C224.162 44.7403 223.935 45.7599 224.052 46.7695C224.169 47.7792 224.623 48.7199 225.34 49.4396C226.058 50.1594 226.997 50.6161 228.007 50.7359C227.312 54.906 224.879 57.6861 221.056 58.7286C219.107 59.2258 217.043 59.0013 215.245 58.0964C213.448 57.1916 212.038 55.6674 211.276 53.8049C210.515 51.9424 210.452 49.8673 211.1 47.9622C211.747 46.057 213.062 44.4503 214.801 43.4383C212.021 39.9633 203.681 39.9633 201.596 45.8709C201.596 41.3533 197.774 36.8357 189.086 36.8357C198.119 49.2817 204.074 63.6917 206.461 78.8839C220.324 71.418 235.897 67.7045 251.637 68.1112V68.1112Z" fill="#F9DD16" stroke="black" stroke-width="0.347506"/>
<path d="M289.168 111.897C287.778 111.897 287.778 113.635 287.431 113.635C290.211 113.635 291.601 112.592 292.296 111.202V113.287C294.381 112.592 295.076 110.855 294.381 109.812L296.813 110.507C295.423 109.465 296.466 107.032 294.033 105.642C294.728 105.642 296.118 106.337 296.813 107.38C296.466 104.947 296.118 103.557 294.033 102.167H295.771C295.317 101.865 294.95 101.45 294.706 100.962C294.462 100.474 294.35 99.9314 294.381 99.387C294.381 97.997 293.686 97.997 292.296 98.3445L286.041 98.692C282.566 98.692 279.091 98.692 276.31 96.607C280.828 98.692 286.736 94.5219 286.736 91.3944C286.736 87.9193 281.871 84.4443 272.835 86.5293C263.8 88.6143 252.68 87.9193 252.68 84.7918C252.68 81.6642 260.673 81.3167 264.843 82.0117C269.013 82.7067 271.793 83.0543 279.438 80.2742C277.7 80.9692 271.445 81.3167 266.58 79.9267C261.715 78.5367 249.9 78.5367 249.9 84.7918C249.9 91.3944 262.41 90.6994 273.53 88.9619C279.786 88.2668 283.261 88.9619 283.261 90.6994C283.261 92.7844 277.353 93.4794 272.835 93.1319C268.065 92.4889 263.213 92.844 258.588 94.1744C254.07 95.5645 250.943 94.1744 246.077 95.217C243.645 95.217 237.737 95.217 234.957 90.3519C233.22 91.7419 228.007 94.1744 226.965 96.9545C225.922 99.0395 226.965 101.472 228.355 103.905C230.44 106.685 227.312 106.337 224.88 106.337C222.1 106.337 217.929 106.337 215.844 103.557C213.759 101.472 211.327 99.7345 209.242 101.125C208.199 102.167 209.242 103.21 209.937 102.862L212.717 103.557C212.159 103.303 211.543 103.202 210.933 103.263C210.322 103.324 209.739 103.545 209.242 103.905C208.199 104.6 209.242 105.99 210.284 105.642C210.979 105.295 212.717 104.947 213.759 105.642C212.717 105.642 211.327 105.642 210.979 106.337C210.632 107.032 210.979 107.727 212.022 107.727C214.107 107.727 214.454 109.117 216.539 108.77C216.054 108.796 215.581 108.936 215.159 109.177C214.737 109.418 214.376 109.755 214.107 110.16C216.192 109.117 217.929 111.55 220.362 110.855C219.667 111.202 217.929 112.245 217.929 112.94C219.319 111.202 229.05 114.33 229.05 110.507L228.702 113.287C229.745 112.592 233.567 112.245 234.957 109.812C234.957 110.507 234.957 111.55 234.262 111.897C235.305 111.897 237.042 111.202 238.78 108.77C239.475 107.727 239.475 107.032 239.475 106.337C241.212 106.337 242.255 105.99 243.645 104.947C245.035 103.905 246.425 105.99 248.857 104.252C250.943 102.862 253.028 104.252 254.418 103.557C255.46 102.862 257.198 103.557 258.588 102.862C259.978 102.167 262.063 103.21 264.148 101.472C267.623 102.862 272.14 104.947 282.218 103.21C287.778 102.167 289.863 104.252 289.863 106.685C289.863 108.77 288.473 108.77 287.778 108.77C284.303 109.117 283.261 107.727 281.871 108.075C281.176 108.422 280.481 109.812 281.871 110.507C280.828 110.855 280.828 111.897 281.523 112.245C282.218 112.592 283.261 112.245 284.303 111.897C282.913 112.245 281.871 113.287 282.566 114.33C282.913 115.025 283.956 115.372 284.998 114.33C286.041 112.94 287.778 111.897 289.168 111.897V111.897ZM224.532 84.0968C221.752 83.0543 221.057 83.0543 221.405 85.4868C221.405 86.5293 222.447 87.9193 223.142 88.6143C223.142 87.5718 223.49 85.1393 224.532 84.4443V84.0968Z" fill="#F9DD16" stroke="black" stroke-width="0.347506"/>
<path d="M233.914 84.4441C236.694 83.0541 237.737 83.0541 237.042 85.4866C237.042 86.5291 235.999 87.9191 235.304 88.6142C235.304 87.5716 235.304 85.1391 233.914 84.4441Z" fill="#F9DD16" stroke="black" stroke-width="0.347506"/>
<path d="M229.398 82.707C234.958 82.707 235.653 85.4871 235.305 88.6146C235.305 92.0897 233.568 90.6997 232.525 95.5648C232.178 96.9548 230.788 97.3023 229.05 97.3023C228.008 97.3023 226.618 97.3023 225.923 95.2172C224.88 90.6997 223.143 91.7422 223.143 88.2671C223.143 85.4871 223.838 82.707 229.398 82.707V82.707Z" fill="#F9DD16" stroke="black" stroke-width="0.347506"/>
<path d="M215.149 95.5643C213.759 94.8693 212.717 95.5643 212.022 95.5643C214.107 95.9118 214.107 98.3444 218.277 99.0394C217.234 99.0394 216.887 99.7344 215.844 99.0394C217.582 100.429 219.319 102.167 223.49 102.167C225.922 102.167 224.185 103.209 222.795 102.514C224.185 104.252 227.312 102.862 229.397 105.989C229.397 103.557 225.922 100.082 227.66 97.6494C221.752 97.3019 221.404 94.1743 218.277 91.7418C215.497 89.6567 215.149 87.5717 214.107 83.7491C213.759 82.0116 211.674 80.9691 210.632 81.3166C209.589 81.3166 208.894 82.3591 209.937 83.0541C210.632 83.7491 212.022 83.7491 212.022 85.4867C210.979 84.0966 209.242 83.7491 208.547 84.4441C208.199 85.1391 208.547 86.1817 209.242 86.1817C210.979 86.1817 209.937 88.2667 211.674 89.6567C209.937 87.9192 208.547 87.5717 207.504 88.6142C207.157 89.3092 207.504 90.3517 208.894 90.3517C210.632 90.3517 212.369 94.5218 215.149 95.5643V95.5643ZM260.325 111.55C259.63 111.55 259.978 113.287 258.588 113.287C261.368 113.287 263.105 112.592 264.148 111.55L263.453 113.287C264.843 112.245 268.665 111.897 270.403 112.245C272.14 112.592 272.488 111.897 273.183 110.855C273.878 109.465 273.183 108.77 272.14 108.075C271.098 107.032 270.75 105.642 271.098 103.557C266.233 96.6068 257.198 100.082 257.198 102.862C260.325 106.685 260.673 106.337 263.453 106.685C265.885 107.38 267.623 107.38 265.885 108.77C265.19 109.465 262.41 108.77 260.673 109.117C256.155 109.117 253.723 105.989 252.68 107.727C251.637 109.117 252.68 109.812 254.765 109.812C253.375 109.812 251.29 109.812 251.638 111.202C252.333 113.635 254.418 110.855 255.46 111.55C254.765 111.55 253.375 111.897 253.375 112.592C253.375 113.287 255.113 114.33 256.85 112.592C257.859 111.866 259.083 111.499 260.325 111.55V111.55Z" fill="#F9DD16" stroke="black" stroke-width="0.347506"/>
<path d="M230.092 87.5714V88.614C230.439 91.0465 231.134 92.089 229.049 92.089C227.312 92.089 228.007 91.0465 228.354 88.614V87.5714M264.147 101.472C262.757 100.777 261.02 100.429 259.282 100.777L264.147 101.472ZM239.822 100.777C238.432 103.557 239.127 104.947 239.474 106.337L239.822 100.777ZM225.574 86.8764C226.269 87.5714 226.964 86.1814 228.354 87.5714C228.007 87.2239 227.312 88.614 226.269 87.5714L225.574 86.8764ZM233.219 87.2239C232.177 87.2239 231.482 86.1814 230.092 87.5714C230.439 87.2239 231.134 88.614 232.177 87.5714L233.219 87.2239Z" stroke="black" stroke-width="0.347506"/>
<path d="M229.395 96.2598C230.785 96.2598 231.48 96.2598 231.48 94.1747C231.48 93.4797 232.523 93.1322 231.828 91.7422C232.523 93.1322 229.395 93.1322 229.395 92.4372C229.395 93.1322 225.92 93.1322 226.615 91.7422C226.268 93.1322 227.31 93.4797 226.963 94.1747C226.963 96.2598 227.658 96.2598 229.395 96.2598V96.2598Z" fill="#FF0016" stroke="black" stroke-width="0.347506"/>
<path d="M227.659 92.0894L224.184 91.0469L227.659 92.0894ZM227.659 92.0894H224.184H227.659ZM227.659 92.4369L224.531 93.4794L227.659 92.4369ZM230.439 92.0894L233.914 91.0469L230.439 92.0894ZM230.439 92.0894H234.609H230.439ZM230.439 92.4369L233.914 93.4794Z" fill="black"/>
<path d="M230.439 92.4369L233.914 93.4794M227.659 92.0894L224.184 91.0469L227.659 92.0894ZM227.659 92.0894H224.184H227.659ZM227.659 92.4369L224.531 93.4794L227.659 92.4369ZM230.439 92.0894L233.914 91.0469L230.439 92.0894ZM230.439 92.0894H234.609H230.439Z" stroke="black" stroke-width="0.347506"/>
<path d="M210.631 81.317C209.588 79.927 207.156 81.317 207.156 82.707C207.851 81.6645 209.241 83.0545 210.283 82.707C210.631 82.707 211.326 82.012 210.631 81.317ZM209.588 84.4445C208.546 83.0545 205.766 84.4445 205.766 85.8346C206.461 84.792 207.851 86.1821 208.893 85.8346C209.241 85.8346 209.936 84.792 209.588 84.4445V84.4445ZM208.893 88.6146C207.503 87.2246 205.071 88.6146 205.418 90.3521C206.113 89.3096 207.503 90.3521 208.198 90.3521C208.893 90.0046 209.241 88.9621 208.546 88.6146H208.893ZM209.936 101.472C208.546 100.082 206.461 101.82 206.461 103.557C207.156 102.167 208.893 103.557 209.936 102.862C209.936 102.862 210.631 101.82 209.936 101.125V101.472ZM209.936 103.905C208.198 103.557 206.461 105.99 207.503 107.38C207.503 105.642 209.588 106.337 210.283 105.642L209.936 103.905ZM212.021 106.337C210.283 105.642 208.546 107.727 209.588 109.117C209.588 108.075 211.673 108.422 212.021 107.727V105.99V106.337ZM252.679 110.16C250.942 109.812 249.204 111.897 250.247 113.635C250.247 111.897 252.332 112.593 253.027 111.897L252.679 110.16ZM254.764 112.245C253.027 111.897 251.637 114.33 252.679 115.72C252.679 113.983 254.764 114.33 255.112 113.635C255.459 113.288 255.459 112.245 255.112 112.245H254.764ZM253.374 107.38C251.984 106.685 249.899 108.77 250.247 110.16C250.942 108.77 252.679 109.812 253.374 109.117V107.727V107.38ZM282.217 110.855C280.827 110.507 279.437 112.94 280.132 114.33C280.132 112.94 282.217 113.288 282.912 112.593C282.912 111.897 282.912 110.855 282.217 110.855V110.855ZM282.217 108.422C280.827 107.38 278.742 109.465 279.437 110.855C280.132 109.812 281.87 110.507 282.565 109.812V108.075L282.217 108.422ZM283.607 112.94C281.87 112.94 280.48 115.373 281.522 116.415C281.522 115.025 283.607 115.373 283.955 114.678C284.302 113.983 283.955 113.288 283.607 112.94ZM229.396 94.8697C230.439 94.8697 230.786 95.2172 230.786 97.3022C230.786 100.777 230.786 102.862 229.396 102.862C228.354 102.862 228.354 101.125 228.354 98.3448C228.354 96.9547 228.354 95.9122 228.006 96.2597C228.006 95.2172 228.354 94.8697 229.396 94.8697V94.8697Z" fill="#0051BA"/>
<path d="M283.954 148.385C282.911 148.385 282.912 149.775 282.564 149.775C284.997 149.775 286.039 149.08 286.734 147.69V149.427C288.819 149.08 289.514 147.342 288.819 146.3L290.904 146.995C289.862 146.3 290.904 143.867 288.472 142.825C289.167 142.825 290.209 143.172 290.904 144.215C290.904 142.13 290.209 140.74 288.472 139.697H289.862C289.443 139.38 289.123 138.95 288.938 138.458C288.754 137.966 288.712 137.432 288.819 136.917C288.819 135.875 288.124 135.875 286.734 136.222H281.174C278.046 136.222 274.919 136.222 272.486 134.485C276.656 136.57 281.869 132.747 281.869 129.967C281.869 126.492 277.351 123.712 269.359 125.45C261.366 127.535 251.288 126.84 251.288 124.06C251.288 121.28 258.239 120.584 262.061 121.28C265.884 121.975 268.316 122.322 275.266 119.889C273.876 120.584 268.316 120.932 263.799 119.542C259.281 118.152 248.856 118.152 248.856 124.06C248.856 129.967 259.976 129.272 269.706 127.535C275.614 127.187 278.741 127.535 278.741 129.272C278.741 131.01 273.529 131.705 269.359 131.357C265.047 130.807 260.668 131.162 256.501 132.4C252.331 133.79 249.551 132.4 245.381 133.442C242.948 133.442 237.736 133.442 234.956 128.925C233.566 130.315 229.048 132.4 228.006 134.832C227.311 136.917 228.006 139.002 229.396 141.087C231.133 143.52 228.353 143.172 225.921 143.172C223.836 143.172 220.013 143.172 217.928 140.74C216.19 139.002 214.105 137.265 212.02 138.655C211.325 139.697 212.02 140.392 212.715 140.045L215.148 140.74C214.642 140.516 214.087 140.431 213.537 140.492C212.988 140.553 212.464 140.758 212.02 141.087C211.325 141.782 212.02 143.172 213.063 142.825C213.758 142.477 215.148 142.13 216.19 142.825L213.758 143.172C213.41 143.52 213.758 144.562 214.8 144.562C216.538 144.562 216.885 145.952 218.623 145.605C218.221 145.617 217.826 145.717 217.466 145.897C217.106 146.077 216.789 146.333 216.538 146.647C218.275 145.952 220.013 148.037 222.098 147.342C221.403 147.69 220.013 148.732 220.013 149.427C221.055 147.69 230.091 150.47 230.091 146.995L229.743 149.427C230.438 149.08 233.913 148.732 235.303 146.3C235.303 146.995 235.303 148.037 234.608 148.385C235.651 148.385 237.041 147.69 238.778 145.605C239.473 144.562 239.473 143.867 239.473 143.172C240.863 143.172 241.906 143.172 242.948 142.13C244.338 141.087 245.728 143.172 247.813 141.435C249.551 140.045 251.288 141.435 252.678 140.74C253.721 140.045 255.459 140.74 256.501 140.045C257.544 139.35 259.976 140.392 261.714 139.002C264.841 140.045 268.664 142.13 277.699 140.392C282.912 139.697 284.649 141.435 284.649 143.867C284.649 145.605 283.606 145.605 282.911 145.605C279.436 145.605 278.741 144.562 277.351 144.91C277.004 144.91 276.309 146.3 277.351 146.995C276.656 147.342 276.656 148.385 277.351 148.732C278.046 149.08 278.741 148.732 279.784 148.385C278.394 148.385 277.351 149.427 278.046 150.47C278.394 151.165 279.436 151.513 280.479 150.47C281.174 149.427 282.911 148.385 283.954 148.385ZM225.921 123.365C223.488 122.322 222.445 122.322 223.14 124.407C223.14 125.45 224.183 126.84 224.531 127.535C224.531 126.492 224.878 124.06 225.921 123.712V123.365Z" fill="#F9DD16" stroke="black" stroke-width="0.347506"/>
<path d="M234.607 123.712C236.692 122.322 238.082 122.322 237.04 124.407C237.04 125.449 236.345 126.839 235.65 127.534C235.65 126.492 235.65 124.059 234.26 123.712H234.607Z" fill="#F9DD16" stroke="black" stroke-width="0.347506"/>
<path d="M230.439 121.975C235.304 121.975 235.999 124.407 235.651 127.535C235.651 130.662 233.914 129.272 233.219 133.79C232.871 134.832 231.481 135.18 229.744 135.18C229.049 135.18 227.659 135.18 227.311 133.442C226.269 129.272 224.531 129.967 224.531 127.187C224.531 124.407 225.226 121.975 230.439 121.975Z" fill="#F9DD16" stroke="black" stroke-width="0.347506"/>
<path d="M217.233 133.789C216.19 133.094 215.148 133.789 214.8 133.789C216.538 133.789 216.538 136.222 220.36 136.917H217.928C219.665 137.959 221.403 139.697 224.878 139.697C227.311 139.697 225.573 140.392 224.183 139.697C225.573 141.434 228.353 140.044 230.438 143.172C230.438 140.739 226.963 137.612 228.701 135.527C223.488 135.179 223.141 132.052 220.36 130.314C217.928 128.229 217.58 126.492 216.538 123.017C216.19 121.279 214.453 120.584 213.063 120.932C212.368 120.932 211.673 121.627 213.063 122.322C213.063 123.017 214.8 123.017 214.8 124.407C213.758 123.364 212.02 123.017 211.325 123.712C211.325 124.407 211.325 125.102 212.02 125.102C213.758 125.102 212.715 127.187 214.453 128.577C212.715 126.839 211.673 126.492 210.63 127.534C210.283 127.882 210.63 128.924 211.673 128.924C213.41 128.924 215.148 132.399 217.58 133.789H217.233ZM258.239 147.69C257.544 147.69 257.891 149.427 256.501 149.427C258.934 149.427 260.671 149.08 261.714 148.037L261.019 149.427C262.061 148.732 265.536 148.385 267.274 148.732C269.011 149.08 269.011 148.385 269.706 147.342C270.401 146.3 269.706 145.605 268.664 144.91C267.969 143.867 267.621 142.824 267.969 140.739C263.451 134.484 255.459 137.612 255.459 140.044C258.239 143.519 258.586 143.519 261.019 143.519C263.104 144.214 264.494 144.215 263.104 145.605C262.409 146.3 259.976 145.605 258.586 145.605C254.416 145.605 252.331 143.172 251.289 144.562C250.246 145.952 251.289 146.3 253.026 146.3C251.984 146.3 249.898 146.3 250.246 147.69C250.941 149.775 252.679 147.69 253.721 147.69C253.026 147.69 251.984 148.385 251.984 149.08C251.984 149.427 253.374 150.47 255.111 149.08C256 148.379 257.107 148.01 258.239 148.037V147.69Z" fill="#F9DD16" stroke="black" stroke-width="0.347506"/>
<path d="M230.787 126.145V127.535C231.135 129.62 231.83 130.663 230.092 130.663C228.355 130.663 229.05 129.62 229.397 127.187V126.492M261.715 139.003C260.331 138.268 258.739 138.023 257.198 138.308L261.715 139.003ZM239.823 138.308C238.433 140.74 239.128 141.783 239.475 143.173L239.823 138.308ZM226.965 125.797C227.312 126.492 228.007 125.102 229.397 126.492C229.05 126.145 228.355 127.535 227.312 126.492L226.965 125.797ZM233.567 126.145C232.872 126.145 232.177 125.102 230.787 126.145C231.135 126.145 231.83 127.535 232.872 126.145H233.567Z" stroke="black" stroke-width="0.347506"/>
<path d="M230.438 134.137C231.481 134.137 232.176 134.137 232.176 132.399C232.176 131.704 233.218 131.357 232.176 130.314C233.218 131.357 230.438 131.357 230.438 130.662C230.438 131.357 226.963 131.357 227.658 130.314C227.658 131.357 228.353 131.704 228.006 132.399C228.006 134.137 228.701 134.137 230.438 134.137Z" fill="#FF0016" stroke="black" stroke-width="0.347506"/>
<path d="M228.702 130.663L225.574 129.62L228.702 130.663ZM228.702 130.663H225.574H228.702ZM228.702 130.663L225.922 131.705L228.702 130.663ZM231.134 130.663L234.609 129.62L231.134 130.663ZM231.134 130.663H234.957H231.134ZM231.482 130.663L234.262 131.705Z" fill="black"/>
<path d="M231.482 130.663L234.262 131.705M228.702 130.663L225.574 129.62L228.702 130.663ZM228.702 130.663H225.574H228.702ZM228.702 130.663L225.922 131.705L228.702 130.663ZM231.134 130.663L234.609 129.62L231.134 130.663ZM231.134 130.663H234.957H231.134Z" stroke="black" stroke-width="0.347506"/>
<path d="M213.41 120.933C212.368 119.542 209.935 120.933 209.935 121.975C210.978 121.28 212.02 122.323 213.063 121.975C213.063 121.975 214.105 121.28 213.063 120.933H213.41ZM212.368 123.713C211.673 122.323 208.893 123.713 208.893 124.755C209.588 124.06 210.978 125.103 211.673 124.755C212.02 124.755 212.715 124.06 212.368 123.713ZM211.673 127.188C210.63 126.145 208.198 127.188 208.545 128.925C209.24 127.883 210.63 128.925 211.325 128.925C211.673 128.925 212.02 127.535 211.325 127.535L211.673 127.188ZM212.715 139.003C211.673 137.613 209.588 139.003 209.588 140.74C210.283 139.698 211.673 140.74 213.063 140.045V139.003H212.715ZM212.715 141.088C211.325 141.088 209.588 143.173 210.63 144.563C210.63 142.825 212.368 143.173 213.063 142.825V141.088H212.715ZM214.801 143.173C213.063 142.825 211.325 144.563 212.368 145.953C212.368 144.91 214.453 145.258 214.801 144.563V143.173ZM251.289 146.648C249.551 146.648 247.814 148.385 249.204 150.123C249.204 148.385 250.941 149.08 251.636 148.385L251.289 146.648V146.648ZM253.026 148.733C251.636 148.385 250.246 150.471 251.289 151.861C251.289 150.123 253.026 150.471 253.374 149.775V148.733H253.026ZM251.984 144.215C250.594 143.52 248.509 145.605 249.204 146.648C249.551 145.605 251.289 146.648 251.984 145.953V144.563V144.215ZM277.699 147.69C276.657 146.995 275.267 149.428 275.962 150.471C275.962 149.428 277.699 149.428 278.394 149.08C278.394 148.385 278.394 147.343 277.699 147.343V147.69ZM277.699 145.258C276.657 144.215 274.571 146.3 275.267 147.343C275.962 146.3 277.352 147.343 278.047 146.3V144.91L277.699 145.258ZM279.089 149.428C277.352 149.428 276.309 151.513 277.352 152.556C277.352 151.166 279.089 151.513 279.437 150.818L279.089 149.428ZM230.438 133.095C231.133 133.095 231.481 133.095 231.481 135.18C231.481 138.308 231.481 140.045 230.438 140.045C229.396 140.045 229.396 138.655 229.396 136.223C229.396 134.833 229.396 133.79 229.048 134.138C229.048 133.443 229.048 133.095 230.438 133.095V133.095Z" fill="#0051BA"/>
<path d="M275.508 179.487C274.577 179.487 274.577 180.79 274.344 180.79C276.207 180.79 277.138 180.008 277.604 178.966V180.53C279.001 180.008 279.466 178.705 279.001 177.923L280.63 178.445C279.699 177.663 280.398 175.838 278.768 174.796C279.234 174.796 280.165 175.317 280.63 176.099C280.398 174.275 280.165 173.232 278.768 172.19H279.932C279.628 171.963 279.382 171.651 279.219 171.286C279.055 170.92 278.98 170.513 279.001 170.104C279.001 169.062 278.535 169.062 277.604 169.323L273.413 169.583C271.085 169.583 268.756 169.583 266.894 168.019C269.92 169.583 273.878 166.456 273.878 164.11C273.878 161.504 270.619 158.897 264.565 160.461C258.512 162.025 251.061 161.504 251.061 159.158C251.061 156.812 256.416 156.552 259.21 157.073C262.004 157.594 263.867 157.855 268.989 155.77C267.825 156.291 263.634 156.552 260.374 155.509C257.115 154.467 249.199 154.467 249.199 159.158C249.199 164.11 257.58 163.589 265.031 162.286C269.222 161.764 271.55 162.286 271.55 163.589C271.55 165.153 267.592 165.674 264.565 165.413C261.369 164.931 258.119 165.197 255.019 166.195C251.993 167.238 249.897 166.195 246.637 166.977C245.008 166.977 241.05 166.977 239.187 163.328C238.023 164.371 234.53 166.195 233.832 168.28C233.133 169.844 233.832 171.668 234.763 173.493C236.16 175.578 234.065 175.317 232.435 175.317C230.572 175.317 227.778 175.317 226.381 173.232C224.984 171.668 223.355 170.365 221.958 171.408C221.259 172.19 221.958 172.971 222.423 172.711L224.286 173.232C223.912 173.042 223.499 172.965 223.09 173.011C222.681 173.057 222.291 173.223 221.958 173.493C221.259 174.014 221.958 175.056 222.656 174.796C223.122 174.535 224.286 174.275 224.984 174.796C224.286 174.796 223.355 174.796 223.122 175.317C222.889 175.838 223.122 176.36 223.82 176.36C225.217 176.36 225.45 177.402 226.847 177.141C226.522 177.161 226.205 177.266 225.922 177.447C225.639 177.628 225.398 177.88 225.217 178.184C226.614 177.402 227.778 179.227 229.408 178.705C228.942 178.966 227.778 179.748 227.778 180.269C228.71 178.966 235.229 181.312 235.229 178.445L234.996 180.53C235.695 180.008 238.256 179.748 239.187 177.923C239.187 178.445 239.187 179.227 238.721 179.487C239.42 179.487 240.584 178.966 241.748 177.141C242.214 176.36 242.214 175.838 242.214 175.317C243.378 175.317 244.076 175.056 245.008 174.275C245.939 173.493 246.87 175.056 248.5 173.753C249.897 172.711 251.294 173.753 252.225 173.232C252.924 172.711 254.088 173.232 255.019 172.711C255.951 172.19 257.348 172.971 258.745 171.668C261.073 172.711 264.1 174.275 270.852 172.971C274.577 172.19 275.974 173.753 275.974 175.578C275.974 177.141 275.043 177.141 274.577 177.141C272.249 177.402 271.55 176.36 270.619 176.62C270.153 176.881 269.688 177.923 270.619 178.445C269.92 178.705 269.92 179.487 270.386 179.748C270.852 180.008 271.55 179.748 272.249 179.487C271.317 179.748 270.619 180.53 271.085 181.312C271.317 181.833 272.016 182.093 272.714 181.312C273.413 180.269 274.577 179.487 275.508 179.487V179.487ZM232.202 158.637C230.339 157.855 229.874 157.855 230.107 159.679C230.107 160.461 230.805 161.504 231.271 162.025C231.271 161.243 231.504 159.419 232.202 158.897V158.637Z" fill="#F9DD16" stroke="black" stroke-width="0.246337"/>
<path d="M238.488 158.898C240.351 157.855 241.049 157.855 240.584 159.68C240.584 160.462 239.885 161.504 239.42 162.025C239.42 161.243 239.42 159.419 238.488 158.898Z" fill="#F9DD16" stroke="black" stroke-width="0.246337"/>
<path d="M235.46 157.595C239.186 157.595 239.651 159.68 239.419 162.025C239.419 164.632 238.254 163.589 237.556 167.238C237.323 168.281 236.392 168.541 235.228 168.541C234.529 168.541 233.598 168.541 233.132 166.977C232.434 163.589 231.27 164.371 231.27 161.765C231.27 159.68 231.735 157.595 235.46 157.595V157.595Z" fill="#F9DD16" stroke="black" stroke-width="0.246337"/>
<path d="M225.915 167.238C224.984 166.716 224.285 167.238 223.82 167.238C225.217 167.498 225.217 169.323 228.011 169.844C227.312 169.844 227.079 170.365 226.381 169.844C227.545 170.887 228.709 172.19 231.503 172.19C233.133 172.19 231.969 172.972 231.037 172.45C231.969 173.753 234.064 172.711 235.461 175.057C235.461 173.232 233.133 170.626 234.297 168.801C230.339 168.541 230.106 166.195 228.011 164.371C226.148 162.807 225.915 161.243 225.217 158.376C224.984 157.073 223.587 156.291 222.888 156.552C222.19 156.552 221.724 157.334 222.423 157.855C222.888 158.376 223.82 158.376 223.82 159.679C223.121 158.637 221.957 158.376 221.491 158.898C221.259 159.419 221.491 160.201 221.957 160.201C223.121 160.201 222.423 161.764 223.587 162.807C222.423 161.504 221.491 161.243 220.793 162.025C220.56 162.546 220.793 163.328 221.724 163.328C222.888 163.328 224.053 166.456 225.915 167.238V167.238ZM256.183 179.227C255.717 179.227 255.95 180.53 255.019 180.53C256.881 180.53 258.046 180.009 258.744 179.227L258.278 180.53C259.21 179.748 261.771 179.487 262.935 179.748C264.099 180.009 264.332 179.487 264.798 178.705C265.263 177.663 264.798 177.142 264.099 176.62C263.401 175.838 263.168 174.796 263.401 173.232C260.141 168.02 254.088 170.626 254.088 172.711C256.183 175.578 256.416 175.317 258.278 175.578C259.908 176.099 261.072 176.099 259.908 177.142C259.443 177.663 257.58 177.142 256.416 177.402C253.389 177.402 251.759 175.057 251.061 176.36C250.362 177.402 251.061 177.924 252.458 177.924C251.526 177.924 250.129 177.924 250.362 178.966C250.828 180.79 252.225 178.705 252.923 179.227C252.458 179.227 251.526 179.487 251.526 180.009C251.526 180.53 252.691 181.312 253.855 180.009C254.531 179.464 255.351 179.189 256.183 179.227V179.227Z" fill="#F9DD16" stroke="black" stroke-width="0.246337"/>
<path d="M235.927 161.243V162.025C236.16 163.85 236.626 164.631 235.229 164.631C234.065 164.631 234.53 163.85 234.763 162.025V161.243M258.744 171.668C257.813 171.147 256.649 170.887 255.485 171.147L258.744 171.668ZM242.446 171.147C241.515 173.232 241.981 174.275 242.214 175.317L242.446 171.147ZM232.9 160.722C233.366 161.243 233.832 160.201 234.763 161.243C234.53 160.983 234.065 162.025 233.366 161.243L232.9 160.722ZM238.023 160.983C237.324 160.983 236.858 160.201 235.927 161.243C236.16 160.983 236.626 162.025 237.324 161.243L238.023 160.983Z" stroke="black" stroke-width="0.246337"/>
<path d="M235.461 167.758C236.393 167.758 236.858 167.758 236.858 166.195C236.858 165.673 237.557 165.413 237.091 164.37C237.557 165.413 235.461 165.413 235.461 164.891C235.461 165.413 233.133 165.413 233.599 164.37C233.366 165.413 234.064 165.673 233.832 166.195C233.832 167.758 234.297 167.758 235.461 167.758V167.758Z" fill="#FF0016" stroke="black" stroke-width="0.246337"/>
<path d="M234.297 164.631L231.969 163.849L234.297 164.631ZM234.297 164.631H231.969H234.297ZM234.297 164.891L232.202 165.673L234.297 164.891ZM236.16 164.631L238.488 163.849L236.16 164.631ZM236.16 164.631H238.954H236.16ZM236.16 164.891L238.488 165.673Z" fill="black"/>
<path d="M236.16 164.891L238.488 165.673M234.297 164.631L231.969 163.849L234.297 164.631ZM234.297 164.631H231.969H234.297ZM234.297 164.891L232.202 165.673L234.297 164.891ZM236.16 164.631L238.488 163.849L236.16 164.631ZM236.16 164.631H238.954H236.16Z" stroke="black" stroke-width="0.246337"/>
<path d="M222.888 156.551C222.189 155.508 220.56 156.551 220.56 157.593C221.025 156.812 221.957 157.854 222.655 157.593C222.888 157.593 223.354 157.072 222.888 156.551ZM222.19 158.897C221.491 157.854 219.628 158.897 219.628 159.939C220.094 159.157 221.025 160.2 221.724 159.939C221.957 159.939 222.422 159.157 222.19 158.897V158.897ZM221.724 162.024C220.793 160.982 219.163 162.024 219.396 163.327C219.861 162.545 220.793 163.327 221.258 163.327C221.724 163.067 221.957 162.285 221.491 162.024H221.724ZM222.422 171.667C221.491 170.625 220.094 171.928 220.094 173.231C220.56 172.189 221.724 173.231 222.422 172.71C222.422 172.71 222.888 171.928 222.422 171.407V171.667ZM222.422 173.492C221.258 173.231 220.094 175.056 220.793 176.098C220.793 174.795 222.189 175.316 222.655 174.795L222.422 173.492ZM223.819 175.316C222.655 174.795 221.491 176.359 222.19 177.401C222.19 176.619 223.586 176.88 223.819 176.359V175.056V175.316ZM251.06 178.183C249.896 177.923 248.732 179.486 249.43 180.79C249.43 179.486 250.827 180.008 251.293 179.486L251.06 178.183ZM252.457 179.747C251.293 179.486 250.362 181.311 251.06 182.353C251.06 181.05 252.457 181.311 252.69 180.79C252.923 180.529 252.923 179.747 252.69 179.747H252.457ZM251.526 176.098C250.595 175.577 249.198 177.141 249.43 178.183C249.896 177.141 251.06 177.923 251.526 177.401V176.359V176.098ZM270.851 178.704C269.919 178.444 268.988 180.268 269.454 181.311C269.454 180.268 270.851 180.529 271.316 180.008C271.316 179.486 271.316 178.704 270.851 178.704V178.704ZM270.851 176.88C269.919 176.098 268.522 177.662 268.988 178.704C269.454 177.923 270.618 178.444 271.084 177.923V176.619L270.851 176.88ZM271.782 180.268C270.618 180.268 269.687 182.093 270.385 182.875C270.385 181.832 271.782 182.093 272.015 181.571C272.248 181.05 272.015 180.529 271.782 180.268ZM235.461 166.716C236.159 166.716 236.392 166.976 236.392 168.54C236.392 171.146 236.392 172.71 235.461 172.71C234.762 172.71 234.762 171.407 234.762 169.322C234.762 168.279 234.762 167.497 234.529 167.758C234.529 166.976 234.762 166.716 235.461 166.716V166.716Z" fill="#0051BA"/>
</g>
<defs>
<clipPath id="clip0_7463_134501">
<rect width="512" height="512" fill="white"/>
</clipPath>
</defs>
</svg>
