<svg width="24" height="24" viewBox="0 0 24 24" fill="none" xmlns="http://www.w3.org/2000/svg">
<g clip-path="url(#clip0_18_5939)">
<path d="M0 12C0 14.0789 0.528891 16.0342 1.45908 17.7391L12 18.7826L22.5409 17.7391C23.4711 16.0342 24 14.0789 24 12C24 9.92106 23.4711 7.96572 22.5409 6.26083L12 5.21735L1.45908 6.26083C0.528891 7.96572 0 9.92106 0 12H0Z" fill="#D80027"/>
<path d="M1.45908 6.26086H22.5409C20.5057 2.53073 16.5485 0 12 0C7.45149 0 3.49435 2.53073 1.45908 6.26086Z" fill="#0052B4"/>
<path d="M12 24C16.5485 24 20.5057 21.4693 22.5409 17.7391H1.45908C3.49435 21.4693 7.45149 24 12 24Z" fill="#0052B4"/>
<path d="M16.1739 14.3478V12.7826H15.1305V10.6957L14.087 9.65218L13.0435 10.6957V8.6087L12 7.56522L10.9565 8.6087V10.6957L9.91303 9.65218L8.86954 10.6957V12.7826H7.82611V14.3478H6.78262V15.913H17.2174V14.3478H16.1739Z" fill="#F0F0F0"/>
</g>
<defs>
<clipPath id="clip0_18_5939">
<rect width="24" height="24" fill="white"/>
</clipPath>
</defs>
</svg>
