<svg width="24" height="24" viewBox="0 0 24 24" fill="none" xmlns="http://www.w3.org/2000/svg">
<g clip-path="url(#clip0_18_5792)">
<path d="M12 24C18.6274 24 24 18.6274 24 12C24 5.37258 18.6274 0 12 0C5.37258 0 0 5.37258 0 12C0 18.6274 5.37258 24 12 24Z" fill="#F0F0F0"/>
<path d="M23.9996 11.9653H10.9913C8.40862 14.548 6.84684 16.5419 5.25216 18.1366L12.0348 18.7478L22.5598 17.7044C23.4783 16.0077 24 14.0648 24 12C24 11.9884 23.9996 11.9769 23.9996 11.9653Z" fill="#D80027"/>
<path d="M5.2522 6.22613H22.5215C20.4807 2.51513 16.5343 0 12 0C8.69508 0 5.70277 1.33645 3.53269 3.498L5.2522 6.22613Z" fill="#FFDA44"/>
<path d="M5.77392 17.7043C4.69514 18.7831 4.27823 19.687 3.49772 20.4674C5.67061 22.6493 8.67741 24 12 24C16.5626 24 20.5303 21.4535 22.5599 17.7043H5.77392Z" fill="#0052B4"/>
<path d="M3.51469 3.47995C-1.17159 8.16623 -1.17159 15.7642 3.51469 20.4506C5.45123 18.514 7.31372 16.6515 12 11.9653L3.51469 3.47995Z" fill="#6DA544"/>
<path d="M3.16523 11.9653C3.16523 10.2169 4.39397 8.75633 6.03478 8.39802C5.78259 8.34294 5.52094 8.31308 5.25215 8.31308C3.23508 8.31308 1.59998 9.94817 1.59998 11.9653C1.59998 13.9823 3.23508 15.6174 5.25215 15.6174C5.52089 15.6174 5.78255 15.5876 6.03478 15.5325C4.39397 15.1741 3.16523 13.7136 3.16523 11.9653Z" fill="#F0F0F0"/>
<path d="M5.99451 8.83481L6.18881 9.43265H6.8174L6.30881 9.80217L6.50311 10.4L5.99451 10.0305L5.48592 10.4L5.68022 9.80217L5.17162 9.43265H5.80022L5.99451 8.83481Z" fill="#F0F0F0"/>
<path d="M5.99451 10.4L6.18881 10.9979H6.8174L6.30881 11.3674L6.50311 11.9652L5.99451 11.5957L5.48592 11.9652L5.68022 11.3674L5.17162 10.9979H5.80022L5.99451 10.4Z" fill="#F0F0F0"/>
<path d="M5.99451 11.9652L6.18881 12.5631H6.8174L6.30881 12.9326L6.50311 13.5304L5.99451 13.1609L5.48592 13.5304L5.68022 12.9326L5.17162 12.5631H5.80022L5.99451 11.9652Z" fill="#F0F0F0"/>
<path d="M5.99451 13.5305L6.18881 14.1283H6.8174L6.30881 14.4978L6.50311 15.0957L5.99451 14.7262L5.48592 15.0957L5.68022 14.4978L5.17162 14.1283H5.80022L5.99451 13.5305Z" fill="#F0F0F0"/>
</g>
<defs>
<clipPath id="clip0_18_5792">
<rect width="24" height="24" fill="white"/>
</clipPath>
</defs>
</svg>
