<svg width="24" height="24" viewBox="0 0 24 24" fill="none" xmlns="http://www.w3.org/2000/svg">
<g clip-path="url(#clip0_18_5883)">
<path d="M24 12C24 18.6274 18.6274 24 12 24C5.37262 24 0 18.6274 0 12C0 12.0029 12 0.0013125 12 0C18.6274 0 24 5.37262 24 12Z" fill="#0052B4"/>
<path d="M11.9679 12H12C12 11.9892 12 11.9787 12 11.9679C11.9893 11.9786 11.9786 11.9893 11.9679 12Z" fill="#F0F0F0"/>
<path d="M12 6.26086C12 4.14937 12 2.76586 12 0H11.998C5.37145 0.001125 0 5.37323 0 12H6.26086V8.47448L9.78638 12H11.9679C11.9786 11.9893 11.9893 11.9786 12 11.9679C12 11.1594 12 10.4381 12 9.78647L8.47444 6.26086H12Z" fill="#F0F0F0"/>
<path d="M17.2174 8.86962C18.37 8.86962 19.3043 7.93525 19.3043 6.78265C19.3043 5.63005 18.37 4.69568 17.2174 4.69568C16.0648 4.69568 15.1304 5.63005 15.1304 6.78265C15.1304 7.93525 16.0648 8.86962 17.2174 8.86962Z" fill="#6DA544"/>
<path d="M6.07103 1.56519C4.1942 2.63389 2.63387 4.19417 1.56522 6.071V12H4.69567V4.69573V4.69564H12C12 3.70831 12 2.76772 12 1.56519H6.07103Z" fill="#D80027"/>
<path d="M12 10.5243L7.73649 6.26089H6.26086V6.26099L11.9999 12H12C12 12 12 10.9825 12 10.5243Z" fill="#D80027"/>
<path d="M13.5652 6.26083H20.8696V9.39129H13.5652V6.26083Z" fill="#D80027"/>
<path d="M13.5652 14.087V16.1739H14.6632C15.3216 16.8191 16.2227 17.2174 17.2174 17.2174C18.212 17.2174 19.1132 16.8191 19.7716 16.1739H19.8261H20.8696V14.087H13.5652Z" fill="#FFDA44"/>
<path d="M13.5652 8.86954V12C13.5652 14.7956 17.2174 15.6522 17.2174 15.6522C17.2174 15.6522 20.8696 14.7956 20.8696 12V8.86954H13.5652Z" fill="#338AF3"/>
<path d="M17.2172 10.5417C16.3042 10.5417 16.3042 11.3765 15.3912 11.3765C14.4782 11.3765 14.4782 10.5417 13.5652 10.5417V12.0025C14.4782 12.0025 14.4782 12.8373 15.3912 12.8373C16.3042 12.8373 16.3042 12.0025 17.2172 12.0025C18.1303 12.0025 18.1303 12.8373 19.0434 12.8373C19.9565 12.8373 19.9565 12.0025 20.8696 12.0025V10.5417C19.9565 10.5417 19.9565 11.3765 19.0434 11.3765C18.1303 11.3765 18.1303 10.5417 17.2172 10.5417Z" fill="#F3F3F3"/>
<path d="M17.2172 7.61737C16.3042 7.61737 16.3042 8.45217 15.3912 8.45217C14.4782 8.45217 14.4782 7.61737 13.5652 7.61737V9.07823C14.4782 9.07823 14.4782 9.91303 15.3912 9.91303C16.3042 9.91303 16.3042 9.07823 17.2172 9.07823C18.1303 9.07823 18.1303 9.91303 19.0434 9.91303C19.9565 9.91303 19.9565 9.07823 20.8696 9.07823V7.61737C19.9565 7.61737 19.9565 8.45217 19.0434 8.45217C18.1303 8.45217 18.1303 7.61737 17.2172 7.61737Z" fill="#F3F3F3"/>
</g>
<defs>
<clipPath id="clip0_18_5883">
<rect width="24" height="24" fill="white"/>
</clipPath>
</defs>
</svg>
