<svg width="512" height="512" viewBox="0 0 512 512" fill="none" xmlns="http://www.w3.org/2000/svg">
<g clip-path="url(#clip0_7463_133674)">
<path d="M0 0H512V512H0V0Z" fill="#000066"/>
<path d="M0 -0.5H256V255.5H0V-0.5Z" fill="#012169"/>
<path d="M256 -0.5V31.5L161 127.5L256 221V255.5H222.5L127 161.5L34 255.5H0V221.5L93 128L0 36.5V-0.5H31L127 93.5L220 -0.5H256Z" fill="white"/>
<path d="M92 161.5L97.5 178.5L21 255.5H0V254L92 161.5ZM154 155.5L181 159.5L256 233V255.5L154 155.5ZM256 -0.5L160 97.5L158 75.5L233 -0.5H256ZM0 0L96.5 94.5L67 90.5L0 24V0Z" fill="#C8102E"/>
<path d="M88 -0.5V255.5H168V-0.5H88ZM0 87.5V167.5H256V87.5H0Z" fill="white"/>
<path d="M0 103.5V151.5H256V103.5H0ZM104 -0.5V255.5H152V-0.5H104Z" fill="#C8102E"/>
<path d="M277.06 365.024C279.17 370.555 294.163 377.906 311.631 368.517C323.494 361.821 331.136 352.505 338.487 335.766C340.525 331.544 341.616 326.304 336.74 323.174C332.883 320.336 326.551 317.206 323.785 314.441C322.402 312.985 321.019 311.966 320 310.947C320.728 311.675 321.383 312.33 322.038 313.349C329.025 321.719 321.747 333.946 314.032 341.297C308.428 346.537 298.384 359.419 283.683 347.192C280.553 344.427 273.202 355.926 277.132 365.024H277.06Z" fill="#FCEA83" stroke="black" stroke-width="1.01893"/>
<path d="M489.143 365.024C486.669 370.555 471.676 377.906 454.572 368.517C442.782 361.821 435.067 352.505 427.425 335.766C425.678 331.544 424.586 326.304 429.463 323.174C433.32 320.336 439.652 317.206 442.418 314.441C443.801 312.985 444.82 311.966 446.202 310.947C445.475 311.675 444.82 312.33 444.165 313.349C437.178 321.719 444.456 333.946 451.807 341.297C457.411 346.537 467.818 359.419 482.52 347.192C485.65 344.427 492.637 355.926 489.07 365.024H489.143Z" fill="#FCEA83" stroke="black" stroke-width="1.01893"/>
<path d="M383.102 395.009C410.977 395.009 453.918 382.418 476.99 338.458C480.774 331.18 476.99 327.323 472.404 324.921C467.221 322.31 462.501 318.868 458.43 314.731C464.035 320.336 462.943 324.193 459.158 330.452C441.327 360.147 416.945 375.14 383.102 375.14C349.259 375.14 324.877 360.147 307.046 330.452C303.261 324.193 302.17 320.336 307.41 314.804C303.401 318.992 298.666 322.42 293.436 324.921C288.924 327.323 285.066 331.18 288.924 338.458C311.922 382.418 355.154 395.009 383.102 395.009V395.009Z" fill="#FCEA83" stroke="black" stroke-width="1.01893"/>
<path d="M318.545 336.057C317.818 332.563 313.378 333.946 311.995 338.167C310.112 335.754 308.455 333.171 307.046 330.453C302.897 324.194 302.17 319.972 308.138 314.077C310.903 311.311 316.507 308.109 320.292 311.602C328.298 318.226 324.15 329.07 318.545 336.057V336.057Z" fill="#C8102E" stroke="black" stroke-width="1.01893"/>
<path d="M447.294 336.057C448.021 332.563 452.898 333.946 454.281 338.167C456.027 335.693 457.774 333.291 459.157 330.453C463.305 324.194 464.033 319.972 457.701 314.077C455.299 311.311 449.695 308.109 445.547 311.602C437.832 318.226 441.689 329.07 447.294 336.057Z" fill="#C8102E" stroke="black" stroke-width="1.01893"/>
<path d="M277.06 365.023C273.566 359.783 270.801 346.1 270.073 342.68C269.054 339.55 268.69 336.711 272.547 335.401C276.405 333.946 279.825 338.822 281.572 343.043C283.319 347.192 286.157 353.451 289.287 361.166C281.572 356.653 275.313 359.71 277.06 365.023Z" fill="#C8102E" stroke="black" stroke-width="1.01893"/>
<path d="M489.143 365.023C492.273 359.783 495.039 346.1 496.13 342.68C496.858 339.55 497.513 336.711 493.656 335.401C489.798 333.946 486.378 338.822 484.631 343.043C482.884 347.192 480.046 353.451 476.916 361.166C484.631 356.653 490.526 359.71 489.143 365.023V365.023Z" fill="#C8102E" stroke="black" stroke-width="1.01893"/>
<path d="M297.293 333.582L294.527 335.037C293.799 335.328 293.799 336.056 293.799 336.42H293.436L292.053 333.291H292.417C292.417 333.582 292.781 334.018 293.436 333.582L299.404 330.452C300.131 330.088 300.131 329.724 299.768 329.433L300.059 329.069L301.805 332.563H301.514C301.15 332.199 300.786 331.835 300.059 332.199L297.657 333.655L298.676 335.692L301.514 334.673C302.242 334.31 301.805 333.582 301.805 333.218H302.169L303.625 336.42C303.261 336.056 302.897 335.692 302.169 336.056L296.274 339.186C295.546 339.55 295.546 339.914 295.91 340.205L295.546 340.569L293.799 337.439L294.163 337.075C294.527 337.439 294.891 337.803 295.619 337.439L298.385 335.984L297.293 333.582Z" fill="#00493D"/>
<path d="M303.26 338.168C303.988 337.804 303.988 337.44 303.552 336.712H303.915L307.409 341.952L305.007 343.699V343.408C306.39 342.316 306.39 340.933 306.026 340.569C305.662 340.205 305.298 339.841 305.298 339.55C305.007 339.55 305.007 339.186 304.279 339.914L301.805 341.661C302.169 341.952 302.533 343.044 304.279 341.952H304.643L300.786 344.791V344.427C302.533 342.971 301.805 341.952 301.514 341.661L299.039 343.408C298.311 343.699 298.311 344.136 298.311 344.427C298.675 344.427 298.675 344.791 299.039 345.154C299.403 345.882 300.495 346.537 302.169 345.882L302.533 346.173L299.767 347.192L296.273 341.661H296.637C296.928 341.952 297.365 342.389 298.02 341.952L303.26 338.168Z" fill="#00493D"/>
<path d="M308.793 351.414L306.391 353.451C306.027 353.815 306.027 354.543 306.391 354.907H306.027L303.553 352.433L303.917 352.069C304.281 352.433 304.644 352.796 305.372 352.069L309.885 347.556C310.613 347.192 310.613 346.828 310.176 346.101L312.65 349.012C312.286 348.575 311.631 348.575 311.195 349.012L309.157 351.05L310.904 352.796L313.014 351.05C313.742 350.322 313.378 350.031 313.014 349.594L313.378 349.303L315.78 352.069H315.416C315.125 352.069 314.688 351.777 314.033 352.433L309.521 356.654C308.793 357.382 308.793 357.673 309.157 358.037V358.401L306.755 355.562C307.046 355.562 307.774 355.926 308.138 355.562L310.54 353.16L308.793 351.414Z" fill="#00493D"/>
<path d="M314.033 358.765L315.125 359.784L316.508 356.654C316.508 356.654 315.416 356.945 313.669 358.037L314.033 358.765L313.669 359.056L312.942 358.328C312.65 358.692 312.287 358.692 311.923 359.056C310.904 359.784 311.195 360.147 311.632 360.511V360.802L309.885 359.056H310.176L311.632 358.692L318.546 354.907L318.91 355.198C318.91 355.198 318.546 355.562 315.416 362.549C315.416 363.277 315.125 363.568 315.416 364.296L312.65 361.894L313.014 361.53C313.378 362.258 314.033 362.258 314.397 361.53C314.397 361.166 314.761 360.439 314.761 360.075L313.669 359.056L314.033 358.692V358.765Z" fill="#00493D"/>
<path d="M316.799 365.679L317.163 365.315C317.527 365.679 317.891 365.679 318.618 365.315L323.131 359.42L322.767 359.056C322.039 358.692 321.02 358.692 320.001 359.783V359.42L321.384 357.673L326.624 361.53L324.878 363.568H324.514C325.533 362.549 325.241 361.166 324.514 360.802V360.439L320.001 366.407C319.273 366.77 319.637 367.426 320.001 367.789H319.637L316.799 365.679Z" fill="#00493D"/>
<path d="M325.895 367.062L324.148 369.536C323.785 370.264 324.148 370.555 324.512 370.992L324.148 371.283L321.383 369.172V368.808C322.111 369.172 322.402 369.172 322.766 368.517L326.623 363.277C326.914 362.549 326.623 362.185 326.259 361.821L326.623 361.53L329.389 363.568V363.932C328.661 363.568 328.37 363.568 327.933 364.296L326.259 366.771L328.37 368.153L330.117 365.679C330.408 364.951 330.117 364.66 329.753 364.296L330.117 363.932L332.882 366.043V366.407C332.518 366.043 331.863 366.043 331.427 366.771L328.006 372.302C327.278 372.666 327.642 373.03 328.006 373.394V373.685L324.876 371.647H325.24C325.531 371.647 325.968 371.647 326.259 371.283L328.006 368.517L325.895 367.062Z" fill="#00493D"/>
<path d="M332.883 376.887L333.247 376.523C333.611 376.887 334.266 376.887 334.63 376.159L337.395 370.264C337.759 369.536 337.395 369.172 337.031 368.809L342.999 371.647L341.544 374.413L341.253 374.049C342.272 372.666 341.253 371.283 340.889 370.919C340.525 370.919 340.161 370.555 339.87 370.555C339.506 370.555 339.506 370.555 339.142 371.283C338.778 371.647 337.759 373.685 337.759 373.685C338.123 374.049 338.778 374.777 340.234 372.957H340.525L338.487 377.178L338.123 376.887C339.142 374.704 337.759 374.413 337.395 374.413L336.012 377.178C335.649 377.906 336.012 378.27 336.376 378.27V378.634L332.883 376.887Z" fill="#00493D"/>
<path d="M343 381.763C341.981 381.035 341.981 378.925 343 376.887C343.728 374.703 345.111 373.029 346.494 373.684C347.513 374.048 347.221 376.159 346.494 378.27C345.402 380.671 344.019 382.054 343 381.763H342.636C345.111 382.782 346.858 381.399 347.876 378.925C348.895 376.887 348.604 374.412 346.421 373.393C344.383 372.302 342.272 373.684 341.253 376.159C340.234 378.633 340.526 381.035 342.709 381.763H343Z" fill="#00493D"/>
<path d="M353.772 382.418L355.227 378.27C355.518 377.542 355.227 377.178 354.863 376.814L356.61 377.178V377.542C356.246 377.542 355.882 377.542 355.518 378.27L354.136 382.418C353.408 384.165 352.389 385.548 350.351 384.893C348.895 384.529 347.876 382.782 348.604 381.036L350.351 376.523C350.642 375.795 350.351 375.431 349.987 375.067V374.776L353.117 376.159V376.523C352.753 376.159 352.098 376.159 352.098 376.887L350.278 381.327C349.914 382.709 349.914 384.092 351.006 384.456C352.025 384.82 353.044 384.092 353.699 382.346L353.772 382.418Z" fill="#00493D"/>
<path d="M356.973 377.906C356.973 377.542 356.973 377.542 356.609 377.542L359.01 377.906L361.194 384.529L362.213 380.308C362.504 379.58 362.213 379.289 361.849 378.925L363.887 379.289L363.596 379.653C363.232 379.653 362.868 379.653 362.504 380.38L360.757 388.022H360.466L357.628 379.653L355.881 385.257C355.881 386.276 356.245 386.276 356.609 386.64V387.004L354.498 386.276V385.912C354.862 386.276 355.517 385.912 355.517 385.184L357.264 378.925L356.973 377.906Z" fill="#00493D"/>
<path d="M368.836 384.893C368.108 388.023 366.652 388.751 365.997 388.751H365.27C365.27 388.751 364.979 388.387 365.27 388.023L366.361 381.036C366.725 380.672 366.725 380.308 367.089 380.672H367.817C368.472 380.672 369.127 382.128 368.836 384.893L369.855 385.257C370.583 381.764 369.127 380.308 367.38 380.017C365.997 379.653 363.887 379.289 363.887 379.289V379.653C364.251 380.017 364.979 380.017 364.615 381.109L363.596 387.295C363.232 388.023 362.868 388.387 362.504 388.387H362.213L365.634 389.114C367.38 389.406 369.127 389.114 369.855 385.257L368.836 384.893Z" fill="#00493D"/>
<path d="M371.966 382.055C371.966 381.327 371.238 381.036 370.874 381.036V380.672L377.206 381.4L376.842 384.165C376.842 382.419 375.751 381.764 375.096 381.764C374.732 381.4 374.368 381.4 374.004 381.4C373.713 381.4 373.713 381.4 373.713 382.419L373.349 385.257C373.713 385.257 374.732 385.548 375.46 383.51L375.096 388.023H374.732C374.732 385.912 373.713 385.912 373.276 385.912L372.985 389.042C372.985 389.769 372.985 389.769 373.349 389.769L374.077 390.133C375.096 390.133 376.115 389.77 376.842 387.659H377.206L376.479 390.425L369.855 389.697C370.583 389.697 370.874 389.406 371.311 388.751L371.966 382.055Z" fill="#00493D"/>
<path d="M383.465 386.276C383.465 389.405 382.374 390.424 381.355 390.424C380.991 390.133 380.991 390.133 380.627 390.133L380.336 389.769L380.7 382.491C380.7 382.054 380.7 382.054 380.991 382.054H381.719C382.447 382.054 383.465 383.146 383.465 386.276H384.848C384.848 382.782 383.102 381.763 381.355 381.763C379.899 381.399 377.861 381.399 377.861 381.399V381.763C378.225 381.763 378.953 382.054 378.953 382.782L378.589 389.405C378.589 390.133 378.225 390.424 377.861 390.424V390.788H380.991C382.738 390.788 384.484 390.06 384.848 386.276H383.393H383.465Z" fill="#00493D"/>
<path d="M393.582 389.041C393.582 389.769 393.946 389.769 394.601 389.769V390.133L390.744 390.424C391.107 390.133 391.835 389.696 391.835 389.041L391.107 382.491C390.744 381.763 390.38 381.763 389.725 381.763V381.399L393.582 381.035C393.218 381.399 392.49 381.763 392.854 382.491L393.582 389.041Z" fill="#00493D"/>
<path d="M397.077 389.769V389.405C397.441 389.405 397.805 389.041 397.805 388.386L396.349 381.108H395.985C395.257 381.399 394.602 382.054 394.966 383.51H394.602L394.238 381.036L400.57 380.017L400.861 382.418H400.57C400.57 381.036 399.478 380.672 398.387 380.672H398.096L399.551 387.95C399.551 388.678 399.842 389.041 400.57 389.041V389.405L397.077 389.769Z" fill="#00493D"/>
<path d="M412.068 382.783L410.613 378.634C410.613 377.906 409.958 377.906 409.594 377.906V377.542L411.341 376.814V377.178C410.977 377.542 410.977 377.542 410.977 378.27L412.432 382.783C412.723 384.238 412.723 386.276 410.685 387.004C409.23 387.295 407.556 386.64 407.192 384.529L405.736 380.017C405.445 379.289 405.081 379.289 404.717 379.289L404.354 378.925L407.847 377.906V378.27C407.556 378.634 407.119 378.998 407.556 379.653L408.575 384.165C408.939 385.621 410.03 386.276 410.977 386.276C412.068 385.912 412.432 384.529 412.068 382.783Z" fill="#00493D"/>
<path d="M415.926 380.308C417.6 379.58 417.309 378.634 416.945 377.542C416.581 376.523 415.926 375.795 415.199 376.159C414.835 376.159 414.471 376.523 414.835 376.887L415.926 380.308L416.217 380.672L416.945 383.51C417.309 384.238 417.964 384.238 418.401 383.801V384.165L415.199 385.621L414.835 385.257C415.562 384.893 415.562 384.529 415.562 383.801L413.088 377.906C412.724 376.887 412.36 377.178 411.705 377.178V376.887L415.199 375.432C416.654 375.14 417.964 375.432 418.692 376.887C419.056 378.634 418.328 379.653 416.945 380.381C416.581 380.381 416.217 380.672 416.217 380.672L415.926 380.308Z" fill="#00493D"/>
<path d="M424.586 381.326C423.568 381.763 422.185 380.307 421.093 377.905C420.074 375.795 420.074 373.684 421.093 373.393C422.185 373.029 423.568 374.412 424.586 376.522C425.678 378.633 425.678 380.671 424.586 381.399C426.77 380.671 427.425 378.269 426.333 375.795C425.314 373.684 423.204 372.301 421.093 373.029C420.603 373.275 420.168 373.616 419.813 374.034C419.458 374.452 419.191 374.937 419.028 375.46C418.865 375.983 418.809 376.534 418.864 377.079C418.919 377.624 419.083 378.153 419.346 378.633C420.438 381.035 422.549 382.418 424.586 381.399V381.326Z" fill="#00493D"/>
<path d="M424.95 371.646H424.295L426.333 370.191L432.665 373.684L430.481 369.9C430.19 369.172 429.462 369.172 429.171 369.172V368.808L430.918 368.08C430.554 368.517 430.19 368.808 430.918 369.536L434.411 376.523L434.048 376.887L426.333 372.665L429.171 377.906C429.462 378.633 430.19 378.633 430.554 378.269V378.633L428.807 379.652V379.288C429.171 378.924 429.171 378.561 428.807 377.906L426.042 372.301L424.95 371.574V371.646Z" fill="#00493D"/>
<path d="M440.672 372.666V372.302C440.672 371.938 441.036 371.574 440.672 370.919L436.451 365.024H436.087C435.359 365.315 435.068 366.771 436.087 367.79L435.795 368.154L434.34 365.679L439.58 362.186L441.036 364.369C439.944 363.277 438.852 363.277 438.197 363.641L437.833 363.932L442.055 369.9C442.419 370.628 443.074 370.628 443.51 370.264V370.555L440.672 372.666Z" fill="#00493D"/>
<path d="M444.529 364.296L446.567 366.771C446.931 367.062 447.659 367.062 448.023 366.771V367.062L445.184 369.536V369.173C445.548 368.809 445.548 368.445 445.184 367.79L441.036 362.549C440.672 361.822 440.308 362.186 439.58 362.186L442.419 359.784V360.148C442.419 360.439 442.055 360.875 442.419 361.531L444.165 363.568L446.203 362.186L444.529 359.784C444.165 359.056 443.437 359.42 443.074 359.42L445.912 356.945V357.309C445.548 357.673 445.548 358.037 445.912 358.765L450.061 363.932C450.424 364.296 450.788 364.296 451.152 363.932L451.443 364.296L448.678 366.771L448.314 366.407C448.678 366.043 449.042 365.679 448.678 364.951L446.567 362.549L444.529 364.296Z" fill="#00493D"/>
<path d="M447.659 356.945C447.295 356.654 446.567 356.654 446.203 356.945V356.654L450.788 352.433L452.899 354.543H452.535C451.443 353.088 450.061 353.815 449.406 354.179C449.406 354.543 449.042 354.543 448.678 354.907C448.678 354.907 448.678 355.198 449.042 355.926L451.152 358.037C451.443 357.673 452.535 356.945 451.152 355.198H451.443L454.282 358.401V358.692C452.535 356.945 451.807 357.964 451.443 358.401L453.627 360.439C453.918 361.166 454.282 361.166 454.282 361.166L455.301 360.147C455.665 359.784 456.029 358.692 455.301 356.654H455.665L457.048 359.056L452.535 363.568L452.171 363.277C452.535 362.913 452.899 362.549 452.171 361.821L447.659 356.945Z" fill="#00493D"/>
<path d="M456.028 347.193C455.664 347.557 455.664 348.284 456.319 348.648C457.047 349.303 457.775 349.303 459.157 348.648C459.885 348.284 461.195 347.92 462.287 348.939C464.034 350.686 463.306 352.069 463.015 352.797C462.651 353.161 461.923 353.525 461.559 353.816C461.195 353.816 461.195 353.816 461.195 354.18V354.544L458.794 352.433H459.157C460.54 353.161 461.923 353.452 462.651 352.433C463.379 351.705 462.651 350.977 462.287 350.686C461.559 349.958 460.831 349.958 459.813 350.686C458.794 351.05 457.411 351.05 456.319 350.322C454.936 348.939 454.936 347.92 455.591 346.829L457.047 345.81C457.411 345.81 457.411 345.81 457.047 345.082L459.521 346.829H459.157C457.411 346.101 456.319 346.538 456.028 347.193Z" fill="#00493D"/>
<path d="M459.159 344.427C458.431 344.063 458.067 344.427 457.703 344.791H457.412L461.269 339.187L463.671 340.933L463.307 341.297C462.872 340.923 462.317 340.717 461.743 340.717C461.168 340.717 460.613 340.923 460.178 341.297C460.178 341.661 459.814 342.025 459.814 342.316C459.523 342.316 459.523 342.68 460.178 343.044C460.542 343.408 462.652 344.791 462.652 344.791C463.016 344.427 463.671 343.699 462.288 342.316V341.952L465.782 344.791C463.671 343.699 463.307 344.791 463.016 345.082L465.418 346.829C466.146 347.192 466.437 347.192 466.437 347.192C466.437 346.829 466.801 346.465 467.165 346.174C467.529 345.446 467.893 344.427 466.437 343.044L466.801 342.68L468.548 344.791L465.054 350.031H464.69C465.054 349.303 465.054 348.939 464.399 348.284L459.159 344.427Z" fill="#00493D"/>
<path d="M468.546 338.168L467.527 339.914C466.072 338.459 465.417 337.44 465.417 337.44L468.546 338.168H469.274C469.638 338.168 470.293 338.459 470.657 338.459C471.676 338.823 471.385 339.187 471.021 339.914H471.385L473.132 336.712C472.404 337.44 472.04 337.076 471.385 337.076C464.034 335.693 463.379 335.329 463.379 335.329V335.693L468.91 341.952C469.274 342.316 469.274 343.044 469.274 343.408H469.638L470.657 341.661L470.293 341.297C469.929 342.025 469.565 342.316 468.91 341.297L468.182 340.569L469.274 338.168H468.546Z" fill="#00493D"/>
<path d="M466.437 330.453C466.145 330.816 466.145 331.544 467.164 331.908C468.183 332.199 468.62 331.908 469.639 331.18C470.658 330.453 471.677 329.725 473.06 330.453C475.243 331.544 474.806 333.291 474.515 333.946L473.423 335.402V336.057L470.658 334.601C472.405 334.965 473.787 334.601 474.151 333.582C474.515 332.854 473.787 332.199 473.423 331.835C472.696 331.544 472.041 331.835 471.022 332.563C469.93 333.582 468.838 334.019 467.528 333.291C466.073 332.563 465.418 331.544 466.073 330.453C466.073 329.725 466.8 329.434 467.164 329.07C467.164 328.706 467.164 328.706 466.8 328.342V328.051L469.639 329.434H469.275C467.528 329.07 466.437 329.798 466.437 330.453V330.453Z" fill="#00493D"/>
<path d="M356.246 207.015C351.734 208.034 348.604 208.398 344.383 204.54C341.617 201.775 342.272 196.898 345.11 195.079C348.24 193.041 351.006 191.658 354.863 192.677C358.72 193.769 368.837 203.158 366.362 203.522C363.888 203.522 360.103 205.923 356.246 207.015Z" fill="white" stroke="black" stroke-width="1.01893"/>
<path d="M367.018 190.275C368.473 189.184 370.22 188.529 374.732 188.092C378.954 187.801 382.01 187.801 383.102 191.003C384.558 194.788 385.577 199.3 388.342 201.411C386.596 202.43 377.862 203.521 374.732 201.775C370.584 199.664 369.492 191.585 367.09 190.275H367.018Z" fill="white" stroke="black" stroke-width="1.01893"/>
<path d="M397.076 190.639C398.459 189.547 400.206 189.547 404.718 189.911C409.231 190.275 410.977 190.639 411.996 193.768C413.088 197.262 411.996 201.774 414.18 204.904C411.996 205.632 405.082 205.632 402.608 203.157C398.823 200.391 399.114 192.313 397.076 190.566V190.639Z" fill="white" stroke="black" stroke-width="1.01893"/>
<path d="M417.964 192.677C414.835 191.949 412.724 191.658 411.414 192.677C413.088 194.788 411.705 203.158 415.199 205.923C417.6 207.67 423.932 208.107 425.315 204.176C427.062 200.683 427.062 195.443 418.037 192.677H417.964Z" fill="#073163" stroke="black" stroke-width="1.01893"/>
<path d="M382.084 189.184C383.103 188.165 385.214 187.801 389.362 187.801C393.947 187.801 396.64 188.529 398.096 191.294C399.551 194.788 399.115 199.3 401.589 202.139C400.57 203.521 391.109 203.521 388.343 201.411C384.486 198.936 384.122 190.93 382.084 189.184V189.184Z" fill="#073163" stroke="black" stroke-width="1.01893"/>
<path d="M352.461 192.313C352.461 190.567 354.863 190.276 361.195 189.912C367.382 189.184 367.745 189.548 369.856 194.06C370.875 196.535 372.258 200.683 375.096 202.066C367.382 203.886 364.907 204.904 360.758 202.43C357.729 200.535 355.225 197.907 353.48 194.788C353.116 193.769 353.116 192.677 352.389 192.313H352.461Z" fill="#073163" stroke="black" stroke-width="1.01893"/>
<path d="M369.2 156.797C361.849 151.193 353.115 145.953 345.109 144.934C353.463 150.503 361.393 156.682 368.836 163.42" fill="#F9D050"/>
<path d="M369.2 156.797C361.849 151.193 353.115 145.953 345.109 144.934C353.463 150.503 361.393 156.682 368.836 163.42" stroke="black" stroke-width="0.436686"/>
<path d="M373.349 151.557C364.615 145.589 354.499 138.966 344.746 138.311C353.873 143.599 362.002 150.447 368.764 158.544" fill="#F9D050"/>
<path d="M373.349 151.557C364.615 145.589 354.499 138.966 344.746 138.311C353.873 143.599 362.002 150.447 368.764 158.544" stroke="black" stroke-width="0.436686"/>
<path d="M384.484 141.804C388.425 132.847 394.26 124.852 401.588 118.368C398.094 125.719 394.31 140.712 392.49 146.68" fill="#F9D050"/>
<path d="M384.484 141.804C388.425 132.847 394.26 124.852 401.588 118.368C398.094 125.719 394.31 140.712 392.49 146.68" stroke="black" stroke-width="0.436686"/>
<path d="M392.199 140.057C395.572 131.856 401.913 125.229 409.958 121.498C403.914 129.038 399.413 137.694 396.712 146.971" fill="#F9D050"/>
<path d="M392.199 140.057C395.572 131.856 401.913 125.229 409.958 121.498C403.914 129.038 399.413 137.694 396.712 146.971" stroke="black" stroke-width="0.436686"/>
<path d="M395.328 146.971C402.01 136.743 411.588 128.736 422.839 123.973C414.106 132.706 401.223 148.718 398.094 155.05" fill="#F9D050"/>
<path d="M395.328 146.971C402.01 136.743 411.588 128.736 422.839 123.973C414.106 132.706 401.223 148.718 398.094 155.05" stroke="black" stroke-width="0.436686"/>
<path d="M400.206 154.686C406.465 151.193 419.056 145.589 428.081 147.408C422.55 149.446 405.81 157.088 398.459 164.148" fill="#F9D050"/>
<path d="M400.206 154.686C406.465 151.193 419.056 145.589 428.081 147.408C422.55 149.446 405.81 157.088 398.459 164.148" stroke="black" stroke-width="0.436686"/>
<path d="M398.823 152.211C404.718 145.952 415.563 136.563 427.062 132.706C418.692 140.712 400.861 158.907 398.459 161.673" fill="#F9D050"/>
<path d="M398.823 152.211C404.718 145.952 415.563 136.563 427.062 132.706C418.692 140.712 400.861 158.907 398.459 161.673" stroke="black" stroke-width="0.436686"/>
<path d="M382.082 148.427C377.861 135.472 371.602 123.317 362.213 119.46C369.691 130.152 374.893 142.265 377.497 155.05" fill="#F9D050"/>
<path d="M382.082 148.427C377.861 135.472 371.602 123.317 362.213 119.46C369.691 130.152 374.893 142.265 377.497 155.05" stroke="black" stroke-width="0.436686"/>
<path d="M374.005 148.063C367.091 139.693 357.629 131.323 346.857 129.576C357.413 136.483 365.752 146.288 370.875 157.815" fill="#F9D050"/>
<path d="M374.005 148.063C367.091 139.693 357.629 131.323 346.857 129.576C357.413 136.483 365.752 146.288 370.875 157.815" stroke="black" stroke-width="0.436686"/>
<path d="M377.935 147.699C369.201 131.978 362.505 129.213 358.721 126.083C361.85 131.978 369.492 147.699 374.005 154.322" fill="#F9D050"/>
<path d="M377.935 147.699C369.201 131.978 362.505 129.213 358.721 126.083C361.85 131.978 369.492 147.699 374.005 154.322" stroke="black" stroke-width="0.436686"/>
<path d="M360.467 146.68C365.445 149.81 369.709 153.951 372.985 158.834" stroke="black" stroke-width="0.436686"/>
<path d="M360.467 153.958C362.505 155.705 366.362 157.815 369.856 160.945Z" fill="#F9D050"/>
<path d="M360.467 153.958C362.505 155.705 366.362 157.815 369.856 160.945" stroke="black" stroke-width="0.436686"/>
<path d="M401.951 159.199C405.445 156.433 413.087 151.92 416.944 150.465Z" fill="#F9D050"/>
<path d="M401.951 159.199C405.445 156.433 413.087 151.92 416.944 150.465" stroke="black" stroke-width="0.436686"/>
<path d="M399.477 156.797C402.97 152.212 409.957 145.952 412.432 143.842Z" fill="#F9D050"/>
<path d="M399.477 156.797C402.97 152.212 409.957 145.952 412.432 143.842" stroke="black" stroke-width="0.436686"/>
<path d="M409.231 135.107C404.541 140.363 400.119 145.853 395.984 151.556Z" fill="#F9D050"/>
<path d="M409.231 135.107C404.541 140.363 400.119 145.853 395.984 151.556" stroke="black" stroke-width="0.436686"/>
<path d="M400.204 131.979C396.901 136.864 393.981 141.999 391.471 147.335Z" fill="#F9D050"/>
<path d="M400.204 131.979C396.901 136.864 393.981 141.999 391.471 147.335" stroke="black" stroke-width="0.436686"/>
<path d="M372.621 132.706C374.732 138.31 378.589 147.699 379.899 151.556Z" fill="#F9D050"/>
<path d="M372.621 132.706C374.732 138.31 378.589 147.699 379.899 151.556" stroke="black" stroke-width="0.436686"/>
<path d="M369.492 138.602C370.948 140.785 373.713 145.589 374.732 149.082Z" fill="#F9D050"/>
<path d="M369.492 138.602C370.948 140.785 373.713 145.589 374.732 149.082" stroke="black" stroke-width="0.436686"/>
<path d="M381.355 136.855C381.355 133.725 383.466 130.305 385.577 130.305C387.979 130.305 389.725 134.453 389.725 136.855C389.725 139.693 387.615 142.095 385.577 142.095C383.393 142.095 381.355 140.057 381.355 136.855Z" fill="#F9D050" stroke="black" stroke-width="0.436686"/>
<path d="M376.843 139.693C377.207 136.2 379.609 133.434 381.72 133.725C383.83 134.089 384.849 138.31 384.485 140.712C384.122 143.478 381.72 145.588 379.973 145.225C378.226 145.225 376.48 142.823 376.843 139.693Z" fill="#F9D050" stroke="black" stroke-width="0.436686"/>
<path d="M386.233 140.712C385.505 137.583 386.96 134.162 389.071 133.725C391.109 133.434 393.22 136.855 393.584 139.693C394.311 142.459 392.492 145.225 390.745 145.225C389.071 145.589 386.597 143.842 386.233 140.712Z" fill="#F9D050" stroke="black" stroke-width="0.436686"/>
<path d="M380.992 143.478C380.992 140.057 383.103 136.928 385.213 136.928C387.615 136.928 389.362 140.712 389.362 143.478C389.362 146.316 387.324 148.718 385.213 148.718C383.103 148.718 380.992 146.68 380.992 143.478Z" fill="#F9D050" stroke="black" stroke-width="0.436686"/>
<path d="M374.732 145.224C374.732 142.095 377.207 138.674 379.245 138.674C381.428 138.674 383.466 142.822 383.466 145.224C383.466 148.063 380.992 150.464 379.245 150.464C377.207 150.464 374.732 148.426 374.732 145.224Z" fill="#F9D050" stroke="black" stroke-width="0.436686"/>
<path d="M387.615 143.841C387.615 140.712 389.799 137.291 391.837 137.291C394.238 137.291 395.985 141.44 395.985 143.841C395.985 146.68 393.947 149.082 391.837 149.082C389.726 149.082 387.615 146.971 387.615 143.841Z" fill="#F9D050" stroke="black" stroke-width="0.436686"/>
<path d="M386.232 146.68C386.232 143.186 388.707 140.057 390.745 140.057C392.928 140.057 394.966 143.841 394.966 146.607C394.966 149.445 392.855 151.92 390.745 151.92C388.707 151.92 386.232 149.737 386.232 146.68V146.68Z" fill="#F9D050" stroke="black" stroke-width="0.436686"/>
<path d="M380.7 149.81C380.7 146.316 382.738 143.187 384.848 143.187C387.323 143.187 389.07 147.335 389.07 149.737C389.07 152.648 386.886 155.05 384.848 155.05C382.738 155.05 380.627 152.866 380.627 149.81H380.7Z" fill="#F9D050" stroke="black" stroke-width="0.436686"/>
<path d="M371.967 149.81C371.967 146.316 373.714 143.187 375.46 143.187C377.207 143.187 378.59 147.335 378.59 149.737C378.59 152.648 376.843 155.05 375.46 155.05C373.714 155.05 371.967 152.866 371.967 149.81V149.81Z" fill="#F9D050" stroke="black" stroke-width="0.436686"/>
<path d="M391.473 149.154C391.473 145.952 393.219 142.822 394.966 142.822C396.713 142.822 398.46 146.68 398.46 149.081C398.46 152.211 396.349 154.322 394.966 154.322C393.219 154.322 391.473 152.211 391.473 149.081V149.154Z" fill="#F9D050" stroke="black" stroke-width="0.436686"/>
<path d="M393.583 154.977C394.311 151.557 396.349 148.718 397.731 149.155C399.187 149.446 399.478 153.594 398.823 156.069C398.459 159.199 396.349 160.945 394.966 160.581C393.51 160.29 392.855 157.816 393.51 155.05L393.583 154.977Z" fill="#F9D050" stroke="black" stroke-width="0.436686"/>
<path d="M386.961 153.958C387.325 150.829 389.362 147.699 391.109 148.063C393.22 148.063 394.239 152.212 393.948 154.613C393.584 157.816 391.764 159.926 390.09 159.563C388.343 159.563 386.597 157.088 386.961 153.958V153.958Z" fill="#F9D050" stroke="black" stroke-width="0.436686"/>
<path d="M377.207 154.977C376.115 151.556 374.005 149.155 372.622 149.446C371.239 149.81 370.875 153.958 371.603 156.433C372.331 159.198 374.369 160.945 375.751 160.581C376.843 160.29 377.935 157.816 377.207 155.05V154.977Z" fill="#F9D050" stroke="black" stroke-width="0.436686"/>
<path d="M374.732 154.322C374.732 151.192 376.479 148.062 378.226 148.062C380.337 148.062 381.719 151.92 381.719 154.322C381.719 157.451 379.973 159.562 378.226 159.562C376.77 159.562 374.732 157.451 374.732 154.322Z" fill="#F9D050" stroke="black" stroke-width="0.436686"/>
<path d="M379.973 155.705C379.973 152.211 382.083 149.154 384.121 149.154C386.596 149.154 388.342 152.939 388.342 155.705C388.342 158.543 386.232 160.945 384.121 160.945C382.083 160.945 379.973 158.834 379.973 155.705Z" fill="#F9D050" stroke="black" stroke-width="0.436686"/>
<path d="M381.719 117.349C380.992 120.115 378.59 122.589 380.264 126.447C377.207 125.355 374.441 124.991 371.967 127.83C375.096 127.466 377.862 128.558 379.245 130.595C376.479 130.231 375.096 131.687 374.369 133.434C376.843 132.706 379.245 131.978 380.337 132.342C379.245 133.434 377.498 135.108 377.207 136.563C379.245 134.817 381.719 135.108 383.102 134.089C382.083 136.563 384.121 138.965 385.868 141.367C385.577 137.946 387.615 135.545 386.596 133.725C389.725 134.453 390.089 137.218 394.602 137.218C392.855 136.2 391.836 132.706 389.725 132.706C390.744 132.342 394.966 131.978 395.693 132.706C394.966 131.25 392.491 129.94 391.108 129.94C392.564 128.485 394.966 125.719 396.712 124.991C394.238 125.355 390.453 125.719 389.07 127.83C392.491 124.991 391.836 119.824 395.621 119.096C393.583 118.732 390.453 120.115 387.979 122.589C389.07 120.479 389.07 117.713 390.453 116.985C387.615 117.713 384.485 121.207 383.466 122.953C383.315 120.977 382.718 119.061 381.719 117.349V117.349Z" fill="#F9D050" stroke="black" stroke-width="0.436686"/>
<path d="M383.465 122.953C383.465 123.972 383.465 126.083 383.102 126.738Z" fill="#F9D050"/>
<path d="M383.465 122.953C383.465 123.972 383.465 126.083 383.102 126.738" stroke="black" stroke-width="0.436686"/>
<path d="M387.978 122.59C387.25 123.318 385.867 125.719 385.867 127.83Z" fill="#F9D050"/>
<path d="M387.978 122.59C387.25 123.318 385.867 125.719 385.867 127.83" stroke="black" stroke-width="0.436686"/>
<path d="M390.09 126.738C388.89 127.455 388.006 128.599 387.615 129.941" stroke="black" stroke-width="0.436686"/>
<path d="M353.116 161.309C350.641 161.309 348.603 160.29 347.148 158.544C344.746 155.341 338.123 153.958 335.284 156.797C334.265 157.525 332.883 157.525 331.864 157.816C330.117 157.816 328.006 159.563 328.661 163.056C330.117 161.964 330.408 163.056 331.5 163.056C332.228 162.692 331.864 163.42 331.864 164.075C331.864 165.822 335.648 169.315 339.142 168.951C342.999 168.951 344.746 170.407 345.401 171.135C346.493 172.081 345.765 171.79 346.493 173.537C347.511 174.555 347.875 174.919 346.129 176.302C345.334 176.965 344.695 177.794 344.256 178.731C343.817 179.668 343.59 180.69 343.59 181.724C343.59 182.759 343.817 183.781 344.256 184.718C344.695 185.655 345.334 186.484 346.129 187.147C350.641 190.567 362.14 195.88 375.095 185.691C387.614 175.938 407.119 181.542 408.575 184.963C410.321 188.529 410.977 190.567 411.34 192.314C411.704 193.77 413.451 195.152 415.926 194.789C418.327 194.789 421.093 195.808 422.476 196.899C424.295 197.918 426.697 197.627 426.042 194.425C424.587 184.672 418.691 183.289 418.036 178.777C421.457 179.068 423.859 179.068 425.314 177.685C426.333 176.302 427.716 173.828 429.172 173.173C430.191 172.445 430.191 171.717 428.808 172.081C427.061 172.445 426.042 173.173 422.84 172.809C406.828 171.062 361.849 158.835 353.116 161.309V161.309Z" fill="#059334" stroke="black" stroke-width="1.01893"/>
<path d="M424.296 173.172C421.635 175.049 419.362 177.422 417.6 180.159C414.179 184.672 403.699 189.184 390.744 189.184C378.225 189.184 370.583 187.146 364.979 182.634C362.586 180.721 360.001 179.062 357.264 177.685C353.48 175.938 352.752 172.081 353.771 168.951C352.752 170.698 352.097 172.444 349.986 172.081C348.531 172.081 345.765 172.081 346.493 173.536C346.129 172.808 346.129 171.789 345.765 171.353L345.037 170.698C346.129 171.426 348.603 169.315 350.35 169.315C351.733 169.679 353.48 167.932 353.116 165.821L352.097 161.309C354.863 159.853 391.471 166.549 398.822 167.204C406.1 167.568 427.061 170.698 424.296 173.172V173.172Z" fill="black" stroke="black" stroke-width="1.01893"/>
<path d="M357.993 159.926C361.486 156.433 365.635 154.686 369.856 155.705H370.875C373.059 153.958 377.862 153.594 380.701 154.977H382.083C386.232 153.594 394.238 154.977 397.076 157.815L398.095 158.543C407.557 157.815 413.088 161.964 419.711 168.66C420.439 169.388 421.458 170.698 423.205 171.062C425.315 171.425 425.679 172.517 423.933 173.536C421.134 175.267 418.669 177.485 416.654 180.086C413.452 184.308 403.335 188.529 390.744 188.529C378.59 188.529 371.239 186.346 365.635 182.197C362.505 179.795 360.104 178.412 358.357 177.321C356.246 176.593 353.48 173.827 354.499 171.062C355.227 168.296 353.48 164.802 352.098 161.309C353.117 160.581 355.882 159.562 357.265 160.29L357.993 159.926Z" fill="#059334" stroke="black" stroke-width="1.01893"/>
<path d="M419.71 168.659C413.16 161.964 407.556 157.815 398.094 158.47C398.094 158.834 398.094 159.926 397.73 160.653C404.324 163.613 410.17 168.015 414.834 173.536C416.29 172.08 418.691 170.406 419.71 168.659Z" fill="#00493D" stroke="black" stroke-width="1.01893"/>
<path d="M397.074 157.815C394.236 155.049 386.23 153.594 382.081 155.049C382.081 156.432 382.081 158.543 381.354 159.926C383.828 160.945 385.866 163.419 387.977 165.821C389.432 165.457 392.853 164.438 394.6 164.074C395.642 162.081 396.471 159.983 397.074 157.815V157.815Z" fill="#00493D" stroke="black" stroke-width="1.01893"/>
<path d="M380.7 154.977C377.861 153.594 372.985 153.958 370.874 155.705C370.147 157.16 369.855 159.926 369.855 161.309C371.311 161.309 373.349 162.328 374.004 163.056C376.187 162.328 378.953 160.945 379.972 159.926C380.336 158.47 380.991 156.433 380.7 155.05V154.977Z" fill="#00493D" stroke="black" stroke-width="1.01893"/>
<path d="M357.992 159.927C361.486 156.433 365.634 154.686 369.856 155.705C369.128 156.797 368.837 158.835 368.837 160.945C364.979 160.582 360.103 161.673 357.992 163.056V159.927Z" fill="#00493D" stroke="black" stroke-width="1.01893"/>
<path d="M413.451 174.191C409.067 168.999 403.602 164.827 397.439 161.964C397.439 162.328 396.712 163.711 396.348 164.802C398.458 167.932 402.607 174.919 404.354 178.776C406.1 178.048 410.977 175.938 413.451 174.191V174.191Z" fill="#00493D" stroke="black" stroke-width="1.01893"/>
<path d="M386.959 181.906C387.562 177.149 387.902 172.362 387.978 167.568C389.725 167.204 393.218 166.185 394.601 165.821C396.348 168.66 400.569 176.011 402.316 179.431C398.094 180.45 391.108 182.197 386.959 181.906Z" fill="#00493D" stroke="black" stroke-width="1.01893"/>
<path d="M374.73 165.166C376.477 164.439 378.952 162.983 380.626 161.673C382.081 162.692 384.847 165.166 385.866 166.549C385.866 169.679 384.847 178.776 384.483 181.833C381.717 181.833 377.205 181.178 374.73 179.795C375.094 174.555 375.458 168.66 374.73 165.166V165.166Z" fill="#00493D" stroke="black" stroke-width="1.01893"/>
<path d="M357.264 169.315C357.628 168.587 357.991 166.186 357.991 165.167C360.757 163.42 367.744 161.673 372.984 164.439C373.348 167.932 372.984 176.666 372.62 178.777C367.953 174.981 362.816 171.801 357.336 169.315H357.264Z" fill="#00493D" stroke="black" stroke-width="1.01893"/>
<path d="M339.87 162.983C339.142 162.983 338.778 160.945 337.395 160.945C337.031 160.945 336.012 161.309 335.648 160.945C335.648 161.673 336.012 162.401 336.376 162.692C336.74 163.711 338.487 163.056 339.87 163.056V162.983Z" fill="black"/>
<path d="M339.869 168.951C344.018 168.951 344.745 163.711 346.856 163.42" stroke="black" stroke-width="1.01893"/>
<path d="M342.271 169.315C345.401 170.77 347.876 163.419 350.277 163.711" stroke="black" stroke-width="1.01893"/>
<path d="M336.012 160.29C337.031 160.29 337.758 158.835 339.505 160.581C340.233 161.309 341.252 161.673 341.98 161.673" stroke="black" stroke-width="1.01893"/>
<path d="M341.252 165.458C339.796 167.641 337.395 168.952 336.012 168.296" stroke="black" stroke-width="1.01893"/>
<path d="M335.285 156.797C334.266 157.525 333.611 158.835 332.883 159.926" stroke="black" stroke-width="1.01893"/>
<path d="M331.863 161.964V163.711" stroke="black" stroke-width="1.01893"/>
<path d="M448.312 207.379V275.357C448.312 334.309 420.437 354.543 383.101 370.554C345.764 354.543 317.598 334.309 317.598 275.357V207.307H448.312V207.379Z" fill="white"/>
<path d="M383.101 264.877C386.231 264.877 391.107 262.111 395.328 257.89C399.841 253.014 407.555 251.34 415.561 257.89C423.567 264.513 428.444 261.747 432.665 257.89C436.813 254.105 440.307 252.65 448.313 252.65V207.38H317.525V252.722C325.531 252.722 329.025 254.178 333.246 257.963C337.395 261.82 342.271 264.586 350.35 257.963C358.719 251.412 365.998 253.086 370.874 257.963C374.731 262.184 379.608 264.95 383.101 264.95V264.877Z" fill="#C8102E"/>
<path d="M383.101 299.811C387.322 299.811 395.692 295.226 397.73 294.207C405.445 289.622 410.976 293.843 415.561 295.954C420.438 297.991 429.463 300.466 435.067 295.954C440.671 291.368 443.8 291.732 447.658 291.732C448.386 286.492 448.386 281.252 448.386 275.357V271.135C443.437 270.116 441.035 271.499 435.795 276.084C430.554 280.597 424.586 279.578 416.871 276.812C409.593 273.61 402.315 268.078 394.964 276.812C391.916 280.219 387.661 282.307 383.101 282.635C377.861 282.635 373.348 279.214 371.238 276.812C363.596 268.078 356.609 273.61 349.258 276.812C341.616 279.578 335.284 280.597 330.116 276.084C325.24 271.499 322.766 270.116 317.525 271.135V275.357C317.525 281.252 317.889 286.492 318.544 291.732C322.402 291.732 325.24 291.368 330.772 295.954C336.376 300.466 345.764 297.991 350.35 295.954C355.226 293.843 360.757 289.622 368.472 294.207C370.583 295.226 378.589 299.738 383.101 299.738V299.811Z" fill="#0B50A0"/>
<path d="M383.101 314.803C389.144 314.477 395.016 312.678 400.205 309.563C407.192 305.706 412.068 307.38 419.055 310.946C426.333 314.44 432.301 313.348 436.522 310.946C438.56 309.49 440.307 306.725 444.819 307.816C442.782 316.55 439.579 324.192 435.795 330.451C432.821 331.437 429.682 331.823 426.558 331.585C423.435 331.348 420.39 330.492 417.599 329.069C410.321 325.575 401.224 323.464 396.347 326.594C392.393 329.168 387.816 330.627 383.101 330.815C379.244 330.815 374.367 329.36 369.855 326.594C364.979 323.464 355.881 325.575 348.603 329.069C345.818 330.504 342.775 331.372 339.651 331.622C336.528 331.872 333.386 331.499 330.408 330.524C326.623 324.192 323.493 316.477 321.383 307.816C325.895 306.725 327.642 309.563 329.753 310.946C332.362 312.419 335.308 313.193 338.304 313.193C341.301 313.193 344.247 312.419 346.856 310.946C354.134 307.453 359.011 305.706 365.998 309.49C371.18 312.631 377.052 314.455 383.101 314.803V314.803Z" fill="#0B50A0"/>
<path d="M383.1 370.555C396.59 365.327 409.186 358.034 420.437 348.939C417.599 347.92 415.925 348.575 413.45 346.828C410.975 345.081 403.697 344.426 397.438 347.92C393.097 350.452 388.162 351.786 383.137 351.786C378.111 351.786 373.176 350.452 368.835 347.92C362.503 344.426 355.225 345.081 352.823 346.828C350.349 348.575 348.602 347.92 345.764 349.011C356.969 358.154 369.577 365.429 383.1 370.555V370.555Z" fill="#0B50A0"/>
<path d="M374.004 224.41C374.368 225.138 373.713 226.885 374.004 227.54C374.732 228.995 374.732 229.723 375.751 230.378H378.226C385.868 230.378 394.965 227.249 402.607 227.249C409.958 227.249 414.47 229.65 418.619 229.65C421.094 229.65 423.204 227.904 423.204 226.157C423.204 224.41 420.439 223.391 414.47 223.391C406.101 223.391 401.588 225.502 394.601 225.502C384.121 225.502 382.374 221.645 382.374 219.898C382.374 218.151 384.121 215.749 389.725 215.749C391.472 215.749 392.855 215.385 393.582 214.658C393.946 213.93 394.965 212.547 397.076 211.528C399.478 210.072 404.354 211.528 406.828 209.781C406.828 211.237 404.718 213.275 402.971 214.003C406.465 212.911 410.249 212.911 410.977 215.749C409.23 214.658 406.465 215.385 405.446 215.749C403.99 216.04 403.335 216.477 401.952 216.768C403.335 216.404 404.063 219.17 406.101 219.17C404.063 220.917 400.569 220.917 397.076 219.534C395.984 219.17 393.218 218.151 391.472 218.151C387.978 218.151 385.868 218.879 385.868 220.262C385.868 222.008 388.051 223.027 394.237 223.027C400.569 223.027 404.063 221.281 413.452 221.281C412.724 220.262 413.815 219.17 412.433 218.151C415.926 218.151 419.711 219.17 421.166 221.645C420.802 219.17 422.84 217.132 422.185 215.021C424.296 215.385 426.043 217.423 426.334 219.17C426.334 218.151 427.789 218.151 427.789 217.132C428.763 217.658 429.55 218.472 430.045 219.461C430.54 220.451 430.718 221.569 430.555 222.663C431.574 220.917 432.666 221.645 433.321 219.534C434.049 220.99 433.685 225.138 431.21 226.521C433.394 225.065 436.45 225.065 438.561 227.54C436.45 227.249 435.431 228.268 434.412 228.632C429.334 231.227 423.659 232.432 417.964 232.125C412.433 231.761 411.705 230.669 408.211 230.669C410.322 231.033 414.47 235.255 418.401 235.255C420.802 235.255 422.549 235.255 423.568 234.891C424.587 234.527 426.334 234.891 427.717 235.618C428.808 236.637 430.919 237.656 432.302 237.365C431.938 238.748 431.21 239.403 430.191 239.767C431.938 240.859 430.919 241.514 432.666 242.897C431.938 242.897 431.21 243.624 430.191 243.261C431.21 244.279 431.21 245.735 432.302 246.39C431.938 246.39 430.846 246.754 430.191 246.39C431.21 247.846 430.191 249.52 431.21 250.247C432.302 251.703 430.191 253.377 428.444 251.994C428.808 253.013 427.717 254.105 426.698 253.741C425.679 253.377 424.951 252.285 425.242 251.994C425.242 251.63 425.242 251.63 425.679 251.266C424.951 252.358 423.568 252.358 422.84 251.994C422.549 251.63 422.112 251.266 422.112 250.975C419.711 251.703 418.692 249.52 419.056 248.501C419.347 247.482 421.457 247.045 422.185 247.482C422.913 247.773 423.568 248.21 424.296 247.482C425.024 247.118 425.315 246.39 425.315 245.735C425.315 244.643 424.296 241.514 419.711 241.878C414.47 242.242 406.101 240.859 401.952 239.403C401.588 239.112 401.224 239.112 400.86 238.675C400.86 240.131 399.478 240.859 399.478 242.242C399.478 243.988 400.205 245.371 402.316 246.026C401.224 247.773 399.478 247.482 398.823 246.39C398.823 247.482 397.367 248.137 397.367 249.52C397.076 248.792 396.639 248.501 396.348 247.773C395.329 250.247 392.491 251.63 391.108 250.975C389.361 252.358 387.323 251.994 386.595 250.611C385.576 251.339 384.121 251.339 383.466 250.611C383.466 251.63 382.738 251.339 382.374 252.722C382.374 253.45 380.991 253.741 380.336 253.45C379.608 253.013 379.244 251.63 379.972 250.975C378.953 251.703 377.862 251.703 377.207 250.975C377.207 250.247 377.207 249.229 377.934 248.792H378.589C377.862 248.501 376.843 248.792 376.115 248.501C375.387 247.773 375.387 247.045 375.751 246.39C376.115 246.026 377.207 245.371 377.934 246.026L378.226 246.39C378.226 245.662 378.589 245.007 378.953 245.007C379.681 244.643 380.627 244.643 381.719 245.735C382.447 246.754 383.102 246.754 385.213 246.463C386.959 246.463 389.725 244.643 391.763 242.897C385.94 241.878 389.361 238.02 391.108 236.637C389.725 236.274 387.614 236.274 386.231 237.001C378.953 240.859 371.239 245.371 366.362 243.988C366.43 244.718 366.68 245.419 367.09 246.026C365.998 246.026 363.888 246.026 363.233 245.007C362.869 245.735 362.214 247.482 362.869 248.865C362.141 248.137 360.103 247.409 359.011 247.118C359.739 247.846 359.011 249.229 359.375 250.247C358.356 249.229 356.61 248.501 355.882 249.229C355.154 249.956 353.771 250.247 352.752 249.956C352.074 250.916 351.104 251.63 349.986 251.994C349.986 251.266 349.986 250.247 349.623 249.884C349.259 250.975 348.167 252.358 346.857 253.013C346.857 252.285 346.857 251.266 346.493 250.611C346.493 251.994 343.727 252.722 343.363 253.741C343.727 252.722 343.727 251.63 343.727 250.975C343.341 251.594 342.832 252.127 342.231 252.54C341.63 252.953 340.95 253.238 340.234 253.377C340.525 252.649 340.962 251.921 340.525 251.266C340.234 252.722 338.123 253.45 336.376 253.013C336.376 253.741 334.921 254.76 333.247 253.741C332.155 253.377 331.5 252.285 332.155 251.63C330.772 251.63 329.389 250.247 330.117 249.229C330.117 248.865 330.408 248.501 330.408 248.137C329.389 247.409 329.026 246.026 330.117 245.007C330.408 244.643 331.5 244.643 332.155 244.643C332.155 241.878 334.63 241.878 335.649 243.916C336.376 245.007 338.487 246.754 340.234 246.39C340.962 246.39 341.253 246.026 341.981 246.026C345.111 244.992 348.059 243.469 350.714 241.514C351.005 240.495 351.005 239.767 351.005 239.112C349.623 239.84 348.24 240.495 347.512 241.514V240.495C346.493 240.495 344.746 240.131 344.018 240.131C344.382 239.767 344.746 238.02 345.474 237.656C343.727 238.02 341.981 237.656 340.525 237.365C341.253 236.637 341.253 235.618 341.617 234.527C340.889 234.891 339.142 234.236 337.759 234.527C338.123 233.508 338.487 232.125 339.506 231.761C338.05 232.125 336.376 231.761 334.63 231.033C336.085 231.033 336.74 229.287 337.759 229.287C334.994 229.287 334.266 227.904 332.883 227.249C333.902 227.54 334.63 226.521 335.649 226.521C334.63 226.157 332.883 224.41 333.611 223.391C333.247 223.755 332.883 224.41 332.155 224.847C331.427 225.138 330.117 224.847 329.026 223.755C328.298 222.3 328.662 220.626 330.117 220.262C329.798 220.241 329.491 220.129 329.233 219.94C328.975 219.75 328.777 219.491 328.662 219.192C328.547 218.893 328.521 218.568 328.585 218.255C328.649 217.941 328.802 217.653 329.026 217.423C329.389 216.695 330.772 215.749 331.5 216.695L332.519 218.151C332.155 217.423 332.155 216.04 332.155 215.021C332.519 214.003 333.247 214.003 334.339 213.566C335.285 213.566 336.013 214.658 336.013 215.749C336.013 216.768 336.376 217.423 336.74 218.879L337.031 217.423C337.031 216.04 338.778 216.404 339.87 216.695C340.889 217.132 341.253 219.17 339.87 220.262C339.142 220.99 339.506 222.008 340.234 222.663C342.636 226.521 346.784 229.65 350.35 230.014C350.35 228.559 351.078 227.249 352.097 226.157C352.097 225.429 352.388 224.41 352.825 223.755C353.116 221.645 354.135 220.626 355.518 221.281C355.227 220.917 354.79 220.553 354.79 220.262C353.771 219.17 352.752 217.423 353.48 216.04C354.208 214.658 356.246 215.021 356.973 215.749C356.61 213.566 359.011 211.892 359.011 210.8C359.375 211.892 360.103 213.275 359.739 214.294C360.103 212.911 362.505 211.164 364.252 210.509C363.524 211.528 365.707 213.275 365.343 214.294C366.071 212.547 368.837 211.528 370.875 211.528C370.147 212.256 370.147 213.639 370.147 214.294C371.239 214.294 373.058 214.003 373.713 212.911C373.713 214.366 372.985 215.749 372.257 216.404C372.621 216.04 374.004 216.04 375.096 216.04C374.004 217.132 374.368 218.224 373.349 218.879C374.732 218.151 376.479 218.151 376.843 219.607C377.57 220.626 376.479 222.372 375.751 223.391C375.023 223.755 374.368 224.41 374.004 224.41V224.41Z" fill="#F9D050" stroke="black" stroke-width="1.01893"/>
<path d="M352.461 228.632C349.986 229.651 349.258 232.125 348.895 233.508" stroke="black" stroke-width="1.01893"/>
<path d="M352.097 231.033C348.604 233.217 347.148 234.891 347.876 238.748" stroke="black" stroke-width="1.01893"/>
<path d="M353.771 241.587C355.955 240.859 357.265 240.132 359.012 237.002" stroke="black" stroke-width="1.01893"/>
<path d="M357.992 238.385C357.264 239.84 357.992 242.242 356.973 243.261C357.909 242.795 358.717 242.107 359.326 241.257C359.935 240.407 360.326 239.421 360.466 238.385" stroke="black" stroke-width="1.01893"/>
<path d="M358.721 242.242C360.104 241.514 362.214 239.403 363.233 237.001C362.869 238.02 363.233 239.767 362.505 240.859C364.252 239.112 364.98 238.02 365.344 236.273L365.635 237.729C366.363 237.001 367.091 236.273 367.091 234.891" stroke="black" stroke-width="1.01893"/>
<path d="M367.018 235.91V237.656C368.473 236.637 368.837 235.255 368.837 233.508" stroke="black" stroke-width="1.01893"/>
<path d="M368.473 235.619C370.583 234.164 370.874 232.126 370.874 228.996" stroke="black" stroke-width="1.01893"/>
<path d="M370.875 232.489C372.331 231.397 372.622 230.742 372.622 227.54" stroke="black" stroke-width="1.01893"/>
<path d="M368.109 218.151C367.381 218.151 366.653 218.515 366.653 219.607C366.653 220.262 365.634 221.281 365.634 222.373C365.343 223.756 364.615 224.119 363.596 223.756C362.505 223.028 362.505 223.028 362.505 222.009C362.505 220.553 364.251 220.262 364.251 218.879C364.615 218.151 364.979 217.132 365.343 217.132C363.596 218.151 361.122 217.424 360.758 215.386" stroke="black" stroke-width="1.01893"/>
<path d="M371.238 219.17C370.511 219.534 369.783 218.443 368.837 218.879C368.473 218.879 367.381 219.17 367.09 218.879" stroke="black" stroke-width="1.01893"/>
<path d="M366.361 220.917C366.725 221.281 368.472 222.008 370.219 221.281C368.763 221.645 367.744 219.898 369.127 218.879" stroke="black" stroke-width="1.01893"/>
<path d="M363.232 217.424C361.776 217.424 360.757 218.516 361.121 219.607C361.485 220.626 362.868 220.626 363.887 219.898" stroke="black" stroke-width="1.01893"/>
<path d="M360.758 234.891C361.122 234.527 361.486 233.872 361.486 233.435C362.213 233.435 362.941 233.144 363.232 232.78C364.615 232.78 365.634 231.761 365.998 230.742C366.726 230.742 367.09 228.995 367.454 228.268C367.745 228.631 368.473 228.268 368.836 226.812C369.564 227.249 370.583 226.812 370.874 225.793" stroke="black" stroke-width="1.01893"/>
<path d="M356.609 223.392C356.609 223.756 355.882 224.411 355.154 224.847C355.518 225.502 355.154 227.249 354.499 227.54C354.863 228.268 354.499 229.287 354.135 230.015C354.135 230.379 354.499 231.47 354.499 231.761" stroke="black" stroke-width="1.01893"/>
<path d="M357.992 216.404C357.264 218.151 357.628 220.262 359.011 220.626" stroke="black" stroke-width="1.01893"/>
<path d="M358.721 221.936C358.357 223.755 358.357 226.157 357.993 227.249C357.629 227.976 356.974 230.378 359.74 231.033C362.87 231.761 364.616 231.397 366.363 226.157" stroke="black" stroke-width="1.01893"/>
<path d="M371.603 239.768C371.603 240.131 371.239 240.859 370.584 240.859" stroke="black" stroke-width="1.01893"/>
<path d="M374.003 239.112C374.003 239.84 373.275 240.859 372.984 241.15" stroke="black" stroke-width="1.01893"/>
<path d="M376.478 238.385C376.478 239.113 376.478 240.132 375.75 240.495" stroke="black" stroke-width="1.01893"/>
<path d="M355.227 216.769C355.518 216.769 355.955 217.496 356.246 218.151C355.227 217.424 354.135 219.17 354.79 220.262" stroke="black" stroke-width="1.01893"/>
<path d="M354.135 222.664L352.752 223.756" stroke="black" stroke-width="1.01893"/>
<path d="M353.117 225.793C352.753 225.793 352.389 226.157 352.098 226.157" stroke="black" stroke-width="1.01893"/>
<path d="M336.377 219.534C336.377 219.171 336.377 219.171 336.741 218.807" stroke="black" stroke-width="1.01893"/>
<path d="M333.247 218.515C332.883 218.515 332.883 218.515 332.52 218.151" stroke="black" stroke-width="1.01893"/>
<path d="M333.537 223.392H334.265" stroke="black" stroke-width="1.01893"/>
<path d="M332.155 221.281C331.602 220.732 330.888 220.374 330.117 220.262" stroke="black" stroke-width="1.01893"/>
<path d="M351.369 234.236C348.895 236.274 347.876 238.021 347.512 240.495" stroke="black" stroke-width="1.01893"/>
<path d="M353.772 235.91C353.154 237.206 352.198 238.312 351.006 239.113" stroke="black" stroke-width="1.01893"/>
<path d="M340.233 246.39C339.068 246.766 337.832 246.869 336.621 246.693C335.41 246.516 334.255 246.064 333.246 245.371C332.882 245.007 332.518 245.007 332.154 244.644" stroke="black" stroke-width="1.01893"/>
<path d="M350.641 241.587C350.35 242.897 349.913 244.644 349.258 245.008C352.096 243.552 354.498 241.514 354.862 238.385" stroke="black" stroke-width="1.01893"/>
<path d="M330.408 248.137C331.5 247.773 332.592 248.501 333.247 247.773" stroke="black" stroke-width="1.01893"/>
<path d="M391.107 236.638C391.835 237.002 392.854 237.366 393.218 237.657C393.582 236.929 394.965 235.91 395.984 235.619" stroke="black" stroke-width="1.01893"/>
<path d="M366.363 243.988C365.999 242.533 366.727 240.859 368.838 240.131" stroke="black" stroke-width="1.01893"/>
<path d="M352.752 249.884C353.116 249.156 353.116 248.137 353.48 247.482" stroke="black" stroke-width="1.01893"/>
<path d="M337.396 250.976C337.032 251.703 336.377 252.358 336.377 253.013" stroke="black" stroke-width="1.01893"/>
<path d="M332.154 251.63C332.154 251.63 332.154 251.266 332.518 251.266C333.246 250.975 334.265 250.247 334.629 249.52" stroke="black" stroke-width="1.01893"/>
<path d="M379.607 246.755C378.88 247.118 378.589 246.755 378.225 246.391" stroke="black" stroke-width="1.01893"/>
<path d="M379.243 248.501C379.243 248.501 378.952 248.865 378.516 248.865" stroke="black" stroke-width="1.01893"/>
<path d="M380.992 250.248C380.628 250.612 380.264 250.976 379.973 250.976" stroke="black" stroke-width="1.01893"/>
<path d="M391.107 250.976C391.835 250.612 392.199 249.884 392.563 248.501" stroke="black" stroke-width="1.01893"/>
<path d="M386.596 250.612C387.615 250.248 388.342 249.52 389.361 248.501" stroke="black" stroke-width="1.01893"/>
<path d="M396.348 247.773C396.348 247.045 396.348 246.39 396.712 245.735" stroke="black" stroke-width="1.01893"/>
<path d="M422.185 250.976C421.457 250.248 421.457 249.229 422.549 248.501C423.277 248.137 423.568 247.774 424.296 247.482" stroke="black" stroke-width="1.01893"/>
<path d="M400.86 238.676C395.329 236.274 395.693 233.145 391.107 233.509" stroke="black" stroke-width="1.01893"/>
<path d="M425.678 249.593C426.042 249.884 425.678 250.976 425.678 251.267" stroke="black" stroke-width="1.01893"/>
<path d="M428.809 249.593C428.445 250.612 428.445 250.976 428.445 251.995" stroke="black" stroke-width="1.01893"/>
<path d="M401.952 216.769H399.041" stroke="black" stroke-width="1.01893"/>
<path d="M372.621 228.632C372.621 229.36 373.713 230.742 376.478 230.742C376.115 230.742 375.751 230.379 375.751 230.379" stroke="black" stroke-width="1.01893"/>
<path d="M374.005 224.41C373.714 224.774 373.277 224.41 373.277 224.41C372.622 223.682 373.714 222.372 374.733 221.644C373.714 222.008 372.986 222.008 372.258 222.008C371.53 224.119 369.492 225.138 368.11 223.755C367.746 225.138 365.999 226.885 364.616 226.521C363.161 225.793 362.869 224.774 363.161 223.755C361.487 225.793 359.376 224.483 358.721 223.755C358.357 223.027 358.721 221.281 359.449 219.17" stroke="black" stroke-width="1.01893"/>
<path d="M396.347 237.656C395.328 238.384 394.236 237.656 393.218 238.748C392.49 239.476 393.581 239.767 394.236 239.767C393.945 240.859 393.945 241.223 395.692 241.223C394.964 242.241 397.075 242.605 396.711 243.988C397.149 243.534 397.45 242.965 397.579 242.347C397.708 241.728 397.659 241.086 397.439 240.495C397.075 239.403 395.255 238.748 396.347 237.656Z" fill="black"/>
<path d="M364.615 226.522C363.16 225.794 362.868 224.775 363.16 223.756C362.868 224.484 362.213 224.775 361.486 224.775C360.03 227.904 358.356 230.743 356.245 230.743C353.771 231.034 354.135 233.509 355.882 233.509C359.739 234.236 361.486 232.781 364.615 226.522V226.522Z" fill="#073163"/>
<path d="M330.116 218.151C331.135 217.132 330.408 216.041 329.753 215.75C328.661 215.386 326.623 215.75 325.531 217.424C326.623 217.132 327.715 217.132 328.006 217.787C328.37 218.515 329.025 219.243 330.116 218.151Z" fill="#073163"/>
<path d="M331.864 211.892C334.266 211.892 334.993 212.256 335.285 213.275C335.648 214.003 334.993 215.022 334.266 215.022C333.247 215.022 332.155 214.294 332.519 214.003C332.883 213.275 332.883 212.256 331.791 211.819L331.864 211.892Z" fill="#073163"/>
<path d="M338.778 217.423C340.525 217.787 341.253 216.695 340.234 215.385C339.87 214.293 338.778 213.638 337.031 213.93C338.778 215.021 337.031 216.768 338.778 217.423Z" fill="#073163"/>
<path d="M325.895 223.391C326.208 224.011 326.732 224.497 327.372 224.764C328.013 225.031 328.728 225.061 329.388 224.847C330.407 224.41 330.844 223.391 330.407 222.664C329.679 221.645 328.66 221.281 328.369 222.664C327.641 224.119 326.622 223.755 325.895 223.391Z" fill="#073163"/>
<path d="M331.135 244.644C330.408 243.261 328.37 243.261 326.623 244.644C327.351 244.28 328.661 244.644 329.025 245.371C329.389 246.099 330.117 246.099 330.48 246.099C330.772 245.735 331.499 245.371 331.135 244.644V244.644Z" fill="#073163"/>
<path d="M333.902 242.606C333.902 240.859 331.5 240.423 330.117 241.15C330.845 241.15 331.864 241.878 331.864 242.606C332.155 243.334 332.883 243.625 333.247 243.625C333.975 243.261 334.266 242.897 333.975 242.606H333.902Z" fill="#073163"/>
<path d="M330.407 248.865C328.369 248.501 327.277 250.975 327.277 252.649C327.641 251.63 328.733 250.975 329.752 251.267C330.771 251.267 331.135 250.975 331.135 250.248C331.499 249.52 331.135 249.229 330.407 248.792V248.865Z" fill="#073163"/>
<path d="M330.771 254.76C331.499 255.124 332.227 254.396 332.518 253.377C332.518 252.65 333.974 252.65 334.265 253.013C334.993 253.377 334.993 254.76 333.901 255.488C333.173 255.852 331.499 256.216 330.771 254.76Z" fill="#073163"/>
<path d="M379.244 244.28C378.516 243.989 376.842 243.261 375.459 244.28C376.478 243.989 377.206 244.644 377.497 245.371C377.497 246.099 378.589 246.39 378.953 245.735C379.244 245.371 379.68 244.644 379.244 244.28V244.28Z" fill="#073163"/>
<path d="M376.115 246.755C374.732 246.027 372.985 247.774 372.621 249.229C373.333 248.649 374.187 248.272 375.096 248.137C375.823 248.501 376.478 248.137 376.478 247.41C376.842 247.119 376.842 246.755 376.115 246.755Z" fill="#073163"/>
<path d="M377.934 249.592C376.842 249.592 375.459 250.975 375.459 252.358C375.75 251.63 376.478 251.266 377.206 251.63C377.934 251.63 378.953 251.266 378.953 250.611C378.953 249.883 378.589 249.52 377.861 249.52L377.934 249.592Z" fill="#073163"/>
<path d="M380.991 252.358C380.263 251.994 379.244 252.358 379.244 253.377C379.244 254.396 379.244 255.488 378.953 255.852C379.681 255.124 380.336 254.76 380.991 254.396C381.355 254.105 381.719 253.013 380.991 252.358V252.358Z" fill="#073163"/>
<path d="M420.437 249.229C419.709 248.501 418.69 248.865 418.326 249.52C417.963 250.248 417.599 251.995 418.326 253.378C418.326 252.65 419.054 251.631 419.782 251.631C420.801 251.267 421.092 249.884 420.437 249.229Z" fill="#073163"/>
<path d="M422.548 250.611C421.093 251.339 421.093 253.741 422.184 255.124C422.184 254.396 422.548 253.377 423.203 253.013C424.295 253.013 424.659 251.63 424.295 250.975C423.567 250.248 422.839 250.611 422.548 250.611Z" fill="#073163"/>
<path d="M426.696 251.995C425.968 251.631 425.24 252.359 425.24 253.014C424.949 254.105 425.677 255.488 426.696 256.143C426.696 255.415 427.06 254.76 427.424 254.396C428.443 253.669 428.152 252.359 426.696 251.995Z" fill="#073163"/>
<path d="M429.825 251.631C429.098 251.631 428.443 252.65 429.098 253.742C429.462 254.469 430.189 254.76 431.572 254.469C431.208 254.469 430.553 253.378 430.844 253.014C431.208 252.286 430.844 251.631 429.825 251.631Z" fill="#073163"/>
<path d="M332.881 316.842L350.349 263.13L367.816 316.842L322.037 283.727H378.661L332.881 316.842Z" fill="#F9D050"/>
<path d="M336.376 311.966L372.621 285.474H328.006L363.887 311.966L350.35 269.462L336.376 311.966Z" fill="#024919"/>
<path d="M448.312 207.379V275.357C448.312 334.309 420.437 354.543 383.101 370.554C345.764 354.543 317.598 334.309 317.598 275.357V207.307H448.312V207.379Z" stroke="black" stroke-width="1.01893"/>
</g>
<defs>
<clipPath id="clip0_7463_133674">
<rect width="512" height="512" fill="white"/>
</clipPath>
</defs>
</svg>
