<svg width="24" height="24" viewBox="0 0 24 24" fill="none" xmlns="http://www.w3.org/2000/svg">
<g clip-path="url(#clip0_18_5176)">
<path d="M12 24C18.6274 24 24 18.6274 24 12C24 5.37258 18.6274 0 12 0C5.37258 0 0 5.37258 0 12C0 18.6274 5.37258 24 12 24Z" fill="#F0F0F0"/>
<path d="M12 0C7.24247 0 3.13172 2.76867 1.19072 6.78263H22.8092C20.8683 2.76867 16.7575 0 12 0Z" fill="#D80027"/>
<path d="M12 24C16.7575 24 20.8683 21.2313 22.8093 17.2174H1.19072C3.13172 21.2313 7.24247 24 12 24Z" fill="#D80027"/>
<path d="M15.1304 14.087L12 8.34783L8.86954 14.087H11.2174V15.6522H12.7826V14.087H15.1304Z" fill="#6DA544"/>
</g>
<defs>
<clipPath id="clip0_18_5176">
<rect width="24" height="24" fill="white"/>
</clipPath>
</defs>
</svg>
