<svg width="24" height="24" viewBox="0 0 24 24" fill="none" xmlns="http://www.w3.org/2000/svg">
<g clip-path="url(#clip0_18_5139)">
<path d="M24 12C24 18.6274 18.6274 24 12 24C5.37262 24 0 18.6274 0 12C0.521719 12 12 10.4348 12 10.4348L24 12Z" fill="#D80027"/>
<path d="M0 12C0 5.37262 5.37262 0 12 0C18.6274 0 24 5.37262 24 12" fill="#0052B4"/>
<path d="M8.86953 8.34783C8.86953 7.48341 8.16875 6.78262 7.30433 6.78262C6.90331 6.78262 6.53783 6.93356 6.26085 7.18148V6.26086H6.78256V5.21737H6.26085V4.69566H5.21736V5.21737H4.69564V6.26086H5.21736V7.18148C4.94038 6.93356 4.57489 6.78262 4.17388 6.78262C3.30945 6.78262 2.60867 7.48341 2.60867 8.34783C2.60867 8.81128 2.81028 9.22753 3.13039 9.51417V10.4348H8.34777V9.51417C8.66797 9.22753 8.86953 8.81128 8.86953 8.34783Z" fill="#FFDA44"/>
</g>
<defs>
<clipPath id="clip0_18_5139">
<rect width="24" height="24" fill="white"/>
</clipPath>
</defs>
</svg>
