<svg width="512" height="512" viewBox="0 0 512 512" fill="none" xmlns="http://www.w3.org/2000/svg">
<path d="M0 0H512V512H0V0Z" fill="#FFB700"/>
<path d="M21.3008 256L91.4008 21.2998H161.501V490.7H91.5008L21.3008 256Z" fill="#FF5B00"/>
<path d="M21.3008 21.2998H91.4008V490.7H21.4008L21.3008 21.2998Z" fill="#005641"/>
<path d="M182.699 21.2998H490.699V490.7H182.699V21.2998Z" fill="#8D2029"/>
<path d="M463.4 454.9C463.4 454.9 466.3 460.8 469.5 463.2C474.3 466.7 484 466.5 488.1 470.6C493.1 475.6 487.7 482 487.8 482.6L488.1 486C488.1 486 484.7 486 483.3 486.3C481.2 486.6 480.3 488.3 476.4 488.1C466.5 487.4 466.9 478.5 466.4 470.9C465.9 467.9 464.7 464.2 464.1 461.3C463.5 458.8 463.4 454.9 463.4 454.9V454.9Z" fill="#FFB700" stroke="black" stroke-width="0.9"/>
<path d="M290.801 335.84L292.641 334.72L293.441 335.84C294.481 337.28 297.441 337.2 299.361 335.84L300.881 334.64L302.161 335.76C303.761 337.28 306.801 337.28 308.801 335.76C310.161 334.8 310.401 334.72 311.201 335.52C311.761 336 313.361 336.48 314.721 336.72C317.281 337.04 317.281 337.04 318.721 334.8C320.001 332.96 320.161 332.24 319.921 330.4C319.698 328.995 319.537 327.58 319.441 326.16C319.281 324.08 319.361 324.08 322.321 322.96C323.79 322.509 325.233 321.975 326.641 321.36C327.841 320.64 331.201 316.72 331.201 315.92C331.201 315.76 329.921 315.44 328.321 315.28C321.921 314.48 320.881 311.12 325.041 304.88C331.681 294.48 335.761 284.48 335.761 278.16C335.761 275.28 336.001 274.32 336.321 274.96C337.841 277.44 335.121 288.08 331.121 295.76L329.521 298.8L331.041 298.48C331.841 298.24 336.961 296.08 342.241 293.68C356.801 287.12 361.761 285.84 371.201 286.24C379.121 286.56 382.401 288.08 388.001 293.92C390.961 297.12 393.841 299.28 399.041 302.56C410.081 309.44 410.561 310.08 411.121 318.24C411.681 326.48 411.361 326.96 405.121 328.32C399.761 329.52 396.401 332 395.521 335.52C395.041 337.28 396.081 337.36 398.721 335.6L400.721 334.32L401.601 335.6C402.801 337.28 405.201 337.28 407.201 335.6L408.801 334.4L410.401 335.6C412.801 337.6 416.001 337.12 416.961 334.64C417.121 334.24 417.601 334.32 418.561 335.2C420.401 336.8 424.961 337.44 425.441 336.16C425.601 335.68 425.281 334.56 424.641 333.6C422.001 329.6 421.121 327.76 421.121 325.6C421.121 322.56 421.921 321.04 425.441 318.64C429.601 315.6 430.881 311.76 427.681 311.76C425.761 311.76 423.761 310 422.481 307.2C419.921 301.44 420.481 295.04 424.321 284.32C427.265 278.013 428.742 271.12 428.641 264.16C428.641 258.24 428.481 257.28 427.201 254C426.2 251.72 424.967 249.548 423.521 247.52L421.281 244.56L424.081 242.16C432.721 235.04 430.961 223.36 420.561 218.88C417.361 217.44 416.561 217.36 410.961 217.36C407.761 217.36 402.561 217.84 399.761 218.4C396.003 218.995 392.206 219.316 388.401 219.36C382.961 219.36 382.001 219.2 379.921 218.08C377.761 216.96 377.361 216.4 376.961 213.68C376.922 213.424 376.822 213.181 376.669 212.972C376.516 212.763 376.314 212.594 376.081 212.48C375.281 212.24 371.921 215.2 371.441 216.48C371.121 217.2 370.961 217.12 370.241 216.24C369.562 215.368 369.023 214.397 368.641 213.36C367.841 210.72 368.881 208.8 372.001 207.28L374.401 206.16L372.961 205.28C370.081 203.44 365.121 204.72 363.361 207.68C362.801 208.48 362.241 209.28 362.081 209.28C361.921 209.28 360.961 208.48 360.001 207.44C356.241 203.76 357.521 198.32 362.561 196.72C365.201 195.84 367.601 196.48 368.081 198.32C368.881 200.96 371.121 197.44 370.721 194.16C370.481 192 370.481 191.92 372.001 191.92C374.081 191.92 378.401 194.64 379.841 196.72C381.441 199.2 381.281 203.12 379.521 206L378.161 208.24L380.001 207.92C382.561 207.36 385.121 205.76 386.401 203.76C387.075 202.486 387.454 201.077 387.51 199.637C387.565 198.196 387.296 196.762 386.721 195.44C385.521 193.28 385.681 192.96 387.441 193.68C390.321 194.88 391.921 196.24 393.041 198.56C394.161 200.64 394.241 201.12 393.681 203.36C393.298 204.724 392.704 206.02 391.921 207.2C390.961 208.48 390.881 208.72 391.681 208.72C393.121 208.72 396.001 207.36 397.041 206.32C397.601 205.68 398.401 204.32 398.801 203.12L399.601 201.12L400.401 202.72C401.601 204.88 404.001 206.88 406.881 208.16C410.001 209.44 411.281 209.52 409.681 208.32C408.561 207.52 406.481 201.52 407.201 200.96C410.654 202.894 413.807 205.319 416.561 208.16C421.121 212.24 424.001 213.6 428.161 213.6C433.521 213.6 436.641 208.96 434.241 204.56C432.881 202 429.761 201.6 427.841 203.76C427.041 204.8 426.801 205.6 427.041 206.72C427.361 208 427.281 208.16 426.081 208.16C424.481 208.16 421.441 206.16 416.001 201.6C408.429 195.084 399.725 190.013 390.321 186.64C383.95 185.168 377.372 184.816 370.881 185.6C365.761 186.56 359.681 189.52 356.321 192.64C350.481 198.24 350.401 205.68 356.081 212.48L357.681 214.4L356.641 216.16C355.859 217.421 355.471 218.886 355.528 220.369C355.585 221.852 356.084 223.283 356.961 224.48C357.761 225.6 358.561 226.48 358.801 226.48C358.961 226.48 359.121 225.76 359.201 224.88C359.361 222.72 360.321 221.28 361.921 220.72C363.361 220.16 364.321 220.48 370.881 223.12C377.841 225.84 389.281 226 401.441 223.6C406.711 222.383 412.196 222.438 417.441 223.76C423.201 226.16 424.481 232.32 420.321 236.96C418.481 239.04 416.801 239.84 410.961 241.44C405.876 242.781 400.591 243.188 395.361 242.64C386.721 242.56 383.601 242.72 380.161 243.44C376.241 244.24 373.921 244.32 362.721 244.08L349.681 243.76L351.121 244.88C351.892 245.565 352.722 246.181 353.601 246.72C354.641 247.28 354.561 247.36 353.121 247.92C352.321 248.24 350.401 248.48 348.881 248.48H346.241L345.921 250.72C345.705 251.776 345.705 252.864 345.921 253.92C346.241 254.72 346.081 254.88 345.281 254.56C344.721 254.32 343.201 253.92 341.841 253.68C340.469 253.386 339.129 252.957 337.841 252.4C336.321 251.6 336.161 251.6 335.601 252.64C335.121 253.44 330.641 256.8 330.001 256.8C329.712 254.725 329.119 252.703 328.241 250.8C327.441 249.12 326.721 247.2 326.481 246.64C326.241 245.76 326.081 245.68 325.681 246.4C325.441 246.8 325.121 248 324.881 248.96C324.601 250.256 324.115 251.498 323.441 252.64L322.241 254.4L321.441 252.88C320.641 251.28 319.361 249.52 318.881 249.52C318.721 249.52 318.481 250 318.321 250.72C317.921 252 314.801 255.76 314.001 255.76C313.761 255.76 313.521 254.72 313.521 253.36C313.521 252.16 313.281 251.04 312.961 251.04C312.641 251.04 312.401 251.44 312.401 251.84C312.401 252.8 309.761 255.84 308.801 255.84C308.481 255.84 307.841 256.16 307.441 256.64C306.481 257.68 305.681 257.52 306.081 256.32C306.193 255.296 306.084 254.259 305.761 253.28L304.961 250.72C304.801 250.32 303.841 250.48 301.761 251.12C298.561 252.16 297.441 251.92 299.121 250.64C299.761 250.16 300.721 248.48 301.201 246.96C301.761 245.36 302.561 244 302.961 243.84C303.521 243.68 303.521 243.84 302.801 244.8C302.338 245.409 302.035 246.124 301.921 246.88C301.921 247.28 301.521 248.32 301.121 249.2C300.641 250 300.321 250.8 300.401 250.88C300.481 250.96 301.761 250.48 303.201 249.84L305.761 248.56V249.68C305.761 250.32 306.081 251.92 306.481 253.28L307.201 255.68L308.961 254.88C310.721 254.08 312.401 251.2 312.401 248.88C312.401 247.76 313.041 247.92 313.361 249.12C313.361 249.44 313.841 250.8 314.161 252.08L314.961 254.32L316.161 252.88C316.881 252.08 317.681 250.48 318.001 249.44C318.641 247.52 319.601 246.64 319.601 248.08C319.601 249.04 322.321 252.72 322.801 252.4C323.121 252.24 323.601 250.88 324.001 249.36C324.801 246.16 326.001 244.08 326.801 244.56C327.121 244.72 327.201 245.04 327.041 245.36C326.881 245.52 327.521 247.6 328.481 249.84C329.177 251.519 329.87 253.199 330.561 254.88C330.881 255.68 331.201 255.68 333.201 253.84C334.401 252.72 335.601 251.52 335.681 251.12C335.921 250.48 336.161 250.56 337.281 251.28C339.64 252.526 342.224 253.288 344.881 253.52C345.041 253.36 345.201 251.92 345.201 250.32L345.281 247.36L346.881 247.68C347.681 247.92 349.521 247.92 350.881 247.68L353.281 247.36L351.121 245.76C349.921 244.96 348.721 243.92 348.401 243.44C348.161 242.96 347.041 242.48 345.841 242.4C342.561 242.08 336.721 238.88 336.721 237.28C336.721 236.96 337.521 237.52 338.481 238.4C340.721 240.4 343.761 241.6 346.481 241.6H348.401L347.201 240C346.346 238.76 345.798 237.334 345.601 235.84C345.441 233.44 345.201 233.12 342.721 231.44C341.283 230.421 339.944 229.269 338.721 228L337.361 226.48L336.641 228.32C336.241 229.36 335.841 230.16 335.601 230.16C335.441 230.16 334.641 229.52 334.001 228.8C333.551 228.279 333.008 227.845 332.401 227.52C332.161 227.52 331.601 228.48 330.961 229.68L329.841 231.84L329.041 230.64C328.329 229.659 327.526 228.748 326.641 227.92C325.681 227.12 325.281 226.48 325.601 226.48C325.921 226.48 326.961 227.28 328.001 228.32L329.761 230.16L330.561 228.8C331.023 227.858 331.164 226.79 330.961 225.76C330.641 224.32 330.721 224.24 331.201 225.2C331.891 226.103 332.698 226.91 333.601 227.6L335.361 229.04L336.561 226.88C337.761 224.64 337.761 224.64 338.241 226C339.041 227.68 344.241 232 348.641 234.48C349.441 234.88 349.121 233.6 347.841 230.48C347.457 229.455 347.24 228.374 347.201 227.28C347.201 225.84 346.801 225.2 344.961 223.76C343.817 223.029 342.86 222.04 342.165 220.874C341.471 219.707 341.058 218.394 340.961 217.04C340.721 215.68 340.241 214.24 339.841 213.76C339.361 212.96 339.201 213.44 339.361 215.84C339.521 217.52 339.281 219.6 338.881 220.48L338.241 222.08L337.761 220.72C337.441 220 336.161 218.72 334.961 217.92C333.761 217.12 332.881 216.32 333.041 216.16C333.201 216 334.481 216.72 335.841 217.76C338.001 219.44 338.401 219.6 338.721 218.88C339.041 218.08 338.721 214.4 338.081 211.84C337.761 210.56 337.761 210.56 339.361 212.16C340.481 213.28 341.121 214.72 341.681 217.12C342.321 220.16 342.641 220.72 345.441 223.2C347.121 224.72 348.641 225.84 348.721 225.76C348.881 225.6 349.041 221.76 349.201 217.12C349.521 208.24 349.201 206.08 347.041 203.36L345.921 201.92L347.681 200.08C349.653 198.194 350.97 195.728 351.441 193.04L351.761 190.88L349.841 192.72C348.241 194.24 347.441 194.56 345.601 194.56C343.761 194.56 343.041 194.24 341.841 192.96C339.972 191.161 337.693 189.843 335.201 189.12C334.241 188.8 333.921 188.96 333.921 189.6C333.921 190.08 333.441 191.36 332.801 192.56L331.681 194.64L329.281 192.24C327.761 190.88 326.081 189.68 324.721 189.36C321.441 188.56 321.281 188.56 321.281 191.04C321.281 194.8 319.681 195.52 316.801 193.04C314.561 191.12 312.801 190.64 308.561 191.2L305.361 191.52L305.921 192.96C306.401 194.16 306.321 194.72 305.281 196.08C303.601 198.32 301.441 199.28 298.081 199.28C296.481 199.28 294.561 199.6 293.761 200C292.961 200.4 290.881 200.8 289.201 200.96C287.601 201.12 285.761 201.44 285.201 201.6C284.401 201.92 284.401 201.6 284.641 199.84C285.041 197.12 283.041 195.04 280.081 195.04C276.161 195.04 274.401 198.56 275.921 203.2C276.232 204.201 276.499 205.216 276.721 206.24C277.772 208.241 279.182 210.03 280.881 211.52C282.961 213.6 284.881 215.76 285.201 216.32C285.845 217.154 286.664 217.837 287.601 218.32L289.361 219.28L289.121 217.36C288.881 215.28 289.281 214.96 290.401 216.48C290.801 216.96 291.841 217.84 292.641 218.32C294.001 219.12 294.241 219.12 294.241 218.48C294.241 218 294.481 216.96 294.801 216.16L295.361 214.72L296.401 216.72C296.961 217.84 298.801 220.32 300.481 222.32C303.761 226.08 305.841 230.32 304.801 231.28C304.321 231.68 303.201 231.68 300.801 231.2C299.041 230.88 296.801 230.64 295.841 230.8C294.001 231.04 293.841 230.8 295.041 229.36C296.241 227.76 296.001 227.52 293.601 227.52C290.801 227.52 283.841 226.16 281.121 225.12C278.561 224.08 277.921 224.32 277.121 226.8L275.761 231.28L274.961 233.68L277.841 233.44C279.326 233.285 280.797 233.017 282.241 232.64C282.808 232.451 283.404 232.37 284.001 232.4C284.161 232.48 283.761 233.44 283.201 234.56L282.081 236.48L283.841 236.16C284.801 235.92 286.241 235.44 287.041 235.04C288.481 234.4 288.641 234.4 289.761 236.24C291.121 238.4 292.161 238.32 292.401 236C292.641 233.6 293.441 233.92 294.961 237.12C296.401 240.16 297.841 241.28 298.161 239.52C298.241 238.88 298.961 237.92 299.841 237.28C301.601 236.08 302.881 236.48 303.601 238.32C304.401 240.32 302.641 242.32 297.681 245.36C293.088 247.896 289.135 251.449 286.126 255.748C283.117 260.046 281.132 264.976 280.321 270.16C278.801 279.6 283.521 289.36 292.801 296.48C297.281 299.84 304.401 303.36 303.921 302.08C302.001 296.24 302.081 285.28 304.001 283.44C304.321 283.12 304.241 284.24 303.761 285.92C302.161 292.24 302.961 297.2 306.961 308.88C310.481 319.44 310.001 324 304.881 326.96C303.281 327.92 302.241 328.08 297.841 328C293.041 328 292.481 328 290.961 329.28C289.123 331.157 287.92 333.563 287.521 336.16C287.521 337.2 288.641 337.04 290.721 335.84H290.801Z" fill="#FFB700"/>
<path d="M368.401 335.6L370.401 334.32L371.761 335.6C373.521 337.28 375.681 337.2 377.361 335.52C378.161 334.72 378.801 334.24 378.881 334.32L379.601 335.6C380.001 336.32 380.881 336.64 382.481 336.8C384.321 336.88 384.881 336.8 385.681 335.68L386.481 334.32L388.481 335.6C393.921 339.12 396.801 335.44 394.321 328.16C393.121 324.48 393.841 322.4 397.761 317.76C399.441 315.76 400.801 313.6 400.801 312.96C400.801 312.08 400.481 311.92 398.241 312C396.161 312 395.521 311.76 394.401 310.56C392.561 308.56 392.721 306.24 394.721 303.68L396.321 301.68L393.441 299.76C391.142 298.062 389 296.161 387.041 294.08C385.294 292.019 383.159 290.322 380.757 289.087C378.355 287.852 375.733 287.102 373.041 286.88L369.281 286.48V289.36C369.281 292.96 371.041 296.48 375.681 302.4C380.961 309.12 381.281 310.16 381.521 318.96L381.761 326.4L380.161 327.84C378.801 329.12 378.241 329.36 373.761 329.6C369.521 329.84 368.561 330.08 367.361 331.2C365.956 332.224 364.986 333.737 364.641 335.44C364.401 336.64 364.481 336.88 365.361 336.88C365.921 336.88 367.281 336.32 368.401 335.6V335.6ZM254.641 316.4C255.124 315.69 255.401 314.859 255.441 314C255.441 313.2 255.921 312.88 258.001 312.56L260.481 312.24L258.881 310.88C256.881 309.28 256.641 308.08 258.401 308.08C260.161 308.08 263.041 306.32 263.521 304.96C263.761 304.32 263.521 303.52 263.201 303.12C262.241 302 260.401 302.16 260.081 303.44C259.681 304.72 259.121 304.72 257.681 303.44C255.681 301.44 255.601 297.36 257.681 294.96C258.561 293.84 258.561 293.84 257.361 292.64C256.081 291.36 255.121 288.96 255.761 288.32C255.921 288.16 256.961 288.32 258.001 288.72C259.601 289.2 260.161 289.2 260.801 288.72C262.641 287.2 260.641 285.28 257.601 285.76C256.321 285.92 255.841 285.76 255.681 285.12C255.521 284.64 254.481 284 253.281 283.68C251.121 283.12 251.121 283.12 251.121 284.64C251.121 286.24 250.161 286.56 248.401 285.52C246.961 284.72 245.601 285.36 245.601 286.88C245.601 288.32 246.961 288.96 249.601 288.8C251.521 288.72 251.601 290.16 249.761 292.24L248.401 293.84L249.441 295.36C251.041 297.6 250.881 301.36 249.201 303.28L247.841 304.72L246.961 303.52C245.681 301.92 244.001 302 243.521 303.76C243.281 304.88 243.521 305.36 244.961 306.64C245.921 307.44 247.361 308.08 248.081 308.08C249.921 308.08 249.841 309.6 247.921 311.04L246.321 312.24L248.721 312.56C250.001 312.8 251.121 313.12 251.121 313.36C251.121 314.4 252.721 317.52 253.201 317.52C253.521 317.52 254.161 316.96 254.641 316.32V316.4Z" fill="#FFB700"/>
<path d="M285.201 303.12C287.361 302.32 292.001 298.32 292.001 297.44C292.001 297.12 290.721 295.68 289.121 294.24C285.921 291.36 282.321 286.32 281.361 283.44C280.881 281.84 278.561 279.28 272.001 272.88L263.281 264.48L260.801 265.12C259.361 265.44 257.681 265.76 257.041 265.76C255.841 265.76 255.841 265.76 257.441 267.04L259.041 268.32L261.441 267.04C263.601 265.76 263.681 265.76 263.921 266.8C264.081 267.36 263.761 268.4 263.121 269.12C262.561 269.84 262.241 270.72 262.321 270.96C262.561 271.2 262.001 271.76 261.121 272.24C259.521 273.04 258.321 275.68 259.601 275.68C260.801 275.68 263.361 272.48 263.041 271.44C262.881 270.88 263.041 270.32 263.201 270.16C264.241 269.6 264.161 272.08 263.201 273.36C262.561 274 262.241 274.8 262.401 275.12C262.561 275.36 262.001 275.92 261.121 276.4C259.521 277.2 258.321 279.84 259.601 279.84C260.881 279.84 263.361 276.8 263.121 275.68C262.961 275.12 262.961 274.48 263.201 274.32C263.921 274 264.241 275.92 263.681 276.88C263.534 277.15 263.457 277.453 263.457 277.76C263.457 278.068 263.534 278.37 263.681 278.64C264.241 279.68 263.681 281.6 262.641 282.24C262.241 282.48 262.481 283.04 263.601 283.84C265.201 284.96 265.201 285.12 265.201 290.24C265.201 294.56 265.361 295.68 266.161 296.4C266.961 297.2 267.121 297.2 267.121 296.4C267.121 295.6 268.721 294.48 269.921 294.48C270.321 294.48 272.641 296.48 275.121 298.88C277.601 301.28 280.241 303.44 280.961 303.52L282.721 303.84C282.961 303.84 284.081 303.6 285.201 303.04V303.12ZM258.561 282.24C258.561 280.88 255.681 279.36 252.241 279.04C249.441 278.64 249.441 278.72 249.441 280.08C249.441 281.2 249.841 281.68 251.841 282.48C254.881 283.84 258.561 283.68 258.561 282.24Z" fill="#FFB700"/>
<path d="M261.681 282.081C263.121 280.801 263.761 279.361 262.881 279.361C261.921 279.361 259.361 281.601 259.361 282.561C259.361 283.841 259.841 283.761 261.761 282.081H261.681ZM258.721 278.001C258.801 277.201 258.321 276.721 256.881 276.001C253.681 274.641 250.001 273.921 249.121 274.641C247.441 276.001 248.561 277.761 251.201 278.081C252.321 278.161 253.761 278.481 254.481 278.801C256.561 279.601 258.481 279.201 258.721 278.001V278.001ZM258.721 273.761C258.881 272.721 258.161 272.321 252.321 270.241C247.921 268.641 246.001 269.441 247.441 272.081C247.921 272.961 248.721 273.361 250.561 273.681C251.921 273.841 253.761 274.241 254.641 274.561C257.041 275.361 258.481 275.041 258.641 273.761H258.721ZM261.601 269.841C262.481 268.961 263.201 267.921 263.201 267.441C263.201 266.241 259.761 268.481 259.281 270.081C258.801 271.921 259.681 271.841 261.681 269.841H261.601ZM258.721 269.601C258.881 268.321 256.801 267.201 252.641 266.321C249.521 265.601 248.161 266.001 248.401 267.441C248.561 268.241 249.601 268.801 252.401 269.681C257.121 271.121 258.481 271.121 258.721 269.601V269.601ZM262.721 263.681C268.161 261.281 268.561 255.281 263.521 253.681C261.441 253.041 260.161 253.441 259.361 254.801C258.721 255.921 259.121 257.841 259.921 257.841C260.241 257.841 260.481 258.241 260.481 258.641C260.481 260.801 252.321 261.681 248.961 260.001C247.761 259.441 247.361 257.841 248.241 257.841C249.041 257.841 249.521 256.241 249.121 255.201C248.641 253.601 247.041 253.121 244.881 253.761C239.841 255.041 240.001 260.961 245.121 263.361C250.785 265.44 256.985 265.552 262.721 263.681V263.681Z" fill="#FFB700"/>
<path d="M259.44 259.04C259.76 258.72 259.6 258.24 259.12 257.92C258 257.04 258.08 255.68 259.28 254.16C260.24 253.04 260.32 251.28 260.64 234.08C261.2 204.4 263.44 182.08 266.32 176.64C267.52 174.56 267.36 174.56 264.32 176.64C260.332 179.419 257.112 183.162 254.96 187.52C250 196.72 248.32 209.12 248.32 235.68C248.32 250.72 248.4 252.72 249.28 254.08C250.08 255.52 250.08 256 249.6 257.44C249.2 258.32 249.04 259.28 249.2 259.44C250.32 260.48 258.32 260.24 259.44 259.04ZM304.32 230.72C304.56 230.48 304.16 229.12 303.52 227.84C302.56 225.76 302.16 225.44 300.8 225.44C294.403 224.884 288.165 223.148 282.4 220.32C278.32 218.48 276.8 218.08 276.4 218.56C275.12 219.76 277.2 222.56 280.4 224.08C285.109 225.777 290.042 226.774 295.04 227.04C297.2 227.04 297.28 227.04 296 228.88L295.2 230.16H297.6L301.6 230.64C304 231.2 304 231.2 304.32 230.72V230.72Z" fill="#FFB700"/>
<path d="M329.601 244.08C329.601 243.28 327.281 241.28 325.041 239.92C323.201 238.88 322.881 238.8 322.881 239.68C322.881 240.96 321.761 244.24 321.281 244.24C321.041 244.24 320.641 243.6 320.481 242.88C320.241 242.08 319.361 240.48 318.481 239.44L316.881 237.44L315.761 239.28C314.641 241.04 312.641 242.72 311.761 242.72C311.601 242.72 311.521 241.76 311.761 240.72C311.841 239.44 311.761 238.48 311.361 238.32C311.041 238.08 310.721 238.16 310.721 238.48C310.721 239.12 308.001 242.16 307.521 242.16C307.201 242.16 306.881 241.36 306.721 240.24L306.081 236.4C305.921 235.44 306.321 236.08 306.881 238L308.161 241.28L309.441 239.28C310.021 238.454 310.454 237.534 310.721 236.56C310.721 236.16 310.961 236 311.281 236.16C311.601 236.32 312.001 237.68 312.161 239.12L312.561 241.84L314.001 240.24C314.755 239.438 315.45 238.582 316.081 237.68C316.641 236.72 316.721 236.72 317.921 237.68C318.561 238.32 319.601 239.68 320.241 240.8C320.881 241.92 321.441 242.72 321.521 242.64L322.001 240.08L322.321 237.68C322.401 237.28 326.641 240.08 328.241 241.44C329.201 242.32 330.161 242.96 330.321 242.8C330.481 242.64 330.641 241.36 330.641 239.84C330.641 237.6 330.401 236.96 329.041 235.76C327.441 234.32 327.441 234.32 326.801 235.36C326.001 236.72 325.121 236.72 325.121 235.36C325.121 234.4 322.081 230.64 321.361 230.64C321.121 230.64 320.481 231.44 319.921 232.48C319.361 233.52 318.721 234.32 318.561 234.32C317.761 234.32 313.521 229.52 313.521 228.72C313.521 228.08 313.841 228.24 314.561 229.36C315.276 230.411 316.108 231.377 317.041 232.24C318.641 233.68 319.281 233.36 319.921 230.56C320.161 229.76 320.481 229.12 320.721 229.12C321.361 229.12 325.041 233.04 325.521 234.32L326.081 235.6L326.481 234.16C326.961 232.4 327.521 232.4 328.321 234C328.641 234.64 330.241 236.08 331.841 237.04L334.801 238.96L335.361 237.04C335.681 236 336.161 235.44 336.321 235.76C336.641 236.16 335.841 239.36 335.281 240C335.281 240.08 334.241 239.52 333.201 238.8L331.201 237.36V239.92C331.201 241.28 331.041 242.96 330.881 243.6C330.481 244.88 329.521 245.2 329.521 244.08H329.601ZM314.801 223.76C311.281 220.88 310.801 220.24 310.801 218.8L310.881 217.36L311.121 218.72C311.281 219.52 312.241 220.8 313.361 221.76L315.441 223.36L316.641 221.92C317.361 221.12 317.921 220.16 317.921 219.84C317.921 218.88 318.081 218.96 320.481 221.04C322.561 222.88 322.641 222.88 322.881 221.68C323.121 221.04 323.041 219.76 322.881 218.88C322.081 216.48 322.241 216.16 323.281 217.6L325.201 219.84C326.001 220.72 326.081 220.72 326.401 219.6C326.641 218.88 326.801 217.68 326.801 216.88V215.36L328.641 217.52C330.481 219.6 330.641 219.68 331.121 218.64C331.521 218.08 331.761 216.72 331.761 215.68C331.761 214.24 331.921 213.92 332.241 214.4C332.881 215.36 332.481 217.76 331.361 219.84L330.561 221.44L329.521 219.76C328.161 217.68 327.681 217.68 326.881 219.92C326.081 222.08 325.521 222.24 324.721 220.56C324.241 219.52 324.081 219.68 323.761 221.92L323.361 224.32L320.961 222.48L318.561 220.64L317.361 221.84C316.801 222.56 316.321 223.44 316.321 223.76C316.321 224.56 315.681 224.56 314.801 223.76V223.76ZM346.001 212.88C344.801 211.76 343.921 210.64 344.081 210.48C344.321 210.24 344.481 210.16 344.561 210.32C345.336 211.145 346.136 211.946 346.961 212.72C349.681 215.6 349.121 215.68 346.081 212.88H346.001ZM304.401 208.56C303.281 206.96 303.361 206 304.801 204.24C305.761 203.04 306.241 202.88 308.001 203.12C309.201 203.2 311.681 204.24 313.521 205.36C316.18 206.949 319.224 207.779 322.321 207.76L320.961 205.52C319.201 202.88 319.201 202.56 321.281 204.16C323.361 205.84 325.841 206.32 331.441 206.16L334.161 206.08L332.561 204.48C330.401 202.32 331.041 202.08 333.521 204.24C335.761 206.24 335.681 206.4 330.801 206.88C328.766 207.086 326.712 206.951 324.721 206.48C322.001 205.68 321.841 205.76 322.401 206.64C322.721 207.2 323.201 207.6 323.441 207.6C323.761 207.6 324.001 207.92 324.001 208.24C324.001 209.28 318.081 208.32 315.201 206.96C308.801 203.68 308.001 203.36 306.401 203.84C305.975 204.004 305.586 204.251 305.256 204.567C304.927 204.883 304.663 205.262 304.481 205.68C303.441 208.32 307.201 210.4 308.721 208.08C309.201 207.36 309.121 206.96 308.321 206.08C307.201 204.96 307.361 204.8 308.801 205.28C309.841 205.68 309.921 208.16 308.961 209.12C307.921 210.16 305.361 209.92 304.401 208.56Z" fill="black"/>
<path d="M329.922 202.08C329.122 201.28 329.762 201.12 333.362 201.04C337.842 200.96 340.562 200.24 343.762 198.16C346.322 196.56 347.042 196.88 344.562 198.56C342.402 200.16 338.962 201.28 335.522 201.6L331.442 202.16C330.802 202.32 330.082 202.24 329.842 202.08H329.922Z" fill="black"/>
</svg>
