<svg width="24" height="24" viewBox="0 0 24 24" fill="none" xmlns="http://www.w3.org/2000/svg">
<g clip-path="url(#clip0_18_4995)">
<path d="M17.2174 1.19072C15.6397 0.427875 13.8698 0 12 0C10.1302 0 8.36025 0.427875 6.78262 1.19072L5.73914 12L6.78262 22.8093C8.36025 23.5721 10.1302 24 12 24C13.8698 24 15.6397 23.5721 17.2174 22.8093L18.2609 12L17.2174 1.19072Z" fill="#FFDA44"/>
<path d="M6.78263 1.19113C2.76872 3.13208 0 7.24251 0 12C0 16.7575 2.76872 20.8679 6.78263 22.8088V1.19113Z" fill="#0052B4"/>
<path d="M17.2174 1.19113V22.8088C21.2313 20.8679 24 16.7575 24 12C24 7.24251 21.2313 3.13208 17.2174 1.19113Z" fill="#D80027"/>
<path d="M16.1739 9.44152H13.3043C13.3043 8.72115 12.7204 8.13718 12 8.13718C11.2796 8.13718 10.6957 8.72115 10.6957 9.44152H7.82611C7.82611 10.1508 8.44397 10.7257 9.15314 10.7257H9.11039C9.11039 11.435 9.68536 12.01 10.3947 12.01C10.3947 12.638 10.8457 13.1598 11.4414 13.2714L10.4294 15.5562C10.9143 15.7533 11.4443 15.8628 12 15.8628C12.5557 15.8628 13.0857 15.7533 13.5706 15.5562L12.5586 13.2714C13.1543 13.1598 13.6053 12.638 13.6053 12.01C14.3146 12.01 14.8896 11.435 14.8896 10.7257H14.8468C15.5561 10.7257 16.1739 10.1507 16.1739 9.44152Z" fill="#FF9811"/>
<path d="M12 11.2174L10.3043 12V13.5652L12 14.6087L13.6957 13.5652V12L12 11.2174Z" fill="#0052B4"/>
<path d="M10.3043 10.4348H13.6957V12H10.3043V10.4348Z" fill="#D80027"/>
</g>
<defs>
<clipPath id="clip0_18_4995">
<rect width="24" height="24" fill="white"/>
</clipPath>
</defs>
</svg>
