<svg width="24" height="24" viewBox="0 0 24 24" fill="none" xmlns="http://www.w3.org/2000/svg">
<g clip-path="url(#clip0_18_5064)">
<path d="M12 24C18.6274 24 24 18.6274 24 12C24 9.98611 23.5031 8.08847 22.6265 6.42188L11.9859 12.0141L17.5781 1.37353C15.9115 0.496875 14.0139 0 12 0C5.37262 0 0 5.37262 0 12C0 15.3137 1.34316 18.3137 3.51469 20.4853C5.68627 22.6569 8.68627 24 12 24Z" fill="#0052B4"/>
<path d="M22.6138 6.43496C22.0645 5.38946 21.3504 4.40785 20.4713 3.52875C19.5922 2.64966 18.6107 1.93552 17.5651 1.38628L3.50067 20.4993L22.6138 6.43496Z" fill="#F0F0F0"/>
<path d="M3.50067 20.4993L22.6138 6.43495C22.0645 5.38945 21.3504 4.40784 20.4713 3.52875L3.50067 20.4993Z" fill="#FF9811"/>
<path d="M10.4207 7.03697L8.95519 7.72631L9.73561 9.14569L8.1442 8.84123L7.94255 10.4489L6.83405 9.26644L5.72555 10.4489L5.52398 8.84123L3.93258 9.14559L4.71291 7.72626L3.24741 7.03697L4.71295 6.34758L3.93258 4.9283L5.52389 5.23266L5.72559 3.62503L6.83405 4.80745L7.94255 3.62503L8.1442 5.23266L9.73566 4.9283L8.95523 6.34762L10.4207 7.03697Z" fill="#F0F0F0"/>
</g>
<defs>
<clipPath id="clip0_18_5064">
<rect width="24" height="24" fill="white"/>
</clipPath>
</defs>
</svg>
