<svg width="24" height="24" viewBox="0 0 24 24" fill="none" xmlns="http://www.w3.org/2000/svg">
<g clip-path="url(#clip0_18_4804)">
<path d="M12 24C18.6274 24 24 18.6274 24 12C24 5.37258 18.6274 0 12 0C5.37258 0 0 5.37258 0 12C0 18.6274 5.37258 24 12 24Z" fill="#338AF3"/>
<path d="M11.6217 19.5558C11.2982 19.5401 11.0306 19.3299 10.9257 19.0445C10.7405 19.286 10.4222 19.4076 10.1087 19.3267C9.79458 19.2459 9.57497 18.986 9.52955 18.6845C9.29892 18.8837 8.96292 18.938 8.67234 18.7956C8.3812 18.6526 8.21845 18.3536 8.23514 18.0494C7.96959 18.1986 7.62942 18.1841 7.37325 17.9858C7.11759 17.7875 7.01794 17.4625 7.09514 17.1677C6.80503 17.2605 6.47531 17.1781 6.264 16.9324C6.05269 16.6872 6.0203 16.3485 6.15497 16.0757C5.85234 16.108 5.54559 15.9609 5.388 15.6781C5.22989 15.3953 5.26645 15.0567 5.45372 14.8161C5.15058 14.7869 4.87927 14.5808 4.78223 14.272C4.68469 13.9631 4.78903 13.6386 5.0212 13.4408C4.73006 13.351 4.50675 13.0943 4.47389 12.7725C4.44103 12.4506 4.608 12.1548 4.87458 12.0076C4.60795 11.8615 4.43995 11.5657 4.47178 11.2443H4.4723C4.50412 10.9219 4.72744 10.6647 5.01802 10.5739C4.78584 10.3767 4.68047 10.0527 4.77698 9.74375C4.8735 9.43437 5.14425 9.22775 5.44744 9.19747C5.26012 8.95747 5.22258 8.61879 5.37961 8.33558C5.53664 8.05278 5.84344 7.90512 6.14658 7.93695C6.01092 7.66409 6.04275 7.32547 6.25355 7.07923C6.46383 6.83351 6.79355 6.75054 7.08417 6.84237C7.00589 6.54809 7.10503 6.22254 7.36069 6.02379C7.61583 5.82495 7.956 5.80981 8.22155 5.95798C8.20434 5.65386 8.36658 5.35484 8.6572 5.21136C8.94731 5.06839 9.28383 5.12164 9.51492 5.3209C9.55927 5.0194 9.77892 4.75854 10.0925 4.67708C10.4055 4.5957 10.7238 4.71622 10.9095 4.95725C11.0144 4.67187 11.2815 4.46108 11.605 4.4449C11.928 4.42826 12.2149 4.60976 12.3485 4.88272C12.5081 4.62392 12.8118 4.47054 13.1316 4.51906C13.452 4.56706 13.6977 4.80284 13.7739 5.09769C13.9826 4.87536 14.3113 4.78723 14.6149 4.89884C14.9191 5.01101 15.1121 5.2917 15.1267 5.59639C15.3756 5.42112 15.7158 5.40073 15.9907 5.57187C16.2657 5.7425 16.3977 6.05604 16.3507 6.35708C16.6299 6.23553 16.9669 6.28404 17.2017 6.50628C17.4365 6.72908 17.5033 7.06245 17.3969 7.34783C17.6947 7.28469 18.0151 7.39948 18.2009 7.66503C18.3866 7.93006 18.385 8.27023 18.2238 8.52851C18.528 8.5264 18.8186 8.70383 18.9475 9.00069C19.0758 9.29806 19.0054 9.63148 18.7951 9.85217C19.0941 9.91165 19.343 10.1438 19.4087 10.461C19.4739 10.7782 19.3377 11.0897 19.0878 11.2635C19.3675 11.382 19.5647 11.659 19.5652 11.9825V11.9929V11.9997C19.5652 12.3231 19.369 12.6007 19.0894 12.7202C19.3398 12.893 19.477 13.2044 19.4118 13.5216C19.3471 13.8388 19.0988 14.0715 18.7998 14.132C19.0106 14.3522 19.0821 14.6851 18.9543 14.983C18.8265 15.2804 18.5358 15.4583 18.2311 15.4567C18.3929 15.715 18.3955 16.0552 18.2103 16.3207C18.0251 16.5864 17.7052 16.7022 17.4073 16.6395C17.5143 16.9244 17.448 17.2583 17.2138 17.4816C16.979 17.7045 16.6425 17.7535 16.3633 17.633C16.4108 17.9335 16.2793 18.2476 16.0049 18.4192C15.7304 18.5909 15.3902 18.571 15.1409 18.3963C15.1267 18.701 14.9348 18.9822 14.6311 19.0949C14.3275 19.2076 14.6311 19.0949 14.6306 19.0949C14.327 19.2071 13.9983 19.1195 13.7891 18.8977C13.7139 19.193 13.4687 19.4293 13.1484 19.4784C12.8286 19.5269 12.5244 19.3746 12.3642 19.1158C12.2369 19.3782 11.9677 19.5567 11.6609 19.5567C11.6478 19.5568 11.6348 19.5563 11.6217 19.5558Z" fill="#F3F3F3"/>
<path d="M12 17.2174C14.8815 17.2174 17.2174 14.8815 17.2174 12C17.2174 9.11852 14.8815 6.78262 12 6.78262C9.11852 6.78262 6.78262 9.11852 6.78262 12C6.78262 14.8815 9.11852 17.2174 12 17.2174Z" fill="#338AF3"/>
<path d="M13.142 10.229C13.3983 10.0389 13.5652 9.735 13.5652 9.39131V8.8696C13.5652 8.29327 13.0981 7.82611 12.5217 7.82611H11.4783C10.902 7.82611 10.4348 8.29327 10.4348 8.8696V9.39131C10.4348 9.735 10.6017 10.0389 10.858 10.229L9.91309 19.8261C9.91309 19.8261 10.4348 20.3479 12.0001 20.3479C13.5653 20.3479 14.087 19.8261 14.087 19.8261L13.142 10.229Z" fill="#BDBCC1"/>
<path d="M11.9999 7.82611L12.9064 10.616H15.8401L13.4668 12.3405L14.3732 15.1305L11.9999 13.4062L9.62657 15.1305L10.5332 12.3405L8.15985 10.616H11.0934L11.9999 7.82611Z" fill="#F0F0F0"/>
</g>
<defs>
<clipPath id="clip0_18_4804">
<rect width="24" height="24" fill="white"/>
</clipPath>
</defs>
</svg>
