<svg width="512" height="512" viewBox="0 0 512 512" fill="none" xmlns="http://www.w3.org/2000/svg">
<path fill-rule="evenodd" clip-rule="evenodd" d="M256 0H512V512H256V0Z" fill="#CE0000"/>
<path fill-rule="evenodd" clip-rule="evenodd" d="M0 0H256V512H0V0Z" fill="white"/>
<path fill-rule="evenodd" clip-rule="evenodd" d="M104.793 108.107C104.793 108.912 103.883 109.577 102.763 109.577C101.607 109.577 100.697 108.877 100.697 108.107C100.697 107.302 101.607 106.637 102.728 106.637C103.848 106.637 104.828 107.302 104.828 108.107H104.793Z" fill="#F1EEEE"/>
<path fill-rule="evenodd" clip-rule="evenodd" d="M40.6992 101.002V138.21H77.9445C78.1571 141.43 79.53 144.463 81.8086 146.748C84.0872 149.033 87.117 150.414 90.3363 150.636V187.844H127.547V150.636C130.766 150.414 133.796 149.033 136.074 146.748C138.353 144.463 139.726 141.43 139.938 138.21H177.149V101.002H139.938C139.718 97.788 138.341 94.7629 136.063 92.4853C133.786 90.2076 130.76 88.8312 127.547 88.6105V51.4023H90.3363V88.6105C87.1226 88.8312 84.0973 90.2076 81.8195 92.4853C79.5417 94.7629 78.1652 97.788 77.9445 101.002H40.6992Z" fill="#CC0000"/>
<path fill-rule="evenodd" clip-rule="evenodd" d="M41.959 102.261V136.984H79.1693C79.39 140.198 80.7664 143.223 83.0442 145.501C85.3221 147.778 88.3473 149.155 91.5611 149.375V186.618H126.286V149.375C129.506 149.163 132.54 147.79 134.825 145.511C137.11 143.233 138.491 140.203 138.713 136.984H175.923V102.261H138.713C138.499 99.0358 137.121 95.9978 134.836 93.7121C132.55 91.4264 129.512 90.0487 126.286 89.8351V52.627H91.5611V89.8351C88.3479 90.0649 85.3266 91.4498 83.0552 93.7339C80.7838 96.018 79.4159 99.047 79.2043 102.261H41.959Z" fill="#FFE600"/>
<path fill-rule="evenodd" clip-rule="evenodd" d="M43.1504 103.486V135.724H80.3607C80.5742 138.949 81.952 141.987 84.2379 144.273C86.5237 146.559 89.5619 147.936 92.7875 148.15V185.358H125.027V148.115C128.246 147.893 131.276 146.512 133.555 144.227C135.833 141.942 137.206 138.909 137.419 135.689H174.629V103.486H137.419C137.207 100.272 135.839 97.2428 133.568 94.9587C131.297 92.6746 128.275 91.2897 125.062 91.0599V53.8867H92.8225V91.0599C89.6025 91.2725 86.5688 92.6452 84.2838 94.9237C81.9988 97.2022 80.6174 100.232 80.3957 103.451H43.1504V103.486Z" fill="#707070"/>
<path fill-rule="evenodd" clip-rule="evenodd" d="M44.4102 104.713V134.465H81.6205C81.8331 137.685 83.2059 140.718 85.4845 143.003C87.7631 145.288 90.7929 146.669 94.0122 146.891V184.099H123.766V146.891C126.986 146.679 130.02 145.306 132.305 143.027C134.59 140.749 135.972 137.719 136.193 134.5H173.369V104.748H136.193C135.981 101.528 134.608 98.4942 132.329 96.2093C130.051 93.9244 127.021 92.5431 123.801 92.3215V55.1133H94.0472V92.3215C90.8273 92.5341 87.7936 93.9068 85.5086 96.1853C83.2235 98.4637 81.8421 101.493 81.6205 104.713H44.4102Z" fill="#A0A0A0"/>
<path fill-rule="evenodd" clip-rule="evenodd" d="M94.3268 89.2411C96.5321 91.4463 94.7469 96.7317 90.4063 101.107C86.0656 105.482 80.7449 107.233 78.5396 105.027C76.3693 102.857 78.1545 97.5718 82.4951 93.1964C86.8358 88.8211 92.1565 87.0709 94.3268 89.2411V89.2411Z" fill="#D0D0D0"/>
<path fill-rule="evenodd" clip-rule="evenodd" d="M91.7008 91.8669C93.9061 94.072 93.3111 98.1674 90.4056 101.073C87.5002 103.978 83.3696 104.573 81.1993 102.403C78.994 100.233 79.5891 96.1022 82.4945 93.197C85.3999 90.2917 89.5305 89.6967 91.7008 91.8669V91.8669Z" fill="#808080"/>
<path fill-rule="evenodd" clip-rule="evenodd" d="M80.7441 98.4478L81.6193 97.5727L85.1198 99.3229L83.3695 95.8226L84.2446 94.9475L87.7451 101.948L80.7441 98.4478ZM85.9949 93.1973L86.87 92.3223L92.1208 97.5727L91.2806 98.4478L85.9949 93.1973Z" fill="#D0D0D0"/>
<path fill-rule="evenodd" clip-rule="evenodd" d="M139.274 105.062C137.104 107.232 131.783 105.447 127.442 101.107C123.102 96.7663 121.317 91.4459 123.487 89.2407C125.692 87.0705 130.978 88.8557 135.319 93.196C139.659 97.5364 141.444 102.857 139.274 105.027V105.062Z" fill="#D0D0D0"/>
<path fill-rule="evenodd" clip-rule="evenodd" d="M136.65 102.402C134.479 104.572 130.349 104.012 127.443 101.107C124.538 98.2016 123.943 94.0712 126.113 91.901C128.283 89.7309 132.414 90.2909 135.319 93.1962C138.225 96.1014 138.82 100.197 136.65 102.402Z" fill="#808080"/>
<path fill-rule="evenodd" clip-rule="evenodd" d="M130.067 91.4102L130.942 92.3202L129.192 95.8205L132.692 94.0704L133.567 94.9455L126.566 98.4458L130.067 91.4452V91.4102ZM135.318 96.6956L136.193 97.5707L130.942 102.821L130.067 101.981L135.318 96.6956Z" fill="#D0D0D0"/>
<path fill-rule="evenodd" clip-rule="evenodd" d="M123.487 149.97C121.317 147.8 123.102 142.48 127.442 138.139C131.783 133.799 137.104 132.014 139.274 134.184C141.444 136.354 139.694 141.675 135.319 146.015C130.943 150.355 125.692 152.141 123.487 149.97Z" fill="#D0D0D0"/>
<path fill-rule="evenodd" clip-rule="evenodd" d="M126.113 147.346C123.943 145.176 124.538 141.046 127.443 138.14C130.349 135.235 134.444 134.64 136.65 136.81C138.82 139.015 138.225 143.111 135.319 146.016C132.414 148.921 128.318 149.516 126.113 147.346Z" fill="#808080"/>
<path fill-rule="evenodd" clip-rule="evenodd" d="M137.103 140.764L136.228 141.639L132.727 139.889L134.478 143.389L133.568 144.264L130.067 137.264L137.068 140.764H137.103ZM131.852 146.014L130.942 146.889L125.691 141.639L126.567 140.764L131.852 146.014Z" fill="#D0D0D0"/>
<path fill-rule="evenodd" clip-rule="evenodd" d="M78.5743 134.184C80.7446 132.014 86.0303 133.764 90.406 138.14C94.7816 142.515 96.5318 147.801 94.3615 149.971C92.1562 152.141 86.8705 150.391 82.4948 146.015C78.1192 141.64 76.369 136.355 78.5743 134.184Z" fill="#D0D0D0"/>
<path fill-rule="evenodd" clip-rule="evenodd" d="M81.1993 136.81C83.3696 134.64 87.5002 135.235 90.4056 138.14C93.3111 141.046 93.9061 145.141 91.7008 147.346C89.5305 149.516 85.3999 148.921 82.4945 146.016C79.5891 143.111 78.994 139.015 81.1993 136.81V136.81Z" fill="#808080"/>
<path fill-rule="evenodd" clip-rule="evenodd" d="M87.745 147.767L86.8699 146.892L88.6201 143.391L85.1196 145.141L84.2445 144.266L91.2455 140.766L87.745 147.767ZM82.4943 142.516L81.6191 141.641L86.8699 136.391L87.745 137.266L82.4943 142.516Z" fill="#D0D0D0"/>
<path d="M134.981 119.622C134.981 133.974 123.322 145.665 108.927 145.665C94.5331 145.665 82.9082 134.009 82.9082 119.622C82.9082 105.236 94.5673 93.5801 108.962 93.5801C123.356 93.5801 135.015 105.236 135.015 119.622H134.981Z" stroke="#707070" stroke-width="0.345945"/>
<path d="M128.776 119.617C128.776 130.551 119.893 139.459 108.926 139.459C97.9587 139.459 89.1016 130.578 89.1016 119.617C89.1016 108.656 97.9847 99.7754 108.952 99.7754C119.919 99.7754 128.802 108.656 128.802 119.617H128.776Z" stroke="#707070" stroke-width="0.263578"/>
<path fill-rule="evenodd" clip-rule="evenodd" d="M100.208 140.696C100.208 141.021 100.079 141.332 99.8493 141.562C99.6196 141.792 99.3079 141.921 98.983 141.921C98.6581 141.921 98.3464 141.792 98.1167 141.562C97.8869 141.332 97.7578 141.021 97.7578 140.696C97.7578 140.371 97.8869 140.059 98.1167 139.83C98.3464 139.6 98.6581 139.471 98.983 139.471C99.3079 139.471 99.6196 139.6 99.8493 139.83C100.079 140.059 100.208 140.371 100.208 140.696ZM120.091 140.696C120.091 141.025 119.96 141.341 119.727 141.574C119.494 141.808 119.178 141.938 118.848 141.938C118.519 141.938 118.203 141.808 117.97 141.574C117.737 141.341 117.606 141.025 117.606 140.696C117.606 140.371 117.735 140.059 117.964 139.83C118.194 139.6 118.506 139.471 118.831 139.471C119.156 139.471 119.467 139.6 119.697 139.83C119.927 140.059 120.056 140.371 120.056 140.696H120.091ZM108.084 140.696V141.991H106.439C104.794 141.991 104.794 143.286 106.439 143.286H108.084V144.581C108.084 145.911 109.554 146.086 109.66 144.686L109.765 143.286H111.41C113.055 143.286 113.055 141.991 111.41 141.991H109.765V140.696C109.765 139.401 108.084 139.401 108.084 140.696Z" fill="#D0D0D0"/>
<path fill-rule="evenodd" clip-rule="evenodd" d="M102.759 122.381V123.105C102.759 123.105 102.377 123.674 99.8912 123.85C97.4052 124.026 97.0236 123.85 97.0236 123.85C97.093 124.481 97.5671 125.702 97.4283 127.15C97.5324 128.826 96.9658 130.357 96.9658 130.357C97.0236 130.44 96.7346 130.492 96.2027 130.44C96.6189 130.078 96.5611 129.012 96.6189 127.512C96.6652 126.002 95.0464 123.736 95.3817 123.115C95.717 122.495 102.759 122.381 102.759 122.381V122.381Z" fill="#D0D0D0" stroke="#707070" stroke-width="0.109372"/>
<path fill-rule="evenodd" clip-rule="evenodd" d="M112.568 119.718C114.985 119.604 119.032 119.625 119.032 119.625C119.032 119.625 119.991 121.538 119.945 122.594C119.899 123.649 119.575 124.559 119.136 124.104C118.696 123.649 119.332 123.742 119.413 122.594C119.494 121.456 118.65 120.276 118.65 120.276C118.65 120.276 116.916 121.032 114.314 120.876C111.712 120.721 112.869 119.759 112.58 119.718H112.568Z" fill="#D0D0D0" stroke="#707070" stroke-width="0.109372"/>
<path fill-rule="evenodd" clip-rule="evenodd" d="M113.414 121.612C115.831 121.488 117.415 121.861 117.415 121.861C117.415 121.861 118.363 123.774 118.329 124.83C118.294 125.885 117.959 126.795 117.508 126.34C117.057 125.885 117.716 125.978 117.797 124.83C117.878 123.692 117.022 122.502 117.022 122.502C117.022 122.502 115.288 123.257 112.697 123.112C110.096 122.957 110.836 122.802 110.547 122.761C110.258 122.719 110.177 123.485 106.245 123.588C102.314 123.692 100.302 122.761 100.302 122.761C100.302 122.761 99.9089 123.319 97.4345 123.485C94.96 123.65 94.5669 123.485 94.5669 123.485C94.6247 124.126 95.1103 125.347 94.9716 126.795C95.0641 128.471 94.5091 130.002 94.5091 130.002C94.5669 130.085 94.2663 130.137 93.7459 130.085C94.1506 129.723 94.1044 128.658 94.1506 127.157C94.1969 125.647 92.5896 123.371 92.925 122.75C93.2603 122.13 95.041 122.709 95.3879 122.378C95.7232 122.057 93.7922 119.76 94.1506 117.619C94.5206 115.467 96.5557 116.067 99.0764 116.15C101.586 116.222 107.147 116.874 108.5 116.15C109.841 115.426 109.252 112.736 110.535 111.018C110.894 110.541 111.385 110.154 111.961 109.897C112.536 109.639 113.176 109.52 113.819 109.549C114.628 109.549 115.866 112.488 115.866 113.212L115.461 113.584H115.045V113.946C114.12 114.05 113.981 113.15 113.414 112.488C113.16 113.522 114.224 116.884 114.224 119.078C114.224 120.919 113.461 121.726 113.414 121.592V121.612Z" fill="#D0D0D0" stroke="#707070" stroke-width="0.109372"/>
<path fill-rule="evenodd" clip-rule="evenodd" d="M105.507 118.415C105.554 119.139 102.351 120.784 102.085 121.436C101.819 122.088 102.894 122.439 102.57 122.812C102.235 123.184 101.969 123.039 101.9 123.112C101.83 123.184 100.697 120.567 100.697 120.567C100.697 120.567 103.703 119.222 103.588 118.632C103.472 118.042 101.368 117.701 100.975 116.222C100.593 114.753 100.813 111.908 100.501 111.308C100.188 110.718 96.4883 110.149 96.4883 109.249C96.4883 108.349 100.304 105.887 100.697 105.524C101.102 105.152 101.507 105.887 101.102 106.249C100.697 106.621 97.7255 108.887 97.7255 109.249C97.7255 109.621 100.188 109.983 101.009 109.983C101.819 109.983 102.235 109.621 102.235 109.259C102.235 108.938 101.426 108.887 101.426 108.152C101.426 107.418 101.83 107.056 102.651 107.056C103.056 107.056 103.842 107.521 103.877 108.152C103.912 108.773 103.148 108.835 103.056 109.249C102.963 109.663 103.865 109.983 104.698 109.983C105.507 109.983 108.317 112.115 108.722 112.487C109.126 112.849 109.531 112.849 109.126 113.211C108.722 113.584 108.965 114.018 108.548 113.646C108.201 113.294 108.144 112.921 108.144 112.921C108.109 112.58 105.103 111.08 104.698 111.452C104.282 111.815 104.698 116.211 104.698 116.584C104.698 117.308 105.542 117.308 105.507 118.415Z" fill="#D0D0D0" stroke="#707070" stroke-width="0.109372"/>
<path fill-rule="evenodd" clip-rule="evenodd" d="M100.277 109.928H105.178V115.073H100.277V109.928Z" fill="#A7A7A7"/>
<path d="M116.19 128.408L99.7132 103.676C99.5739 103.466 99.3849 103.337 99.2911 103.387C99.1972 103.438 99.2341 103.648 99.3735 103.857L115.85 128.589C115.989 128.798 116.178 128.927 116.272 128.877C116.366 128.827 116.329 128.617 116.19 128.408Z" fill="#808080"/>
<path fill-rule="evenodd" clip-rule="evenodd" d="M101.499 105.889C101.499 106.084 101.413 106.27 101.259 106.408C101.105 106.546 100.896 106.623 100.678 106.623C100.461 106.623 100.252 106.546 100.098 106.408C99.9439 106.27 99.8574 106.084 99.8574 105.889C99.8574 105.694 99.9439 105.507 100.098 105.369C100.252 105.232 100.461 105.154 100.678 105.154C100.896 105.154 101.105 105.232 101.259 105.369C101.413 105.507 101.499 105.694 101.499 105.889V105.889Z" fill="#D0D0D0" stroke="#707070" stroke-width="0.109372"/>
<path fill-rule="evenodd" clip-rule="evenodd" d="M115.855 112.552C115.855 112.902 113.965 113.252 111.76 113.252C109.554 113.252 107.664 112.902 107.664 112.552C107.664 112.272 109.554 113.007 111.76 113.007C113.965 113.007 115.855 112.272 115.855 112.552Z" fill="#808080"/>
<path fill-rule="evenodd" clip-rule="evenodd" d="M100.697 115.072H104.793V116.507H100.697V115.072Z" fill="#A7A7A7"/>
<path fill-rule="evenodd" clip-rule="evenodd" d="M113.999 111.433C113.649 112.203 113.229 112.728 113.159 112.623C113.089 112.553 113.369 111.853 113.754 111.118C114.174 110.383 114.559 109.858 114.594 109.928C114.664 110.033 114.419 110.698 113.999 111.433ZM115.049 113.358C114.594 113.778 114.244 114.058 114.209 113.953C114.209 113.883 114.559 113.498 115.014 113.078C115.47 112.693 115.855 112.413 115.855 112.518C115.855 112.588 115.505 112.973 115.049 113.358V113.358Z" fill="#808080"/>
<path fill-rule="evenodd" clip-rule="evenodd" d="M114.559 112.414C114.874 113.044 115.084 113.569 115.014 113.604C114.979 113.604 114.664 113.149 114.314 112.554C113.964 111.923 113.754 111.433 113.824 111.398C113.894 111.398 114.174 111.853 114.524 112.449L114.559 112.414ZM114.209 115.599C114.209 115.704 112.949 115.774 111.339 115.774C109.729 115.774 108.468 115.704 108.468 115.599C108.468 115.494 109.764 115.424 111.339 115.424C112.949 115.424 114.209 115.494 114.209 115.599ZM104.793 115.249C104.793 115.354 103.883 115.424 102.763 115.424C101.607 115.424 100.697 115.354 100.697 115.249C100.697 115.144 101.607 115.074 102.728 115.074C103.848 115.074 104.828 115.144 104.828 115.249H104.793Z" fill="#808080"/>
<path fill-rule="evenodd" clip-rule="evenodd" d="M95.7969 128.003C95.7969 128.003 96.4773 129.639 99.3503 129.662C102.223 129.685 103.229 129.171 102.057 128.298C100.885 127.425 98.7303 127.703 99.01 128.453C99.2898 129.203 98.1935 129.453 97.9365 128.926C97.6794 128.398 96.6512 126.834 98.5035 126.73C100.356 126.625 104.287 126.057 105.27 127.148C106.253 128.239 104.151 129.226 105.739 129.458C107.326 129.685 107.553 129.194 110.275 129.044C112.997 128.894 114.033 129.544 114.962 129.453C115.892 129.362 115.764 127.762 115.023 127.357C114.29 126.948 112.868 126.875 112.505 126.43C112.142 125.984 111.16 126.343 111.25 125.838C111.341 125.334 112.649 126.189 112.664 125.929C112.664 125.92 112.883 125.752 112.929 125.707C112.762 125.67 112.664 125.734 112.543 125.798C112.679 125.688 112.672 125.638 112.717 125.552C112.694 125.52 112.528 125.679 112.498 125.643C112.468 125.607 112.687 125.388 112.588 125.47C112.558 125.493 112.301 125.62 112.294 125.534C112.294 125.498 112.43 125.407 112.384 125.352C112.347 125.311 112.158 125.402 112.127 125.411C112.241 125.261 112.233 125.266 112.127 125.152C112.029 125.043 111.961 125.043 111.802 125.17C111.87 124.988 111.885 124.952 111.727 124.884C111.606 124.811 111.598 124.747 111.439 125.07C111.5 124.725 111.341 124.706 111.409 124.547C111.447 124.397 111.659 124.334 112.006 124.365C112.687 124.37 113.042 125.184 113.261 125.179C113.488 125.179 113.73 124.32 114.683 124.665C115.628 125.016 115.741 125.084 116.225 125.293C116.701 125.498 115.885 125.811 116.157 126.22C116.429 126.63 118.297 127.984 117.767 129.403C117.238 130.812 115.877 131.04 115.749 131.654C115.628 132.263 120.058 132.017 121.192 132.222C122.326 132.426 123.037 133.268 123.082 133.413C123.128 133.559 121.101 133.545 121.101 133.545C121.101 133.545 120.058 133.008 117.578 132.954C115.091 132.908 114.146 131.908 113.216 131.781C112.286 131.654 110.305 131.995 109.201 131.945C108.09 131.894 106.971 131.717 106.253 131.622C105.535 131.522 101.966 133.231 101.981 133.631C101.233 133.599 99.4863 133.509 99.5544 133.554C99.63 133.599 99.8719 132.781 101.233 132.636C102.594 132.49 103.932 131.835 103.879 131.408C103.841 130.976 104.151 129.498 104.257 128.871C104.363 128.244 104.884 127.934 104.763 127.598C104.643 127.271 103.085 126.93 101.588 126.939C100.091 126.948 98.4279 127.03 98.186 127.393C97.944 127.757 98.133 128.803 98.443 128.68C98.7454 128.562 98.3674 127.875 98.6925 127.734C99.2971 127.55 99.9652 127.453 100.643 127.453C101.429 127.434 102.798 128.121 102.783 128.339C102.768 128.562 103.221 129.294 102.594 129.567C101.966 129.849 100.681 129.976 99.4485 129.912C98.3684 129.842 97.3487 129.577 96.5227 129.153C96.069 128.88 95.7969 128.057 95.7969 127.998V128.003Z" fill="#D0D0D0" stroke="#808080" stroke-width="0.058629"/>
<path fill-rule="evenodd" clip-rule="evenodd" d="M114.034 125.575C114.034 125.667 113.997 125.756 113.932 125.822C113.866 125.888 113.777 125.925 113.684 125.925C113.591 125.925 113.502 125.888 113.437 125.822C113.371 125.756 113.334 125.667 113.334 125.575C113.334 125.482 113.371 125.393 113.437 125.327C113.502 125.261 113.591 125.225 113.684 125.225C113.777 125.225 113.866 125.261 113.932 125.327C113.997 125.393 114.034 125.482 114.034 125.575Z" fill="black"/>
<path d="M129.472 120.814L131.082 121.164L133.743 119.309L133.533 120.289L132.132 121.199L131.362 121.689L131.887 122.459L132.762 123.859L132.552 124.769L130.907 121.934L129.297 121.584L129.472 120.814ZM126.777 109.088L129.857 107.653L129.017 105.833L129.437 105.658L131.432 110.033L131.012 110.208L130.172 108.388L127.092 109.788L126.742 109.088H126.777ZM121.981 103.242L124.816 100.652L125.376 101.282L125.306 105.658L127.547 103.628L128.072 104.188L125.201 106.778L124.641 106.183L124.746 101.772L122.506 103.838L121.981 103.242V103.242ZM109.554 98.237L110.044 94.3867L110.814 94.5267L110.429 97.887L113.405 98.237L113.335 98.6921L109.554 98.237ZM103.463 98.7971L102.763 95.0168L103.568 94.8768L104.163 98.202L107.104 97.677L107.209 98.132L103.463 98.7971V98.7971ZM92.1566 104.363L91.8766 104.013L93.9069 102.402L94.782 103.523C94.5928 103.922 94.3578 104.298 94.0819 104.643C93.8254 104.978 93.5318 105.283 93.2068 105.553C92.7767 105.908 92.2921 106.192 91.7716 106.393C91.2815 106.568 90.8614 106.603 90.4764 106.533C90.0913 106.463 89.7763 106.253 89.5312 105.973C89.3017 105.671 89.1786 105.302 89.1812 104.923C89.1678 104.477 89.2898 104.037 89.5312 103.663C89.8369 103.207 90.2153 102.805 90.6514 102.472C90.9731 102.218 91.326 102.007 91.7016 101.842C92.0166 101.702 92.2966 101.597 92.5767 101.597C92.8567 101.597 93.0667 101.667 93.3118 101.807L92.8217 102.367C92.6479 102.279 92.4565 102.231 92.2616 102.227C92.0866 102.227 91.9116 102.262 91.6666 102.367C91.4022 102.485 91.1549 102.638 90.9314 102.822C90.6514 103.032 90.4064 103.277 90.2313 103.523L89.9163 104.118C89.8477 104.337 89.8341 104.57 89.8769 104.796C89.9196 105.022 90.0173 105.233 90.1613 105.413C90.3522 105.662 90.625 105.835 90.9314 105.903C91.2115 105.973 91.5265 105.938 91.8766 105.798C92.2266 105.658 92.5767 105.448 92.8917 105.238C93.1544 105.022 93.3896 104.775 93.5918 104.503C93.8019 104.223 93.9419 103.978 94.0119 103.803L93.5568 103.242L92.1566 104.363V104.363ZM92.0516 132.05L88.9012 134.29L86.5208 130.93L86.8709 130.685L88.7961 133.38L89.7763 132.68L88.131 130.335L88.4811 130.09L90.1613 132.4L91.5615 131.385L92.0516 132.085V132.05ZM87.4309 127.045C87.6398 126.986 87.83 126.875 87.9833 126.722C88.1366 126.569 88.2478 126.378 88.3061 126.169C88.4461 125.714 88.4461 125.224 88.3061 124.629C88.1824 124.113 87.901 123.648 87.501 123.299C87.3286 123.155 87.1227 123.057 86.9024 123.015C86.682 122.972 86.4544 122.985 86.2408 123.054C85.9656 123.129 85.7208 123.288 85.5407 123.509C85.3374 123.758 85.2153 124.064 85.1906 124.384C85.1556 124.734 85.1906 125.084 85.2956 125.469C85.4233 125.976 85.69 126.437 86.0658 126.799C86.4158 127.15 86.8709 127.185 87.4309 127.045V127.045ZM87.641 127.85C87.0109 128.025 86.4508 127.885 85.9607 127.5C85.4707 127.045 85.1206 126.449 84.8756 125.609C84.7356 125.049 84.6655 124.559 84.7006 124.069C84.7356 123.579 84.8756 123.194 85.1206 122.879C85.3333 122.577 85.6415 122.355 85.9957 122.249C86.3658 122.14 86.7623 122.165 87.1159 122.319C87.5169 122.499 87.8573 122.79 88.096 123.159C88.3815 123.575 88.5945 124.037 88.7261 124.524C88.8661 125.084 88.9362 125.574 88.8662 126.064C88.8393 126.492 88.6939 126.905 88.4461 127.255C88.2515 127.537 87.9681 127.746 87.641 127.85V127.85ZM87.956 120.009L84.1055 119.939L84.1755 117.244C84.1755 116.684 84.2105 116.299 84.2805 116.019C84.3855 115.739 84.4905 115.494 84.6655 115.319C84.8406 115.178 85.0506 115.108 85.2606 115.108C85.5407 115.108 85.7507 115.249 85.9607 115.529C86.1708 115.809 86.2408 116.229 86.2758 116.824L86.4858 116.369C86.6302 116.114 86.8067 115.879 87.0109 115.669L88.061 114.653V115.704L87.2209 116.474L86.6958 117.034C86.5558 117.174 86.4858 117.314 86.4158 117.454C86.3676 117.566 86.3324 117.683 86.3108 117.804V118.259L86.2758 119.169L87.956 119.239V120.044V120.009ZM85.8207 119.169L85.8557 117.419L85.8207 116.579C85.7873 116.395 85.7023 116.225 85.5757 116.089C85.478 115.998 85.3566 115.937 85.2256 115.914C85.0506 115.914 84.8756 116.019 84.8056 116.264C84.6629 116.558 84.591 116.882 84.5955 117.209L84.5605 119.134L85.8207 119.169V119.169ZM96.5322 102.227V97.712L97.3024 97.257L101.398 99.3221L100.628 99.7772L99.4027 99.1471L97.2323 100.442V101.772L96.5322 102.227V102.227ZM97.2323 99.9522L98.9826 98.9021L97.8974 98.3071L97.1273 97.852L97.1973 98.6571V99.9522H97.2323ZM115.82 98.7621L119.986 97.0119L120.686 97.537L120.441 102.087L119.671 101.562L119.811 100.197L117.71 98.7271L116.52 99.2521L115.82 98.7621V98.7621ZM118.165 98.5171L119.846 99.7422L119.951 98.4821C119.986 98.132 120.021 97.817 120.091 97.607L119.391 97.992L118.165 98.5171V98.5171ZM128.492 112.868L132.237 111.958L132.867 114.583C132.972 115.108 133.042 115.529 133.042 115.809C133.042 116.068 132.969 116.323 132.832 116.544C132.692 116.754 132.552 116.894 132.342 116.929C132.062 116.999 131.817 116.929 131.572 116.684C131.263 116.356 131.035 115.96 130.907 115.529C130.907 115.739 130.907 115.879 130.837 116.019C130.753 116.289 130.635 116.547 130.487 116.789L129.717 118.084L129.472 117.104L130.067 116.124L130.452 115.424C130.557 115.249 130.592 115.073 130.627 114.968C130.64 114.852 130.64 114.735 130.627 114.618L130.557 114.163L130.312 113.253L128.667 113.638L128.492 112.868V112.868ZM130.767 113.148L131.152 114.828C131.257 115.178 131.327 115.459 131.432 115.634C131.537 115.844 131.642 115.984 131.782 116.054C131.887 116.124 132.027 116.159 132.132 116.124C132.307 116.089 132.447 115.949 132.482 115.739C132.56 115.391 132.548 115.03 132.447 114.688L131.992 112.833L130.767 113.148V113.148Z" fill="#D0D0D0"/>
</svg>
