<svg width="24" height="24" viewBox="0 0 24 24" fill="none" xmlns="http://www.w3.org/2000/svg">
<g clip-path="url(#clip0_18_4928)">
<path d="M12 24C18.6274 24 24 18.6274 24 12C24 5.37258 18.6274 0 12 0C5.37258 0 0 5.37258 0 12C0 18.6274 5.37258 24 12 24Z" fill="#F0F0F0"/>
<path d="M3.51472 20.4853C4.01811 20.9887 4.55521 21.4376 5.1186 21.8329L21.8328 5.11866C21.4376 4.55527 20.9886 4.01817 20.4852 3.51478C19.9818 3.01139 19.4447 2.56252 18.8813 2.16727L2.16721 18.8815C2.56241 19.4448 3.01133 19.9819 3.51472 20.4853Z" fill="#A2001D"/>
<path d="M3.51474 3.51469C-0.271074 7.3005 -0.997824 12.9861 1.33294 17.5021L17.5021 1.33298C12.9861 -0.997783 7.30046 -0.27094 3.51474 3.51469Z" fill="#0052B4"/>
<path d="M20.4853 20.4853C24.271 16.6996 24.9977 11.014 22.6671 6.49791L6.49789 22.6671C11.0139 24.9978 16.6995 24.2711 20.4853 20.4853Z" fill="#496E2D"/>
<path d="M9.91304 6.78263L8.56839 7.41511L9.28445 8.71739L7.82434 8.43811L7.63928 9.91304L6.62228 8.82821L5.60523 9.91304L5.42026 8.43811L3.96011 8.71735L4.67612 7.41507L3.33151 6.78263L4.67617 6.1501L3.96011 4.84791L5.42022 5.12719L5.60528 3.65218L6.62228 4.73705L7.63933 3.65218L7.82434 5.12719L9.28445 4.84791L8.56848 6.15014L9.91304 6.78263Z" fill="#FFDA44"/>
</g>
<defs>
<clipPath id="clip0_18_4928">
<rect width="24" height="24" fill="white"/>
</clipPath>
</defs>
</svg>
