<svg width="512" height="512" viewBox="0 0 512 512" fill="none" xmlns="http://www.w3.org/2000/svg">
<g clip-path="url(#clip0_7463_134379)">
<path d="M0 0H512V512H0V0Z" fill="white"/>
<path fill-rule="evenodd" clip-rule="evenodd" d="M210.399 363.5C210.399 363.5 221.999 354.1 233.199 354.1C244.399 354.1 247.599 361.9 255.399 362.5C263.199 363.2 269.799 354.7 279.399 354.5C289.199 354.1 301.399 361.3 301.399 361.3L258.899 374L210.399 363.4V363.5ZM186.099 349.7L330.399 350.4C330.399 350.4 317.899 336.9 303.199 336.6C288.599 336.3 292.599 342.9 281.399 343.8C270.099 344.8 267.299 336.9 256.999 337.2C246.699 337.5 240.699 343.8 232.999 344.1C225.099 344.4 215.099 336.3 209.199 336.6C203.199 336.9 181.999 346 181.999 346L185.999 349.7H186.099ZM167.599 332.5L345.699 333.2C348.599 329.1 336.999 319.4 326.399 318.5C317.599 318.8 311.399 327.5 304.199 327.8C296.999 328.2 288.899 318.8 280.699 319.1C272.699 319.4 264.199 327.9 256.099 327.9C247.899 327.9 241.999 318.8 231.699 318.8C221.399 318.8 216.699 328.8 208.899 328.2C200.999 327.5 194.199 318.2 186.699 318.2C179.199 318.2 166.699 329.4 164.199 328.8C161.699 328.2 167.299 333.5 167.599 332.5V332.5Z" fill="#083D9C" stroke="#083D9C" stroke-width="2"/>
<path fill-rule="evenodd" clip-rule="evenodd" d="M235.999 233.5L276.999 244.5V186C258.199 187 242.599 150.4 275.699 147.9C243.299 143.1 239.499 151.6 235.699 160.6L236.099 233.5H235.999Z" fill="#FF0000" stroke="black" stroke-width="2.5" stroke-linejoin="round"/>
<path fill-rule="evenodd" clip-rule="evenodd" d="M210.1 276L302.6 276.3Z" fill="#083D9C"/>
<path d="M210.1 276L302.6 276.3" stroke="#083D9C" stroke-width="5" stroke-linecap="round"/>
<path d="M292.3 252.8L292 261.9M214.5 253.8L225.5 268.5L214.5 253.8ZM214.5 268.5L226.4 254.1L214.5 268.5ZM220.8 252.8L220.4 261.9L220.8 252.8ZM232 253.8L243 268.5L232 253.8ZM232 268.5L243.9 254.1L232 268.5ZM238.3 252.8L237.9 261.9L238.3 252.8ZM249.9 253.8L260.7 268.5L249.9 253.8ZM249.8 268.5L261.7 254.1L249.8 268.5ZM256.1 252.8L255.8 261.9L256.1 252.8ZM268.2 253.8L279.2 268.5L268.2 253.8ZM268.2 268.5L280.2 254.1L268.2 268.5ZM274.5 252.8L274.2 261.9L274.5 252.8ZM286.1 253.8L297 268.5L286.1 253.8ZM286 268.5L298 254.1L286 268.5Z" stroke="black" stroke-width="4" stroke-linecap="round"/>
<path fill-rule="evenodd" clip-rule="evenodd" d="M148.001 277L187.301 277.2V252.5L142.301 250.4L147.901 276.9L148.001 277ZM146.001 242.9L188.001 246.9L187.601 229.4L146.601 213.2L146.101 242.9H146.001ZM154.501 207.9L186.701 223.5L191.301 218.7C191.301 218.7 188.301 216.7 188.501 214.7C188.501 212.9 191.501 212.6 191.501 210.5C191.501 208.6 188.201 208.4 188.201 206.5C187.901 204.5 190.801 202.2 190.801 202.2L161.701 177L154.501 208V207.9ZM365.701 277.2H324.201L323.901 253.2L369.501 249.7L365.701 277.2ZM324.501 247.5L373.901 241.5L363.201 213.2L324.201 229.7L324.501 247.5ZM360.501 205.4L324.701 224C324.201 222 323.701 220 321.301 218.4C321.301 218.4 323.501 217.1 323.501 214.9C323.501 212.7 320.601 212.4 320.601 211.2C320.601 210 323.201 208.8 323.401 206C323.101 204 320.601 201.4 321.101 200.8L348.801 179.6L360.301 205.3L360.501 205.4ZM283.101 247L301.001 246.2L301.301 239L283.201 247H283.101ZM228.801 246.4L210.001 246V238.5L228.801 246.5V246.4ZM228.701 244.2L210.001 234.6V222.1C210.001 222.1 207.801 222.4 208.101 219.9C208.201 214.7 221.901 229.4 228.801 234.2L228.701 244.2V244.2ZM283.101 243.1V235C283.101 235 299.901 219.8 303.501 217C303.501 220.1 301.501 222.5 301.501 222.5V234.5L283.101 243.2V243.1ZM174.001 174.7L192.901 195.7C193.401 193.7 197.701 193.5 202.101 193.7C206.501 194.1 210.001 193.5 210.001 196.7C210.001 199.7 207.701 199.3 207.701 201.5C207.701 203.7 211.101 203.5 211.101 206.3C211.101 209.1 208.701 208.5 208.601 210.7C208.601 212.5 211.201 212.7 211.201 212.7L228.901 229.8V211.4L192.401 154.1L174.001 174.7V174.7ZM203.001 153L227.801 203.7C227.801 203.7 228.101 156.9 232.201 154.4L225.201 141.6L203.001 153ZM310.701 155L283.101 204.3V183.5C283.101 183.5 285.401 180 281.801 180.3C278.201 180.6 273.701 180 273.701 180L284.801 141L310.801 155H310.701ZM339.101 176.1C338.801 176.7 320.401 195.3 320.401 195.3C319.601 193.1 314.001 194.2 308.801 194.2C303.501 194.2 302.801 195.9 303.001 197.2C303.601 200.9 305.401 198.2 305.401 201.6C305.401 204.9 302.801 203.6 302.601 206.1C302.801 208.9 306.601 208.2 304.401 210.4L283.101 230.8V211.4L322.701 149.9L339.101 176.1V176.1Z" fill="#EF7D08"/>
<path fill-rule="evenodd" clip-rule="evenodd" d="M245.1 286.3C236.2 301 212.4 296.7 206.9 286.3C205.2 285.9 206.2 222.8 206.2 222.8C206.2 222.8 203.5 221.6 203.4 219.7C203.3 217.7 207 217.6 207 215.1C207 212.6 203.2 213.5 203.1 211.1C203.1 208.6 207.2 208.9 207.1 206.7C206.8 204.2 202.5 204.6 202.3 202.2C202.1 200.4 205.3 198.8 206.3 198H196.4C191.6 198 196.5 199.1 196.4 202C196.4 203.8 194 205 193.8 206.6C193.8 208.2 197.2 209.3 197.3 211.3C197.3 213 193.8 213.2 193.9 214.8C194.2 217.5 197 218.1 197 219.8C197 221.4 193.1 222.1 193.1 223.4L193.7 288.2C199.7 320 235.1 328 245.1 286.2V286.3ZM268.4 286.3C277.4 301 301.1 296.7 306.7 286.3C308.4 285.9 307.4 222.8 307.4 222.8C307.4 222.8 310.1 221.6 310.2 219.7C310.3 217.7 306.8 217.6 306.8 215.1C306.8 212.6 310.4 213.5 310.5 211.1C310.5 208.6 306.7 208.8 306.9 206.5C307.1 204 310 204.3 310.2 202C310.3 200 308.3 198.8 307.4 198H317.1C322 198 317.1 199.1 317.1 202C317.1 203.8 319.6 205 319.8 206.6C319.8 208.2 316.3 209.3 316.3 211.3C316.3 213 319.8 213.2 319.6 214.8C319.4 217.5 316.6 218.1 316.6 219.8C316.6 221.4 320.5 222.1 320.5 223.4C320.3 226 319.9 288.2 319.9 288.2C313.8 320 278.5 328 268.4 286.2V286.3Z" fill="#FF0000" stroke="black" stroke-width="2.5" stroke-linejoin="round"/>
<path fill-rule="evenodd" clip-rule="evenodd" d="M236.5 315.3H276.3C276.6 315 267.3 301.5 256.3 302.5C244.1 302.8 235.8 315.3 236.5 315.3ZM363.3 314.3H308.9C308.9 314.3 315.9 310.2 317.9 306.3C321.4 308.3 320.4 310.2 327.4 310.5C334.4 310.8 341.2 302.5 347.9 302.8C354.6 303.1 363.3 314.6 363.3 314.3ZM148.9 314.3H203.3C203.3 314.3 196.3 310.2 194.3 306.3C190.8 308.3 191.8 310.2 184.7 310.5C177.7 310.8 171 302.5 164.2 302.8C157.5 303.1 148.9 314.6 148.9 314.3ZM152.9 297.3L191.7 297.5C191.7 297.5 189.2 292.2 188.9 285.7C178.9 282.2 170.7 293.2 163.6 293.5C156.4 293.8 148.9 285.7 148.9 285.7L152.9 297.2V297.3ZM359.9 297.3L321.1 297.5C321.1 297.5 323.6 292.2 323.9 285.7C333.9 282.2 342 293.2 349.2 293.5C356.4 293.8 363.9 285.7 363.9 285.7L359.9 297.2V297.3ZM246.4 297.5L266.1 296.9C266.1 296.9 266.4 290.9 256.1 290.9C245.8 290.9 246.7 297.9 246.4 297.5ZM234.4 289.1C237.9 287.2 241.1 285.3 243.2 281L229.8 281.3C229.8 281.3 223.6 285 220.4 289.1H234.4ZM277.9 289.1C274.176 287.45 271.112 284.598 269.2 281L282.6 281.3C282.6 281.3 288.9 285 292 289.1H278H277.9Z" fill="#083D9C" stroke="#083D9C" stroke-width="2"/>
<path fill-rule="evenodd" clip-rule="evenodd" d="M-128 384H640V512H-128V384ZM-128 0H640V128H-128V0Z" fill="#DE2010"/>
</g>
<defs>
<clipPath id="clip0_7463_134379">
<rect width="512" height="512" fill="white"/>
</clipPath>
</defs>
</svg>
