<svg width="24" height="24" viewBox="0 0 24 24" fill="none" xmlns="http://www.w3.org/2000/svg">
<g clip-path="url(#clip0_18_4678)">
<path d="M12 24C18.6274 24 24 18.6274 24 12C24 5.37258 18.6274 0 12 0C5.37258 0 0 5.37258 0 12C0 18.6274 5.37258 24 12 24Z" fill="#F0F0F0"/>
<path d="M12 0C8.07412 0 4.58873 1.88545 2.39948 4.8H21.6005C19.4113 1.88545 15.9259 0 12 0Z" fill="#D80027"/>
<path d="M12 24C15.9259 24 19.4113 22.1146 21.6005 19.2H2.39948C4.58873 22.1146 8.07412 24 12 24Z" fill="#D80027"/>
<path d="M0 12C0 12.822 0.082875 13.6246 0.240328 14.4H23.7598C23.9172 13.6246 24 12.822 24 12C24 11.1781 23.9171 10.3755 23.7597 9.60001H0.240328C0.082875 10.3755 0 11.1781 0 12H0Z" fill="#D80027"/>
<path d="M3.51469 3.51468C-1.17159 8.20096 -1.17159 15.799 3.51469 20.4853C5.45123 18.5488 7.31372 16.6863 12 12L3.51469 3.51468Z" fill="#0052B4"/>
<path d="M4.85672 8.86954L5.63367 11.2609H8.14833L6.11404 12.739L6.89095 15.1304L4.85672 13.6524L2.82239 15.1304L3.59948 12.739L1.5652 11.2609H4.07967L4.85672 8.86954Z" fill="#F0F0F0"/>
</g>
<defs>
<clipPath id="clip0_18_4678">
<rect width="24" height="24" fill="white"/>
</clipPath>
</defs>
</svg>
