<svg width="24" height="24" viewBox="0 0 24 24" fill="none" xmlns="http://www.w3.org/2000/svg">
<g clip-path="url(#clip0_18_4529)">
<path d="M12 24C18.6274 24 24 18.6274 24 12C24 5.37258 18.6274 0 12 0C5.37258 0 0 5.37258 0 12C0 18.6274 5.37258 24 12 24Z" fill="#F0F0F0"/>
<path d="M20.1004 3.14705C17.9657 1.19273 15.1222 0 12 0C11.4889 0 10.9852 0.0322031 10.4909 0.0942187L4.69565 6.78263L0.37973 15.0061C0.658543 16.0871 1.08482 17.1087 1.63481 18.0491L12 12L20.1004 3.14705Z" fill="#FFDA44"/>
<path d="M21.9905 18.6487L5.20139 21.8887C7.134 23.22 9.47578 24 12 24C16.1682 24 19.8394 21.8746 21.9905 18.6487Z" fill="#6DA544"/>
<path d="M20.1021 3.14865L1.64166 18.0608C2.12452 18.8843 2.70263 19.6451 3.36108 20.328L24 12C24 8.49568 22.4976 5.34249 20.1021 3.14865Z" fill="#D80027"/>
<path d="M0 12C0 13.0381 0.131906 14.0454 0.379734 15.0061L10.4909 0.0942078C4.57584 0.836426 0 5.88374 0 12Z" fill="#0052B4"/>
</g>
<defs>
<clipPath id="clip0_18_4529">
<rect width="24" height="24" fill="white"/>
</clipPath>
</defs>
</svg>
