<svg width="24" height="24" viewBox="0 0 24 24" fill="none" xmlns="http://www.w3.org/2000/svg">
<g clip-path="url(#clip0_18_4513)">
<path d="M12 24C18.6274 24 24 18.6274 24 12C24 5.37258 18.6274 0 12 0C5.37258 0 0 5.37258 0 12C0 18.6274 5.37258 24 12 24Z" fill="#F0F0F0"/>
<path d="M0 12C0 5.37263 5.37262 0 12 0C18.6274 0 24 5.37263 24 12" fill="#D80027"/>
<path d="M7.30432 6.2608C7.30432 4.51245 8.53306 3.05192 10.1739 2.69356C9.92168 2.63853 9.66007 2.60867 9.39125 2.60867C7.37417 2.60867 5.73907 4.24377 5.73907 6.26085C5.73907 8.27792 7.37417 9.91302 9.39125 9.91302C9.65998 9.91302 9.92164 9.88316 10.1739 9.82808C8.53306 9.46972 7.30432 8.00919 7.30432 6.2608Z" fill="#F0F0F0"/>
<path d="M12 2.86954L12.259 3.66665H13.0972L12.4191 4.15935L12.6781 4.95646L12 4.46385L11.3219 4.95646L11.5809 4.15935L10.9028 3.66665H11.741L12 2.86954Z" fill="#F0F0F0"/>
<path d="M9.96679 4.43472L10.2258 5.23188H11.0639L10.3859 5.72454L10.6449 6.52164L9.96679 6.02904L9.2886 6.52164L9.54768 5.72454L8.86954 5.23188H9.70771L9.96679 4.43472Z" fill="#F0F0F0"/>
<path d="M14.0332 4.43472L14.2923 5.23188H15.1304L14.4523 5.72454L14.7114 6.52164L14.0332 6.02904L13.3551 6.52164L13.6142 5.72454L12.9361 5.23188H13.7742L14.0332 4.43472Z" fill="#F0F0F0"/>
<path d="M13.2507 6.78256L13.5097 7.57972H14.3478L13.6697 8.07237L13.9288 8.86948L13.2507 8.37687L12.5726 8.86948L12.8316 8.07237L12.1535 7.57972H12.9916L13.2507 6.78256Z" fill="#F0F0F0"/>
<path d="M10.7494 6.78256L11.0083 7.57972H11.8466L11.1684 8.07237L11.4275 8.86948L10.7494 8.37687L10.0712 8.86948L10.3303 8.07237L9.65216 7.57972H10.4903L10.7494 6.78256Z" fill="#F0F0F0"/>
</g>
<defs>
<clipPath id="clip0_18_4513">
<rect width="24" height="24" fill="white"/>
</clipPath>
</defs>
</svg>
