<svg width="24" height="24" viewBox="0 0 24 24" fill="none" xmlns="http://www.w3.org/2000/svg">
<g clip-path="url(#clip0_18_4471)">
<path d="M12 24C18.6274 24 24 18.6274 24 12C24 5.37258 18.6274 0 12 0C5.37258 0 0 5.37258 0 12C0 18.6274 5.37258 24 12 24Z" fill="#F0F0F0"/>
<path d="M23.2536 7.8261H10.4348V4.69565H4.17389V7.8261H0.746391C0.264047 9.12604 0 10.5321 0 12C0 13.4678 0.264047 14.8739 0.746391 16.1739L12 17.2174L23.2536 16.1739C23.736 14.8739 24 13.4678 24 12C24 10.5321 23.736 9.12604 23.2536 7.8261Z" fill="#0052B4"/>
<path d="M12 24C17.1596 24 21.5581 20.7435 23.2536 16.1739H0.746391C2.44191 20.7435 6.84042 24 12 24Z" fill="#D80027"/>
<path d="M4.17389 7.8261V8.86954C4.17389 11.2658 7.30434 12 7.30434 12C7.30434 12 10.4348 11.2658 10.4348 8.86954V7.8261L9.39131 8.86959L7.30434 7.30438L5.21737 8.86959L4.17389 7.8261Z" fill="#F0F0F0"/>
</g>
<defs>
<clipPath id="clip0_18_4471">
<rect width="24" height="24" fill="white"/>
</clipPath>
</defs>
</svg>
