<svg width="24" height="24" viewBox="0 0 24 24" fill="none" xmlns="http://www.w3.org/2000/svg">
<g clip-path="url(#clip0_18_4486)">
<path d="M10.9565 13.0435C10.9565 13.0435 3.52171 3.51305 3.51468 3.51473C5.68621 1.34316 8.68626 0 12 0C18.6274 0 24 5.37262 24 12L10.9565 13.0435Z" fill="#D80027"/>
<path d="M10.9565 12C10.9565 12 3.52171 20.487 3.51468 20.4853C5.68621 22.6568 8.68626 24 12 24C18.6274 24 24 18.6274 24 12H10.9565Z" fill="#0052B4"/>
<path d="M3.51468 3.51468C-1.1716 8.20096 -1.1716 15.799 3.51468 20.4853C5.45123 18.5488 7.31371 16.6863 12 12L3.51468 3.51468Z" fill="#F0F0F0"/>
<path d="M1.31537 12.0001C1.3088 12.0862 1.30435 12.173 1.30435 12.2609C1.30435 14.1338 2.82273 15.6522 4.69566 15.6522C6.5686 15.6522 8.08698 14.1338 8.08698 12.2609C8.08698 12.173 8.08252 12.0862 8.07596 12.0001H1.31537Z" fill="#FFDA44"/>
<path d="M4.69566 10.4348C5.27196 10.4348 5.73914 9.96762 5.73914 9.39132C5.73914 8.81502 5.27196 8.34784 4.69566 8.34784C4.11936 8.34784 3.65218 8.81502 3.65218 9.39132C3.65218 9.96762 4.11936 10.4348 4.69566 10.4348Z" fill="#FFDA44"/>
<path d="M2.34784 9.13046V12.5218C2.34784 14.319 4.69567 14.8696 4.69567 14.8696C4.69567 14.8696 7.0435 14.319 7.0435 12.5218V9.13046H2.34784Z" fill="#D80027"/>
<path d="M4.69678 13.7775C4.26122 13.6207 3.39127 13.2202 3.39127 12.5217V10.1739H6V12.5217C6 13.2225 5.13014 13.6221 4.69678 13.7775Z" fill="#338AF3"/>
<path d="M5.21737 11.4783V10.9565L4.69565 10.6956L4.17388 10.9565V11.4783L3.91302 11.7391V12.7826H5.47828V11.7391L5.21737 11.4783Z" fill="#F3F3F3"/>
</g>
<defs>
<clipPath id="clip0_18_4486">
<rect width="24" height="24" fill="white"/>
</clipPath>
</defs>
</svg>
