<svg width="24" height="24" viewBox="0 0 24 24" fill="none" xmlns="http://www.w3.org/2000/svg">
<g clip-path="url(#clip0_18_4316)">
<path d="M12 24C18.6274 24 24 18.6274 24 12C24 5.37258 18.6274 0 12 0C5.37258 0 0 5.37258 0 12C0 18.6274 5.37258 24 12 24Z" fill="#F0F0F0"/>
<path d="M12 0C6.84043 0 2.44191 3.2565 0.746399 7.82611H23.2537C21.5581 3.2565 17.1596 0 12 0Z" fill="#D80027"/>
<path d="M12 24C17.1596 24 21.5581 20.7435 23.2536 16.1739H0.746399C2.44191 20.7435 6.84043 24 12 24Z" fill="black"/>
<path d="M7.17009 9.13049L7.81758 11.1232H9.91303L8.2178 12.355L8.86533 14.3479L7.17009 13.1162L5.47486 14.3479L6.12239 12.355L4.42715 11.1232H6.52261L7.17009 9.13049Z" fill="#6DA544"/>
<path d="M16.8299 9.13049L17.4774 11.1232H19.5729L17.8776 12.355L18.5251 14.3479L16.8299 13.1162L15.1347 14.3479L15.7822 12.355L14.087 11.1232H16.1824L16.8299 9.13049Z" fill="#6DA544"/>
</g>
<defs>
<clipPath id="clip0_18_4316">
<rect width="24" height="24" fill="white"/>
</clipPath>
</defs>
</svg>
