<svg width="24" height="24" viewBox="0 0 24 24" fill="none" xmlns="http://www.w3.org/2000/svg">
<g clip-path="url(#clip0_18_4171)">
<path d="M24 12C24 18.6274 18.6274 24 12 24C5.37262 24 0 18.6274 0 12C0 12.0029 12 0.0013125 12 0C18.6274 0 24 5.37262 24 12Z" fill="#0052B4"/>
<path d="M11.9679 12H12C12 11.9892 12 11.9787 12 11.9679C11.9893 11.9786 11.9786 11.9893 11.9679 12Z" fill="#F0F0F0"/>
<path d="M12 6.26086C12 4.14937 12 2.76586 12 0H11.998C5.37145 0.001125 0 5.37323 0 12H6.26086V8.47448L9.78638 12H11.9679C11.9786 11.9893 11.9893 11.9786 12 11.9679C12 11.1594 12 10.4381 12 9.78647L8.47444 6.26086H12Z" fill="#F0F0F0"/>
<path d="M6.07103 1.56519C4.1942 2.63389 2.63387 4.19417 1.56522 6.071V12H4.69567V4.69573V4.69564H12C12 3.70831 12 2.76772 12 1.56519H6.07103Z" fill="#D80027"/>
<path d="M12 10.5243L7.73649 6.26086H6.26086V6.26096L11.9999 12H12C12 12 12 10.9824 12 10.5243Z" fill="#D80027"/>
<path d="M13.5652 6.26086V12C13.5652 14.7956 17.2174 15.6522 17.2174 15.6522C17.2174 15.6522 20.8696 14.7956 20.8696 12V6.26086H13.5652Z" fill="#FFDA44"/>
<path d="M16.6957 8.34781C16.6957 8.92413 16.2285 10.4348 15.6522 10.4348C15.0759 10.4348 14.6087 8.92413 14.6087 8.34781C14.6087 7.77148 15.6522 7.30432 15.6522 7.30432C15.6522 7.30432 16.6957 7.77148 16.6957 8.34781Z" fill="#FF9811"/>
<path d="M19.4646 9.48429C19.633 9.07343 19.7639 8.47287 19.7639 8.1739C19.7639 7.69362 19.1378 7.30432 19.1378 7.30432C19.1378 7.30432 18.5117 7.69366 18.5117 8.1739C18.5117 8.47287 18.6427 9.07343 18.8111 9.48429L18.4496 10.3004C18.6621 10.3867 18.8943 10.4347 19.1378 10.4347C19.3813 10.4347 19.6135 10.3867 19.826 10.3004L19.4646 9.48429Z" fill="#A2001D"/>
<path d="M16.4348 12C16.4348 12 15.9131 13.0435 15.9131 14.087H18.5218C18.5217 13.0435 18 12 18 12L17.2174 11.4783L16.4348 12Z" fill="#6DA544"/>
<path d="M18 12V11.7392C18 11.307 17.6496 10.9565 17.2174 10.9565C16.7852 10.9565 16.4348 11.3069 16.4348 11.7392V12H18Z" fill="#D80027"/>
</g>
<defs>
<clipPath id="clip0_18_4171">
<rect width="24" height="24" fill="white"/>
</clipPath>
</defs>
</svg>
