<svg width="512" height="512" viewBox="0 0 512 512" fill="none" xmlns="http://www.w3.org/2000/svg">
<g clip-path="url(#clip0_7463_135311)">
<path d="M512 512V0H0V512H512Z" fill="#002868"/>
<path d="M491 191.5V281.5C491 341.5 461 406.125 386 441.125C311 406.125 281 341.5 281 281.5V191.5H491Z" fill="#FCD116" stroke="black" stroke-width="8"/>
<path d="M491 191.5V281.5C491 341.5 461 406.125 386 441.125C311 406.125 281 341.5 281 281.5V191.5H491Z" stroke="white" stroke-width="7"/>
<path d="M348.125 290.625C345.375 295.25 340.75 296.25 337.125 294.75C333.375 293.25 330 284.5 326.25 279.75C322.625 275.125 321.625 277.125 319.125 274.375C316.75 271.75 313 269.75 307.125 267C303.875 265.5 300.5 264.125 298.25 258.375C299.125 256 301.5 254 303.375 253.25C305.25 252.625 306.75 249.875 307 247.5C307.25 245.25 309.25 242.75 312 240.875C310.75 241.125 308.125 240.625 306.875 239.75C305.75 238.75 303.875 239 302.75 239.875C301.625 240.625 300.25 240.875 298.25 240.625C299 240 300.375 238.625 300.5 237.375C300.625 236.125 302.125 235.5 305 235.5C307.75 235.5 309.625 232.25 311.875 232.25C310.25 232.25 310.625 229.5 311.5 229.375C307.5 228.625 308 225.375 309.625 225.375C309.5 224.875 309 224.375 307.125 223.75C305.375 223.125 306.25 221.5 307.625 220.5C306.375 218 307.5 216.125 309.5 214.5C306.75 214.375 309.75 210.5 310.5 208.375C311.25 206.375 311.625 206.125 312.5 207.375C313.5 208.5 315.75 211.125 318.375 211.875C320.875 212.625 322.375 214 322.875 216.125C323.375 218.375 324.375 219.5 327.125 220.5C330 221.375 333.875 223.75 333.375 229.125C335.625 229.25 337.25 229.875 338.625 231" fill="#FCAD56"/>
<path d="M348.125 290.625C345.375 295.25 340.75 296.25 337.125 294.75C333.375 293.25 330 284.5 326.25 279.75C322.625 275.125 321.625 277.125 319.125 274.375C316.75 271.75 313 269.75 307.125 267C303.875 265.5 300.5 264.125 298.25 258.375C299.125 256 301.5 254 303.375 253.25C305.25 252.625 306.75 249.875 307 247.5C307.25 245.25 309.25 242.75 312 240.875C310.75 241.125 308.125 240.625 306.875 239.75C305.75 238.75 303.875 239 302.75 239.875C301.625 240.625 300.25 240.875 298.25 240.625C299 240 300.375 238.625 300.5 237.375C300.625 236.125 302.125 235.5 305 235.5C307.75 235.5 309.625 232.25 311.875 232.25C310.25 232.25 310.625 229.5 311.5 229.375C307.5 228.625 308 225.375 309.625 225.375C309.5 224.875 309 224.375 307.125 223.75C305.375 223.125 306.25 221.5 307.625 220.5C306.375 218 307.5 216.125 309.5 214.5C306.75 214.375 309.75 210.5 310.5 208.375C311.25 206.375 311.625 206.125 312.5 207.375C313.5 208.5 315.75 211.125 318.375 211.875C320.875 212.625 322.375 214 322.875 216.125C323.375 218.375 324.375 219.5 327.125 220.5C330 221.375 333.875 223.75 333.375 229.125C335.625 229.25 337.25 229.875 338.625 231" stroke="black" stroke-width="0.275" stroke-linecap="round" stroke-linejoin="round"/>
<path d="M354.999 222.875C354.999 225.875 356.374 227.75 358.124 229.25C359.999 230.75 361.624 232 361.249 233.875C360.874 235.875 361.624 237.125 363.249 238.375C364.999 239.625 366.249 241.125 365.749 243.625C365.249 246.125 365.624 247.625 366.624 249.5C367.624 251.375 369.374 252.875 368.624 255.875C367.874 258.875 368.249 262.875 369.249 264.875C370.124 266.75 369.249 268.25 367.499 271.625C365.749 274.875 364.749 276.125 361.124 277.375C357.374 278.5 357.124 280.75 357.124 284.625C357.124 288.625 354.499 290.625 349.624 289.875C344.624 294 341.499 289.125 340.249 283C338.999 276.875 338.749 270.25 331.374 264.875C324.124 259.375 326.999 250.125 333.124 246.375C339.249 242.75 338.499 232 337.749 225.375C337.124 218.75 341.499 215 344.874 211.375C349.374 213.125 354.999 220 354.999 222.875Z" fill="#FFA1A1" stroke="black" stroke-width="0.275" stroke-linecap="round" stroke-linejoin="round"/>
<path d="M344.376 265.5C343.001 262.25 341.501 259 345.126 252C348.876 244.875 346.501 239.5 345.376 235.875C344.251 232.375 344.001 229.125 345.376 227.625C346.876 226.25 347.501 225.375 347.626 223C347.751 220.75 349.626 221.5 349.876 222.625C350.126 223.75 350.376 225.625 348.376 229C346.376 232.5 354.001 241 350.501 250.125C348.126 256.5 351.251 264.625 352.501 270.25C353.751 275.875 354.501 289.375 346.251 291.375C351.876 288.625 346.626 270.75 344.376 265.5Z" fill="#F1B2DC" stroke="black" stroke-width="0.275" stroke-linecap="round" stroke-linejoin="round"/>
<path d="M309.5 214.5C310.375 214.5 312.25 214.25 312.25 215.375M307.25 264.5C308.625 264.75 309.375 264 309.75 263.125C310.125 262.25 310.375 261.75 311.625 261.625C312.875 261.625 314.875 261.25 315.375 260.25C315.75 259.25 317.25 260.125 318.625 257.625C319.875 255 320.75 252 324.125 250.875L307.25 264.5ZM333.375 229.125C332.125 229.125 328.5 229.25 327 232.5L333.375 229.125ZM316.625 213.625C319.625 214.5 318.375 216.5 319.875 217.625C322.625 219.75 320.125 222 322.375 222.625C324.625 223.25 324.5 223.625 324 226.125C323.25 229 326 229.125 325 231L316.625 213.625ZM312 240.875C313.75 239.25 318.125 238 319.125 236.25L312 240.875ZM311.875 232.25C314.5 232.125 318 233.125 318.5 232.125L311.875 232.25ZM311.5 229.375C312.75 229.375 315.375 228.5 315.875 226.75L311.5 229.375ZM309.625 225.375C311.125 225.375 313 225.25 314.875 223.875L309.625 225.375ZM307.625 220.5C308.75 219.625 310.75 220.625 312.625 219.375L307.625 220.5Z" stroke="black" stroke-width="0.275" stroke-linecap="round" stroke-linejoin="round"/>
<path d="M429.125 237.375C429.125 237.375 420.375 230 413.125 225C405.875 220 397.125 213.875 397.125 212.625C398.5 211.625 405.875 216.375 416 222.5C426.25 228.75 432 234.875 432 234.875L429.125 237.375ZM428.5 242.375C428.5 242.375 420 237.25 411.625 233.625C402.875 230 389.75 230 388.375 228.75C388.375 227.5 403.625 226.75 414.5 231.125C425.625 236.25 431.375 239.875 431.375 239.875L428.5 242.375ZM428.375 250.875C428.375 250.875 419.125 246.625 410.125 244.625C401.375 242.625 388.875 243.375 387.375 242.25C387.375 241 402.875 238.5 414.5 242.25C426.25 245.875 431.25 248.375 431.25 248.375L428.375 250.875ZM427.875 259.5C427.875 259.5 420.875 254.75 411.625 253.75C402.875 252.875 391.25 259.5 389.75 258.25C389.75 257 399.875 249.625 412.5 250.875C424.875 252.125 430.75 257 430.75 257L427.875 259.5ZM430.75 232.25C430.75 232.25 421.875 224.125 421.875 218.625C421.875 213.75 427.25 206.25 429.625 206.25C428.375 208.75 424.25 213.75 424.25 218.625C424.25 223.625 433.625 229.75 433.625 229.75L430.75 232.25Z" fill="#9E540A" stroke="black" stroke-width="0.275" stroke-linecap="round" stroke-linejoin="round"/>
<path d="M430.75 232.25C430.75 232.25 432.5 224.125 432.5 218.625C432.5 211.25 427.25 204.5 427.75 202.625C429.625 204.5 434.875 210 434.875 218.625C434.875 226.125 433.625 229.75 433.625 229.75L430.75 232.25Z" fill="#9E540A" stroke="black" stroke-width="0.275" stroke-linecap="round" stroke-linejoin="round"/>
<path d="M432.875 229.625C432.875 227.25 432 225.125 430.5 223.5C428.5 221.125 425.5 220.375 422.375 220.875C418.625 221.5 415.625 223.75 413.75 227.25C411.25 231.875 411 236.875 410.875 241.75C410.875 258.625 411.5 265.5 412 282.125C412.125 287 413 297 410.75 304.875C409.875 308.25 408.875 311.375 407.375 314.625C408.375 310.5 408.875 308.375 409.375 305.25C410.75 297.125 410.375 289.5 410.125 282C409.625 266.625 408.75 258.75 408.25 240.125C408.125 234.5 408.625 230.25 411.25 225.75C414 221.125 418.75 217.75 424.125 217.75C426.375 217.75 428.25 218.125 430.125 219.25C433.875 221.25 435.625 225.375 435.625 229.5L432.875 229.625Z" fill="#9E540A"/>
<path d="M433.625 289.875C433.625 289.875 430.125 296.125 427.5 300.625C424.875 305.125 422.75 306.125 420.75 304.75C418.875 303.375 420.5 299.75 422 298C423.5 296.25 431.875 288.125 431.875 288.125L433.625 289.875Z" fill="#9E540A" stroke="black" stroke-width="0.275" stroke-linecap="round" stroke-linejoin="round"/>
<path d="M434.5 290.375C434.5 290.375 433.125 297.5 432 302.625C431 307.75 429.25 309.5 427.125 308.875C424.875 308.375 425.25 304.25 426.125 302.125C427 300 432.25 289.25 432.25 289.25L434.5 290.375Z" fill="#9E540A" stroke="black" stroke-width="0.275" stroke-linecap="round" stroke-linejoin="round"/>
<path d="M435.999 290.625V303.125C435.999 308.375 434.749 310.5 432.374 310.375C430.124 310.25 429.624 306.25 430.124 303.875C430.499 301.625 433.624 290 433.624 290L435.999 290.625Z" fill="#9E540A" stroke="black" stroke-width="0.275" stroke-linecap="round" stroke-linejoin="round"/>
<path d="M436 290.5C429.375 290.375 428.75 288 428.75 288C428.75 288 427.875 285 427.75 283.125C427.625 282.875 425.875 279.125 426.375 277.5C425.75 276 424.25 272.375 425.625 271.75C425 270 424 268 423.875 266.125C423.375 264.75 422.125 261.75 423.125 260.75C423.125 260.75 420.75 255.75 421.875 254.5C421.875 254.5 420.75 249.625 421.875 248.375C421.875 248.375 421.875 243.375 423.125 242.125C423.125 242.125 423.125 237.25 424.25 236C424.25 236.25 427.75 229.125 436 229.125L435.875 239.75H436V290.5Z" fill="#9E540A" stroke="black" stroke-width="0.275" stroke-linecap="round" stroke-linejoin="round"/>
<path d="M436 269.375C425.375 269.375 424.25 266.875 424.25 266.875L423.875 266.125M436 263.25C425.375 263.125 423.125 260.75 423.125 260.75L436 263.25ZM436 257C425.375 257 421.875 254.5 421.875 254.5L436 257ZM436 250.875C425.375 250.75 421.875 248.375 421.875 248.375L436 250.875ZM436 244.625C425.375 244.5 423.125 242.125 423.125 242.125L436 244.625ZM435.875 239.75C436 239.75 427.875 239.75 426.625 238.5L424.25 236.125L435.875 239.75ZM436 285.5C432.875 285.5 429.375 285 427.75 283.125L436 285.5ZM436 280.5C430.125 280.5 426.625 278.125 426.625 278.125C426.625 278.125 426.5 277.875 426.375 277.5L436 280.5ZM436 274.375C428.25 274.25 426.125 272.625 425.625 271.75L436 274.375Z" stroke="black" stroke-width="0.275" stroke-linecap="round" stroke-linejoin="round"/>
<path d="M386 405.5C380.625 410.5 370.25 407.25 367 405C363.625 406.125 354.625 402.625 352.25 398.75C345.75 399.625 343.5 390.375 344.625 388C346.375 384.5 343.25 382.25 345.5 379.875C348.625 376.875 343.75 374 346.75 372C349.75 369.875 346 366.375 349 364.125C352.125 361.75 347.375 358.5 350.625 356.875C353.875 355.25 350.25 351 353 349.375C355.75 347.75 351.375 343.625 355.125 341.75C358.75 339.875 355.5 336.625 358.375 335.25C361.5 333.625 358.625 330.25 361.5 329.125C364.75 327.75 362.375 324.125 365.125 323.125C367.5 322.25 366 320 367.5 318H386" fill="#009E49"/>
<path d="M386 405.5C380.625 410.5 370.25 407.25 367 405C363.625 406.125 354.625 402.625 352.25 398.75C345.75 399.625 343.5 390.375 344.625 388C346.375 384.5 343.25 382.25 345.5 379.875C348.625 376.875 343.75 374 346.75 372C349.75 369.875 346 366.375 349 364.125C352.125 361.75 347.375 358.5 350.625 356.875C353.875 355.25 350.25 351 353 349.375C355.75 347.75 351.375 343.625 355.125 341.75C358.75 339.875 355.5 336.625 358.375 335.25C361.5 333.625 358.625 330.25 361.5 329.125C364.75 327.75 362.375 324.125 365.125 323.125C367.5 322.25 366 320 367.5 318H386" stroke="black" stroke-width="0.275" stroke-linecap="round" stroke-linejoin="round"/>
<path d="M378.501 319.625C376.251 322.75 379.751 324.125 377.626 326.625C375.501 329.25 378.501 330.125 376.876 333.125C375.251 336.125 378.126 336.875 376.001 339.875C373.876 342.875 377.126 345.25 374.876 348.25C372.501 351.25 376.001 352.875 373.876 355.875C371.876 359 374.876 360.625 373.001 362.875C371.126 365.25 374.376 367.5 372.001 370.375C369.751 373.125 373.001 375.25 371.126 377.75C369.251 380.375 371.876 383.125 370.251 385.25C368.626 387.25 371.376 390.375 369.001 393.125C366.751 395.875 369.501 397.75 368.126 399.625C366.751 401.5 365.626 404.25 367.001 405M373.626 318.75C371.126 321.25 374.126 323.125 371.626 326.125C369.001 329.25 371.376 330.875 369.251 333.625C367.126 336.375 370.251 337.75 367.876 340.875C365.501 343.875 368.376 345.75 365.751 348.25C363.251 350.875 366.251 353.125 363.626 355.875C361.126 358.75 364.126 360.625 361.626 363.125C359.001 365.75 362.001 368.5 359.501 371C357.001 373.625 360.001 376.875 357.126 379.875C354.376 382.875 357.626 385.25 355.376 387.5C353.001 389.875 355.126 392.25 353.501 393.875C351.876 395.5 351.626 397.75 352.251 398.75L373.626 318.75Z" stroke="black" stroke-width="0.275" stroke-linecap="round" stroke-linejoin="round"/>
<path d="M386 405.5V318" stroke="#009E49" stroke-width="0.275" stroke-linecap="round" stroke-linejoin="round"/>
<path d="M385.999 322.5C384.874 327.375 387.624 331.625 385.999 335.75C384.374 339.75 387.124 341.375 386.249 344.625C385.249 347.875 387.374 350.25 385.999 353.75C384.624 357.25 387.874 360 385.999 364.625C384.124 369.125 387.249 370.25 385.999 374.875C384.624 380.125 388.374 382.875 385.999 386.625C383.624 390.375 388.124 391.25 386.249 395.5C384.374 399.625 387.374 401.25 385.999 405.5" stroke="black" stroke-width="0.275" stroke-linecap="round" stroke-linejoin="round"/>
<path d="M387.875 338.25C387.25 339.625 389.75 342.875 388.375 345.375C386.875 347.75 389.125 351.5 387.625 354.5C386.125 357.5 390 361.25 388.5 364.75C386.875 368.25 389.25 372.625 388.5 375.875C387.875 379.125 390.125 385.375 388.5 387.625C386.875 390 390.125 390.625 388.25 396.375C386.375 402.125 385.125 397.25 386.25 395.5C388.625 391.625 383.625 390.375 386 386.625C388.375 382.875 384.625 380.125 386 374.875C387.25 370.25 384.125 369.125 386 364.625C387.875 360 384.625 357.25 386 353.75C387.375 350.25 385.25 347.875 386.25 344.625C387.125 341.375 384.375 339.75 386 335.75C387.25 331.75 388.5 336.875 387.875 338.25ZM377.375 342.25C376.5 343.75 378.875 346.625 376.75 349.5C375.25 351.5 377.75 353.875 375.625 356.75C374.25 358.75 377 361.25 375.125 364.125C373.875 365.75 376 368.875 374.5 371.25C373 373.75 375.25 375.75 372.625 379C371.125 380.75 373.75 385.125 372.125 386.5C370.5 387.875 372 393.25 370.875 394C369.875 394.875 370.875 398.75 368.125 399.625C369.5 397.75 366.75 395.875 369 393.125C371.375 390.375 368.625 387.25 370.25 385.25C371.875 383.125 369.25 380.375 371.125 377.75C373 375.25 369.75 373.125 372 370.375C374.375 367.5 371.125 365.25 373 362.875C374.875 360.625 371.875 359 373.875 355.875C376 352.875 372.5 351.25 374.875 348.25C377.125 345.25 373.875 342.875 376 339.875C378.125 336.875 375.25 336.125 376.875 333.125C379.875 334.25 378.375 340.75 377.375 342.25ZM371.125 334.125C369.875 336.125 371.625 338.5 369.75 341C367.875 343.625 369.75 346.875 367.875 349C366 351 368.375 355 366 356.625C363.625 358.25 365.125 363.125 363.25 364.75C361.375 366.375 363.25 371 361.125 373.375C359 375.75 360 380.625 358.75 381.75C357.625 382.875 360.375 385.25 358.375 386.875C356.25 388.5 356.25 391.75 353.5 393.875C355.125 392.25 353 389.875 355.375 387.5C357.625 385.25 354.375 382.875 357.125 379.875C360 376.875 357 373.625 359.5 371C362 368.5 359 365.75 361.625 363.125C364.125 360.625 361.125 358.75 363.625 355.875C366.25 353.125 363.25 350.875 365.75 348.25C368.375 345.75 365.5 343.875 367.875 340.875C370.25 337.75 367.125 336.375 369.25 333.625C370.25 332.375 370.25 331.25 370.25 330.25C371.75 326.375 371.75 333.125 371.125 334.125Z" fill="#FCD116" stroke="black" stroke-width="0.275" stroke-linecap="round" stroke-linejoin="round"/>
<path d="M368.625 320.875C368.625 294.625 372.25 285.5 386 285.5C399.75 285.5 403.375 294.625 403.375 320.875H368.625Z" fill="#CE1126" stroke="black" stroke-width="0.275" stroke-linecap="round" stroke-linejoin="round"/>
<path d="M368.625 320.875C368.625 294.625 372.25 285.5 386 285.5C379.75 285.5 375.875 290.375 374.875 293.625C373.75 296.875 374.375 296.625 375.75 295.375C377.125 294.125 376.5 296.875 375.25 298.375C374.125 299.875 373 304.25 374.625 302.875C376.25 301.375 377.5 303 375.75 305.5C374 307.875 372.5 313.625 374.25 311.625C376 309.625 376.375 312.875 375.25 314.5C374.25 316.125 374.375 317.625 375.25 316.875C376.25 316.125 376.125 319.5 375.25 320.875H368.625ZM392.5 320.375C392.5 316.5 392.625 307.375 390.5 304.375C389 302 389 299.5 390.75 302.25C392.5 305 393.375 303.625 392.125 300.875C390.625 297.375 388.625 293.5 389.125 292.75C389.75 291.875 390.125 292.25 391.375 294.125C392.625 296 392.875 293.25 391.5 291.375C390.125 289.625 390.25 289.25 393.125 290.5C398.25 292.625 400.75 298.75 400.75 319.375L392.5 320.375Z" fill="black" stroke="black" stroke-width="0.275" stroke-linecap="round" stroke-linejoin="round"/>
<path d="M386 324.625C380.5 324.625 374.5 323.75 370.5 322.125C365.75 320.25 365.5 318.625 367.125 316.625C368.375 315.125 370.875 316 373.375 317.125C375.75 318.125 382.5 318.875 386 318.875C389.5 318.875 396.25 318.125 398.625 317C401.125 316 403.625 315.125 404.875 316.625C406.5 318.625 406.25 320.25 401.5 322.125C397.5 323.75 391.5 324.625 386 324.625Z" fill="#CE1126" stroke="black" stroke-width="0.275" stroke-linecap="round" stroke-linejoin="round"/>
<path d="M0 -0.5H256V255.5H0V-0.5Z" fill="#012169"/>
<path d="M256 -0.5V31.5L161 127.5L256 221V255.5H222.5L127 161.5L34 255.5H0V221.5L93 128L0 36.5V-0.5H31L127 93.5L220 -0.5H256Z" fill="white"/>
<path d="M92 161.5L97.5 178.5L21 255.5H0V254L92 161.5ZM154 155.5L181 159.5L256 233V255.5L154 155.5ZM256 -0.5L160 97.5L158 75.5L233 -0.5H256ZM0 0L96.5 94.5L67 90.5L0 24V0Z" fill="#C8102E"/>
<path d="M88 -0.5V255.5H168V-0.5H88ZM0 87.5V167.5H256V87.5H0Z" fill="white"/>
<path d="M0 103.5V151.5H256V103.5H0ZM104 -0.5V255.5H152V-0.5H104Z" fill="#C8102E"/>
</g>
<defs>
<clipPath id="clip0_7463_135311">
<rect width="512" height="512" fill="white"/>
</clipPath>
</defs>
</svg>
