<svg width="24" height="24" viewBox="0 0 24 24" fill="none" xmlns="http://www.w3.org/2000/svg">
<g clip-path="url(#clip0_18_4295)">
<path d="M1.19072 6.78262C0.427875 8.36025 0 10.1302 0 12C0 13.8698 0.427875 15.6397 1.19072 17.2174L12 18.2609L22.8093 17.2174C23.5721 15.6397 24 13.8698 24 12C24 10.1302 23.5721 8.36025 22.8093 6.78262L12 5.73914L1.19072 6.78262Z" fill="#F0F0F0"/>
<path d="M1.19113 17.2173C3.13208 21.2313 7.24251 24 12 24C16.7575 24 20.8679 21.2313 22.8088 17.2173H1.19113Z" fill="#6DA544"/>
<path d="M1.19113 6.78263H22.8088C20.8679 2.76872 16.7575 0 12 0C7.24251 0 3.13208 2.76872 1.19113 6.78263Z" fill="#D80027"/>
<path d="M9.91306 15.1305H14.087V13.3565L13.2522 13.7739L12 12.5217L10.7479 13.7739L9.91306 13.3565V15.1305Z" fill="#FFDA44"/>
<path d="M7.52495 13.0435L7.71924 13.6413H8.34784L7.83924 14.0108L8.03354 14.6087L7.52495 14.2392L7.01635 14.6087L7.21065 14.0108L6.70206 13.6413H7.33065L7.52495 13.0435Z" fill="#FFDA44"/>
<path d="M8.12724 10.9565L8.32154 11.5544H8.95013L8.44154 11.9239L8.63579 12.5217L8.12724 12.1523L7.61865 12.5217L7.81295 11.9239L7.30435 11.5544H7.93295L8.12724 10.9565Z" fill="#FFDA44"/>
<path d="M9.84904 9.3913L10.0433 9.98914H10.6719L10.1634 10.3587L10.3576 10.9565L9.84904 10.587L9.3405 10.9565L9.53475 10.3587L9.02615 9.98914H9.65479L9.84904 9.3913Z" fill="#FFDA44"/>
<path d="M16.4751 13.0435L16.2808 13.6413H15.6522L16.1608 14.0108L15.9665 14.6087L16.4751 14.2392L16.9836 14.6087L16.7894 14.0108L17.298 13.6413H16.6694L16.4751 13.0435Z" fill="#FFDA44"/>
<path d="M15.8728 10.9565L15.6785 11.5544H15.0499L15.5585 11.9239L15.3642 12.5217L15.8728 12.1523L16.3814 12.5217L16.1871 11.9239L16.6957 11.5544H16.0671L15.8728 10.9565Z" fill="#FFDA44"/>
<path d="M14.151 9.3913L13.9567 9.98914H13.3281L13.8366 10.3587L13.6424 10.9565L14.151 10.587L14.6595 10.9565L14.4653 10.3587L14.9738 9.98914H14.3452L14.151 9.3913Z" fill="#FFDA44"/>
<path d="M12 8.60864L12.1943 9.20649H12.8229L12.3143 9.576L12.5086 10.1738L12 9.80438L11.4914 10.1738L11.6857 9.576L11.1771 9.20649H11.8057L12 8.60864Z" fill="#FFDA44"/>
</g>
<defs>
<clipPath id="clip0_18_4295">
<rect width="24" height="24" fill="white"/>
</clipPath>
</defs>
</svg>
