<svg width="24" height="24" viewBox="0 0 24 24" fill="none" xmlns="http://www.w3.org/2000/svg">
<g clip-path="url(#clip0_18_4186)">
<path d="M12 0C11.104 0 10.2312 0.0990469 9.39132 0.285234L8.8696 12L9.39132 23.7147C10.2313 23.9009 11.104 24 12 24C18.6274 24 24 18.6274 24 12C23.9999 5.37258 18.6274 0 12 0V0Z" fill="#496E2D"/>
<path d="M3.13047 3.91742C1.1859 6.05004 6.10352e-05 8.88645 6.10352e-05 12C6.10352e-05 15.1135 1.18595 17.9499 3.13051 20.0826L3.65223 12L3.13047 3.91742Z" fill="#496E2D"/>
<path d="M17.551 9.0515C18.1414 7.4059 17.4781 5.61617 16.0547 4.72479C16.3107 4.75812 16.567 4.8184 16.8199 4.9091C18.7185 5.59029 19.7054 7.68148 19.0242 9.58001C18.343 11.4787 16.2519 12.4655 14.3533 11.7843C14.1003 11.6936 13.8641 11.5771 13.6453 11.4401C15.3108 11.6569 16.9606 10.6971 17.551 9.0515Z" fill="#F0F0F0"/>
<path d="M14.2764 4.27374L13.7634 4.93665L12.9745 4.65357L13.4464 5.34629L12.9334 6.0091L13.738 5.77445L14.21 6.46707L14.2353 5.62932L15.0399 5.39462L14.2511 5.11163L14.2764 4.27374Z" fill="#F0F0F0"/>
<path d="M15.6617 6.43372L15.1486 7.09658L14.3597 6.8135L14.8316 7.50622L14.3186 8.16903L15.1232 7.93428L15.5952 8.62704L15.6206 7.78925L16.4252 7.5545L15.6363 7.27147L15.6617 6.43372Z" fill="#F0F0F0"/>
<path d="M11.8341 5.06042L11.321 5.72324L10.5322 5.44025L11.0041 6.13293L10.4911 6.79578L11.2956 6.56108L11.7676 7.25375L11.793 6.416L12.5976 6.1813L11.8087 5.89822L11.8341 5.06042Z" fill="#F0F0F0"/>
<path d="M11.7778 7.53455L11.2648 8.19741L10.4759 7.91437L10.9478 8.60709L10.4348 9.26991L11.2395 9.03525L11.7113 9.72787L11.7367 8.89012L12.5414 8.65542L11.7524 8.37234L11.7778 7.53455Z" fill="#F0F0F0"/>
<path d="M14.1322 8.37927L13.6191 9.04208L12.8302 8.75905L13.3022 9.45177L12.7891 10.1145L13.5938 9.87988L14.0657 10.5726L14.091 9.73476L14.8957 9.5001L14.1067 9.21707L14.1322 8.37927Z" fill="#F0F0F0"/>
<path d="M3.13046 3.91737V20.0825C4.76546 21.8757 6.93718 23.1706 9.39132 23.7147V0.285217C6.93713 0.829249 4.76551 2.12417 3.13046 3.91737Z" fill="#D80027"/>
<path d="M5.51967 6.31804L4.4715 5.53719V4.43296L5.51967 3.65216H7.00209L8.05026 4.43296V5.53719L7.00209 6.31804H5.51967Z" fill="#F0F0F0"/>
<path d="M6.2609 3.65216H5.51967L4.4715 4.43296V4.97282H6.2609V3.65216Z" fill="#FF9811"/>
<path d="M6.26089 6.31802H7.00208L8.05025 5.53717V4.97388H6.26089V6.31802Z" fill="#FF9811"/>
<path d="M5.51967 20.3478L4.4715 19.5669V18.4627L5.51967 17.6819H7.00209L8.05026 18.4627V19.5669L7.00209 20.3478H5.51967Z" fill="#F0F0F0"/>
<path d="M6.2609 17.6819H5.51967L4.4715 18.4627V19.0026H6.2609V17.6819Z" fill="#FF9811"/>
<path d="M6.26089 20.3478H7.00208L8.05025 19.5669V19.0037H6.26089V20.3478Z" fill="#FF9811"/>
<path d="M5.51967 13.3329L4.4715 12.5521V11.4479L5.51967 10.6671H7.00209L8.05026 11.4479V12.5521L7.00209 13.3329H5.51967Z" fill="#496E2D"/>
<path d="M8.08697 15.0509H7.63041V14.5944H6.82814L6.26086 14.0271L5.69363 14.5944H4.89136V15.0509H4.43484V15.9639H4.89136V16.4204H5.69358L6.26091 16.9878L6.82814 16.4204H7.63041V15.9639H8.08697V15.0509Z" fill="#496E2D"/>
<path d="M8.08697 8.03599H7.63041V7.57943H6.82814L6.26086 7.01215L5.69363 7.57943H4.89136V8.03599H4.43484V8.94902H4.89136V9.40554H5.69358L6.26091 9.97291L6.82814 9.40554H7.63041V8.94902H8.08697V8.03599Z" fill="#496E2D"/>
<path d="M5.73911 11.4782H6.78259V12.5217H5.73911V11.4782Z" fill="#D80027"/>
<path d="M6.26082 9.01402C6.54896 9.01402 6.78254 8.78044 6.78254 8.4923C6.78254 8.20416 6.54896 7.97058 6.26082 7.97058C5.97269 7.97058 5.73911 8.20416 5.73911 8.4923C5.73911 8.78044 5.97269 9.01402 6.26082 9.01402Z" fill="#D80027"/>
<path d="M6.26082 16.0293C6.54896 16.0293 6.78254 15.7957 6.78254 15.5076C6.78254 15.2194 6.54896 14.9858 6.26082 14.9858C5.97269 14.9858 5.73911 15.2194 5.73911 15.5076C5.73911 15.7957 5.97269 16.0293 6.26082 16.0293Z" fill="#D80027"/>
</g>
<defs>
<clipPath id="clip0_18_4186">
<rect width="24" height="24" fill="white"/>
</clipPath>
</defs>
</svg>
