<svg width="24" height="24" viewBox="0 0 24 24" fill="none" xmlns="http://www.w3.org/2000/svg">
<g clip-path="url(#clip0_18_4148)">
<path d="M24 12C24 18.6274 18.6274 24 12 24C5.37263 24 0 18.6274 0 12C0 12.0029 12 0.0013125 12 0C18.6274 0 24 5.37262 24 12Z" fill="#338AF3"/>
<path d="M5.73914 12H9.78642L6.26085 7.82611L5.73914 9.39131V12Z" fill="#0052B4"/>
<path d="M12 9.78646L7.82611 5.73914H12L12 9.78646Z" fill="#0052B4"/>
<path d="M11.9679 12H12C12 11.9892 12 11.9787 12 11.9679C11.9893 11.9786 11.9786 11.9893 11.9679 12Z" fill="#F0F0F0"/>
<path d="M12 6.26086C12 4.14937 12 2.76581 12 0H11.998C5.3715 0.001125 0 5.37323 0 12H6.26091V8.47448L9.78642 12H11.968C11.9787 11.9893 11.9894 11.9786 12.0001 11.9679C12.0001 11.1594 12.0001 10.4381 12.0001 9.78647L8.47444 6.26086H12Z" fill="#F0F0F0"/>
<path d="M6.071 1.56519C4.19417 2.63389 2.63389 4.19417 1.56519 6.071V12H4.69564V4.69573V4.69564H12C12 3.70831 12 2.76772 12 1.56519H6.071Z" fill="#D80027"/>
<path d="M12 10.5243L7.73652 6.26086H6.26089V6.26096L11.9999 12H12C12 12 12 10.9824 12 10.5243Z" fill="#D80027"/>
<path d="M13.0972 19.8261L13.3562 20.6233H14.1944L13.5163 21.1159L13.7753 21.913L13.0972 21.4204L12.4191 21.913L12.6781 21.1159L12 20.6233H12.8381L13.0972 19.8261Z" fill="#FFDA44"/>
<path d="M19.7724 14.6087L20.0314 15.4059H20.8696L20.1915 15.8986L20.4506 16.6957L19.7724 16.2031L19.0944 16.6957L19.3534 15.8986L18.6752 15.4059H19.5134L19.7724 14.6087Z" fill="#FFDA44"/>
<path d="M21.445 6.78265L21.704 7.57981H22.5422L21.8642 8.07247L22.1231 8.86958L21.445 8.37697L20.7669 8.86958L21.026 8.07247L20.3478 7.57981H21.186L21.445 6.78265Z" fill="#FFDA44"/>
<path d="M21.8593 12.5217L22.1183 13.3189H22.9565L22.2785 13.8116L22.5375 14.6087L21.8593 14.1161L21.1813 14.6087L21.4403 13.8116L20.7621 13.3189H21.6003L21.8593 12.5217Z" fill="#FFDA44"/>
<path d="M14.299 17.9513L15.046 18.3318L15.6386 17.7392L15.5076 18.567L16.2543 18.9475L15.4264 19.0787L15.2953 19.9065L14.9149 19.1597L14.087 19.2909L14.6796 18.6982L14.299 17.9513Z" fill="#FFDA44"/>
<path d="M14.299 14.8208L15.046 15.2013L15.6386 14.6087L15.5076 15.4365L16.2543 15.817L15.4264 15.9482L15.2953 16.776L14.9149 16.0292L14.087 16.1604L14.6796 15.5677L14.299 14.8208Z" fill="#FFDA44"/>
<path d="M16.9077 16.8274L17.6547 17.208L18.2473 16.6154L18.1162 17.4431L18.863 17.8237L18.0351 17.9548L17.904 18.7827L17.5236 18.0358L16.6956 18.167L17.2883 17.5744L16.9077 16.8274Z" fill="#FFDA44"/>
<path d="M16.9077 10.1252L17.6547 10.5057L18.2473 9.91309L18.1162 10.7409L18.863 11.1214L18.0351 11.2525L17.904 12.0804L17.5236 11.3336L16.6956 11.4647L17.2883 10.8721L16.9077 10.1252Z" fill="#FFDA44"/>
<path d="M19.436 10.0448L20.183 10.4253L20.7756 9.8327L20.6445 10.6605L21.3913 11.041L20.5634 11.1722L20.4323 12L20.0518 11.2532L19.2239 11.3844L19.8166 10.7917L19.436 10.0448Z" fill="#FFDA44"/>
</g>
<defs>
<clipPath id="clip0_18_4148">
<rect width="24" height="24" fill="white"/>
</clipPath>
</defs>
</svg>
