<svg width="24" height="24" viewBox="0 0 24 24" fill="none" xmlns="http://www.w3.org/2000/svg">
<g clip-path="url(#clip0_18_4063)">
<path d="M0.566625 8.34788C0.199031 9.4995 -4.68667e-05 10.7264 8.276e-09 11.9999C-4.68667e-05 13.2735 0.199078 14.5005 0.566672 15.6521L12 16.1739L23.4333 15.6522C23.8009 14.5005 24 13.2735 24 12C24 10.7264 23.8009 9.4995 23.4333 8.34783L12 7.82611L0.566625 8.34788Z" fill="#F0F0F0"/>
<path d="M23.4333 8.34789L12 7.82617L0.566592 8.34789C0.457654 8.68933 0.363857 9.03747 0.285248 9.39138H23.7145C23.636 9.03742 23.5422 8.68923 23.4333 8.34789Z" fill="#D80027"/>
<path d="M0.2854 14.6086C0.363916 14.9625 0.457713 15.3106 0.56665 15.6521L0.567775 15.6521L11.9999 16.1738L23.4333 15.6521C23.5422 15.3107 23.636 14.9625 23.7146 14.6086H0.2854Z" fill="#D80027"/>
<path d="M12 23.9999C17.3538 23.9999 21.8881 20.4935 23.4333 15.6521H0.566681C2.11192 20.4935 6.64623 23.9999 12 23.9999Z" fill="#6DA544"/>
<path d="M11.9999 6.10356e-05C6.64617 0.000107911 2.11195 3.5065 0.56662 8.34789L23.4332 8.34794C21.8881 3.50645 17.3538 1.41606e-05 11.9999 6.10356e-05Z" fill="#338AF3"/>
<path d="M5.48373 4.95661C5.48373 3.83268 6.27362 2.89378 7.32845 2.66344C7.16635 2.628 6.99812 2.60883 6.82534 2.60883C5.52868 2.60883 4.47751 3.65995 4.47751 4.95665C4.47751 6.25336 5.52859 7.30448 6.82534 7.30448C6.99812 7.30448 7.16631 7.28526 7.32845 7.24987C6.27366 7.01943 5.48373 6.08053 5.48373 4.95661Z" fill="#F0F0F0"/>
<path d="M8.71613 6.0238L8.87503 6.51294H9.38935L8.97328 6.81529L9.13219 7.30443L8.71613 7.00213L8.29997 7.30443L8.45893 6.81529L8.04282 6.51294H8.55713L8.71613 6.0238Z" fill="#F0F0F0"/>
<path d="M10.3577 6.0238L10.5167 6.51294H11.031L10.6149 6.81529L10.7738 7.30443L10.3577 7.00213L9.94159 7.30443L10.1005 6.81529L9.68448 6.51294H10.1987L10.3577 6.0238Z" fill="#F0F0F0"/>
<path d="M11.9993 6.0238L12.1582 6.51294H12.6726L12.2565 6.81529L12.4154 7.30443L11.9993 7.00213L11.5831 7.30443L11.7421 6.81529L11.326 6.51294H11.8403L11.9993 6.0238Z" fill="#F0F0F0"/>
<path d="M13.6409 6.0238L13.7999 6.51294H14.3141L13.8981 6.81529L14.057 7.30443L13.6409 7.00213L13.2247 7.30443L13.3837 6.81529L12.9676 6.51294H13.4819L13.6409 6.0238Z" fill="#F0F0F0"/>
<path d="M15.2825 6.0238L15.4414 6.51294H15.9557L15.5397 6.81529L15.6986 7.30443L15.2825 7.00213L14.8664 7.30443L15.0253 6.81529L14.6093 6.51294H15.1235L15.2825 6.0238Z" fill="#F0F0F0"/>
<path d="M10.3577 4.31628L10.5167 4.80538H11.031L10.6149 5.10777L10.7738 5.59686L10.3577 5.29457L9.94159 5.59686L10.1005 5.10777L9.68448 4.80538H10.1987L10.3577 4.31628Z" fill="#F0F0F0"/>
<path d="M11.9993 4.31628L12.1582 4.80538H12.6726L12.2565 5.10777L12.4154 5.59686L11.9993 5.29457L11.5831 5.59686L11.7421 5.10777L11.326 4.80538H11.8403L11.9993 4.31628Z" fill="#F0F0F0"/>
<path d="M13.6409 4.31628L13.7999 4.80538H14.3141L13.8981 5.10777L14.057 5.59686L13.6409 5.29457L13.2247 5.59686L13.3837 5.10777L12.9676 4.80538H13.4819L13.6409 4.31628Z" fill="#F0F0F0"/>
<path d="M15.2825 4.31628L15.4414 4.80538H15.9557L15.5397 5.10777L15.6986 5.59686L15.2825 5.29457L14.8664 5.59686L15.0253 5.10777L14.6093 4.80538H15.1235L15.2825 4.31628Z" fill="#F0F0F0"/>
<path d="M11.9993 2.6087L12.1582 3.09789H12.6726L12.2565 3.40019L12.4154 3.88938L11.9993 3.58708L11.5831 3.88938L11.7421 3.40019L11.326 3.09789H11.8403L11.9993 2.6087Z" fill="#F0F0F0"/>
<path d="M13.6409 2.6087L13.7999 3.09789H14.3141L13.8981 3.40019L14.057 3.88938L13.6409 3.58708L13.2247 3.88938L13.3837 3.40019L12.9676 3.09789H13.4819L13.6409 2.6087Z" fill="#F0F0F0"/>
<path d="M15.2825 2.6087L15.4414 3.09789H15.9557L15.5397 3.40019L15.6986 3.88938L15.2825 3.58708L14.8664 3.88938L15.0253 3.40019L14.6093 3.09789H15.1235L15.2825 2.6087Z" fill="#F0F0F0"/>
</g>
<defs>
<clipPath id="clip0_18_4063">
<rect width="24" height="24" fill="white"/>
</clipPath>
</defs>
</svg>
