<svg width="24" height="24" viewBox="0 0 24 24" fill="none" xmlns="http://www.w3.org/2000/svg">
<g clip-path="url(#clip0_18_4606)">
<path d="M24 12C24 18.6274 18.6274 24 12 24C5.37262 24 0 18.6274 0 12C4.12172 7.87828 7.61737 4.38263 12 0C18.6274 0 24 5.37262 24 12Z" fill="#D80027"/>
<path d="M12 12C12 5.37262 12 4.59131 12 0C5.37262 0 0 5.37262 0 12H12Z" fill="#0052B4"/>
<path d="M9.61191 7.82611L9.8062 8.424H10.4348L9.9262 8.79342L10.1205 9.39131L9.61191 9.0218L9.10331 9.39131L9.29761 8.79342L8.78902 8.424H9.41761L9.61191 7.82611Z" fill="#F0F0F0"/>
<path d="M6.4546 3.13046L6.77836 4.12698H7.82611L6.97843 4.74268L7.30229 5.73915L6.4546 5.12326L5.60696 5.73915L5.93077 4.74268L5.08313 4.12698H6.13079L6.4546 3.13046Z" fill="#F0F0F0"/>
<path d="M9.58505 4.17389L9.90881 5.17045H10.9565L10.1089 5.78615L10.4326 6.78262L9.58505 6.16673L8.7374 6.78262L9.06122 5.78615L8.21358 5.17045H9.26123L9.58505 4.17389Z" fill="#F0F0F0"/>
<path d="M7.1106 8.34784L7.43442 9.34435H8.48207L7.63443 9.96006L7.95825 10.9565L7.1106 10.3407L6.26296 10.9565L6.58678 9.96006L5.73914 9.34435H6.78684L7.1106 8.34784Z" fill="#F0F0F0"/>
<path d="M4.36762 5.73914L4.69144 6.73565H5.73914L4.89145 7.35135L5.21526 8.34782L4.36762 7.73198L3.52003 8.34782L3.84379 7.35135L2.9962 6.73565H4.04386L4.36762 5.73914Z" fill="#F0F0F0"/>
</g>
<defs>
<clipPath id="clip0_18_4606">
<rect width="24" height="24" fill="white"/>
</clipPath>
</defs>
</svg>
