<svg width="24" height="24" viewBox="0 0 24 24" fill="none" xmlns="http://www.w3.org/2000/svg">
<g clip-path="url(#clip0_18_3981)">
<path d="M12 24C18.6274 24 24 18.6274 24 12C24 5.37258 18.6274 0 12 0C5.37258 0 0 5.37258 0 12C0 18.6274 5.37258 24 12 24Z" fill="#496E2D"/>
<path d="M16.6957 12H12V24C13.4027 24 14.7488 23.7585 16 23.3163L16.6957 12Z" fill="#D80027"/>
<path d="M20 20.9434C22.4547 18.7462 24 15.5537 24 12H19.3043L20 20.9434Z" fill="#FF9811"/>
<path d="M16 12V23.3163C17.4905 22.7894 18.8458 21.9766 20 20.9435V12H16Z" fill="black"/>
<path d="M22.1739 7.82614H19.0434C19.0434 7.24986 18.5762 6.78265 18 6.78265C17.4237 6.78265 16.9565 7.24986 16.9565 7.82614H13.826C13.826 8.40247 14.328 8.86962 14.9042 8.86962H14.8695C14.8695 9.44595 15.3366 9.91311 15.913 9.91311C15.913 10.4894 16.3801 10.9566 16.9565 10.9566H19.0434C19.6197 10.9566 20.0869 10.4894 20.0869 9.91311C20.6632 9.91311 21.1304 9.44595 21.1304 8.86962H21.0957C21.672 8.86958 22.1739 8.40242 22.1739 7.82614Z" fill="#FF9811"/>
</g>
<defs>
<clipPath id="clip0_18_3981">
<rect width="24" height="24" fill="white"/>
</clipPath>
</defs>
</svg>
