<svg width="24" height="24" viewBox="0 0 24 24" fill="none" xmlns="http://www.w3.org/2000/svg">
<g clip-path="url(#clip0_18_3966)">
<path d="M12 24C18.6274 24 24 18.6274 24 12C24 5.37258 18.6274 0 12 0C5.37258 0 0 5.37258 0 12C0 18.6274 5.37258 24 12 24Z" fill="#F0F0F0"/>
<path d="M22.8514 6.87203C22.2418 5.58419 21.4097 4.42248 20.4047 3.436L12 2.6087L3.59531 3.43605C3.5685 3.46234 3.54234 3.48925 3.51581 3.51583L6.87206 6.87208L12 7.02869L22.8514 6.87203Z" fill="#FFDA44"/>
<path d="M3.51567 20.4843C3.55983 20.5285 3.60389 20.5727 3.6487 20.6162L12 21.3913L20.3512 20.6162C21.3666 19.6318 22.2088 18.47 22.827 17.1802L7.3043 16.6957C5.96869 18.0313 4.42819 19.5717 3.51567 20.4843Z" fill="#FFDA44"/>
<path d="M23.8807 10.308L9.91302 9.91302L12 12C11.3819 12.6181 10.4591 13.5409 9.91302 14.087L23.8733 13.7441C23.9563 13.1746 24 12.5924 24 12C24 11.4256 23.9587 10.8609 23.8807 10.308Z" fill="black"/>
<path d="M12 0C8.72681 0 5.76028 1.31109 3.59531 3.43603H20.4047C18.2397 1.31109 15.2732 0 12 0Z" fill="#6DA544"/>
<path d="M10.3081 10.308H23.8807C23.7094 9.09496 23.3571 7.94024 22.8514 6.87201H6.87202L10.3081 10.308Z" fill="#D80027"/>
<path d="M6.81985 17.1802H22.8271C23.3387 16.1127 23.6966 14.9579 23.8734 13.7441H10.2559C8.92525 15.0748 7.79753 16.2025 6.81985 17.1802Z" fill="#D80027"/>
<path d="M12 24C15.2463 24 18.191 22.7104 20.3512 20.6161H3.6488C5.80898 22.7104 8.75367 24 12 24Z" fill="#6DA544"/>
<path d="M4.28508 2.80939C4.01831 3.03354 3.76092 3.26853 3.51469 3.51467L12 12L3.51469 20.4853C3.76087 20.7315 4.01831 20.9664 4.28508 21.1906L13.4757 12L4.28508 2.80939Z" fill="black"/>
<path d="M4.82461 8.86957L5.60156 11.2609H8.11617L6.08189 12.739L6.85889 15.1305L4.82461 13.6525L2.79028 15.1305L3.56738 12.739L1.53314 11.2609H4.04761L4.82461 8.86957Z" fill="#D80027"/>
<path d="M6.96183 12.1956L4.93692 11.4783C4.93692 11.4783 4.7873 10.0747 4.77825 10.0271C4.70953 9.66509 4.39139 9.3913 4.00936 9.3913C3.57717 9.3913 3.22673 9.74169 3.22673 10.1739C3.22673 10.2456 3.23719 10.3146 3.25523 10.3806L2.68748 10.9522H3.69698C3.69698 12 2.91511 12 2.91511 13.0435L3.34884 14.087H5.95753L6.39234 13.0435H6.39216C6.4357 12.9433 6.46214 12.8401 6.47306 12.7369C6.84788 12.5853 6.96183 12.1956 6.96183 12.1956Z" fill="#FFDA44"/>
</g>
<defs>
<clipPath id="clip0_18_3966">
<rect width="24" height="24" fill="white"/>
</clipPath>
</defs>
</svg>
