<svg width="24" height="24" viewBox="0 0 24 24" fill="none" xmlns="http://www.w3.org/2000/svg">
<path d="M20.0874 11.3066C20.2582 11.5924 20.3764 11.8296 20.4487 12C20.3764 12.1704 20.2582 12.4076 20.0874 12.6934C19.7312 13.2896 19.1836 14.0348 18.4477 14.7591C16.9785 16.2054 14.8366 17.5 12 17.5C9.16344 17.5 7.0215 16.2054 5.55228 14.7591C4.81643 14.0348 4.26883 13.2896 3.91262 12.6934C3.74181 12.4076 3.62356 12.1704 3.55131 12C3.62356 11.8296 3.74181 11.5924 3.91262 11.3066C4.26883 10.7104 4.81643 9.9652 5.55228 9.24085C7.0215 7.79458 9.16344 6.5 12 6.5C14.8366 6.5 16.9785 7.79458 18.4477 9.24085C19.1836 9.9652 19.7312 10.7104 20.0874 11.3066Z" stroke="#A8B0BA" stroke-width="3"/>
<circle r="3" transform="matrix(1 0 0 -1 12 12)" fill="#A8B0BA"/>
</svg>
