<svg width="64" height="72" viewBox="0 0 64 72" fill="none" xmlns="http://www.w3.org/2000/svg">
<path fill-rule="evenodd" clip-rule="evenodd" d="M32 26C37.5228 26 42 21.5228 42 16C42 10.4772 37.5228 6 32 6C26.4772 6 22 10.4772 22 16C22 21.5228 26.4772 26 32 26ZM48 16C48 24.8366 40.8366 32 32 32C23.1634 32 16 24.8366 16 16C16 7.16344 23.1634 0 32 0C40.8366 0 48 7.16344 48 16Z" fill="#F1F4F8"/>
<path fill-rule="evenodd" clip-rule="evenodd" d="M18 46H46C52.6274 46 58 51.3726 58 58V72H64V58C64 48.0589 55.9411 40 46 40H18C8.05888 40 0 48.0589 0 58V72H6V58C6 51.3726 11.3726 46 18 46Z" fill="#F1F4F8"/>
</svg>
