<svg width="48" height="40" viewBox="0 0 48 40" fill="none" xmlns="http://www.w3.org/2000/svg">
<path d="M41.793 7.70652C41.7311 7.4592 41.5089 7.28571 41.254 7.28571C40.9991 7.28571 40.7769 7.4592 40.715 7.70652L39.992 10.5987C39.8414 11.201 39.7907 11.3754 39.7044 11.5102C39.6178 11.6456 39.5028 11.7606 39.3674 11.8472C39.2325 11.9335 39.0581 11.9842 38.4559 12.1348L35.5637 12.8578C35.3164 12.9197 35.1429 13.1419 35.1429 13.3968C35.1429 13.6517 35.3164 13.874 35.5637 13.9358L38.4559 14.6588C39.0581 14.8094 39.2325 14.8601 39.3674 14.9464C39.5028 15.033 39.6178 15.148 39.7044 15.2834C39.7907 15.4183 39.8414 15.5927 39.992 16.1949L40.715 19.0871C40.7769 19.3344 40.9991 19.5079 41.254 19.5079C41.5089 19.5079 41.7311 19.3344 41.793 19.0871L42.516 16.1949C42.6666 15.5927 42.7173 15.4183 42.8036 15.2834C42.8902 15.148 43.0052 15.033 43.1406 14.9464C43.2755 14.8601 43.4498 14.8094 44.0521 14.6588L46.9443 13.9358C47.1916 13.874 47.3651 13.6517 47.3651 13.3968C47.3651 13.1419 47.1916 12.9197 46.9443 12.8578L44.0521 12.1348C43.4498 11.9842 43.2755 11.9335 43.1406 11.8472C43.0052 11.7606 42.8902 11.6456 42.8036 11.5102C42.7173 11.3754 42.6666 11.201 42.516 10.5987L41.793 7.70652Z" fill="#8ADE39"/>
<path opacity="0.5" d="M29.5964 26.497C29.5444 26.2889 29.3574 26.1429 29.1429 26.1429C28.9283 26.1429 28.7413 26.2889 28.6893 26.497L28.0808 28.931C27.9541 29.4378 27.9114 29.5845 27.8388 29.698C27.7659 29.812 27.6691 29.9087 27.5552 29.9817C27.4417 30.0543 27.2949 30.0969 26.7881 30.2236L24.3541 30.8321C24.146 30.8842 24 31.0712 24 31.2857C24 31.5002 24.146 31.6873 24.3541 31.7393L26.7881 32.3478C27.2949 32.4745 27.4417 32.5171 27.5552 32.5898C27.6691 32.6627 27.7659 32.7595 27.8388 32.8734C27.9114 32.9869 27.9541 33.1336 28.0808 33.6405L28.6893 36.0744C28.7413 36.2826 28.9283 36.4286 29.1429 36.4286C29.3574 36.4286 29.5444 36.2826 29.5964 36.0744L30.2049 33.6405C30.3316 33.1336 30.3743 32.9869 30.4469 32.8734C30.5198 32.7595 30.6166 32.6627 30.7305 32.5898C30.844 32.5171 30.9908 32.4745 31.4976 32.3478L33.9316 31.7393C34.1397 31.6873 34.2857 31.5002 34.2857 31.2857C34.2857 31.0712 34.1397 30.8842 33.9316 30.8321L31.4976 30.2236C30.9908 30.0969 30.844 30.0543 30.7305 29.9817C30.6166 29.9087 30.5198 29.812 30.4469 29.698C30.3743 29.5845 30.3316 29.4378 30.2049 28.931L29.5964 26.497Z" fill="#8ADE39"/>
<path d="M10.7265 4.53591C10.6268 4.137 10.2683 3.85715 9.85714 3.85715C9.44595 3.85715 9.08752 4.137 8.98779 4.53591L7.82152 9.20102C7.57867 10.1724 7.49688 10.4537 7.3577 10.6712C7.21795 10.8896 7.03247 11.0751 6.81407 11.2148C6.59655 11.354 6.31527 11.4358 5.34388 11.6787L0.678767 12.8449C0.279851 12.9447 0 13.3031 0 13.7143C0 14.1255 0.279851 14.4839 0.678767 14.5836L5.34387 15.7499C6.31527 15.9928 6.59655 16.0745 6.81407 16.2137C7.03247 16.3535 7.21795 16.539 7.3577 16.7574C7.49689 16.9749 7.57867 17.2562 7.82152 18.2276L8.9878 22.8927C9.08753 23.2916 9.44595 23.5714 9.85714 23.5714C10.2683 23.5714 10.6268 23.2916 10.7265 22.8927L11.8928 18.2276C12.1356 17.2562 12.2174 16.9749 12.3566 16.7574C12.4963 16.539 12.6818 16.3535 12.9002 16.2137C13.1177 16.0745 13.399 15.9928 14.3704 15.7499L19.0355 14.5836C19.4344 14.4839 19.7143 14.1255 19.7143 13.7143C19.7143 13.3031 19.4344 12.9447 19.0355 12.8449L14.3704 11.6787C13.399 11.4358 13.1177 11.354 12.9002 11.2148C12.6818 11.0751 12.4963 10.8896 12.3566 10.6712C12.2174 10.4537 12.1356 10.1724 11.8928 9.20102L10.7265 4.53591Z" fill="#8ADE39"/>
</svg>
