<svg width="24" height="24" viewBox="0 0 24 24" fill="none" xmlns="http://www.w3.org/2000/svg">
<path fill-rule="evenodd" clip-rule="evenodd" d="M12 8C13.1046 8 14 7.10457 14 6C14 4.89543 13.1046 4 12 4C10.8954 4 10 4.89543 10 6C10 7.10457 10.8954 8 12 8ZM12 11C14.7614 11 17 8.76142 17 6C17 3.23858 14.7614 1 12 1C9.23858 1 7 3.23858 7 6C7 8.76142 9.23858 11 12 11Z" fill="black"/>
<path fill-rule="evenodd" clip-rule="evenodd" d="M2 18.5C2 15.4624 4.46243 13 7.5 13H16.5C19.5376 13 22 15.4624 22 18.5V23H19V18.5C19 17.1193 17.8807 16 16.5 16H7.5C6.11929 16 5 17.1193 5 18.5V23H2V18.5Z" fill="black"/>
</svg>
