<svg width="24" height="24" viewBox="0 0 24 24" fill="none" xmlns="http://www.w3.org/2000/svg">
<g id="Medium/Face ID">
<g id="Shape">
<path d="M6.14757 1.5L9.5 1.5V4.5H6.2C5.6152 4.5 5.26681 4.50117 5.00856 4.52227C4.85094 4.53515 4.78469 4.55214 4.76693 4.55765C4.67765 4.60469 4.60469 4.67765 4.55765 4.76693C4.55214 4.78469 4.53515 4.85094 4.52227 5.00856C4.50117 5.26681 4.5 5.6152 4.5 6.20001V9.5H1.5L1.5 6.14757C1.49997 5.6326 1.49993 5.15963 1.53223 4.76426C1.56706 4.338 1.64679 3.87165 1.88148 3.41104C2.21704 2.75247 2.75247 2.21704 3.41104 1.88148C3.87165 1.64679 4.338 1.56706 4.76426 1.53223C5.15963 1.49993 5.6326 1.49997 6.14757 1.5Z" fill="black"/>
<path d="M4.5 14.5V17.8C4.5 18.3848 4.50117 18.7332 4.52227 18.9914C4.53515 19.1491 4.55214 19.2153 4.55765 19.2331C4.60469 19.3224 4.67765 19.3953 4.76693 19.4424C4.78469 19.4479 4.85094 19.4649 5.00856 19.4777C5.26681 19.4988 5.6152 19.5 6.2 19.5H9.5V22.5L6.14758 22.5C5.63274 22.5 5.15955 22.5001 4.76426 22.4678C4.338 22.4329 3.87165 22.3532 3.41104 22.1185C2.75247 21.783 2.21704 21.2475 1.88148 20.589C1.64679 20.1284 1.56706 19.662 1.53223 19.2357C1.49993 18.8404 1.49997 18.3674 1.5 17.8524L1.5 14.5H4.5Z" fill="black"/>
<path d="M17.8 4.5C18.3848 4.5 18.7332 4.50117 18.9914 4.52227C19.1491 4.53515 19.2153 4.55214 19.2331 4.55765C19.3224 4.60469 19.3953 4.67765 19.4424 4.76693C19.4479 4.78469 19.4649 4.85094 19.4777 5.00856C19.4988 5.26681 19.5 5.6152 19.5 6.2V9.5H22.5L22.5 6.14758C22.5 5.63272 22.5001 5.15956 22.4678 4.76426C22.4329 4.338 22.3532 3.87165 22.1185 3.41104C21.783 2.75247 21.2475 2.21704 20.589 1.88148C20.1284 1.64679 19.662 1.56706 19.2357 1.53223C18.8404 1.49993 18.3674 1.49997 17.8524 1.5L14.5 1.5V4.5L17.8 4.5Z" fill="black"/>
<path d="M22.5 14.5L22.5 17.8524C22.5 18.3673 22.5001 18.8404 22.4678 19.2357C22.4329 19.662 22.3532 20.1284 22.1185 20.589C21.783 21.2475 21.2475 21.783 20.589 22.1185C20.1284 22.3532 19.662 22.4329 19.2357 22.4678C18.8404 22.5001 18.3676 22.5 17.8527 22.5L14.5 22.5V19.5H17.8C18.3848 19.5 18.7332 19.4988 18.9914 19.4777C19.1491 19.4649 19.2153 19.4479 19.2331 19.4424C19.3224 19.3953 19.3953 19.3224 19.4424 19.2331C19.4479 19.2153 19.4649 19.1491 19.4777 18.9914C19.4988 18.7332 19.5 18.3848 19.5 17.8V14.5H22.5Z" fill="black"/>
<path d="M15.5 11.5C16.6046 11.5 17.5 10.6046 17.5 9.5C17.5 8.39543 16.6046 7.5 15.5 7.5C14.3954 7.5 13.5 8.39543 13.5 9.5C13.5 10.6046 14.3954 11.5 15.5 11.5Z" fill="black"/>
<path d="M10.5 9.5C10.5 10.6046 9.60457 11.5 8.5 11.5C7.39543 11.5 6.5 10.6046 6.5 9.5C6.5 8.39543 7.39543 7.5 8.5 7.5C9.60457 7.5 10.5 8.39543 10.5 9.5Z" fill="black"/>
<path d="M9.93886 13.8301L8.76896 12.8913L6.89136 15.2311L8.06125 16.1699C10.2713 17.9434 13.7288 17.9434 15.9389 16.1699L17.1087 15.2311L15.2311 12.8913L14.0613 13.8301C12.9482 14.7233 11.0519 14.7233 9.93886 13.8301Z" fill="black"/>
</g>
</g>
</svg>
