<svg width="24" height="24" viewBox="0 0 24 24" fill="none" xmlns="http://www.w3.org/2000/svg">
<path d="M3 9L9 9L3 3L3 9Z" fill="black"/>
<path d="M12 7V12L15 15" stroke="black" stroke-width="3"/>
<path d="M5.12336 7.00382C6.31296 5.36647 8.04776 4.20732 10.0157 3.73486C11.9837 3.26239 14.0556 3.50762 15.8589 4.42645C17.6622 5.34527 19.0785 6.87738 19.853 8.74719C20.6275 10.617 20.7094 12.7018 20.084 14.6266C19.4586 16.5515 18.1669 18.19 16.4412 19.2474C14.7156 20.3049 12.6693 20.712 10.6703 20.3953C8.67134 20.0787 6.85095 19.0593 5.53654 17.5203C4.22214 15.9813 3.5 14.0239 3.5 12" stroke="black" stroke-width="3"/>
</svg>
