<svg width="20" height="20" viewBox="0 0 20 20" fill="none" xmlns="http://www.w3.org/2000/svg">
<g id="Icon" clip-path="url(#clip0_13403_7767)">
<g id="Shape">
<path d="M8.75003 13.6782L14.9285 7.49967L13.75 6.32116L8.75003 11.3212L6.25003 8.82116L5.07152 9.99967L8.75003 13.6782Z" fill="#374DFB"/>
<path fill-rule="evenodd" clip-rule="evenodd" d="M10 0.833008C4.9374 0.833008 0.833344 4.93706 0.833344 9.99967C0.833344 15.0623 4.9374 19.1663 10 19.1663C15.0626 19.1663 19.1667 15.0623 19.1667 9.99967C19.1667 4.93706 15.0626 0.833008 10 0.833008ZM2.50001 9.99967C2.50001 5.85754 5.85787 2.49967 10 2.49967C14.1421 2.49967 17.5 5.85754 17.5 9.99967C17.5 14.1418 14.1421 17.4997 10 17.4997C5.85787 17.4997 2.50001 14.1418 2.50001 9.99967Z" fill="#374DFB"/>
</g>
</g>
<defs>
<clipPath id="clip0_13403_7767">
<rect width="20" height="20" fill="white"/>
</clipPath>
</defs>
</svg>
