<svg width="20" height="20" viewBox="0 0 20 20" fill="none" xmlns="http://www.w3.org/2000/svg">
<g id="Icon" clip-path="url(#clip0_13403_4559)">
<g id="Shape">
<path d="M13.3333 9.16634H6.66665V10.833H13.3333V9.16634Z" fill="#A8B0BA"/>
<path fill-rule="evenodd" clip-rule="evenodd" d="M9.99998 0.833008C4.93737 0.833008 0.833313 4.93706 0.833313 9.99967C0.833313 15.0623 4.93737 19.1663 9.99998 19.1663C15.0626 19.1663 19.1666 15.0623 19.1666 9.99967C19.1666 4.93706 15.0626 0.833008 9.99998 0.833008ZM2.49998 9.99967C2.49998 5.85754 5.85784 2.49967 9.99998 2.49967C14.1421 2.49967 17.5 5.85754 17.5 9.99967C17.5 14.1418 14.1421 17.4997 9.99998 17.4997C5.85784 17.4997 2.49998 14.1418 2.49998 9.99967Z" fill="#A8B0BA"/>
</g>
</g>
<defs>
<clipPath id="clip0_13403_4559">
<rect width="20" height="20" fill="white"/>
</clipPath>
</defs>
</svg>
