<svg width="48" height="48" viewBox="0 0 48 48" fill="none" xmlns="http://www.w3.org/2000/svg">
<path d="M29.4147 14.1736H18.5977V33.8263H29.4147V14.1736Z" fill="#FF5F00"/>
<path d="M43.9999 24C43.9999 30.9097 38.4712 36.5 31.6376 36.5C28.7531 36.5 26.1089 35.493 24.0142 33.8264C26.8987 31.5347 28.7187 27.993 28.7187 24C28.7187 20.0069 26.8644 16.4653 24.0142 14.1736C26.1089 12.5069 28.7531 11.5 31.6376 11.5C38.4712 11.5 43.9999 17.125 43.9999 24Z" fill="#F79E1B"/>
<path d="M19.2813 24C19.2813 20.0069 21.1356 16.4653 23.9859 14.1736C21.8911 12.5069 19.2469 11.5 16.3624 11.5C9.52873 11.5 4 17.0903 4 24C4 30.9097 9.52873 36.5 16.3624 36.5C19.2469 36.5 21.8911 35.493 23.9859 33.8264C21.1356 31.5694 19.2813 27.993 19.2813 24Z" fill="#EB001B"/>
</svg>
