<svg width="48" height="48" viewBox="0 0 48 48" fill="none" xmlns="http://www.w3.org/2000/svg">
<path d="M20.0663 30.5906H16.502L18.7313 17.0383H22.2955L20.0663 30.5906Z" fill="#00579F"/>
<path d="M32.9879 17.3696C32.2848 17.0954 31.1698 16.7926 29.791 16.7926C26.2711 16.7926 23.7924 18.6379 23.7772 21.2762C23.748 23.2227 25.5519 24.3039 26.901 24.9529C28.28 25.6161 28.7488 26.049 28.7488 26.6401C28.7348 27.548 27.6345 27.9665 26.6083 27.9665C25.1852 27.9665 24.4228 27.7508 23.264 27.2457L22.7947 27.0291L22.2959 30.0713C23.1319 30.4458 24.672 30.778 26.2711 30.7926C30.011 30.7926 32.4458 28.9758 32.4747 26.1643C32.4889 24.6216 31.5364 23.4394 29.4828 22.4735C28.2362 21.8534 27.4727 21.4353 27.4727 20.8008C27.4873 20.224 28.1184 19.6332 29.5257 19.6332C30.6844 19.6043 31.5358 19.8781 32.1808 20.1521L32.5031 20.2961L32.9879 17.3696Z" fill="#00579F"/>
<path d="M37.725 25.7895C38.0185 25.0109 39.148 21.9977 39.148 21.9977C39.1332 22.0266 39.441 21.2047 39.617 20.7002L39.8661 21.8679C39.8661 21.8679 40.5411 25.1119 40.6876 25.7895C40.1306 25.7895 38.429 25.7895 37.725 25.7895ZM42.1247 17.0383H39.3677C38.5175 17.0383 37.8716 17.2832 37.5048 18.1627L32.2104 30.5904H35.9504C35.9504 30.5904 36.5661 28.9178 36.6984 28.5575C37.1087 28.5575 40.7469 28.5575 41.2747 28.5575C41.377 29.0333 41.7 30.5904 41.7 30.5904H45.0002L42.1247 17.0383Z" fill="#00579F"/>
<path d="M13.5256 17.0383L10.0349 26.2797L9.65349 24.4054C9.00814 22.2428 6.9842 19.8931 4.72559 18.7247L7.92289 30.5763H11.692L17.2945 17.0383H13.5256Z" fill="#00579F"/>
<path d="M6.7933 17.0383H1.05867L1 17.3121C5.47337 18.4367 8.436 21.1476 9.65321 24.406L8.40657 18.1775C8.20133 17.3119 7.5706 17.0668 6.7933 17.0383Z" fill="#FAA61A"/>
</svg>
