<svg width="48" height="48" viewBox="2 2 48 48" fill="none" xmlns="http://www.w3.org/2000/svg">
<circle cx="26.0004" cy="26.0004" r="24" transform="rotate(5 26.0004 26.0004)" fill="white"/>
<path fill-rule="evenodd" clip-rule="evenodd" d="M38.8631 27.515L27.2095 13.6267L13.3212 25.2803L24.9748 39.1686L38.8631 27.515ZM25.6179 31.8181L20.6716 25.9234L26.5664 20.9771L31.5127 26.8719L25.6179 31.8181Z" fill="#A792F1"/>
<path d="M23.2314 11.6618L20.796 12.5967C17.8815 13.7155 15.396 15.7282 13.6958 18.3463C11.9955 20.9645 11.1678 24.0537 11.3312 27.1712L11.4677 29.7764L6.25741 30.0494L6.12088 27.4443C5.89983 23.2265 7.01974 19.0469 9.32008 15.5047C11.6204 11.9625 14.9831 9.23944 18.9262 7.72583L21.3616 6.79095L23.2314 11.6618Z" fill="#D6CBF8"/>
<path d="M36.3941 9.25418L34.158 7.9106L31.4708 12.3828L33.7069 13.7264C36.3829 15.3342 38.4811 17.7479 39.7008 20.6216C40.9206 23.4952 41.1994 26.6812 40.4971 29.723L39.9103 32.2649L44.994 33.4385L45.5808 30.8967C46.5309 26.7813 46.1538 22.4708 44.5035 18.583C42.8532 14.6951 40.0145 11.4295 36.3941 9.25418Z" fill="#D6CBF8"/>
<path d="M16.3951 37.5544L14.4263 35.8429L11.0033 39.7806L12.9721 41.492C16.1597 44.263 20.1427 45.9536 24.3503 46.3218C28.5578 46.6899 32.7739 45.7165 36.3942 43.5412L38.6303 42.1976L35.9432 37.7254L33.7071 39.069C31.0312 40.6768 27.9149 41.3963 24.805 41.1242C21.6951 40.8521 18.7511 39.6025 16.3951 37.5544Z" fill="#D6CBF8"/>
</svg>
