<svg width="40" height="40" viewBox="0 0 40 40" fill="none" xmlns="http://www.w3.org/2000/svg">
<circle cx="20" cy="20" r="20" fill="#374DFB"/>
<path d="M17.6225 11.7026L16.2743 12.3602C14.661 13.1471 13.3382 14.4245 12.4954 16.0094C11.6527 17.5943 11.3334 19.4054 11.5832 21.1829L11.792 22.6683L8.82118 23.0858L8.61242 21.6004C8.27443 19.1955 8.70646 16.7453 9.8466 14.601C10.9867 12.4567 12.7765 10.7284 14.9592 9.66381L16.3074 9.00626L17.6225 11.7026Z" fill="white"/>
<path d="M25.0416 9.66387L23.6934 9.00632L22.3783 11.7027L23.7265 12.3603C25.3398 13.1471 26.6627 14.4246 27.5054 16.0095C28.3481 17.5944 28.6674 19.4054 28.4176 21.183L28.2089 22.6684L31.1797 23.0859L31.3884 21.6005C31.7264 19.1956 31.2944 16.7454 30.1542 14.6011C29.0141 12.4568 27.2244 10.7285 25.0416 9.66387Z" fill="white"/>
<path d="M15.0042 26.8767L13.7907 25.995L12.0273 28.4221L13.2409 29.3038C15.2056 30.7312 17.5718 31.5001 20.0004 31.5001C22.429 31.5001 24.7952 30.7312 26.7599 29.3038L27.9735 28.4221L26.2101 25.995L24.9966 26.8767C23.5444 27.9318 21.7954 28.5001 20.0004 28.5001C18.2054 28.5001 16.4564 27.9318 15.0042 26.8767Z" fill="white"/>
<path fill-rule="evenodd" clip-rule="evenodd" d="M27.3717 20L20.0003 12.6287L12.629 20L20.0003 27.3713L27.3717 20ZM20.0003 23.1287L16.8717 20L20.0003 16.8713L23.129 20L20.0003 23.1287Z" fill="white"/>
</svg>
