<svg width="40" height="40" viewBox="0 0 40 40" fill="none" xmlns="http://www.w3.org/2000/svg">
<circle cx="20" cy="20" r="20" fill="url(#paint0_linear_2842_1292)"/>
<path d="M25.8886 16.3826C26.657 16.3826 27.2799 15.7597 27.2799 14.9913C27.2799 14.2229 26.657 13.6 25.8886 13.6C25.1202 13.6 24.4973 14.2229 24.4973 14.9913C24.4973 15.7597 25.1202 16.3826 25.8886 16.3826Z" fill="white"/>
<path d="M14.6691 16.3829C15.4376 16.3829 16.0605 15.76 16.0605 14.9916C16.0605 14.2232 15.4376 13.6003 14.6691 13.6003C13.9007 13.6003 13.2778 14.2232 13.2778 14.9916C13.2778 15.76 13.9007 16.3829 14.6691 16.3829Z" fill="white"/>
<path d="M20.3245 24.7264C16.2919 24.7264 12.4244 23.1245 9.57291 20.273L7.99951 21.8464C11.2683 25.1151 15.7017 26.9515 20.3245 26.9515C24.9473 26.9515 29.3807 25.1151 32.6495 21.8464L31.0761 20.273C28.2246 23.1245 24.3571 24.7264 20.3245 24.7264Z" fill="white"/>
<defs>
<linearGradient id="paint0_linear_2842_1292" x1="20" y1="0" x2="20" y2="40" gradientUnits="userSpaceOnUse">
<stop stop-color="#313341"/>
<stop offset="1" stop-color="#444752"/>
</linearGradient>
</defs>
</svg>
