<svg width="108" height="108" viewBox="0 0 108 108" fill="none" xmlns="http://www.w3.org/2000/svg">
<path d="M53.1941 58.232C52.7109 58.2308 52.2325 58.3263 51.7868 58.5129C51.3412 58.6995 50.9374 58.9734 50.5993 59.3185C50.0226 58.7276 49.2605 58.3526 48.4404 58.2564C47.6203 58.1602 46.7921 58.3485 46.0943 58.7899L45.9548 58.232H44.4207V67.0054H46.4835V61.8452C46.5017 61.4467 46.6728 61.0705 46.9613 60.795C47.2497 60.5195 47.6333 60.3657 48.0322 60.3657C48.4311 60.3657 48.8146 60.5195 49.1031 60.795C49.3915 61.0705 49.5627 61.4467 49.5809 61.8452V67.0054H51.647V61.8452C51.647 61.4348 51.81 61.0413 52.1001 60.7512C52.3902 60.461 52.7838 60.2981 53.1941 60.2981C53.6044 60.2981 53.9979 60.461 54.288 60.7512C54.5782 61.0413 54.7412 61.4348 54.7412 61.8452V67.0054H56.8072V61.8452C56.8055 60.8874 56.4243 59.9694 55.7471 59.2922C55.0698 58.6149 54.1518 58.2337 53.1941 58.232Z" fill="white"/>
<path d="M69.4515 54.6188H67.3855V67.0053H69.4515V54.6188Z" fill="white"/>
<path d="M42.8734 58.2318H40.8074V67.0052H42.8734V58.2318Z" fill="white"/>
<path d="M62.2267 58.2318C61.2816 58.2302 60.3616 58.5365 59.606 59.1043L59.3887 58.2318H57.8384V70.6184H59.9044V66.3371C60.5996 66.7754 61.4049 67.0071 62.2267 67.0053C62.8263 67.0452 63.4276 66.9617 63.9936 66.7597C64.5595 66.5578 65.0779 66.2418 65.5168 65.8313C65.9556 65.4208 66.3054 64.9245 66.5445 64.3733C66.7837 63.822 66.9071 63.2275 66.9071 62.6267C66.9071 62.0258 66.7837 61.4313 66.5445 60.88C66.3054 60.3288 65.9556 59.8326 65.5168 59.422C65.0779 59.0115 64.5595 58.6955 63.9936 58.4936C63.4276 58.2916 62.8263 58.2081 62.2267 58.2481V58.2318ZM62.2267 64.9425C61.7674 64.9425 61.3184 64.8063 60.9365 64.5511C60.5546 64.2959 60.257 63.9332 60.0812 63.5089C59.9054 63.0845 59.8594 62.6176 59.949 62.1671C60.0387 61.7166 60.2598 61.3029 60.5846 60.9781C60.9094 60.6533 61.3232 60.4321 61.7737 60.3425C62.2241 60.2529 62.6911 60.2989 63.1154 60.4747C63.5397 60.6504 63.9024 60.9481 64.1576 61.33C64.4128 61.7119 64.549 62.1609 64.549 62.6202C64.5481 63.2358 64.3032 63.826 63.8679 64.2613C63.4325 64.6966 62.8423 64.9416 62.2267 64.9425Z" fill="white"/>
<path d="M35.1279 56.6848C36.2501 56.6848 37.1972 57.3919 37.1972 58.2319H39.2567C39.2567 56.2405 37.4047 54.6188 35.1279 54.6188C32.851 54.6188 30.999 56.2405 30.999 58.2319C30.999 60.5607 32.8121 61.151 34.1322 61.5694C34.3462 61.6375 34.57 61.7089 34.7808 61.7867C34.9917 61.8645 35.2706 61.9521 35.5041 62.0267C36.9863 62.5035 37.1939 62.6754 37.1939 63.3922C37.1939 64.2322 36.2469 64.9425 35.1246 64.9425C34.0024 64.9425 33.0586 64.2322 33.0586 63.3922H30.999C30.999 65.3869 32.851 67.0053 35.1279 67.0053C37.4047 67.0053 39.2567 65.3836 39.2567 63.3922C39.2567 61.0667 37.4534 60.4731 36.1398 60.0612C35.9193 59.9899 35.6955 59.9185 35.4717 59.8407C35.2479 59.7628 34.9917 59.6785 34.7646 59.6039C33.2824 59.1271 33.0618 58.9552 33.0618 58.2319C33.0618 57.3919 34.0089 56.6848 35.1279 56.6848Z" fill="white"/>
<path d="M78.4832 63.3924H78.9276C78.9744 63.1378 78.9983 62.8794 78.9989 62.6205C78.9988 61.5379 78.5983 60.4937 77.8744 59.6888C77.1505 58.8838 76.1545 58.3751 75.078 58.2605C74.0015 58.146 72.9207 58.4336 72.0436 59.0681C71.1665 59.7027 70.5551 60.6392 70.3271 61.6975C70.0991 62.7557 70.2707 63.8609 70.8087 64.8003C71.3467 65.7397 72.2132 66.4469 73.2413 66.7857C74.2695 67.1246 75.3866 67.0711 76.3777 66.6357C77.3688 66.2002 78.1639 65.4135 78.6097 64.4271H76.0799C75.7913 64.6606 75.4509 64.8213 75.0872 64.8957C74.7236 64.9701 74.3474 64.956 73.9903 64.8545C73.6333 64.7531 73.3058 64.5673 73.0356 64.3129C72.7653 64.0584 72.5602 63.7427 72.4375 63.3924H78.4962H78.4832ZM72.4246 61.8453C72.5839 61.3923 72.8799 60.9999 73.2718 60.7224C73.6636 60.4448 74.132 60.2957 74.6122 60.2957C75.0924 60.2957 75.5608 60.4448 75.9527 60.7224C76.3446 60.9999 76.6406 61.3923 76.7999 61.8453H72.4246Z" fill="white"/>
<path d="M41.8363 57.2005C42.5492 57.2005 43.1272 56.6226 43.1272 55.9097C43.1272 55.1967 42.5492 54.6188 41.8363 54.6188C41.1234 54.6188 40.5454 55.1967 40.5454 55.9097C40.5454 56.6226 41.1234 57.2005 41.8363 57.2005Z" fill="white"/>
<path d="M59.6698 40.1683C60.3827 40.1683 60.9607 39.5904 60.9607 38.8775C60.9607 38.1645 60.3827 37.5866 59.6698 37.5866C58.9569 37.5866 58.3789 38.1645 58.3789 38.8775C58.3789 39.5904 58.9569 40.1683 59.6698 40.1683Z" fill="white"/>
<path d="M49.2616 40.1683C49.9745 40.1683 50.5525 39.5904 50.5525 38.8775C50.5525 38.1645 49.9745 37.5866 49.2616 37.5866C48.5486 37.5866 47.9707 38.1645 47.9707 38.8775C47.9707 39.5904 48.5486 40.1683 49.2616 40.1683Z" fill="white"/>
<path fill-rule="evenodd" clip-rule="evenodd" d="M44.5326 43.7771C47.1782 46.4228 50.7665 47.9091 54.508 47.9091C58.2495 47.9091 61.8377 46.4228 64.4834 43.7771L65.9432 45.2369C62.9104 48.2697 58.797 49.9736 54.508 49.9736C50.2189 49.9736 46.1056 48.2697 43.0728 45.2369L44.5326 43.7771Z" fill="white"/>
</svg>
