<svg width="40" height="28" viewBox="0 0 40 28" fill="none" xmlns="http://www.w3.org/2000/svg">
<path d="M29.3617 3.43992H10.6383C4.78723 3.43992 0 8.19496 0 14.0067C0 19.8184 4.78723 24.5734 10.6383 24.5734H29.3617C35.2128 24.5734 40 19.8184 40 14.0067C40 8.19496 35.2128 3.43992 29.3617 3.43992Z" fill="white"/>
<path d="M29.3617 4.29583C30.6755 4.29583 31.9521 4.55472 33.1543 5.06192C34.3191 5.55328 35.3617 6.25597 36.266 7.14886C37.1649 8.04175 37.8723 9.08258 38.367 10.2396C38.8777 11.4337 39.1383 12.7017 39.1383 14.0067C39.1383 15.3117 38.8777 16.5797 38.367 17.7737C37.8723 18.9308 37.1649 19.9663 36.266 20.8645C35.367 21.7574 34.3191 22.4601 33.1543 22.9515C31.9521 23.4587 30.6755 23.7175 29.3617 23.7175H10.6383C9.32447 23.7175 8.04787 23.4587 6.84574 22.9515C5.68085 22.4601 4.6383 21.7574 3.73404 20.8645C2.83511 19.9716 2.12766 18.9308 1.63298 17.7737C1.12234 16.5797 0.861702 15.3117 0.861702 14.0067C0.861702 12.7017 1.12234 11.4337 1.63298 10.2396C2.12766 9.08258 2.83511 8.04703 3.73404 7.14886C4.63298 6.25597 5.68085 5.55328 6.84574 5.06192C8.04787 4.55472 9.32447 4.29583 10.6383 4.29583H29.3617ZM29.3617 3.43993H10.6383C4.78723 3.43993 0 8.19497 0 14.0067C0 19.8184 4.78723 24.5734 10.6383 24.5734H29.3617C35.2128 24.5734 40 19.8184 40 14.0067C40 8.19497 35.2128 3.43993 29.3617 3.43993Z" fill="#3C4043"/>
<path d="M19.1174 14.7569V17.9534H18.0961V10.06H20.8035C21.4897 10.06 22.0748 10.2872 22.5535 10.7416C23.0429 11.1959 23.2876 11.7507 23.2876 12.4058C23.2876 13.0768 23.0429 13.6316 22.5535 14.0807C22.0801 14.5297 21.495 14.7516 20.8035 14.7516H19.1174V14.7569ZM19.1174 11.0321V13.7848H20.8248C21.2291 13.7848 21.5695 13.6474 21.8355 13.378C22.1067 13.1085 22.245 12.7809 22.245 12.4111C22.245 12.0466 22.1067 11.7243 21.8355 11.4548C21.5695 11.1748 21.2344 11.0374 20.8248 11.0374H19.1174V11.0321Z" fill="#3C4043"/>
<path d="M25.9578 12.3741C26.7131 12.3741 27.3089 12.5749 27.745 12.9765C28.1812 13.378 28.3993 13.9275 28.3993 14.6249V17.9534H27.4259V17.2032H27.3833C26.9631 17.8213 26.3993 18.1277 25.6972 18.1277C25.0961 18.1277 24.5961 17.9534 24.1918 17.5994C23.7876 17.2454 23.5854 16.8069 23.5854 16.2786C23.5854 15.7185 23.7982 15.2747 24.2237 14.9472C24.6493 14.6143 25.2184 14.4505 25.9259 14.4505C26.5323 14.4505 27.0323 14.5615 27.4206 14.7834V14.5509C27.4206 14.1969 27.2823 13.901 27.0003 13.6527C26.7184 13.4044 26.3886 13.2829 26.011 13.2829C25.4418 13.2829 24.9897 13.5206 24.6599 14.0014L23.761 13.4414C24.2557 12.7281 24.9897 12.3741 25.9578 12.3741ZM24.6386 16.2944C24.6386 16.5586 24.7503 16.7805 24.9791 16.9548C25.2025 17.1292 25.4684 17.219 25.7716 17.219C26.2025 17.219 26.5855 17.0605 26.9206 16.7435C27.2557 16.4265 27.4259 16.0567 27.4259 15.6287C27.1067 15.3804 26.6652 15.2536 26.0961 15.2536C25.6812 15.2536 25.3355 15.354 25.0589 15.5495C24.7769 15.7555 24.6386 16.0038 24.6386 16.2944Z" fill="#3C4043"/>
<path d="M33.9525 12.5485L30.5482 20.3256H29.495L30.761 17.6047L28.5163 12.5485H29.628L31.245 16.4265H31.2663L32.8408 12.5485H33.9525Z" fill="#3C4043"/>
<path d="M15.0551 14.1123C15.0551 13.7816 15.0253 13.4651 14.97 13.1608H10.6892V14.9043L13.1546 14.9049C13.0546 15.485 12.7328 15.9795 12.2397 16.3092V17.4404H13.7073C14.5642 16.6526 15.0551 15.4881 15.0551 14.1123Z" fill="#4285F4"/>
<path d="M12.2402 16.3092C11.8317 16.5829 11.3057 16.743 10.6902 16.743C9.5014 16.743 8.49289 15.9473 8.13172 14.8747H6.61789V16.0413C7.36789 17.5196 8.90938 18.534 10.6902 18.534C11.9211 18.534 12.9551 18.132 13.7078 17.4398L12.2402 16.3092Z" fill="#34A853"/>
<path d="M7.98918 14.0093C7.98918 13.7082 8.03971 13.4171 8.13173 13.1434V11.9768H6.6179C6.3078 12.5881 6.13333 13.2781 6.13333 14.0093C6.13333 14.7405 6.30833 15.4306 6.6179 16.0418L8.13173 14.8753C8.03971 14.6016 7.98918 14.3105 7.98918 14.0093Z" fill="#FABB05"/>
<path d="M10.6902 11.2752C11.362 11.2752 11.9636 11.505 12.4386 11.9541L13.7392 10.6634C12.9493 9.93268 11.9195 9.48412 10.6902 9.48412C8.90991 9.48412 7.36789 10.4985 6.61789 11.9768L8.13172 13.1434C8.49289 12.0709 9.5014 11.2752 10.6902 11.2752Z" fill="#E94235"/>
</svg>
