<svg width="40" height="26" viewBox="0 0 40 26" fill="none" xmlns="http://www.w3.org/2000/svg">
    <g id="Logo">
        <path id="Shape 3" d="M25.4147 3.17383H14.5977V22.8265H25.4147V3.17383Z" fill="#FF5F00" />
        <path id="Shape 2"
            d="M39.9999 13C39.9999 19.9097 34.4712 25.5 27.6376 25.5C24.7531 25.5 22.1089 24.493 20.0142 22.8264C22.8987 20.5347 24.7187 16.993 24.7187 13C24.7187 9.00694 22.8644 5.46528 20.0142 3.17361C22.1089 1.50695 24.7531 0.5 27.6376 0.5C34.4712 0.5 39.9999 6.125 39.9999 13Z"
            fill="#F79E1B" />
        <path id="Shape 1"
            d="M15.2813 13C15.2813 9.00694 17.1356 5.46528 19.9859 3.17361C17.8911 1.50695 15.2469 0.5 12.3624 0.5C5.52873 0.5 0 6.09027 0 13C0 19.9097 5.52873 25.5 12.3624 25.5C15.2469 25.5 17.8911 24.493 19.9859 22.8264C17.1356 20.5694 15.2813 16.993 15.2813 13Z"
            fill="#EB001B" />
    </g>
</svg>
    