<svg width="40" height="25" viewBox="0 0 40 25" fill="none" xmlns="http://www.w3.org/2000/svg">
<path d="M23.2604 6.94731H17.084V18.0453H23.2604V6.94731Z" fill="#FF5F00"/>
<path d="M17.4755 12.4963C17.4755 10.2414 18.5343 8.24142 20.1617 6.94731C18.9656 6.00613 17.4558 5.4375 15.8088 5.4375C11.9068 5.4375 8.75 8.59436 8.75 12.4963C8.75 16.3983 11.9068 19.5551 15.8088 19.5551C17.4558 19.5551 18.9656 18.9865 20.1617 18.0453C18.5343 16.7708 17.4755 14.7512 17.4755 12.4963Z" fill="#EB001B"/>
<path d="M31.5929 12.4963C31.5929 16.3983 28.4361 19.5551 24.5342 19.5551C22.8871 19.5551 21.3773 18.9865 20.1813 18.0453C21.8283 16.7512 22.8675 14.7512 22.8675 12.4963C22.8675 10.2414 21.8087 8.24142 20.1813 6.94731C21.3773 6.00613 22.8871 5.4375 24.5342 5.4375C28.4361 5.4375 31.5929 8.61397 31.5929 12.4963Z" fill="#F79E1B"/>
<rect x="0.625" y="0.625" width="38.75" height="23.75" rx="1.875" stroke="#E0E5EB" stroke-width="1.25"/>
</svg>
