<svg width="40" height="28" viewBox="0 0 40 28" fill="none" xmlns="http://www.w3.org/2000/svg">
<rect width="40" height="28" rx="4" fill="#9575F3"/>
<path d="M30.6744 7.57037C31.0901 7.57037 31.427 7.21883 31.427 6.78519C31.427 6.35154 31.0901 6 30.6744 6C30.2588 6 29.9219 6.35154 29.9219 6.78519C29.9219 7.21883 30.2588 7.57037 30.6744 7.57037Z" fill="white"/>
<path d="M24.5963 7.57037C25.012 7.57037 25.3489 7.21883 25.3489 6.78519C25.3489 6.35154 25.012 6 24.5963 6C24.1807 6 23.8437 6.35154 23.8437 6.78519C23.8437 7.21883 24.1807 7.57037 24.5963 7.57037Z" fill="white"/>
<path fill-rule="evenodd" clip-rule="evenodd" d="M21.8511 9.76556C23.3935 11.3748 25.4854 12.2789 27.6667 12.2789C29.8479 12.2789 31.9399 11.3748 33.4823 9.76556L34.3333 10.6535C32.5652 12.4982 30.1672 13.5346 27.6667 13.5346C25.1662 13.5346 22.7681 12.4982 21 10.6535L21.8511 9.76556Z" fill="white"/>
</svg>
