<svg width="36" height="24" viewBox="0 0 36 24" fill="none" xmlns="http://www.w3.org/2000/svg">
<g id="Simple">
<g clip-path="url(#clip0_13119_5233)">
<rect y="24" width="24" height="36" rx="4" transform="rotate(-90 0 24)" fill="#9575F3"/>
<circle id="Circle" cx="-6" cy="12" r="14" fill="#F1F4F8"/>
<g id="Shape">
<path d="M25 10.8697C23.0369 10.8697 21.1541 10.056 19.766 8.60773L19 9.40688C20.5913 11.0671 22.7496 11.9999 25 11.9999C27.2504 11.9999 29.4087 11.0671 31 9.40688L30.234 8.60773C28.8459 10.056 26.9631 10.8697 25 10.8697Z" fill="white"/>
<path d="M22.2398 6.63208C22.6139 6.63208 22.9171 6.3157 22.9171 5.92542C22.9171 5.53514 22.6139 5.21875 22.2398 5.21875C21.8657 5.21875 21.5625 5.53514 21.5625 5.92542C21.5625 6.3157 21.8657 6.63208 22.2398 6.63208Z" fill="white"/>
<path d="M27.7086 6.63208C28.0826 6.63208 28.3859 6.3157 28.3859 5.92542C28.3859 5.53514 28.0826 5.21875 27.7086 5.21875C27.3345 5.21875 27.0312 5.53514 27.0312 5.92542C27.0312 6.3157 27.3345 6.63208 27.7086 6.63208Z" fill="white"/>
</g>
</g>
</g>
<defs>
<clipPath id="clip0_13119_5233">
<rect y="24" width="24" height="36" rx="4" transform="rotate(-90 0 24)" fill="white"/>
</clipPath>
</defs>
</svg>
