<svg width="40" height="25" viewBox="0 0 40 25" fill="none" xmlns="http://www.w3.org/2000/svg">
<path d="M16.8393 17.8902H14.0418L15.7916 7.07111H18.5889L16.8393 17.8902Z" fill="#00579F"/>
<path d="M26.9808 7.33561C26.429 7.1167 25.5539 6.875 24.4717 6.875C21.7091 6.875 19.7637 8.34816 19.7518 10.4543C19.7288 12.0083 21.1446 12.8714 22.2035 13.3895C23.2858 13.919 23.6537 14.2645 23.6537 14.7365C23.6427 15.4613 22.7792 15.7954 21.9738 15.7954C20.8569 15.7954 20.2584 15.6231 19.349 15.2199L18.9806 15.047L18.5891 17.4757C19.2453 17.7746 20.4541 18.0398 21.7091 18.0515C24.6444 18.0515 26.5554 16.6011 26.578 14.3566C26.5892 13.125 25.8416 12.1813 24.2299 11.4101C23.2514 10.9151 22.6522 10.5813 22.6522 10.0748C22.6637 9.61435 23.159 9.14272 24.2635 9.14272C25.173 9.11963 25.8412 9.33823 26.3474 9.55699L26.6004 9.67187L26.9808 7.33561Z" fill="#00579F"/>
<path d="M30.6988 14.0574C30.9292 13.4358 31.8157 11.0303 31.8157 11.0303C31.804 11.0534 32.0456 10.3973 32.1837 9.99449L32.3792 10.9267C32.3792 10.9267 32.909 13.5165 33.024 14.0574C32.5868 14.0574 31.2513 14.0574 30.6988 14.0574ZM34.1519 7.07111H31.9881C31.3208 7.07111 30.8138 7.26661 30.5259 7.96877L26.3706 17.8901H29.3059C29.3059 17.8901 29.7892 16.5547 29.8931 16.2671C30.2151 16.2671 33.0705 16.2671 33.4848 16.2671C33.5651 16.647 33.8186 17.8901 33.8186 17.8901H36.4088L34.1519 7.07111Z" fill="#00579F"/>
<path d="M11.7057 7.07111L8.96603 14.4487L8.66666 12.9524C8.16015 11.226 6.57164 9.35015 4.79895 8.41745L7.30838 17.8788H10.2666L14.6638 7.07111H11.7057Z" fill="#00579F"/>
<path d="M6.42192 7.07111H1.92105L1.875 7.28971C5.38596 8.18753 7.71121 10.3517 8.66654 12.9529L7.68811 7.98055C7.52702 7.28956 7.03199 7.0939 6.42192 7.07111Z" fill="#FAA61A"/>
<rect x="0.5" y="0.5" width="39" height="24" rx="1.5" stroke="#E0E5EB"/>
</svg>
