<svg width="24" height="24" viewBox="0 0 24 24" fill="none" xmlns="http://www.w3.org/2000/svg">
<path d="M12 6.66876C13.4949 6.66876 14.7565 7.58209 14.7565 8.66719H17.5C17.5 6.09479 15.033 4 12 4C8.96701 4 6.5 6.09479 6.5 8.66719C6.5 11.6753 8.91516 12.4378 10.6736 12.9783C10.9588 13.0662 11.2569 13.1584 11.5377 13.259C11.8185 13.3595 12.1901 13.4726 12.5012 13.569C14.4756 14.1849 14.7522 14.4069 14.7522 15.3328C14.7522 16.4179 13.4906 17.3354 11.9957 17.3354C10.5008 17.3354 9.24352 16.4179 9.24352 15.3328H6.5C6.5 17.9094 8.96701 20 12 20C15.033 20 17.5 17.9052 17.5 15.3328C17.5 12.3289 15.0978 11.5622 13.348 11.0301C13.0542 10.9379 12.7561 10.8458 12.458 10.7452C12.1599 10.6447 11.8185 10.5357 11.5161 10.4394C9.54163 9.82351 9.24784 9.60147 9.24784 8.66719C9.24784 7.58209 10.5094 6.66876 12 6.66876Z" fill="black"/>
</svg>
