<svg width="56" height="56" viewBox="0 0 56 56" fill="none" xmlns="http://www.w3.org/2000/svg">
<circle cx="28" cy="28" r="28" fill="black"/>
<path d="M28 20.8363C30.1744 20.8363 32.0094 22.1493 32.0094 23.7091H36C36 20.0113 32.4116 17 28 17C23.5884 17 20 20.0113 20 23.7091C20 28.0333 23.513 29.1294 26.0707 29.9063C26.4855 30.0327 26.9191 30.1652 27.3276 30.3098C27.7361 30.4543 28.2765 30.6169 28.729 30.7554C31.6009 31.6407 32.0031 31.9599 32.0031 33.2909C32.0031 34.8507 30.1681 36.1697 27.9937 36.1697C25.8193 36.1697 23.9906 34.8507 23.9906 33.2909H20C20 36.9948 23.5884 40 28 40C32.4116 40 36 36.9887 36 33.2909C36 28.9728 32.5059 27.8706 29.9607 27.1058C29.5334 26.9733 29.0998 26.8408 28.6661 26.6963C28.2325 26.5517 27.7361 26.3951 27.2962 26.2566C24.4242 25.3713 23.9969 25.0521 23.9969 23.7091C23.9969 22.1493 25.8319 20.8363 28 20.8363Z" fill="white"/>
</svg>
