<svg width="20" height="20" viewBox="0 0 20 20" fill="none" xmlns="http://www.w3.org/2000/svg">
<path d="M7.5 4.5C7.5 6.15685 6.15685 7.5 4.5 7.5C2.84315 7.5 1.5 6.15685 1.5 4.5C1.5 2.84315 2.84315 1.5 4.5 1.5C6.15685 1.5 7.5 2.84315 7.5 4.5Z" stroke="black" stroke-width="3"/>
<path d="M12.5 15.5C12.5 17.1569 13.8431 18.5 15.5 18.5C17.1569 18.5 18.5 17.1569 18.5 15.5C18.5 13.8431 17.1569 12.5 15.5 12.5C13.8431 12.5 12.5 13.8431 12.5 15.5Z" stroke="black" stroke-width="3"/>
<rect x="6" y="3" width="14" height="3" fill="black"/>
<rect width="14" height="3" transform="matrix(-1 0 0 1 14 14)" fill="black"/>
</svg>
