<svg width="25" height="24" viewBox="0 0 25 24" fill="none" xmlns="http://www.w3.org/2000/svg">
<g id="Large/Rewards">
<path id="Shape" fill-rule="evenodd" clip-rule="evenodd" d="M12.3 0.5C7.32949 0.5 3.30005 4.52944 3.30005 9.5C3.30005 12.1655 4.4588 14.5604 6.30005 16.2083V23L12.0471 21.0843C12.1409 21.053 12.1879 21.0374 12.2359 21.0312C12.2785 21.0257 12.3216 21.0257 12.3642 21.0312C12.4122 21.0374 12.4592 21.053 12.553 21.0843L18.3 23V16.2083C20.1413 14.5604 21.3 12.1655 21.3 9.5C21.3 4.52944 17.2706 0.5 12.3 0.5ZM6.30005 9.5C6.30005 6.18629 8.98634 3.5 12.3 3.5C15.6138 3.5 18.3 6.18629 18.3 9.5C18.3 12.8137 15.6138 15.5 12.3 15.5C8.98634 15.5 6.30005 12.8137 6.30005 9.5Z" fill="black"/>
</g>
</svg>
