<svg width="24" height="24" viewBox="0 0 24 24" fill="none" xmlns="http://www.w3.org/2000/svg">
<g clip-path="url(#clip0_541_11328)">
<circle cx="12" cy="12" r="11.5" fill="white" stroke="#E0E4EA"/>
<path d="M7.02346 9.8752C7.21181 9.63961 7.33963 9.32328 7.30592 9.00003C7.0302 9.01374 6.69373 9.18194 6.49893 9.41771C6.32403 9.61962 6.16922 9.94919 6.20958 10.2589C6.51909 10.2857 6.82832 10.1042 7.02346 9.8752Z" fill="black"/>
<path d="M7.30253 10.3194C7.02914 10.3031 6.78064 10.401 6.5796 10.4802C6.45012 10.5312 6.34032 10.5745 6.25623 10.5745C6.1635 10.5745 6.04953 10.5294 5.92133 10.4788C5.75261 10.4121 5.55925 10.3357 5.35723 10.3394C4.89451 10.3462 4.46515 10.6078 4.23033 11.0239C3.74735 11.8564 4.10287 13.0912 4.57254 13.7692C4.80062 14.1046 5.0755 14.4739 5.43769 14.4606C5.59629 14.4544 5.7102 14.4064 5.82819 14.3566C5.96477 14.299 6.10682 14.2391 6.33001 14.2391C6.54279 14.2391 6.67831 14.2971 6.8085 14.3529C6.93264 14.4061 7.05194 14.4572 7.22875 14.4539C7.60442 14.4472 7.83927 14.1183 8.06735 13.7826C8.31542 13.4201 8.42457 13.0694 8.44098 13.0167L8.44285 13.0108C8.44285 13.0108 8.43927 13.0089 8.43369 13.0063C8.34961 12.9677 7.71805 12.6774 7.71181 11.9032C7.70544 11.2534 8.20896 10.9239 8.29164 10.8698C8.29691 10.8664 8.30047 10.864 8.30208 10.8628C7.98008 10.3866 7.47696 10.3329 7.30253 10.3194Z" fill="black"/>
<path fill-rule="evenodd" clip-rule="evenodd" d="M11.2183 9.38389C12.1952 9.38389 12.8755 10.0573 12.8755 11.0378C12.8755 12.0217 12.1812 12.6987 11.1938 12.6987H10.1121V14.4188H9.33062V9.38389L11.2183 9.38389ZM10.1121 12.0427H11.0088C11.6893 12.0427 12.0765 11.6763 12.0765 11.0413C12.0765 10.4063 11.6893 10.0434 11.0123 10.0434H10.1121V12.0427Z" fill="black"/>
<path fill-rule="evenodd" clip-rule="evenodd" d="M13.0796 13.3756C13.0796 12.7335 13.5716 12.3393 14.444 12.2904L15.4488 12.2311V11.9485C15.4488 11.5402 15.1731 11.296 14.7126 11.296C14.2764 11.296 14.0042 11.5053 13.938 11.8333H13.2262C13.2681 11.1703 13.8333 10.6819 14.7405 10.6819C15.6302 10.6819 16.1989 11.1529 16.1989 11.8891V14.4188H15.4766V13.8152H15.4593C15.2465 14.2235 14.7824 14.4816 14.3009 14.4816C13.5821 14.4816 13.0796 14.035 13.0796 13.3756ZM15.4488 13.0441V12.7545L14.5451 12.8103C14.0949 12.8417 13.8403 13.0406 13.8403 13.3546C13.8403 13.6756 14.1054 13.885 14.5102 13.885C15.037 13.885 15.4488 13.5221 15.4488 13.0441Z" fill="black"/>
<path d="M16.8807 15.7692V15.1586C16.9364 15.1725 17.062 15.1725 17.1249 15.1725C17.4738 15.1725 17.6622 15.026 17.7773 14.6492C17.7773 14.6451 17.8001 14.5691 17.8189 14.5062L17.8192 14.5054C17.8324 14.4614 17.8437 14.4238 17.8437 14.4224L16.5178 10.7482H17.3342L18.2624 13.735H18.2763L19.2045 10.7482H20L18.6252 14.6107C18.3113 15.5005 17.9484 15.7867 17.1877 15.7867C17.1249 15.7867 16.9364 15.7797 16.8807 15.7692Z" fill="black"/>
</g>
<defs>
<clipPath id="clip0_541_11328">
<rect width="24" height="24" fill="white"/>
</clipPath>
</defs>
</svg>
