<svg width="24" height="24" viewBox="0 0 24 24" fill="none" xmlns="http://www.w3.org/2000/svg">
<path fill-rule="evenodd" clip-rule="evenodd" d="M23.9836 7.25071C23.4548 7.71706 22.7604 8 22 8C20.3431 8 19 6.65685 19 5C19 4.64936 19.0602 4.31278 19.1707 4H4.8C3.11984 4 2.27976 4 1.63803 4.32698C1.07354 4.6146 0.614601 5.07354 0.32698 5.63803C0 6.27976 0 7.11984 0 8.8V15.2C0 16.8802 0 17.7202 0.32698 18.362C0.614601 18.9265 1.07354 19.3854 1.63803 19.673C2.27976 20 3.11984 20 4.8 20H19.2C20.8802 20 21.7202 20 22.362 19.673C22.9265 19.3854 23.3854 18.9265 23.673 18.362C24 17.7202 24 16.8802 24 15.2V8.8C24 8.17989 24 7.67422 23.9836 7.25071Z" fill="#9575F3"/>
<path d="M15.6665 12.2465C14.3577 12.2465 13.1026 11.7041 12.1771 10.7386L11.6665 11.2713C12.7274 12.3782 14.1662 13 15.6665 13C17.1668 13 18.6056 12.3782 19.6665 11.2713L19.1559 10.7386C18.2304 11.7041 16.9753 12.2465 15.6665 12.2465Z" fill="white"/>
<path d="M13.8264 9.42147C14.0758 9.42147 14.2779 9.21055 14.2779 8.95036C14.2779 8.69017 14.0758 8.47925 13.8264 8.47925C13.577 8.47925 13.3748 8.69017 13.3748 8.95036C13.3748 9.21055 13.577 9.42147 13.8264 9.42147Z" fill="white"/>
<path d="M17.4722 9.42147C17.7216 9.42147 17.9238 9.21055 17.9238 8.95036C17.9238 8.69017 17.7216 8.47925 17.4722 8.47925C17.2228 8.47925 17.0207 8.69017 17.0207 8.95036C17.0207 9.21055 17.2228 9.42147 17.4722 9.42147Z" fill="white"/>
<circle cx="22" cy="5" r="2" fill="#0BCA1E"/>
</svg>
