<svg width="24" height="24" viewBox="0 0 24 24" fill="none" xmlns="http://www.w3.org/2000/svg">
<g clip-path="url(#clip0_541_11326)">
<circle cx="12" cy="12" r="11.5" fill="white" stroke="#E0E4EA"/>
<path d="M13.9473 8.50171H10.0537V15.4978H13.9473V8.50171Z" fill="#7375CF"/>
<path d="M19.2002 11.9998C19.2002 14.4596 17.2101 16.4496 14.7504 16.4496C13.7121 16.4496 12.7603 16.0912 12.0063 15.4979C13.0446 14.6821 13.6997 13.4213 13.6997 11.9998C13.6997 10.5783 13.0323 9.31755 12.0063 8.50175C12.7603 7.90845 13.7121 7.54999 14.7504 7.54999C17.2101 7.54999 19.2002 9.5524 19.2002 11.9998Z" fill="#00A2E5"/>
<path d="M10.3003 11.9998C10.3003 10.5783 10.9677 9.31755 11.9937 8.50175C11.2397 7.90845 10.2879 7.54999 9.24961 7.54999C6.78986 7.54999 4.7998 9.54004 4.7998 11.9998C4.7998 14.4596 6.78986 16.4496 9.24961 16.4496C10.2879 16.4496 11.2397 16.0912 11.9937 15.4979C10.9677 14.6944 10.3003 13.4213 10.3003 11.9998Z" fill="#EB001B"/>
</g>
<defs>
<clipPath id="clip0_541_11326">
<rect width="24" height="24" fill="white"/>
</clipPath>
</defs>
</svg>
