<svg width="24" height="24" viewBox="0 0 24 24" fill="none" xmlns="http://www.w3.org/2000/svg">
<g clip-path="url(#clip0_541_11325)">
<circle cx="12" cy="12" r="11.5" fill="white" stroke="#E0E4EA"/>
<path d="M13.9471 8.50165H10.0532V15.4983H13.9471V8.50165Z" fill="#FF5F00"/>
<path d="M19.1974 12C19.1974 14.4599 17.2072 16.4501 14.7472 16.4501C13.7088 16.4501 12.757 16.0916 12.0029 15.4983C13.0413 14.6824 13.6965 13.4215 13.6965 12C13.6965 10.5784 13.0289 9.31751 12.0029 8.50165C12.757 7.90829 13.7088 7.5498 14.7472 7.5498C17.2072 7.5498 19.1974 9.55238 19.1974 12Z" fill="#F79E1B"/>
<path d="M10.2993 12C10.2993 10.5784 10.9668 9.31751 11.9928 8.50165C11.2387 7.90829 10.2869 7.5498 9.24853 7.5498C6.78856 7.5498 4.79834 9.54001 4.79834 12C4.79834 14.4599 6.78856 16.4501 9.24853 16.4501C10.2869 16.4501 11.2387 16.0916 11.9928 15.4983C10.9668 14.6948 10.2993 13.4215 10.2993 12Z" fill="#EB001B"/>
</g>
<defs>
<clipPath id="clip0_541_11325">
<rect width="24" height="24" fill="white"/>
</clipPath>
</defs>
</svg>
