<svg width="24" height="24" viewBox="0 0 24 24" fill="none" xmlns="http://www.w3.org/2000/svg">
<g clip-path="url(#clip0_541_11324)">
<circle cx="12" cy="12" r="11.5" fill="white" stroke="#E0E4EA"/>
<path d="M10.2999 14.6833H8.8418L9.75382 9.04404H11.2119L10.2999 14.6833Z" fill="#00579F"/>
<path d="M15.5859 9.18189C15.2983 9.06779 14.8421 8.9418 14.2781 8.9418C12.8381 8.9418 11.8241 9.70966 11.8179 10.8075C11.8059 11.6174 12.5439 12.0673 13.0958 12.3374C13.66 12.6133 13.8517 12.7935 13.8517 13.0395C13.846 13.4172 13.3959 13.5914 12.9761 13.5914C12.3939 13.5914 12.082 13.5016 11.608 13.2914L11.416 13.2013L11.2119 14.4672C11.5539 14.623 12.184 14.7613 12.8381 14.7673C14.3681 14.7673 15.3642 14.0114 15.376 12.8415C15.3818 12.1995 14.9921 11.7076 14.152 11.3057C13.642 11.0476 13.3297 10.8737 13.3297 10.6096C13.3357 10.3696 13.5939 10.1238 14.1696 10.1238C14.6436 10.1118 14.9919 10.2257 15.2557 10.3397L15.3876 10.3996L15.5859 9.18189Z" fill="#00579F"/>
<path d="M17.524 12.6855C17.6441 12.3615 18.1062 11.1077 18.1062 11.1077C18.1001 11.1197 18.226 10.7777 18.298 10.5678L18.3999 11.0537C18.3999 11.0537 18.676 12.4036 18.736 12.6855C18.5081 12.6855 17.812 12.6855 17.524 12.6855ZM19.3239 9.04404H18.196C17.8482 9.04404 17.584 9.14594 17.4339 9.51193L15.2681 14.6832H16.798C16.798 14.6832 17.0499 13.9872 17.1041 13.8373C17.2719 13.8373 18.7602 13.8373 18.9762 13.8373C19.018 14.0353 19.1501 14.6832 19.1501 14.6832H20.5002L19.3239 9.04404Z" fill="#00579F"/>
<path d="M7.62392 9.04404L6.19593 12.8895L6.03989 12.1096C5.77588 11.2097 4.9479 10.2319 4.02393 9.7458L5.33191 14.6773H6.87384L9.16577 9.04404H7.62392Z" fill="#00579F"/>
<path d="M4.86999 9.04404H2.524L2.5 9.15798C4.33002 9.62595 5.542 10.754 6.03995 12.1098L5.52996 9.51807C5.446 9.1579 5.18797 9.05592 4.86999 9.04404Z" fill="#FAA61A"/>
</g>
<defs>
<clipPath id="clip0_541_11324">
<rect width="24" height="24" fill="white"/>
</clipPath>
</defs>
</svg>
