<svg width="24" height="24" viewBox="0 0 24 24" fill="none" xmlns="http://www.w3.org/2000/svg">
<path d="M21 9L15 9L21 3L21 9Z" fill="black"/>
<path d="M18.8766 7.00382C17.7768 5.49004 16.2082 4.38146 14.4141 3.85003C12.62 3.3186 10.7007 3.39401 8.95387 4.06457C7.20701 4.73512 5.73023 5.96335 4.75256 7.55876C3.77489 9.15417 3.35098 11.0276 3.54656 12.8885C3.74215 14.7494 4.54631 16.4937 5.83432 17.851C7.12233 19.2083 8.82221 20.1026 10.6703 20.3954C12.5184 20.6881 14.4115 20.3628 16.0559 19.4699C17.7002 18.5771 19.0041 17.1666 19.7651 15.4573" stroke="black" stroke-width="3"/>
<circle cx="12" cy="12" r="3" fill="black"/>
</svg>
